<?xml version="1.0" encoding="UTF-8"?>
<svg width="1152px" height="645px" viewBox="0 0 1152 645" version="1.1" xmlns="http://www.w3.org/2000/svg" xmlns:xlink="http://www.w3.org/1999/xlink">
    <title>Group 31</title>
    <g id="我的网页" stroke="none" stroke-width="1" fill="none" fill-rule="evenodd">
        <g id="project-1" transform="translate(-414.000000, -1403.000000)">
            <g id="Group-31" transform="translate(414.000000, 1403.000000)">
                <rect id="Rectangle-Copy-7" fill="#F6F7F7" x="0" y="0" width="1152" height="645"></rect>
                <g id="Group-12" transform="translate(753.000000, 195.000000)">
                    <circle id="Oval" fill-opacity="0.1" fill="#BD3432" cx="106" cy="106" r="106"></circle>
                    <g id="Group-11" transform="translate(42.000000, 49.000000)" font-family="PingFangSC-Semibold, PingFang SC" font-size="20" font-weight="500">
                        <text id="e.-对内交流" fill="#BD3432">
                            <tspan x="12.25" y="65">e. 对内交流</tspan>
                        </text>
                        <text id="f.-对外交流" fill="#BD3432">
                            <tspan x="14.64" y="107">f. 对外交流</tspan>
                        </text>
                        <text id="价值" fill="#555555">
                            <tspan x="44" y="21">价值</tspan>
                        </text>
                    </g>
                </g>
                <g id="Group-19" transform="translate(470.000000, 195.000000)">
                    <g id="Group-Copy" fill="#BD3432" fill-opacity="0.1">
                        <circle id="Oval" cx="106" cy="106" r="106"></circle>
                    </g>
                    <g id="Group-17" transform="translate(60.000000, 47.000000)" font-family="PingFangSC-Semibold, PingFang SC" font-size="20" font-weight="500">
                        <text id="a.-组织-copy" fill="#BD3432">
                            <tspan x="14.7" y="69">a. 组织</tspan>
                        </text>
                        <text id="b.-协作-copy" fill="#BD3432">
                            <tspan x="14.4" y="111">b. 协作</tspan>
                        </text>
                        <text id="协作" fill="#555555">
                            <tspan x="26" y="21">协作</tspan>
                        </text>
                    </g>
                </g>
                <g id="Group-20" transform="translate(186.000000, 195.000000)">
                    <g id="Group" fill="#BD3432" fill-opacity="0.1">
                        <circle id="Oval" cx="106" cy="106" r="106"></circle>
                    </g>
                    <g id="Group-13" transform="translate(60.000000, 49.000000)" font-family="PingFangSC-Semibold, PingFang SC" font-size="20" font-weight="500">
                        <text id="c.-标准化" fill="#BD3432">
                            <tspan x="4.81" y="65">c. 标准化</tspan>
                        </text>
                        <text id="d.-优先级" fill="#BD3432">
                            <tspan x="4.4" y="107">d. 优先级</tspan>
                        </text>
                        <text id="输出" fill="#555555">
                            <tspan x="26" y="21">输出</tspan>
                        </text>
                    </g>
                </g>
                <text id="品效协同" font-family="PingFangSC-Semibold, PingFang SC" font-size="20" font-weight="500" fill="#555555">
                    <tspan x="396" y="112">品效协同</tspan>
                </text>
                <text id="执行过程解决框架" font-family="PingFangSC-Semibold, PingFang SC" font-size="20" font-weight="500" fill="#555555">
                    <tspan x="497" y="51">执行过程解决框架</tspan>
                </text>
                <path id="Line-6" d="M593,474 L593,475 L585,475 L585,474 L593,474 Z M159,474 L159,475 L151,475 L151,474 L159,474 Z M173,474 L173,475 L165,475 L165,474 L173,474 Z M187,474 L187,475 L179,475 L179,474 L187,474 Z M201,474 L201,475 L193,475 L193,474 L201,474 Z M215,474 L215,475 L207,475 L207,474 L215,474 Z M229,474 L229,475 L221,475 L221,474 L229,474 Z M243,474 L243,475 L235,475 L235,474 L243,474 Z M257,474 L257,475 L249,475 L249,474 L257,474 Z M271,474 L271,475 L263,475 L263,474 L271,474 Z M285,474 L285,475 L277,475 L277,474 L285,474 Z M299,474 L299,475 L291,475 L291,474 L299,474 Z M313,474 L313,475 L305,475 L305,474 L313,474 Z M327,474 L327,475 L319,475 L319,474 L327,474 Z M341,474 L341,475 L333,475 L333,474 L341,474 Z M355,474 L355,475 L347,475 L347,474 L355,474 Z M369,474 L369,475 L361,475 L361,474 L369,474 Z M383,474 L383,475 L375,475 L375,474 L383,474 Z M397,474 L397,475 L389,475 L389,474 L397,474 Z M411,474 L411,475 L403,475 L403,474 L411,474 Z M425,474 L425,475 L417,475 L417,474 L425,474 Z M453,474 L453,475 L445,475 L445,474 L453,474 Z M999,474 L999,475 L991,475 L991,474 L999,474 Z M985,474 L985,475 L977,475 L977,474 L985,474 Z M971,474 L971,475 L963,475 L963,474 L971,474 Z M957,474 L957,475 L949,475 L949,474 L957,474 Z M943,474 L943,475 L935,475 L935,474 L943,474 Z M929,474 L929,475 L921,475 L921,474 L929,474 Z M915,474 L915,475 L907,475 L907,474 L915,474 Z M901,474 L901,475 L893,475 L893,474 L901,474 Z M887,474 L887,475 L879,475 L879,474 L887,474 Z M873,474 L873,475 L865,475 L865,474 L873,474 Z M859,474 L859,475 L851,475 L851,474 L859,474 Z M845,474 L845,475 L837,475 L837,474 L845,474 Z M831,474 L831,475 L823,475 L823,474 L831,474 Z M817,474 L817,475 L809,475 L809,474 L817,474 Z M803,474 L803,475 L795,475 L795,474 L803,474 Z M789,474 L789,475 L781,475 L781,474 L789,474 Z M775,474 L775,475 L767,475 L767,474 L775,474 Z M761,474 L761,475 L753,475 L753,474 L761,474 Z M747,474 L747,475 L739,475 L739,474 L747,474 Z M733,474 L733,475 L725,475 L725,474 L733,474 Z M719,474 L719,475 L711,475 L711,474 L719,474 Z M705,474 L705,475 L697,475 L697,474 L705,474 Z M691,474 L691,475 L683,475 L683,474 L691,474 Z M677,474 L677,475 L669,475 L669,474 L677,474 Z M663,474 L663,475 L655,475 L655,474 L663,474 Z M649,474 L649,475 L641,475 L641,474 L649,474 Z M635,474 L635,475 L627,475 L627,474 L635,474 Z M621,474 L621,475 L613,475 L613,474 L621,474 Z M607,474 L607,475 L599,475 L599,474 L607,474 Z M439,474 L439,475 L431,475 L431,474 L439,474 Z M579,474 L579,475 L571,475 L571,474 L579,474 Z M565,474 L565,475 L557,475 L557,474 L565,474 Z M551,474 L551,475 L543,475 L543,474 L551,474 Z M537,474 L537,475 L529,475 L529,474 L537,474 Z M523,474 L523,475 L515,475 L515,474 L523,474 Z M509,474 L509,475 L501,475 L501,474 L509,474 Z M495,474 L495,475 L487,475 L487,474 L495,474 Z M481,474 L481,475 L473,475 L473,474 L481,474 Z M467,474 L467,475 L459,475 L459,474 L467,474 Z M1003.5,464.5 L1003.5,472.5 L1002.5,472.5 L1002.5,464.5 L1003.5,464.5 Z M149.521417,461.499194 L150.521416,461.500841 L150.520592,462.000841 L150.50906,469.000831 L150.508237,469.500831 L149.508238,469.499183 L149.509062,468.999184 L149.520594,461.999193 L149.521417,461.499194 Z M1003.5,450.5 L1003.5,458.5 L1002.5,458.5 L1002.5,450.5 L1003.5,450.5 Z M149.544482,447.499213 L150.54448,447.50086 L150.543657,448.00086 L150.532124,455.00085 L150.531301,455.50085 L149.531302,455.499202 L149.532126,454.999203 L149.543658,447.999212 L149.544482,447.499213 Z M1003.5,436.5 L1003.5,444.5 L1002.5,444.5 L1002.5,436.5 L1003.5,436.5 Z M149.567546,433.499232 L150.567545,433.500879 L150.566721,434.000879 L150.555189,441.000869 L150.554365,441.500869 L149.554366,441.499221 L149.55519,440.999222 L149.566722,433.999231 L149.567546,433.499232 Z M1003.5,422.5 L1003.5,430.5 L1002.5,430.5 L1002.5,422.5 L1003.5,422.5 Z M149.59061,419.499251 L150.590609,419.500898 L150.589785,420.000898 L150.578253,427.000888 L150.577429,427.500888 L149.577431,427.49924 L149.578254,426.999241 L149.589786,419.99925 L149.59061,419.499251 Z M1003.5,408.5 L1003.5,416.5 L1002.5,416.5 L1002.5,408.5 L1003.5,408.5 Z M149.613674,405.49927 L150.613673,405.500917 L150.612849,406.000917 L150.601317,413.000907 L150.600493,413.500907 L149.600495,413.499259 L149.601318,412.99926 L149.612851,405.999269 L149.613674,405.49927 Z M1003.5,394.5 L1003.5,402.5 L1002.5,402.5 L1002.5,394.5 L1003.5,394.5 Z M149.636739,391.499289 L150.636737,391.500936 L150.635913,392.000936 L150.624381,399.000926 L150.623558,399.500925 L149.623559,399.499278 L149.624383,398.999279 L149.635915,391.999288 L149.636739,391.499289 Z M1003.5,380.5 L1003.5,388.5 L1002.5,388.5 L1002.5,380.5 L1003.5,380.5 Z M149.659803,377.499308 L150.659801,377.500955 L150.658978,378.000955 L150.647446,385.000945 L150.646622,385.500944 L149.646623,385.499297 L149.647447,384.999298 L149.658979,377.999307 L149.659803,377.499308 Z M1003.5,366.5 L1003.5,374.5 L1002.5,374.5 L1002.5,366.5 L1003.5,366.5 Z M149.682867,363.499327 L150.682866,363.500974 L150.682042,364.000974 L150.67051,371.000964 L150.669686,371.500963 L149.669687,371.499316 L149.670511,370.999317 L149.682043,363.999326 L149.682867,363.499327 Z M1003.5,352.5 L1003.5,360.5 L1002.5,360.5 L1002.5,352.5 L1003.5,352.5 Z M149.705931,349.499346 L150.70593,349.500993 L150.705106,350.000993 L150.693574,357.000983 L150.69275,357.500982 L149.692752,357.499335 L149.693575,356.999336 L149.705107,349.999345 L149.705931,349.499346 Z M1003.5,338.5 L1003.5,346.5 L1002.5,346.5 L1002.5,338.5 L1003.5,338.5 Z M149.728995,335.499365 L150.728994,335.501012 L150.72817,336.001012 L150.716638,343.001002 L150.715815,343.501001 L149.715816,343.499354 L149.71664,342.999355 L149.728172,335.999364 L149.728995,335.499365 Z M1003.5,324.5 L1003.5,332.5 L1002.5,332.5 L1002.5,324.5 L1003.5,324.5 Z M149.75206,321.499384 L150.752058,321.501031 L150.751235,322.001031 L150.739702,329.001021 L150.738879,329.50102 L149.73888,329.499373 L149.739704,328.999374 L149.751236,321.999383 L149.75206,321.499384 Z M1003.5,310.5 L1003.5,318.5 L1002.5,318.5 L1002.5,310.5 L1003.5,310.5 Z M149.775124,307.499403 L150.775123,307.50105 L150.774299,308.00105 L150.762767,315.00104 L150.761943,315.501039 L149.761944,315.499392 L149.762768,314.999393 L149.7743,307.999402 L149.775124,307.499403 Z M1003.5,296.5 L1003.5,304.5 L1002.5,304.5 L1002.5,296.5 L1003.5,296.5 Z M149.798188,293.499422 L150.798187,293.501069 L150.797363,294.001069 L150.785831,301.001059 L150.785007,301.501058 L149.785009,301.499411 L149.785832,300.999412 L149.797364,293.999421 L149.798188,293.499422 Z M1003.5,282.5 L1003.5,290.5 L1002.5,290.5 L1002.5,282.5 L1003.5,282.5 Z M149.821252,279.499441 L150.821251,279.501088 L150.820427,280.001088 L150.808895,287.001078 L150.808071,287.501077 L149.808073,287.49943 L149.808896,286.999431 L149.820429,279.99944 L149.821252,279.499441 Z M1003.5,268.5 L1003.5,276.5 L1002.5,276.5 L1002.5,268.5 L1003.5,268.5 Z M149.844317,265.49946 L150.844315,265.501107 L150.843491,266.001107 L150.831959,273.001097 L150.831136,273.501096 L149.831137,273.499449 L149.831961,272.99945 L149.843493,265.999459 L149.844317,265.49946 Z M1003.5,254.5 L1003.5,262.5 L1002.5,262.5 L1002.5,254.5 L1003.5,254.5 Z M149.867381,251.499479 L150.867379,251.501126 L150.866556,252.001126 L150.855024,259.001116 L150.8542,259.501115 L149.854201,259.499468 L149.855025,258.999469 L149.866557,251.999478 L149.867381,251.499479 Z M1003.5,240.5 L1003.5,248.5 L1002.5,248.5 L1002.5,240.5 L1003.5,240.5 Z M149.890445,237.499498 L150.890444,237.501145 L150.88962,238.001145 L150.878088,245.001135 L150.877264,245.501134 L149.877265,245.499487 L149.878089,244.999488 L149.889621,237.999497 L149.890445,237.499498 Z M1003.5,226.5 L1003.5,234.5 L1002.5,234.5 L1002.5,226.5 L1003.5,226.5 Z M149.913509,223.499517 L150.913508,223.501164 L150.912684,224.001164 L150.901152,231.001154 L150.900328,231.501153 L149.90033,231.499506 L149.901153,230.999507 L149.912685,223.999516 L149.913509,223.499517 Z M1003.5,212.5 L1003.5,220.5 L1002.5,220.5 L1002.5,212.5 L1003.5,212.5 Z M149.936573,209.499536 L150.936572,209.501183 L150.935748,210.001183 L150.924216,217.001173 L150.923392,217.501172 L149.923394,217.499525 L149.924218,216.999526 L149.93575,209.999535 L149.936573,209.499536 Z M1003.5,198.5 L1003.5,206.5 L1002.5,206.5 L1002.5,198.5 L1003.5,198.5 Z M149.959638,195.499555 L150.959636,195.501202 L150.958813,196.001202 L150.94728,203.001192 L150.946457,203.501191 L149.946458,203.499544 L149.947282,202.999545 L149.958814,195.999554 L149.959638,195.499555 Z M1003.5,184.5 L1003.5,192.5 L1002.5,192.5 L1002.5,184.5 L1003.5,184.5 Z M149.982702,181.499574 L150.9827,181.501221 L150.981877,182.001221 L150.970345,189.001211 L150.969521,189.50121 L149.969522,189.499563 L149.970346,188.999564 L149.981878,181.999573 L149.982702,181.499574 Z M1003.5,170.5 L1003.5,171.5 L1003.5,178.5 L1002.5,178.5 L1002.5,171.5 L999.999588,171.5 L999.999588,170.5 L1003.5,170.5 Z M153.999588,170.5 L153.999588,171.5 L150.998,171.5 L150.993409,175.00123 L150.992585,175.501229 L149.992587,175.499582 L149.99341,174.999583 L150.000001,170.999176 L150.000823,170.5 L153.999588,170.5 Z M167.999588,170.5 L167.999588,171.5 L159.999588,171.5 L159.999588,170.5 L167.999588,170.5 Z M181.999588,170.5 L181.999588,171.5 L173.999588,171.5 L173.999588,170.5 L181.999588,170.5 Z M195.999588,170.5 L195.999588,171.5 L187.999588,171.5 L187.999588,170.5 L195.999588,170.5 Z M209.999588,170.5 L209.999588,171.5 L201.999588,171.5 L201.999588,170.5 L209.999588,170.5 Z M223.999588,170.5 L223.999588,171.5 L215.999588,171.5 L215.999588,170.5 L223.999588,170.5 Z M237.999588,170.5 L237.999588,171.5 L229.999588,171.5 L229.999588,170.5 L237.999588,170.5 Z M251.999588,170.5 L251.999588,171.5 L243.999588,171.5 L243.999588,170.5 L251.999588,170.5 Z M265.999588,170.5 L265.999588,171.5 L257.999588,171.5 L257.999588,170.5 L265.999588,170.5 Z M279.999588,170.5 L279.999588,171.5 L271.999588,171.5 L271.999588,170.5 L279.999588,170.5 Z M293.999588,170.5 L293.999588,171.5 L285.999588,171.5 L285.999588,170.5 L293.999588,170.5 Z M307.999588,170.5 L307.999588,171.5 L299.999588,171.5 L299.999588,170.5 L307.999588,170.5 Z M321.999588,170.5 L321.999588,171.5 L313.999588,171.5 L313.999588,170.5 L321.999588,170.5 Z M335.999588,170.5 L335.999588,171.5 L327.999588,171.5 L327.999588,170.5 L335.999588,170.5 Z M349.999588,170.5 L349.999588,171.5 L341.999588,171.5 L341.999588,170.5 L349.999588,170.5 Z M363.999588,170.5 L363.999588,171.5 L355.999588,171.5 L355.999588,170.5 L363.999588,170.5 Z M377.999588,170.5 L377.999588,171.5 L369.999588,171.5 L369.999588,170.5 L377.999588,170.5 Z M391.999588,170.5 L391.999588,171.5 L383.999588,171.5 L383.999588,170.5 L391.999588,170.5 Z M405.999588,170.5 L405.999588,171.5 L397.999588,171.5 L397.999588,170.5 L405.999588,170.5 Z M419.999588,170.5 L419.999588,171.5 L411.999588,171.5 L411.999588,170.5 L419.999588,170.5 Z M433.999588,170.5 L433.999588,171.5 L425.999588,171.5 L425.999588,170.5 L433.999588,170.5 Z M447.999588,170.5 L447.999588,171.5 L439.999588,171.5 L439.999588,170.5 L447.999588,170.5 Z M461.999588,170.5 L461.999588,171.5 L453.999588,171.5 L453.999588,170.5 L461.999588,170.5 Z M475.999588,170.5 L475.999588,171.5 L467.999588,171.5 L467.999588,170.5 L475.999588,170.5 Z M489.999588,170.5 L489.999588,171.5 L481.999588,171.5 L481.999588,170.5 L489.999588,170.5 Z M503.999588,170.5 L503.999588,171.5 L495.999588,171.5 L495.999588,170.5 L503.999588,170.5 Z M517.999588,170.5 L517.999588,171.5 L509.999588,171.5 L509.999588,170.5 L517.999588,170.5 Z M531.999588,170.5 L531.999588,171.5 L523.999588,171.5 L523.999588,170.5 L531.999588,170.5 Z M545.999588,170.5 L545.999588,171.5 L537.999588,171.5 L537.999588,170.5 L545.999588,170.5 Z M559.999588,170.5 L559.999588,171.5 L551.999588,171.5 L551.999588,170.5 L559.999588,170.5 Z M573.999588,170.5 L573.999588,171.5 L565.999588,171.5 L565.999588,170.5 L573.999588,170.5 Z M587.999588,170.5 L587.999588,171.5 L579.999588,171.5 L579.999588,170.5 L587.999588,170.5 Z M601.999588,170.5 L601.999588,171.5 L593.999588,171.5 L593.999588,170.5 L601.999588,170.5 Z M615.999588,170.5 L615.999588,171.5 L607.999588,171.5 L607.999588,170.5 L615.999588,170.5 Z M629.999588,170.5 L629.999588,171.5 L621.999588,171.5 L621.999588,170.5 L629.999588,170.5 Z M643.999588,170.5 L643.999588,171.5 L635.999588,171.5 L635.999588,170.5 L643.999588,170.5 Z M657.999588,170.5 L657.999588,171.5 L649.999588,171.5 L649.999588,170.5 L657.999588,170.5 Z M671.999588,170.5 L671.999588,171.5 L663.999588,171.5 L663.999588,170.5 L671.999588,170.5 Z M685.999588,170.5 L685.999588,171.5 L677.999588,171.5 L677.999588,170.5 L685.999588,170.5 Z M699.999588,170.5 L699.999588,171.5 L691.999588,171.5 L691.999588,170.5 L699.999588,170.5 Z M713.999588,170.5 L713.999588,171.5 L705.999588,171.5 L705.999588,170.5 L713.999588,170.5 Z M727.999588,170.5 L727.999588,171.5 L719.999588,171.5 L719.999588,170.5 L727.999588,170.5 Z M741.999588,170.5 L741.999588,171.5 L733.999588,171.5 L733.999588,170.5 L741.999588,170.5 Z M755.999588,170.5 L755.999588,171.5 L747.999588,171.5 L747.999588,170.5 L755.999588,170.5 Z M769.999588,170.5 L769.999588,171.5 L761.999588,171.5 L761.999588,170.5 L769.999588,170.5 Z M783.999588,170.5 L783.999588,171.5 L775.999588,171.5 L775.999588,170.5 L783.999588,170.5 Z M797.999588,170.5 L797.999588,171.5 L789.999588,171.5 L789.999588,170.5 L797.999588,170.5 Z M811.999588,170.5 L811.999588,171.5 L803.999588,171.5 L803.999588,170.5 L811.999588,170.5 Z M825.999588,170.5 L825.999588,171.5 L817.999588,171.5 L817.999588,170.5 L825.999588,170.5 Z M839.999588,170.5 L839.999588,171.5 L831.999588,171.5 L831.999588,170.5 L839.999588,170.5 Z M853.999588,170.5 L853.999588,171.5 L845.999588,171.5 L845.999588,170.5 L853.999588,170.5 Z M867.999588,170.5 L867.999588,171.5 L859.999588,171.5 L859.999588,170.5 L867.999588,170.5 Z M881.999588,170.5 L881.999588,171.5 L873.999588,171.5 L873.999588,170.5 L881.999588,170.5 Z M895.999588,170.5 L895.999588,171.5 L887.999588,171.5 L887.999588,170.5 L895.999588,170.5 Z M909.999588,170.5 L909.999588,171.5 L901.999588,171.5 L901.999588,170.5 L909.999588,170.5 Z M923.999588,170.5 L923.999588,171.5 L915.999588,171.5 L915.999588,170.5 L923.999588,170.5 Z M937.999588,170.5 L937.999588,171.5 L929.999588,171.5 L929.999588,170.5 L937.999588,170.5 Z M951.999588,170.5 L951.999588,171.5 L943.999588,171.5 L943.999588,170.5 L951.999588,170.5 Z M965.999588,170.5 L965.999588,171.5 L957.999588,171.5 L957.999588,170.5 L965.999588,170.5 Z M979.999588,170.5 L979.999588,171.5 L971.999588,171.5 L971.999588,170.5 L979.999588,170.5 Z M993.999588,170.5 L993.999588,171.5 L985.999588,171.5 L985.999588,170.5 L993.999588,170.5 Z" fill="#979797" fill-rule="nonzero"></path>
                <text id="过程" font-family="PingFangSC-Semibold, PingFang SC" font-size="20" font-weight="500" fill="#555555">
                    <tspan x="556" y="135">过程</tspan>
                </text>
                <text id="交付" font-family="PingFangSC-Semibold, PingFang SC" font-size="20" font-weight="500" fill="#555555">
                    <tspan x="272" y="135">交付</tspan>
                </text>
                <text id="结果" font-family="PingFangSC-Semibold, PingFang SC" font-size="20" font-weight="500" fill="#555555">
                    <tspan x="839" y="135">结果</tspan>
                </text>
                <text id="内化与提升--收敛思维与发散思维不断交织" font-family="PingFangSC-Semibold, PingFang SC" font-size="20" font-weight="500" fill="#555555">
                    <tspan x="387" y="449">内化与提升- 收敛思维与发散思维不断交织的产物</tspan>
                </text>
                <circle id="Oval" stroke="#979797" fill="#D8D8D8" cx="292.5" cy="170.5" r="7.5"></circle>
                <circle id="Oval-Copy" stroke="#979797" fill="#D8D8D8" cx="576.5" cy="170.5" r="7.5"></circle>
                <circle id="Oval-Copy-3" stroke="#979797" fill="#D8D8D8" cx="576.5" cy="473.5" r="7.5"></circle>
                <circle id="Oval-Copy-2" stroke="#979797" fill="#D8D8D8" cx="859.5" cy="170.5" r="7.5"></circle>
                <rect id="Rectangle" fill-opacity="0.1" fill="#BD3432" x="203" y="502" width="745" height="89"></rect>
                <g id="Group-22" transform="translate(233.000000, 533.000000)">
                    <text id="思维框架" font-family="PingFangSC-Semibold, PingFang SC" font-size="20" font-weight="500" fill="#BD3432">
                        <tspan x="66.5" y="21">思维框架</tspan>
                    </text>
                    <text id="收敛" font-family="PingFangSC-Semibold, PingFang SC" font-size="20" font-weight="500" fill="#555555">
                        <tspan x="0" y="21">收敛</tspan>
                    </text>
                    <text id="分析" font-family="PingFangSC-Regular, PingFang SC" font-size="14" font-weight="normal" fill="#555555">
                        <tspan x="163" y="19">分析</tspan>
                    </text>
                </g>
                <g id="Group-21" transform="translate(480.000000, 533.000000)">
                    <text id="设计表达" font-family="PingFangSC-Semibold, PingFang SC" font-size="20" font-weight="500" fill="#BD3432">
                        <tspan x="66.5" y="21">设计表达</tspan>
                    </text>
                    <text id="发散" font-family="PingFangSC-Semibold, PingFang SC" font-size="20" font-weight="500" fill="#555555">
                        <tspan x="0" y="21">发散</tspan>
                    </text>
                    <text id="陈述" font-family="PingFangSC-Regular, PingFang SC" font-size="14" font-weight="normal" fill="#555555">
                        <tspan x="163" y="19">陈述</tspan>
                    </text>
                </g>
                <g id="Group-18" transform="translate(727.000000, 533.000000)">
                    <text id="设计方法" font-family="PingFangSC-Semibold, PingFang SC" font-size="20" font-weight="500" fill="#BD3432">
                        <tspan x="66.5" y="21">设计方法</tspan>
                    </text>
                    <text id="内化" font-family="PingFangSC-Semibold, PingFang SC" font-size="20" font-weight="500" fill="#555555">
                        <tspan x="0" y="21">内化</tspan>
                    </text>
                    <text id="实践" font-family="PingFangSC-Regular, PingFang SC" font-size="14" font-weight="normal" fill="#555555">
                        <tspan x="163" y="19">实践</tspan>
                    </text>
                </g>
                <path id="Line-6" d="M541.5,127 L550.5,131.5 L541.5,136 L541.5,127 Z M328.5,131 L328.5,132 L320.5,132 L320.5,131 L328.5,131 Z M342.5,131 L342.5,132 L334.5,132 L334.5,131 L342.5,131 Z M356.5,131 L356.5,132 L348.5,132 L348.5,131 L356.5,131 Z M370.5,131 L370.5,132 L362.5,132 L362.5,131 L370.5,131 Z M384.5,131 L384.5,132 L376.5,132 L376.5,131 L384.5,131 Z M398.5,131 L398.5,132 L390.5,132 L390.5,131 L398.5,131 Z M412.5,131 L412.5,132 L404.5,132 L404.5,131 L412.5,131 Z M426.5,131 L426.5,132 L418.5,132 L418.5,131 L426.5,131 Z M440.5,131 L440.5,132 L432.5,132 L432.5,131 L440.5,131 Z M454.5,131 L454.5,132 L446.5,132 L446.5,131 L454.5,131 Z M468.5,131 L468.5,132 L460.5,132 L460.5,131 L468.5,131 Z M482.5,131 L482.5,132 L474.5,132 L474.5,131 L482.5,131 Z M496.5,131 L496.5,132 L488.5,132 L488.5,131 L496.5,131 Z M510.5,131 L510.5,132 L502.5,132 L502.5,131 L510.5,131 Z M524.5,131 L524.5,132 L516.5,132 L516.5,131 L524.5,131 Z M538.5,131 L538.5,132 L530.5,132 L530.5,131 L538.5,131 Z" fill="#979797" fill-rule="nonzero"></path>
                <polygon id="Triangle" fill="#979797" transform="translate(434.000000, 171.000000) rotate(90.000000) translate(-434.000000, -171.000000) " points="434 164 441 178 427 178"></polygon>
                <polygon id="Triangle-Copy" fill="#979797" transform="translate(718.000000, 171.000000) rotate(90.000000) translate(-718.000000, -171.000000) " points="718 164 725 178 711 178"></polygon>
                <polygon id="Triangle-Copy-2" fill="#979797" transform="translate(1003.000000, 323.000000) rotate(180.000000) translate(-1003.000000, -323.000000) " points="1003 316 1010 330 996 330"></polygon>
                <polygon id="Triangle-Copy-3" fill="#979797" points="150 316 157 330 143 330"></polygon>
            </g>
        </g>
    </g>
</svg>