<?xml version="1.0" encoding="UTF-8"?>
<svg width="1152px" height="824px" viewBox="0 0 1152 824" version="1.1" xmlns="http://www.w3.org/2000/svg" xmlns:xlink="http://www.w3.org/1999/xlink">
    <title>Group 46</title>
    <g id="我的网页-0311" stroke="none" stroke-width="1" fill="none" fill-rule="evenodd">
        <g id="project-1" transform="translate(-414.000000, -1993.000000)">
            <g id="Group-46" transform="translate(414.000000, 1993.000000)">
                <rect id="Rectangle-Copy-15" fill="#F6F7F7" x="0" y="0" width="1152" height="824"></rect>
                <g id="Group-44" transform="translate(443.000000, 144.000000)">
                    <circle id="Oval" fill="#FFFFFF" cx="315.5" cy="315" r="249.5"></circle>
                    <polygon id="Triangle" stroke="#979797" fill="#D8D8D8" points="311.5 189.5 409 384.5 214 384.5"></polygon>
                    <g id="Group-10" transform="translate(237.000000, 114.500000)">
                        <circle id="Oval" stroke="#979797" fill="#FFFFFF" cx="75" cy="75" r="75"></circle>
                        <g id="用户/角色" transform="translate(51.000000, 72.000000)" fill="#000000" fill-rule="nonzero">
                            <rect id="Rectangle" opacity="0" x="0" y="0" width="48" height="48"></rect>
                            <path d="M23.504309,48 C12.3873711,48 4,43.6457143 4,37.8771428 C4,33.5914286 8.65581157,29.9914286 16.1621201,28.4485714 C12.7587063,25.9089088 10.7612048,21.9255755 10.7720896,17.7 L10.7720896,12.3 C10.7720896,5.52 16.1102928,0 22.6405221,0 L24.3680959,0 C30.9328766,0 36.2710798,5.52 36.2710798,12.3 L36.2710798,17.7171428 C36.2867363,21.9283524 34.2984045,25.8998459 30.906963,28.4314286 L30.906963,28.4742857 C38.3614442,29.9742857 42.9999867,33.6171429 42.9999867,37.86 C43.0086179,43.6457143 34.6212468,48 23.504309,48 Z M22.6405221,3.42857142 C17.9847105,3.42857142 14.1926858,7.40571427 14.1926858,12.3 L14.1926858,17.7171428 C14.1742584,20.8609233 15.6578273,23.8274957 18.1920193,25.7142857 C19.3086189,26.5108759 19.8428414,27.8887109 19.552261,29.2225404 C19.2616806,30.5563699 18.2016293,31.592208 16.8531496,31.86 C11.3162753,32.9828572 7.45514777,35.4685714 7.45514777,37.9114286 C7.45514777,41.04 14.0458421,44.5714286 23.504309,44.5714286 C32.9627759,44.5714286 39.5534702,41.04 39.5534702,37.8771428 C39.5534702,35.4342857 35.6923426,32.9485714 30.1554684,31.8257143 C28.8477422,31.5175357 27.8335845,30.4931375 27.5463,29.1901996 C27.2590155,27.8872617 27.7494104,26.5362088 28.8079608,25.7142857 C31.3247677,23.8311089 32.7977225,20.8792616 32.7813806,17.7514286 L32.7813806,12.3 C32.7813806,7.40571427 28.989356,3.42857142 24.3680959,3.42857142 L22.6405221,3.42857142 Z" id="Shape"></path>
                        </g>
                        <text id="设计决策" font-family="PingFangSC-Regular, PingFang SC" font-size="18" font-weight="normal" line-spacing="30" fill="#555555">
                            <tspan x="39" y="48">设计决策</tspan>
                        </text>
                    </g>
                    <g id="Group-43" transform="translate(140.000000, 309.500000)">
                        <g id="Group-42-Copy">
                            <circle id="Oval" stroke="#979797" fill="#FFFFFF" cx="75" cy="75" r="75"></circle>
                            <g id="用户/角色" transform="translate(51.000000, 72.000000)" fill="#000000" fill-rule="nonzero">
                                <rect id="Rectangle" opacity="0" x="0" y="0" width="48" height="48"></rect>
                                <path d="M23.504309,48 C12.3873711,48 4,43.6457143 4,37.8771428 C4,33.5914286 8.65581157,29.9914286 16.1621201,28.4485714 C12.7587063,25.9089088 10.7612048,21.9255755 10.7720896,17.7 L10.7720896,12.3 C10.7720896,5.52 16.1102928,0 22.6405221,0 L24.3680959,0 C30.9328766,0 36.2710798,5.52 36.2710798,12.3 L36.2710798,17.7171428 C36.2867363,21.9283524 34.2984045,25.8998459 30.906963,28.4314286 L30.906963,28.4742857 C38.3614442,29.9742857 42.9999867,33.6171429 42.9999867,37.86 C43.0086179,43.6457143 34.6212468,48 23.504309,48 Z M22.6405221,3.42857142 C17.9847105,3.42857142 14.1926858,7.40571427 14.1926858,12.3 L14.1926858,17.7171428 C14.1742584,20.8609233 15.6578273,23.8274957 18.1920193,25.7142857 C19.3086189,26.5108759 19.8428414,27.8887109 19.552261,29.2225404 C19.2616806,30.5563699 18.2016293,31.592208 16.8531496,31.86 C11.3162753,32.9828572 7.45514777,35.4685714 7.45514777,37.9114286 C7.45514777,41.04 14.0458421,44.5714286 23.504309,44.5714286 C32.9627759,44.5714286 39.5534702,41.04 39.5534702,37.8771428 C39.5534702,35.4342857 35.6923426,32.9485714 30.1554684,31.8257143 C28.8477422,31.5175357 27.8335845,30.4931375 27.5463,29.1901996 C27.2590155,27.8872617 27.7494104,26.5362088 28.8079608,25.7142857 C31.3247677,23.8311089 32.7977225,20.8792616 32.7813806,17.7514286 L32.7813806,12.3 C32.7813806,7.40571427 28.989356,3.42857142 24.3680959,3.42857142 L22.6405221,3.42857142 Z" id="Shape"></path>
                            </g>
                            <text id="设计决策" font-family="PingFangSC-Regular, PingFang SC" font-size="18" font-weight="normal" line-spacing="30" fill="#555555">
                                <tspan x="39" y="48">设计决策</tspan>
                            </text>
                        </g>
                        <g id="Group-42-Copy-2" transform="translate(193.000000, 0.000000)">
                            <circle id="Oval" stroke="#979797" fill="#FFFFFF" cx="75" cy="75" r="75"></circle>
                            <g id="用户/角色" transform="translate(51.000000, 72.000000)" fill="#000000" fill-rule="nonzero">
                                <rect id="Rectangle" opacity="0" x="0" y="0" width="48" height="48"></rect>
                                <path d="M23.504309,48 C12.3873711,48 4,43.6457143 4,37.8771428 C4,33.5914286 8.65581157,29.9914286 16.1621201,28.4485714 C12.7587063,25.9089088 10.7612048,21.9255755 10.7720896,17.7 L10.7720896,12.3 C10.7720896,5.52 16.1102928,0 22.6405221,0 L24.3680959,0 C30.9328766,0 36.2710798,5.52 36.2710798,12.3 L36.2710798,17.7171428 C36.2867363,21.9283524 34.2984045,25.8998459 30.906963,28.4314286 L30.906963,28.4742857 C38.3614442,29.9742857 42.9999867,33.6171429 42.9999867,37.86 C43.0086179,43.6457143 34.6212468,48 23.504309,48 Z M22.6405221,3.42857142 C17.9847105,3.42857142 14.1926858,7.40571427 14.1926858,12.3 L14.1926858,17.7171428 C14.1742584,20.8609233 15.6578273,23.8274957 18.1920193,25.7142857 C19.3086189,26.5108759 19.8428414,27.8887109 19.552261,29.2225404 C19.2616806,30.5563699 18.2016293,31.592208 16.8531496,31.86 C11.3162753,32.9828572 7.45514777,35.4685714 7.45514777,37.9114286 C7.45514777,41.04 14.0458421,44.5714286 23.504309,44.5714286 C32.9627759,44.5714286 39.5534702,41.04 39.5534702,37.8771428 C39.5534702,35.4342857 35.6923426,32.9485714 30.1554684,31.8257143 C28.8477422,31.5175357 27.8335845,30.4931375 27.5463,29.1901996 C27.2590155,27.8872617 27.7494104,26.5362088 28.8079608,25.7142857 C31.3247677,23.8311089 32.7977225,20.8792616 32.7813806,17.7514286 L32.7813806,12.3 C32.7813806,7.40571427 28.989356,3.42857142 24.3680959,3.42857142 L22.6405221,3.42857142 Z" id="Shape"></path>
                            </g>
                            <text id="设计决策" font-family="PingFangSC-Regular, PingFang SC" font-size="18" font-weight="normal" line-spacing="30" fill="#555555">
                                <tspan x="39" y="48">设计决策</tspan>
                            </text>
                        </g>
                    </g>
                    <path id="Line-2-Copy" d="M417.815154,199.817481 L418.248837,200.066318 C435.373509,209.892052 448.44542,225.980557 457.463625,248.312779 C465.296307,267.709231 468.203063,287.188511 466.181099,306.743947 L466.136,307.157 L470.115631,307.736001 L464.367389,315.994796 L461.209298,306.440925 L465.146,307.013 L465.186402,306.641096 C467.191321,287.250466 464.308911,267.934732 456.536375,248.687221 C447.70704,226.822709 434.984673,211.030292 418.368363,201.291606 L417.751163,200.933682 L417.317481,200.684846 L417.815154,199.817481 Z" fill="#CBCBCB" fill-rule="nonzero"></path>
                    <path id="Line-2-Copy-2" d="M304.222126,408.339836 L304.441145,408.789314 C314.140852,428.695356 318.826445,447.772414 318.491582,466.017509 C318.204111,481.68045 314.707874,497.958215 308.005633,514.849478 L307.789,515.388 L311.478352,516.970988 L303.794538,523.467833 L303.207351,513.422675 L306.87,514.993 L307.075788,514.481527 C313.735503,497.697703 317.206569,481.537355 317.491751,465.999158 C317.818203,448.212311 313.324446,429.607979 304.004441,410.183325 L303.542189,409.227353 L303.323169,408.777874 L304.222126,408.339836 Z" fill="#CBCBCB" fill-rule="nonzero"></path>
                    <path id="Line-2-Copy-3" d="M217.414131,200.21983 L212.4813,208.990074 L210.254,205.698 L210.002468,205.885279 C196.957384,215.680555 185.433861,229.300201 175.433805,246.748623 C163.799952,267.047747 157.399701,286.994809 156.22728,306.59269 L156.175402,307.525658 L156.149743,308.025 L155.151061,307.973683 L155.176719,307.474342 C156.207613,287.41204 162.672789,267.003378 174.566195,246.251377 C184.63405,228.684657 196.24982,214.957914 209.415415,205.075558 L209.693,204.868 L207.438237,201.535711 L217.414131,200.21983 Z" fill="#CBCBCB" fill-rule="nonzero"></path>
                    <text id="设计沉淀" font-family="PingFangSC-Regular, PingFang SC" font-size="18" font-weight="normal" line-spacing="30" fill="#555555">
                        <tspan x="275" y="298.5">设计沉淀</tspan>
                    </text>
                    <text id="设计协作" font-family="PingFangSC-Regular, PingFang SC" font-size="18" font-weight="normal" line-spacing="30" fill="#555555">
                        <tspan x="94" y="238.5">设计协作</tspan>
                    </text>
                    <text id="影响力" font-family="PingFangSC-Regular, PingFang SC" font-size="18" font-weight="normal" line-spacing="30" fill="#555555">
                        <tspan x="333" y="27.5">影响力</tspan>
                    </text>
                    <text id="影响力-copy-3" font-family="PingFangSC-Regular, PingFang SC" font-size="18" font-weight="normal" line-spacing="30" fill="#555555">
                        <tspan x="333" y="607.5">影响力</tspan>
                    </text>
                    <text id="影响力-copy-2" font-family="PingFangSC-Regular, PingFang SC" font-size="18" font-weight="normal" line-spacing="30" fill="#555555">
                        <tspan x="567" y="296.5">影响力</tspan>
                    </text>
                    <text id="影响力-copy" font-family="PingFangSC-Regular, PingFang SC" font-size="18" font-weight="normal" line-spacing="30" fill="#555555">
                        <tspan x="1" y="292.5">影响力</tspan>
                    </text>
                    <text id="设计协作" font-family="PingFangSC-Regular, PingFang SC" font-size="18" font-weight="normal" line-spacing="30" fill="#555555">
                        <tspan x="460" y="238.5">设计协作</tspan>
                    </text>
                    <text id="设计协作-copy" font-family="PingFangSC-Regular, PingFang SC" font-size="18" font-weight="normal" line-spacing="30" fill="#555555">
                        <tspan x="275" y="509.5">设计协作</tspan>
                    </text>
                    <text id="设计执行" font-family="PingFangSC-Regular, PingFang SC" font-size="18" font-weight="normal" line-spacing="30" fill="#555555">
                        <tspan x="275" y="329.5">设计执行</tspan>
                    </text>
                    <path id="Line-8" d="M315.5,-0.5 L320,8.5 L316,8.5 L316,66.5 L315,66.5 L315,8.5 L311,8.5 L315.5,-0.5 Z" fill="#CBCBCB" fill-rule="nonzero"></path>
                    <path id="Line-8-Copy-2" d="M9.03600145,310.061491 L9.005,314.061 L66.5038143,314.500015 L67.0037997,314.503829 L66.9961712,315.5038 L66.4961857,315.499985 L8.998,315.061 L8.96734477,319.061229 L0.00193498881,314.492703 L9.03600145,310.061491 Z" fill="#CBCBCB" fill-rule="nonzero"></path>
                    <path id="Line-8-Copy-3" d="M574.03878,310.00055 L574.003,313.999 L631.501853,314.500019 L632.001834,314.504363 L631.993145,315.504326 L631.493164,315.499981 L573.995,314.999 L573.960578,319.000211 L565.000019,314.422179 L574.03878,310.00055 Z" fill="#CBCBCB" fill-rule="nonzero"></path>
                    <path id="Line-8-Copy" d="M340,593 L349,597.5 L340,602 L340,598 L282,598 L282,597 L340,597 L340,593 Z" fill="#CBCBCB" fill-rule="nonzero"></path>
                </g>
                <g id="Group-3" transform="translate(151.000000, 299.000000)">
                    <circle id="Oval" fill="#FFFFFF" cx="73" cy="73" r="73"></circle>
                    <g id="用户/角色" transform="translate(55.036649, 55.036649)" fill="#000000" fill-rule="nonzero">
                        <rect id="Rectangle" opacity="0" x="0" y="0" width="36.6910995" height="36.6910995"></rect>
                        <path d="M17.9666446,36.6910995 C9.46888055,36.6910995 3.05759162,33.3626926 3.05759162,28.9532087 C3.05759162,25.6772177 6.61648424,22.9253852 12.3542907,21.7460284 C9.75272838,19.8047156 8.22584239,16.759864 8.2341627,13.5298429 L8.2341627,9.40209424 C8.2341627,4.21947644 12.3146741,0 17.3063676,0 L18.6269215,0 C23.6450261,0 27.7255375,4.21947644 27.7255375,9.40209424 L27.7255375,13.5429469 C27.7375052,16.7619866 26.2176286,19.7977879 23.6252178,21.7329245 L23.6252178,21.7656844 C29.3234076,22.9122812 32.8690998,25.6968736 32.8690998,28.9401047 C32.8756975,33.3626926 26.4644086,36.6910995 17.9666446,36.6910995 Z M17.3063676,2.62079281 C13.747475,2.62079281 10.8488593,5.66091248 10.8488593,9.40209424 L10.8488593,13.5429469 C10.8347735,15.9460461 11.9688104,18.2136878 13.9059415,19.6559462 C14.7594678,20.264858 15.1678264,21.3180722 14.9457074,22.3376487 C14.7235883,23.3572252 13.9132873,24.1490177 12.8825122,24.3537173 C8.65013716,25.2120269 5.69869934,27.1121017 5.69869934,28.9794166 C5.69869934,31.3708901 10.7366123,34.0703067 17.9666446,34.0703067 C25.1966768,34.0703067 30.2345898,31.3708901 30.2345898,28.9532087 C30.2345898,27.0858938 27.2831519,25.185819 23.0507769,24.3275093 C22.0511537,24.0919383 21.2759337,23.3088904 21.0563341,22.3129275 C20.8367344,21.3169645 21.2115912,20.2842224 22.0207449,19.6559462 C23.9445868,18.2164497 25.0705104,15.9600638 25.0580187,13.5691548 L25.0580187,9.40209424 C25.0580187,5.66091248 22.159403,2.62079281 18.6269215,2.62079281 L17.3063676,2.62079281 Z" id="Shape"></path>
                    </g>
                    <text id="设计决策" font-family="PingFangSC-Regular, PingFang SC" font-size="18" font-weight="normal" line-spacing="30" fill="#555555">
                        <tspan x="37.382199" y="35.052356">设计决策</tspan>
                    </text>
                    <text id="设计执行" font-family="PingFangSC-Regular, PingFang SC" font-size="18" font-weight="normal" line-spacing="30" fill="#555555">
                        <tspan x="37.382199" y="126.780105">设计执行</tspan>
                    </text>
                    <path id="Line-2" d="M33.9541808,34.7786777 L31.6347009,44.5700011 L28.598,42.032 L28.5617991,42.0830681 C22.0834846,51.2192636 18.8455497,61.6474878 18.8455497,73.382199 C18.8455497,87.806786 23.7380629,100.259986 33.5328553,110.766213 L33.9955768,111.257267 L34.3404044,111.619336 L33.6162665,112.308991 L33.2714389,111.946922 C22.9909232,101.15238 17.8455497,88.2889467 17.8455497,73.382199 C17.8455497,61.4426166 21.1464417,50.8120781 27.7457808,41.5050416 L27.829,41.388 L24.7294342,38.7978878 L33.9541808,34.7786777 Z" fill="#CBCBCB" fill-rule="nonzero"></path>
                    <path id="Line-2-Copy" d="M131.032715,34.7786777 L128.713235,44.5700011 L125.677,42.032 L125.640333,42.0830681 C119.162019,51.2192636 115.924084,61.6474878 115.924084,73.382199 C115.924084,87.806786 120.816597,100.259986 130.611389,110.766213 L131.074111,111.257267 L131.418938,111.619336 L130.694801,112.308991 L130.349973,111.946922 C120.069457,101.15238 114.924084,88.2889467 114.924084,73.382199 C114.924084,61.4426166 118.224976,50.8120781 124.824315,41.5050416 L124.907,41.389 L121.807968,38.7978878 L131.032715,34.7786777 Z" fill="#CBCBCB" fill-rule="nonzero"></path>
                </g>
                <g transform="translate(66.000000, 472.000000)">
                    <g id="Group-3">
                        <circle id="Oval" fill="#FFFFFF" cx="73" cy="73" r="73"></circle>
                        <g id="用户/角色" transform="translate(55.036649, 55.036649)" fill="#000000" fill-rule="nonzero">
                            <rect id="Rectangle" opacity="0" x="0" y="0" width="36.6910995" height="36.6910995"></rect>
                            <path d="M17.9666446,36.6910995 C9.46888055,36.6910995 3.05759162,33.3626926 3.05759162,28.9532087 C3.05759162,25.6772177 6.61648424,22.9253852 12.3542907,21.7460284 C9.75272838,19.8047156 8.22584239,16.759864 8.2341627,13.5298429 L8.2341627,9.40209424 C8.2341627,4.21947644 12.3146741,0 17.3063676,0 L18.6269215,0 C23.6450261,0 27.7255375,4.21947644 27.7255375,9.40209424 L27.7255375,13.5429469 C27.7375052,16.7619866 26.2176286,19.7977879 23.6252178,21.7329245 L23.6252178,21.7656844 C29.3234076,22.9122812 32.8690998,25.6968736 32.8690998,28.9401047 C32.8756975,33.3626926 26.4644086,36.6910995 17.9666446,36.6910995 Z M17.3063676,2.62079281 C13.747475,2.62079281 10.8488593,5.66091248 10.8488593,9.40209424 L10.8488593,13.5429469 C10.8347735,15.9460461 11.9688104,18.2136878 13.9059415,19.6559462 C14.7594678,20.264858 15.1678264,21.3180722 14.9457074,22.3376487 C14.7235883,23.3572252 13.9132873,24.1490177 12.8825122,24.3537173 C8.65013716,25.2120269 5.69869934,27.1121017 5.69869934,28.9794166 C5.69869934,31.3708901 10.7366123,34.0703067 17.9666446,34.0703067 C25.1966768,34.0703067 30.2345898,31.3708901 30.2345898,28.9532087 C30.2345898,27.0858938 27.2831519,25.185819 23.0507769,24.3275093 C22.0511537,24.0919383 21.2759337,23.3088904 21.0563341,22.3129275 C20.8367344,21.3169645 21.2115912,20.2842224 22.0207449,19.6559462 C23.9445868,18.2164497 25.0705104,15.9600638 25.0580187,13.5691548 L25.0580187,9.40209424 C25.0580187,5.66091248 22.159403,2.62079281 18.6269215,2.62079281 L17.3063676,2.62079281 Z" id="Shape"></path>
                        </g>
                        <text id="设计决策" font-family="PingFangSC-Regular, PingFang SC" font-size="18" font-weight="normal" line-spacing="30" fill="#555555">
                            <tspan x="37.382199" y="35.052356">设计决策</tspan>
                        </text>
                        <text id="设计执行" font-family="PingFangSC-Regular, PingFang SC" font-size="18" font-weight="normal" line-spacing="30" fill="#555555">
                            <tspan x="37.382199" y="126.780105">设计执行</tspan>
                        </text>
                        <path id="Line-2" d="M33.9541808,34.7786777 L31.6347009,44.5700011 L28.598,42.032 L28.5617991,42.0830681 C22.0834846,51.2192636 18.8455497,61.6474878 18.8455497,73.382199 C18.8455497,87.806786 23.7380629,100.259986 33.5328553,110.766213 L33.9955768,111.257267 L34.3404044,111.619336 L33.6162665,112.308991 L33.2714389,111.946922 C22.9909232,101.15238 17.8455497,88.2889467 17.8455497,73.382199 C17.8455497,61.4426166 21.1464417,50.8120781 27.7457808,41.5050416 L27.829,41.388 L24.7294342,38.7978878 L33.9541808,34.7786777 Z" fill="#CBCBCB" fill-rule="nonzero"></path>
                        <path id="Line-2-Copy" d="M131.032715,34.7786777 L128.713235,44.5700011 L125.677,42.032 L125.640333,42.0830681 C119.162019,51.2192636 115.924084,61.6474878 115.924084,73.382199 C115.924084,87.806786 120.816597,100.259986 130.611389,110.766213 L131.074111,111.257267 L131.418938,111.619336 L130.694801,112.308991 L130.349973,111.946922 C120.069457,101.15238 114.924084,88.2889467 114.924084,73.382199 C114.924084,61.4426166 118.224976,50.8120781 124.824315,41.5050416 L124.907,41.389 L121.807968,38.7978878 L131.032715,34.7786777 Z" fill="#CBCBCB" fill-rule="nonzero"></path>
                    </g>
                    <g id="Group-3" transform="translate(170.000000, 0.000000)">
                        <circle id="Oval" fill="#FFFFFF" cx="73" cy="73" r="73"></circle>
                        <g id="用户/角色" transform="translate(55.036649, 55.036649)" fill="#000000" fill-rule="nonzero">
                            <rect id="Rectangle" opacity="0" x="0" y="0" width="36.6910995" height="36.6910995"></rect>
                            <path d="M17.9666446,36.6910995 C9.46888055,36.6910995 3.05759162,33.3626926 3.05759162,28.9532087 C3.05759162,25.6772177 6.61648424,22.9253852 12.3542907,21.7460284 C9.75272838,19.8047156 8.22584239,16.759864 8.2341627,13.5298429 L8.2341627,9.40209424 C8.2341627,4.21947644 12.3146741,0 17.3063676,0 L18.6269215,0 C23.6450261,0 27.7255375,4.21947644 27.7255375,9.40209424 L27.7255375,13.5429469 C27.7375052,16.7619866 26.2176286,19.7977879 23.6252178,21.7329245 L23.6252178,21.7656844 C29.3234076,22.9122812 32.8690998,25.6968736 32.8690998,28.9401047 C32.8756975,33.3626926 26.4644086,36.6910995 17.9666446,36.6910995 Z M17.3063676,2.62079281 C13.747475,2.62079281 10.8488593,5.66091248 10.8488593,9.40209424 L10.8488593,13.5429469 C10.8347735,15.9460461 11.9688104,18.2136878 13.9059415,19.6559462 C14.7594678,20.264858 15.1678264,21.3180722 14.9457074,22.3376487 C14.7235883,23.3572252 13.9132873,24.1490177 12.8825122,24.3537173 C8.65013716,25.2120269 5.69869934,27.1121017 5.69869934,28.9794166 C5.69869934,31.3708901 10.7366123,34.0703067 17.9666446,34.0703067 C25.1966768,34.0703067 30.2345898,31.3708901 30.2345898,28.9532087 C30.2345898,27.0858938 27.2831519,25.185819 23.0507769,24.3275093 C22.0511537,24.0919383 21.2759337,23.3088904 21.0563341,22.3129275 C20.8367344,21.3169645 21.2115912,20.2842224 22.0207449,19.6559462 C23.9445868,18.2164497 25.0705104,15.9600638 25.0580187,13.5691548 L25.0580187,9.40209424 C25.0580187,5.66091248 22.159403,2.62079281 18.6269215,2.62079281 L17.3063676,2.62079281 Z" id="Shape"></path>
                        </g>
                        <text id="设计决策" font-family="PingFangSC-Regular, PingFang SC" font-size="18" font-weight="normal" line-spacing="30" fill="#555555">
                            <tspan x="37.382199" y="35.052356">设计决策</tspan>
                        </text>
                        <text id="设计执行" font-family="PingFangSC-Regular, PingFang SC" font-size="18" font-weight="normal" line-spacing="30" fill="#555555">
                            <tspan x="37.382199" y="126.780105">设计执行</tspan>
                        </text>
                        <path id="Line-2" d="M33.9541808,34.7786777 L31.6347009,44.5700011 L28.598,42.032 L28.5617991,42.0830681 C22.0834846,51.2192636 18.8455497,61.6474878 18.8455497,73.382199 C18.8455497,87.806786 23.7380629,100.259986 33.5328553,110.766213 L33.9955768,111.257267 L34.3404044,111.619336 L33.6162665,112.308991 L33.2714389,111.946922 C22.9909232,101.15238 17.8455497,88.2889467 17.8455497,73.382199 C17.8455497,61.4426166 21.1464417,50.8120781 27.7457808,41.5050416 L27.829,41.388 L24.7294342,38.7978878 L33.9541808,34.7786777 Z" fill="#CBCBCB" fill-rule="nonzero"></path>
                        <path id="Line-2-Copy" d="M131.032715,34.7786777 L128.713235,44.5700011 L125.677,42.032 L125.640333,42.0830681 C119.162019,51.2192636 115.924084,61.6474878 115.924084,73.382199 C115.924084,87.806786 120.816597,100.259986 130.611389,110.766213 L131.074111,111.257267 L131.418938,111.619336 L130.694801,112.308991 L130.349973,111.946922 C120.069457,101.15238 114.924084,88.2889467 114.924084,73.382199 C114.924084,61.4426166 118.224976,50.8120781 124.824315,41.5050416 L124.907,41.389 L121.807968,38.7978878 L131.032715,34.7786777 Z" fill="#CBCBCB" fill-rule="nonzero"></path>
                    </g>
                </g>
                <text id="Before" font-family="PingFangSC-Semibold, PingFang SC" font-size="36" font-weight="500" fill="#555555">
                    <tspan x="165.332" y="101">Before</tspan>
                </text>
                <text id="After" font-family="PingFangSC-Semibold, PingFang SC" font-size="36" font-weight="500" fill="#0061FF">
                    <tspan x="717.02" y="101">After</tspan>
                </text>
            </g>
        </g>
    </g>
</svg>