<?xml version="1.0" encoding="UTF-8"?>
<svg width="1152px" height="531px" viewBox="0 0 1152 531" version="1.1" xmlns="http://www.w3.org/2000/svg" xmlns:xlink="http://www.w3.org/1999/xlink">
    <title>Group 33</title>
    <g id="我的网页" stroke="none" stroke-width="1" fill="none" fill-rule="evenodd">
        <g id="project-1" transform="translate(-414.000000, -5742.000000)">
            <g id="Group-33" transform="translate(414.000000, 5742.000000)">
                <rect id="Rectangle" fill="#F6F7F7" x="0" y="0" width="1152" height="531"></rect>
                <g id="Group-16" transform="translate(217.000000, 40.000000)">
                    <rect id="Rectangle" stroke="#555555" x="0" y="0" width="140" height="48" rx="24"></rect>
                    <text id="普通员工" font-family="PingFangSC-Regular, PingFang SC" font-size="18" font-weight="normal" line-spacing="30" fill="#555555">
                        <tspan x="34" y="29">普通员工</tspan>
                    </text>
                </g>
                <text id="1）进行宣导；2）协助办事；3）相信平台" font-family="PingFangSC-Regular, PingFang SC" font-size="18" font-weight="normal" line-spacing="30" fill="#BD3432">
                    <tspan x="412" y="68">1）进行宣导；2）协助办事；3）相信平台权威；4）链接平台 </tspan>
                </text>
                <text id="线上完成查党组织管理员、转入党组织关系、-copy" font-family="PingFangSC-Regular, PingFang SC" font-size="18" font-weight="normal" line-spacing="30" fill="#CFCFCF">
                    <tspan x="412" y="134">线上完成查党组织管理员、转入党组织关系、查看党务新闻</tspan>
                </text>
                <text id="完成党员一些列任务" font-family="PingFangSC-Regular, PingFang SC" font-size="18" font-weight="normal" line-spacing="30" fill="#CFCFCF">
                    <tspan x="412" y="270">完成党员一些列任务</tspan>
                </text>
                <text id="促进转化" font-family="PingFangSC-Regular, PingFang SC" font-size="18" font-weight="normal" line-spacing="30" fill="#555555">
                    <tspan x="310" y="134">促进转化</tspan>
                </text>
                <text id="加速流转" font-family="PingFangSC-Regular, PingFang SC" font-size="18" font-weight="normal" line-spacing="30" fill="#555555">
                    <tspan x="310" y="269">加速流转</tspan>
                </text>
                <text id="指导" font-family="PingFangSC-Regular, PingFang SC" font-size="18" font-weight="normal" line-spacing="30" fill="#555555">
                    <tspan x="310" y="404">指导</tspan>
                </text>
                <text id="1）按时按质完成任务；2）提供丰富党员咨" font-family="PingFangSC-Regular, PingFang SC" font-size="18" font-weight="normal" line-spacing="30" fill="#BD3432">
                    <tspan x="412" y="201">1）按时按质完成任务；2）提供丰富党员咨询</tspan>
                </text>
                <text id="1）准确下发任务；2）督办任务" font-family="PingFangSC-Regular, PingFang SC" font-size="18" font-weight="normal" line-spacing="30" fill="#BD3432">
                    <tspan x="412" y="336">1）准确下发任务；2）督办任务</tspan>
                </text>
                <text id="线上完成党员与党组织维护、任务分发审批、-copy" font-family="PingFangSC-Regular, PingFang SC" font-size="18" font-weight="normal" line-spacing="30" fill="#CFCFCF">
                    <tspan x="412" y="392">线上完成党员与党组织维护、任务分发审批、党组织转入转出、党</tspan>
                    <tspan x="412" y="422">组织换届、权限分配、党费管理</tspan>
                </text>
                <g id="Group-6" transform="translate(217.000000, 443.000000)">
                    <text id="1）浏览站点数据，了解集团党建情况" font-family="PingFangSC-Regular, PingFang SC" font-size="18" font-weight="normal" line-spacing="30" fill="#BD3432">
                        <tspan x="195" y="28">1）浏览站点数据，了解集团党建情况</tspan>
                    </text>
                    <rect id="Rectangle-Copy-13" stroke="#555555" x="0" y="0" width="140" height="48" rx="24"></rect>
                    <text id="党内领导" font-family="PingFangSC-Regular, PingFang SC" font-size="18" font-weight="normal" line-spacing="30" fill="#555555">
                        <tspan x="34" y="28">党内领导</tspan>
                    </text>
                </g>
                <g id="Group-15" transform="translate(217.000000, 173.000000)">
                    <rect id="Rectangle" stroke="#555555" x="0" y="0" width="140" height="48" rx="24"></rect>
                    <text id="党员" font-family="PingFangSC-Regular, PingFang SC" font-size="18" font-weight="normal" line-spacing="30" fill="#555555">
                        <tspan x="52" y="29">党员</tspan>
                    </text>
                </g>
                <g id="Group-14" transform="translate(217.000000, 308.000000)">
                    <rect id="Rectangle" stroke="#555555" x="0" y="0" width="140" height="48" rx="24"></rect>
                    <text id="党务管理员" font-family="PingFangSC-Regular, PingFang SC" font-size="18" font-weight="normal" line-spacing="30" fill="#555555">
                        <tspan x="25" y="29">党务管理员</tspan>
                    </text>
                </g>
                <path id="Line-6" d="M288,153 L288,155 L292,155 L287.5,164 L283,155 L287,155 L287,153 L288,153 Z M288,139 L288,147 L287,147 L287,139 L288,139 Z M288,125 L288,133 L287,133 L287,125 L288,125 Z M288,111 L288,119 L287,119 L287,111 L288,111 Z M288,97 L288,105 L287,105 L287,97 L288,97 Z" fill="#979797" fill-rule="nonzero"></path>
                <g id="Group-27" transform="translate(275.000000, 231.000000)" fill="#979797" fill-rule="nonzero">
                    <path id="Line-6-Copy" d="M1,56 L1,58 L5,58 L0.5,67 L-4,58 L0,58 L0,56 L1,56 Z M1,42 L1,50 L0,50 L0,42 L1,42 Z M1,28 L1,36 L0,36 L0,28 L1,28 Z M1,14 L1,22 L0,22 L0,14 L1,14 Z M1,0 L1,8 L0,8 L0,0 L1,0 Z"></path>
                    <path id="Line-6-Copy-2" d="M25,56 L25,58 L29,58 L24.5,67 L20,58 L24,58 L24,56 L25,56 Z M25,42 L25,50 L24,50 L24,42 L25,42 Z M25,28 L25,36 L24,36 L24,28 L25,28 Z M25,14 L25,22 L24,22 L24,14 L25,14 Z M25,0 L25,8 L24,8 L24,0 L25,0 Z"></path>
                </g>
                <g id="Group-27-Copy" transform="translate(287.000000, 366.000000)" fill="#979797" fill-rule="nonzero">
                    <path id="Line-6-Copy-2" d="M1,56 L1,58 L5,58 L0.5,67 L-4,58 L0,58 L0,56 L1,56 Z M1,42 L1,50 L0,50 L0,42 L1,42 Z M1,28 L1,36 L0,36 L0,28 L1,28 Z M1,14 L1,22 L0,22 L0,14 L1,14 Z M1,0 L1,8 L0,8 L0,0 L1,0 Z"></path>
                </g>
            </g>
        </g>
    </g>
</svg>