<?xml version="1.0" encoding="UTF-8"?>
<svg width="1152px" height="863px" viewBox="0 0 1152 863" version="1.1" xmlns="http://www.w3.org/2000/svg" xmlns:xlink="http://www.w3.org/1999/xlink">
    <title>Group 35</title>
    <g id="我的网页" stroke="none" stroke-width="1" fill="none" fill-rule="evenodd">
        <g id="project-1" transform="translate(-414.000000, -7341.000000)">
            <g id="Group-35" transform="translate(414.000000, 7341.000000)">
                <rect id="Rectangle-Copy" fill="#F6F7F7" x="0" y="0" width="1152" height="863"></rect>
                <g id="Group-5" transform="translate(39.000000, 43.000000)">
                    <rect id="Rectangle" stroke="#FD0D0D" fill="#FDFDFD" x="0" y="45" width="309" height="605" rx="10"></rect>
                    <rect id="Rectangle-Copy-3" stroke="#FD0D0D" fill="#FDFDFD" x="338" y="45" width="736" height="605" rx="10"></rect>
                    <g id="Group" transform="translate(387.000000, 237.000000)">
                        <rect id="Rectangle" fill="#F3F3F3" x="0" y="0" width="94" height="68" rx="10"></rect>
                        <text id="登陆" font-family="PingFangSC-Regular, PingFang SC" font-size="20" font-weight="normal" fill="#BD3432">
                            <tspan x="27" y="41">登陆</tspan>
                        </text>
                    </g>
                    <g id="Group-Copy-9" transform="translate(32.000000, 190.000000)">
                        <rect id="Rectangle" fill="#F3F3F3" x="0" y="0" width="94" height="68" rx="10"></rect>
                        <text id="登陆" font-family="PingFangSC-Regular, PingFang SC" font-size="20" font-weight="normal" fill="#BD3432">
                            <tspan x="27" y="41">登陆</tspan>
                        </text>
                    </g>
                    <g id="Group-Copy-3" transform="translate(799.000000, 351.000000)">
                        <rect id="Rectangle" fill="#F3F3F3" x="0" y="0" width="94" height="68"></rect>
                        <text id="详情结果" font-family="PingFangSC-Regular, PingFang SC" font-size="20" font-weight="normal" fill="#BD3432">
                            <tspan x="7" y="41">详情结果</tspan>
                        </text>
                    </g>
                    <g id="Group-Copy-4" transform="translate(936.000000, 241.000000)">
                        <rect id="Rectangle" fill="#F3F3F3" x="0" y="0" width="94" height="68"></rect>
                        <text id="提单结果状态" font-family="PingFangSC-Regular, PingFang SC" font-size="20" font-weight="normal" fill="#BD3432">
                            <tspan x="7" y="27">提单结果</tspan>
                            <tspan x="27" y="55">状态</tspan>
                        </text>
                    </g>
                    <g id="Group-Copy-5" transform="translate(661.000000, 237.000000)">
                        <rect id="Rectangle" fill="#F3F3F3" x="0" y="0" width="94" height="68"></rect>
                        <text id="列表页面" font-family="PingFangSC-Regular, PingFang SC" font-size="20" font-weight="normal" fill="#BD3432">
                            <tspan x="7" y="41">列表页面</tspan>
                        </text>
                    </g>
                    <g id="Group-Copy-6" transform="translate(799.000000, 237.000000)">
                        <rect id="Rectangle" fill="#F3F3F3" x="0" y="0" width="94" height="68"></rect>
                        <text id="提单" font-family="PingFangSC-Regular, PingFang SC" font-size="20" font-weight="normal" fill="#BD3432">
                            <tspan x="27" y="41">提单</tspan>
                        </text>
                    </g>
                    <g id="Group-Copy" transform="translate(524.000000, 237.000000)">
                        <rect id="Rectangle" fill="#F3F3F3" x="0" y="0" width="94" height="68"></rect>
                        <text id="首页" font-family="PingFangSC-Regular, PingFang SC" font-size="20" font-weight="normal" fill="#BD3432">
                            <tspan x="27" y="41">首页</tspan>
                        </text>
                    </g>
                    <g id="Group-Copy-10" transform="translate(32.000000, 283.000000)">
                        <rect id="Rectangle" fill="#F3F3F3" x="0" y="0" width="94" height="68" rx="10"></rect>
                        <text id="首页" font-family="PingFangSC-Regular, PingFang SC" font-size="20" font-weight="normal" fill="#BD3432">
                            <tspan x="27" y="41">首页</tspan>
                        </text>
                    </g>
                    <g id="Group-Copy-11" transform="translate(153.000000, 283.000000)">
                        <rect id="Rectangle" fill="#F3F3F3" x="0" y="0" width="124" height="68" rx="10"></rect>
                        <text id="模块页" font-family="PingFangSC-Regular, PingFang SC" font-size="20" font-weight="normal" fill="#BD3432">
                            <tspan x="32" y="41">模块页</tspan>
                        </text>
                    </g>
                    <g id="Group-Copy-7" transform="translate(524.000000, 442.000000)">
                        <rect id="Rectangle" fill="#F3F3F3" x="0" y="0" width="94" height="68"></rect>
                        <text id="个人中心" font-family="PingFangSC-Regular, PingFang SC" font-size="20" font-weight="normal" fill="#BD3432">
                            <tspan x="7" y="41">个人中心</tspan>
                        </text>
                    </g>
                    <g id="Group-Copy-8" transform="translate(524.000000, 544.000000)">
                        <rect id="Rectangle" fill="#F3F3F3" x="0" y="0" width="94" height="68"></rect>
                        <text id="帮助中心" stroke="#979797" font-family="PingFangSC-Regular, PingFang SC" font-size="20" font-weight="normal" fill="#BD3432">
                            <tspan x="7" y="41">帮助中心</tspan>
                        </text>
                    </g>
                    <g id="Group-Copy-2" transform="translate(524.000000, 340.000000)">
                        <rect id="Rectangle" fill="#F3F3F3" x="0" y="0" width="60" height="68"></rect>
                        <text id="导航" font-family="PingFangSC-Regular, PingFang SC" font-size="20" font-weight="normal" fill="#BD3432">
                            <tspan x="10" y="41">导航</tspan>
                        </text>
                    </g>
                    <g id="Group-2" transform="translate(387.000000, 134.000000)">
                        <rect id="Rectangle-Copy" fill="#F3F3F3" x="0" y="0" width="94" height="68" rx="10"></rect>
                        <text id="注册" font-family="PingFangSC-Regular, PingFang SC" font-size="20" font-weight="normal" fill="#BD3432">
                            <tspan x="27" y="41">注册</tspan>
                        </text>
                    </g>
                    <g id="Group-2-Copy-3" transform="translate(32.000000, 87.000000)">
                        <rect id="Rectangle-Copy" fill="#F3F3F3" x="0" y="0" width="94" height="68" rx="10"></rect>
                        <text id="注册" font-family="PingFangSC-Regular, PingFang SC" font-size="20" font-weight="normal" fill="#BD3432">
                            <tspan x="27" y="41">注册</tspan>
                        </text>
                    </g>
                    <g id="Group-2-Copy" transform="translate(524.000000, 134.000000)">
                        <rect id="Rectangle-Copy" fill="#F3F3F3" x="0" y="0" width="168" height="68" rx="10"></rect>
                        <text id="提单模板配置" font-family="PingFangSC-Regular, PingFang SC" font-size="20" font-weight="normal" fill="#BD3432">
                            <tspan x="24" y="41">提单模板配置</tspan>
                        </text>
                    </g>
                    <path id="Line" d="M434.75,231 L434.75,237 L433.75,237 L433.75,231 L434.75,231 Z M434.75,221 L434.75,227 L433.75,227 L433.75,221 L434.75,221 Z M434.75,211 L434.75,217 L433.75,217 L433.75,211 L434.75,211 Z M434.25,201 L438.75,210 L429.75,210 L434.25,201 Z" fill="#BD3432" fill-rule="nonzero"></path>
                    <path id="Line-Copy-8" d="M79.75,184 L79.75,190 L78.75,190 L78.75,184 L79.75,184 Z M79.75,174 L79.75,180 L78.75,180 L78.75,174 L79.75,174 Z M79.75,164 L79.75,170 L78.75,170 L78.75,164 L79.75,164 Z M79.25,154 L83.75,163 L74.75,163 L79.25,154 Z" fill="#BD3432" fill-rule="nonzero"></path>
                    <path id="Line-Copy-2" d="M571.75,231 L571.75,237 L570.75,237 L570.75,231 L571.75,231 Z M571.75,221 L571.75,227 L570.75,227 L570.75,221 L571.75,221 Z M571.75,211 L571.75,217 L570.75,217 L570.75,211 L571.75,211 Z M571.25,201 L575.75,210 L566.75,210 L571.25,201 Z" fill="#BD3432" fill-rule="nonzero"></path>
                    <path id="Line-Copy-3" d="M558.75,331 L554.25,340 L549.75,331 L558.75,331 Z M554.75,324 L554.75,330 L553.75,330 L553.75,324 L554.75,324 Z M554.75,314 L554.75,320 L553.75,320 L553.75,314 L554.75,314 Z M554.75,304 L554.75,310 L553.75,310 L553.75,304 L554.75,304 Z" fill="#BD3432" fill-rule="nonzero"></path>
                    <path id="Line-Copy" d="M515.188406,266 L524.188406,270.5 L515.188406,275 L515.188,271 L480.811594,271 L480.811594,270 L515.188,270 L515.188406,266 Z" fill="#BD3432" fill-rule="nonzero"></path>
                    <path id="Line-Copy-9" d="M80,257 L80,275 L84,275 L79.5,284 L75,275 L79,275 L79,257 L80,257 Z" fill="#BD3432" fill-rule="nonzero"></path>
                    <path id="Line-Copy-10" d="M145,313 L154,317.5 L145,322 L145,318 L126,318 L126,317 L145,317 L145,313 Z" fill="#BD3432" fill-rule="nonzero"></path>
                    <path id="Line-Copy-5" d="M789.188406,266 L798.188406,270.5 L789.188406,275 L789.188,271 L754.811594,271 L754.811594,270 L789.188,270 L789.188406,266 Z" fill="#BD3432" fill-rule="nonzero"></path>
                    <path id="Line-Copy-4" d="M652.188406,266 L661.188406,270.5 L652.188406,275 L652.188,271 L617.811594,271 L617.811594,270 L652.188,270 L652.188406,266 Z" fill="#BD3432" fill-rule="nonzero"></path>
                    <path id="Line-Copy-6" d="M926.188406,266 L935.188406,270.5 L926.188406,275 L926.188,271 L891.811594,271 L891.811594,270 L926.188,270 L926.188406,266 Z" fill="#BD3432" fill-rule="nonzero"></path>
                    <path id="Line-Copy-7" d="M1040.62631,270 L1040.62631,271 L1030.62631,271 L1030.62631,270 L1040.62631,270 Z M1052.5,262.873686 L1052.5,271 L1049.62631,271 L1049.62631,270 L1051.5,270 L1051.5,262.873686 L1052.5,262.873686 Z M1052.5,243.873686 L1052.5,253.873686 L1051.5,253.873686 L1051.5,243.873686 L1052.5,243.873686 Z M1052.5,224.873686 L1052.5,234.873686 L1051.5,234.873686 L1051.5,224.873686 L1052.5,224.873686 Z M1052.5,205.873686 L1052.5,215.873686 L1051.5,215.873686 L1051.5,205.873686 L1052.5,205.873686 Z M1052.5,186.873686 L1052.5,196.873686 L1051.5,196.873686 L1051.5,186.873686 L1052.5,186.873686 Z M1052.5,167.873686 L1052.5,177.873686 L1051.5,177.873686 L1051.5,167.873686 L1052.5,167.873686 Z M1052.5,148.873686 L1052.5,158.873686 L1051.5,158.873686 L1051.5,148.873686 L1052.5,148.873686 Z M1052.5,129.873686 L1052.5,139.873686 L1051.5,139.873686 L1051.5,129.873686 L1052.5,129.873686 Z M1052.5,110.873686 L1052.5,120.873686 L1051.5,120.873686 L1051.5,110.873686 L1052.5,110.873686 Z M317.5,101.5 L317.5,105.5 L325.873686,105.5 L325.873686,106.5 L317.5,106.5 L317.5,110.5 L308.5,106 L317.5,101.5 Z M1047.87369,105.5 L1047.87369,106.5 L1037.87369,106.5 L1037.87369,105.5 L1047.87369,105.5 Z M1028.87369,105.5 L1028.87369,106.5 L1018.87369,106.5 L1018.87369,105.5 L1028.87369,105.5 Z M1009.87369,105.5 L1009.87369,106.5 L999.873686,106.5 L999.873686,105.5 L1009.87369,105.5 Z M990.873686,105.5 L990.873686,106.5 L980.873686,106.5 L980.873686,105.5 L990.873686,105.5 Z M971.873686,105.5 L971.873686,106.5 L961.873686,106.5 L961.873686,105.5 L971.873686,105.5 Z M952.873686,105.5 L952.873686,106.5 L942.873686,106.5 L942.873686,105.5 L952.873686,105.5 Z M933.873686,105.5 L933.873686,106.5 L923.873686,106.5 L923.873686,105.5 L933.873686,105.5 Z M914.873686,105.5 L914.873686,106.5 L904.873686,106.5 L904.873686,105.5 L914.873686,105.5 Z M895.873686,105.5 L895.873686,106.5 L885.873686,106.5 L885.873686,105.5 L895.873686,105.5 Z M876.873686,105.5 L876.873686,106.5 L866.873686,106.5 L866.873686,105.5 L876.873686,105.5 Z M857.873686,105.5 L857.873686,106.5 L847.873686,106.5 L847.873686,105.5 L857.873686,105.5 Z M838.873686,105.5 L838.873686,106.5 L828.873686,106.5 L828.873686,105.5 L838.873686,105.5 Z M819.873686,105.5 L819.873686,106.5 L809.873686,106.5 L809.873686,105.5 L819.873686,105.5 Z M800.873686,105.5 L800.873686,106.5 L790.873686,106.5 L790.873686,105.5 L800.873686,105.5 Z M781.873686,105.5 L781.873686,106.5 L771.873686,106.5 L771.873686,105.5 L781.873686,105.5 Z M762.873686,105.5 L762.873686,106.5 L752.873686,106.5 L752.873686,105.5 L762.873686,105.5 Z M743.873686,105.5 L743.873686,106.5 L733.873686,106.5 L733.873686,105.5 L743.873686,105.5 Z M724.873686,105.5 L724.873686,106.5 L714.873686,106.5 L714.873686,105.5 L724.873686,105.5 Z M705.873686,105.5 L705.873686,106.5 L695.873686,106.5 L695.873686,105.5 L705.873686,105.5 Z M686.873686,105.5 L686.873686,106.5 L676.873686,106.5 L676.873686,105.5 L686.873686,105.5 Z M667.873686,105.5 L667.873686,106.5 L657.873686,106.5 L657.873686,105.5 L667.873686,105.5 Z M648.873686,105.5 L648.873686,106.5 L638.873686,106.5 L638.873686,105.5 L648.873686,105.5 Z M629.873686,105.5 L629.873686,106.5 L619.873686,106.5 L619.873686,105.5 L629.873686,105.5 Z M610.873686,105.5 L610.873686,106.5 L600.873686,106.5 L600.873686,105.5 L610.873686,105.5 Z M591.873686,105.5 L591.873686,106.5 L581.873686,106.5 L581.873686,105.5 L591.873686,105.5 Z M572.873686,105.5 L572.873686,106.5 L562.873686,106.5 L562.873686,105.5 L572.873686,105.5 Z M553.873686,105.5 L553.873686,106.5 L543.873686,106.5 L543.873686,105.5 L553.873686,105.5 Z M534.873686,105.5 L534.873686,106.5 L524.873686,106.5 L524.873686,105.5 L534.873686,105.5 Z M515.873686,105.5 L515.873686,106.5 L505.873686,106.5 L505.873686,105.5 L515.873686,105.5 Z M496.873686,105.5 L496.873686,106.5 L486.873686,106.5 L486.873686,105.5 L496.873686,105.5 Z M477.873686,105.5 L477.873686,106.5 L467.873686,106.5 L467.873686,105.5 L477.873686,105.5 Z M458.873686,105.5 L458.873686,106.5 L448.873686,106.5 L448.873686,105.5 L458.873686,105.5 Z M439.873686,105.5 L439.873686,106.5 L429.873686,106.5 L429.873686,105.5 L439.873686,105.5 Z M420.873686,105.5 L420.873686,106.5 L410.873686,106.5 L410.873686,105.5 L420.873686,105.5 Z M401.873686,105.5 L401.873686,106.5 L391.873686,106.5 L391.873686,105.5 L401.873686,105.5 Z M382.873686,105.5 L382.873686,106.5 L372.873686,106.5 L372.873686,105.5 L382.873686,105.5 Z M363.873686,105.5 L363.873686,106.5 L353.873686,106.5 L353.873686,105.5 L363.873686,105.5 Z M344.873686,105.5 L344.873686,106.5 L334.873686,106.5 L334.873686,105.5 L344.873686,105.5 Z" fill="#BD3432" fill-rule="nonzero"></path>
                    <text id="前台" font-family="PingFangSC-Regular, PingFang SC" font-size="20" font-weight="normal" fill="#BD3432">
                        <tspan x="120" y="21">前台</tspan>
                    </text>
                    <text id="后台" font-family="PingFangSC-Regular, PingFang SC" font-size="20" font-weight="normal" fill="#BD3432">
                        <tspan x="686" y="21">后台</tspan>
                    </text>
                    <path id="Line-Copy-7" d="M329.5,312.5 L338.5,317 L329.5,321.5 L329.5,317.5 L328.5,317.5 L328.5,316.5 L329.5,316.5 L329.5,312.5 Z M300.5,316.5 L300.5,317.5 L290.5,317.5 L290.5,316.5 L300.5,316.5 Z M319.5,316.5 L319.5,317.5 L309.5,317.5 L309.5,316.5 L319.5,316.5 Z" fill="#BD3432" fill-rule="nonzero"></path>
                </g>
                <path id="Line-Copy-7" d="M368.464832,355.567067 L377.499985,359.996063 L368.535695,364.566788 L368.464832,355.567067 Z M322.995769,359.925215 L323.003642,360.925184 L322.503658,360.929121 L313.503937,360.999985 L313.003952,361.003921 L312.996079,360.003952 L313.496063,360.000015 L322.495784,359.929152 L322.995769,359.925215 Z M341.99518,359.775613 L342.003053,360.775582 L341.503069,360.779519 L332.503348,360.850383 L332.003363,360.85432 L331.99549,359.854351 L332.495474,359.850414 L341.495195,359.77955 L341.99518,359.775613 Z M360.994591,359.626011 L361.002464,360.62598 L360.50248,360.629917 L351.502759,360.700781 L351.002774,360.704718 L350.994901,359.704749 L351.494885,359.700812 L360.494606,359.629948 L360.994591,359.626011 Z" fill="#BD3432" fill-rule="nonzero"></path>
                <path d="M49,726 L1103,726 C1108.52285,726 1113,730.477153 1113,736 L1113,806 C1113,811.522847 1108.52285,816 1103,816 L49,816 C43.4771525,816 39,811.522847 39,806 L39,736 C39,730.477153 43.4771525,726 49,726 Z" id="Rectangle-Copy-12" stroke="#FD0D0D" fill="#FDFDFD" stroke-dasharray="9"></path>
                <text id="强大丰富的组件库，构成复杂交互体验" stroke="#979797" font-family="PingFangSC-Regular, PingFang SC" font-size="20" font-weight="normal" fill="#BD3432">
                    <tspan x="406" y="778">强大丰富的组件库，构成复杂交互体验</tspan>
                </text>
            </g>
        </g>
    </g>
</svg>