<svg width="1298" height="653" viewBox="0 0 1298 653" fill="none" xmlns="http://www.w3.org/2000/svg">
<g filter="url(#filter0_d_6626_160862)">
<g clip-path="url(#clip0_6626_160862)">
<path d="M9 41.0312C9 23.3581 23.3269 9.03125 41 9.03125H1257C1274.67 9.03125 1289 23.3581 1289 41.0312V612.031C1289 629.704 1274.67 644.031 1257 644.031H41C23.3269 644.031 9 629.704 9 612.031V41.0312Z" fill="#282829"/>
<g opacity="0.5">
<mask id="mask0_6626_160862" style="mask-type:alpha" maskUnits="userSpaceOnUse" x="-54" y="-67" width="1406" height="778">
<ellipse cx="648.69" cy="322.12" rx="702.69" ry="388.433" fill="url(#paint0_radial_6626_160862)"/>
</mask>
<g mask="url(#mask0_6626_160862)">
<g opacity="0.56">
<path opacity="0.0166667" d="M3025.23 675.794C3025.23 923.755 2825.44 1148.34 2502.22 1310.95C2179.02 1473.55 1732.5 1574.13 1239.26 1574.13C746.023 1574.13 299.499 1473.55 -23.7028 1310.95C-346.925 1148.34 -546.708 923.755 -546.708 675.794C-546.708 427.833 -346.925 203.251 -23.7028 40.6381C299.499 -121.964 746.023 -222.546 1239.26 -222.546C1732.5 -222.546 2179.02 -121.964 2502.22 40.6381C2825.44 203.251 3025.23 427.833 3025.23 675.794Z" stroke="white" stroke-width="0.716665"/>
<path opacity="0.0333333" d="M2951.41 675.795C2951.41 913.565 2759.89 1128.92 2450.03 1284.85C2140.18 1440.78 1712.11 1537.23 1239.26 1537.23C766.408 1537.23 338.338 1440.78 28.4938 1284.85C-281.371 1128.92 -472.892 913.565 -472.892 675.795C-472.892 438.026 -281.371 222.671 28.4938 66.7368C338.338 -89.1867 766.408 -185.638 1239.26 -185.638C1712.11 -185.638 2140.18 -89.1867 2450.03 66.7368C2759.89 222.671 2951.41 438.026 2951.41 675.795Z" stroke="white" stroke-width="0.716665"/>
<path opacity="0.05" d="M2877.6 675.795C2877.6 903.372 2694.34 1109.5 2397.83 1258.76C2101.35 1408 1691.73 1500.32 1239.26 1500.32C786.793 1500.32 377.176 1408 80.6903 1258.76C-215.816 1109.5 -399.075 903.372 -399.075 675.795C-399.075 448.217 -215.816 242.089 80.6903 92.8336C377.176 -56.4109 786.793 -148.731 1239.26 -148.731C1691.73 -148.731 2101.35 -56.4109 2397.83 92.8336C2694.34 242.089 2877.6 448.217 2877.6 675.795Z" stroke="white" stroke-width="0.716665"/>
<path opacity="0.0666667" d="M2803.78 675.794C2803.78 893.18 2628.79 1090.08 2345.64 1232.66C2062.51 1375.22 1671.35 1463.41 1239.26 1463.41C807.177 1463.41 416.015 1375.22 132.887 1232.66C-150.262 1090.08 -325.259 893.18 -325.259 675.794C-325.259 458.408 -150.262 261.507 132.887 118.931C416.015 -23.6348 807.177 -111.824 1239.26 -111.824C1671.35 -111.824 2062.51 -23.6348 2345.64 118.931C2628.79 261.507 2803.78 458.408 2803.78 675.794Z" stroke="white" stroke-width="0.716665"/>
<path opacity="0.0833333" d="M2729.97 675.795C2729.97 882.989 2563.24 1070.66 2293.45 1206.56C2023.68 1342.45 1650.97 1426.51 1239.26 1426.51C827.562 1426.51 454.853 1342.45 185.083 1206.56C-84.7074 1070.66 -251.442 882.989 -251.442 675.795C-251.442 468.6 -84.7074 280.926 185.083 145.029C454.853 9.14243 827.562 -74.9156 1239.26 -74.9156C1650.97 -74.9156 2023.68 9.14243 2293.45 145.029C2563.24 280.926 2729.97 468.6 2729.97 675.795Z" stroke="white" stroke-width="0.716665"/>
<path opacity="0.1" d="M2656.15 675.795C2656.15 872.798 2497.68 1051.25 2241.25 1180.46C1984.84 1309.67 1630.58 1389.6 1239.26 1389.6C847.943 1389.6 493.688 1309.67 237.276 1180.46C-19.1568 1051.25 -177.63 872.798 -177.63 675.795C-177.63 478.792 -19.1568 300.345 237.276 171.127C493.688 41.9191 847.943 -38.0079 1239.26 -38.0079C1630.58 -38.0079 1984.84 41.9191 2241.25 171.127C2497.68 300.345 2656.15 478.792 2656.15 675.795Z" stroke="white" stroke-width="0.716665"/>
<path opacity="0.116667" d="M2582.34 675.795C2582.34 862.606 2432.12 1031.83 2189.05 1154.37C1946 1276.89 1610.19 1352.69 1239.26 1352.69C868.324 1352.69 532.523 1276.89 289.469 1154.37C46.3938 1031.83 -103.817 862.606 -103.817 675.795C-103.817 488.983 46.3938 319.763 289.469 197.224C532.523 74.6953 868.324 -1.10065 1239.26 -1.10065C1610.19 -1.10065 1946 74.6953 2189.05 197.224C2432.12 319.763 2582.34 488.983 2582.34 675.795Z" stroke="white" stroke-width="0.716665"/>
<path opacity="0.133333" d="M2508.52 675.794C2508.52 852.414 2366.57 1012.41 2136.86 1128.27C1907.16 1244.12 1589.81 1315.78 1239.26 1315.78C888.709 1315.78 571.361 1244.12 341.665 1128.27C111.948 1012.41 -30.001 852.414 -30.001 675.794C-30.001 499.175 111.948 339.181 341.665 223.321C571.361 107.472 888.709 35.8066 1239.26 35.8066C1589.81 35.8066 1907.16 107.472 2136.86 223.321C2366.57 339.181 2508.52 499.175 2508.52 675.794Z" stroke="white" stroke-width="0.716665"/>
<path opacity="0.15" d="M2434.71 675.794C2434.71 842.222 2301.02 992.989 2084.67 1102.17C1868.33 1211.34 1569.43 1278.87 1239.27 1278.87C909.097 1278.87 610.204 1211.34 393.865 1102.17C177.507 992.989 43.8193 842.222 43.8193 675.794C43.8193 509.366 177.507 358.6 393.865 249.418C610.204 140.248 909.097 72.7138 1239.27 72.7138C1569.43 72.7138 1868.33 140.248 2084.67 249.418C2301.02 358.6 2434.71 509.366 2434.71 675.794Z" stroke="white" stroke-width="0.716665"/>
<path opacity="0.166667" d="M2360.9 675.795C2360.9 832.031 2235.47 973.571 2032.47 1076.07C1829.49 1178.56 1549.05 1241.97 1239.27 1241.97C929.483 1241.97 649.043 1178.56 446.062 1076.07C243.061 973.571 117.636 832.031 117.636 675.795C117.636 519.559 243.061 378.019 446.062 275.517C649.043 173.025 929.483 109.622 1239.27 109.622C1549.05 109.622 1829.49 173.025 2032.47 275.517C2235.47 378.019 2360.9 519.559 2360.9 675.795Z" stroke="white" stroke-width="0.716665"/>
<path opacity="0.183333" d="M2287.08 675.794C2287.08 821.839 2169.92 954.152 1980.28 1049.97C1790.66 1145.79 1528.67 1205.06 1239.27 1205.06C949.867 1205.06 687.881 1145.79 498.259 1049.97C308.616 954.152 191.452 821.839 191.452 675.794C191.452 529.75 308.616 397.437 498.259 301.614C687.881 205.801 949.867 146.529 1239.27 146.529C1528.67 146.529 1790.66 205.801 1980.28 301.614C2169.92 397.437 2287.08 529.75 2287.08 675.794Z" stroke="white" stroke-width="0.716665"/>
<path opacity="0.2" d="M2213.26 675.793C2213.26 811.646 2104.36 934.732 1928.08 1023.88C1751.81 1113.01 1508.28 1168.15 1239.26 1168.15C970.244 1168.15 726.712 1113.01 550.447 1023.88C374.163 934.732 265.261 811.646 265.261 675.793C265.261 539.94 374.163 416.854 550.447 327.71C726.712 238.576 970.244 183.435 1239.26 183.435C1508.28 183.435 1751.81 238.576 1928.08 327.71C2104.36 416.854 2213.26 539.94 2213.26 675.793Z" stroke="white" stroke-width="0.716665"/>
<path opacity="0.216667" d="M2139.45 675.795C2139.45 801.456 2038.81 915.315 1875.89 997.78C1712.98 1080.24 1487.9 1131.24 1239.27 1131.24C990.633 1131.24 765.554 1080.24 602.648 997.78C439.721 915.315 339.081 801.456 339.081 675.795C339.081 550.134 439.721 436.275 602.648 353.81C765.554 271.355 990.633 220.345 1239.27 220.345C1487.9 220.345 1712.98 271.355 1875.89 353.81C2038.81 436.275 2139.45 550.134 2139.45 675.795Z" stroke="white" stroke-width="0.716665"/>
<path opacity="0.233333" d="M2065.64 675.795C2065.64 791.265 1973.26 895.897 1823.69 971.683C1674.14 1047.46 1467.52 1094.34 1239.26 1094.34C1011.01 1094.34 804.389 1047.46 654.84 971.683C505.272 895.897 412.893 791.265 412.893 675.795C412.893 560.325 505.272 455.693 654.84 379.907C804.389 304.132 1011.01 257.253 1239.26 257.253C1467.52 257.253 1674.14 304.132 1823.69 379.907C1973.26 455.693 2065.64 560.325 2065.64 675.795Z" stroke="white" stroke-width="0.716665"/>
<path opacity="0.25" d="M1991.82 675.794C1991.82 781.072 1907.7 876.478 1771.49 945.584C1635.3 1014.68 1447.13 1057.43 1239.26 1057.43C1031.39 1057.43 843.224 1014.68 707.033 945.584C570.823 876.478 486.706 781.072 486.706 675.794C486.706 570.516 570.823 475.11 707.033 406.004C843.224 336.907 1031.39 294.159 1239.26 294.159C1447.13 294.159 1635.3 336.907 1771.49 406.004C1907.7 475.11 1991.82 570.516 1991.82 675.794Z" stroke="white" stroke-width="0.716665"/>
<path opacity="0.266667" d="M1918 675.795C1918 770.882 1842.15 857.06 1719.3 919.488C1596.46 981.905 1426.75 1020.52 1239.26 1020.52C1051.78 1020.52 882.063 981.905 759.23 919.488C636.377 857.06 560.522 770.882 560.522 675.795C560.522 580.708 636.377 494.529 759.23 432.102C882.063 369.684 1051.78 331.067 1239.26 331.067C1426.75 331.067 1596.46 369.684 1719.3 432.102C1842.15 494.529 1918 580.708 1918 675.795Z" stroke="white" stroke-width="0.716665"/>
<path opacity="0.283333" d="M1844.19 675.794C1844.19 760.69 1776.59 837.641 1667.1 893.39C1557.62 949.128 1406.36 983.614 1239.26 983.614C1072.16 983.614 920.897 949.128 811.423 893.39C701.928 837.641 634.335 760.69 634.335 675.794C634.335 590.899 701.928 513.947 811.423 458.199C920.897 402.46 1072.16 367.975 1239.26 367.975C1406.36 367.975 1557.62 402.46 1667.1 458.199C1776.59 513.947 1844.19 590.899 1844.19 675.794Z" stroke="white" stroke-width="0.716665"/>
<path opacity="0.3" d="M1770.38 675.794C1770.38 750.499 1711.04 818.223 1614.91 867.292C1518.79 916.352 1385.98 946.707 1239.27 946.707C1092.55 946.707 959.74 916.352 863.623 867.292C767.487 818.223 708.155 750.499 708.155 675.794C708.155 601.09 767.487 533.366 863.623 484.296C959.74 435.237 1092.55 404.882 1239.27 404.882C1385.98 404.882 1518.79 435.237 1614.91 484.296C1711.04 533.366 1770.38 601.09 1770.38 675.794Z" stroke="white" stroke-width="0.716665"/>
<path opacity="0.316667" d="M1696.56 675.794C1696.56 740.308 1645.49 798.805 1562.71 841.195C1479.95 883.576 1365.6 909.799 1239.26 909.799C1112.93 909.799 998.575 883.576 915.817 841.195C833.039 798.805 781.968 740.308 781.968 675.794C781.968 611.281 833.039 552.784 915.817 510.394C998.575 468.013 1112.93 441.789 1239.26 441.789C1365.6 441.789 1479.95 468.013 1562.71 510.394C1645.49 552.784 1696.56 611.281 1696.56 675.794Z" stroke="white" stroke-width="0.716665"/>
<path opacity="0.333333" d="M1622.75 675.795C1622.75 730.117 1579.94 779.387 1510.52 815.098C1441.12 850.799 1345.21 872.892 1239.26 872.892C1133.32 872.892 1037.41 850.799 968.014 815.098C898.594 779.387 855.784 730.117 855.784 675.795C855.784 621.472 898.594 572.202 968.014 536.491C1037.41 500.79 1133.32 478.697 1239.26 478.697C1345.21 478.697 1441.12 500.79 1510.52 536.491C1579.94 572.202 1622.75 621.472 1622.75 675.795Z" stroke="white" stroke-width="0.716665"/>
<path opacity="0.35" d="M1548.93 675.795C1548.93 719.927 1514.38 759.97 1458.32 789.001C1402.27 818.023 1324.83 835.985 1239.26 835.985C1153.7 835.985 1076.25 818.023 1020.21 789.001C964.146 759.97 929.597 719.927 929.597 675.795C929.597 631.663 964.146 591.62 1020.21 562.588C1076.25 533.566 1153.7 515.605 1239.26 515.605C1324.83 515.605 1402.27 533.566 1458.32 562.588C1514.38 591.62 1548.93 631.663 1548.93 675.795Z" stroke="white" stroke-width="0.716665"/>
<path opacity="0.366667" d="M1475.11 675.794C1475.11 709.736 1448.82 740.552 1406.12 762.903C1363.44 785.246 1304.44 799.076 1239.26 799.076C1174.08 799.076 1115.09 785.246 1072.4 762.903C1029.7 740.552 1003.41 709.736 1003.41 675.794C1003.41 641.852 1029.7 611.036 1072.4 588.684C1115.09 566.342 1174.08 552.512 1239.26 552.512C1304.44 552.512 1363.44 566.342 1406.12 588.684C1448.82 611.036 1475.11 641.852 1475.11 675.794Z" stroke="white" stroke-width="0.716665"/>
<path opacity="0.383333" d="M1401.3 675.795C1401.3 699.549 1383.26 721.138 1353.92 736.809C1324.6 752.471 1284.06 762.17 1239.26 762.17C1194.46 762.17 1153.93 752.471 1124.6 736.809C1095.26 721.138 1077.23 699.549 1077.23 675.795C1077.23 652.041 1095.26 630.453 1124.6 614.782C1153.93 599.119 1194.46 589.421 1239.26 589.421C1284.06 589.421 1324.6 599.119 1353.92 614.782C1383.26 630.453 1401.3 652.041 1401.3 675.795Z" stroke="white" stroke-width="0.716665"/>
<path opacity="0.4" d="M1327.48 675.795C1327.48 689.367 1317.69 701.727 1301.72 710.715C1285.75 719.696 1263.67 725.262 1239.26 725.262C1214.85 725.262 1192.77 719.696 1176.8 710.715C1160.82 701.727 1151.04 689.367 1151.04 675.795C1151.04 662.223 1160.82 649.863 1176.8 640.876C1192.77 631.894 1214.85 626.328 1239.26 626.328C1263.67 626.328 1285.75 631.894 1301.72 640.876C1317.69 649.863 1327.48 662.223 1327.48 675.795Z" stroke="white" stroke-width="0.716665"/>
</g>
</g>
</g>
<g style="mix-blend-mode:exclusion" filter="url(#filter1_b_6626_160862)">
<mask id="path-27-inside-1_6626_160862" fill="white">
<path d="M9 9.01514H1289V55.0151H9V9.01514Z"/>
</mask>
<path d="M9 9.01514H1289V55.0151H9V9.01514Z" fill="black" fill-opacity="0.9"/>
<path d="M1289 54.0151H9V56.0151H1289V54.0151Z" fill="black" fill-opacity="0.08" mask="url(#path-27-inside-1_6626_160862)"/>
<path d="M45.5625 36.5151V27.7879H49.3295C49.9773 27.7879 50.544 27.9058 51.0298 28.1416C51.5156 28.3774 51.8935 28.7168 52.1634 29.16C52.4332 29.6032 52.5682 30.1345 52.5682 30.7538C52.5682 31.3788 52.429 31.9058 52.1506 32.3347C51.875 32.7637 51.4872 33.0876 50.9872 33.3063C50.4901 33.5251 49.9091 33.6345 49.2443 33.6345H46.9943V31.7935H48.767C49.0455 31.7935 49.2827 31.7595 49.4787 31.6913C49.6776 31.6203 49.8295 31.508 49.9347 31.3546C50.0426 31.2012 50.0966 31.0009 50.0966 30.7538C50.0966 30.5038 50.0426 30.3006 49.9347 30.1444C49.8295 29.9853 49.6776 29.8688 49.4787 29.795C49.2827 29.7183 49.0455 29.6799 48.767 29.6799H47.9318V36.5151H45.5625ZM50.6761 32.5095L52.858 36.5151H50.2841L48.1534 32.5095H50.6761ZM53.5781 36.5151V27.7879H59.8679V29.697H55.9474V31.197H59.544V33.106H55.9474V34.606H59.8509V36.5151H53.5781ZM64.4009 36.5151H61.043V27.7879H64.3668C65.2646 27.7879 66.0401 27.9626 66.6935 28.312C67.3498 28.6586 67.8555 29.1586 68.2106 29.812C68.5685 30.4626 68.7475 31.2424 68.7475 32.1515C68.7475 33.0606 68.57 33.8418 68.2148 34.4953C67.8597 35.1458 67.3569 35.6458 66.7063 35.9953C66.0558 36.3418 65.2873 36.5151 64.4009 36.5151ZM63.4123 34.5038H64.3157C64.7475 34.5038 65.1154 34.4342 65.4194 34.295C65.7262 34.1558 65.9592 33.9157 66.1183 33.5748C66.2802 33.2339 66.3612 32.7595 66.3612 32.1515C66.3612 31.5435 66.2788 31.0691 66.114 30.7282C65.9521 30.3873 65.7134 30.1472 65.3981 30.008C65.0856 29.8688 64.7021 29.7992 64.2475 29.7992H63.4123V34.5038ZM77.2756 30.5151H76.4744C76.4148 30.2168 76.3068 29.9413 76.1506 29.6884C75.9972 29.4327 75.804 29.2097 75.571 29.0194C75.3381 28.8291 75.0739 28.6813 74.7784 28.5762C74.483 28.4711 74.1634 28.4185 73.8196 28.4185C73.2685 28.4185 72.7656 28.562 72.3111 28.8489C71.8594 29.1359 71.4972 29.5577 71.2244 30.1146C70.9545 30.6685 70.8196 31.3475 70.8196 32.1515C70.8196 32.9612 70.9545 33.643 71.2244 34.197C71.4972 34.7509 71.8594 35.1714 72.3111 35.4583C72.7656 35.7424 73.2685 35.8845 73.8196 35.8845C74.1634 35.8845 74.483 35.8319 74.7784 35.7268C75.0739 35.6217 75.3381 35.4754 75.571 35.2879C75.804 35.0975 75.9972 34.8745 76.1506 34.6188C76.3068 34.3631 76.4148 34.0862 76.4744 33.7879H77.2756C77.2045 34.1884 77.071 34.562 76.875 34.9086C76.6818 35.2524 76.4347 35.5535 76.1335 35.812C75.8352 36.0705 75.4915 36.2722 75.1023 36.4171C74.7131 36.562 74.2855 36.6345 73.8196 36.6345C73.0866 36.6345 72.4361 36.4512 71.8679 36.0847C71.2997 35.7154 70.8537 35.1955 70.5298 34.5251C70.2088 33.8546 70.0483 33.0634 70.0483 32.1515C70.0483 31.2396 70.2088 30.4484 70.5298 29.7779C70.8537 29.1075 71.2997 28.589 71.8679 28.2225C72.4361 27.8532 73.0866 27.6685 73.8196 27.6685C74.2855 27.6685 74.7131 27.741 75.1023 27.8859C75.4915 28.0279 75.8352 28.2296 76.1335 28.491C76.4347 28.7495 76.6818 29.0506 76.875 29.3944C77.071 29.7381 77.2045 30.1117 77.2756 30.5151ZM78.9982 36.5151V29.9697H79.761V36.5151H78.9982ZM79.386 28.8447C79.2298 28.8447 79.0962 28.7921 78.9854 28.687C78.8746 28.5791 78.8192 28.4498 78.8192 28.2992C78.8192 28.1487 78.8746 28.0208 78.9854 27.9157C79.0962 27.8077 79.2298 27.7538 79.386 27.7538C79.5423 27.7538 79.6758 27.8077 79.7866 27.9157C79.8974 28.0208 79.9528 28.1487 79.9528 28.2992C79.9528 28.4498 79.8974 28.5791 79.7866 28.687C79.6758 28.7921 79.5423 28.8447 79.386 28.8447ZM84.3452 29.9697V30.6302H81.2216V29.9697H84.3452ZM82.1974 28.4015H82.9602V34.8063C82.9602 35.0791 83.0071 35.2935 83.1009 35.4498C83.1946 35.6032 83.3168 35.7126 83.4673 35.7779C83.6179 35.8404 83.7784 35.8717 83.9489 35.8717C84.0483 35.8717 84.1335 35.866 84.2045 35.8546C84.2756 35.8404 84.3381 35.8262 84.392 35.812L84.554 36.4981C84.4801 36.5265 84.3892 36.5521 84.2812 36.5748C84.1733 36.6004 84.0398 36.6131 83.8807 36.6131C83.6023 36.6131 83.3338 36.5521 83.0753 36.4299C82.8196 36.3078 82.6094 36.1259 82.4446 35.8845C82.2798 35.643 82.1974 35.3433 82.1974 34.9853V28.4015ZM86.5962 38.9697C86.4457 38.9697 86.305 38.9555 86.1744 38.9271C86.0437 38.8987 85.94 38.8674 85.8633 38.8333L86.0678 38.1643C86.3263 38.2438 86.5565 38.2722 86.7582 38.2495C86.9599 38.2296 87.1388 38.1387 87.2951 37.9768C87.4513 37.8177 87.5906 37.5734 87.7127 37.2438L87.9513 36.5791L85.5437 29.9697H86.3661L88.3093 35.5137H88.369L90.3121 29.9697H91.1346L88.3647 37.5506C88.2482 37.866 88.1048 38.1288 87.9343 38.339C87.7638 38.5521 87.5664 38.7097 87.342 38.812C87.1204 38.9171 86.8718 38.9697 86.5962 38.9697ZM96.8672 33.8816C96.5376 33.8816 96.255 33.7666 96.0192 33.5364C95.7862 33.3035 95.6712 33.0208 95.674 32.6884C95.6712 32.3646 95.7862 32.0876 96.0192 31.8575C96.255 31.6274 96.5376 31.5123 96.8672 31.5123C97.1797 31.5123 97.4553 31.6274 97.6939 31.8575C97.9354 32.0876 98.0575 32.3646 98.0604 32.6884C98.0575 32.91 97.9993 33.1117 97.8857 33.2935C97.7749 33.4725 97.63 33.616 97.451 33.7239C97.272 33.8291 97.0774 33.8816 96.8672 33.8816Z" fill="white"/>
<path d="M106.822 27.0191H108.684L112.506 37.0151H110.756L109.846 34.5091H105.66L104.75 37.0151H103L106.822 27.0191ZM106.15 33.1651H109.356L107.788 28.7831H107.732L106.15 33.1651ZM113.482 27.0191H115.12V37.0151H113.482V27.0191ZM126.262 25.9551V34.9291H124.974V27.2991H122.888V34.9291H121.614V25.9551H126.262ZM123.35 28.1251H124.526V32.7171C124.484 34.2851 124.274 35.5451 123.882 36.4831C123.504 37.3511 122.888 38.0231 122.034 38.4991L121.292 37.3231C122.076 36.8611 122.608 36.2871 122.888 35.6011C123.168 34.8451 123.322 33.8931 123.35 32.7171V28.1251ZM125.03 35.3911C125.436 35.8531 125.8 36.3011 126.122 36.7491C126.332 36.7211 126.542 36.6791 126.738 36.6511V31.6391H127.886V36.4411C128.082 36.3991 128.264 36.3571 128.446 36.3291V30.3931H129.678V32.4371H130.532V33.6411H129.678V36.0351C130.112 35.9091 130.518 35.7831 130.91 35.6571V36.9311C129.538 37.4351 127.97 37.8271 126.22 38.1211L126.192 37.9391L125.688 38.4571C125.324 37.7711 124.806 37.0431 124.134 36.2591L125.03 35.3911ZM126.99 26.3191H129.972V27.6211H126.99V26.3191ZM126.598 28.6291H130.798C130.784 27.7051 130.784 26.6971 130.784 25.6191H132.086V26.2491L133.038 25.9131C133.374 26.5291 133.682 27.2011 133.934 27.9011L132.898 28.3771C132.646 27.6911 132.38 27.0751 132.086 26.5431C132.086 27.2851 132.086 27.9851 132.1 28.6291H134.046V29.9871H132.114C132.142 32.4511 132.226 34.0891 132.352 34.9291C132.52 35.9931 132.688 36.5811 132.884 36.6931C132.954 36.6651 133.01 36.1331 133.066 35.1251L134.186 35.8951C133.976 37.5611 133.57 38.4011 132.968 38.4011C132.604 38.4011 132.282 38.1631 131.988 37.6871C131.596 37.0431 131.316 36.1891 131.134 35.1251C130.966 34.1731 130.868 32.4651 130.826 29.9871H126.598V28.6291ZM137.518 33.7951V34.7051H140.262V33.7951H137.518ZM140.262 32.5911V31.6251H137.518V32.5911H140.262ZM137.518 35.9091V38.4991H136.104V30.3651H141.676V36.8611C141.676 37.8831 141.2 38.4011 140.248 38.4011H139.17L138.806 37.0431L139.786 37.1131C140.094 37.1131 140.262 36.9171 140.262 36.5531V35.9091H137.518ZM146.408 31.7651H144.126C143.104 31.7651 142.6 31.1911 142.6 30.0571V25.5771H144.042V27.1731C145.442 26.9491 146.59 26.7251 147.486 26.4871L147.962 27.7751C146.814 28.0271 145.512 28.2651 144.042 28.4891V29.7631C144.042 30.2111 144.196 30.4491 144.532 30.4491H146.128C146.324 30.4491 146.464 30.3791 146.562 30.2391C146.66 30.0851 146.73 29.6371 146.758 28.8811L148.116 29.3291C148.004 30.5051 147.822 31.2191 147.57 31.4431C147.318 31.6531 146.926 31.7651 146.408 31.7651ZM144.042 35.0131V36.6091C144.042 36.8471 144.196 36.9731 144.518 36.9731H146.128C146.324 36.9731 146.478 36.9031 146.562 36.7631C146.674 36.6091 146.744 36.1611 146.786 35.4051L148.116 35.8251C148.004 37.0151 147.808 37.7151 147.556 37.9391C147.304 38.1491 146.926 38.2611 146.408 38.2611H144.112C143.104 38.2611 142.6 37.8131 142.6 36.9311V32.2271H144.042V33.6971C145.33 33.5571 146.478 33.3331 147.486 33.0251L147.962 34.3271C146.744 34.6491 145.442 34.8731 144.042 35.0131ZM140.682 26.4871C141.494 27.5931 142.11 28.5451 142.558 29.3571L141.354 30.2111C141.214 29.9311 141.06 29.6371 140.906 29.3431C139.45 29.5671 137.714 29.7491 135.712 29.8611L135.32 28.6431C135.572 28.5591 135.796 28.4471 135.978 28.2791C136.818 27.2991 137.434 26.3611 137.854 25.4931L139.254 25.9131C138.694 27.0051 138.064 27.8871 137.35 28.5731C138.274 28.5171 139.254 28.4191 140.29 28.3071C140.066 27.9431 139.814 27.5791 139.562 27.2011L140.682 26.4871Z" fill="white"/>
<path d="M157.426 27.0191H158.434L162.438 37.0151H161.5L160.338 34.0331H155.522L154.36 37.0151H153.422L157.426 27.0191ZM155.802 33.3051H160.058L157.958 27.9431H157.916L155.802 33.3051ZM163.58 27.0191H164.434V37.0151H163.58V27.0191ZM171.26 27.0191H178.274V27.7751H172.114V31.4571H177.938V32.2271H172.114V36.2591H178.512V37.0151H171.26V27.0191ZM182.933 29.5811C184.081 29.5811 184.837 30.0711 185.201 31.0651C185.453 30.5751 185.775 30.2111 186.167 29.9591C186.531 29.7071 186.979 29.5811 187.483 29.5811C188.239 29.5811 188.855 29.8191 189.303 30.2951C189.737 30.7711 189.961 31.4291 189.961 32.2831V37.0151H189.121V32.3951C189.121 31.7091 188.981 31.1911 188.701 30.8551C188.393 30.4911 187.903 30.3091 187.259 30.3091C186.727 30.3091 186.293 30.5051 185.943 30.9111C185.579 31.3031 185.411 31.7931 185.411 32.4091V37.0151H184.557V32.3951C184.557 30.9951 183.955 30.3091 182.751 30.3091C182.205 30.3091 181.757 30.5191 181.393 30.9671C181.015 31.4011 180.833 31.9331 180.833 32.5631V37.0151H179.993V29.7771H180.833V30.8691C181.351 30.0011 182.051 29.5811 182.933 29.5811ZM195.07 29.5811C196.092 29.5811 196.904 29.9591 197.506 30.7431C198.038 31.4431 198.304 32.3251 198.304 33.4171C198.304 34.4811 198.038 35.3631 197.52 36.0631C196.932 36.8191 196.134 37.2111 195.098 37.2111C193.936 37.2111 193.096 36.6371 192.564 35.5031V39.7871H191.724V29.7771H192.522V31.2051C193.054 30.1131 193.894 29.5811 195.07 29.5811ZM194.972 30.2951C194.188 30.2951 193.572 30.6031 193.138 31.2191C192.732 31.7651 192.536 32.4791 192.536 33.3611V33.5151C192.536 34.3831 192.746 35.0971 193.18 35.6571C193.614 36.2171 194.202 36.4971 194.944 36.4971C195.77 36.4971 196.4 36.1891 196.848 35.6011C197.24 35.0551 197.436 34.3271 197.436 33.4171C197.436 32.5071 197.24 31.7791 196.862 31.2331C196.414 30.6031 195.784 30.2951 194.972 30.2951ZM202.954 29.5811C204.018 29.5811 204.872 29.9591 205.516 30.7291C206.104 31.4431 206.398 32.3391 206.398 33.4031C206.398 34.4671 206.104 35.3491 205.516 36.0631C204.872 36.8191 204.018 37.2111 202.954 37.2111C201.89 37.2111 201.036 36.8191 200.392 36.0631C199.804 35.3491 199.51 34.4671 199.51 33.4031C199.51 32.3391 199.804 31.4431 200.406 30.7291C201.036 29.9591 201.89 29.5811 202.954 29.5811ZM202.954 30.3091C202.128 30.3091 201.484 30.6171 201.008 31.2611C200.574 31.8211 200.364 32.5351 200.364 33.4031C200.364 34.2571 200.574 34.9711 201.008 35.5311C201.484 36.1611 202.128 36.4831 202.954 36.4831C203.78 36.4831 204.438 36.1611 204.914 35.5311C205.334 34.9571 205.558 34.2431 205.558 33.4031C205.558 32.5351 205.334 31.8211 204.914 31.2611C204.438 30.6171 203.78 30.3091 202.954 30.3091ZM207.072 29.7771H208.01L209.97 35.9371L211.79 29.7771H212.602L214.422 35.9371L216.396 29.7771H217.32L214.842 37.0151H214.03L212.21 30.8691L210.362 37.0151H209.564L207.072 29.7771ZM221.201 29.5811C222.349 29.5811 223.203 29.9591 223.777 30.7431C224.281 31.4291 224.561 32.3951 224.603 33.6411H218.723C218.765 34.5231 219.003 35.2231 219.437 35.7271C219.885 36.2311 220.473 36.4831 221.229 36.4831C221.887 36.4831 222.419 36.3011 222.825 35.9651C223.161 35.6711 223.413 35.2511 223.595 34.6911H224.449C224.281 35.3911 223.959 35.9651 223.483 36.4131C222.895 36.9451 222.153 37.2111 221.229 37.2111C220.207 37.2111 219.395 36.8611 218.793 36.1751C218.163 35.4751 217.855 34.5371 217.855 33.3891C217.855 32.3251 218.149 31.4431 218.751 30.7151C219.367 29.9591 220.179 29.5811 221.201 29.5811ZM221.215 30.3091C220.501 30.3091 219.927 30.5471 219.493 31.0511C219.059 31.5411 218.807 32.1711 218.737 32.9551H223.721C223.581 31.1911 222.741 30.3091 221.215 30.3091ZM228.983 29.5811C229.403 29.5811 229.753 29.6231 230.033 29.7351V30.5891C229.655 30.4771 229.291 30.4351 228.927 30.4351C228.283 30.4351 227.751 30.7151 227.359 31.3031C226.967 31.8351 226.785 32.4651 226.785 33.1931V37.0151H225.945V29.7771H226.785V31.1631C226.981 30.7151 227.247 30.3511 227.583 30.0851C227.975 29.7491 228.451 29.5811 228.983 29.5811ZM233.929 29.5811C235.077 29.5811 235.833 30.0711 236.197 31.0651C236.449 30.5751 236.771 30.2111 237.163 29.9591C237.527 29.7071 237.975 29.5811 238.479 29.5811C239.235 29.5811 239.851 29.8191 240.299 30.2951C240.733 30.7711 240.957 31.4291 240.957 32.2831V37.0151H240.117V32.3951C240.117 31.7091 239.977 31.1911 239.697 30.8551C239.389 30.4911 238.899 30.3091 238.255 30.3091C237.723 30.3091 237.289 30.5051 236.939 30.9111C236.575 31.3031 236.407 31.7931 236.407 32.4091V37.0151H235.553V32.3951C235.553 30.9951 234.951 30.3091 233.747 30.3091C233.201 30.3091 232.753 30.5191 232.389 30.9671C232.011 31.4011 231.829 31.9331 231.829 32.5631V37.0151H230.989V29.7771H231.829V30.8691C232.347 30.0011 233.047 29.5811 233.929 29.5811ZM245.646 29.5811C246.794 29.5811 247.648 29.9591 248.222 30.7431C248.726 31.4291 249.006 32.3951 249.048 33.6411H243.168C243.21 34.5231 243.448 35.2231 243.882 35.7271C244.33 36.2311 244.918 36.4831 245.674 36.4831C246.332 36.4831 246.864 36.3011 247.27 35.9651C247.606 35.6711 247.858 35.2511 248.04 34.6911H248.894C248.726 35.3911 248.404 35.9651 247.928 36.4131C247.34 36.9451 246.598 37.2111 245.674 37.2111C244.652 37.2111 243.84 36.8611 243.238 36.1751C242.608 35.4751 242.3 34.5371 242.3 33.3891C242.3 32.3251 242.594 31.4431 243.196 30.7151C243.812 29.9591 244.624 29.5811 245.646 29.5811ZM245.66 30.3091C244.946 30.3091 244.372 30.5471 243.938 31.0511C243.504 31.5411 243.252 32.1711 243.182 32.9551H248.166C248.026 31.1911 247.186 30.3091 245.66 30.3091ZM253.582 29.5811C255.374 29.5811 256.27 30.5751 256.27 32.5631V37.0151H255.43V32.6191C255.43 31.0791 254.744 30.3091 253.372 30.3091C252.784 30.3091 252.308 30.5191 251.916 30.9391C251.496 31.3591 251.272 31.9331 251.23 32.6471V37.0151H250.39V29.7771H251.23V30.9671C251.482 30.5331 251.804 30.1971 252.21 29.9451C252.616 29.6931 253.078 29.5811 253.582 29.5811ZM259.782 27.4391V29.7771H261.672V30.5051H259.782V35.4051C259.782 35.7131 259.838 35.9511 259.95 36.0911C260.062 36.2171 260.272 36.2871 260.58 36.2871H261.49V37.0151H260.468C259.908 37.0151 259.502 36.8611 259.264 36.5811C259.04 36.3291 258.942 35.9371 258.942 35.4051V30.5051H257.402V29.7771H258.942V27.7891L259.782 27.4391Z" fill="#B1B0B0"/>
<path d="M1094.65 36.5151L1096.08 27.7879H1096.94L1095.5 36.5151H1094.65ZM1090.68 34.0947L1090.82 33.2424H1097.33L1097.19 34.0947H1090.68ZM1091.58 36.5151L1093.02 27.7879H1093.87L1092.44 36.5151H1091.58ZM1091.19 31.0606L1091.33 30.2083H1097.84L1097.7 31.0606H1091.19ZM1101.73 27.7879H1102.94L1105.36 31.8617H1105.46L1107.88 27.7879H1109.09L1105.94 32.9185V36.5151H1104.88V32.9185L1101.73 27.7879ZM1110.82 27.7879L1113.41 35.1345H1113.51L1116.1 27.7879H1117.21L1114 36.5151H1112.91L1109.71 27.7879H1110.82ZM1118.57 36.5151V27.7879H1123.84V28.7254H1119.63V31.6742H1123.56V32.6117H1119.63V35.5776H1123.9V36.5151H1118.57ZM1130.51 29.9697C1130.46 29.5379 1130.25 29.2026 1129.89 28.964C1129.53 28.7254 1129.08 28.606 1128.55 28.606C1128.17 28.606 1127.83 28.6685 1127.54 28.7935C1127.25 28.9185 1127.03 29.0904 1126.87 29.3092C1126.71 29.5279 1126.63 29.7765 1126.63 30.0549C1126.63 30.2879 1126.68 30.4881 1126.79 30.6558C1126.91 30.8205 1127.05 30.9583 1127.23 31.0691C1127.4 31.1771 1127.59 31.2666 1127.78 31.3376C1127.97 31.4058 1128.15 31.4612 1128.31 31.5038L1129.2 31.7424C1129.43 31.8021 1129.68 31.8845 1129.96 31.9896C1130.24 32.0947 1130.51 32.2381 1130.76 32.42C1131.02 32.5989 1131.24 32.8291 1131.4 33.1103C1131.57 33.3916 1131.66 33.7367 1131.66 34.1458C1131.66 34.6174 1131.53 35.0435 1131.28 35.4242C1131.04 35.8049 1130.68 36.1075 1130.21 36.3319C1129.74 36.5563 1129.17 36.6685 1128.5 36.6685C1127.88 36.6685 1127.34 36.5677 1126.88 36.366C1126.42 36.1643 1126.07 35.883 1125.8 35.5222C1125.55 35.1614 1125.4 34.7424 1125.37 34.2651H1126.46C1126.48 34.5947 1126.6 34.8674 1126.79 35.0833C1126.98 35.2964 1127.23 35.4555 1127.53 35.5606C1127.83 35.6629 1128.16 35.714 1128.5 35.714C1128.91 35.714 1129.27 35.6487 1129.59 35.518C1129.91 35.3845 1130.16 35.1998 1130.35 34.964C1130.54 34.7254 1130.63 34.447 1130.63 34.1288C1130.63 33.839 1130.55 33.6032 1130.39 33.4214C1130.23 33.2396 1130.01 33.0918 1129.75 32.9782C1129.49 32.8646 1129.2 32.7651 1128.89 32.6799L1127.82 32.3731C1127.14 32.1771 1126.6 31.8972 1126.2 31.5336C1125.8 31.17 1125.6 30.6941 1125.6 30.106C1125.6 29.6174 1125.74 29.1913 1126 28.8276C1126.27 28.4612 1126.63 28.1771 1127.07 27.9754C1127.53 27.7708 1128.03 27.6685 1128.59 27.6685C1129.15 27.6685 1129.65 27.7694 1130.09 27.9711C1130.52 28.17 1130.87 28.4427 1131.13 28.7893C1131.39 29.1359 1131.52 29.5293 1131.54 29.9697H1130.51ZM1139.46 36.5151H1136.77V27.7879H1139.58C1140.43 27.7879 1141.15 27.9626 1141.75 28.312C1142.36 28.6586 1142.82 29.1572 1143.14 29.8078C1143.46 30.4555 1143.62 31.231 1143.62 32.1345C1143.62 33.0435 1143.46 33.8262 1143.13 34.4825C1142.81 35.1359 1142.34 35.6387 1141.72 35.991C1141.1 36.3404 1140.35 36.5151 1139.46 36.5151ZM1137.82 35.5776H1139.39C1140.11 35.5776 1140.71 35.4384 1141.19 35.16C1141.66 34.8816 1142.01 34.4853 1142.25 33.9711C1142.48 33.4569 1142.6 32.8447 1142.6 32.1345C1142.6 31.4299 1142.48 30.8234 1142.25 30.3149C1142.02 29.8035 1141.68 29.4114 1141.22 29.1387C1140.76 28.8631 1140.19 28.7254 1139.51 28.7254H1137.82V35.5776ZM1145.39 36.5151V27.7879H1150.66V28.7254H1146.45V31.6742H1150.39V32.6117H1146.45V35.5776H1150.73V36.5151H1145.39ZM1157.34 29.9697C1157.29 29.5379 1157.08 29.2026 1156.72 28.964C1156.35 28.7254 1155.91 28.606 1155.38 28.606C1154.99 28.606 1154.65 28.6685 1154.36 28.7935C1154.08 28.9185 1153.85 29.0904 1153.69 29.3092C1153.53 29.5279 1153.45 29.7765 1153.45 30.0549C1153.45 30.2879 1153.51 30.4881 1153.62 30.6558C1153.73 30.8205 1153.88 30.9583 1154.05 31.0691C1154.23 31.1771 1154.41 31.2666 1154.61 31.3376C1154.8 31.4058 1154.98 31.4612 1155.14 31.5038L1156.02 31.7424C1156.25 31.8021 1156.5 31.8845 1156.78 31.9896C1157.06 32.0947 1157.33 32.2381 1157.59 32.42C1157.85 32.5989 1158.06 32.8291 1158.23 33.1103C1158.4 33.3916 1158.48 33.7367 1158.48 34.1458C1158.48 34.6174 1158.36 35.0435 1158.11 35.4242C1157.86 35.8049 1157.51 36.1075 1157.03 36.3319C1156.57 36.5563 1156 36.6685 1155.33 36.6685C1154.7 36.6685 1154.16 36.5677 1153.7 36.366C1153.25 36.1643 1152.89 35.883 1152.63 35.5222C1152.37 35.1614 1152.22 34.7424 1152.19 34.2651H1153.28C1153.31 34.5947 1153.42 34.8674 1153.61 35.0833C1153.81 35.2964 1154.06 35.4555 1154.35 35.5606C1154.66 35.6629 1154.98 35.714 1155.33 35.714C1155.73 35.714 1156.09 35.6487 1156.41 35.518C1156.73 35.3845 1156.99 35.1998 1157.18 34.964C1157.36 34.7254 1157.46 34.447 1157.46 34.1288C1157.46 33.839 1157.38 33.6032 1157.21 33.4214C1157.05 33.2396 1156.84 33.0918 1156.57 32.9782C1156.31 32.8646 1156.02 32.7651 1155.72 32.6799L1154.64 32.3731C1153.96 32.1771 1153.42 31.8972 1153.02 31.5336C1152.63 31.17 1152.43 30.6941 1152.43 30.106C1152.43 29.6174 1152.56 29.1913 1152.82 28.8276C1153.09 28.4612 1153.45 28.1771 1153.9 27.9754C1154.35 27.7708 1154.85 27.6685 1155.41 27.6685C1155.97 27.6685 1156.47 27.7694 1156.91 27.9711C1157.35 28.17 1157.7 28.4427 1157.95 28.7893C1158.21 29.1359 1158.35 29.5293 1158.36 29.9697H1157.34ZM1160.08 36.5151V29.9697H1161.09V36.5151H1160.08ZM1160.59 28.8788C1160.4 28.8788 1160.23 28.812 1160.08 28.6785C1159.95 28.545 1159.88 28.3845 1159.88 28.197C1159.88 28.0095 1159.95 27.8489 1160.08 27.7154C1160.23 27.5819 1160.4 27.5151 1160.59 27.5151C1160.79 27.5151 1160.96 27.5819 1161.09 27.7154C1161.24 27.8489 1161.31 28.0095 1161.31 28.197C1161.31 28.3845 1161.24 28.545 1161.09 28.6785C1160.96 28.812 1160.79 28.8788 1160.59 28.8788ZM1169.03 30.5151C1168.94 30.2282 1168.81 29.9711 1168.66 29.7438C1168.51 29.5137 1168.33 29.3177 1168.12 29.1558C1167.91 28.9938 1167.68 28.8702 1167.41 28.785C1167.15 28.6998 1166.86 28.6572 1166.54 28.6572C1166.02 28.6572 1165.55 28.7907 1165.13 29.0578C1164.71 29.3248 1164.37 29.7183 1164.12 30.2381C1163.87 30.758 1163.75 31.3958 1163.75 32.1515C1163.75 32.9072 1163.87 33.545 1164.13 34.0649C1164.38 34.5847 1164.72 34.9782 1165.15 35.2453C1165.58 35.5123 1166.07 35.6458 1166.61 35.6458C1167.11 35.6458 1167.55 35.5393 1167.93 35.3262C1168.31 35.1103 1168.61 34.8063 1168.83 34.4143C1169.04 34.0194 1169.15 33.5549 1169.15 33.0208L1169.47 33.089H1166.85V32.1515H1170.17V33.089C1170.17 33.8078 1170.02 34.4328 1169.71 34.964C1169.41 35.4953 1168.99 35.9072 1168.45 36.1998C1167.92 36.4896 1167.3 36.6345 1166.61 36.6345C1165.84 36.6345 1165.16 36.4526 1164.57 36.089C1163.99 35.7254 1163.54 35.2083 1163.21 34.5379C1162.89 33.8674 1162.72 33.072 1162.72 32.1515C1162.72 31.4612 1162.82 30.8404 1163 30.2893C1163.19 29.7353 1163.45 29.2637 1163.79 28.8745C1164.13 28.4853 1164.54 28.187 1165 27.9796C1165.47 27.7722 1165.98 27.6685 1166.54 27.6685C1167 27.6685 1167.43 27.7381 1167.83 27.8774C1168.23 28.0137 1168.59 28.2083 1168.9 28.4612C1169.21 28.7112 1169.48 29.0109 1169.69 29.3603C1169.9 29.7069 1170.04 30.0918 1170.12 30.5151H1169.03ZM1178.9 27.7879V36.5151H1177.88L1173.12 29.6629H1173.04V36.5151H1171.98V27.7879H1173.01L1177.78 34.6572H1177.86V27.7879H1178.9ZM1184.24 36.5151V35.7481L1187.12 32.5947C1187.46 32.2254 1187.74 31.9043 1187.96 31.6316C1188.17 31.356 1188.34 31.0975 1188.44 30.856C1188.55 30.6117 1188.6 30.356 1188.6 30.089C1188.6 29.7822 1188.53 29.5166 1188.38 29.2921C1188.24 29.0677 1188.04 28.8944 1187.78 28.7722C1187.53 28.6501 1187.25 28.589 1186.93 28.589C1186.6 28.589 1186.3 28.6586 1186.05 28.7978C1185.81 28.9342 1185.62 29.1259 1185.48 29.3731C1185.35 29.6203 1185.28 29.91 1185.28 30.2424H1184.27C1184.27 29.731 1184.39 29.2822 1184.63 28.8958C1184.86 28.5095 1185.18 28.2083 1185.59 27.9924C1186 27.7765 1186.46 27.6685 1186.97 27.6685C1187.48 27.6685 1187.93 27.7765 1188.33 27.9924C1188.72 28.2083 1189.03 28.4995 1189.25 28.866C1189.48 29.2325 1189.59 29.6401 1189.59 30.089C1189.59 30.41 1189.53 30.7239 1189.42 31.0308C1189.3 31.3347 1189.1 31.6742 1188.82 32.0492C1188.54 32.4214 1188.15 32.8759 1187.65 33.4129L1185.69 35.5095V35.5776H1189.75V36.5151H1184.24ZM1194.35 36.6345C1193.71 36.6345 1193.16 36.4597 1192.71 36.1103C1192.26 35.758 1191.91 35.2481 1191.68 34.5805C1191.44 33.91 1191.32 33.1004 1191.32 32.1515C1191.32 31.2083 1191.44 30.4029 1191.68 29.7353C1191.92 29.0649 1192.26 28.5535 1192.72 28.2012C1193.17 27.8461 1193.72 27.6685 1194.35 27.6685C1194.99 27.6685 1195.53 27.8461 1195.98 28.2012C1196.44 28.5535 1196.78 29.0649 1197.02 29.7353C1197.26 30.4029 1197.39 31.2083 1197.39 32.1515C1197.39 33.1004 1197.27 33.91 1197.03 34.5805C1196.79 35.2481 1196.44 35.758 1195.99 36.1103C1195.54 36.4597 1194.99 36.6345 1194.35 36.6345ZM1194.35 35.697C1194.99 35.697 1195.48 35.3901 1195.83 34.7765C1196.19 34.1629 1196.36 33.2879 1196.36 32.1515C1196.36 31.3958 1196.28 30.7524 1196.12 30.2211C1195.96 29.6899 1195.73 29.285 1195.43 29.0066C1195.13 28.7282 1194.77 28.589 1194.35 28.589C1193.72 28.589 1193.23 28.9001 1192.87 29.5222C1192.52 30.1416 1192.34 31.018 1192.34 32.1515C1192.34 32.9072 1192.42 33.5492 1192.58 34.0776C1192.74 34.606 1192.97 35.008 1193.26 35.2836C1193.57 35.5592 1193.93 35.697 1194.35 35.697ZM1199 36.5151V35.7481L1201.89 32.5947C1202.22 32.2254 1202.5 31.9043 1202.72 31.6316C1202.94 31.356 1203.1 31.0975 1203.21 30.856C1203.31 30.6117 1203.37 30.356 1203.37 30.089C1203.37 29.7822 1203.29 29.5166 1203.15 29.2921C1203 29.0677 1202.8 28.8944 1202.55 28.7722C1202.3 28.6501 1202.01 28.589 1201.7 28.589C1201.36 28.589 1201.07 28.6586 1200.82 28.7978C1200.57 28.9342 1200.38 29.1259 1200.25 29.3731C1200.11 29.6203 1200.04 29.91 1200.04 30.2424H1199.04C1199.04 29.731 1199.16 29.2822 1199.39 28.8958C1199.63 28.5095 1199.95 28.2083 1200.36 27.9924C1200.76 27.7765 1201.22 27.6685 1201.73 27.6685C1202.24 27.6685 1202.7 27.7765 1203.09 27.9924C1203.49 28.2083 1203.8 28.4995 1204.02 28.866C1204.25 29.2325 1204.36 29.6401 1204.36 30.089C1204.36 30.41 1204.3 30.7239 1204.18 31.0308C1204.07 31.3347 1203.87 31.6742 1203.59 32.0492C1203.3 32.4214 1202.91 32.8759 1202.41 33.4129L1200.45 35.5095V35.5776H1204.51V36.5151H1199ZM1205.88 34.7254V33.856L1209.71 27.7879H1210.34V29.1345H1209.92L1207.02 33.7197V33.7879H1212.19V34.7254H1205.88ZM1209.99 36.5151V34.4612V34.0563V27.7879H1210.99V36.5151H1209.99Z" fill="white"/>
<path d="M1223 32.015C1223 28.3392 1225.98 25.3594 1229.67 25.3594H1246.33C1250.02 25.3594 1253 28.3392 1253 32.015C1253 35.6908 1250.02 38.6706 1246.33 38.6706H1229.67C1225.98 38.6706 1223 35.6908 1223 32.015Z" fill="black"/>
<path fill-rule="evenodd" clip-rule="evenodd" d="M1246.25 30.3683C1246.25 30.3766 1246.26 30.3817 1246.27 30.3824C1246.28 30.3833 1246.29 30.3836 1246.31 30.3836C1246.4 30.3837 1246.5 30.3837 1246.6 30.3837C1246.69 30.3837 1246.78 30.3834 1246.87 30.3838C1246.92 30.384 1246.96 30.3787 1247 30.369C1247.34 30.2944 1247.55 29.9664 1247.48 29.6291C1247.41 29.3291 1247.13 29.1048 1246.79 29.1494C1246.48 29.1905 1246.25 29.4504 1246.25 29.7655C1246.25 29.9553 1246.25 30.1452 1246.25 30.335C1246.25 30.346 1246.25 30.3572 1246.25 30.3683ZM1237.3 34.1004C1237.15 34.101 1236.25 34.1034 1235.99 34.102C1235.8 34.1009 1235.59 34.0676 1235.4 34.0049C1235.39 34.0017 1235.38 34.0062 1235.37 34.0154L1234.82 35.2177C1234.81 35.227 1234.82 35.238 1234.83 35.2429C1234.91 35.2894 1235.09 35.3391 1235.21 35.3391C1235.3 35.3385 1235.3 35.342 1235.39 35.3419C1235.75 35.3413 1236.65 35.3393 1236.75 35.3391C1236.76 35.3391 1236.77 35.3345 1236.77 35.3275L1237.32 34.1279C1237.33 34.115 1237.32 34.1004 1237.3 34.1004ZM1230.36 30.3918C1230.34 30.3914 1230.33 30.3917 1230.32 30.3917C1229.95 30.3917 1229.58 30.3916 1229.2 30.3918C1229.19 30.3918 1229.17 30.3916 1229.15 30.3937C1229.15 30.3947 1229.15 30.3977 1229.14 30.3996C1229.14 30.4038 1229.14 30.4395 1229.14 30.4615C1229.13 30.5858 1229.12 30.7101 1229.11 30.8343C1229.1 30.9475 1229.09 31.0605 1229.08 31.1736C1229.07 31.2923 1229.06 31.411 1229.06 31.5297C1229.05 31.6521 1229.04 31.7745 1229.03 31.8969C1229.02 32.0211 1229.01 32.1454 1229 32.2697C1228.99 32.3846 1228.98 32.4996 1228.97 32.6146C1228.97 32.6888 1228.96 32.7629 1228.96 32.8372C1228.95 33.0234 1228.93 33.1389 1228.85 33.3081C1228.83 33.3521 1228.82 33.3405 1228.85 33.3954C1228.89 33.4665 1229.38 34.5768 1229.46 34.745C1229.47 34.7572 1229.47 34.7608 1229.48 34.7608C1229.48 34.7608 1229.5 34.7413 1229.51 34.7271C1229.63 34.5816 1229.72 34.4234 1229.8 34.257C1229.92 34.0148 1230.01 33.7617 1230.07 33.5016C1230.12 33.314 1230.16 33.1242 1230.18 32.9321C1230.19 32.8472 1230.2 32.7618 1230.2 32.6765C1230.22 32.4744 1230.24 32.2723 1230.25 32.0701C1230.27 31.8921 1230.28 31.7142 1230.29 31.5362C1230.3 31.4064 1230.31 31.2765 1230.32 31.1467C1230.34 30.9798 1230.35 30.813 1230.36 30.6461C1230.37 30.5701 1230.37 30.4941 1230.38 30.4181C1230.38 30.3962 1230.38 30.3928 1230.36 30.3918ZM1234.8 33.3082C1234.73 33.139 1234.71 33.0236 1234.7 32.8373C1234.69 32.763 1234.69 32.6889 1234.68 32.6148C1234.67 32.4997 1234.66 32.3848 1234.65 32.2699C1234.65 32.1456 1234.64 32.0213 1234.63 31.8971C1234.62 31.7746 1234.61 31.6523 1234.6 31.5299C1234.59 31.4112 1234.58 31.2925 1234.57 31.1738C1234.56 31.0607 1234.55 30.9477 1234.54 30.8345C1234.53 30.7103 1234.53 30.586 1234.52 30.4617C1234.51 30.4397 1234.51 30.4076 1234.51 30.3981C1234.51 30.3896 1234.47 30.392 1234.45 30.392C1234.08 30.3918 1233.7 30.3918 1233.33 30.3918C1233.32 30.3918 1233.31 30.3916 1233.3 30.392C1233.28 30.3929 1233.27 30.3964 1233.27 30.4182C1233.28 30.4943 1233.29 30.5703 1233.29 30.6463C1233.3 30.8132 1233.32 30.98 1233.33 31.1469C1233.34 31.2767 1233.35 31.4066 1233.36 31.5364C1233.37 31.7144 1233.39 31.8923 1233.4 32.0703C1233.42 32.2724 1233.43 32.4746 1233.45 32.6767C1233.46 32.762 1233.46 32.8474 1233.47 32.9323C1233.5 33.1244 1233.53 33.3142 1233.58 33.5018C1233.65 33.7619 1233.73 34.015 1233.85 34.2572C1233.93 34.4236 1234.03 34.5818 1234.14 34.7273C1234.15 34.7415 1234.17 34.767 1234.18 34.7653C1234.18 34.7644 1234.18 34.7595 1234.19 34.7506C1234.26 34.6025 1234.76 33.4675 1234.8 33.3956C1234.83 33.3407 1234.82 33.3523 1234.8 33.3082ZM1237.81 32.5993H1237.13C1237.06 32.5993 1237.01 32.5263 1237.04 32.4615L1237.95 30.4239C1237.96 30.411 1237.95 30.3964 1237.94 30.3964L1236.91 30.3943C1236.83 30.3941 1236.77 30.3081 1236.81 30.232L1237.49 28.7148C1237.49 28.7018 1237.48 28.6872 1237.47 28.6872C1237.31 28.6872 1236.59 28.6871 1236.26 28.6874C1236.25 28.6874 1236.24 28.6919 1236.24 28.6989L1235.52 30.3042C1235.44 30.4506 1235.37 30.5984 1235.31 30.7492C1235.27 30.8419 1235.24 30.9353 1235.21 31.0321C1235.19 31.081 1235.19 31.13 1235.19 31.1808C1235.2 31.3086 1235.26 31.4066 1235.37 31.4737C1235.4 31.4931 1235.44 31.509 1235.47 31.5212C1235.55 31.5501 1235.64 31.566 1235.73 31.566C1235.91 31.5659 1236 31.5659 1236.19 31.566C1236.21 31.5661 1235.73 32.5989 1235.65 32.7994C1235.61 32.8968 1235.57 32.9951 1235.54 33.0971C1235.53 33.1406 1235.52 33.1857 1235.52 33.2308C1235.53 33.3666 1235.59 33.4699 1235.7 33.5394C1235.73 33.5599 1235.77 33.5763 1235.81 33.5889C1235.89 33.6181 1235.98 33.6323 1236.07 33.6322C1236.45 33.6318 1236.94 33.632 1237.32 33.632C1237.33 33.632 1237.35 33.6317 1237.36 33.6318C1237.37 33.6318 1237.37 33.6273 1237.38 33.6202L1237.82 32.6269C1237.83 32.6139 1237.82 32.5993 1237.81 32.5993ZM1232.42 28.7682L1231.24 28.7688C1231.23 28.7688 1231.22 28.7798 1231.22 28.7937C1231.22 29.0888 1231.21 31.9357 1231.21 33.3724V34.0949C1231.21 34.3177 1231 34.2978 1230.99 34.2978H1230.46C1230.44 34.2978 1230.43 34.2976 1230.42 34.2979C1230.39 34.2988 1230.38 34.3008 1230.39 34.3346C1230.39 34.363 1230.75 35.1599 1230.82 35.3144C1230.82 35.3303 1230.84 35.3404 1230.86 35.3406C1230.98 35.3422 1231.45 35.3471 1231.59 35.3298C1231.71 35.3143 1231.82 35.2829 1231.93 35.2271C1232.16 35.1057 1232.31 34.9018 1232.39 34.6335C1232.43 34.4994 1232.45 34.3594 1232.45 34.2194C1232.45 33.3301 1232.45 32.4408 1232.45 31.5514C1232.45 30.7015 1232.44 29.0172 1232.44 28.7931C1232.44 28.7792 1232.43 28.7682 1232.42 28.7682ZM1241.58 34.1215C1241.58 34.1103 1241.57 34.1049 1241.56 34.1044C1241.55 34.1038 1241.53 34.1039 1241.51 34.1039H1240.46C1240.45 34.1039 1240.44 34.1041 1240.42 34.1039C1240.38 34.1031 1240.38 34.103 1240.38 34.0665C1240.38 34.0553 1240.38 34.0441 1240.38 34.033V30.4491C1240.38 30.3931 1240.38 30.3942 1240.44 30.3945C1240.45 30.3947 1240.88 30.3945 1241.11 30.3946C1241.17 30.3946 1241.17 30.3983 1241.17 30.3377C1241.17 29.9638 1241.17 29.5897 1241.17 29.2157C1241.17 29.1518 1241.17 29.1569 1241.11 29.1569C1240.19 29.1569 1239.3 29.1569 1238.38 29.1569C1238.33 29.1569 1238.33 29.1519 1238.33 29.2134C1238.33 29.5874 1238.33 29.9614 1238.33 30.3355C1238.33 30.3992 1238.32 30.3946 1238.39 30.3946C1238.62 30.3946 1238.82 30.3945 1239.05 30.3946C1239.11 30.3946 1239.11 30.3918 1239.11 30.4491V30.4602C1239.11 31.653 1239.11 32.8458 1239.11 34.0385C1239.11 34.1118 1239.11 34.1038 1239.04 34.1038C1238.75 34.104 1238.18 34.1018 1238.03 34.1041C1237.99 34.1046 1237.98 34.1273 1237.98 34.1273L1237.44 35.3057C1237.44 35.3057 1237.43 35.3255 1237.43 35.3337C1237.44 35.3418 1237.44 35.3401 1237.48 35.3402C1237.68 35.3405 1238.37 35.3417 1238.79 35.3417H1241.5C1241.52 35.3417 1241.54 35.342 1241.55 35.3415C1241.58 35.3406 1241.58 35.3369 1241.58 35.316C1241.58 35.3067 1241.58 35.2974 1241.58 35.2881C1241.58 34.9104 1241.58 34.5326 1241.58 34.1549C1241.58 34.1437 1241.58 34.1326 1241.58 34.1215ZM1244.83 31.4582C1244.83 31.4684 1244.82 31.4758 1244.81 31.4769C1244.8 31.4779 1244.79 31.4785 1244.78 31.4785C1244.6 31.4786 1244.21 31.4803 1244.03 31.4802C1244.02 31.4802 1244.01 31.4799 1244.01 31.4792C1243.99 31.4784 1243.99 31.4718 1243.99 31.4614C1243.99 31.4466 1243.99 31.4317 1243.99 31.4169L1243.98 30.4496C1243.98 30.3939 1243.98 30.3948 1244.03 30.3949C1244.16 30.3952 1244.48 30.3933 1244.6 30.3933C1244.64 30.3934 1244.67 30.3949 1244.7 30.4049C1244.78 30.4301 1244.82 30.4837 1244.83 30.5634C1244.83 30.5764 1244.83 30.5894 1244.83 30.6024C1244.83 30.857 1244.83 31.1702 1244.83 31.4247C1244.83 31.4359 1244.83 31.4471 1244.83 31.4582ZM1247.47 32.4237C1247.4 32.0771 1247.22 31.8151 1246.9 31.6482C1246.69 31.534 1246.46 31.4816 1246.22 31.4756C1246.17 31.4745 1246.12 31.4758 1246.08 31.4752C1246.05 31.4748 1246.05 31.4733 1246.04 31.4439C1246.04 31.4346 1246.04 31.4253 1246.04 31.416C1246.04 31.1722 1246.04 30.8697 1246.04 30.626C1246.04 30.5235 1246.04 30.4214 1246.02 30.3198C1246.01 30.1771 1245.97 30.0395 1245.91 29.9088C1245.79 29.6663 1245.61 29.4839 1245.38 29.3571C1245.14 29.2264 1244.88 29.1628 1244.6 29.157C1244.48 29.1545 1244.16 29.1577 1244.04 29.1575C1243.99 29.1575 1243.99 29.1602 1243.99 29.1069C1243.99 29.0175 1243.99 28.8318 1243.99 28.7243C1243.99 28.7131 1243.99 28.7052 1243.98 28.6986C1243.97 28.6924 1243.95 28.6935 1243.95 28.6935L1242.77 28.6939C1242.77 28.6939 1242.76 28.6933 1242.76 28.699C1242.75 28.7041 1242.75 28.7087 1242.75 28.717C1242.75 28.8198 1242.75 29.0083 1242.75 29.0961C1242.75 29.111 1242.75 29.1259 1242.75 29.1407C1242.75 29.1516 1242.74 29.157 1242.73 29.1574C1242.71 29.1579 1242.7 29.158 1242.68 29.158C1242.45 29.158 1242.22 29.158 1241.99 29.158C1241.98 29.158 1241.96 29.1577 1241.95 29.1583C1241.93 29.1591 1241.93 29.1641 1241.92 29.1827C1241.92 29.1956 1241.92 29.2087 1241.92 29.2217C1241.92 29.5921 1241.92 29.9623 1241.92 30.3326C1241.92 30.4025 1241.92 30.3956 1241.99 30.3956C1242.22 30.3958 1242.46 30.3956 1242.7 30.3957C1242.76 30.3957 1242.75 30.4949 1242.75 30.4949L1242.75 31.386C1242.75 31.386 1242.76 31.477 1242.71 31.477C1242.69 31.477 1242.65 31.477 1242.63 31.477C1242.27 31.4772 1241.91 31.4771 1241.55 31.4771C1241.5 31.4771 1241.51 31.541 1241.51 31.541V32.6625C1241.51 32.6625 1241.5 32.7152 1241.56 32.7152C1241.93 32.7155 1242.32 32.7153 1242.69 32.7153C1242.75 32.7153 1242.75 32.7104 1242.75 32.7765V33.2956C1242.75 33.9767 1242.75 34.599 1242.75 35.2801C1242.75 35.3482 1242.74 35.3428 1242.81 35.3428C1243.18 35.3428 1243.55 35.3428 1243.93 35.3428C1243.99 35.3428 1243.99 35.3483 1243.99 35.2801C1243.99 34.854 1243.99 34.4279 1243.99 34.0016V32.7877C1243.99 32.7728 1243.99 32.7578 1243.99 32.743C1243.99 32.7206 1243.99 32.7165 1244.01 32.7156C1244.03 32.715 1244.04 32.7153 1244.06 32.7153C1244.3 32.7153 1244.75 32.7137 1244.99 32.7137C1245.27 32.7137 1245.54 32.7137 1245.82 32.7137C1245.9 32.7137 1245.97 32.7286 1246.04 32.761C1246.17 32.824 1246.24 32.9315 1246.25 33.0771C1246.25 33.1123 1246.25 33.1477 1246.25 33.183C1246.25 33.5459 1246.25 33.6341 1246.25 33.997C1246.25 34.1977 1246.17 34.2818 1246 34.2818C1245.63 34.2821 1245.47 34.2819 1245.1 34.2819C1245.08 34.2819 1245.07 34.2816 1245.05 34.2822C1245.03 34.2829 1245.03 34.2877 1245.03 34.3067C1245.03 34.3235 1245.39 35.1475 1245.47 35.3106C1245.47 35.3135 1245.47 35.3161 1245.47 35.3186C1245.48 35.3308 1245.49 35.3387 1245.5 35.339C1245.51 35.3391 1245.51 35.3392 1245.52 35.3393C1245.59 35.3405 1245.75 35.3428 1245.9 35.341C1246.01 35.3396 1246.3 35.3441 1246.42 35.3335C1246.52 35.3236 1246.63 35.3063 1246.73 35.2748C1247.19 35.1357 1247.49 34.7336 1247.49 34.2558C1247.49 33.7236 1247.49 33.2501 1247.49 32.7179C1247.49 32.619 1247.49 32.5209 1247.47 32.4237Z" fill="white"/>
</g>
<path d="M619.174 101H615.878L620.9 86.4545H624.863L629.877 101H626.581L622.938 89.7784H622.824L619.174 101ZM618.968 95.2827H626.752V97.6832H618.968V95.2827ZM634.703 86.4545V101H631.627V86.4545H634.703ZM641.718 89.4H659.518V91.88H641.718V89.4ZM651.978 90.4C653.178 94.98 655.718 98.78 659.958 100.46C659.358 101 658.558 102.04 658.158 102.74C653.578 100.6 651.078 96.46 649.558 90.96L651.978 90.4ZM649.218 84.02H651.858C651.758 90.12 651.718 98.6 643.138 102.74C642.758 102.08 642.018 101.22 641.318 100.7C649.518 97.04 649.158 89.44 649.218 84.02ZM671.538 84.58L673.198 86.14C672.078 86.8 670.738 87.34 669.598 87.7C669.498 87.26 669.198 86.56 668.958 86.14C669.898 85.74 670.918 85.14 671.538 84.58ZM668.518 85.54L670.598 86.18V92.8H668.518V85.54ZM668.518 91.64H677.198V87.38H675.478V85.5H679.318V93.54H668.518V91.64ZM669.418 88.64H672.138V90.34H669.418V88.64ZM675.498 88.64H678.338V90.34H675.498V88.64ZM672.758 84.02H674.898V95.22H672.758V84.02ZM668.158 94.98H677.758V96.94H668.158V94.98ZM677.138 94.98H677.578L677.978 94.88L679.438 95.56C677.518 100.04 673.098 101.98 667.818 102.8C667.618 102.22 667.178 101.3 666.778 100.8C671.598 100.26 675.698 98.64 677.138 95.26V94.98ZM671.198 96.68C672.798 98.86 676.158 100.26 680.218 100.78C679.698 101.28 679.058 102.24 678.738 102.88C674.458 102.14 671.138 100.36 669.098 97.46L671.198 96.68ZM660.998 94.26C662.778 93.88 665.418 93.22 667.918 92.6L668.198 94.76C665.918 95.4 663.498 96.06 661.598 96.56L660.998 94.26ZM661.298 87.8H667.958V90.02H661.298V87.8ZM663.718 84.02H666.038V100.3C666.038 101.42 665.818 102.02 665.158 102.38C664.498 102.74 663.538 102.8 662.138 102.8C662.078 102.2 661.778 101.24 661.478 100.64C662.258 100.66 663.078 100.66 663.338 100.66C663.618 100.66 663.718 100.56 663.718 100.28V84.02Z" fill="white"/>
</g>
</g>
<defs>
<filter id="filter0_d_6626_160862" x="0.534391" y="0.565641" width="1296.93" height="651.931" filterUnits="userSpaceOnUse" color-interpolation-filters="sRGB">
<feFlood flood-opacity="0" result="BackgroundImageFix"/>
<feColorMatrix in="SourceAlpha" type="matrix" values="0 0 0 0 0 0 0 0 0 0 0 0 0 0 0 0 0 0 127 0" result="hardAlpha"/>
<feOffset/>
<feGaussianBlur stdDeviation="4.2328"/>
<feComposite in2="hardAlpha" operator="out"/>
<feColorMatrix type="matrix" values="0 0 0 0 0 0 0 0 0 0 0 0 0 0 0 0 0 0 0.02 0"/>
<feBlend mode="normal" in2="BackgroundImageFix" result="effect1_dropShadow_6626_160862"/>
<feBlend mode="normal" in="SourceGraphic" in2="effect1_dropShadow_6626_160862" result="shape"/>
</filter>
<filter id="filter1_b_6626_160862" x="7.30688" y="7.32202" width="1283.39" height="49.3862" filterUnits="userSpaceOnUse" color-interpolation-filters="sRGB">
<feFlood flood-opacity="0" result="BackgroundImageFix"/>
<feGaussianBlur in="BackgroundImageFix" stdDeviation="0.846561"/>
<feComposite in2="SourceAlpha" operator="in" result="effect1_backgroundBlur_6626_160862"/>
<feBlend mode="normal" in="SourceGraphic" in2="effect1_backgroundBlur_6626_160862" result="shape"/>
</filter>
<radialGradient id="paint0_radial_6626_160862" cx="0" cy="0" r="1" gradientUnits="userSpaceOnUse" gradientTransform="translate(648.69 322.12) rotate(90) scale(753.633 1363.35)">
<stop stop-color="#D9D9D9"/>
<stop offset="1" stop-color="#D9D9D9" stop-opacity="0"/>
</radialGradient>
<clipPath id="clip0_6626_160862">
<path d="M9 41.0312C9 23.3581 23.3269 9.03125 41 9.03125H1257C1274.67 9.03125 1289 23.3581 1289 41.0312V612.031C1289 629.704 1274.67 644.031 1257 644.031H41C23.3269 644.031 9 629.704 9 612.031V41.0312Z" fill="white"/>
</clipPath>
</defs>
</svg>
