<?xml version="1.0" encoding="UTF-8"?>
<svg width="1152px" height="827px" viewBox="0 0 1152 827" version="1.1" xmlns="http://www.w3.org/2000/svg" xmlns:xlink="http://www.w3.org/1999/xlink">
    <title>Group 4</title>
    <defs>
        <rect id="path-1" x="0" y="0" width="1152" height="827"></rect>
        <linearGradient x1="59.5225914%" y1="51.5595318%" x2="48.038119%" y2="82.4979301%" id="linearGradient-3">
            <stop stop-color="#FFFFFF" offset="0%"></stop>
            <stop stop-color="#FFFFFF" offset="0.881422613%"></stop>
            <stop stop-color="#F7F7F7" offset="100%"></stop>
        </linearGradient>
    </defs>
    <g id="我的网页-0311" stroke="none" stroke-width="1" fill="none" fill-rule="evenodd">
        <g id="project-2" transform="translate(-414.000000, -3967.000000)">
            <g id="Group-4" transform="translate(414.000000, 3967.000000)">
                <mask id="mask-2" fill="white">
                    <use xlink:href="#path-1"></use>
                </mask>
                <g id="Rectangle-Copy-4"></g>
                <path d="M-75,477 C187,345.666667 404.333333,331 577,433 C749.666667,535 963,586 1217,586 L1217,-56 L-75,-56 L-75,477 Z" id="Path-7" fill="url(#linearGradient-3)" mask="url(#mask-2)"></path>
                <g id="Group-86" mask="url(#mask-2)">
                    <g transform="translate(115.000000, 60.000000)">
                        <rect id="Rectangle" fill-opacity="0.05" fill="#6AF0D5" fill-rule="evenodd" x="0" y="0" width="350" height="130" rx="20"></rect>
                        <rect id="Rectangle-Copy-20" fill-opacity="0.03" fill="#0061FF" fill-rule="evenodd" x="446" y="0" width="475" height="130" rx="20"></rect>
                        <text id="Design-Thinking-Lean" fill="none" font-family="PingFangSC-Semibold, PingFang SC" font-size="36" font-weight="500">
                            <tspan x="38.468" y="56" fill="#6AF0D5">Design Thinking</tspan>
                            <tspan x="314.3" y="56" fill="#FFFFFF">              </tspan>
                            <tspan x="482.132" y="56" fill="#0061FF">Lean Startup</tspan>
                        </text>
                        <text id="设计思维-移情，定义和构思" fill="none" font-family="PingFangSC-Semibold, PingFang SC" font-size="20" font-weight="500">
                            <tspan x="39" y="98" fill="#555555">设计思维 </tspan>
                            <tspan x="125.66" y="98" fill="#6AF0D5">移情，定义和构思</tspan>
                        </text>
                        <text id="精益起步将-想法迅速转变为可执行的业务模" fill="none" font-family="PingFangSC-Semibold, PingFang SC" font-size="20" font-weight="500">
                            <tspan x="481" y="98" fill="#555555">精益起步将 </tspan>
                            <tspan x="587.66" y="98" fill="#0061FF">想法迅速转变为可执行的业务模式</tspan>
                        </text>
                    </g>
                </g>
                <text id="+" mask="url(#mask-2)" font-family="PingFangSC-Semibold, PingFang SC" font-size="48" font-weight="500" fill="#6AF0D5">
                    <tspan x="498.48" y="135">+</tspan>
                </text>
                <g id="Group-93" mask="url(#mask-2)">
                    <g transform="translate(116.000000, 236.000000)">
                        <g id="Group-38" stroke="none" stroke-width="1" fill="none" fill-rule="evenodd">
                            <g id="Group-32">
                                <line x1="0.443961353" y1="268.5" x2="918.556039" y2="268.5" id="Line" stroke-opacity="0.197251967" stroke="#000000" opacity="0.2" stroke-linecap="square" stroke-dasharray="5"></line>
                                <line x1="0.443961353" y1="104.5" x2="918.556039" y2="104.5" id="Line-Copy-2" stroke-opacity="0.197251967" stroke="#000000" opacity="0.2" stroke-linecap="square" stroke-dasharray="5"></line>
                                <line x1="0.501932367" y1="441.5" x2="918.5" y2="441.5" id="Line-Copy" stroke-opacity="0.197251967" stroke="#000000" opacity="0.2" stroke-linecap="square" stroke-dasharray="5"></line>
                                <text id="创意" font-family="PingFangSC-Semibold, PingFang SC" font-size="24" font-weight="500" fill="#6AF0D5">
                                    <tspan x="486" y="25">创意</tspan>
                                </text>
                                <text id="产品迭代方向-产品规划-服务规划-产品矩" font-family="PingFangSC-Regular, PingFang SC" font-size="14" font-weight="normal" fill="#555555">
                                    <tspan x="486" y="58">产品迭代方向</tspan>
                                    <tspan x="486" y="78">产品规划</tspan>
                                    <tspan x="486" y="98">服务规划</tspan>
                                    <tspan x="486" y="118">产品矩阵</tspan>
                                </text>
                                <text id="原型" font-family="PingFangSC-Semibold, PingFang SC" font-size="24" font-weight="500" fill="#16ADFB">
                                    <tspan x="555" y="276">原型</tspan>
                                </text>
                                <text id="信息架构-原型设计-新手引导-用户反馈机" font-family="PingFangSC-Regular, PingFang SC" font-size="14" font-weight="normal" fill="#555555">
                                    <tspan x="555" y="307">信息架构</tspan>
                                    <tspan x="555" y="327">原型设计</tspan>
                                    <tspan x="555" y="347">新手引导</tspan>
                                    <tspan x="555" y="367">用户反馈机制</tspan>
                                </text>
                                <text id="度量" font-family="PingFangSC-Semibold, PingFang SC" font-size="24" font-weight="500" fill="#16ADFB">
                                    <tspan x="789" y="413">度量</tspan>
                                </text>
                                <text id="UAT测试机制-问题走查跟踪" font-family="PingFangSC-Regular, PingFang SC" font-size="14" font-weight="normal" fill="#555555">
                                    <tspan x="789.5" y="446">UAT测试机制</tspan>
                                    <tspan x="789.5" y="466">问题走查跟踪</tspan>
                                </text>
                                <text id="开发" font-family="PingFangSC-Regular, PingFang SC" font-size="16" font-weight="normal" fill="#000000">
                                    <tspan x="853" y="277">开发</tspan>
                                </text>
                                <text id="抽象" transform="translate(39.000000, 34.000000) rotate(-90.000000) translate(-39.000000, -34.000000) " font-family="PingFangSC-Regular, PingFang SC" font-size="20" font-weight="normal" fill="#000000">
                                    <tspan x="19" y="41">抽象</tspan>
                                </text>
                                <text id="具象" transform="translate(39.000000, 454.000000) rotate(-90.000000) translate(-39.000000, -454.000000) " font-family="PingFangSC-Regular, PingFang SC" font-size="20" font-weight="normal" fill="#000000">
                                    <tspan x="19" y="461">具象</tspan>
                                </text>
                                <path d="M667.5,434 C757.798557,434 831,360.798557 831,270.5 C831,180.201443 757.798557,107 667.5,107 C577.201443,107 504,180.201443 504,270.5 C504,360.798557 577.201443,434 667.5,434 Z" id="Oval" stroke="#16ADFB" stroke-width="2" stroke-dasharray="10"></path>
                                <path d="M113,434 C259,434 300,360 327,268 C354,176 394,107 429,107 C464,107 504,188 504,270" id="Path-2" stroke="#6AF0D5" stroke-width="2" stroke-linecap="round" stroke-dasharray="10"></path>
                                <g id="Group-13" transform="translate(409.000000, 86.000000)"></g>
                                <g id="Group-13-Copy-3" transform="translate(489.000000, 254.000000)">
                                    <circle id="Oval" stroke="#16ADFB" stroke-width="2" fill="#FFFFFF" cx="15" cy="15" r="15"></circle>
                                    <text id="4" font-family="PingFangSC-Semibold, PingFang SC" font-size="20" font-weight="500" fill="#16ADFB">
                                        <tspan x="9" y="22">4</tspan>
                                    </text>
                                </g>
                                <g id="Group-13-Copy-4" transform="translate(740.000000, 387.000000)">
                                    <circle id="Oval" stroke="#16ADFB" stroke-width="2" fill="#FFFFFF" cx="15" cy="15" r="15"></circle>
                                    <text id="5" font-family="PingFangSC-Semibold, PingFang SC" font-size="20" font-weight="500" fill="#16ADFB">
                                        <tspan x="9" y="22">5</tspan>
                                    </text>
                                </g>
                                <polygon id="Triangle" stroke="#16ADFB" stroke-width="2" fill="#FFFFFF" transform="translate(831.000000, 268.500000) scale(1, -1) translate(-831.000000, -268.500000) " points="831 260.5 839 276.5 823 276.5"></polygon>
                                <g id="Group-19" transform="translate(224.000000, 387.000000)">
                                    <text id="移情" font-family="PingFangSC-Semibold, PingFang SC" font-size="24" font-weight="500" fill="#6AF0D5">
                                        <tspan x="57" y="27">移情</tspan>
                                        <tspan x="105" y="27" font-size="16"></tspan>
                                    </text>
                                    <text id="线下走访-线上访谈" font-family="PingFangSC-Regular, PingFang SC" font-size="14" font-weight="normal" fill="#555555">
                                        <tspan x="57" y="60">线下走访</tspan>
                                        <tspan x="57" y="80">线上访谈</tspan>
                                    </text>
                                    <g id="Group-13-Copy-2">
                                        <circle id="Oval" stroke="#6AF0D5" stroke-width="2" fill="#FFFFFF" cx="15" cy="15" r="15"></circle>
                                        <text id="1" font-family="PingFangSC-Semibold, PingFang SC" font-size="20" font-weight="500" fill="#6AF0D5">
                                            <tspan x="11" y="22">1</tspan>
                                        </text>
                                    </g>
                                </g>
                                <g id="Group-18" transform="translate(314.000000, 251.000000)">
                                    <text id="定义" font-family="PingFangSC-Semibold, PingFang SC" font-size="24" font-weight="500">
                                        <tspan x="55" y="25" fill="#6AF0D5">定义</tspan>
                                        <tspan x="103" y="25" font-size="16" fill="#6AF0D5"></tspan>
                                        <tspan x="55" y="58" font-family="PingFangSC-Regular, PingFang SC" font-size="16" font-weight="normal" fill="#000000"></tspan>
                                    </text>
                                    <text id="建立用户画像-定义解决体验思路" font-family="PingFangSC-Regular, PingFang SC" font-size="14" font-weight="normal" fill="#555555">
                                        <tspan x="55" y="63">建立用户画像</tspan>
                                        <tspan x="55" y="83">定义解决体验思路</tspan>
                                    </text>
                                    <g id="Group-13-Copy" transform="translate(0.000000, 5.000000)">
                                        <circle id="Oval" stroke="#6AF0D5" stroke-width="2" fill="#FFFFFF" cx="15" cy="15" r="15"></circle>
                                        <text id="2" font-family="PingFangSC-Semibold, PingFang SC" font-size="20" font-weight="500" fill="#6AF0D5">
                                            <tspan x="9" y="22">2</tspan>
                                        </text>
                                    </g>
                                </g>
                                <path id="Line-Copy-2" d="M1,518 L1,522 L0,522 L0,518 L1,518 Z M1,508 L1,514 L0,514 L0,508 L1,508 Z M1,498 L1,504 L0,504 L0,498 L1,498 Z M1,488 L1,494 L0,494 L0,488 L1,488 Z M1,478 L1,484 L0,484 L0,478 L1,478 Z M1,468 L1,474 L0,474 L0,468 L1,468 Z M1,458 L1,464 L0,464 L0,458 L1,458 Z M1,448 L1,454 L0,454 L0,448 L1,448 Z M1,438 L1,444 L0,444 L0,438 L1,438 Z M1,428 L1,434 L0,434 L0,428 L1,428 Z M1,418 L1,424 L0,424 L0,418 L1,418 Z M1,408 L1,414 L0,414 L0,408 L1,408 Z M1,398 L1,404 L0,404 L0,398 L1,398 Z M1,388 L1,394 L0,394 L0,388 L1,388 Z M1,378 L1,384 L0,384 L0,378 L1,378 Z M1,368 L1,374 L0,374 L0,368 L1,368 Z M1,358 L1,364 L0,364 L0,358 L1,358 Z M1,348 L1,354 L0,354 L0,348 L1,348 Z M1,338 L1,344 L0,344 L0,338 L1,338 Z M1,328 L1,334 L0,334 L0,328 L1,328 Z M1,318 L1,324 L0,324 L0,318 L1,318 Z M1,308 L1,314 L0,314 L0,308 L1,308 Z M1,298 L1,304 L0,304 L0,298 L1,298 Z M1,288 L1,294 L0,294 L0,288 L1,288 Z M1,278 L1,284 L0,284 L0,278 L1,278 Z M1,268 L1,274 L0,274 L0,268 L1,268 Z M1,258 L1,264 L0,264 L0,258 L1,258 Z M1,248 L1,254 L0,254 L0,248 L1,248 Z M1,238 L1,244 L0,244 L0,238 L1,238 Z M1,228 L1,234 L0,234 L0,228 L1,228 Z M1,218 L1,224 L0,224 L0,218 L1,218 Z M1,208 L1,214 L0,214 L0,208 L1,208 Z M1,198 L1,204 L0,204 L0,198 L1,198 Z M1,188 L1,194 L0,194 L0,188 L1,188 Z M1,178 L1,184 L0,184 L0,178 L1,178 Z M1,168 L1,174 L0,174 L0,168 L1,168 Z M1,158 L1,164 L0,164 L0,158 L1,158 Z M1,148 L1,154 L0,154 L0,148 L1,148 Z M1,138 L1,144 L0,144 L0,138 L1,138 Z M1,128 L1,134 L0,134 L0,128 L1,128 Z M1,118 L1,124 L0,124 L0,118 L1,118 Z M1,108 L1,114 L0,114 L0,108 L1,108 Z M1,98 L1,104 L0,104 L0,98 L1,98 Z M1,88 L1,94 L0,94 L0,88 L1,88 Z M1,78 L1,84 L0,84 L0,78 L1,78 Z M1,68 L1,74 L0,74 L0,68 L1,68 Z M1,58 L1,64 L0,64 L0,58 L1,58 Z M1,48 L1,54 L0,54 L0,48 L1,48 Z M1,38 L1,44 L0,44 L0,38 L1,38 Z M1,28 L1,34 L0,34 L0,28 L1,28 Z M1,18 L1,24 L0,24 L0,18 L1,18 Z M0.5,0 L5,9 L1,9 L1,14 L0,14 L0,9 L-4,9 L0.5,0 Z" fill-opacity="0.197251967" fill="#000000" fill-rule="nonzero"></path>
                                <path id="Line-Copy" d="M910.865381,516.319082 L911.301169,516.564212 L919.301169,521.064212 L920.075903,521.5 L919.301169,521.935788 L911.301169,526.435788 L910.865381,526.680918 L910.37512,525.809343 L910.810908,525.564212 L918.036,521.5 L910.810908,517.435788 L910.37512,517.190657 L910.865381,516.319082 Z M5.94396135,521 L5.94396135,522 L-0.0560386473,522 L-0.0560386473,521 L5.94396135,521 Z M15.9439614,521 L15.9439614,522 L9.94396135,522 L9.94396135,521 L15.9439614,521 Z M25.9439614,521 L25.9439614,522 L19.9439614,522 L19.9439614,521 L25.9439614,521 Z M35.9439614,521 L35.9439614,522 L29.9439614,522 L29.9439614,521 L35.9439614,521 Z M45.9439614,521 L45.9439614,522 L39.9439614,522 L39.9439614,521 L45.9439614,521 Z M55.9439614,521 L55.9439614,522 L49.9439614,522 L49.9439614,521 L55.9439614,521 Z M65.9439614,521 L65.9439614,522 L59.9439614,522 L59.9439614,521 L65.9439614,521 Z M75.9439614,521 L75.9439614,522 L69.9439614,522 L69.9439614,521 L75.9439614,521 Z M85.9439614,521 L85.9439614,522 L79.9439614,522 L79.9439614,521 L85.9439614,521 Z M95.9439614,521 L95.9439614,522 L89.9439614,522 L89.9439614,521 L95.9439614,521 Z M105.943961,521 L105.943961,522 L99.9439614,522 L99.9439614,521 L105.943961,521 Z M115.943961,521 L115.943961,522 L109.943961,522 L109.943961,521 L115.943961,521 Z M125.943961,521 L125.943961,522 L119.943961,522 L119.943961,521 L125.943961,521 Z M135.943961,521 L135.943961,522 L129.943961,522 L129.943961,521 L135.943961,521 Z M145.943961,521 L145.943961,522 L139.943961,522 L139.943961,521 L145.943961,521 Z M155.943961,521 L155.943961,522 L149.943961,522 L149.943961,521 L155.943961,521 Z M165.943961,521 L165.943961,522 L159.943961,522 L159.943961,521 L165.943961,521 Z M175.943961,521 L175.943961,522 L169.943961,522 L169.943961,521 L175.943961,521 Z M185.943961,521 L185.943961,522 L179.943961,522 L179.943961,521 L185.943961,521 Z M195.943961,521 L195.943961,522 L189.943961,522 L189.943961,521 L195.943961,521 Z M205.943961,521 L205.943961,522 L199.943961,522 L199.943961,521 L205.943961,521 Z M215.943961,521 L215.943961,522 L209.943961,522 L209.943961,521 L215.943961,521 Z M225.943961,521 L225.943961,522 L219.943961,522 L219.943961,521 L225.943961,521 Z M235.943961,521 L235.943961,522 L229.943961,522 L229.943961,521 L235.943961,521 Z M245.943961,521 L245.943961,522 L239.943961,522 L239.943961,521 L245.943961,521 Z M255.943961,521 L255.943961,522 L249.943961,522 L249.943961,521 L255.943961,521 Z M265.943961,521 L265.943961,522 L259.943961,522 L259.943961,521 L265.943961,521 Z M275.943961,521 L275.943961,522 L269.943961,522 L269.943961,521 L275.943961,521 Z M285.943961,521 L285.943961,522 L279.943961,522 L279.943961,521 L285.943961,521 Z M295.943961,521 L295.943961,522 L289.943961,522 L289.943961,521 L295.943961,521 Z M305.943961,521 L305.943961,522 L299.943961,522 L299.943961,521 L305.943961,521 Z M315.943961,521 L315.943961,522 L309.943961,522 L309.943961,521 L315.943961,521 Z M325.943961,521 L325.943961,522 L319.943961,522 L319.943961,521 L325.943961,521 Z M335.943961,521 L335.943961,522 L329.943961,522 L329.943961,521 L335.943961,521 Z M345.943961,521 L345.943961,522 L339.943961,522 L339.943961,521 L345.943961,521 Z M355.943961,521 L355.943961,522 L349.943961,522 L349.943961,521 L355.943961,521 Z M365.943961,521 L365.943961,522 L359.943961,522 L359.943961,521 L365.943961,521 Z M375.943961,521 L375.943961,522 L369.943961,522 L369.943961,521 L375.943961,521 Z M385.943961,521 L385.943961,522 L379.943961,522 L379.943961,521 L385.943961,521 Z M395.943961,521 L395.943961,522 L389.943961,522 L389.943961,521 L395.943961,521 Z M405.943961,521 L405.943961,522 L399.943961,522 L399.943961,521 L405.943961,521 Z M415.943961,521 L415.943961,522 L409.943961,522 L409.943961,521 L415.943961,521 Z M425.943961,521 L425.943961,522 L419.943961,522 L419.943961,521 L425.943961,521 Z M435.943961,521 L435.943961,522 L429.943961,522 L429.943961,521 L435.943961,521 Z M445.943961,521 L445.943961,522 L439.943961,522 L439.943961,521 L445.943961,521 Z M455.943961,521 L455.943961,522 L449.943961,522 L449.943961,521 L455.943961,521 Z M465.943961,521 L465.943961,522 L459.943961,522 L459.943961,521 L465.943961,521 Z M475.943961,521 L475.943961,522 L469.943961,522 L469.943961,521 L475.943961,521 Z M485.943961,521 L485.943961,522 L479.943961,522 L479.943961,521 L485.943961,521 Z M495.943961,521 L495.943961,522 L489.943961,522 L489.943961,521 L495.943961,521 Z M505.943961,521 L505.943961,522 L499.943961,522 L499.943961,521 L505.943961,521 Z M515.943961,521 L515.943961,522 L509.943961,522 L509.943961,521 L515.943961,521 Z M525.943961,521 L525.943961,522 L519.943961,522 L519.943961,521 L525.943961,521 Z M535.943961,521 L535.943961,522 L529.943961,522 L529.943961,521 L535.943961,521 Z M545.943961,521 L545.943961,522 L539.943961,522 L539.943961,521 L545.943961,521 Z M555.943961,521 L555.943961,522 L549.943961,522 L549.943961,521 L555.943961,521 Z M565.943961,521 L565.943961,522 L559.943961,522 L559.943961,521 L565.943961,521 Z M575.943961,521 L575.943961,522 L569.943961,522 L569.943961,521 L575.943961,521 Z M585.943961,521 L585.943961,522 L579.943961,522 L579.943961,521 L585.943961,521 Z M595.943961,521 L595.943961,522 L589.943961,522 L589.943961,521 L595.943961,521 Z M605.943961,521 L605.943961,522 L599.943961,522 L599.943961,521 L605.943961,521 Z M615.943961,521 L615.943961,522 L609.943961,522 L609.943961,521 L615.943961,521 Z M625.943961,521 L625.943961,522 L619.943961,522 L619.943961,521 L625.943961,521 Z M635.943961,521 L635.943961,522 L629.943961,522 L629.943961,521 L635.943961,521 Z M645.943961,521 L645.943961,522 L639.943961,522 L639.943961,521 L645.943961,521 Z M655.943961,521 L655.943961,522 L649.943961,522 L649.943961,521 L655.943961,521 Z M665.943961,521 L665.943961,522 L659.943961,522 L659.943961,521 L665.943961,521 Z M675.943961,521 L675.943961,522 L669.943961,522 L669.943961,521 L675.943961,521 Z M685.943961,521 L685.943961,522 L679.943961,522 L679.943961,521 L685.943961,521 Z M695.943961,521 L695.943961,522 L689.943961,522 L689.943961,521 L695.943961,521 Z M705.943961,521 L705.943961,522 L699.943961,522 L699.943961,521 L705.943961,521 Z M715.943961,521 L715.943961,522 L709.943961,522 L709.943961,521 L715.943961,521 Z M725.943961,521 L725.943961,522 L719.943961,522 L719.943961,521 L725.943961,521 Z M735.943961,521 L735.943961,522 L729.943961,522 L729.943961,521 L735.943961,521 Z M745.943961,521 L745.943961,522 L739.943961,522 L739.943961,521 L745.943961,521 Z M755.943961,521 L755.943961,522 L749.943961,522 L749.943961,521 L755.943961,521 Z M765.943961,521 L765.943961,522 L759.943961,522 L759.943961,521 L765.943961,521 Z M775.943961,521 L775.943961,522 L769.943961,522 L769.943961,521 L775.943961,521 Z M785.943961,521 L785.943961,522 L779.943961,522 L779.943961,521 L785.943961,521 Z M795.943961,521 L795.943961,522 L789.943961,522 L789.943961,521 L795.943961,521 Z M805.943961,521 L805.943961,522 L799.943961,522 L799.943961,521 L805.943961,521 Z M815.943961,521 L815.943961,522 L809.943961,522 L809.943961,521 L815.943961,521 Z M825.943961,521 L825.943961,522 L819.943961,522 L819.943961,521 L825.943961,521 Z M835.943961,521 L835.943961,522 L829.943961,522 L829.943961,521 L835.943961,521 Z M845.943961,521 L845.943961,522 L839.943961,522 L839.943961,521 L845.943961,521 Z M855.943961,521 L855.943961,522 L849.943961,522 L849.943961,521 L855.943961,521 Z M865.943961,521 L865.943961,522 L859.943961,522 L859.943961,521 L865.943961,521 Z M875.943961,521 L875.943961,522 L869.943961,522 L869.943961,521 L875.943961,521 Z M885.943961,521 L885.943961,522 L879.943961,522 L879.943961,521 L885.943961,521 Z M895.943961,521 L895.943961,522 L889.943961,522 L889.943961,521 L895.943961,521 Z M905.943961,521 L905.943961,522 L899.943961,522 L899.943961,521 L905.943961,521 Z M915.943961,521 L915.943961,522 L909.943961,522 L909.943961,521 L915.943961,521 Z" fill-opacity="0.197251967" fill="#000000" fill-rule="nonzero"></path>
                            </g>
                            <g id="Group-36" transform="translate(88.000000, 0.000000)">
                                <g id="Group-88" transform="translate(0.500000, 46.000000)">
                                    <rect id="Rectangle" stroke="#555555" fill="#FFFFFF" x="0" y="0" width="100" height="36" rx="18"></rect>
                                    <text id="快速验证" font-family="PingFangSC-Regular, PingFang SC" font-size="14" font-weight="normal" fill="#555555">
                                        <tspan x="22" y="23">快速验证</tspan>
                                    </text>
                                </g>
                                <g id="Group-91" transform="translate(1.000000, 0.000000)">
                                    <rect id="Rectangle" stroke="#555555" fill="#FFFFFF" x="0" y="0" width="100" height="36" rx="18"></rect>
                                    <text id="快速落地" font-family="PingFangSC-Regular, PingFang SC" font-size="14" font-weight="normal" fill="#555555">
                                        <tspan x="22" y="23">快速落地</tspan>
                                    </text>
                                </g>
                                <g id="Group-87" transform="translate(1.000000, 92.000000)">
                                    <rect id="Rectangle" stroke="#555555" fill="#FFFFFF" x="0" y="0" width="100" height="36" rx="18"></rect>
                                    <text id="需求保真" font-family="PingFangSC-Regular, PingFang SC" font-size="14" font-weight="normal" fill="#555555">
                                        <tspan x="22" y="23">需求保真</tspan>
                                    </text>
                                </g>
                                <g id="Group-92" transform="translate(0.500000, 138.000000)">
                                    <rect id="Rectangle" stroke="#555555" fill="#FFFFFF" x="0" y="0" width="100" height="36" rx="18"></rect>
                                    <text id="需求响应" font-family="PingFangSC-Regular, PingFang SC" font-size="14" font-weight="normal" fill="#555555">
                                        <tspan x="22" y="23">需求响应</tspan>
                                    </text>
                                </g>
                            </g>
                        </g>
                        <circle id="Oval" stroke="#6AF0D5" stroke-width="2" fill="#FFFFFF" fill-rule="evenodd" cx="428" cy="107" r="15"></circle>
                        <text id="3" stroke="none" fill="none" font-family="PingFangSC-Semibold, PingFang SC" font-size="20" font-weight="500">
                            <tspan x="422" y="114" fill="#6AF0D5">3</tspan>
                        </text>
                    </g>
                </g>
            </g>
        </g>
    </g>
</svg>