<svg width="70" height="70" viewBox="0 0 70 70" fill="none" xmlns="http://www.w3.org/2000/svg">
<g clip-path="url(#clip0_10_34)">
<path d="M70 0H0V70H70V0Z" fill="#F6F7F9"/>
<g style="mix-blend-mode:luminosity">
<path d="M18.8905 50.5922V51.0156L16.0079 54.5123H19.0048V55.1305H15V54.7074L17.8957 51.2018H15.1441V50.5922H18.8905Z" fill="black"/>
<path fill-rule="evenodd" clip-rule="evenodd" d="M21.1716 51.4095C20.9969 51.5701 20.9096 51.7691 20.9096 52.0063V52.4551H24.1015V52.0063C24.1041 51.7691 24.0134 51.5701 23.8303 51.4095C23.6496 51.2435 23.4325 51.16 23.1783 51.16H21.8275C21.5767 51.16 21.3578 51.2435 21.1716 51.4095ZM23.3732 50.5923C23.7767 50.5896 24.1209 50.7181 24.4059 50.978C24.6939 51.2343 24.8351 51.5463 24.8296 51.9125V52.7938C24.7132 52.8443 24.6175 52.8851 24.5417 52.9146C24.465 52.9437 24.3853 52.9709 24.3026 52.9949C24.2192 53.0192 24.152 53.031 24.1015 53.031H21.6377C21.5302 53.031 21.4222 52.9957 21.3136 52.9254C21.2051 52.855 21.0699 52.7509 20.9096 52.616V53.6705C20.9096 53.9014 20.9998 54.1001 21.1802 54.2665C21.3607 54.4307 21.5767 54.5123 21.8275 54.5123H23.2463C23.5 54.5123 23.7147 54.4307 23.8894 54.2665C24.0701 54.1001 24.1606 53.9014 24.1606 53.6705V53.6195H24.8296V53.8015C24.8322 54.1689 24.6881 54.4812 24.3971 54.7412C24.1151 54.9975 23.7738 55.1277 23.3732 55.1306H21.629C21.2336 55.1277 20.8923 54.9975 20.6041 54.7412C20.3222 54.4812 20.1799 54.1689 20.1768 53.8015V51.9125C20.1799 51.5437 20.3222 51.2304 20.6041 50.9736C20.8923 50.7136 21.2336 50.587 21.629 50.5923H23.3732Z" fill="black"/>
<path fill-rule="evenodd" clip-rule="evenodd" d="M26.9712 50.5921L27.0897 51.003C27.2001 50.9183 27.2937 50.8511 27.3714 50.7998C27.449 50.7488 27.5293 50.7015 27.6128 50.6581C27.6959 50.6144 27.7644 50.5921 27.8178 50.5921H29.2826C29.6859 50.5896 30.0303 50.718 30.3154 50.9779C30.6033 51.2342 30.7448 51.5462 30.7391 51.9124V55.1305H30.011V52.0481C30.0136 51.812 29.9234 51.6114 29.74 51.4474C29.5591 51.2808 29.342 51.1989 29.0878 51.2018H27.0897V55.1305H26.3574V50.5921H26.9712Z" fill="black"/>
<path d="M32.4541 55.1304H33.1861V48.4927H32.4541V55.1304Z" fill="black"/>
<path fill-rule="evenodd" clip-rule="evenodd" d="M35.4969 53.1961C35.3224 53.3287 35.2348 53.5139 35.2348 53.7511C35.2348 53.9507 35.3224 54.1311 35.4969 54.2925C35.6779 54.4449 35.8965 54.5208 36.1533 54.5208H38.1768V52.9461H36.1533C35.902 52.9461 35.6836 53.0296 35.4969 53.1961ZM37.4484 50.5921C37.8525 50.5897 38.1969 50.7179 38.482 50.9779C38.7697 51.2342 38.9106 51.5477 38.9049 51.9175V55.1304H38.2911L38.1768 54.7156C38.0612 54.8061 37.9652 54.8767 37.8888 54.928C37.8127 54.9782 37.7329 55.025 37.6495 55.0671C37.5664 55.1092 37.4997 55.1304 37.4484 55.1304H35.9629C35.5675 55.1275 35.2231 54.9976 34.9299 54.741C34.6417 54.4813 34.4994 54.1711 34.502 53.81V53.6999C34.5052 53.3303 34.6474 53.0165 34.9299 52.7599C35.2176 52.5002 35.5589 52.3734 35.9546 52.3786H38.1768V52.0148C38.1794 51.7781 38.0894 51.5762 37.9061 51.4094C37.7256 51.2436 37.5075 51.1601 37.2536 51.1601H34.9895V50.5921H37.4484Z" fill="black"/>
<path fill-rule="evenodd" clip-rule="evenodd" d="M40.8563 50.5922L42.5328 54.4955L44.2894 50.5922H45.1446L42.1051 56.8747H41.2628L41.9025 55.7781C41.9587 55.685 42.0633 55.5458 42.2155 55.3591L40.0059 50.5922H40.8563Z" fill="black"/>
<path fill-rule="evenodd" clip-rule="evenodd" d="M47.1638 51.4095C46.9891 51.5701 46.9015 51.7691 46.9015 52.0063V52.4551H50.0937V52.0063C50.0963 51.7691 50.0056 51.5701 49.8222 51.4095C49.6418 51.2435 49.4247 51.16 49.1705 51.16H47.82C47.5689 51.16 47.35 51.2435 47.1638 51.4095ZM49.3654 50.5923C49.7686 50.5896 50.1131 50.7181 50.3981 50.978C50.6861 51.2343 50.827 51.5463 50.8215 51.9125V52.7938C50.7054 52.8443 50.6097 52.8851 50.5339 52.9146C50.4575 52.9437 50.3775 52.9709 50.2946 52.9949C50.2114 53.0192 50.1442 53.031 50.0937 53.031H47.6298C47.5224 53.031 47.4143 52.9957 47.3055 52.9254C47.1973 52.855 47.0621 52.7509 46.9015 52.616V53.6705C46.9015 53.9014 46.992 54.1001 47.1724 54.2665C47.3526 54.4307 47.5689 54.5123 47.82 54.5123H49.2385C49.4925 54.5123 49.7064 54.4307 49.8813 54.2665C50.0626 54.1001 50.1528 53.9014 50.1528 53.6705V53.6195H50.8215V53.8015C50.8244 54.1689 50.68 54.4812 50.3895 54.7412C50.1073 54.9975 49.766 55.1277 49.3654 55.1306H47.6212C47.226 55.1277 46.8845 54.9975 46.5965 54.7412C46.3144 54.4812 46.1718 54.1689 46.1689 53.8015V51.9125C46.1718 51.5437 46.3144 51.2304 46.5965 50.9736C46.8845 50.7136 47.226 50.587 47.6212 50.5923H49.3654Z" fill="black"/>
<path fill-rule="evenodd" clip-rule="evenodd" d="M52.9592 50.5922L53.0777 51.0031C53.1875 50.9184 53.2814 50.8511 53.3591 50.7999C53.4368 50.7489 53.5173 50.7015 53.6008 50.6581C53.6834 50.6145 53.7519 50.5922 53.8058 50.5922H54.9994V51.2018H53.0777V55.1305H52.3496V50.5922H52.9592Z" fill="black"/>
<path fill-rule="evenodd" clip-rule="evenodd" d="M24.7686 26.9025C24.7686 28.1142 24.9896 29.2743 25.3938 30.3447C25.3859 30.1858 25.3807 30.0257 25.3807 29.8641C25.3807 24.9126 29.3951 20.8982 34.3466 20.8982C39.2988 20.8982 43.3131 24.9126 43.3131 29.8641C43.3131 30.3859 43.268 30.8973 43.1823 31.3949C43.1353 31.6682 43.0758 31.9376 43.0045 32.2018C42.7344 33.2057 42.2949 34.1395 41.7176 34.9705C39.6119 38.2951 35.9016 40.5028 31.6759 40.5028C25.2224 40.5028 19.9715 35.3564 19.8028 28.9428C19.8008 29.0559 19.7988 29.169 19.7988 29.2828C19.7988 37.7236 26.6408 44.5656 35.0816 44.5656C37.0342 44.5656 38.8999 44.1987 40.6164 43.5323C44.9068 41.0821 47.7938 36.4981 47.7938 31.2478C47.7938 25.0656 43.7911 19.8088 38.21 17.8699C37.2474 17.4769 36.2089 17.233 35.1214 17.1669C34.9985 17.1604 34.8749 17.1545 34.7507 17.1512C34.6749 17.1493 34.5983 17.1486 34.5225 17.1486C29.1355 17.1486 24.7686 21.5155 24.7686 26.9025Z" fill="url(#paint0_linear_10_34)"/>
<path d="M20.1729 25.9125C20.1251 26.0276 20.0787 26.1433 20.0349 26.2604C19.8799 27.0248 19.7988 27.816 19.7988 28.6256C19.7988 28.7316 19.8008 28.8375 19.8028 28.9427C19.9715 35.3564 25.2224 40.5028 31.6759 40.5028C35.9016 40.5028 39.6119 38.2951 41.7176 34.9706C40.0985 37.3031 37.4011 38.83 34.3466 38.83C29.5566 38.83 25.6436 35.0733 25.3938 30.3448C24.9896 29.2743 24.7686 28.1143 24.7686 26.9025C24.7686 21.5155 29.1355 17.1487 34.5225 17.1487C34.5983 17.1487 34.6749 17.1493 34.7507 17.1513C34.8749 17.1545 34.9985 17.1604 35.1214 17.167C34.9587 17.1493 34.7951 17.1323 34.6311 17.1192C34.2439 17.0878 33.8522 17.0721 33.4573 17.0721C27.4484 17.0721 22.304 20.7276 20.1729 25.9125Z" fill="url(#paint1_linear_10_34)"/>
<path d="M35.0818 14C28.5217 14 22.9274 18.1334 20.7604 23.9389C20.4432 24.6765 20.1973 25.4534 20.0352 26.2604C20.079 26.1432 20.1254 26.0275 20.1731 25.9125C22.3043 20.7275 27.4486 17.0721 33.4576 17.0721C33.8525 17.0721 34.2442 17.0878 34.6313 17.1192C34.7955 17.1323 34.9589 17.1493 35.1218 17.1669C36.2092 17.233 37.2476 17.4769 38.2102 17.8699C43.7914 19.8088 47.7941 25.0656 47.7941 31.2478C47.7941 36.4981 44.907 41.0821 40.6167 43.5323C46.3214 41.3142 50.3646 35.7709 50.3646 29.2828C50.3646 20.8426 43.5227 14 35.0818 14Z" fill="url(#paint2_linear_10_34)"/>
</g>
</g>
<defs>
<linearGradient id="paint0_linear_10_34" x1="21.3606" y1="25.8733" x2="47.1857" y2="36.2549" gradientUnits="userSpaceOnUse">
<stop stop-color="#1CBFFF"/>
<stop offset="1" stop-color="#1DA0F2"/>
</linearGradient>
<linearGradient id="paint1_linear_10_34" x1="21.9979" y1="24.4029" x2="41.4357" y2="31.8643" gradientUnits="userSpaceOnUse">
<stop stop-color="#2ACDFD"/>
<stop offset="1" stop-color="#87E6FF"/>
</linearGradient>
<linearGradient id="paint2_linear_10_34" x1="25.3946" y1="19.103" x2="49.9743" y2="35.9961" gradientUnits="userSpaceOnUse">
<stop stop-color="#31B3F7"/>
<stop offset="1" stop-color="#1072D8"/>
</linearGradient>
<clipPath id="clip0_10_34">
<rect width="70" height="70" fill="white"/>
</clipPath>
</defs>
</svg>
