<svg width="70" height="71" viewBox="0 0 70 71" fill="none" xmlns="http://www.w3.org/2000/svg">
<g clip-path="url(#clip0_388_13678)">
<path d="M70 0.464355H0V70.4644H70V0.464355Z" fill="#F6F7F9"/>
<g style="mix-blend-mode:luminosity">
<g style="mix-blend-mode:luminosity">
<path fill-rule="evenodd" clip-rule="evenodd" d="M54.9204 36.5183C54.7744 35.7753 54.3896 35.2048 53.7129 34.8465C53.2485 34.5944 52.7576 34.4883 52.2401 34.475C52.134 34.475 52.0411 34.475 51.935 34.475C51.8686 34.475 51.8686 34.475 51.8686 34.4086C51.8686 34.3821 51.8686 34.3688 51.8686 34.3423C51.8686 33.8116 51.8686 33.1614 51.8686 32.6439C51.8686 32.4184 51.8553 32.2061 51.8288 31.9805C51.789 31.6753 51.7094 31.3702 51.5767 31.0915C51.3379 30.574 50.9531 30.176 50.4489 29.8974C49.9314 29.6187 49.3741 29.4728 48.7903 29.4595C48.5382 29.4595 47.8482 29.4595 47.5961 29.4595C47.4767 29.4595 47.4767 29.4595 47.4767 29.3533C47.4767 29.1543 47.4767 28.7563 47.4767 28.5307C47.4767 28.5042 47.4767 28.4909 47.4634 28.4776C47.4502 28.4644 47.4104 28.4644 47.4104 28.4644H44.8761C44.8761 28.4644 44.8495 28.4644 44.8363 28.4776C44.823 28.4909 44.823 28.5042 44.823 28.5174C44.823 28.743 44.823 29.141 44.823 29.3401C44.823 29.3666 44.823 29.4064 44.823 29.433C44.823 29.4595 44.8097 29.4728 44.7832 29.4728C44.7566 29.4728 44.7168 29.4728 44.6903 29.4728C44.1994 29.4728 43.6952 29.4728 43.2042 29.4728C43.1777 29.4728 43.1379 29.4728 43.1113 29.4728C43.0715 29.4728 43.0583 29.486 43.0583 29.5258C43.0583 29.5524 43.0583 29.5789 43.0583 29.6054C43.0583 30.4016 43.0583 31.1977 43.0583 31.9938C43.0583 32.1397 43.045 32.1265 43.191 32.1265C43.6952 32.1265 44.1994 32.1265 44.7168 32.1265C44.8495 32.1265 44.8363 32.3388 44.8363 32.3388V34.1433V34.2627C44.8363 34.2627 44.8363 34.4617 44.7301 34.4617C44.6903 34.4617 44.6107 34.4617 44.5576 34.4617C43.8013 34.4617 43.0052 34.4617 42.2622 34.4617C42.1427 34.4617 42.156 34.5944 42.156 34.5944V34.7536V36.8899V37.0093C42.156 37.0093 42.1427 37.1287 42.2622 37.1287C43.0583 37.1287 43.8942 37.1287 44.6903 37.1287C44.823 37.1287 44.823 37.1154 44.823 37.2614V38.3759C44.823 39.8487 44.823 41.1888 44.823 42.6484C44.823 42.7943 44.8097 42.7811 44.9557 42.7811C45.7518 42.7811 46.5479 42.7811 47.344 42.7811C47.49 42.7811 47.4767 42.7943 47.4767 42.6484C47.4767 41.7329 47.4767 40.8173 47.4767 39.8885V37.3012C47.4767 37.2746 47.4767 37.2348 47.4767 37.2083C47.4767 37.1552 47.49 37.1552 47.5298 37.1552C47.5563 37.1552 47.5961 37.1552 47.6227 37.1552C48.1401 37.1552 49.0955 37.1552 49.6129 37.1552C50.21 37.1552 50.8071 37.1552 51.4042 37.1552C51.5634 37.1552 51.7227 37.1818 51.8686 37.2614C52.1605 37.3941 52.3065 37.6329 52.333 37.9381C52.333 38.0177 52.333 38.084 52.333 38.1636C52.333 38.9465 52.333 39.1322 52.333 39.9151C52.333 40.3529 52.1605 40.5254 51.789 40.5254C51.0062 40.5254 50.6479 40.5254 49.8651 40.5254C49.8252 40.5254 49.7987 40.5254 49.7589 40.5254C49.7191 40.5254 49.7058 40.5387 49.7191 40.5785C49.7191 40.6183 50.5019 42.3963 50.6612 42.7413C50.6612 42.7413 50.6612 42.7545 50.6744 42.7545C50.6877 42.7811 50.7142 42.7943 50.7408 42.7943C50.754 42.7943 50.7541 42.7943 50.7673 42.7943C50.9133 42.7943 51.2583 42.8076 51.59 42.7943C51.8421 42.7943 52.4524 42.8076 52.7045 42.7811C52.9301 42.7545 53.1689 42.728 53.3812 42.6484C54.3631 42.3432 55 41.4808 55 40.4458C55 39.3047 55 38.283 55 37.1287C54.9735 36.9429 54.9602 36.7306 54.9204 36.5183ZM49.268 34.4352C49.268 34.4617 49.2547 34.475 49.2282 34.475C49.2016 34.475 49.1751 34.475 49.1618 34.475C48.777 34.475 47.9544 34.475 47.5696 34.475C47.5563 34.475 47.5298 34.475 47.5165 34.475C47.49 34.475 47.4767 34.4617 47.4767 34.4352C47.4767 34.4086 47.4767 34.3688 47.4767 34.3423L47.4634 32.2591C47.4634 32.1397 47.4502 32.1397 47.5829 32.1397C47.8482 32.1397 48.5382 32.1397 48.8036 32.1397C48.8699 32.1397 48.9363 32.1397 49.0026 32.1663C49.1618 32.2193 49.2547 32.3388 49.2812 32.5112C49.2812 32.5378 49.2812 32.5643 49.2812 32.5909C49.2812 33.1349 49.2812 33.8116 49.2812 34.3688C49.268 34.3954 49.268 34.4086 49.268 34.4352ZM42.3152 40.1804C42.3152 40.1539 42.302 40.1406 42.2754 40.1406C42.2356 40.1406 42.2091 40.1406 42.1693 40.1406H39.9136C39.8871 40.1406 39.8605 40.1406 39.834 40.1406C39.7544 40.1406 39.7544 40.1406 39.7544 40.061C39.7544 40.0345 39.7544 40.008 39.7544 39.9947V32.2591C39.7544 32.1397 39.7411 32.1397 39.8738 32.1397C39.9003 32.1397 40.8291 32.1397 41.3068 32.1397C41.4395 32.1397 41.4262 32.153 41.4262 32.0203C41.4262 31.2109 41.4262 30.4016 41.4262 29.6054C41.4262 29.4728 41.4395 29.4728 41.2935 29.4728C39.3165 29.4728 37.4324 29.4728 35.4554 29.4728C35.3492 29.4728 35.3359 29.4595 35.3359 29.5922C35.3359 30.4016 35.3359 31.2109 35.3359 32.007C35.3359 32.1397 35.3227 32.1397 35.4686 32.1397C35.9728 32.1397 36.3842 32.1397 36.8884 32.1397C37.0078 32.1397 37.0078 32.1397 37.0078 32.2591V32.2857C37.0078 34.8598 37.0078 37.4339 37.0078 39.9947C37.0078 40.1539 37.0211 40.1406 36.8618 40.1406C36.2382 40.1406 35.0175 40.1406 34.6858 40.1406C34.6062 40.1406 34.5796 40.1937 34.5796 40.1937L33.412 42.728C33.412 42.728 33.3855 42.7678 33.3987 42.7943C33.412 42.8076 33.4253 42.8076 33.4916 42.8076C33.9162 42.8076 35.4156 42.8076 36.3046 42.8076H42.1162C42.156 42.8076 42.1825 42.8076 42.2223 42.8076C42.2754 42.8076 42.2754 42.7943 42.2754 42.7545C42.2754 42.728 42.2754 42.7147 42.2754 42.6882C42.2754 41.8788 42.2754 41.0562 42.2754 40.2468C42.3152 40.2202 42.3152 40.207 42.3152 40.1804ZM22.6777 28.6368H20.1567C20.1301 28.6368 20.1036 28.6634 20.1036 28.6899C20.1036 29.3268 20.0903 35.4701 20.0903 38.5617C20.0903 39.0792 20.0903 39.5966 20.0903 40.1141C20.0903 40.5918 19.6392 40.552 19.6259 40.552H18.4716C18.445 40.552 18.4185 40.552 18.392 40.552C18.3256 40.552 18.3256 40.552 18.3256 40.6316C18.3256 40.6979 19.0952 42.4095 19.2544 42.7413C19.2677 42.7811 19.3075 42.7943 19.334 42.7943C19.5994 42.7943 20.6078 42.8076 20.8997 42.7678C21.1518 42.728 21.4039 42.6617 21.6295 42.5422C22.1337 42.2769 22.4521 41.839 22.6246 41.2685C22.7175 40.9766 22.7441 40.6714 22.7441 40.3795C22.7441 38.4688 22.7441 36.5449 22.7441 34.6342C22.7441 32.8032 22.7308 29.1676 22.7308 28.6899C22.7308 28.6634 22.7043 28.6368 22.6777 28.6368ZM34.2214 36.9031H32.7618C32.6026 36.9031 32.5097 36.7439 32.5628 36.6112L34.5266 32.2193C34.5398 32.1928 34.5133 32.1663 34.4868 32.1663H32.2974C32.1117 32.1663 31.9923 31.9805 32.0719 31.8213L33.5314 28.5572C33.5447 28.5307 33.5181 28.5042 33.4916 28.5042C33.1599 28.5042 31.6075 28.5042 30.891 28.5042C30.8777 28.5042 30.8644 28.5174 30.8512 28.5307L29.3253 31.954C29.1661 32.2724 29.0201 32.5909 28.8874 32.9093C28.8078 33.1083 28.7282 33.3074 28.6618 33.5197C28.6353 33.6258 28.622 33.732 28.622 33.8381C28.6486 34.1167 28.768 34.329 29.0068 34.475C29.0732 34.5148 29.1528 34.5546 29.2191 34.5811C29.3916 34.6475 29.5774 34.674 29.7764 34.674C30.1745 34.674 30.3602 34.674 30.7583 34.674C30.7981 34.674 29.7897 36.9031 29.6039 37.3277C29.511 37.54 29.4314 37.7523 29.3651 37.9646C29.3385 38.0575 29.3253 38.1504 29.3253 38.2565C29.3385 38.5484 29.4712 38.774 29.7101 38.9199C29.7764 38.9597 29.856 38.9995 29.9356 39.0261C30.1214 39.0924 30.3072 39.119 30.5062 39.119C31.3288 39.119 32.3638 39.119 33.1997 39.119C33.213 39.119 33.2528 39.119 33.2793 39.119C33.2926 39.119 33.3059 39.1057 33.3191 39.0924L34.2745 36.9562C34.2745 36.9297 34.2612 36.9031 34.2214 36.9031ZM27.7861 38.429C27.6136 38.0707 27.5871 37.8186 27.5606 37.4073C27.5473 37.2481 27.534 37.0889 27.5207 36.9297C27.5075 36.6776 27.4809 36.4387 27.4677 36.1866C27.4411 35.9213 27.4279 35.6559 27.4013 35.3772C27.3748 35.1119 27.3615 34.8465 27.335 34.5811C27.3217 34.329 27.2952 34.0637 27.2819 33.8116C27.2686 33.5727 27.2421 33.3206 27.2288 33.0818C27.2023 32.8164 27.189 32.5511 27.1758 32.2724C27.1758 32.2193 27.1625 32.153 27.1625 32.1397C27.1492 32.1265 27.0696 32.1265 27.0298 32.1265C26.2337 32.1265 25.4376 32.1265 24.6282 32.1265C24.6017 32.1265 24.5751 32.1265 24.5619 32.1265C24.5088 32.1265 24.5088 32.1397 24.5088 32.1795C24.522 32.3388 24.5353 32.5112 24.5486 32.6705C24.5751 33.0287 24.6017 33.387 24.6282 33.7452C24.6547 34.0239 24.668 34.3025 24.6945 34.5811C24.7211 34.9659 24.7609 35.3507 24.7874 35.7355C24.8272 36.1734 24.8538 36.6112 24.8936 37.0491C24.9068 37.2348 24.9201 37.4206 24.9466 37.6064C24.9997 38.0177 25.0793 38.429 25.1855 38.8403C25.3314 39.3976 25.5172 39.9416 25.756 40.4723C25.9285 40.8306 26.1275 41.1756 26.3797 41.4808C26.4062 41.5073 26.446 41.5604 26.4593 41.5604C26.4725 41.5604 26.4725 41.5471 26.4858 41.5338C26.645 41.2154 27.7198 38.774 27.7994 38.6148C27.8392 38.4953 27.8392 38.5219 27.7861 38.429ZM18.2593 32.1397C18.2327 32.1397 18.2062 32.1397 18.1929 32.1397C17.3968 32.1397 16.6007 32.1397 15.7913 32.1397C15.7648 32.1397 15.7117 32.1397 15.6852 32.1397C15.6719 32.1397 15.6719 32.153 15.6719 32.153C15.6719 32.1663 15.6586 32.2326 15.6586 32.2857C15.6321 32.5511 15.6188 32.8164 15.6056 33.0951C15.5923 33.3339 15.5657 33.586 15.5525 33.8248C15.5259 34.0769 15.5127 34.3423 15.4994 34.5944C15.4729 34.8598 15.4596 35.1251 15.4331 35.3905C15.4065 35.6559 15.3933 35.9213 15.3667 36.1999C15.3535 36.452 15.3269 36.6908 15.3136 36.9429C15.2738 37.0889 15.2606 37.2481 15.2606 37.4073C15.2473 37.8054 15.2075 38.0575 15.035 38.429C14.9952 38.5219 14.9819 38.4953 15.035 38.6148C15.1146 38.774 16.1761 41.1623 16.3486 41.5206C16.3619 41.5471 16.3619 41.5604 16.3751 41.5604C16.3884 41.5604 16.4282 41.5206 16.4547 41.494C16.6936 41.1756 16.9059 40.8439 17.0784 40.4856C17.3305 39.9681 17.5162 39.4241 17.6489 38.8536C17.7551 38.4555 17.8347 38.0442 17.8878 37.6196C17.9143 37.4339 17.9276 37.2481 17.9408 37.0623C17.9806 36.6245 18.0072 36.1866 18.047 35.7488C18.0735 35.364 18.1133 34.9792 18.1399 34.5944C18.1664 34.3158 18.1797 34.0371 18.2062 33.7585C18.2327 33.4002 18.2593 33.042 18.2858 32.6837C18.2991 32.5245 18.3123 32.352 18.3256 32.1928C18.3123 32.153 18.3123 32.1397 18.2593 32.1397ZM33.1466 40.1406C32.8149 40.1406 30.891 40.1406 30.3337 40.1406C29.9224 40.1406 29.458 40.061 29.0599 39.9283C29.0334 39.9151 29.0201 39.9283 29.0068 39.9549L27.8127 42.5422C27.7994 42.5688 27.8127 42.582 27.8259 42.5953C28.0117 42.7015 28.3832 42.8076 28.6486 42.8076C28.8476 42.8076 28.8343 42.8076 29.0334 42.8076C29.8162 42.8076 31.7269 42.8076 31.9525 42.8076C31.9657 42.8076 31.979 42.7943 31.9923 42.7811L33.1732 40.1937C33.1997 40.1672 33.1864 40.1406 33.1466 40.1406ZM52.3197 32.0867C52.3197 32.0999 52.333 32.1132 52.3463 32.1132C52.3728 32.1132 52.3994 32.1132 52.4259 32.1132C52.6382 32.1132 52.8372 32.1132 53.0495 32.1132C53.2485 32.1132 53.4343 32.1132 53.6333 32.1132C53.7262 32.1132 53.8191 32.0999 53.912 32.0867C54.6417 31.9274 55.0796 31.2242 54.9337 30.4944C54.7877 29.8443 54.1773 29.3666 53.4608 29.4595C52.7974 29.5524 52.3065 30.1096 52.3065 30.7863C52.3065 31.1977 52.3065 31.609 52.3065 32.0203C52.3197 32.0469 52.3197 32.0601 52.3197 32.0867Z" fill="#FF2442"/>
</g>
</g>
</g>
<defs>
<clipPath id="clip0_388_13678">
<rect width="70" height="71" fill="white"/>
</clipPath>
</defs>
</svg>
