<?xml version="1.0" encoding="UTF-8"?>
<svg width="1152px" height="802px" viewBox="0 0 1152 802" version="1.1" xmlns="http://www.w3.org/2000/svg" xmlns:xlink="http://www.w3.org/1999/xlink">
    <title>Group 4</title>
    <g id="我的网页" stroke="none" stroke-width="1" fill="none" fill-rule="evenodd">
        <g id="project-2" transform="translate(-414.000000, -3692.000000)">
            <g id="Group-4" transform="translate(414.000000, 3692.000000)">
                <rect id="Rectangle-Copy-4" fill="#F6F7F7" x="0" y="0" width="1152" height="802"></rect>
                <g id="Group-36" transform="translate(35.000000, 43.000000)">
                    <g id="Group-16" transform="translate(0.000000, 94.000000)" fill="#FFFFFF">
                        <rect id="Rectangle" x="0" y="0" width="1083" height="632"></rect>
                    </g>
                    <g id="Group-15" transform="translate(389.500000, 0.000000)">
                        <rect id="Rectangle" stroke="#555555" fill="#FFFFFF" x="1.31540348e-14" y="0" width="145.879747" height="48" rx="24"></rect>
                        <text id="快速验证" font-family="PingFangSC-Regular, PingFang SC" font-size="20" font-weight="normal" fill="#555555">
                            <tspan x="32.9398734" y="31">快速验证</tspan>
                        </text>
                    </g>
                    <g id="Group-63" transform="translate(232.000000, 0.000000)">
                        <rect id="Rectangle" stroke="#555555" fill="#FFFFFF" x="-3.69482223e-13" y="0" width="145.879747" height="48" rx="24"></rect>
                        <text id="快速落地" font-family="PingFangSC-Regular, PingFang SC" font-size="20" font-weight="normal" fill="#555555">
                            <tspan x="32.9398734" y="31">快速落地</tspan>
                        </text>
                    </g>
                    <g id="Group-14" transform="translate(547.000000, 0.000000)">
                        <rect id="Rectangle" stroke="#555555" fill="#FFFFFF" x="-3.94621045e-14" y="0" width="145.879747" height="48" rx="24"></rect>
                        <text id="需求保真" font-family="PingFangSC-Regular, PingFang SC" font-size="20" font-weight="normal" fill="#555555">
                            <tspan x="32.9398734" y="31">需求保真</tspan>
                        </text>
                    </g>
                    <g id="Group-7" transform="translate(704.500000, 0.000000)">
                        <rect id="Rectangle" stroke="#555555" fill="#FFFFFF" x="-3.94621045e-14" y="0" width="145.879747" height="48" rx="24"></rect>
                        <text id="需求响应" font-family="PingFangSC-Regular, PingFang SC" font-size="20" font-weight="normal" fill="#555555">
                            <tspan x="32.9398734" y="31">需求响应</tspan>
                        </text>
                    </g>
                </g>
                <g id="Group-17" transform="translate(29.000000, 154.000000)" font-family="PingFangSC-Semibold, PingFang SC" font-weight="500">
                    <text id="Design-Thinking-+-Le" font-size="36">
                        <tspan x="188.566" y="38" fill="#6AF0D5">Design Thinking</tspan>
                        <tspan x="464.398" y="38" fill="#FFFFFF">      </tspan>
                        <tspan x="536.326" y="38" fill="#000000">+</tspan>
                        <tspan x="558.106" y="38" fill="#FFFFFF">      </tspan>
                        <tspan x="630.034" y="38" fill="#16ADFB">Lean Startup</tspan>
                    </text>
                    <text id="设计思维-移情，定义和构思" font-size="20">
                        <tspan x="190" y="80" fill="#555555">设计思维 </tspan>
                        <tspan x="276.66" y="80" fill="#6AF0D5">移情，定义和构思</tspan>
                    </text>
                    <text id="精益起步将-想法迅速转变为可执行的业务模" font-size="20">
                        <tspan x="632" y="80" fill="#555555">精益起步将 </tspan>
                        <tspan x="738.66" y="80" fill="#16ADFB">想法迅速转变为可执行的业务模式</tspan>
                    </text>
                </g>
                <g id="Group-32" transform="translate(56.000000, 267.000000)">
                    <line x1="1.50193237" y1="247.5" x2="1039.49807" y2="247.5" id="Line" stroke-opacity="0.197251967" stroke="#000000" stroke-linecap="square" stroke-dasharray="5"></line>
                    <line x1="1.50193237" y1="83.5" x2="1039.49807" y2="83.5" id="Line-Copy-2" stroke-opacity="0.197251967" stroke="#000000" stroke-linecap="square" stroke-dasharray="5"></line>
                    <line x1="1.50193237" y1="420.5" x2="1039.49807" y2="420.5" id="Line-Copy" stroke-opacity="0.197251967" stroke="#000000" stroke-linecap="square" stroke-dasharray="5"></line>
                    <text id="创意-产品迭代方向-产品规划-服务规划" font-family="PingFangSC-Semibold, PingFang SC" font-size="24" font-weight="500">
                        <tspan x="487" y="25" fill="#6AF0D5">创意</tspan>
                        <tspan x="535" y="25" font-size="16" fill="#6AF0D5"></tspan>
                        <tspan x="487" y="58" font-family="PingFangSC-Regular, PingFang SC" font-size="16" font-weight="normal" fill="#000000">产品迭代方向</tspan>
                        <tspan x="487" y="80" font-family="PingFangSC-Regular, PingFang SC" font-size="16" font-weight="normal" fill="#000000">产品规划</tspan>
                        <tspan x="487" y="102" font-family="PingFangSC-Regular, PingFang SC" font-size="16" font-weight="normal" fill="#000000">服务规划</tspan>
                        <tspan x="487" y="124" font-family="PingFangSC-Regular, PingFang SC" font-size="16" font-weight="normal" fill="#000000">产品矩阵</tspan>
                    </text>
                    <text id="原型-信息架构-原型设计-新手引导-用户" font-family="PingFangSC-Semibold, PingFang SC" font-size="24" font-weight="500">
                        <tspan x="556" y="255" fill="#16ADFB">原型</tspan>
                        <tspan x="604" y="255" font-size="16" fill="#6AF0D5"></tspan>
                        <tspan x="556" y="288" font-family="PingFangSC-Regular, PingFang SC" font-size="16" font-weight="normal" fill="#000000">信息架构</tspan>
                        <tspan x="556" y="310" font-family="PingFangSC-Regular, PingFang SC" font-size="16" font-weight="normal" fill="#000000">原型设计</tspan>
                        <tspan x="556" y="332" font-family="PingFangSC-Regular, PingFang SC" font-size="16" font-weight="normal" fill="#000000">新手引导</tspan>
                        <tspan x="556" y="354" font-family="PingFangSC-Regular, PingFang SC" font-size="16" font-weight="normal" fill="#000000">用户反馈机制</tspan>
                    </text>
                    <text id="度量-UAT测试机制-问题走查跟踪" font-family="PingFangSC-Semibold, PingFang SC" font-size="24" font-weight="500">
                        <tspan x="790" y="392" fill="#16ADFB">度量</tspan>
                        <tspan x="838" y="392" font-size="16" fill="#6AF0D5"></tspan>
                        <tspan x="790" y="425" font-family="PingFangSC-Regular, PingFang SC" font-size="16" font-weight="normal" fill="#000000">UAT测试机制</tspan>
                        <tspan x="790" y="447" font-family="PingFangSC-Regular, PingFang SC" font-size="16" font-weight="normal" fill="#000000">问题走查跟踪</tspan>
                    </text>
                    <text id="开发" font-family="PingFangSC-Regular, PingFang SC" font-size="16" font-weight="normal" fill="#000000">
                        <tspan x="854" y="256">开发</tspan>
                    </text>
                    <text id="抽象" transform="translate(26.000000, 114.000000) rotate(-90.000000) translate(-26.000000, -114.000000) " font-family="PingFangSC-Regular, PingFang SC" font-size="20" font-weight="normal" fill="#000000">
                        <tspan x="6" y="121">抽象</tspan>
                    </text>
                    <text id="具象" transform="translate(26.000000, 391.000000) rotate(-90.000000) translate(-26.000000, -391.000000) " font-family="PingFangSC-Regular, PingFang SC" font-size="20" font-weight="normal" fill="#000000">
                        <tspan x="6" y="398">具象</tspan>
                    </text>
                    <path d="M668.5,413 C758.798557,413 832,339.798557 832,249.5 C832,159.201443 758.798557,86 668.5,86 C578.201443,86 505,159.201443 505,249.5 C505,339.798557 578.201443,413 668.5,413 Z" id="Oval" stroke="#16ADFB" stroke-width="4" stroke-dasharray="10"></path>
                    <path d="M114,413 C260,413 301,339 328,247 C355,155 395,86 430,86 C465,86 505,167 505,249" id="Path-2" stroke="#6AF0D5" stroke-width="4" stroke-linecap="round" stroke-dasharray="10"></path>
                    <g id="Group-13" transform="translate(410.000000, 65.000000)"></g>
                    <g id="Group-13-Copy-3" transform="translate(485.000000, 228.000000)">
                        <circle id="Oval" stroke="#16ADFB" stroke-width="5" fill="#FFFFFF" cx="20" cy="20" r="20"></circle>
                        <text id="4" font-family="PingFangSC-Semibold, PingFang SC" font-size="20" font-weight="500" fill="#16ADFB">
                            <tspan x="14" y="27">4</tspan>
                        </text>
                    </g>
                    <g id="Group-13-Copy-4" transform="translate(736.000000, 361.000000)">
                        <circle id="Oval" stroke="#16ADFB" stroke-width="5" fill="#FFFFFF" cx="20" cy="20" r="20"></circle>
                        <text id="5" font-family="PingFangSC-Semibold, PingFang SC" font-size="20" font-weight="500" fill="#16ADFB">
                            <tspan x="14" y="27">5</tspan>
                        </text>
                    </g>
                    <polygon id="Triangle" stroke="#16ADFB" stroke-width="5" fill="#FFFFFF" transform="translate(832.000000, 248.000000) scale(1, -1) translate(-832.000000, -248.000000) " points="832 238 842 258 822 258"></polygon>
                    <g id="Group-19" transform="translate(220.000000, 361.000000)">
                        <text id="移情-线下走访-线上访谈" font-family="PingFangSC-Semibold, PingFang SC" font-size="24" font-weight="500">
                            <tspan x="62" y="32" fill="#6AF0D5">移情</tspan>
                            <tspan x="110" y="32" font-size="16" fill="#6AF0D5"></tspan>
                            <tspan x="62" y="65" font-family="PingFangSC-Regular, PingFang SC" font-size="16" font-weight="normal" fill="#000000">线下走访</tspan>
                            <tspan x="62" y="87" font-family="PingFangSC-Regular, PingFang SC" font-size="16" font-weight="normal" fill="#000000">线上访谈</tspan>
                        </text>
                        <g id="Group-13-Copy-2">
                            <circle id="Oval" stroke="#6AF0D5" stroke-width="5" fill="#FFFFFF" cx="20" cy="20" r="20"></circle>
                            <text id="1" font-family="PingFangSC-Semibold, PingFang SC" font-size="20" font-weight="500" fill="#6AF0D5">
                                <tspan x="16" y="27">1</tspan>
                            </text>
                        </g>
                    </g>
                    <g id="Group-18" transform="translate(310.000000, 230.000000)">
                        <text id="定义-建立用户画像-定义解决体验思路" font-family="PingFangSC-Semibold, PingFang SC" font-size="24" font-weight="500">
                            <tspan x="60" y="25" fill="#6AF0D5">定义</tspan>
                            <tspan x="108" y="25" font-size="16" fill="#6AF0D5"></tspan>
                            <tspan x="60" y="58" font-family="PingFangSC-Regular, PingFang SC" font-size="16" font-weight="normal" fill="#000000">建立用户画像</tspan>
                            <tspan x="60" y="80" font-family="PingFangSC-Regular, PingFang SC" font-size="16" font-weight="normal" fill="#000000">定义解决体验思路</tspan>
                        </text>
                        <g id="Group-13-Copy">
                            <circle id="Oval" stroke="#6AF0D5" stroke-width="5" fill="#FFFFFF" cx="20" cy="20" r="20"></circle>
                            <text id="2" font-family="PingFangSC-Semibold, PingFang SC" font-size="20" font-weight="500" fill="#6AF0D5">
                                <tspan x="14" y="27">2</tspan>
                            </text>
                        </g>
                    </g>
                    <path id="Line-Copy-2" d="M1.5,461.5 L1.5,467.5 L0.5,467.5 L0.5,461.5 L1.5,461.5 Z M1.5,451.5 L1.5,457.5 L0.5,457.5 L0.5,451.5 L1.5,451.5 Z M1.5,441.5 L1.5,447.5 L0.5,447.5 L0.5,441.5 L1.5,441.5 Z M1.5,431.5 L1.5,437.5 L0.5,437.5 L0.5,431.5 L1.5,431.5 Z M1.5,421.5 L1.5,427.5 L0.5,427.5 L0.5,421.5 L1.5,421.5 Z M1.5,411.5 L1.5,417.5 L0.5,417.5 L0.5,411.5 L1.5,411.5 Z M1.5,401.5 L1.5,407.5 L0.5,407.5 L0.5,401.5 L1.5,401.5 Z M1.5,391.5 L1.5,397.5 L0.5,397.5 L0.5,391.5 L1.5,391.5 Z M1.5,381.5 L1.5,387.5 L0.5,387.5 L0.5,381.5 L1.5,381.5 Z M1.5,371.5 L1.5,377.5 L0.5,377.5 L0.5,371.5 L1.5,371.5 Z M1.5,361.5 L1.5,367.5 L0.5,367.5 L0.5,361.5 L1.5,361.5 Z M1.5,351.5 L1.5,357.5 L0.5,357.5 L0.5,351.5 L1.5,351.5 Z M1.5,341.5 L1.5,347.5 L0.5,347.5 L0.5,341.5 L1.5,341.5 Z M1.5,331.5 L1.5,337.5 L0.5,337.5 L0.5,331.5 L1.5,331.5 Z M1.5,321.5 L1.5,327.5 L0.5,327.5 L0.5,321.5 L1.5,321.5 Z M1.5,311.5 L1.5,317.5 L0.5,317.5 L0.5,311.5 L1.5,311.5 Z M1.5,301.5 L1.5,307.5 L0.5,307.5 L0.5,301.5 L1.5,301.5 Z M1.5,291.5 L1.5,297.5 L0.5,297.5 L0.5,291.5 L1.5,291.5 Z M1.5,281.5 L1.5,287.5 L0.5,287.5 L0.5,281.5 L1.5,281.5 Z M1.5,271.5 L1.5,277.5 L0.5,277.5 L0.5,271.5 L1.5,271.5 Z M1.5,261.5 L1.5,267.5 L0.5,267.5 L0.5,261.5 L1.5,261.5 Z M1.5,251.5 L1.5,257.5 L0.5,257.5 L0.5,251.5 L1.5,251.5 Z M1.5,241.5 L1.5,247.5 L0.5,247.5 L0.5,241.5 L1.5,241.5 Z M1.5,231.5 L1.5,237.5 L0.5,237.5 L0.5,231.5 L1.5,231.5 Z M1.5,221.5 L1.5,227.5 L0.5,227.5 L0.5,221.5 L1.5,221.5 Z M1.5,211.5 L1.5,217.5 L0.5,217.5 L0.5,211.5 L1.5,211.5 Z M1.5,201.5 L1.5,207.5 L0.5,207.5 L0.5,201.5 L1.5,201.5 Z M1.5,191.5 L1.5,197.5 L0.5,197.5 L0.5,191.5 L1.5,191.5 Z M1.5,181.5 L1.5,187.5 L0.5,187.5 L0.5,181.5 L1.5,181.5 Z M1.5,171.5 L1.5,177.5 L0.5,177.5 L0.5,171.5 L1.5,171.5 Z M1.5,161.5 L1.5,167.5 L0.5,167.5 L0.5,161.5 L1.5,161.5 Z M1.5,151.5 L1.5,157.5 L0.5,157.5 L0.5,151.5 L1.5,151.5 Z M1.5,141.5 L1.5,147.5 L0.5,147.5 L0.5,141.5 L1.5,141.5 Z M1.5,131.5 L1.5,137.5 L0.5,137.5 L0.5,131.5 L1.5,131.5 Z M1.5,121.5 L1.5,127.5 L0.5,127.5 L0.5,121.5 L1.5,121.5 Z M1.5,111.5 L1.5,117.5 L0.5,117.5 L0.5,111.5 L1.5,111.5 Z M1.5,101.5 L1.5,107.5 L0.5,107.5 L0.5,101.5 L1.5,101.5 Z M1.5,91.5 L1.5,97.5 L0.5,97.5 L0.5,91.5 L1.5,91.5 Z M1.5,81.5 L1.5,87.5 L0.5,87.5 L0.5,81.5 L1.5,81.5 Z M1.5,71.5 L1.5,77.5 L0.5,77.5 L0.5,71.5 L1.5,71.5 Z M1.5,61.5 L1.5,67.5 L0.5,67.5 L0.5,61.5 L1.5,61.5 Z M1.5,51.5 L1.5,57.5 L0.5,57.5 L0.5,51.5 L1.5,51.5 Z M1,33.5 L5.5,42.5 L1.5,42.5 L1.5,47.5 L0.5,47.5 L0.5,42.5 L-3.5,42.5 L1,33.5 Z" fill-opacity="0.197251967" fill="#000000" fill-rule="nonzero"></path>
                    <path id="Line-Copy" d="M1031.80741,465.319082 L1032.2432,465.564212 L1040.2432,470.064212 L1041.01793,470.5 L1040.2432,470.935788 L1032.2432,475.435788 L1031.80741,475.680918 L1031.31715,474.809343 L1031.75294,474.564212 L1038.978,470.5 L1031.75294,466.435788 L1031.31715,466.190657 L1031.80741,465.319082 Z M7.00193237,470 L7.00193237,471 L1.00193237,471 L1.00193237,470 L7.00193237,470 Z M17.0019324,470 L17.0019324,471 L11.0019324,471 L11.0019324,470 L17.0019324,470 Z M27.0019324,470 L27.0019324,471 L21.0019324,471 L21.0019324,470 L27.0019324,470 Z M37.0019324,470 L37.0019324,471 L31.0019324,471 L31.0019324,470 L37.0019324,470 Z M47.0019324,470 L47.0019324,471 L41.0019324,471 L41.0019324,470 L47.0019324,470 Z M57.0019324,470 L57.0019324,471 L51.0019324,471 L51.0019324,470 L57.0019324,470 Z M67.0019324,470 L67.0019324,471 L61.0019324,471 L61.0019324,470 L67.0019324,470 Z M77.0019324,470 L77.0019324,471 L71.0019324,471 L71.0019324,470 L77.0019324,470 Z M87.0019324,470 L87.0019324,471 L81.0019324,471 L81.0019324,470 L87.0019324,470 Z M97.0019324,470 L97.0019324,471 L91.0019324,471 L91.0019324,470 L97.0019324,470 Z M107.001932,470 L107.001932,471 L101.001932,471 L101.001932,470 L107.001932,470 Z M117.001932,470 L117.001932,471 L111.001932,471 L111.001932,470 L117.001932,470 Z M127.001932,470 L127.001932,471 L121.001932,471 L121.001932,470 L127.001932,470 Z M137.001932,470 L137.001932,471 L131.001932,471 L131.001932,470 L137.001932,470 Z M147.001932,470 L147.001932,471 L141.001932,471 L141.001932,470 L147.001932,470 Z M157.001932,470 L157.001932,471 L151.001932,471 L151.001932,470 L157.001932,470 Z M167.001932,470 L167.001932,471 L161.001932,471 L161.001932,470 L167.001932,470 Z M177.001932,470 L177.001932,471 L171.001932,471 L171.001932,470 L177.001932,470 Z M187.001932,470 L187.001932,471 L181.001932,471 L181.001932,470 L187.001932,470 Z M197.001932,470 L197.001932,471 L191.001932,471 L191.001932,470 L197.001932,470 Z M207.001932,470 L207.001932,471 L201.001932,471 L201.001932,470 L207.001932,470 Z M217.001932,470 L217.001932,471 L211.001932,471 L211.001932,470 L217.001932,470 Z M227.001932,470 L227.001932,471 L221.001932,471 L221.001932,470 L227.001932,470 Z M237.001932,470 L237.001932,471 L231.001932,471 L231.001932,470 L237.001932,470 Z M247.001932,470 L247.001932,471 L241.001932,471 L241.001932,470 L247.001932,470 Z M257.001932,470 L257.001932,471 L251.001932,471 L251.001932,470 L257.001932,470 Z M267.001932,470 L267.001932,471 L261.001932,471 L261.001932,470 L267.001932,470 Z M277.001932,470 L277.001932,471 L271.001932,471 L271.001932,470 L277.001932,470 Z M287.001932,470 L287.001932,471 L281.001932,471 L281.001932,470 L287.001932,470 Z M297.001932,470 L297.001932,471 L291.001932,471 L291.001932,470 L297.001932,470 Z M307.001932,470 L307.001932,471 L301.001932,471 L301.001932,470 L307.001932,470 Z M317.001932,470 L317.001932,471 L311.001932,471 L311.001932,470 L317.001932,470 Z M327.001932,470 L327.001932,471 L321.001932,471 L321.001932,470 L327.001932,470 Z M337.001932,470 L337.001932,471 L331.001932,471 L331.001932,470 L337.001932,470 Z M347.001932,470 L347.001932,471 L341.001932,471 L341.001932,470 L347.001932,470 Z M357.001932,470 L357.001932,471 L351.001932,471 L351.001932,470 L357.001932,470 Z M367.001932,470 L367.001932,471 L361.001932,471 L361.001932,470 L367.001932,470 Z M377.001932,470 L377.001932,471 L371.001932,471 L371.001932,470 L377.001932,470 Z M387.001932,470 L387.001932,471 L381.001932,471 L381.001932,470 L387.001932,470 Z M397.001932,470 L397.001932,471 L391.001932,471 L391.001932,470 L397.001932,470 Z M407.001932,470 L407.001932,471 L401.001932,471 L401.001932,470 L407.001932,470 Z M417.001932,470 L417.001932,471 L411.001932,471 L411.001932,470 L417.001932,470 Z M427.001932,470 L427.001932,471 L421.001932,471 L421.001932,470 L427.001932,470 Z M437.001932,470 L437.001932,471 L431.001932,471 L431.001932,470 L437.001932,470 Z M447.001932,470 L447.001932,471 L441.001932,471 L441.001932,470 L447.001932,470 Z M457.001932,470 L457.001932,471 L451.001932,471 L451.001932,470 L457.001932,470 Z M467.001932,470 L467.001932,471 L461.001932,471 L461.001932,470 L467.001932,470 Z M477.001932,470 L477.001932,471 L471.001932,471 L471.001932,470 L477.001932,470 Z M487.001932,470 L487.001932,471 L481.001932,471 L481.001932,470 L487.001932,470 Z M497.001932,470 L497.001932,471 L491.001932,471 L491.001932,470 L497.001932,470 Z M507.001932,470 L507.001932,471 L501.001932,471 L501.001932,470 L507.001932,470 Z M517.001932,470 L517.001932,471 L511.001932,471 L511.001932,470 L517.001932,470 Z M527.001932,470 L527.001932,471 L521.001932,471 L521.001932,470 L527.001932,470 Z M537.001932,470 L537.001932,471 L531.001932,471 L531.001932,470 L537.001932,470 Z M547.001932,470 L547.001932,471 L541.001932,471 L541.001932,470 L547.001932,470 Z M557.001932,470 L557.001932,471 L551.001932,471 L551.001932,470 L557.001932,470 Z M567.001932,470 L567.001932,471 L561.001932,471 L561.001932,470 L567.001932,470 Z M577.001932,470 L577.001932,471 L571.001932,471 L571.001932,470 L577.001932,470 Z M587.001932,470 L587.001932,471 L581.001932,471 L581.001932,470 L587.001932,470 Z M597.001932,470 L597.001932,471 L591.001932,471 L591.001932,470 L597.001932,470 Z M607.001932,470 L607.001932,471 L601.001932,471 L601.001932,470 L607.001932,470 Z M617.001932,470 L617.001932,471 L611.001932,471 L611.001932,470 L617.001932,470 Z M627.001932,470 L627.001932,471 L621.001932,471 L621.001932,470 L627.001932,470 Z M637.001932,470 L637.001932,471 L631.001932,471 L631.001932,470 L637.001932,470 Z M647.001932,470 L647.001932,471 L641.001932,471 L641.001932,470 L647.001932,470 Z M657.001932,470 L657.001932,471 L651.001932,471 L651.001932,470 L657.001932,470 Z M667.001932,470 L667.001932,471 L661.001932,471 L661.001932,470 L667.001932,470 Z M677.001932,470 L677.001932,471 L671.001932,471 L671.001932,470 L677.001932,470 Z M687.001932,470 L687.001932,471 L681.001932,471 L681.001932,470 L687.001932,470 Z M697.001932,470 L697.001932,471 L691.001932,471 L691.001932,470 L697.001932,470 Z M707.001932,470 L707.001932,471 L701.001932,471 L701.001932,470 L707.001932,470 Z M717.001932,470 L717.001932,471 L711.001932,471 L711.001932,470 L717.001932,470 Z M727.001932,470 L727.001932,471 L721.001932,471 L721.001932,470 L727.001932,470 Z M737.001932,470 L737.001932,471 L731.001932,471 L731.001932,470 L737.001932,470 Z M747.001932,470 L747.001932,471 L741.001932,471 L741.001932,470 L747.001932,470 Z M757.001932,470 L757.001932,471 L751.001932,471 L751.001932,470 L757.001932,470 Z M767.001932,470 L767.001932,471 L761.001932,471 L761.001932,470 L767.001932,470 Z M777.001932,470 L777.001932,471 L771.001932,471 L771.001932,470 L777.001932,470 Z M787.001932,470 L787.001932,471 L781.001932,471 L781.001932,470 L787.001932,470 Z M797.001932,470 L797.001932,471 L791.001932,471 L791.001932,470 L797.001932,470 Z M807.001932,470 L807.001932,471 L801.001932,471 L801.001932,470 L807.001932,470 Z M817.001932,470 L817.001932,471 L811.001932,471 L811.001932,470 L817.001932,470 Z M827.001932,470 L827.001932,471 L821.001932,471 L821.001932,470 L827.001932,470 Z M837.001932,470 L837.001932,471 L831.001932,471 L831.001932,470 L837.001932,470 Z M847.001932,470 L847.001932,471 L841.001932,471 L841.001932,470 L847.001932,470 Z M857.001932,470 L857.001932,471 L851.001932,471 L851.001932,470 L857.001932,470 Z M867.001932,470 L867.001932,471 L861.001932,471 L861.001932,470 L867.001932,470 Z M877.001932,470 L877.001932,471 L871.001932,471 L871.001932,470 L877.001932,470 Z M887.001932,470 L887.001932,471 L881.001932,471 L881.001932,470 L887.001932,470 Z M897.001932,470 L897.001932,471 L891.001932,471 L891.001932,470 L897.001932,470 Z M907.001932,470 L907.001932,471 L901.001932,471 L901.001932,470 L907.001932,470 Z M917.001932,470 L917.001932,471 L911.001932,471 L911.001932,470 L917.001932,470 Z M927.001932,470 L927.001932,471 L921.001932,471 L921.001932,470 L927.001932,470 Z M937.001932,470 L937.001932,471 L931.001932,471 L931.001932,470 L937.001932,470 Z M947.001932,470 L947.001932,471 L941.001932,471 L941.001932,470 L947.001932,470 Z M957.001932,470 L957.001932,471 L951.001932,471 L951.001932,470 L957.001932,470 Z M967.001932,470 L967.001932,471 L961.001932,471 L961.001932,470 L967.001932,470 Z M977.001932,470 L977.001932,471 L971.001932,471 L971.001932,470 L977.001932,470 Z M987.001932,470 L987.001932,471 L981.001932,471 L981.001932,470 L987.001932,470 Z M997.001932,470 L997.001932,471 L991.001932,471 L991.001932,470 L997.001932,470 Z M1007.00193,470 L1007.00193,471 L1001.00193,471 L1001.00193,470 L1007.00193,470 Z M1017.00193,470 L1017.00193,471 L1011.00193,471 L1011.00193,470 L1017.00193,470 Z M1027.00193,470 L1027.00193,471 L1021.00193,471 L1021.00193,470 L1027.00193,470 Z M1037.00193,470 L1037.00193,471 L1031.00193,471 L1031.00193,470 L1037.00193,470 Z" fill-opacity="0.197251967" fill="#000000" fill-rule="nonzero"></path>
                </g>
            </g>
        </g>
    </g>
</svg>