<?xml version="1.0" encoding="UTF-8"?>
<svg width="1152px" height="784px" viewBox="0 0 1152 784" version="1.1" xmlns="http://www.w3.org/2000/svg" xmlns:xlink="http://www.w3.org/1999/xlink">
    <title>Group 4</title>
    <g id="我的网页-0311" stroke="none" stroke-width="1" fill="none" fill-rule="evenodd">
        <g id="project-2" transform="translate(-414.000000, -3967.000000)">
            <g id="Group-4" transform="translate(414.000000, 3967.000000)">
                <rect id="Rectangle-Copy-4" fill="#F6F7F7" x="0" y="0" width="1152" height="784"></rect>
                <g id="Group-86" transform="translate(115.000000, 60.000000)">
                    <rect id="Rectangle" fill="#FFFFFF" x="0" y="0" width="350" height="130" rx="20"></rect>
                    <rect id="Rectangle-Copy-20" fill="#FFFFFF" x="446" y="0" width="475" height="130" rx="20"></rect>
                    <text id="Design-Thinking-+-Le" font-family="PingFangSC-Semibold, PingFang SC" font-size="36" font-weight="500">
                        <tspan x="36.566" y="56" fill="#6AF0D5">Design Thinking</tspan>
                        <tspan x="312.398" y="56" fill="#FFFFFF">      </tspan>
                        <tspan x="384.326" y="56" fill="#000000">+</tspan>
                        <tspan x="406.106" y="56" fill="#FFFFFF">      </tspan>
                        <tspan x="478.034" y="56" fill="#16ADFB">Lean Startup</tspan>
                    </text>
                    <text id="设计思维-移情，定义和构思" font-family="PingFangSC-Semibold, PingFang SC" font-size="20" font-weight="500">
                        <tspan x="39" y="98" fill="#555555">设计思维 </tspan>
                        <tspan x="125.66" y="98" fill="#6AF0D5">移情，定义和构思</tspan>
                    </text>
                    <text id="精益起步将-想法迅速转变为可执行的业务模" font-family="PingFangSC-Semibold, PingFang SC" font-size="20" font-weight="500">
                        <tspan x="481" y="98" fill="#555555">精益起步将 </tspan>
                        <tspan x="587.66" y="98" fill="#16ADFB">想法迅速转变为可执行的业务模式</tspan>
                    </text>
                </g>
                <g id="Group-93" transform="translate(115.000000, 250.000000)">
                    <g id="Group-38">
                        <g id="Group-32">
                            <line x1="1.44396135" y1="254.5" x2="919.556039" y2="254.5" id="Line" stroke-opacity="0.197251967" stroke="#000000" opacity="0.2" stroke-linecap="square" stroke-dasharray="5"></line>
                            <line x1="1.44396135" y1="90.5" x2="919.556039" y2="90.5" id="Line-Copy-2" stroke-opacity="0.197251967" stroke="#000000" opacity="0.2" stroke-linecap="square" stroke-dasharray="5"></line>
                            <line x1="1.50193237" y1="427.5" x2="919.5" y2="427.5" id="Line-Copy" stroke-opacity="0.197251967" stroke="#000000" opacity="0.2" stroke-linecap="square" stroke-dasharray="5"></line>
                            <text id="创意-产品迭代方向-产品规划-服务规划" font-family="PingFangSC-Semibold, PingFang SC" font-size="24" font-weight="500">
                                <tspan x="487" y="32" fill="#6AF0D5">创意</tspan>
                                <tspan x="535" y="32" font-size="16" fill="#6AF0D5"></tspan>
                                <tspan x="487" y="65" font-family="PingFangSC-Regular, PingFang SC" font-size="16" font-weight="normal" fill="#000000">产品迭代方向</tspan>
                                <tspan x="487" y="87" font-family="PingFangSC-Regular, PingFang SC" font-size="16" font-weight="normal" fill="#000000">产品规划</tspan>
                                <tspan x="487" y="109" font-family="PingFangSC-Regular, PingFang SC" font-size="16" font-weight="normal" fill="#000000">服务规划</tspan>
                                <tspan x="487" y="131" font-family="PingFangSC-Regular, PingFang SC" font-size="16" font-weight="normal" fill="#000000">产品矩阵</tspan>
                            </text>
                            <text id="原型-信息架构-原型设计-新手引导-用户" font-family="PingFangSC-Semibold, PingFang SC" font-size="24" font-weight="500">
                                <tspan x="556" y="262" fill="#16ADFB">原型</tspan>
                                <tspan x="604" y="262" font-size="16" fill="#6AF0D5"></tspan>
                                <tspan x="556" y="295" font-family="PingFangSC-Regular, PingFang SC" font-size="16" font-weight="normal" fill="#000000">信息架构</tspan>
                                <tspan x="556" y="317" font-family="PingFangSC-Regular, PingFang SC" font-size="16" font-weight="normal" fill="#000000">原型设计</tspan>
                                <tspan x="556" y="339" font-family="PingFangSC-Regular, PingFang SC" font-size="16" font-weight="normal" fill="#000000">新手引导</tspan>
                                <tspan x="556" y="361" font-family="PingFangSC-Regular, PingFang SC" font-size="16" font-weight="normal" fill="#000000">用户反馈机制</tspan>
                            </text>
                            <text id="度量-UAT测试机制-问题走查跟踪" font-family="PingFangSC-Semibold, PingFang SC" font-size="24" font-weight="500">
                                <tspan x="790" y="399" fill="#16ADFB">度量</tspan>
                                <tspan x="838" y="399" font-size="16" fill="#6AF0D5"></tspan>
                                <tspan x="790" y="432" font-family="PingFangSC-Regular, PingFang SC" font-size="16" font-weight="normal" fill="#000000">UAT测试机制</tspan>
                                <tspan x="790" y="454" font-family="PingFangSC-Regular, PingFang SC" font-size="16" font-weight="normal" fill="#000000">问题走查跟踪</tspan>
                            </text>
                            <text id="开发" font-family="PingFangSC-Regular, PingFang SC" font-size="16" font-weight="normal" fill="#000000">
                                <tspan x="854" y="263">开发</tspan>
                            </text>
                            <text id="抽象" transform="translate(30.000000, 20.000000) rotate(-90.000000) translate(-30.000000, -20.000000) " font-family="PingFangSC-Regular, PingFang SC" font-size="20" font-weight="normal" fill="#000000">
                                <tspan x="10" y="27">抽象</tspan>
                            </text>
                            <text id="具象" transform="translate(30.000000, 440.000000) rotate(-90.000000) translate(-30.000000, -440.000000) " font-family="PingFangSC-Regular, PingFang SC" font-size="20" font-weight="normal" fill="#000000">
                                <tspan x="10" y="447">具象</tspan>
                            </text>
                            <path d="M668.5,420 C758.798557,420 832,346.798557 832,256.5 C832,166.201443 758.798557,93 668.5,93 C578.201443,93 505,166.201443 505,256.5 C505,346.798557 578.201443,420 668.5,420 Z" id="Oval" stroke="#16ADFB" stroke-width="4" stroke-dasharray="10"></path>
                            <path d="M114,420 C260,420 301,346 328,254 C355,162 395,93 430,93 C465,93 505,174 505,256" id="Path-2" stroke="#6AF0D5" stroke-width="4" stroke-linecap="round" stroke-dasharray="10"></path>
                            <g id="Group-13" transform="translate(410.000000, 72.000000)"></g>
                            <g id="Group-13-Copy-3" transform="translate(485.000000, 235.000000)">
                                <circle id="Oval" stroke="#16ADFB" stroke-width="5" fill="#FFFFFF" cx="20" cy="20" r="20"></circle>
                                <text id="4" font-family="PingFangSC-Semibold, PingFang SC" font-size="20" font-weight="500" fill="#16ADFB">
                                    <tspan x="14" y="27">4</tspan>
                                </text>
                            </g>
                            <g id="Group-13-Copy-4" transform="translate(736.000000, 368.000000)">
                                <circle id="Oval" stroke="#16ADFB" stroke-width="5" fill="#FFFFFF" cx="20" cy="20" r="20"></circle>
                                <text id="5" font-family="PingFangSC-Semibold, PingFang SC" font-size="20" font-weight="500" fill="#16ADFB">
                                    <tspan x="14" y="27">5</tspan>
                                </text>
                            </g>
                            <polygon id="Triangle" stroke="#16ADFB" stroke-width="5" fill="#FFFFFF" transform="translate(832.000000, 255.000000) scale(1, -1) translate(-832.000000, -255.000000) " points="832 245 842 265 822 265"></polygon>
                            <g id="Group-19" transform="translate(220.000000, 368.000000)">
                                <text id="移情-线下走访-线上访谈" font-family="PingFangSC-Semibold, PingFang SC" font-size="24" font-weight="500">
                                    <tspan x="62" y="32" fill="#6AF0D5">移情</tspan>
                                    <tspan x="110" y="32" font-size="16" fill="#6AF0D5"></tspan>
                                    <tspan x="62" y="65" font-family="PingFangSC-Regular, PingFang SC" font-size="16" font-weight="normal" fill="#000000">线下走访</tspan>
                                    <tspan x="62" y="87" font-family="PingFangSC-Regular, PingFang SC" font-size="16" font-weight="normal" fill="#000000">线上访谈</tspan>
                                </text>
                                <g id="Group-13-Copy-2">
                                    <circle id="Oval" stroke="#6AF0D5" stroke-width="5" fill="#FFFFFF" cx="20" cy="20" r="20"></circle>
                                    <text id="1" font-family="PingFangSC-Semibold, PingFang SC" font-size="20" font-weight="500" fill="#6AF0D5">
                                        <tspan x="16" y="27">1</tspan>
                                    </text>
                                </g>
                            </g>
                            <g id="Group-18" transform="translate(310.000000, 237.000000)">
                                <text id="定义-建立用户画像-定义解决体验思路" font-family="PingFangSC-Semibold, PingFang SC" font-size="24" font-weight="500">
                                    <tspan x="60" y="25" fill="#6AF0D5">定义</tspan>
                                    <tspan x="108" y="25" font-size="16" fill="#6AF0D5"></tspan>
                                    <tspan x="60" y="58" font-family="PingFangSC-Regular, PingFang SC" font-size="16" font-weight="normal" fill="#000000">建立用户画像</tspan>
                                    <tspan x="60" y="80" font-family="PingFangSC-Regular, PingFang SC" font-size="16" font-weight="normal" fill="#000000">定义解决体验思路</tspan>
                                </text>
                                <g id="Group-13-Copy">
                                    <circle id="Oval" stroke="#6AF0D5" stroke-width="5" fill="#FFFFFF" cx="20" cy="20" r="20"></circle>
                                    <text id="2" font-family="PingFangSC-Semibold, PingFang SC" font-size="20" font-weight="500" fill="#6AF0D5">
                                        <tspan x="14" y="27">2</tspan>
                                    </text>
                                </g>
                            </g>
                            <path id="Line-Copy-2" d="M0.503189845,474.99809 L1.50318928,474.999153 L1.50265793,475.499153 L1.49999972,478.000531 L1.49946837,478.500531 L0.499468933,478.499468 L0.500000282,477.999469 L0.502658496,475.49809 L0.503189845,474.99809 Z M0.513816832,464.998096 L1.51381627,464.999158 L1.51328492,465.499158 L1.50797142,470.499155 L1.50744008,470.999155 L0.50744064,470.998092 L0.507971989,470.498093 L0.513285482,465.498095 L0.513816832,464.998096 Z M0.524443818,454.998101 L1.52444325,454.999164 L1.5239119,455.499164 L1.51859841,460.499161 L1.51806706,460.999161 L0.518067626,460.998098 L0.518598976,460.498098 L0.523912469,455.498101 L0.524443818,454.998101 Z M0.535070805,444.998107 L1.53507024,444.99917 L1.53453889,445.499169 L1.5292254,450.499167 L1.52869405,450.999166 L0.528694613,450.998104 L0.529225962,450.498104 L0.534539455,445.498107 L0.535070805,444.998107 Z M0.545697791,434.998113 L1.54569723,434.999175 L1.54516588,435.499175 L1.53985238,440.499172 L1.53932103,440.999172 L0.539321599,440.998109 L0.539852949,440.49811 L0.545166442,435.498112 L0.545697791,434.998113 Z M0.556324778,424.998118 L1.55632421,424.999181 L1.55579286,425.499181 L1.55047937,430.499178 L1.54994802,430.999178 L0.549948586,430.998115 L0.550479935,430.498115 L0.555793429,425.498118 L0.556324778,424.998118 Z M0.566951764,414.998124 L1.5669512,414.999187 L1.56641985,415.499186 L1.56110636,420.499184 L1.56057501,420.999183 L0.560575573,420.998121 L0.561106922,420.498121 L0.566420415,415.498124 L0.566951764,414.998124 Z M0.577578751,404.99813 L1.57757819,404.999192 L1.57704684,405.499192 L1.57173334,410.499189 L1.57120199,410.999189 L0.571202559,410.998126 L0.571733908,410.498127 L0.577047402,405.498129 L0.577578751,404.99813 Z M0.588205738,394.998135 L1.58820517,394.999198 L1.58767382,395.499198 L1.58236033,400.499195 L1.58182898,400.999195 L0.581829546,400.998132 L0.582360895,400.498132 L0.587674388,395.498135 L0.588205738,394.998135 Z M0.598832724,384.998141 L1.59883216,384.999204 L1.59830081,385.499203 L1.59298732,390.499201 L1.59245597,390.9992 L0.592456532,390.998138 L0.592987882,390.498138 L0.598301375,385.498141 L0.598832724,384.998141 Z M0.609459711,374.998147 L1.60945915,374.999209 L1.6089278,375.499209 L1.6036143,380.499206 L1.60308295,380.999206 L0.603083519,380.998143 L0.603614868,380.498143 L0.608928361,375.498146 L0.609459711,374.998147 Z M0.620086697,364.998152 L1.62008613,364.999215 L1.61955478,365.499215 L1.61424129,370.499212 L1.61370994,370.999212 L0.613710505,370.998149 L0.614241855,370.498149 L0.619555348,365.498152 L0.620086697,364.998152 Z M0.630713684,354.998158 L1.63071312,354.999221 L1.63018177,355.49922 L1.62486828,360.499217 L1.62433693,360.999217 L0.624337492,360.998154 L0.624868841,360.498155 L0.630182334,355.498158 L0.630713684,354.998158 Z M0.64134067,344.998163 L1.64134011,344.999226 L1.64080876,345.499226 L1.63549526,350.499223 L1.63496391,350.999223 L0.634964478,350.99816 L0.635495828,350.49816 L0.640809321,345.498163 L0.64134067,344.998163 Z M0.651967657,334.998169 L1.65196709,334.999232 L1.65143574,335.499232 L1.64612225,340.499229 L1.6455909,340.999228 L0.645591465,340.998166 L0.646122814,340.498166 L0.651436308,335.498169 L0.651967657,334.998169 Z M0.662594644,324.998175 L1.66259408,324.999237 L1.66206273,325.499237 L1.65674924,330.499234 L1.65621789,330.999234 L0.656218452,330.998171 L0.656749801,330.498172 L0.662063294,325.498175 L0.662594644,324.998175 Z M0.67322163,314.99818 L1.67322107,314.999243 L1.67268972,315.499243 L1.66737622,320.49924 L1.66684487,320.99924 L0.666845438,320.998177 L0.667376787,320.498177 L0.672690281,315.49818 L0.67322163,314.99818 Z M0.683848617,304.998186 L1.68384805,304.999249 L1.6833167,305.499248 L1.67800321,310.499246 L1.67747186,310.999245 L0.677472425,310.998183 L0.678003774,310.498183 L0.683317267,305.498186 L0.683848617,304.998186 Z M0.694475603,294.998192 L1.69447504,294.999254 L1.69394369,295.499254 L1.6886302,300.499251 L1.68809885,300.999251 L0.688099411,300.998188 L0.688630761,300.498189 L0.693944254,295.498191 L0.694475603,294.998192 Z M0.70510259,284.998197 L1.70510203,284.99926 L1.70457068,285.49926 L1.69925718,290.499257 L1.69872583,290.999257 L0.698726398,290.998194 L0.699257747,290.498194 L0.70457124,285.498197 L0.70510259,284.998197 Z M0.715729576,274.998203 L1.71572901,274.999266 L1.71519766,275.499265 L1.70988417,280.499263 L1.70935282,280.999262 L0.709353384,280.9982 L0.709884734,280.4982 L0.715198227,275.498203 L0.715729576,274.998203 Z M0.726356563,264.998209 L1.726356,264.999271 L1.72582465,265.499271 L1.72051116,270.499268 L1.71997981,270.999268 L0.719980371,270.998205 L0.72051172,270.498206 L0.725825214,265.498208 L0.726356563,264.998209 Z M0.736983549,254.998214 L1.73698298,254.999277 L1.73645164,255.499277 L1.73113814,260.499274 L1.73060679,260.999274 L0.730607357,260.998211 L0.731138707,260.498211 L0.7364522,255.498214 L0.736983549,254.998214 Z M0.747610536,244.99822 L1.74760997,244.999283 L1.74707862,245.499282 L1.74176513,250.49928 L1.74123378,250.999279 L0.741234344,250.998217 L0.741765693,250.498217 L0.747079187,245.49822 L0.747610536,244.99822 Z M0.758237523,234.998226 L1.75823696,234.999288 L1.75770561,235.499288 L1.75239212,240.499285 L1.75186077,240.999285 L0.751861331,240.998222 L0.75239268,240.498223 L0.757706173,235.498225 L0.758237523,234.998226 Z M0.768864509,224.998231 L1.76886394,224.999294 L1.7683326,225.499294 L1.7630191,230.499291 L1.76248775,230.999291 L0.762488317,230.998228 L0.763019667,230.498228 L0.76833316,225.498231 L0.768864509,224.998231 Z M0.779491496,214.998237 L1.77949093,214.9993 L1.77895958,215.499299 L1.77364609,220.499296 L1.77311474,220.999296 L0.773115304,220.998234 L0.773646653,220.498234 L0.778960146,215.498237 L0.779491496,214.998237 Z M0.790118482,204.998243 L1.79011792,204.999305 L1.78958657,205.499305 L1.78427307,210.499302 L1.78374173,210.999302 L0.78374229,210.998239 L0.78427364,210.498239 L0.789587133,205.498242 L0.790118482,204.998243 Z M0.800745469,194.998248 L1.8007449,194.999311 L1.80021355,195.499311 L1.79490006,200.499308 L1.79436871,200.999308 L0.794369277,200.998245 L0.794900626,200.498245 L0.800214119,195.498248 L0.800745469,194.998248 Z M0.811372455,184.998254 L1.81137189,184.999317 L1.81084054,185.499316 L1.80552705,190.499313 L1.8049957,190.999313 L0.804996263,190.99825 L0.805527613,190.498251 L0.810841106,185.498254 L0.811372455,184.998254 Z M0.821999442,174.998259 L1.82199888,174.999322 L1.82146753,175.499322 L1.81615403,180.499319 L1.81562269,180.999319 L0.81562325,180.998256 L0.816154599,180.498256 L0.821468093,175.498259 L0.821999442,174.998259 Z M0.832626428,164.998265 L1.83262586,164.999328 L1.83209451,165.499328 L1.82678102,170.499325 L1.82624967,170.999324 L0.826250237,170.998262 L0.826781586,170.498262 L0.832095079,165.498265 L0.832626428,164.998265 Z M0.843253415,154.998271 L1.84325285,154.999333 L1.8427215,155.499333 L1.83740801,160.49933 L1.83687666,160.99933 L0.836877223,160.998267 L0.837408572,160.498268 L0.842722066,155.49827 L0.843253415,154.998271 Z M0.853880402,144.998276 L1.85387984,144.999339 L1.85334849,145.499339 L1.84803499,150.499336 L1.84750364,150.999336 L0.84750421,150.998273 L0.848035559,150.498273 L0.853349052,145.498276 L0.853880402,144.998276 Z M0.864507388,134.998282 L1.86450682,134.999345 L1.86397547,135.499344 L1.85866198,140.499342 L1.85813063,140.999341 L0.858131196,140.998279 L0.858662546,140.498279 L0.863976039,135.498282 L0.864507388,134.998282 Z M0.875134375,124.998288 L1.87513381,124.99935 L1.87460246,125.49935 L1.86928897,130.499347 L1.86875762,130.999347 L0.868758183,130.998284 L0.869289532,130.498285 L0.874603025,125.498287 L0.875134375,124.998288 Z M0.885761361,114.998293 L1.8857608,114.999356 L1.88522945,115.499356 L1.87991595,120.499353 L1.8793846,120.999353 L0.879385169,120.99829 L0.879916519,120.49829 L0.885230012,115.498293 L0.885761361,114.998293 Z M0.896388348,104.998299 L1.89638778,104.999362 L1.89585643,105.499361 L1.89054294,110.499359 L1.89001159,110.999358 L0.890012156,110.998296 L0.890543505,110.498296 L0.895856999,105.498299 L0.896388348,104.998299 Z M0.907015334,94.9983047 L1.90701477,94.9993674 L1.90648342,95.4993671 L1.90116993,100.499364 L1.90063858,100.999364 L0.900639142,100.998301 L0.901170492,100.498302 L0.906483985,95.4983044 L0.907015334,94.9983047 Z M0.917642321,84.9983103 L1.91764176,84.999373 L1.91711041,85.4993727 L1.91179691,90.4993699 L1.91126556,90.9993696 L0.911266129,90.9983069 L0.911797478,90.4983072 L0.917110972,85.49831 L0.917642321,84.9983103 Z M0.928269308,74.998316 L1.92826874,74.9993787 L1.92773739,75.4993784 L1.9224239,80.4993755 L1.92189255,80.9993753 L0.921893116,80.9983126 L0.922424465,80.4983128 L0.927737958,75.4983157 L0.928269308,74.998316 Z M0.938896294,64.9983216 L1.93889573,64.9993843 L1.93836438,65.499384 L1.93305089,70.4993812 L1.93251954,70.9993809 L0.932520102,70.9983182 L0.933051451,70.4983185 L0.938364945,65.4983213 L0.938896294,64.9983216 Z M0.949523281,54.9983272 L1.94952272,54.9993899 L1.94899137,55.4993897 L1.94367787,60.4993868 L1.94314652,60.9993866 L0.943147089,60.9983239 L0.943678438,60.4983241 L0.948991931,55.498327 L0.949523281,54.9983272 Z M0.960150267,44.9983329 L1.9601497,44.9993956 L1.95961835,45.4993953 L1.95430486,50.4993925 L1.95377351,50.9993922 L0.953774075,50.9983295 L0.954305425,50.4983298 L0.959618918,45.4983326 L0.960150267,44.9983329 Z M0.970777254,34.9983385 L1.97077669,34.9994012 L1.97024534,35.499401 L1.96493185,40.4993981 L1.9644005,40.9993979 L0.964401062,40.9983352 L0.964932411,40.4983354 L0.970245904,35.4983383 L0.970777254,34.9983385 Z M0.98140424,24.9983442 L1.98140368,24.9994069 L1.98087233,25.4994066 L1.97555883,30.4994038 L1.97502748,30.9994035 L0.975028048,30.9983408 L0.975559398,30.4983411 L0.980872891,25.4983439 L0.98140424,24.9983442 Z M1.50053135,7.00000028 L5.99096452,16.0047773 L1.99,16 L1.98618582,20.4994094 L1.98565447,20.9994091 L0.985655035,20.9983464 L0.986186384,20.4983467 L0.99,15.999 L-3.0090304,15.9952131 L1.50053135,7.00000028 Z" fill-opacity="0.197251967" fill="#000000" fill-rule="nonzero"></path>
                            <path id="Line-Copy" d="M911.865381,472.319082 L912.301169,472.564212 L920.301169,477.064212 L921.075903,477.5 L920.301169,477.935788 L912.301169,482.435788 L911.865381,482.680918 L911.37512,481.809343 L911.810908,481.564212 L919.036,477.5 L911.810908,473.435788 L911.37512,473.190657 L911.865381,472.319082 Z M6.94396135,477 L6.94396135,478 L0.943961353,478 L0.943961353,477 L6.94396135,477 Z M16.9439614,477 L16.9439614,478 L10.9439614,478 L10.9439614,477 L16.9439614,477 Z M26.9439614,477 L26.9439614,478 L20.9439614,478 L20.9439614,477 L26.9439614,477 Z M36.9439614,477 L36.9439614,478 L30.9439614,478 L30.9439614,477 L36.9439614,477 Z M46.9439614,477 L46.9439614,478 L40.9439614,478 L40.9439614,477 L46.9439614,477 Z M56.9439614,477 L56.9439614,478 L50.9439614,478 L50.9439614,477 L56.9439614,477 Z M66.9439614,477 L66.9439614,478 L60.9439614,478 L60.9439614,477 L66.9439614,477 Z M76.9439614,477 L76.9439614,478 L70.9439614,478 L70.9439614,477 L76.9439614,477 Z M86.9439614,477 L86.9439614,478 L80.9439614,478 L80.9439614,477 L86.9439614,477 Z M96.9439614,477 L96.9439614,478 L90.9439614,478 L90.9439614,477 L96.9439614,477 Z M106.943961,477 L106.943961,478 L100.943961,478 L100.943961,477 L106.943961,477 Z M116.943961,477 L116.943961,478 L110.943961,478 L110.943961,477 L116.943961,477 Z M126.943961,477 L126.943961,478 L120.943961,478 L120.943961,477 L126.943961,477 Z M136.943961,477 L136.943961,478 L130.943961,478 L130.943961,477 L136.943961,477 Z M146.943961,477 L146.943961,478 L140.943961,478 L140.943961,477 L146.943961,477 Z M156.943961,477 L156.943961,478 L150.943961,478 L150.943961,477 L156.943961,477 Z M166.943961,477 L166.943961,478 L160.943961,478 L160.943961,477 L166.943961,477 Z M176.943961,477 L176.943961,478 L170.943961,478 L170.943961,477 L176.943961,477 Z M186.943961,477 L186.943961,478 L180.943961,478 L180.943961,477 L186.943961,477 Z M196.943961,477 L196.943961,478 L190.943961,478 L190.943961,477 L196.943961,477 Z M206.943961,477 L206.943961,478 L200.943961,478 L200.943961,477 L206.943961,477 Z M216.943961,477 L216.943961,478 L210.943961,478 L210.943961,477 L216.943961,477 Z M226.943961,477 L226.943961,478 L220.943961,478 L220.943961,477 L226.943961,477 Z M236.943961,477 L236.943961,478 L230.943961,478 L230.943961,477 L236.943961,477 Z M246.943961,477 L246.943961,478 L240.943961,478 L240.943961,477 L246.943961,477 Z M256.943961,477 L256.943961,478 L250.943961,478 L250.943961,477 L256.943961,477 Z M266.943961,477 L266.943961,478 L260.943961,478 L260.943961,477 L266.943961,477 Z M276.943961,477 L276.943961,478 L270.943961,478 L270.943961,477 L276.943961,477 Z M286.943961,477 L286.943961,478 L280.943961,478 L280.943961,477 L286.943961,477 Z M296.943961,477 L296.943961,478 L290.943961,478 L290.943961,477 L296.943961,477 Z M306.943961,477 L306.943961,478 L300.943961,478 L300.943961,477 L306.943961,477 Z M316.943961,477 L316.943961,478 L310.943961,478 L310.943961,477 L316.943961,477 Z M326.943961,477 L326.943961,478 L320.943961,478 L320.943961,477 L326.943961,477 Z M336.943961,477 L336.943961,478 L330.943961,478 L330.943961,477 L336.943961,477 Z M346.943961,477 L346.943961,478 L340.943961,478 L340.943961,477 L346.943961,477 Z M356.943961,477 L356.943961,478 L350.943961,478 L350.943961,477 L356.943961,477 Z M366.943961,477 L366.943961,478 L360.943961,478 L360.943961,477 L366.943961,477 Z M376.943961,477 L376.943961,478 L370.943961,478 L370.943961,477 L376.943961,477 Z M386.943961,477 L386.943961,478 L380.943961,478 L380.943961,477 L386.943961,477 Z M396.943961,477 L396.943961,478 L390.943961,478 L390.943961,477 L396.943961,477 Z M406.943961,477 L406.943961,478 L400.943961,478 L400.943961,477 L406.943961,477 Z M416.943961,477 L416.943961,478 L410.943961,478 L410.943961,477 L416.943961,477 Z M426.943961,477 L426.943961,478 L420.943961,478 L420.943961,477 L426.943961,477 Z M436.943961,477 L436.943961,478 L430.943961,478 L430.943961,477 L436.943961,477 Z M446.943961,477 L446.943961,478 L440.943961,478 L440.943961,477 L446.943961,477 Z M456.943961,477 L456.943961,478 L450.943961,478 L450.943961,477 L456.943961,477 Z M466.943961,477 L466.943961,478 L460.943961,478 L460.943961,477 L466.943961,477 Z M476.943961,477 L476.943961,478 L470.943961,478 L470.943961,477 L476.943961,477 Z M486.943961,477 L486.943961,478 L480.943961,478 L480.943961,477 L486.943961,477 Z M496.943961,477 L496.943961,478 L490.943961,478 L490.943961,477 L496.943961,477 Z M506.943961,477 L506.943961,478 L500.943961,478 L500.943961,477 L506.943961,477 Z M516.943961,477 L516.943961,478 L510.943961,478 L510.943961,477 L516.943961,477 Z M526.943961,477 L526.943961,478 L520.943961,478 L520.943961,477 L526.943961,477 Z M536.943961,477 L536.943961,478 L530.943961,478 L530.943961,477 L536.943961,477 Z M546.943961,477 L546.943961,478 L540.943961,478 L540.943961,477 L546.943961,477 Z M556.943961,477 L556.943961,478 L550.943961,478 L550.943961,477 L556.943961,477 Z M566.943961,477 L566.943961,478 L560.943961,478 L560.943961,477 L566.943961,477 Z M576.943961,477 L576.943961,478 L570.943961,478 L570.943961,477 L576.943961,477 Z M586.943961,477 L586.943961,478 L580.943961,478 L580.943961,477 L586.943961,477 Z M596.943961,477 L596.943961,478 L590.943961,478 L590.943961,477 L596.943961,477 Z M606.943961,477 L606.943961,478 L600.943961,478 L600.943961,477 L606.943961,477 Z M616.943961,477 L616.943961,478 L610.943961,478 L610.943961,477 L616.943961,477 Z M626.943961,477 L626.943961,478 L620.943961,478 L620.943961,477 L626.943961,477 Z M636.943961,477 L636.943961,478 L630.943961,478 L630.943961,477 L636.943961,477 Z M646.943961,477 L646.943961,478 L640.943961,478 L640.943961,477 L646.943961,477 Z M656.943961,477 L656.943961,478 L650.943961,478 L650.943961,477 L656.943961,477 Z M666.943961,477 L666.943961,478 L660.943961,478 L660.943961,477 L666.943961,477 Z M676.943961,477 L676.943961,478 L670.943961,478 L670.943961,477 L676.943961,477 Z M686.943961,477 L686.943961,478 L680.943961,478 L680.943961,477 L686.943961,477 Z M696.943961,477 L696.943961,478 L690.943961,478 L690.943961,477 L696.943961,477 Z M706.943961,477 L706.943961,478 L700.943961,478 L700.943961,477 L706.943961,477 Z M716.943961,477 L716.943961,478 L710.943961,478 L710.943961,477 L716.943961,477 Z M726.943961,477 L726.943961,478 L720.943961,478 L720.943961,477 L726.943961,477 Z M736.943961,477 L736.943961,478 L730.943961,478 L730.943961,477 L736.943961,477 Z M746.943961,477 L746.943961,478 L740.943961,478 L740.943961,477 L746.943961,477 Z M756.943961,477 L756.943961,478 L750.943961,478 L750.943961,477 L756.943961,477 Z M766.943961,477 L766.943961,478 L760.943961,478 L760.943961,477 L766.943961,477 Z M776.943961,477 L776.943961,478 L770.943961,478 L770.943961,477 L776.943961,477 Z M786.943961,477 L786.943961,478 L780.943961,478 L780.943961,477 L786.943961,477 Z M796.943961,477 L796.943961,478 L790.943961,478 L790.943961,477 L796.943961,477 Z M806.943961,477 L806.943961,478 L800.943961,478 L800.943961,477 L806.943961,477 Z M816.943961,477 L816.943961,478 L810.943961,478 L810.943961,477 L816.943961,477 Z M826.943961,477 L826.943961,478 L820.943961,478 L820.943961,477 L826.943961,477 Z M836.943961,477 L836.943961,478 L830.943961,478 L830.943961,477 L836.943961,477 Z M846.943961,477 L846.943961,478 L840.943961,478 L840.943961,477 L846.943961,477 Z M856.943961,477 L856.943961,478 L850.943961,478 L850.943961,477 L856.943961,477 Z M866.943961,477 L866.943961,478 L860.943961,478 L860.943961,477 L866.943961,477 Z M876.943961,477 L876.943961,478 L870.943961,478 L870.943961,477 L876.943961,477 Z M886.943961,477 L886.943961,478 L880.943961,478 L880.943961,477 L886.943961,477 Z M896.943961,477 L896.943961,478 L890.943961,478 L890.943961,477 L896.943961,477 Z M906.943961,477 L906.943961,478 L900.943961,478 L900.943961,477 L906.943961,477 Z M916.943961,477 L916.943961,478 L910.943961,478 L910.943961,477 L916.943961,477 Z" fill-opacity="0.197251967" fill="#000000" fill-rule="nonzero"></path>
                        </g>
                        <g id="Group-36" transform="translate(85.000000, 9.000000)">
                            <g id="Group-88" transform="translate(0.500000, 46.000000)">
                                <rect id="Rectangle" stroke="#555555" fill="#FFFFFF" x="0" y="0" width="100" height="36" rx="18"></rect>
                                <text id="快速验证" font-family="PingFangSC-Regular, PingFang SC" font-size="14" font-weight="normal" fill="#555555">
                                    <tspan x="22" y="23">快速验证</tspan>
                                </text>
                            </g>
                            <g id="Group-91" transform="translate(1.000000, 0.000000)">
                                <rect id="Rectangle" stroke="#555555" fill="#FFFFFF" x="0" y="0" width="100" height="36" rx="18"></rect>
                                <text id="快速落地" font-family="PingFangSC-Regular, PingFang SC" font-size="14" font-weight="normal" fill="#555555">
                                    <tspan x="22" y="23">快速落地</tspan>
                                </text>
                            </g>
                            <g id="Group-87" transform="translate(1.000000, 92.000000)">
                                <rect id="Rectangle" stroke="#555555" fill="#FFFFFF" x="0" y="0" width="100" height="36" rx="18"></rect>
                                <text id="需求保真" font-family="PingFangSC-Regular, PingFang SC" font-size="14" font-weight="normal" fill="#555555">
                                    <tspan x="22" y="23">需求保真</tspan>
                                </text>
                            </g>
                            <g id="Group-92" transform="translate(0.500000, 138.000000)">
                                <rect id="Rectangle" stroke="#555555" fill="#FFFFFF" x="0" y="0" width="100" height="36" rx="18"></rect>
                                <text id="需求响应" font-family="PingFangSC-Regular, PingFang SC" font-size="14" font-weight="normal" fill="#555555">
                                    <tspan x="22" y="23">需求响应</tspan>
                                </text>
                            </g>
                        </g>
                    </g>
                    <circle id="Oval" stroke="#6AF0D5" stroke-width="5" fill="#FFFFFF" cx="427" cy="84" r="20"></circle>
                    <text id="3" font-family="PingFangSC-Semibold, PingFang SC" font-size="20" font-weight="500" fill="#6AF0D5">
                        <tspan x="421" y="91">3</tspan>
                    </text>
                </g>
            </g>
        </g>
    </g>
</svg>