<svg width="144" height="22" viewBox="0 0 144 22" fill="none" xmlns="http://www.w3.org/2000/svg">
<path d="M21.7903 7.31173C20.151 7.38979 18.6159 7.32908 17.549 6.59185C16.4822 5.84594 15.8838 4.42351 15.3894 2.85364C14.6695 0.589902 11.4343 1.06694 10.8619 3.53016C10.5497 4.85718 10.2461 6.19287 9.93386 7.51989C9.90784 7.62397 9.88182 7.72805 9.86447 7.83213C9.42213 9.72292 8.97979 11.6224 8.54613 13.5218C8.28593 14.658 8.01705 15.7856 7.75685 16.9218L7.36655 18.6131C7.03697 20.0355 8.61551 21.1283 9.82978 20.3217L13.2297 18.0753L14.0884 17.5029L19.4485 13.9642C18.8327 12.2555 17.8786 10.4948 15.9445 9.19385C15.32 8.76885 14.7302 8.45661 14.1664 8.22243C17.8266 8.92497 20.7842 10.4688 22.1025 12.2208L22.7444 11.7958C24.8433 10.3994 24.1668 7.19898 21.7903 7.31173Z" fill="#1E2187"/>
<path opacity="0.88" d="M20.6623 19.706C19.4307 21.4407 18.0082 20.4346 15.7185 18.6739C14.6777 17.8673 13.342 17.0433 11.9543 16.0112C10.4017 14.8577 8.85787 13.7214 7.45279 12.7761C4.93753 11.0848 3.14215 9.75774 4.4258 8.19654C4.95487 7.54604 7.36606 7.52002 9.39562 7.52002C11.8242 7.52002 13.5935 7.61543 15.944 9.20265C18.0603 10.6251 19.0057 12.5939 19.6128 14.4587C20.3327 16.6791 21.226 18.9081 20.6623 19.706Z" fill="#3EB7A1"/>
<path d="M28.048 16L31.024 7.204H32.26L35.248 16H34.072L33.232 13.312H30.016L29.164 16H28.048ZM30.292 12.436H32.956L32.536 11.08C32.212 10.084 31.936 9.124 31.648 8.104H31.6C31.324 9.136 31.036 10.084 30.724 11.08L30.292 12.436ZM36.5128 16V7.204H37.6168V16H36.5128ZM42.712 16V7.204H47.776V8.14H43.816V11.116H47.176V12.052H43.816V16H42.712ZM50.9222 16.156C49.5422 16.156 48.9182 15.28 48.9182 13.612V9.484H50.0222V13.48C50.0222 14.692 50.3822 15.208 51.2462 15.208C51.9182 15.208 52.3862 14.872 53.0102 14.104V9.484H54.1022V16H53.1902L53.1062 14.98H53.0702C52.4582 15.688 51.8102 16.156 50.9222 16.156ZM56.3032 16V9.484H57.2032L57.3112 10.432H57.3352C57.9472 9.808 58.6312 9.316 59.5192 9.316C60.8872 9.316 61.5112 10.216 61.5112 11.872V16H60.4192V12.016C60.4192 10.792 60.0472 10.276 59.1832 10.276C58.5112 10.276 58.0552 10.612 57.4072 11.272V16H56.3032ZM66.1954 16.156C64.4674 16.156 63.1474 14.908 63.1474 12.748C63.1474 10.576 64.5994 9.316 66.2794 9.316C67.1314 9.316 67.7194 9.676 68.1754 10.084L67.6234 10.804C67.2514 10.468 66.8314 10.24 66.3274 10.24C65.1394 10.24 64.2754 11.248 64.2754 12.748C64.2754 14.248 65.0914 15.244 66.2914 15.244C66.8914 15.244 67.4194 14.956 67.8274 14.596L68.3074 15.34C67.7194 15.844 66.9754 16.156 66.1954 16.156ZM71.6557 16.156C70.2757 16.156 69.8077 15.292 69.8077 13.984V10.372H68.8357V9.544L69.8677 9.484L69.9877 7.648H70.8997V9.484H72.6757V10.372H70.8997V14.02C70.8997 14.812 71.1517 15.268 71.9077 15.268C72.1477 15.268 72.4357 15.184 72.6517 15.088L72.8677 15.916C72.4957 16.036 72.0637 16.156 71.6557 16.156ZM74.1392 16V9.484H75.2432V16H74.1392ZM74.6912 8.14C74.2592 8.14 73.9712 7.852 73.9712 7.408C73.9712 6.988 74.2592 6.7 74.6912 6.7C75.1232 6.7 75.4232 6.988 75.4232 7.408C75.4232 7.852 75.1232 8.14 74.6912 8.14ZM79.9758 16.156C78.3798 16.156 76.9638 14.908 76.9638 12.748C76.9638 10.576 78.3798 9.316 79.9758 9.316C81.5718 9.316 82.9878 10.576 82.9878 12.748C82.9878 14.908 81.5718 16.156 79.9758 16.156ZM79.9758 15.244C81.1038 15.244 81.8718 14.248 81.8718 12.748C81.8718 11.248 81.1038 10.24 79.9758 10.24C78.8478 10.24 78.0918 11.248 78.0918 12.748C78.0918 14.248 78.8478 15.244 79.9758 15.244ZM84.7212 16V9.484H85.6212L85.7292 10.432H85.7532C86.3652 9.808 87.0492 9.316 87.9372 9.316C89.3052 9.316 89.9292 10.216 89.9292 11.872V16H88.8372V12.016C88.8372 10.792 88.4652 10.276 87.6012 10.276C86.9292 10.276 86.4732 10.612 85.8252 11.272V16H84.7212ZM93.5454 16.156C92.4534 16.156 91.6494 15.484 91.6494 14.308C91.6494 12.892 92.8734 12.184 95.6454 11.872C95.6454 11.032 95.3694 10.228 94.3014 10.228C93.5454 10.228 92.8614 10.576 92.3454 10.924L91.9254 10.168C92.5134 9.784 93.4254 9.316 94.4814 9.316C96.0774 9.316 96.7374 10.372 96.7374 11.992V16H95.8374L95.7414 15.22H95.7054C95.0814 15.736 94.3494 16.156 93.5454 16.156ZM93.8574 15.268C94.4814 15.268 95.0094 14.98 95.6454 14.416V12.604C93.4494 12.856 92.7054 13.396 92.7054 14.236C92.7054 14.98 93.2094 15.268 93.8574 15.268ZM99.9591 16.156C99.1431 16.156 98.8071 15.628 98.8071 14.704V6.448H99.9111V14.776C99.9111 15.112 100.043 15.244 100.211 15.244C100.271 15.244 100.319 15.244 100.439 15.22L100.595 16.06C100.439 16.108 100.259 16.156 99.9591 16.156ZM102.217 16V9.484H103.321V16H102.217ZM102.769 8.14C102.337 8.14 102.049 7.852 102.049 7.408C102.049 6.988 102.337 6.7 102.769 6.7C103.201 6.7 103.501 6.988 103.501 7.408C103.501 7.852 103.201 8.14 102.769 8.14ZM107.562 16.156C106.182 16.156 105.714 15.292 105.714 13.984V10.372H104.742V9.544L105.774 9.484L105.894 7.648H106.806V9.484H108.582V10.372H106.806V14.02C106.806 14.812 107.058 15.268 107.814 15.268C108.054 15.268 108.342 15.184 108.558 15.088L108.774 15.916C108.402 16.036 107.97 16.156 107.562 16.156ZM110.153 18.808C109.853 18.808 109.589 18.76 109.385 18.676L109.601 17.8C109.733 17.848 109.925 17.908 110.105 17.908C110.837 17.908 111.293 17.308 111.569 16.504L111.713 16.012L109.097 9.484H110.237L111.557 13.096C111.761 13.672 111.977 14.332 112.205 14.944H112.265C112.433 14.344 112.625 13.684 112.793 13.096L113.969 9.484H115.037L112.589 16.552C112.133 17.824 111.449 18.808 110.153 18.808Z" fill="url(#paint0_linear_644_8917)"/>
<path d="M120.808 9V3.136H122.544C123.728 3.136 124.56 3.536 124.56 4.568C124.56 5.152 124.256 5.664 123.704 5.84V5.88C124.4 6.016 124.896 6.48 124.896 7.28C124.896 8.432 123.984 9 122.672 9H120.808ZM121.544 5.624H122.416C123.424 5.624 123.832 5.264 123.832 4.664C123.832 3.976 123.368 3.72 122.448 3.72H121.544V5.624ZM121.544 8.408H122.568C123.576 8.408 124.168 8.048 124.168 7.256C124.168 6.528 123.6 6.2 122.568 6.2H121.544V8.408ZM127.754 9.104C126.594 9.104 125.674 8.264 125.674 6.832C125.674 5.416 126.626 4.544 127.618 4.544C128.73 4.544 129.354 5.344 129.354 6.584C129.354 6.744 129.338 6.888 129.322 7H126.394C126.442 7.928 127.01 8.52 127.834 8.52C128.258 8.52 128.594 8.392 128.922 8.176L129.178 8.664C128.802 8.912 128.338 9.104 127.754 9.104ZM126.386 6.48H128.714C128.714 5.6 128.314 5.128 127.634 5.128C127.018 5.128 126.474 5.616 126.386 6.48ZM131.698 9.104C130.778 9.104 130.466 8.528 130.466 7.656V5.248H129.818V4.696L130.506 4.656L130.586 3.432H131.194V4.656H132.378V5.248H131.194V7.68C131.194 8.208 131.362 8.512 131.866 8.512C132.026 8.512 132.218 8.456 132.362 8.392L132.506 8.944C132.258 9.024 131.97 9.104 131.698 9.104ZM134.158 9.104C133.43 9.104 132.894 8.656 132.894 7.872C132.894 6.928 133.71 6.456 135.558 6.248C135.558 5.688 135.374 5.152 134.662 5.152C134.158 5.152 133.702 5.384 133.358 5.616L133.078 5.112C133.47 4.856 134.078 4.544 134.782 4.544C135.846 4.544 136.286 5.248 136.286 6.328V9H135.686L135.622 8.48H135.598C135.182 8.824 134.694 9.104 134.158 9.104ZM134.366 8.512C134.782 8.512 135.134 8.32 135.558 7.944V6.736C134.094 6.904 133.598 7.264 133.598 7.824C133.598 8.32 133.934 8.512 134.366 8.512Z" fill="black" fill-opacity="0.45"/>
<defs>
<linearGradient id="paint0_linear_644_8917" x1="158.766" y1="10.9412" x2="23.254" y2="12.2736" gradientUnits="userSpaceOnUse">
<stop stop-color="#3EB7A1"/>
<stop offset="1" stop-color="#1E2187"/>
</linearGradient>
</defs>
</svg>
