<svg width="1154" height="44" viewBox="0 0 1154 44" fill="none" xmlns="http://www.w3.org/2000/svg">
<g filter="url(#filter0_d_1440_13179)">
<rect x="10" y="10" width="1134" height="24" rx="12" fill="white"/>
<rect x="10" y="10" width="1134" height="24" rx="12" fill="url(#paint0_linear_1440_13179)"/>
<path d="M529.861 24.57V23.59H533.445V24.57H529.861ZM534.714 24.57V23.59H538.298V24.57H534.714ZM539.568 24.57V23.59H543.152V24.57H539.568ZM544.421 24.57V23.59H548.005V24.57H544.421ZM549.275 24.57V23.59H552.859V24.57H549.275ZM554.128 24.57V23.59H557.712V24.57H554.128ZM562.085 28V27.244C565.305 24.43 566.789 22.386 566.789 20.622C566.789 19.446 566.173 18.592 564.899 18.592C564.059 18.592 563.345 19.096 562.771 19.782L562.029 19.054C562.855 18.144 563.751 17.556 565.053 17.556C566.887 17.556 568.049 18.746 568.049 20.566C568.049 22.624 566.425 24.71 564.017 26.992C564.549 26.95 565.179 26.894 565.697 26.894H568.539V28H562.085ZM573.126 28.182C571.166 28.182 569.934 26.418 569.934 22.834C569.934 19.278 571.166 17.556 573.126 17.556C575.072 17.556 576.318 19.278 576.318 22.834C576.318 26.418 575.072 28.182 573.126 28.182ZM573.126 27.146C574.288 27.146 575.086 25.844 575.086 22.834C575.086 19.838 574.288 18.564 573.126 18.564C571.964 18.564 571.166 19.838 571.166 22.834C571.166 25.844 571.964 27.146 573.126 27.146ZM578.232 28V26.936H580.528V19.278H578.694V18.466C579.604 18.298 580.262 18.06 580.822 17.738H581.802V26.936H583.86V28H578.232ZM588.98 28.182C587.02 28.182 585.55 26.488 585.55 23.1C585.55 19.082 587.356 17.556 589.344 17.556C590.408 17.556 591.178 17.99 591.752 18.606L591.024 19.39C590.632 18.914 590.016 18.606 589.4 18.606C587.972 18.606 586.81 19.684 586.754 22.862C587.384 22.092 588.28 21.63 589.078 21.63C590.814 21.63 591.934 22.694 591.934 24.85C591.934 26.838 590.576 28.182 588.98 28.182ZM586.782 23.884C586.922 26.012 587.692 27.174 588.98 27.174C589.96 27.174 590.716 26.25 590.716 24.85C590.716 23.464 590.114 22.582 588.868 22.582C588.238 22.582 587.454 22.932 586.782 23.884ZM596.306 24.57V23.59H599.89V24.57H596.306ZM601.16 24.57V23.59H604.744V24.57H601.16ZM606.013 24.57V23.59H609.597V24.57H606.013ZM610.867 24.57V23.59H614.451V24.57H610.867ZM615.72 24.57V23.59H619.304V24.57H615.72ZM620.574 24.57V23.59H624.158V24.57H620.574Z" fill="white"/>
</g>
<defs>
<filter id="filter0_d_1440_13179" x="0" y="0" width="1154" height="44" filterUnits="userSpaceOnUse" color-interpolation-filters="sRGB">
<feFlood flood-opacity="0" result="BackgroundImageFix"/>
<feColorMatrix in="SourceAlpha" type="matrix" values="0 0 0 0 0 0 0 0 0 0 0 0 0 0 0 0 0 0 127 0" result="hardAlpha"/>
<feOffset/>
<feGaussianBlur stdDeviation="5"/>
<feComposite in2="hardAlpha" operator="out"/>
<feColorMatrix type="matrix" values="0 0 0 0 0 0 0 0 0 0 0 0 0 0 0 0 0 0 0.02 0"/>
<feBlend mode="normal" in2="BackgroundImageFix" result="effect1_dropShadow_1440_13179"/>
<feBlend mode="normal" in="SourceGraphic" in2="effect1_dropShadow_1440_13179" result="shape"/>
</filter>
<linearGradient id="paint0_linear_1440_13179" x1="1144" y1="22" x2="25.063" y2="151.825" gradientUnits="userSpaceOnUse">
<stop stop-color="#FFE500"/>
<stop offset="1" stop-color="#C44F4A"/>
</linearGradient>
</defs>
</svg>
