<svg width="720" height="24" viewBox="0 0 720 24" fill="none" xmlns="http://www.w3.org/2000/svg">
<path d="M317.681 14.738V13.254H321.503V14.738H317.681ZM322.863 14.738V13.254H326.685V14.738H322.863ZM328.044 14.738V13.254H331.866V14.738H328.044ZM333.226 14.738V13.254H337.048V14.738H333.226ZM338.408 14.738V13.254H342.23V14.738H338.408ZM346.677 18V16.81C349.505 14.29 351.157 12.344 351.157 10.734C351.157 9.712 350.597 9.068 349.603 9.068C348.847 9.068 348.231 9.558 347.713 10.132L346.565 9.026C347.531 7.99 348.455 7.444 349.869 7.444C351.829 7.444 353.131 8.704 353.131 10.636C353.131 12.512 351.563 14.528 349.673 16.39C350.205 16.32 350.891 16.264 351.381 16.264H353.621V18H346.677ZM358.463 18.196C356.349 18.196 354.949 16.348 354.949 12.764C354.949 9.194 356.349 7.444 358.463 7.444C360.577 7.444 361.977 9.208 361.977 12.764C361.977 16.348 360.577 18.196 358.463 18.196ZM358.463 16.586C359.359 16.586 360.017 15.69 360.017 12.764C360.017 9.88 359.359 9.026 358.463 9.026C357.567 9.026 356.895 9.88 356.895 12.764C356.895 15.69 357.567 16.586 358.463 16.586ZM363.739 18V16.32H365.979V9.782H364.089V8.494C365.139 8.312 365.839 8.046 366.497 7.626H368.023V16.32H369.969V18H363.739ZM375.273 18.196C373.313 18.196 371.549 16.6 371.549 12.96C371.549 9.096 373.467 7.444 375.553 7.444C376.827 7.444 377.751 7.976 378.367 8.62L377.275 9.852C376.911 9.446 376.281 9.096 375.693 9.096C374.489 9.096 373.523 9.992 373.425 12.568C373.999 11.868 374.881 11.476 375.539 11.476C377.275 11.476 378.521 12.512 378.521 14.724C378.521 16.852 377.037 18.196 375.273 18.196ZM373.467 14.024C373.663 15.914 374.363 16.642 375.231 16.642C376.015 16.642 376.645 15.984 376.645 14.724C376.645 13.492 376.057 12.932 375.161 12.932C374.615 12.932 373.985 13.24 373.467 14.024ZM382.964 14.738V13.254H386.786V14.738H382.964ZM388.146 14.738V13.254H391.968V14.738H388.146ZM393.328 14.738V13.254H397.15V14.738H393.328ZM398.509 14.738V13.254H402.331V14.738H398.509Z" fill="url(#paint0_linear_1440_13179)"/>
<defs>
<linearGradient id="paint0_linear_1440_13179" x1="672" y1="12" x2="50.5332" y2="51.6774" gradientUnits="userSpaceOnUse">
<stop stop-color="#FFE500"/>
<stop offset="1" stop-color="#C44F4A"/>
</linearGradient>
</defs>
</svg>
