<svg width="1154" height="44" viewBox="0 0 1154 44" fill="none" xmlns="http://www.w3.org/2000/svg">
<g filter="url(#filter0_d_1440_13186)">
<rect x="10" y="10" width="1134" height="24" rx="12" fill="white"/>
<rect x="10" y="10" width="1134" height="24" rx="12" fill="url(#paint0_linear_1440_13186)"/>
<path d="M529.861 24.57V23.59H533.445V24.57H529.861ZM534.714 24.57V23.59H538.298V24.57H534.714ZM539.568 24.57V23.59H543.152V24.57H539.568ZM544.421 24.57V23.59H548.005V24.57H544.421ZM549.275 24.57V23.59H552.859V24.57H549.275ZM554.128 24.57V23.59H557.712V24.57H554.128ZM562.085 28V27.244C565.305 24.43 566.789 22.386 566.789 20.622C566.789 19.446 566.173 18.592 564.899 18.592C564.059 18.592 563.345 19.096 562.771 19.782L562.029 19.054C562.855 18.144 563.751 17.556 565.053 17.556C566.887 17.556 568.049 18.746 568.049 20.566C568.049 22.624 566.425 24.71 564.017 26.992C564.549 26.95 565.179 26.894 565.697 26.894H568.539V28H562.085ZM573.126 28.182C571.166 28.182 569.934 26.418 569.934 22.834C569.934 19.278 571.166 17.556 573.126 17.556C575.072 17.556 576.318 19.278 576.318 22.834C576.318 26.418 575.072 28.182 573.126 28.182ZM573.126 27.146C574.288 27.146 575.086 25.844 575.086 22.834C575.086 19.838 574.288 18.564 573.126 18.564C571.964 18.564 571.166 19.838 571.166 22.834C571.166 25.844 571.964 27.146 573.126 27.146ZM578.232 28V26.936H580.528V19.278H578.694V18.466C579.604 18.298 580.262 18.06 580.822 17.738H581.802V26.936H583.86V28H578.232ZM588.056 28.182C586.936 28.182 586.152 27.734 585.578 27.132L586.278 26.334C586.726 26.824 587.342 27.118 588.014 27.118C589.33 27.118 590.478 26.04 590.576 22.862C589.946 23.618 589.064 24.108 588.21 24.108C586.502 24.108 585.382 23.002 585.382 20.888C585.382 18.886 586.726 17.556 588.322 17.556C590.296 17.556 591.78 19.166 591.78 22.428C591.78 26.586 589.974 28.182 588.056 28.182ZM590.562 21.784C590.422 19.67 589.638 18.55 588.336 18.55C587.342 18.55 586.586 19.474 586.586 20.888C586.586 22.26 587.202 23.156 588.42 23.156C589.106 23.156 589.876 22.764 590.562 21.784ZM596.306 24.57V23.59H599.89V24.57H596.306ZM601.16 24.57V23.59H604.744V24.57H601.16ZM606.013 24.57V23.59H609.597V24.57H606.013ZM610.867 24.57V23.59H614.451V24.57H610.867ZM615.72 24.57V23.59H619.304V24.57H615.72ZM620.574 24.57V23.59H624.158V24.57H620.574Z" fill="white"/>
</g>
<defs>
<filter id="filter0_d_1440_13186" x="0" y="0" width="1154" height="44" filterUnits="userSpaceOnUse" color-interpolation-filters="sRGB">
<feFlood flood-opacity="0" result="BackgroundImageFix"/>
<feColorMatrix in="SourceAlpha" type="matrix" values="0 0 0 0 0 0 0 0 0 0 0 0 0 0 0 0 0 0 127 0" result="hardAlpha"/>
<feOffset/>
<feGaussianBlur stdDeviation="5"/>
<feComposite in2="hardAlpha" operator="out"/>
<feColorMatrix type="matrix" values="0 0 0 0 0 0 0 0 0 0 0 0 0 0 0 0 0 0 0.02 0"/>
<feBlend mode="normal" in2="BackgroundImageFix" result="effect1_dropShadow_1440_13186"/>
<feBlend mode="normal" in="SourceGraphic" in2="effect1_dropShadow_1440_13186" result="shape"/>
</filter>
<linearGradient id="paint0_linear_1440_13186" x1="1144" y1="22" x2="25.063" y2="151.825" gradientUnits="userSpaceOnUse">
<stop stop-color="#FFE500"/>
<stop offset="1" stop-color="#C44F4A"/>
</linearGradient>
</defs>
</svg>
