<svg width="720" height="24" viewBox="0 0 720 24" fill="none" xmlns="http://www.w3.org/2000/svg">
<rect width="720" height="24" rx="12" fill="white"/>
<path d="M317.681 14.738V13.254H321.503V14.738H317.681ZM322.863 14.738V13.254H326.685V14.738H322.863ZM328.044 14.738V13.254H331.866V14.738H328.044ZM333.226 14.738V13.254H337.048V14.738H333.226ZM338.408 14.738V13.254H342.23V14.738H338.408ZM346.677 18V16.81C349.505 14.29 351.157 12.344 351.157 10.734C351.157 9.712 350.597 9.068 349.603 9.068C348.847 9.068 348.231 9.558 347.713 10.132L346.565 9.026C347.531 7.99 348.455 7.444 349.869 7.444C351.829 7.444 353.131 8.704 353.131 10.636C353.131 12.512 351.563 14.528 349.673 16.39C350.205 16.32 350.891 16.264 351.381 16.264H353.621V18H346.677ZM358.463 18.196C356.349 18.196 354.949 16.348 354.949 12.764C354.949 9.194 356.349 7.444 358.463 7.444C360.577 7.444 361.977 9.208 361.977 12.764C361.977 16.348 360.577 18.196 358.463 18.196ZM358.463 16.586C359.359 16.586 360.017 15.69 360.017 12.764C360.017 9.88 359.359 9.026 358.463 9.026C357.567 9.026 356.895 9.88 356.895 12.764C356.895 15.69 357.567 16.586 358.463 16.586ZM363.739 18V16.32H365.979V9.782H364.089V8.494C365.139 8.312 365.839 8.046 366.497 7.626H368.023V16.32H369.969V18H363.739ZM374.419 18.196C373.131 18.196 372.193 17.65 371.577 17.02L372.669 15.774C373.047 16.194 373.691 16.516 374.307 16.516C375.455 16.516 376.407 15.634 376.505 13.044C375.959 13.744 375.077 14.164 374.377 14.164C372.641 14.164 371.409 13.1 371.409 10.902C371.409 8.774 372.893 7.444 374.671 7.444C376.645 7.444 378.395 8.984 378.395 12.582C378.395 16.502 376.477 18.196 374.419 18.196ZM376.477 11.574C376.295 9.698 375.581 8.998 374.699 8.998C373.929 8.998 373.299 9.628 373.299 10.902C373.299 12.12 373.873 12.694 374.769 12.694C375.329 12.694 375.973 12.386 376.477 11.574ZM382.964 14.738V13.254H386.786V14.738H382.964ZM388.146 14.738V13.254H391.968V14.738H388.146ZM393.328 14.738V13.254H397.15V14.738H393.328ZM398.509 14.738V13.254H402.331V14.738H398.509Z" fill="white"/>
<path d="M317.681 14.738V13.254H321.503V14.738H317.681ZM322.863 14.738V13.254H326.685V14.738H322.863ZM328.044 14.738V13.254H331.866V14.738H328.044ZM333.226 14.738V13.254H337.048V14.738H333.226ZM338.408 14.738V13.254H342.23V14.738H338.408ZM346.677 18V16.81C349.505 14.29 351.157 12.344 351.157 10.734C351.157 9.712 350.597 9.068 349.603 9.068C348.847 9.068 348.231 9.558 347.713 10.132L346.565 9.026C347.531 7.99 348.455 7.444 349.869 7.444C351.829 7.444 353.131 8.704 353.131 10.636C353.131 12.512 351.563 14.528 349.673 16.39C350.205 16.32 350.891 16.264 351.381 16.264H353.621V18H346.677ZM358.463 18.196C356.349 18.196 354.949 16.348 354.949 12.764C354.949 9.194 356.349 7.444 358.463 7.444C360.577 7.444 361.977 9.208 361.977 12.764C361.977 16.348 360.577 18.196 358.463 18.196ZM358.463 16.586C359.359 16.586 360.017 15.69 360.017 12.764C360.017 9.88 359.359 9.026 358.463 9.026C357.567 9.026 356.895 9.88 356.895 12.764C356.895 15.69 357.567 16.586 358.463 16.586ZM363.739 18V16.32H365.979V9.782H364.089V8.494C365.139 8.312 365.839 8.046 366.497 7.626H368.023V16.32H369.969V18H363.739ZM374.419 18.196C373.131 18.196 372.193 17.65 371.577 17.02L372.669 15.774C373.047 16.194 373.691 16.516 374.307 16.516C375.455 16.516 376.407 15.634 376.505 13.044C375.959 13.744 375.077 14.164 374.377 14.164C372.641 14.164 371.409 13.1 371.409 10.902C371.409 8.774 372.893 7.444 374.671 7.444C376.645 7.444 378.395 8.984 378.395 12.582C378.395 16.502 376.477 18.196 374.419 18.196ZM376.477 11.574C376.295 9.698 375.581 8.998 374.699 8.998C373.929 8.998 373.299 9.628 373.299 10.902C373.299 12.12 373.873 12.694 374.769 12.694C375.329 12.694 375.973 12.386 376.477 11.574ZM382.964 14.738V13.254H386.786V14.738H382.964ZM388.146 14.738V13.254H391.968V14.738H388.146ZM393.328 14.738V13.254H397.15V14.738H393.328ZM398.509 14.738V13.254H402.331V14.738H398.509Z" fill="url(#paint0_linear_1440_13186)"/>
<defs>
<linearGradient id="paint0_linear_1440_13186" x1="672" y1="12" x2="50.5332" y2="51.6774" gradientUnits="userSpaceOnUse">
<stop stop-color="#FFE500"/>
<stop offset="1" stop-color="#C44F4A"/>
</linearGradient>
</defs>
</svg>
