<svg width="686" height="120" viewBox="0 0 686 120" fill="none" xmlns="http://www.w3.org/2000/svg">
<g clip-path="url(#clip0_710_4742)">
<g clip-path="url(#clip1_710_4742)">
<rect width="686" height="411.6" transform="translate(0 -75)" fill="#3560F9"/>
<g opacity="0.2">
<path d="M466.593 330.151C408.824 240.67 412.633 141.868 450.723 67.3002C488.812 -7.26788 518.015 -63.8171 519.92 -68.1669C521.824 -72.5167 526.268 -74.9999 530.711 -74.9999H674.181C683.069 -74.9999 689.418 -65.6801 684.974 -57.6019C684.974 -57.6019 491.986 320.208 486.907 329.529C483.098 338.85 472.307 338.851 466.593 330.151Z" fill="white"/>
</g>
<path d="M79.1007 30.807C78.7835 31.1488 78.3078 31.1178 78.0858 30.7138L72.9474 20.6161C72.7571 20.2122 73.0426 19.746 73.4866 19.746H80.6549C80.8769 19.746 81.0989 19.8703 81.1941 20.0878C82.7483 23.2259 81.7968 27.9796 79.1007 30.807Z" fill="url(#paint0_linear_710_4742)"/>
<path d="M82.8757 39.9725C79.9893 35.4984 80.1797 30.5583 82.0827 26.8299C83.9858 23.1015 85.4449 20.2741 85.5401 20.0566C85.6352 19.8391 85.8572 19.7149 86.0792 19.7149H93.2475C93.6915 19.7149 94.0088 20.1809 93.7868 20.5848C93.7868 20.5848 84.1444 39.4753 83.8907 39.9414C83.7003 40.4074 83.1612 40.4075 82.8757 39.9725Z" fill="white"/>
<path d="M101.07 22.0327H105.601L108.525 28.1132H108.642L111.565 22.0327H116.096L110.6 32.2935V37H106.566V32.2935L101.07 22.0327ZM121.513 22.0327L124.583 32.5858H124.7L127.769 22.0327H132.359L127.418 37H121.864L116.924 22.0327H121.513ZM133.8 37V22.0327H144.587V25.3068H137.864V27.8793H144.032V31.1534H137.864V33.7259H144.558V37H133.8ZM154.671 26.71C154.632 26.2228 154.449 25.8428 154.123 25.5699C153.801 25.2971 153.311 25.1607 152.654 25.1607C152.235 25.1607 151.891 25.2118 151.623 25.3141C151.36 25.4116 151.165 25.5456 151.039 25.7161C150.912 25.8866 150.846 26.0815 150.841 26.3007C150.831 26.481 150.863 26.6442 150.936 26.7904C151.014 26.9317 151.136 27.0608 151.302 27.1777C151.467 27.2898 151.679 27.3921 151.937 27.4847C152.196 27.5772 152.503 27.6601 152.858 27.7332L154.086 27.9963C154.914 28.1716 155.623 28.4031 156.213 28.6905C156.802 28.978 157.285 29.3166 157.66 29.7064C158.035 30.0913 158.31 30.5249 158.486 31.0072C158.666 31.4896 158.758 32.0158 158.763 32.5858C158.758 33.57 158.512 34.4031 158.025 35.0852C157.538 35.7673 156.841 36.2862 155.935 36.6419C155.034 36.9976 153.95 37.1754 152.683 37.1754C151.382 37.1754 150.247 36.9829 149.277 36.598C148.313 36.2131 147.562 35.6212 147.026 34.8221C146.495 34.0182 146.227 32.9902 146.222 31.7381H150.081C150.106 32.1961 150.22 32.581 150.425 32.8928C150.629 33.2046 150.917 33.4409 151.287 33.6017C151.662 33.7625 152.108 33.8428 152.624 33.8428C153.058 33.8428 153.421 33.7892 153.713 33.6821C154.006 33.5749 154.227 33.4263 154.378 33.2363C154.529 33.0462 154.607 32.8294 154.612 32.5858C154.607 32.3568 154.532 32.1571 154.386 31.9865C154.244 31.8112 154.011 31.6552 153.684 31.5188C153.358 31.3775 152.917 31.246 152.361 31.1242L150.87 30.8026C149.545 30.5152 148.5 30.0352 147.735 29.3629C146.975 28.6857 146.598 27.7624 146.602 26.5931C146.598 25.643 146.851 24.8123 147.362 24.101C147.879 23.3848 148.593 22.8269 149.504 22.4274C150.42 22.0279 151.47 21.8281 152.654 21.8281C153.862 21.8281 154.907 22.0303 155.789 22.4347C156.671 22.8391 157.35 23.4091 157.828 24.1448C158.31 24.8756 158.554 25.7307 158.559 26.71H154.671Z" fill="white"/>
<path d="M172.632 37.0049H168.481V22.0376H172.954C174.357 22.0376 175.558 22.3348 176.557 22.9292C177.556 23.5236 178.321 24.3762 178.852 25.4871C179.388 26.5931 179.653 27.9207 179.648 29.4701C179.643 31.0535 179.366 32.408 178.815 33.5335C178.265 34.6541 177.468 35.514 176.425 36.1133C175.383 36.7077 174.118 37.0049 172.632 37.0049ZM169.395 36.1571H172.596C173.931 36.1571 175.056 35.8916 175.972 35.3605C176.888 34.8246 177.58 34.0572 178.048 33.0584C178.52 32.0596 178.754 30.8635 178.749 29.4701C178.749 28.0961 178.523 26.9195 178.07 25.9402C177.617 24.956 176.956 24.2008 176.089 23.6747C175.227 23.1485 174.17 22.8854 172.917 22.8854H169.395V36.1571ZM187.276 37.2387C186.263 37.2387 185.381 36.9878 184.631 36.486C183.88 35.9842 183.301 35.2972 182.891 34.4251C182.482 33.553 182.277 32.559 182.277 31.4433C182.277 30.3227 182.482 29.3239 182.891 28.4469C183.306 27.5699 183.873 26.8781 184.594 26.3714C185.315 25.8647 186.139 25.6113 187.064 25.6113C187.693 25.6113 188.287 25.738 188.848 25.9914C189.413 26.2398 189.91 26.6004 190.338 27.073C190.772 27.5456 191.111 28.1156 191.354 28.7831C191.603 29.4506 191.727 30.2009 191.727 31.0341V31.5895H182.84V30.7783H190.835C190.835 29.9646 190.67 29.2314 190.338 28.5785C190.007 27.9256 189.556 27.4067 188.986 27.0218C188.416 26.6369 187.776 26.4445 187.064 26.4445C186.319 26.4445 185.654 26.654 185.069 27.073C184.489 27.4871 184.029 28.0474 183.688 28.7539C183.352 29.4603 183.176 30.2496 183.162 31.1218V31.4872C183.162 32.4226 183.325 33.2631 183.651 34.0085C183.983 34.7491 184.455 35.3362 185.069 35.7698C185.683 36.1985 186.419 36.4129 187.276 36.4129C187.89 36.4129 188.414 36.3106 188.848 36.106C189.286 35.8965 189.644 35.6431 189.922 35.3459C190.2 35.0487 190.409 34.7613 190.55 34.4835L191.362 34.8124C191.191 35.1876 190.926 35.5627 190.565 35.9379C190.209 36.3082 189.756 36.6175 189.206 36.866C188.66 37.1145 188.017 37.2387 187.276 37.2387ZM201.929 28.1985L201.104 28.4177C200.972 28.0084 200.784 27.6552 200.541 27.358C200.297 27.0608 199.99 26.8318 199.62 26.671C199.255 26.5054 198.816 26.4226 198.304 26.4226C197.481 26.4226 196.806 26.6272 196.28 27.0364C195.759 27.4457 195.498 27.9792 195.498 28.6369C195.498 29.1729 195.676 29.6163 196.032 29.967C196.387 30.313 196.93 30.5761 197.661 30.7563L199.386 31.1875C200.273 31.4068 200.94 31.7624 201.389 32.2545C201.837 32.7417 202.061 33.3483 202.061 34.0743C202.061 34.693 201.893 35.2412 201.557 35.7186C201.22 36.1961 200.755 36.5688 200.161 36.8368C199.571 37.1048 198.884 37.2387 198.1 37.2387C197.052 37.2387 196.192 36.9951 195.52 36.5079C194.848 36.0158 194.416 35.3118 194.226 34.3958L195.082 34.1766C195.242 34.9074 195.576 35.4653 196.083 35.8502C196.594 36.2302 197.264 36.4202 198.093 36.4202C199.008 36.4202 199.747 36.2034 200.307 35.7698C200.872 35.3362 201.155 34.7807 201.155 34.1035C201.155 33.5871 200.989 33.151 200.658 32.7953C200.326 32.4397 199.825 32.179 199.152 32.0134L197.362 31.5749C196.446 31.3507 195.759 30.9926 195.301 30.5006C194.843 30.0036 194.614 29.3921 194.614 28.6662C194.614 28.062 194.772 27.531 195.089 27.073C195.406 26.615 195.842 26.2569 196.397 25.9987C196.952 25.7405 197.588 25.6113 198.304 25.6113C199.255 25.6113 200.029 25.8355 200.628 26.2837C201.228 26.7319 201.661 27.3702 201.929 28.1985ZM205.191 37.0049V25.7794H206.075V37.0049H205.191ZM205.636 23.7916C205.442 23.7916 205.271 23.7234 205.125 23.587C204.984 23.4505 204.913 23.2849 204.913 23.09C204.913 22.8951 204.984 22.7295 205.125 22.593C205.266 22.4566 205.437 22.3884 205.636 22.3884C205.831 22.3884 205.999 22.4566 206.141 22.593C206.287 22.7295 206.36 22.8951 206.36 23.09C206.36 23.2849 206.289 23.4505 206.148 23.587C206.007 23.7234 205.836 23.7916 205.636 23.7916ZM213.858 41.4483C213.161 41.4483 212.535 41.3557 211.98 41.1706C211.425 40.9903 210.952 40.7321 210.562 40.3959C210.177 40.0597 209.883 39.6602 209.678 39.1974L210.423 38.7589C210.589 39.1194 210.825 39.441 211.132 39.7235C211.439 40.0061 211.819 40.2278 212.272 40.3886C212.73 40.5494 213.259 40.6298 213.858 40.6298C214.94 40.6298 215.795 40.3496 216.423 39.7893C217.057 39.2339 217.373 38.3813 217.373 37.2314V34.4397H217.286C217.115 34.9269 216.862 35.3605 216.526 35.7406C216.194 36.1157 215.788 36.4105 215.305 36.6249C214.823 36.8392 214.275 36.9464 213.661 36.9464C212.774 36.9464 211.995 36.7174 211.322 36.2594C210.65 35.8015 210.126 35.1583 209.751 34.3301C209.376 33.4969 209.188 32.5176 209.188 31.3922C209.188 30.2667 209.371 29.2703 209.736 28.4031C210.107 27.531 210.628 26.8489 211.3 26.3568C211.973 25.8598 212.762 25.6113 213.668 25.6113C214.316 25.6113 214.876 25.7356 215.349 25.9841C215.827 26.2277 216.226 26.5517 216.548 26.9561C216.869 27.3604 217.118 27.8038 217.293 28.2862H217.395V25.7794H218.258V37.268C218.258 38.2034 218.073 38.9805 217.702 39.5993C217.337 40.2181 216.823 40.6809 216.16 40.9879C215.503 41.2948 214.735 41.4483 213.858 41.4483ZM213.741 36.1206C214.492 36.1206 215.137 35.9306 215.678 35.5505C216.224 35.1656 216.643 34.62 216.935 33.9135C217.232 33.2022 217.381 32.3593 217.381 31.3848C217.381 30.4396 217.237 29.5943 216.95 28.8489C216.662 28.1034 216.246 27.5164 215.7 27.0876C215.154 26.6589 214.501 26.4445 213.741 26.4445C212.967 26.4445 212.306 26.6637 211.761 27.1022C211.215 27.5358 210.796 28.1254 210.504 28.8708C210.216 29.6163 210.073 30.4543 210.073 31.3848C210.073 32.3203 210.219 33.1437 210.511 33.855C210.803 34.5615 211.222 35.1169 211.768 35.5213C212.314 35.9208 212.971 36.1206 213.741 36.1206ZM222.9 29.7259V37.0049H222.009V25.7794H222.878V27.5553H222.966C223.229 26.9755 223.651 26.5103 224.23 26.1595C224.81 25.8087 225.5 25.6333 226.299 25.6333C227.054 25.6333 227.716 25.794 228.286 26.1156C228.861 26.4372 229.31 26.8952 229.631 27.4896C229.958 28.0791 230.121 28.7831 230.121 29.6016V37.0049H229.229V29.6382C229.229 28.6832 228.944 27.9159 228.374 27.3361C227.809 26.7514 227.061 26.4591 226.131 26.4591C225.507 26.4591 224.952 26.5955 224.464 26.8684C223.977 27.1412 223.595 27.5237 223.317 28.0157C223.039 28.503 222.9 29.073 222.9 29.7259ZM247.997 25.7794C247.919 24.8488 247.539 24.0961 246.857 23.5212C246.18 22.9463 245.303 22.6588 244.226 22.6588C243.5 22.6588 242.854 22.7928 242.289 23.0608C241.724 23.3287 241.281 23.6941 240.959 24.157C240.637 24.6199 240.477 25.1509 240.477 25.7502C240.477 26.1351 240.55 26.4835 240.696 26.7953C240.847 27.1022 241.059 27.3775 241.332 27.6211C241.605 27.8598 241.929 28.0693 242.304 28.2496C242.679 28.4299 243.093 28.5882 243.546 28.7246L245.183 29.207C245.743 29.3775 246.26 29.5748 246.732 29.799C247.21 30.0231 247.624 30.291 247.975 30.6029C248.331 30.9098 248.606 31.2704 248.801 31.6845C249 32.0986 249.1 32.5761 249.1 33.1169C249.1 33.9062 248.896 34.6127 248.486 35.2363C248.082 35.8599 247.505 36.352 246.754 36.7126C246.009 37.0682 245.13 37.2461 244.116 37.2461C243.151 37.2461 242.311 37.0828 241.595 36.7564C240.883 36.43 240.321 35.9769 239.907 35.3971C239.492 34.8124 239.259 34.1401 239.205 33.38H240.14C240.189 33.9988 240.387 34.5347 240.732 34.9878C241.083 35.436 241.549 35.782 242.128 36.0256C242.708 36.2692 243.371 36.391 244.116 36.391C244.92 36.391 245.629 36.2546 246.243 35.9817C246.857 35.704 247.337 35.3191 247.683 34.827C248.028 34.3349 248.201 33.7625 248.201 33.1096C248.201 32.5834 248.077 32.1327 247.829 31.7576C247.58 31.3824 247.212 31.0584 246.725 30.7856C246.243 30.5127 245.644 30.2691 244.927 30.0547L243.181 29.5286C242.011 29.1729 241.117 28.6881 240.499 28.0742C239.885 27.4603 239.578 26.6954 239.578 25.7794C239.578 25.0096 239.782 24.3275 240.192 23.7331C240.601 23.1338 241.156 22.6637 241.858 22.3226C242.564 21.9816 243.361 21.8111 244.248 21.8111C245.139 21.8111 245.926 21.984 246.608 22.3299C247.29 22.671 247.831 23.1412 248.231 23.7404C248.63 24.3348 248.852 25.0145 248.896 25.7794H247.997ZM253.113 41.2144C252.888 41.2144 252.667 41.1901 252.448 41.1413C252.228 41.0926 252.031 41.0293 251.856 40.9513L252.119 40.1694C252.577 40.3447 252.991 40.4081 253.361 40.3594C253.736 40.3106 254.068 40.1401 254.355 39.8478C254.642 39.5555 254.886 39.1267 255.086 38.5615L255.597 37.1584L251.483 25.7794H252.44L256.007 35.8575H256.08L259.646 25.7794H260.604L255.868 38.9123C255.688 39.419 255.461 39.8429 255.188 40.184C254.915 40.525 254.603 40.7808 254.253 40.9513C253.907 41.1267 253.527 41.2144 253.113 41.2144ZM270.523 28.1985L269.697 28.4177C269.565 28.0084 269.378 27.6552 269.134 27.358C268.89 27.0608 268.584 26.8318 268.213 26.671C267.848 26.5054 267.409 26.4226 266.898 26.4226C266.074 26.4226 265.4 26.6272 264.873 27.0364C264.352 27.4457 264.091 27.9792 264.091 28.6369C264.091 29.1729 264.269 29.6163 264.625 29.967C264.981 30.313 265.524 30.5761 266.255 30.7563L267.979 31.1875C268.866 31.4068 269.534 31.7624 269.982 32.2545C270.43 32.7417 270.654 33.3483 270.654 34.0743C270.654 34.693 270.486 35.2412 270.15 35.7186C269.814 36.1961 269.348 36.5688 268.754 36.8368C268.165 37.1048 267.478 37.2387 266.693 37.2387C265.646 37.2387 264.786 36.9951 264.113 36.5079C263.441 36.0158 263.01 35.3118 262.82 34.3958L263.675 34.1766C263.836 34.9074 264.169 35.4653 264.676 35.8502C265.188 36.2302 265.858 36.4202 266.686 36.4202C267.602 36.4202 268.34 36.2034 268.9 35.7698C269.465 35.3362 269.748 34.7807 269.748 34.1035C269.748 33.5871 269.582 33.151 269.251 32.7953C268.92 32.4397 268.418 32.179 267.746 32.0134L265.955 31.5749C265.039 31.3507 264.352 30.9926 263.894 30.5006C263.436 30.0036 263.207 29.3921 263.207 28.6662C263.207 28.062 263.365 27.531 263.682 27.073C263.999 26.615 264.435 26.2569 264.99 25.9987C265.546 25.7405 266.182 25.6113 266.898 25.6113C267.848 25.6113 268.622 25.8355 269.222 26.2837C269.821 26.7319 270.255 27.3702 270.523 28.1985ZM277.708 25.7794V26.576H272.805V25.7794H277.708ZM274.464 23.09H275.348V34.352C275.348 34.81 275.436 35.1851 275.611 35.4775C275.791 35.7649 276.025 35.9793 276.313 36.1206C276.605 36.257 276.917 36.3252 277.248 36.3252C277.409 36.3252 277.548 36.313 277.665 36.2887C277.786 36.2643 277.901 36.2326 278.008 36.1937L278.227 37.0049C278.091 37.0536 277.94 37.095 277.774 37.1291C277.609 37.1681 277.414 37.1876 277.19 37.1876C276.722 37.1876 276.278 37.0828 275.859 36.8733C275.445 36.6638 275.109 36.3593 274.851 35.9598C274.593 35.5603 274.464 35.0779 274.464 34.5128V23.09ZM285.272 37.2387C284.259 37.2387 283.377 36.9878 282.627 36.486C281.877 35.9842 281.297 35.2972 280.888 34.4251C280.478 33.553 280.274 32.559 280.274 31.4433C280.274 30.3227 280.478 29.3239 280.888 28.4469C281.302 27.5699 281.869 26.8781 282.59 26.3714C283.311 25.8647 284.135 25.6113 285.061 25.6113C285.689 25.6113 286.283 25.738 286.844 25.9914C287.409 26.2398 287.906 26.6004 288.335 27.073C288.768 27.5456 289.107 28.1156 289.35 28.7831C289.599 29.4506 289.723 30.2009 289.723 31.0341V31.5895H280.836V30.7783H288.832C288.832 29.9646 288.666 29.2314 288.335 28.5785C288.003 27.9256 287.553 27.4067 286.983 27.0218C286.413 26.6369 285.772 26.4445 285.061 26.4445C284.315 26.4445 283.65 26.654 283.065 27.073C282.486 27.4871 282.025 28.0474 281.684 28.7539C281.348 29.4603 281.173 30.2496 281.158 31.1218V31.4872C281.158 32.4226 281.321 33.2631 281.648 34.0085C281.979 34.7491 282.452 35.3362 283.065 35.7698C283.679 36.1985 284.415 36.4129 285.272 36.4129C285.886 36.4129 286.41 36.3106 286.844 36.106C287.282 35.8965 287.64 35.6431 287.918 35.3459C288.196 35.0487 288.405 34.7613 288.547 34.4835L289.358 34.8124C289.187 35.1876 288.922 35.5627 288.561 35.9379C288.206 36.3082 287.752 36.6175 287.202 36.866C286.656 37.1145 286.013 37.2387 285.272 37.2387ZM292.793 37.0049V25.7794H293.662V27.4749H293.75C293.964 26.9098 294.335 26.4615 294.861 26.1302C295.387 25.7989 296.02 25.6333 296.761 25.6333C297.575 25.6333 298.23 25.8281 298.727 26.2179C299.229 26.6077 299.589 27.1363 299.809 27.8038H299.889C300.108 27.1461 300.5 26.6199 301.066 26.2252C301.636 25.8306 302.337 25.6333 303.17 25.6333C304.257 25.6333 305.085 25.9768 305.655 26.6637C306.23 27.3458 306.518 28.2813 306.518 29.4701V37.0049H305.626V29.4701C305.626 28.5346 305.402 27.7989 304.954 27.263C304.505 26.7271 303.848 26.4591 302.98 26.4591C302.055 26.4591 301.343 26.749 300.846 27.3288C300.349 27.9086 300.101 28.6467 300.101 29.5432V37.0049H299.209V29.4116C299.209 28.5395 298.99 27.8306 298.552 27.2849C298.113 26.7344 297.455 26.4591 296.578 26.4591C295.984 26.4591 295.47 26.5955 295.036 26.8684C294.608 27.1412 294.274 27.5164 294.035 27.9938C293.801 28.4713 293.684 29.0194 293.684 29.6382V37.0049H292.793Z" fill="white"/>
<path d="M74.8051 73.01V55.5555H81.1971C82.4357 55.5555 83.4613 55.76 84.2738 56.1691C85.0863 56.5725 85.6943 57.1208 86.0977 57.814C86.5011 58.5015 86.7028 59.2771 86.7028 60.1407C86.7028 60.868 86.5693 61.4816 86.3022 61.9816C86.0352 62.4759 85.6772 62.8736 85.2284 63.1748C84.7852 63.4702 84.2965 63.6861 83.7625 63.8225V63.993C84.342 64.0214 84.9073 64.2089 85.4585 64.5555C86.0153 64.8964 86.4755 65.3822 86.8392 66.0129C87.2028 66.6435 87.3846 67.4106 87.3846 68.314C87.3846 69.206 87.1744 70.0072 86.7539 70.7174C86.3392 71.4219 85.6971 71.9816 84.8278 72.3964C83.9585 72.8055 82.8477 73.01 81.4954 73.01H74.8051ZM77.4386 70.7515H81.2397C82.5011 70.7515 83.4045 70.5072 83.95 70.0185C84.4954 69.5299 84.7681 68.9191 84.7681 68.1861C84.7681 67.635 84.6289 67.1293 84.3505 66.6691C84.0721 66.2089 83.6744 65.8424 83.1573 65.5697C82.646 65.2969 82.038 65.1606 81.3335 65.1606H77.4386V70.7515ZM77.4386 63.1066H80.967C81.5579 63.1066 82.0892 62.993 82.5607 62.7657C83.038 62.5384 83.4159 62.2202 83.6943 61.8111C83.9784 61.3964 84.1204 60.9077 84.1204 60.3452C84.1204 59.6236 83.8676 59.0185 83.3619 58.5299C82.8562 58.0413 82.0806 57.7969 81.0352 57.7969H77.4386V63.1066ZM97.6386 61.562H111.583V63.194H97.6386V61.562ZM102.127 66.05H103.567V74.666H102.127V66.05ZM105.775 66.05H107.239V74.618H105.775V66.05ZM103.663 52.898H105.391V59.09H103.663V52.898ZM98.3826 65.426H110.335V66.986H100.015V74.906H98.3826V65.426ZM109.447 65.426H111.079V73.25C111.079 74.018 110.959 74.45 110.479 74.666C109.951 74.954 109.279 74.954 108.199 74.954C108.127 74.522 107.911 73.922 107.695 73.514C108.391 73.538 108.991 73.538 109.183 73.514C109.375 73.514 109.447 73.442 109.447 73.226V65.426ZM103.663 62.09L105.727 62.522C105.271 63.89 104.839 65.426 104.455 66.41L102.919 66.002C103.207 64.898 103.519 63.218 103.663 62.09ZM98.6706 54.074H100.351V58.178H109.039V54.074H110.767V59.762H98.6706V54.074ZM89.8146 57.674H97.3986V59.33H89.8146V57.674ZM92.8386 53.162H94.4706V58.49H92.8386V53.162ZM89.3586 70.034C91.5426 69.626 94.7346 68.906 97.8306 68.234L97.9986 69.794C95.1186 70.538 92.0946 71.258 89.7906 71.81L89.3586 70.034ZM90.3426 60.506L91.7346 60.266C92.2866 62.738 92.6946 65.906 92.7186 68.018L91.2306 68.258C91.2306 66.146 90.8466 62.954 90.3426 60.506ZM95.1426 60.05L96.8466 60.41C96.3906 63.218 95.7426 66.938 95.1666 69.17L93.8226 68.81C94.3506 66.554 94.9266 62.714 95.1426 60.05ZM125.383 58.01H134.599V59.57H125.383V58.01ZM125.767 62.93H134.335V64.466H125.767V62.93ZM124.999 68.234H135.103V69.818H124.999V68.234ZM129.103 58.37H130.783V69.386H129.103V58.37ZM123.271 71.906H135.703V73.61H123.271V71.906ZM122.239 54.098H135.343V55.754H123.967V74.93H122.239V54.098ZM113.815 58.058H121.543V59.762H113.815V58.058ZM117.199 52.85H118.855V74.906H117.199V52.85ZM117.151 59.066L118.255 59.45C117.511 63.242 115.927 67.97 114.247 70.37C114.055 69.914 113.623 69.218 113.335 68.834C114.919 66.674 116.479 62.498 117.151 59.066ZM118.687 60.938C119.239 61.61 121.279 64.682 121.735 65.402L120.727 66.746C120.175 65.522 118.495 62.642 117.871 61.706L118.687 60.938ZM138.031 65.882H158.839V67.49H138.031V65.882ZM147.583 63.554H149.455V74.954H147.583V63.554ZM146.863 66.77L148.303 67.394C146.143 70.442 142.255 73.154 138.727 74.522C138.463 74.066 137.911 73.394 137.527 73.034C141.031 71.906 144.895 69.434 146.863 66.77ZM150.103 66.746C152.047 69.434 155.863 71.762 159.535 72.818C159.151 73.178 158.599 73.85 158.335 74.33C154.639 73.058 150.775 70.442 148.615 67.394L150.103 66.746ZM137.911 55.394H147.295V57.002H137.911V55.394ZM146.551 55.394H148.279C148.279 55.394 148.255 55.898 148.231 56.138C147.967 60.458 147.703 62.162 147.151 62.81C146.743 63.218 146.335 63.362 145.735 63.41C145.255 63.482 144.295 63.482 143.335 63.41C143.311 62.954 143.119 62.258 142.855 61.826C143.791 61.898 144.631 61.922 144.967 61.922C145.303 61.922 145.495 61.898 145.663 61.682C146.071 61.274 146.311 59.762 146.551 55.682V55.394ZM141.727 52.898H143.479C143.239 58.226 142.519 62.09 138.559 64.226C138.343 63.818 137.839 63.194 137.431 62.906C141.007 61.058 141.535 57.65 141.727 52.898ZM151.711 56.378V61.394H156.679V56.378H151.711ZM150.031 54.794H158.479V62.978H150.031V54.794ZM166.591 57.794V59.498H178.639V57.794H166.591ZM166.591 54.914V56.57H178.639V54.914H166.591ZM164.839 53.618H180.415V60.77H164.839V53.618ZM161.983 62.114H183.127V63.602H161.983V62.114ZM172.639 65.114H181.183V66.578H172.639V65.114ZM165.103 65.258H171.031V66.602H165.103V65.258ZM165.103 68.282H171.031V69.626H165.103V68.282ZM175.159 66.458C176.551 69.89 179.623 72.506 183.703 73.514C183.319 73.85 182.839 74.498 182.599 74.93C178.375 73.682 175.279 70.826 173.695 66.89L175.159 66.458ZM180.631 65.114H180.967L181.279 65.042L182.383 65.498C180.799 70.37 176.935 73.37 172.759 74.81C172.567 74.378 172.111 73.73 171.775 73.394C175.615 72.242 179.311 69.434 180.631 65.402V65.114ZM161.767 71.954C164.119 71.762 167.599 71.378 170.983 70.994V72.482C167.743 72.866 164.407 73.274 161.935 73.562L161.767 71.954ZM170.071 62.594H171.799V74.93H170.071V62.594ZM164.047 62.618H165.727V72.386H164.047V62.618ZM190.999 52.946L192.703 53.45C191.263 57.506 188.983 61.586 186.559 64.298C186.367 63.89 185.839 62.954 185.527 62.522C187.735 60.194 189.751 56.594 190.999 52.946ZM188.575 59.306L190.327 57.53L190.375 57.554V74.93H188.575V59.306ZM193.615 56.018H206.047V57.698H193.615V56.018ZM193.111 66.554H206.479V68.258H193.111V66.554ZM192.439 61.154H207.151V62.858H192.439V61.154ZM191.647 72.29H207.631V74.042H191.647V72.29ZM198.847 52.85H200.647V62.162H198.847V52.85ZM198.847 63.794H200.647V73.514H198.847V63.794ZM221.479 70.442L222.367 69.146C225.559 70.298 228.943 71.954 230.911 73.394L229.807 74.786C227.887 73.322 224.671 71.666 221.479 70.442ZM218.863 53.258L220.663 52.706C221.311 53.69 222.055 55.034 222.343 55.898L220.495 56.522C220.207 55.682 219.511 54.266 218.863 53.258ZM210.751 55.586H230.455V60.458H228.607V57.29H212.527V60.458H210.751V55.586ZM220.663 58.49H222.535C222.247 67.394 221.503 72.578 211.543 74.858C211.375 74.378 210.895 73.682 210.511 73.298C219.991 71.306 220.399 66.77 220.663 58.49ZM210.295 66.89H231.007V68.45H210.295V66.89ZM214.351 59.666L215.431 58.514C216.727 59.21 218.263 60.314 219.007 61.154L217.879 62.45C217.159 61.61 215.647 60.434 214.351 59.666ZM211.951 63.386L213.007 62.186C214.375 62.882 215.983 64.01 216.775 64.85L215.695 66.194C214.927 65.33 213.295 64.13 211.951 63.386ZM236.239 55.466V59.714H240.487V55.466H236.239ZM234.655 53.906H242.119V61.274H234.655V53.906ZM237.799 60.482H239.407V71.618H237.799V60.482ZM234.679 63.506H236.167V72.41H234.679V63.506ZM233.479 72.05C235.855 71.546 239.503 70.658 243.007 69.77L243.199 71.354C239.887 72.218 236.407 73.106 233.863 73.754L233.479 72.05ZM238.519 64.73H242.719V66.314H238.519V64.73ZM243.079 57.242L254.647 56.09L254.791 57.65L243.247 58.826L243.079 57.242ZM243.655 60.986L254.191 59.834L254.383 61.346L243.823 62.498L243.655 60.986ZM243.103 64.97L255.463 63.602L255.655 65.162L243.295 66.554L243.103 64.97ZM246.847 52.898H248.671C248.575 64.274 250.519 73.178 253.471 73.178C254.095 73.178 254.359 72.338 254.503 69.818C254.863 70.226 255.463 70.586 255.895 70.754C255.559 73.97 254.983 74.93 253.327 74.93C248.623 74.93 246.919 64.73 246.847 52.898ZM249.895 53.882L250.903 52.802C252.103 53.306 253.615 54.17 254.359 54.842L253.327 56.066C252.583 55.37 251.095 54.482 249.895 53.882ZM253.039 66.194L254.599 66.866C252.175 70.466 247.903 73.25 243.223 74.81C242.983 74.354 242.527 73.73 242.119 73.322C246.655 71.954 250.831 69.41 253.039 66.194ZM259.045 65.7657C259.045 63.6293 259.326 61.6634 259.889 59.868C260.451 58.0725 261.272 56.4163 262.352 54.8992H264.687C264.267 55.4617 263.875 56.1521 263.511 56.9702C263.147 57.7884 262.829 58.6861 262.556 59.6634C262.284 60.635 262.071 61.6435 261.917 62.689C261.764 63.7288 261.687 64.7543 261.687 65.7657C261.687 67.118 261.821 68.4873 262.088 69.8736C262.355 71.26 262.716 72.5469 263.17 73.7344C263.625 74.9219 264.13 75.8907 264.687 76.6407H262.352C261.272 75.1236 260.451 73.4674 259.889 71.6719C259.326 69.8765 259.045 67.9077 259.045 65.7657ZM274.397 56.642L276.005 55.85C277.613 57.602 279.149 59.978 279.845 61.61L278.117 62.546C277.493 60.89 275.933 58.418 274.397 56.642ZM266.501 70.466C268.949 69.506 272.789 67.874 276.389 66.29L276.797 68.042C273.461 69.578 269.813 71.186 267.149 72.338L266.501 70.466ZM280.901 67.298L282.293 66.122C284.573 68.378 287.549 71.498 288.965 73.466L287.429 74.882C286.085 72.89 283.205 69.65 280.901 67.298ZM284.237 54.098L286.181 54.29C284.957 65.378 282.149 71.498 273.749 75.002C273.485 74.618 272.765 73.826 272.309 73.442C280.613 70.418 283.157 64.538 284.237 54.098ZM269.429 54.17L271.277 54.098L271.685 69.962L269.837 70.034L269.429 54.17ZM291.579 73.01V55.5555H297.971C299.209 55.5555 300.235 55.76 301.047 56.1691C301.86 56.5725 302.468 57.1208 302.871 57.814C303.275 58.5015 303.476 59.2771 303.476 60.1407C303.476 60.868 303.343 61.4816 303.076 61.9816C302.809 62.4759 302.451 62.8736 302.002 63.1748C301.559 63.4702 301.07 63.6861 300.536 63.8225V63.993C301.115 64.0214 301.681 64.2089 302.232 64.5555C302.789 64.8964 303.249 65.3822 303.613 66.0129C303.976 66.6435 304.158 67.4106 304.158 68.314C304.158 69.206 303.948 70.0072 303.527 70.7174C303.113 71.4219 302.471 71.9816 301.601 72.3964C300.732 72.8055 299.621 73.01 298.269 73.01H291.579ZM294.212 70.7515H298.013C299.275 70.7515 300.178 70.5072 300.723 70.0185C301.269 69.5299 301.542 68.9191 301.542 68.1861C301.542 67.635 301.402 67.1293 301.124 66.6691C300.846 66.2089 300.448 65.8424 299.931 65.5697C299.419 65.2969 298.811 65.1606 298.107 65.1606H294.212V70.7515ZM294.212 63.1066H297.74C298.331 63.1066 298.863 62.993 299.334 62.7657C299.811 62.5384 300.189 62.2202 300.468 61.8111C300.752 61.3964 300.894 60.9077 300.894 60.3452C300.894 59.6236 300.641 59.0185 300.135 58.5299C299.63 58.0413 298.854 57.7969 297.809 57.7969H294.212V63.1066ZM314.412 61.562H328.356V63.194H314.412V61.562ZM318.9 66.05H320.34V74.666H318.9V66.05ZM322.548 66.05H324.012V74.618H322.548V66.05ZM320.436 52.898H322.164V59.09H320.436V52.898ZM315.156 65.426H327.108V66.986H316.788V74.906H315.156V65.426ZM326.22 65.426H327.852V73.25C327.852 74.018 327.732 74.45 327.252 74.666C326.724 74.954 326.052 74.954 324.972 74.954C324.9 74.522 324.684 73.922 324.468 73.514C325.164 73.538 325.764 73.538 325.956 73.514C326.148 73.514 326.22 73.442 326.22 73.226V65.426ZM320.436 62.09L322.5 62.522C322.044 63.89 321.612 65.426 321.228 66.41L319.692 66.002C319.98 64.898 320.292 63.218 320.436 62.09ZM315.444 54.074H317.124V58.178H325.812V54.074H327.54V59.762H315.444V54.074ZM306.588 57.674H314.172V59.33H306.588V57.674ZM309.612 53.162H311.244V58.49H309.612V53.162ZM306.132 70.034C308.316 69.626 311.508 68.906 314.604 68.234L314.772 69.794C311.892 70.538 308.868 71.258 306.564 71.81L306.132 70.034ZM307.116 60.506L308.508 60.266C309.06 62.738 309.468 65.906 309.492 68.018L308.004 68.258C308.004 66.146 307.62 62.954 307.116 60.506ZM311.916 60.05L313.62 60.41C313.164 63.218 312.516 66.938 311.94 69.17L310.596 68.81C311.124 66.554 311.7 62.714 311.916 60.05ZM330.996 55.13H351.756V56.786H330.996V55.13ZM340.356 52.874H342.204V56.09H340.356V52.874ZM332.028 59.33H350.148V60.938H333.732V74.906H332.028V59.33ZM349.188 59.33H350.916V72.722C350.916 73.778 350.676 74.354 349.908 74.642C349.116 74.906 347.796 74.954 345.804 74.954C345.732 74.474 345.444 73.658 345.204 73.178C346.764 73.25 348.204 73.226 348.636 73.202C349.068 73.202 349.188 73.082 349.188 72.722V59.33ZM338.076 60.506H339.708C339.468 63.65 338.46 65.282 334.764 66.17C334.596 65.786 334.188 65.162 333.876 64.874C337.116 64.226 337.884 63.026 338.076 60.506ZM342.54 60.506H344.124V63.314C344.124 63.77 344.22 63.818 344.82 63.818C345.132 63.818 346.548 63.818 346.932 63.818C347.436 63.818 347.532 63.674 347.604 62.234C347.916 62.474 348.564 62.69 348.996 62.786C348.852 64.73 348.42 65.21 347.148 65.21C346.788 65.21 344.988 65.21 344.652 65.21C342.924 65.21 342.54 64.826 342.54 63.338V60.506ZM336.9 66.458H338.508V73.826H336.9V66.458ZM337.86 66.458H346.02V72.362H337.86V70.946H344.388V67.874H337.86V66.458ZM335.604 56.786L337.356 56.426C337.908 57.338 338.46 58.562 338.7 59.354L336.876 59.786C336.66 58.97 336.132 57.722 335.604 56.786ZM345.276 56.354L347.244 56.714C346.668 57.866 346.068 58.994 345.564 59.786L343.812 59.426C344.316 58.586 344.94 57.242 345.276 56.354ZM364.404 52.874H366.252V56.066H364.404V52.874ZM355.452 55.01H375.396V59.786H373.572V56.666H357.204V59.786H355.452V55.01ZM358.524 59.066H372.036V60.65H358.524V59.066ZM361.668 62.666L363.012 61.826C368.34 65.762 368.46 72.458 365.988 74.186C365.172 74.834 364.5 75.002 363.42 75.002C362.844 75.002 362.076 74.978 361.332 74.93C361.284 74.45 361.116 73.706 360.804 73.202C361.692 73.298 362.508 73.322 363.06 73.322C363.708 73.322 364.236 73.274 364.716 72.866C366.42 71.642 366.324 66.218 361.668 62.666ZM365.268 59.426L366.756 60.074C364.284 62.474 360.012 64.322 356.268 65.402C356.076 65.066 355.596 64.322 355.284 63.986C358.956 63.098 363.084 61.466 365.268 59.426ZM363.564 64.01L364.764 64.826C362.772 66.458 359.172 68.33 356.412 69.314C356.196 68.906 355.812 68.282 355.452 67.922C358.164 67.178 361.788 65.474 363.564 64.01ZM365.34 66.482L366.588 67.394C364.092 69.914 359.412 72.554 355.572 73.826C355.356 73.37 354.948 72.722 354.612 72.314C358.428 71.306 363.084 68.81 365.34 66.482ZM367.548 59.69C368.868 65.09 371.748 69.674 376.308 71.498C375.9 71.858 375.348 72.554 375.06 73.058C370.332 70.898 367.5 66.026 366.06 60.002L367.548 59.69ZM373.716 61.466L375.108 62.666C373.476 63.986 371.22 65.474 369.516 66.386L368.388 65.282C370.02 64.322 372.348 62.69 373.716 61.466ZM383.796 68.426L385.644 69.122C384.108 71.09 381.828 73.13 379.884 74.45C379.524 74.09 378.756 73.49 378.276 73.202C380.292 72.05 382.452 70.202 383.796 68.426ZM392.748 69.338L394.212 68.33C396.252 69.794 398.892 71.906 400.212 73.274L398.628 74.402C397.404 73.034 394.836 70.85 392.748 69.338ZM380.46 59.786L381.708 58.682C383.868 59.882 386.58 61.754 387.9 63.122L386.58 64.418C385.332 63.05 382.668 61.082 380.46 59.786ZM393.012 62.858L394.452 61.922C396.564 63.602 399.132 66.026 400.38 67.682L398.772 68.738C397.644 67.106 395.124 64.61 393.012 62.858ZM388.356 66.218H390.252V74.954H388.356V66.218ZM378.684 65.522C383.34 65.498 390.876 65.354 397.836 65.21L397.74 66.818C390.9 67.058 383.628 67.226 378.876 67.322L378.684 65.522ZM393.372 56.81L395.1 57.722C392.172 60.842 388.02 64.466 384.852 66.722L383.46 65.81C386.676 63.554 390.852 59.738 393.372 56.81ZM387.156 55.178L388.884 56.066C387.468 57.794 385.572 59.786 384.108 61.058L382.692 60.266C384.132 58.97 386.052 56.786 387.156 55.178ZM397.164 53.21L398.484 54.746C393.612 55.682 386.124 56.186 379.884 56.33C379.836 55.874 379.62 55.154 379.452 54.722C385.644 54.53 393.036 54.026 397.164 53.21ZM419.148 59.762L420.564 59.042C421.836 60.722 423.42 62.978 424.116 64.346L422.604 65.21C421.932 63.818 420.444 61.466 419.148 59.762ZM411.132 56.354H424.092V57.986H411.132V56.354ZM418.116 64.586H419.868V72.17C419.868 72.794 419.964 72.89 420.468 72.89C420.708 72.89 421.836 72.89 422.124 72.89C422.652 72.89 422.724 72.434 422.796 69.554C423.156 69.866 423.876 70.154 424.356 70.298C424.212 73.562 423.804 74.45 422.292 74.45C421.956 74.45 420.516 74.45 420.204 74.45C418.524 74.45 418.116 73.922 418.116 72.17V64.586ZM413.604 64.61H415.38C415.188 69.986 414.42 73.106 410.076 74.858C409.86 74.426 409.38 73.73 408.972 73.418C412.884 71.93 413.46 69.362 413.604 64.61ZM411.252 64.682L411.204 63.338L412.212 62.738L421.884 61.922C421.884 62.378 421.98 63.05 422.052 63.386C412.932 64.274 411.9 64.394 411.252 64.682ZM415.62 53.258L417.3 52.802C417.828 53.762 418.452 55.106 418.74 55.874L416.964 56.426C416.7 55.61 416.124 54.242 415.62 53.258ZM411.252 64.682C411.156 64.226 410.82 63.314 410.628 62.906C411.084 62.81 411.708 62.642 412.164 62.186C412.836 61.538 415.236 58.298 416.1 57.026H418.236C417.012 58.778 414.636 62.042 413.364 63.482C413.364 63.482 411.252 64.178 411.252 64.682ZM402.948 68.642C402.852 68.282 402.564 67.394 402.348 66.914C402.852 66.818 403.428 66.218 404.172 65.33C404.964 64.466 407.532 61.106 409.188 57.866L410.796 58.826C408.876 62.09 406.524 65.306 404.22 67.634V67.706C404.22 67.706 402.948 68.282 402.948 68.642ZM402.948 68.642L402.828 67.106L403.716 66.482L410.172 65.21C410.148 65.69 410.148 66.41 410.22 66.77C404.268 68.09 403.452 68.33 402.948 68.642ZM402.78 62.882C402.684 62.474 402.372 61.538 402.132 61.01C402.588 60.914 403.044 60.362 403.572 59.546C404.148 58.754 405.924 55.658 406.956 52.778L408.804 53.618C407.484 56.57 405.684 59.666 403.932 61.826V61.874C403.932 61.874 402.78 62.498 402.78 62.882ZM402.78 62.882L402.756 61.49L403.62 60.914L408.132 60.458C408.036 60.914 407.964 61.61 407.988 61.97C403.884 62.522 403.188 62.666 402.78 62.882ZM402.348 71.738C404.316 71.234 407.244 70.346 410.148 69.482L410.436 71.042C407.748 71.93 404.94 72.842 402.78 73.538L402.348 71.738ZM427.308 58.634H445.836V60.434H427.308V58.634ZM445.092 58.634H446.964C446.964 58.634 446.964 59.306 446.94 59.57C446.58 69.194 446.244 72.602 445.284 73.706C444.756 74.378 444.18 74.594 443.316 74.666C442.476 74.738 440.94 74.714 439.476 74.618C439.428 74.09 439.188 73.298 438.852 72.746C440.46 72.914 441.972 72.914 442.572 72.914C443.076 72.914 443.34 72.842 443.628 72.554C444.396 71.786 444.78 68.234 445.092 59.018V58.634ZM435.204 52.898H437.028V55.754C437.028 61.13 436.452 69.05 428.076 74.618C427.788 74.186 427.116 73.586 426.66 73.274C434.7 68.066 435.204 60.722 435.204 55.754V52.898ZM429.228 54.194L430.788 53.522C431.748 54.578 432.876 56.09 433.38 57.074L431.748 57.842C431.292 56.882 430.188 55.322 429.228 54.194ZM437.316 64.13L438.804 63.386C440.076 64.802 441.54 66.746 442.164 68.018L440.58 68.858C439.98 67.586 438.54 65.57 437.316 64.13ZM456.708 54.098H465.42V55.706H456.708V54.098ZM459.06 59.114H463.644V60.722H458.556L459.06 59.114ZM457.668 64.562L458.436 63.194C459.756 64.058 461.34 65.306 462.084 66.122L461.292 67.682C460.548 66.77 458.988 65.474 457.668 64.562ZM465.564 55.586H467.196V69.434H465.564V55.586ZM469.932 53.234H471.636V72.674C471.636 73.826 471.348 74.33 470.652 74.618C469.956 74.906 468.756 74.954 466.884 74.954C466.788 74.498 466.524 73.706 466.284 73.202C467.724 73.25 468.996 73.226 469.404 73.226C469.788 73.202 469.932 73.082 469.932 72.674V53.234ZM459.036 54.65L460.788 54.89C460.14 59.042 458.916 64.106 456.324 67.154C456.06 66.794 455.556 66.218 455.196 65.906C457.548 63.098 458.604 58.346 459.036 54.65ZM462.948 59.114H463.284L463.596 59.042L464.628 59.378C463.692 67.202 461.052 72.362 457.356 75.002C457.116 74.57 456.54 73.898 456.18 73.634C459.708 71.21 462.156 66.506 462.948 59.498V59.114ZM454.932 52.946L456.612 53.426C455.244 57.554 453.108 61.754 450.732 64.538C450.564 64.13 450.084 63.146 449.772 62.714C451.884 60.314 453.78 56.642 454.932 52.946ZM453.012 58.874L454.62 57.242L454.668 57.29V74.93H453.012V58.874ZM479.978 65.7657C479.978 67.9077 479.696 69.8765 479.134 71.6719C478.571 73.4674 477.75 75.1236 476.671 76.6407H474.336C474.756 76.0782 475.148 75.3879 475.512 74.5697C475.875 73.7515 476.194 72.8566 476.466 71.885C476.739 70.9077 476.952 69.8964 477.105 68.8509C477.259 67.8055 477.336 66.7771 477.336 65.7657C477.336 64.4191 477.202 63.0526 476.935 61.6663C476.668 60.2799 476.307 58.993 475.853 57.8055C475.398 56.618 474.892 55.6492 474.336 54.8992H476.671C477.75 56.4163 478.571 58.0725 479.134 59.868C479.696 61.6634 479.978 63.6293 479.978 65.7657Z" fill="white"/>
<path d="M73.9447 99.01V90.2791H75.002V94.6104H75.1043L79.0264 90.2791H80.4076L76.7413 94.2182L80.4076 99.01H79.1287L76.0933 94.9515L75.002 96.1793V99.01H73.9447ZM83.9045 99.1464C83.2735 99.1464 82.7293 99.0072 82.2717 98.7286C81.817 98.4473 81.466 98.0551 81.2187 97.552C80.9743 97.0461 80.8521 96.4578 80.8521 95.7871C80.8521 95.1163 80.9743 94.5252 81.2187 94.0136C81.466 93.4992 81.8098 93.0985 82.2504 92.8114C82.6937 92.5215 83.211 92.3766 83.8022 92.3766C84.1432 92.3766 84.48 92.4334 84.8125 92.5471C85.145 92.6608 85.4477 92.8455 85.7206 93.1013C85.9934 93.3542 86.2108 93.6896 86.3728 94.1074C86.5348 94.5252 86.6158 95.0396 86.6158 95.6507V96.077H81.5683V95.2073H85.5927C85.5927 94.8378 85.5188 94.5081 85.371 94.2182C85.226 93.9283 85.0186 93.6996 84.7486 93.5319C84.4814 93.3642 84.1659 93.2804 83.8022 93.2804C83.4014 93.2804 83.0547 93.3798 82.7619 93.5788C82.4721 93.7749 82.2489 94.0307 82.0926 94.3461C81.9363 94.6616 81.8582 94.9998 81.8582 95.3608V95.9405C81.8582 96.4351 81.9434 96.8543 82.114 97.1982C82.2873 97.5392 82.5275 97.7993 82.8344 97.9783C83.1414 98.1545 83.498 98.2426 83.9045 98.2426C84.1688 98.2426 84.4075 98.2057 84.6207 98.1318C84.8367 98.0551 85.0228 97.9414 85.1791 97.7908C85.3355 97.6373 85.4563 97.4469 85.5415 97.2195L86.5135 97.4923C86.4112 97.822 86.2392 98.1119 85.9977 98.362C85.7561 98.6093 85.4577 98.8025 85.1024 98.9418C84.7471 99.0782 84.3478 99.1464 83.9045 99.1464ZM88.595 101.466C88.4245 101.466 88.2724 101.451 88.1388 101.423C88.0053 101.397 87.9129 101.372 87.8617 101.346L88.1175 100.459C88.3619 100.522 88.5779 100.545 88.7655 100.528C88.9531 100.511 89.1194 100.427 89.2643 100.276C89.4121 100.128 89.5471 99.8882 89.6693 99.5557L89.8569 99.0441L87.4354 92.4618H88.5268L90.3343 97.6799H90.4026L92.2101 92.4618H93.3015L90.5219 99.965C90.3969 100.303 90.242 100.583 90.0572 100.805C89.8725 101.029 89.6579 101.196 89.4135 101.304C89.1719 101.412 88.8991 101.466 88.595 101.466ZM96.113 99.01L94.1179 92.4618H95.1751L96.5905 97.4753H96.6587L98.057 92.4618H99.1313L100.513 97.4582H100.581L101.996 92.4618H103.053L101.058 99.01H100.069L98.6368 93.9795H98.5345L97.1021 99.01H96.113ZM106.821 99.1464C106.23 99.1464 105.711 99.0057 105.265 98.7244C104.822 98.443 104.475 98.0494 104.225 97.5435C103.977 97.0376 103.854 96.4464 103.854 95.77C103.854 95.0879 103.977 94.4925 104.225 93.9838C104.475 93.475 104.822 93.08 105.265 92.7986C105.711 92.5172 106.23 92.3766 106.821 92.3766C107.412 92.3766 107.929 92.5172 108.373 92.7986C108.819 93.08 109.166 93.475 109.413 93.9838C109.663 94.4925 109.788 95.0879 109.788 95.77C109.788 96.4464 109.663 97.0376 109.413 97.5435C109.166 98.0494 108.819 98.443 108.373 98.7244C107.929 99.0057 107.412 99.1464 106.821 99.1464ZM106.821 98.2426C107.27 98.2426 107.639 98.1275 107.929 97.8973C108.219 97.6671 108.434 97.3644 108.573 96.9893C108.712 96.6141 108.782 96.2077 108.782 95.77C108.782 95.3323 108.712 94.9245 108.573 94.5465C108.434 94.1685 108.219 93.863 107.929 93.6299C107.639 93.3969 107.27 93.2804 106.821 93.2804C106.372 93.2804 106.002 93.3969 105.713 93.6299C105.423 93.863 105.208 94.1685 105.069 94.5465C104.93 94.9245 104.86 95.3323 104.86 95.77C104.86 96.2077 104.93 96.6141 105.069 96.9893C105.208 97.3644 105.423 97.6671 105.713 97.8973C106.002 98.1275 106.372 98.2426 106.821 98.2426ZM111.324 99.01V92.4618H112.296V93.4509H112.364C112.483 93.1269 112.699 92.864 113.012 92.6622C113.325 92.4604 113.677 92.3595 114.069 92.3595C114.143 92.3595 114.236 92.3609 114.346 92.3638C114.457 92.3666 114.541 92.3709 114.598 92.3766V93.3997C114.564 93.3912 114.486 93.3784 114.364 93.3613C114.244 93.3415 114.118 93.3315 113.984 93.3315C113.666 93.3315 113.382 93.3983 113.131 93.5319C112.884 93.6626 112.688 93.8445 112.543 94.0776C112.401 94.3078 112.33 94.5707 112.33 94.8662V99.01H111.324ZM118.064 99.1464C117.518 99.1464 117.037 99.0086 116.619 98.7329C116.201 98.4544 115.874 98.0622 115.638 97.5563C115.402 97.0475 115.284 96.4464 115.284 95.753C115.284 95.0652 115.402 94.4683 115.638 93.9625C115.874 93.4566 116.202 93.0658 116.623 92.7901C117.044 92.5144 117.53 92.3766 118.081 92.3766C118.507 92.3766 118.844 92.4476 119.091 92.5897C119.341 92.729 119.532 92.8881 119.663 93.0672C119.796 93.2434 119.9 93.3883 119.974 93.502H120.059V90.2791H121.065V99.01H120.093V98.0039H119.974C119.9 98.1233 119.795 98.2739 119.658 98.4558C119.522 98.6349 119.327 98.7954 119.074 98.9375C118.821 99.0768 118.485 99.1464 118.064 99.1464ZM118.2 98.2426C118.604 98.2426 118.945 98.1375 119.224 97.9272C119.502 97.714 119.714 97.4199 119.859 97.0447C120.004 96.6667 120.076 96.2304 120.076 95.7359C120.076 95.2471 120.005 94.8193 119.863 94.4527C119.721 94.0832 119.511 93.7962 119.232 93.5916C118.954 93.3841 118.61 93.2804 118.2 93.2804C117.774 93.2804 117.419 93.3898 117.135 93.6086C116.853 93.8246 116.641 94.1188 116.499 94.4911C116.36 94.8606 116.29 95.2755 116.29 95.7359C116.29 96.202 116.362 96.6255 116.504 97.0063C116.649 97.3843 116.862 97.6856 117.143 97.9101C117.427 98.1318 117.78 98.2426 118.2 98.2426ZM123.781 99.0782C123.57 99.0782 123.39 99.0029 123.239 98.8523C123.089 98.7016 123.013 98.5212 123.013 98.3109C123.013 98.1005 123.089 97.9201 123.239 97.7694C123.39 97.6188 123.57 97.5435 123.781 97.5435C123.991 97.5435 124.172 97.6188 124.322 97.7694C124.473 97.9201 124.548 98.1005 124.548 98.3109C124.548 98.4501 124.513 98.578 124.442 98.6945C124.373 98.8111 124.281 98.9049 124.164 98.9759C124.051 99.0441 123.923 99.0782 123.781 99.0782ZM123.781 94.2182C123.57 94.2182 123.39 94.1429 123.239 93.9923C123.089 93.8417 123.013 93.6612 123.013 93.4509C123.013 93.2406 123.089 93.0601 123.239 92.9095C123.39 92.7588 123.57 92.6835 123.781 92.6835C123.991 92.6835 124.172 92.7588 124.322 92.9095C124.473 93.0601 124.548 93.2406 124.548 93.4509C124.548 93.5901 124.513 93.718 124.442 93.8346C124.373 93.9511 124.281 94.0449 124.164 94.1159C124.051 94.1841 123.923 94.2182 123.781 94.2182ZM129.866 99.01V90.2791H135.136V91.217H130.924V94.1671H134.863V95.105H130.924V98.0721H135.204V99.01H129.866ZM137.041 99.01V90.2791H139.991C140.673 90.2791 141.233 90.3956 141.671 90.6287C142.109 90.8589 142.433 91.1758 142.643 91.5794C142.853 91.9829 142.959 92.4419 142.959 92.9564C142.959 93.4708 142.853 93.9269 142.643 94.3248C142.433 94.7227 142.11 95.0353 141.675 95.2627C141.24 95.4872 140.685 95.5995 140.008 95.5995H137.621V94.6446H139.974C140.44 94.6446 140.816 94.5763 141.1 94.4399C141.387 94.3035 141.594 94.1102 141.722 93.8601C141.853 93.6072 141.918 93.3059 141.918 92.9564C141.918 92.6068 141.853 92.3012 141.722 92.0398C141.591 91.7783 141.383 91.5765 141.096 91.4344C140.808 91.2895 140.429 91.217 139.957 91.217H138.099V99.01H137.041ZM141.151 95.0879L143.3 99.01H142.072L139.957 95.0879H141.151ZM144.72 99.01V90.2791H147.67C148.355 90.2791 148.915 90.4027 149.35 90.65C149.788 90.8944 150.112 91.2255 150.322 91.6433C150.532 92.0611 150.638 92.5272 150.638 93.0416C150.638 93.556 150.532 94.0236 150.322 94.4442C150.115 94.8648 149.793 95.2002 149.359 95.4503C148.924 95.6976 148.367 95.8212 147.687 95.8212H145.573V94.8833H147.653C148.122 94.8833 148.499 94.8023 148.783 94.6403C149.067 94.4783 149.273 94.2595 149.401 93.9838C149.532 93.7052 149.597 93.3912 149.597 93.0416C149.597 92.692 149.532 92.3794 149.401 92.1037C149.273 91.828 149.066 91.612 148.779 91.4557C148.492 91.2966 148.111 91.217 147.636 91.217H145.778V99.01H144.72ZM154.501 96.7171L155.425 97.0652C154.657 98.0496 153.516 99.07 152.544 99.7303C152.364 99.5502 151.98 99.2501 151.74 99.106C152.748 98.5298 153.828 97.6054 154.501 96.7171ZM158.979 97.1732L159.711 96.669C160.731 97.4013 162.052 98.4578 162.712 99.1421L161.92 99.7063C161.308 99.022 160.023 97.9296 158.979 97.1732ZM152.832 92.3953L153.456 91.843C154.537 92.4433 155.893 93.3797 156.554 94.0639L155.893 94.7122C155.269 94.0279 153.936 93.0435 152.832 92.3953ZM159.111 93.9319L159.831 93.4637C160.887 94.304 162.172 95.5166 162.796 96.3449L161.992 96.8731C161.428 96.0568 160.167 94.8083 159.111 93.9319ZM156.782 95.6126H157.73V99.9824H156.782V95.6126ZM151.944 95.2644C154.273 95.2524 158.042 95.1804 161.524 95.1084L161.476 95.9127C158.054 96.0328 154.417 96.1168 152.04 96.1648L151.944 95.2644ZM159.291 90.9066L160.155 91.3628C158.69 92.9235 156.614 94.7362 155.029 95.8647L154.333 95.4085C155.941 94.28 158.03 92.3712 159.291 90.9066ZM156.181 90.0903L157.046 90.5345C156.337 91.3988 155.389 92.3953 154.657 93.0315L153.948 92.6354C154.669 91.9871 155.629 90.8946 156.181 90.0903ZM161.188 89.1059L161.848 89.8742C159.411 90.3424 155.665 90.5945 152.544 90.6665C152.52 90.4384 152.412 90.0783 152.328 89.8622C155.425 89.7662 159.123 89.5141 161.188 89.1059ZM172.184 92.3832L172.892 92.0231C173.529 92.8634 174.321 93.9919 174.669 94.6762L173.913 95.1084C173.577 94.4121 172.832 93.2356 172.184 92.3832ZM168.174 90.6785H174.657V91.4949H168.174V90.6785ZM171.668 94.7963H172.544V98.5898C172.544 98.902 172.592 98.95 172.844 98.95C172.964 98.95 173.529 98.95 173.673 98.95C173.937 98.95 173.973 98.7219 174.009 97.2813C174.189 97.4374 174.549 97.5814 174.789 97.6534C174.717 99.2861 174.513 99.7303 173.757 99.7303C173.589 99.7303 172.868 99.7303 172.712 99.7303C171.872 99.7303 171.668 99.4662 171.668 98.5898V94.7963ZM169.411 94.8083H170.299C170.203 97.4974 169.819 99.058 167.646 99.9344C167.538 99.7183 167.298 99.3702 167.094 99.2141C169.051 98.4698 169.339 97.1852 169.411 94.8083ZM168.234 94.8443L168.21 94.172L168.715 93.8719L173.553 93.4637C173.553 93.6918 173.601 94.0279 173.637 94.196C169.075 94.6402 168.559 94.7002 168.234 94.8443ZM170.419 89.1299L171.26 88.9018C171.524 89.382 171.836 90.0543 171.98 90.4384L171.092 90.7146C170.96 90.3064 170.671 89.6221 170.419 89.1299ZM168.234 94.8443C168.186 94.6162 168.018 94.16 167.922 93.9559C168.15 93.9079 168.463 93.8238 168.691 93.5958C169.027 93.2716 170.227 91.6509 170.659 91.0147H171.728C171.116 91.891 169.927 93.5237 169.291 94.244C169.291 94.244 168.234 94.5922 168.234 94.8443ZM164.081 96.8251C164.033 96.645 163.889 96.2008 163.781 95.9607C164.033 95.9127 164.321 95.6126 164.693 95.1684C165.089 94.7362 166.374 93.0555 167.202 91.4349L168.006 91.9151C167.046 93.5477 165.869 95.1564 164.717 96.3209V96.3569C164.717 96.3569 164.081 96.645 164.081 96.8251ZM164.081 96.8251L164.021 96.0568L164.465 95.7446L167.694 95.1084C167.682 95.3485 167.682 95.7086 167.718 95.8887C164.741 96.549 164.333 96.669 164.081 96.8251ZM163.997 93.9439C163.949 93.7398 163.793 93.2716 163.673 93.0075C163.901 92.9595 164.129 92.6834 164.393 92.2752C164.681 91.879 165.569 90.3304 166.086 88.8898L167.01 89.31C166.35 90.7866 165.449 92.3352 164.573 93.4157V93.4397C164.573 93.4397 163.997 93.7518 163.997 93.9439ZM163.997 93.9439L163.985 93.2476L164.417 92.9595L166.674 92.7314C166.626 92.9595 166.59 93.3076 166.602 93.4877C164.549 93.7638 164.201 93.8359 163.997 93.9439ZM163.781 98.3737C164.765 98.1216 166.23 97.6775 167.682 97.2453L167.826 98.0256C166.482 98.4698 165.077 98.926 163.997 99.2741L163.781 98.3737ZM178.571 99.6823C177.79 98.7339 176.758 97.7135 175.906 97.0172L176.686 96.3329C177.55 97.0292 178.631 98.1096 179.387 98.986L178.571 99.6823ZM190.312 91.5789L190.912 91.0507C191.812 91.4709 192.917 92.1431 193.457 92.6474L192.821 93.2356C192.304 92.7314 191.212 92.0231 190.312 91.5789ZM195.858 89.9462H196.038L196.194 89.8982L196.782 90.2584C195.222 93.0555 191.668 94.7362 188.499 95.4325C188.415 95.2044 188.235 94.8323 188.067 94.6402C191.092 94.076 194.549 92.4553 195.858 90.0903V89.9462ZM191.848 89.9462H196.086V90.7025H191.848V89.9462ZM192.737 88.9138L193.745 89.1299C192.641 90.4024 191.008 91.5909 188.775 92.4793C188.643 92.2632 188.367 91.9631 188.163 91.807C190.324 91.0507 191.908 89.9222 192.737 88.9138ZM191.848 95.9847L192.509 95.4685C193.457 95.9607 194.609 96.7171 195.186 97.2933L194.477 97.8695C193.937 97.3053 192.797 96.501 191.848 95.9847ZM197.611 94.148H197.791L197.959 94.1L198.547 94.4241C197.034 97.9296 193.289 99.4302 189.363 100.006C189.303 99.7543 189.123 99.3822 188.979 99.1781C192.689 98.7339 196.314 97.3053 197.611 94.28V94.148ZM193.709 94.148H197.851V94.9163H193.709V94.148ZM194.681 93.0195L195.678 93.2476C194.465 94.6642 192.569 95.9727 189.939 96.8971C189.831 96.693 189.567 96.3689 189.375 96.2008C191.92 95.4085 193.745 94.16 194.681 93.0195ZM203.829 93.2836H210.804V94.1H203.829V93.2836ZM206.074 95.5286H206.795V99.8384H206.074V95.5286ZM207.899 95.5286H208.631V99.8143H207.899V95.5286ZM206.843 88.9498H207.707V92.0471H206.843V88.9498ZM204.201 95.2164H210.18V95.9968H205.018V99.9584H204.201V95.2164ZM209.736 95.2164H210.552V99.1301C210.552 99.5142 210.492 99.7303 210.252 99.8384C209.988 99.9824 209.652 99.9824 209.111 99.9824C209.075 99.7663 208.967 99.4662 208.859 99.2621C209.208 99.2741 209.508 99.2741 209.604 99.2621C209.7 99.2621 209.736 99.2261 209.736 99.1181V95.2164ZM206.843 93.5477L207.875 93.7638C207.647 94.4481 207.431 95.2164 207.239 95.7086L206.47 95.5045C206.614 94.9523 206.77 94.112 206.843 93.5477ZM204.345 89.5381H205.186V91.5909H209.532V89.5381H210.396V92.3832H204.345V89.5381ZM199.916 91.3388H203.709V92.1672H199.916V91.3388ZM201.428 89.0819H202.245V91.747H201.428V89.0819ZM199.688 97.5214C200.78 97.3173 202.377 96.9572 203.925 96.621L204.009 97.4013C202.569 97.7735 201.056 98.1336 199.904 98.4098L199.688 97.5214ZM200.18 92.7554L200.876 92.6354C201.152 93.8719 201.356 95.4565 201.368 96.513L200.624 96.633C200.624 95.5766 200.432 93.9799 200.18 92.7554ZM202.581 92.5273L203.433 92.7074C203.205 94.112 202.881 95.9727 202.593 97.0892L201.92 96.9091C202.185 95.7807 202.473 93.8599 202.581 92.5273ZM212.761 89.7061L213.349 89.1539C213.998 89.6821 214.814 90.4504 215.198 90.9426L214.586 91.5909C214.214 91.0747 213.409 90.2704 212.761 89.7061ZM213.397 99.7303L213.229 98.926L213.469 98.5538L215.714 96.9211C215.798 97.1612 215.942 97.4974 216.05 97.6654C213.913 99.2501 213.589 99.5022 213.397 99.7303ZM211.825 92.6954H213.949V93.5717H211.825V92.6954ZM217.443 89.37H220.588V90.2103H217.443V89.37ZM215.906 94.232H221.513V95.0844H215.906V94.232ZM221.237 94.232H221.405L221.561 94.196L222.113 94.4481C221.128 97.5814 218.631 99.2381 215.834 99.9824C215.75 99.7543 215.558 99.3942 215.402 99.1901C217.995 98.6138 220.384 97.0292 221.237 94.3761V94.232ZM217.119 94.8683C218.067 97.0652 220.108 98.6379 222.869 99.2141C222.665 99.4062 222.425 99.7663 222.305 100.006C219.472 99.3221 217.455 97.6174 216.362 95.1324L217.119 94.8683ZM217.203 89.37H218.043V90.7146C218.043 91.843 217.659 93.1396 215.93 93.9679C215.822 93.7878 215.51 93.4397 215.342 93.3076C216.927 92.5753 217.203 91.5789 217.203 90.7025V89.37ZM220.168 89.37H221.02V92.1552C221.02 92.4913 221.056 92.6113 221.237 92.6113C221.381 92.6113 221.921 92.6113 222.077 92.6113C222.233 92.6113 222.485 92.5873 222.641 92.5513C222.653 92.7794 222.689 93.1156 222.725 93.3196C222.569 93.3797 222.329 93.3917 222.089 93.3917C221.909 93.3917 221.321 93.3917 221.176 93.3917C220.348 93.3917 220.168 93.0435 220.168 92.1431V89.37ZM213.397 99.7303C213.325 99.5262 213.073 99.1421 212.917 98.974C213.133 98.8179 213.517 98.4218 213.517 97.8815V92.6954H214.382V98.6499C214.382 98.6499 213.397 99.3822 213.397 99.7303ZM224.958 89.7181L225.534 89.1419C226.207 89.6701 227.059 90.4384 227.455 90.9426L226.855 91.6029C226.459 91.0987 225.618 90.2824 224.958 89.7181ZM225.654 99.7423L225.486 98.8539L225.75 98.4698L228.151 96.8251C228.211 97.0772 228.355 97.4494 228.452 97.6294C226.183 99.2381 225.846 99.4902 225.654 99.7423ZM223.866 92.6954H226.327V93.5958H223.866V92.6954ZM227.767 92.9115H234.826V93.8359H227.767V92.9115ZM230.817 88.9618H231.765V99.9704H230.817V88.9618ZM225.654 99.7423C225.57 99.5022 225.342 99.106 225.174 98.914C225.402 98.7699 225.762 98.4218 225.762 97.9055V92.6954H226.675V98.7099C226.675 98.7099 225.654 99.3942 225.654 99.7423ZM238.596 99.6823C237.815 98.7339 236.783 97.7135 235.931 97.0172L236.711 96.3329C237.575 97.0292 238.656 98.1096 239.412 98.986L238.596 99.6823ZM248.044 90.7746H258.62V91.6389H248.044V90.7746ZM253.434 92.2272H254.346V99.9824H253.434V92.2272ZM249.988 93.8359H257.444V94.7002H250.877V98.8539H249.988V93.8359ZM257.047 93.8359H257.96V97.7255C257.96 98.1937 257.852 98.4578 257.468 98.6018C257.095 98.7339 256.459 98.7459 255.439 98.7339C255.391 98.4938 255.259 98.1577 255.127 97.9176C255.895 97.9416 256.591 97.9416 256.783 97.9296C256.987 97.9176 257.047 97.8695 257.047 97.7135V93.8359ZM252.113 88.9258L253.038 89.1419C252.173 91.9391 250.673 94.7602 248.224 96.477C248.104 96.2609 247.864 95.9007 247.684 95.7086C249.952 94.16 251.405 91.4589 252.113 88.9258ZM261.693 89.5621H269.449V92.6474H261.693V91.867H268.548V90.3424H261.693V89.5621ZM261.153 89.5621H262.042V92.4313C262.042 94.5081 261.825 97.5934 260.385 99.6703C260.241 99.4902 259.857 99.1901 259.653 99.094C261.021 97.1372 261.153 94.3761 261.153 92.4313V89.5621ZM261.705 93.6918H269.677V94.4961H261.705V93.6918ZM263.506 95.4325H267.612V98.5418H263.506V97.7975H266.759V96.1888H263.506V95.4325ZM263.026 95.4325H263.854V99.2501H263.026V95.4325ZM269.377 93.6918H270.277C270.277 93.6918 270.277 93.9799 270.277 94.1C270.109 97.7855 269.977 99.1181 269.605 99.5502C269.389 99.8263 269.148 99.9104 268.788 99.9464C268.44 99.9704 267.816 99.9704 267.18 99.9344C267.156 99.6823 267.06 99.3221 266.916 99.082C267.564 99.1421 268.152 99.1541 268.368 99.1541C268.596 99.1541 268.716 99.1181 268.824 98.986C269.088 98.6859 269.257 97.4013 269.377 93.8599V93.6918ZM273.89 93.2356H280.865V94.076H273.89V93.2356ZM273.89 95.8407H280.865V96.681H273.89V95.8407ZM273.89 98.4698H280.865V99.3101H273.89V98.4698ZM273.278 90.5705H281.562V99.9224H280.625V91.4349H274.191V99.9824H273.278V90.5705ZM276.796 88.9138L277.84 89.0459C277.576 89.7662 277.264 90.5465 277 91.0627L276.195 90.9066C276.412 90.3424 276.676 89.502 276.796 88.9138ZM293.639 89.0098L294.263 89.6821C292.546 90.1023 289.881 90.3664 287.648 90.4745C287.624 90.2704 287.516 89.9582 287.42 89.7662C289.617 89.6341 292.21 89.37 293.639 89.0098ZM290.421 90.0063H291.322V94.6882H290.421V90.0063ZM287.036 91.807H294.719V92.5873H287.036V91.807ZM286.352 94.5201V98.0256H285.463V95.3485H283.891V94.5201H286.352ZM286.352 97.5454C286.928 98.4218 287.984 98.8419 289.401 98.902C290.721 98.938 293.471 98.914 294.911 98.8179C294.791 99.022 294.659 99.4422 294.611 99.7183C293.279 99.7663 290.745 99.7903 289.401 99.7543C287.828 99.6823 286.736 99.2621 285.955 98.3137C285.403 98.8299 284.815 99.3461 284.203 99.8744L283.735 98.974C284.275 98.5898 284.959 98.0616 285.547 97.5454H286.352ZM284.407 89.6341L285.007 89.0819C285.727 89.454 286.592 90.0543 287 90.5225L286.376 91.1347C285.979 90.6665 285.139 90.0423 284.407 89.6341ZM283.939 92.0831L284.539 91.4949C285.283 91.843 286.196 92.4193 286.64 92.8875L286.015 93.5237C285.595 93.0675 284.707 92.4553 283.939 92.0831ZM288.729 94.9883V97.0532H293.158V94.9883H288.729ZM287.876 94.196H294.059V97.8455H287.876V94.196ZM297.24 90.4745H306.652V91.3268H297.24V90.4745ZM296.784 90.4745H297.696V93.7518C297.696 95.5766 297.54 98.2657 296.556 100.066C296.4 99.8984 295.98 99.6463 295.776 99.5622C296.7 97.8575 296.784 95.4565 296.784 93.7518V90.4745ZM300.95 89.0699L301.826 88.8418C302.126 89.37 302.462 90.0423 302.606 90.4745L301.694 90.7626C301.55 90.3064 301.226 89.5981 300.95 89.0699ZM298.501 93.1276L299.281 92.8154C299.809 94.124 300.385 95.7927 300.65 96.9091L299.809 97.2693C299.569 96.1408 298.993 94.4361 298.501 93.1276ZM301.106 92.4673L301.922 92.2272C302.342 93.5357 302.786 95.2164 302.967 96.3329L302.102 96.585C301.946 95.4685 301.502 93.7638 301.106 92.4673ZM305.175 92.1552L306.112 92.5033C305.464 94.7602 304.419 97.2573 303.123 99.2501C302.991 99.094 302.714 98.8419 302.522 98.7099C303.735 96.8251 304.695 94.292 305.175 92.1552ZM297.84 98.5538H306.808V99.4182H297.84V98.5538ZM310.626 99.6823C309.845 98.7339 308.813 97.7135 307.961 97.0172L308.741 96.3329C309.605 97.0292 310.686 98.1096 311.442 98.986L310.626 99.6823ZM320.086 95.5166H330.686V96.3689H320.086V95.5166ZM327.121 94.5922H328.045V98.902C328.045 99.4302 327.901 99.6823 327.469 99.8023C327.037 99.9344 326.316 99.9344 325.152 99.9344C325.116 99.6943 324.96 99.3582 324.84 99.1181C325.728 99.1541 326.592 99.1421 326.821 99.1301C327.049 99.1301 327.121 99.07 327.121 98.89V94.5922ZM321.886 96.8251L322.511 96.2969C323.267 96.9091 324.119 97.7855 324.516 98.3978L323.843 98.998C323.483 98.3737 322.631 97.4614 321.886 96.8251ZM320.974 89.7782H321.91V92.9115C321.91 93.4157 322.151 93.5357 323.483 93.5357C324.107 93.5357 327.433 93.5357 328.273 93.5357C329.258 93.5357 329.426 93.3677 329.534 92.4793C329.762 92.6113 330.134 92.7194 330.398 92.7674C330.242 93.9919 329.858 94.292 328.345 94.292C327.853 94.292 323.999 94.292 323.543 94.292C321.562 94.292 320.974 94.0399 320.974 92.9235V89.7782ZM321.286 91.4589H328.381V90.1983H320.974V89.406H329.258V92.2632H321.286V91.4589ZM339.234 88.9498H340.098V91.2428H339.234V88.9498ZM336.629 90.8466H342.859V91.6509H336.629V90.8466ZM338.117 92.9595H341.01V93.7638H338.117V92.9595ZM337.661 92.9595H338.513V95.6486C338.513 97.0052 338.321 98.7939 337.145 99.9584C336.989 99.8143 336.641 99.5502 336.449 99.4542C337.541 98.3617 337.661 96.8371 337.661 95.6246V92.9595ZM334.072 95.2644H334.66V98.1216H334.072V95.2644ZM333.015 90.5585H335.728V91.2908H333.015V90.5585ZM335.476 90.5585H336.232V99.022C336.232 99.4542 336.136 99.6823 335.872 99.8143C335.584 99.9344 335.152 99.9464 334.42 99.9464C334.396 99.7423 334.276 99.4182 334.168 99.2141C334.684 99.2261 335.152 99.2261 335.284 99.2141C335.428 99.2141 335.476 99.1661 335.476 99.022V90.5585ZM332.667 90.5585H333.411V94.9283C333.411 96.489 333.279 98.6138 332.415 99.9704C332.283 99.8384 331.959 99.6463 331.779 99.5622C332.595 98.2537 332.667 96.3929 332.667 94.9283V90.5585ZM331.803 94.3521C333.087 94.28 335.032 94.148 336.929 94.0159L336.941 94.7362C335.116 94.8803 333.231 95.0243 331.899 95.1204L331.803 94.3521ZM333.783 92.0351L334.348 91.807C334.684 92.3112 334.972 92.9955 335.068 93.4517L334.456 93.7038C334.36 93.2476 334.084 92.5513 333.783 92.0351ZM334.132 88.9258L335.08 89.1059C334.864 89.7542 334.612 90.4624 334.42 90.9186L333.627 90.7506C333.819 90.2464 334.036 89.454 334.132 88.9258ZM340.53 92.9595H341.383V98.4218C341.383 98.7219 341.407 98.902 341.443 98.95C341.491 98.986 341.551 99.01 341.635 99.01C341.707 99.01 341.851 99.01 341.947 99.01C342.043 99.01 342.139 98.986 342.187 98.938C342.247 98.902 342.271 98.7939 342.295 98.6018C342.331 98.3857 342.343 97.9296 342.343 97.3173C342.511 97.4614 342.775 97.5934 342.979 97.6654C342.979 98.2057 342.943 98.89 342.883 99.1181C342.823 99.3702 342.715 99.5262 342.559 99.6343C342.427 99.7303 342.199 99.7783 341.983 99.7783C341.839 99.7783 341.551 99.7783 341.419 99.7783C341.19 99.7783 340.938 99.7183 340.758 99.5622C340.59 99.3942 340.53 99.1901 340.53 98.3737V92.9595ZM346.641 99.6823C345.86 98.7339 344.828 97.7135 343.976 97.0172L344.756 96.3329C345.62 97.0292 346.701 98.1096 347.457 98.986L346.641 99.6823ZM362.631 98.0376H365.897V98.914H362.631V98.0376ZM356.005 91.2068H360.615V92.0831H356.005V91.2068ZM362.223 90.4264H366.329V99.7063H365.417V91.2908H363.1V99.7903H362.223V90.4264ZM360.374 91.2068H361.251C361.251 91.2068 361.251 91.5429 361.251 91.6629C361.155 97.0052 361.071 98.7579 360.687 99.2861C360.471 99.5983 360.254 99.7063 359.894 99.7423C359.558 99.7903 359.006 99.7903 358.466 99.7543C358.454 99.4902 358.358 99.094 358.202 98.8419C358.766 98.89 359.282 98.89 359.51 98.89C359.69 98.902 359.798 98.8659 359.906 98.7099C360.182 98.3377 360.29 96.561 360.374 91.4228V91.2068ZM357.709 89.0939H358.586C358.574 93.5237 358.514 97.6895 356.401 99.9824C356.245 99.7783 355.933 99.5022 355.705 99.3702C357.709 97.2573 357.697 93.2956 357.709 89.0939ZM376.209 89.5981L376.845 89.1779C377.398 89.6101 378.058 90.2464 378.346 90.7025L377.674 91.1707C377.386 90.7266 376.749 90.0663 376.209 89.5981ZM368.01 91.6509H378.778V92.3832H368.01V91.6509ZM368.634 89.8982H373.916V90.6185H368.634V89.8982ZM370.927 88.9258H371.791V92.0231H370.927V88.9258ZM374.672 88.9498H375.573C375.513 94.6762 376.329 98.998 377.722 98.998C378.022 98.998 378.142 98.4698 378.214 97.0652C378.394 97.2573 378.706 97.4494 378.922 97.5334C378.778 99.3221 378.478 99.8744 377.65 99.8744C375.393 99.8744 374.708 94.9043 374.672 88.9498ZM377.434 93.0075L378.238 93.2356C377.446 95.9727 376.065 98.4818 374.084 99.9944C373.94 99.8143 373.664 99.5502 373.448 99.3822C375.357 98.0256 376.725 95.5886 377.434 93.0075ZM368.202 93.5837H374.36V94.3281H368.202V93.5837ZM371.359 94.7002H372.211V99.9224H371.359V94.7002ZM368.826 96.609C368.778 96.4289 368.658 96.0088 368.538 95.7927C368.73 95.7446 368.91 95.5166 369.102 95.1804C369.306 94.8563 369.978 93.5958 370.339 92.4073L371.227 92.6474C370.723 93.9439 370.026 95.2524 369.378 96.1408V96.1648C369.378 96.1648 368.826 96.4289 368.826 96.609ZM368.826 96.609V95.9367L369.318 95.6726H374.12L374.108 96.4409H369.786C369.282 96.4409 368.934 96.513 368.826 96.609ZM368.142 97.9176C369.654 97.8095 372.067 97.5814 374.396 97.3653L374.384 98.1216C372.163 98.3497 369.822 98.5898 368.238 98.7459L368.142 97.9176ZM382.656 99.6823C381.875 98.7339 380.843 97.7135 379.991 97.0172L380.771 96.3329C381.635 97.0292 382.716 98.1096 383.472 98.986L382.656 99.6823ZM397.746 98.7219H401.708V99.5142H397.746V98.7219ZM398.334 90.1623H401.504V90.9426H398.334V90.1623ZM397.398 95.6246H402.116V99.9104H401.252V96.4049H398.226V99.9464H397.398V95.6246ZM401.179 90.1623H401.336L401.504 90.1263L402.08 90.3664C401.155 93.3196 398.959 95.2885 396.678 96.2609C396.57 96.0568 396.329 95.7446 396.149 95.5766C398.274 94.7602 400.399 92.8274 401.179 90.3184V90.1623ZM398.538 88.9258L399.403 89.1299C398.863 90.7626 397.974 92.2872 396.978 93.2836C396.834 93.1276 396.486 92.8394 396.269 92.7074C397.254 91.807 398.082 90.4024 398.538 88.9258ZM398.298 90.6545C398.995 92.3712 400.603 94.4361 403.064 95.3725C402.872 95.5406 402.62 95.8887 402.5 96.1168C400.027 95.0484 398.442 92.8755 397.71 91.1467L398.298 90.6545ZM392.452 94.256H393.208V98.6138H392.452V94.256ZM393.256 90.2223V92.3352H395.513V90.2223H393.256ZM392.452 89.43H396.353V93.1276H392.452V89.43ZM394.145 92.7314H394.961V98.2177H394.145V92.7314ZM391.828 98.5178C393.016 98.2777 394.817 97.8575 396.546 97.4494L396.63 98.2537C394.985 98.6619 393.256 99.082 391.996 99.3942L391.828 98.5178ZM394.433 94.8683H396.462V95.6726H394.433V94.8683ZM405.177 94.7842H413.557V95.6606H405.177V94.7842ZM405.177 98.3377H413.521V99.2261H405.177V98.3377ZM404.757 91.2668H414.037V99.9224H413.112V92.1672H405.645V99.9704H404.757V91.2668ZM408.887 88.9378H409.811V98.8059H408.887V88.9378ZM418.671 99.6823C417.89 98.7339 416.858 97.7135 416.006 97.0172L416.786 96.3329C417.65 97.0292 418.731 98.1096 419.487 98.986L418.671 99.6823ZM427.867 95.3365H433.761V96.0928H427.867V95.3365ZM427.939 91.1467H433.725V91.879H427.939V91.1467ZM430.1 94.304L430.94 94.4841C430.4 95.6606 429.643 97.1252 429.091 98.0736L428.299 97.7975C428.839 96.8851 429.595 95.4085 430.1 94.304ZM431.9 95.7807L432.741 95.8887C432.332 98.2297 431.072 99.3822 428.299 99.9704C428.239 99.7303 428.059 99.4062 427.891 99.2261C430.4 98.8059 431.528 97.8215 431.9 95.7807ZM432.657 89.1659L433.425 89.502C433.077 90.0543 432.681 90.6545 432.344 91.0627L431.744 90.7626C432.044 90.3304 432.44 89.6341 432.657 89.1659ZM430.424 88.9258H431.252V94.4481H430.424V88.9258ZM428.383 89.502L429.067 89.2139C429.403 89.6941 429.727 90.3304 429.847 90.7626L429.139 91.0867C429.031 90.6545 428.719 89.9943 428.383 89.502ZM430.436 91.4709L431.048 91.831C430.46 92.8394 429.331 93.9079 428.299 94.4721C428.191 94.268 427.975 93.9679 427.807 93.7878C428.803 93.3557 429.907 92.3953 430.436 91.4709ZM431.156 91.891C431.588 92.1191 433.053 93.0435 433.401 93.2956L432.909 93.9559C432.476 93.5477 431.228 92.6113 430.724 92.2752L431.156 91.891ZM434.637 91.1467H438.911V91.9871H434.637V91.1467ZM434.938 88.9258L435.85 89.0579C435.454 91.4108 434.745 93.5597 433.689 94.9643C433.545 94.7963 433.173 94.4961 432.957 94.3521C433.977 93.0795 434.601 91.0507 434.938 88.9258ZM437.303 91.6269L438.215 91.723C437.639 95.8647 436.366 98.4458 433.341 100.006C433.245 99.7903 432.981 99.3942 432.801 99.2021C435.658 97.8575 436.81 95.4325 437.303 91.6269ZM435.118 91.891C435.646 95.1924 436.798 98.0256 439.031 99.2021C438.815 99.3822 438.527 99.7303 438.395 99.9704C436.042 98.5898 434.902 95.6606 434.301 92.0231L435.118 91.891ZM429.019 97.6294L429.499 97.0172C430.94 97.5694 432.428 98.3617 433.293 99.022L432.669 99.6703C431.84 98.998 430.412 98.1937 429.019 97.6294ZM444.566 89.454H450.484V92.5633H444.59V91.783H449.62V90.2464H444.566V89.454ZM444.145 89.454H445.022V93.0915C445.022 95.1084 444.842 98.0376 443.521 99.9704C443.365 99.8143 442.993 99.5502 442.777 99.4662C444.025 97.6174 444.145 95.0003 444.145 93.0915V89.454ZM444.626 93.8839H450.892V94.6762H444.626V93.8839ZM445.586 98.7459H450.028V99.4902H445.586V98.7459ZM447.351 92.4673H448.215V96.501H447.351V92.4673ZM445.202 96.1648H450.52V99.9344H449.692V96.9331H446.006V99.9824H445.202V96.1648ZM439.752 95.3125C440.688 95.0484 442.117 94.6162 443.497 94.172L443.617 95.0003C442.345 95.4205 441.012 95.8527 439.98 96.1888L439.752 95.3125ZM439.896 91.3508H443.605V92.1912H439.896V91.3508ZM441.408 88.9378H442.237V98.8539C442.237 99.3461 442.129 99.5862 441.828 99.7303C441.552 99.8744 441.084 99.8984 440.328 99.8984C440.292 99.6823 440.184 99.3101 440.064 99.058C440.592 99.07 441.048 99.07 441.192 99.07C441.336 99.07 441.408 99.022 441.408 98.8419V88.9378ZM457.003 92.5753V94.112H461.505V92.5753H457.003ZM457.003 90.3064V91.831H461.505V90.3064H457.003ZM456.174 89.5261H462.369V94.9043H456.174V89.5261ZM456.03 96.2729H462.561V97.1012H456.03V96.2729ZM455.106 98.7579H462.969V99.5862H455.106V98.7579ZM451.961 91.819H455.646V92.6714H451.961V91.819ZM453.425 89.0699H454.278V96.8611H453.425V89.0699ZM451.793 97.0652C452.753 96.7171 454.206 96.0928 455.61 95.4925L455.814 96.2969C454.542 96.8971 453.197 97.4974 452.153 97.9656L451.793 97.0652ZM458.827 89.9582H459.656V94.5922H459.728V99.1661H458.755V94.5922H458.827V89.9582ZM468.864 88.9258H469.776V93.0195H468.864V88.9258ZM466.247 93.4397V95.5886H472.525V93.4397H466.247ZM465.394 92.5873H473.438V96.4289H465.394V92.5873ZM469.284 90.2103H474.338V91.0627H469.284V90.2103ZM467.483 97.4734L468.347 97.4013C468.516 98.1817 468.648 99.1661 468.66 99.7543L467.735 99.8744C467.735 99.2621 467.639 98.2537 467.483 97.4734ZM469.968 97.4854L470.784 97.3173C471.157 98.0376 471.553 99.01 471.697 99.6223L470.808 99.8384C470.688 99.2381 470.328 98.2417 469.968 97.4854ZM472.417 97.3893L473.221 97.0892C473.834 97.8335 474.53 98.8539 474.818 99.5262L473.966 99.8744C473.69 99.2141 473.029 98.1577 472.417 97.3893ZM465.538 97.1612L466.391 97.3773C465.994 98.3137 465.382 99.3341 464.734 99.9704L463.906 99.5622C464.542 99.022 465.166 98.0496 465.538 97.1612ZM477.072 99.0782C476.862 99.0782 476.682 99.0029 476.531 98.8523C476.38 98.7016 476.305 98.5212 476.305 98.3109C476.305 98.1005 476.38 97.9201 476.531 97.7694C476.682 97.6188 476.862 97.5435 477.072 97.5435C477.283 97.5435 477.463 97.6188 477.614 97.7694C477.765 97.9201 477.84 98.1005 477.84 98.3109C477.84 98.4501 477.804 98.578 477.733 98.6945C477.665 98.8111 477.573 98.9049 477.456 98.9759C477.342 99.0441 477.215 99.0782 477.072 99.0782ZM480.379 99.0782C480.168 99.0782 479.988 99.0029 479.837 98.8523C479.687 98.7016 479.611 98.5212 479.611 98.3109C479.611 98.1005 479.687 97.9201 479.837 97.7694C479.988 97.6188 480.168 97.5435 480.379 97.5435C480.589 97.5435 480.769 97.6188 480.92 97.7694C481.071 97.9201 481.146 98.1005 481.146 98.3109C481.146 98.4501 481.11 98.578 481.039 98.6945C480.971 98.8111 480.879 98.9049 480.762 98.9759C480.649 99.0441 480.521 99.0782 480.379 99.0782ZM483.685 99.0782C483.474 99.0782 483.294 99.0029 483.143 98.8523C482.993 98.7016 482.917 98.5212 482.917 98.3109C482.917 98.1005 482.993 97.9201 483.143 97.7694C483.294 97.6188 483.474 97.5435 483.685 97.5435C483.895 97.5435 484.075 97.6188 484.226 97.7694C484.377 97.9201 484.452 98.1005 484.452 98.3109C484.452 98.4501 484.416 98.578 484.345 98.6945C484.277 98.8111 484.185 98.9049 484.068 98.9759C483.955 99.0441 483.827 99.0782 483.685 99.0782Z" fill="white"/>
<rect x="686" y="-75" width="68.6" height="411.6" fill="#E774BB"/>
</g>
</g>
<defs>
<linearGradient id="paint0_linear_710_4742" x1="81.9157" y1="29.2577" x2="76.6485" y2="19.9443" gradientUnits="userSpaceOnUse">
<stop stop-color="white" stop-opacity="0.4"/>
<stop offset="0.9228" stop-color="white"/>
</linearGradient>
<clipPath id="clip0_710_4742">
<rect width="686" height="120" fill="white"/>
</clipPath>
<clipPath id="clip1_710_4742">
<rect width="686" height="411.6" fill="white" transform="translate(0 -75)"/>
</clipPath>
</defs>
</svg>
