<svg width="686" height="120" viewBox="0 0 686 120" fill="none" xmlns="http://www.w3.org/2000/svg">
<g clip-path="url(#clip0_323_29194)">
<g clip-path="url(#clip1_323_29194)">
<rect width="686" height="411.6" transform="translate(0 -75)" fill="#FE2223"/>
<g opacity="0.2">
<path d="M466.593 330.151C408.824 240.67 412.633 141.868 450.723 67.3002C488.812 -7.26788 518.015 -63.8171 519.92 -68.1669C521.824 -72.5167 526.268 -74.9999 530.711 -74.9999H674.181C683.069 -74.9999 689.418 -65.6801 684.975 -57.6019C684.975 -57.6019 491.986 320.208 486.908 329.529C483.099 338.85 472.307 338.851 466.593 330.151Z" fill="white"/>
</g>
<path d="M79.1007 26.9869C78.7835 27.3287 78.3078 27.2977 78.0858 26.8938L72.9474 16.796C72.7571 16.3921 73.0426 15.926 73.4866 15.926H80.6549C80.8769 15.926 81.0989 16.0503 81.1941 16.2678C82.7483 19.4058 81.7968 24.1596 79.1007 26.9869Z" fill="url(#paint0_linear_323_29194)"/>
<path d="M82.8757 36.1524C79.9893 31.6783 80.1797 26.7383 82.0827 23.0099C83.9858 19.2815 85.4449 16.454 85.5401 16.2365C85.6352 16.019 85.8572 15.8949 86.0792 15.8949H93.2475C93.6915 15.8949 94.0088 16.3608 93.7868 16.7648C93.7868 16.7648 84.1444 35.6553 83.8907 36.1213C83.7003 36.5874 83.1612 36.5874 82.8757 36.1524Z" fill="white"/>
<path d="M101.07 18.2127H105.601L108.525 24.2931H108.642L111.565 18.2127H116.096L110.6 28.4734V33.1799H106.566V28.4734L101.07 18.2127ZM121.513 18.2127L124.583 28.7658H124.7L127.769 18.2127H132.359L127.418 33.1799H121.864L116.924 18.2127H121.513ZM133.8 33.1799V18.2127H144.587V21.4867H137.864V24.0592H144.032V27.3333H137.864V29.9058H144.558V33.1799H133.8ZM154.671 22.8899C154.632 22.4027 154.449 22.0227 154.123 21.7498C153.801 21.477 153.311 21.3406 152.654 21.3406C152.235 21.3406 151.891 21.3917 151.623 21.4941C151.36 21.5915 151.165 21.7255 151.039 21.896C150.912 22.0665 150.846 22.2614 150.841 22.4807C150.831 22.6609 150.863 22.8242 150.936 22.9703C151.014 23.1116 151.136 23.2407 151.302 23.3577C151.467 23.4697 151.679 23.572 151.937 23.6646C152.196 23.7572 152.503 23.84 152.858 23.9131L154.086 24.1762C154.914 24.3516 155.623 24.583 156.213 24.8705C156.802 25.1579 157.285 25.4965 157.66 25.8863C158.035 26.2712 158.31 26.7048 158.486 27.1872C158.666 27.6695 158.758 28.1957 158.763 28.7658C158.758 29.7499 158.512 30.5831 158.025 31.2652C157.538 31.9473 156.841 32.4662 155.935 32.8218C155.034 33.1775 153.95 33.3553 152.683 33.3553C151.382 33.3553 150.247 33.1629 149.277 32.778C148.313 32.3931 147.562 31.8011 147.026 31.0021C146.495 30.1982 146.227 29.1701 146.222 27.918H150.081C150.106 28.376 150.22 28.7609 150.425 29.0727C150.629 29.3845 150.917 29.6208 151.287 29.7816C151.662 29.9424 152.108 30.0228 152.624 30.0228C153.058 30.0228 153.421 29.9692 153.713 29.862C154.006 29.7548 154.227 29.6062 154.378 29.4162C154.529 29.2262 154.607 29.0094 154.612 28.7658C154.607 28.5368 154.532 28.337 154.386 28.1665C154.244 27.9911 154.011 27.8352 153.684 27.6988C153.358 27.5575 152.917 27.4259 152.361 27.3041L150.87 26.9825C149.545 26.6951 148.5 26.2152 147.735 25.5428C146.975 24.8656 146.598 23.9423 146.602 22.773C146.598 21.8229 146.851 20.9922 147.362 20.2809C147.879 19.5647 148.593 19.0068 149.504 18.6073C150.42 18.2078 151.47 18.008 152.654 18.008C153.862 18.008 154.907 18.2102 155.789 18.6146C156.671 19.019 157.35 19.589 157.828 20.3247C158.31 21.0556 158.554 21.9106 158.559 22.8899H154.671Z" fill="white"/>
<path d="M172.632 33.1848H168.481V18.2175H172.954C174.357 18.2175 175.558 18.5147 176.557 19.1091C177.556 19.7036 178.321 20.5562 178.852 21.667C179.388 22.773 179.653 24.1007 179.648 25.65C179.643 27.2335 179.366 28.5879 178.815 29.7134C178.265 30.834 177.468 31.6939 176.425 32.2932C175.383 32.8876 174.118 33.1848 172.632 33.1848ZM169.395 32.3371H172.596C173.931 32.3371 175.056 32.0715 175.972 31.5405C176.888 31.0045 177.58 30.2372 178.048 29.2384C178.52 28.2396 178.754 27.0435 178.749 25.65C178.749 24.2761 178.523 23.0994 178.07 22.1201C177.617 21.136 176.956 20.3808 176.089 19.8546C175.227 19.3284 174.17 19.0653 172.917 19.0653H169.395V32.3371ZM187.276 33.4187C186.263 33.4187 185.381 33.1678 184.631 32.6659C183.88 32.1641 183.301 31.4771 182.891 30.605C182.482 29.7329 182.277 28.739 182.277 27.6232C182.277 26.5026 182.482 25.5039 182.891 24.6269C183.306 23.7499 183.873 23.058 184.594 22.5513C185.315 22.0446 186.139 21.7913 187.064 21.7913C187.693 21.7913 188.287 21.9179 188.848 22.1713C189.413 22.4198 189.91 22.7803 190.338 23.2529C190.772 23.7255 191.111 24.2956 191.354 24.963C191.603 25.6305 191.727 26.3808 191.727 27.214V27.7694H182.84V26.9582H190.835C190.835 26.1445 190.67 25.4113 190.338 24.7584C190.007 24.1055 189.556 23.5867 188.986 23.2018C188.416 22.8169 187.776 22.6244 187.064 22.6244C186.319 22.6244 185.654 22.8339 185.069 23.2529C184.489 23.6671 184.029 24.2273 183.688 24.9338C183.352 25.6403 183.176 26.4296 183.162 27.3017V27.6671C183.162 28.6025 183.325 29.443 183.651 30.1884C183.983 30.929 184.455 31.5161 185.069 31.9497C185.683 32.3785 186.419 32.5928 187.276 32.5928C187.89 32.5928 188.414 32.4905 188.848 32.2859C189.286 32.0764 189.644 31.823 189.922 31.5258C190.2 31.2286 190.409 30.9412 190.55 30.6635L191.362 30.9923C191.191 31.3675 190.926 31.7427 190.565 32.1178C190.209 32.4881 189.756 32.7975 189.206 33.046C188.66 33.2944 188.017 33.4187 187.276 33.4187ZM201.929 24.3784L201.104 24.5976C200.972 24.1884 200.784 23.8351 200.541 23.5379C200.297 23.2407 199.99 23.0117 199.62 22.851C199.255 22.6853 198.816 22.6025 198.304 22.6025C197.481 22.6025 196.806 22.8071 196.28 23.2164C195.759 23.6256 195.498 24.1591 195.498 24.8169C195.498 25.3528 195.676 25.7962 196.032 26.147C196.387 26.4929 196.93 26.756 197.661 26.9363L199.386 27.3675C200.273 27.5867 200.94 27.9424 201.389 28.4345C201.837 28.9217 202.061 29.5283 202.061 30.2542C202.061 30.873 201.893 31.4211 201.557 31.8986C201.22 32.376 200.755 32.7488 200.161 33.0167C199.571 33.2847 198.884 33.4187 198.1 33.4187C197.052 33.4187 196.192 33.1751 195.52 32.6879C194.848 32.1958 194.416 31.4917 194.226 30.5758L195.082 30.3565C195.242 31.0873 195.576 31.6452 196.083 32.0301C196.594 32.4101 197.264 32.6002 198.093 32.6002C199.008 32.6002 199.747 32.3833 200.307 31.9497C200.872 31.5161 201.155 30.9607 201.155 30.2834C201.155 29.767 200.989 29.3309 200.658 28.9753C200.326 28.6196 199.825 28.3589 199.152 28.1933L197.362 27.7548C196.446 27.5307 195.759 27.1726 195.301 26.6805C194.843 26.1835 194.614 25.5721 194.614 24.8461C194.614 24.242 194.772 23.7109 195.089 23.2529C195.406 22.7949 195.842 22.4368 196.397 22.1786C196.952 21.9204 197.588 21.7913 198.304 21.7913C199.255 21.7913 200.029 22.0154 200.628 22.4636C201.228 22.9119 201.661 23.5501 201.929 24.3784ZM205.191 33.1848V21.9594H206.075V33.1848H205.191ZM205.636 19.9715C205.442 19.9715 205.271 19.9033 205.125 19.7669C204.984 19.6305 204.913 19.4648 204.913 19.2699C204.913 19.075 204.984 18.9094 205.125 18.773C205.266 18.6365 205.437 18.5683 205.636 18.5683C205.831 18.5683 205.999 18.6365 206.141 18.773C206.287 18.9094 206.36 19.075 206.36 19.2699C206.36 19.4648 206.289 19.6305 206.148 19.7669C206.007 19.9033 205.836 19.9715 205.636 19.9715ZM213.858 37.6282C213.161 37.6282 212.535 37.5357 211.98 37.3505C211.425 37.1702 210.952 36.912 210.562 36.5758C210.177 36.2397 209.883 35.8401 209.678 35.3773L210.423 34.9388C210.589 35.2993 210.825 35.6209 211.132 35.9035C211.439 36.1861 211.819 36.4077 212.272 36.5685C212.73 36.7293 213.259 36.8097 213.858 36.8097C214.94 36.8097 215.795 36.5296 216.423 35.9693C217.057 35.4138 217.373 34.5612 217.373 33.4114V30.6196H217.286C217.115 31.1068 216.862 31.5405 216.526 31.9205C216.194 32.2956 215.788 32.5904 215.305 32.8048C214.823 33.0192 214.275 33.1263 213.661 33.1263C212.774 33.1263 211.995 32.8974 211.322 32.4394C210.65 31.9814 210.126 31.3383 209.751 30.51C209.376 29.6769 209.188 28.6976 209.188 27.5721C209.188 26.4466 209.371 25.4503 209.736 24.583C210.107 23.7109 210.628 23.0288 211.3 22.5367C211.973 22.0398 212.762 21.7913 213.668 21.7913C214.316 21.7913 214.876 21.9155 215.349 22.164C215.827 22.4076 216.226 22.7316 216.548 23.136C216.869 23.5404 217.118 23.9837 217.293 24.4661H217.395V21.9594H218.258V33.4479C218.258 34.3834 218.073 35.1605 217.702 35.7792C217.337 36.398 216.823 36.8609 216.16 37.1678C215.503 37.4748 214.735 37.6282 213.858 37.6282ZM213.741 32.3005C214.492 32.3005 215.137 32.1105 215.678 31.7305C216.224 31.3456 216.643 30.7999 216.935 30.0934C217.232 29.3821 217.381 28.5392 217.381 27.5648C217.381 26.6196 217.237 25.7743 216.95 25.0288C216.662 24.2834 216.246 23.6963 215.7 23.2675C215.154 22.8388 214.501 22.6244 213.741 22.6244C212.967 22.6244 212.306 22.8437 211.761 23.2822C211.215 23.7158 210.796 24.3053 210.504 25.0507C210.216 25.7962 210.073 26.6342 210.073 27.5648C210.073 28.5002 210.219 29.3236 210.511 30.035C210.803 30.7414 211.222 31.2969 211.768 31.7012C212.314 32.1008 212.971 32.3005 213.741 32.3005ZM222.9 25.9058V33.1848H222.009V21.9594H222.878V23.7353H222.966C223.229 23.1555 223.651 22.6902 224.23 22.3394C224.81 21.9886 225.5 21.8132 226.299 21.8132C227.054 21.8132 227.716 21.974 228.286 22.2955C228.861 22.6171 229.31 23.0751 229.631 23.6695C229.958 24.259 230.121 24.963 230.121 25.7816V33.1848H229.229V25.8181C229.229 24.8632 228.944 24.0958 228.374 23.516C227.809 22.9314 227.061 22.639 226.131 22.639C225.507 22.639 224.952 22.7754 224.464 23.0483C223.977 23.3211 223.595 23.7036 223.317 24.1957C223.039 24.6829 222.9 25.2529 222.9 25.9058ZM247.997 21.9594C247.919 21.0288 247.539 20.276 246.857 19.7011C246.18 19.1262 245.303 18.8387 244.226 18.8387C243.5 18.8387 242.854 18.9727 242.289 19.2407C241.724 19.5087 241.281 19.8741 240.959 20.3369C240.637 20.7998 240.477 21.3309 240.477 21.9301C240.477 22.315 240.55 22.6634 240.696 22.9752C240.847 23.2822 241.059 23.5574 241.332 23.801C241.605 24.0398 241.929 24.2493 242.304 24.4295C242.679 24.6098 243.093 24.7682 243.546 24.9046L245.183 25.3869C245.743 25.5574 246.26 25.7548 246.732 25.9789C247.21 26.203 247.624 26.471 247.975 26.7828C248.331 27.0897 248.606 27.4503 248.801 27.8644C249 28.2785 249.1 28.756 249.1 29.2968C249.1 30.0861 248.896 30.7926 248.486 31.4162C248.082 32.0399 247.505 32.5319 246.754 32.8925C246.009 33.2482 245.13 33.426 244.116 33.426C243.151 33.426 242.311 33.2628 241.595 32.9363C240.883 32.6099 240.321 32.1568 239.907 31.577C239.492 30.9923 239.259 30.32 239.205 29.5599H240.14C240.189 30.1787 240.387 30.7146 240.732 31.1677C241.083 31.616 241.549 31.9619 242.128 32.2055C242.708 32.4491 243.371 32.5709 244.116 32.5709C244.92 32.5709 245.629 32.4345 246.243 32.1617C246.857 31.8839 247.337 31.499 247.683 31.007C248.028 30.5149 248.201 29.9424 248.201 29.2895C248.201 28.7633 248.077 28.3127 247.829 27.9375C247.58 27.5623 247.212 27.2383 246.725 26.9655C246.243 26.6927 245.644 26.4491 244.927 26.2347L243.181 25.7085C242.011 25.3528 241.117 24.868 240.499 24.2541C239.885 23.6403 239.578 22.8753 239.578 21.9594C239.578 21.1896 239.782 20.5075 240.192 19.9131C240.601 19.3138 241.156 18.8436 241.858 18.5026C242.564 18.1615 243.361 17.991 244.248 17.991C245.139 17.991 245.926 18.1639 246.608 18.5099C247.29 18.8509 247.831 19.3211 248.231 19.9204C248.63 20.5148 248.852 21.1944 248.896 21.9594H247.997ZM253.113 37.3944C252.888 37.3944 252.667 37.37 252.448 37.3213C252.228 37.2726 252.031 37.2092 251.856 37.1313L252.119 36.3493C252.577 36.5247 252.991 36.588 253.361 36.5393C253.736 36.4906 254.068 36.32 254.355 36.0277C254.642 35.7354 254.886 35.3066 255.086 34.7415L255.597 33.3383L251.483 21.9594H252.44L256.007 32.0374H256.08L259.646 21.9594H260.604L255.868 35.0923C255.688 35.599 255.461 36.0228 255.188 36.3639C254.915 36.7049 254.603 36.9607 254.253 37.1313C253.907 37.3067 253.527 37.3944 253.113 37.3944ZM270.523 24.3784L269.697 24.5976C269.565 24.1884 269.378 23.8351 269.134 23.5379C268.89 23.2407 268.584 23.0117 268.213 22.851C267.848 22.6853 267.409 22.6025 266.898 22.6025C266.074 22.6025 265.4 22.8071 264.873 23.2164C264.352 23.6256 264.091 24.1591 264.091 24.8169C264.091 25.3528 264.269 25.7962 264.625 26.147C264.981 26.4929 265.524 26.756 266.255 26.9363L267.979 27.3675C268.866 27.5867 269.534 27.9424 269.982 28.4345C270.43 28.9217 270.654 29.5283 270.654 30.2542C270.654 30.873 270.486 31.4211 270.15 31.8986C269.814 32.376 269.348 32.7488 268.754 33.0167C268.165 33.2847 267.478 33.4187 266.693 33.4187C265.646 33.4187 264.786 33.1751 264.113 32.6879C263.441 32.1958 263.01 31.4917 262.82 30.5758L263.675 30.3565C263.836 31.0873 264.169 31.6452 264.676 32.0301C265.188 32.4101 265.858 32.6002 266.686 32.6002C267.602 32.6002 268.34 32.3833 268.9 31.9497C269.465 31.5161 269.748 30.9607 269.748 30.2834C269.748 29.767 269.582 29.3309 269.251 28.9753C268.92 28.6196 268.418 28.3589 267.746 28.1933L265.955 27.7548C265.039 27.5307 264.352 27.1726 263.894 26.6805C263.436 26.1835 263.207 25.5721 263.207 24.8461C263.207 24.242 263.365 23.7109 263.682 23.2529C263.999 22.7949 264.435 22.4368 264.99 22.1786C265.546 21.9204 266.182 21.7913 266.898 21.7913C267.848 21.7913 268.622 22.0154 269.222 22.4636C269.821 22.9119 270.255 23.5501 270.523 24.3784ZM277.708 21.9594V22.756H272.805V21.9594H277.708ZM274.464 19.2699H275.348V30.5319C275.348 30.9899 275.436 31.3651 275.611 31.6574C275.791 31.9448 276.025 32.1592 276.313 32.3005C276.605 32.4369 276.917 32.5051 277.248 32.5051C277.409 32.5051 277.548 32.493 277.665 32.4686C277.786 32.4442 277.901 32.4126 278.008 32.3736L278.227 33.1848C278.091 33.2335 277.94 33.2749 277.774 33.3091C277.609 33.348 277.414 33.3675 277.19 33.3675C276.722 33.3675 276.278 33.2628 275.859 33.0533C275.445 32.8438 275.109 32.5393 274.851 32.1397C274.593 31.7402 274.464 31.2579 274.464 30.6927V19.2699ZM285.272 33.4187C284.259 33.4187 283.377 33.1678 282.627 32.6659C281.877 32.1641 281.297 31.4771 280.888 30.605C280.478 29.7329 280.274 28.739 280.274 27.6232C280.274 26.5026 280.478 25.5039 280.888 24.6269C281.302 23.7499 281.869 23.058 282.59 22.5513C283.311 22.0446 284.135 21.7913 285.061 21.7913C285.689 21.7913 286.283 21.9179 286.844 22.1713C287.409 22.4198 287.906 22.7803 288.335 23.2529C288.768 23.7255 289.107 24.2956 289.35 24.963C289.599 25.6305 289.723 26.3808 289.723 27.214V27.7694H280.836V26.9582H288.832C288.832 26.1445 288.666 25.4113 288.335 24.7584C288.003 24.1055 287.553 23.5867 286.983 23.2018C286.413 22.8169 285.772 22.6244 285.061 22.6244C284.315 22.6244 283.65 22.8339 283.065 23.2529C282.486 23.6671 282.025 24.2273 281.684 24.9338C281.348 25.6403 281.173 26.4296 281.158 27.3017V27.6671C281.158 28.6025 281.321 29.443 281.648 30.1884C281.979 30.929 282.452 31.5161 283.065 31.9497C283.679 32.3785 284.415 32.5928 285.272 32.5928C285.886 32.5928 286.41 32.4905 286.844 32.2859C287.282 32.0764 287.64 31.823 287.918 31.5258C288.196 31.2286 288.405 30.9412 288.547 30.6635L289.358 30.9923C289.187 31.3675 288.922 31.7427 288.561 32.1178C288.206 32.4881 287.752 32.7975 287.202 33.046C286.656 33.2944 286.013 33.4187 285.272 33.4187ZM292.793 33.1848V21.9594H293.662V23.6549H293.75C293.964 23.0897 294.335 22.6415 294.861 22.3102C295.387 21.9788 296.02 21.8132 296.761 21.8132C297.575 21.8132 298.23 22.0081 298.727 22.3979C299.229 22.7876 299.589 23.3163 299.809 23.9837H299.889C300.108 23.326 300.5 22.7998 301.066 22.4052C301.636 22.0105 302.337 21.8132 303.17 21.8132C304.257 21.8132 305.085 22.1567 305.655 22.8437C306.23 23.5258 306.518 24.4612 306.518 25.65V33.1848H305.626V25.65C305.626 24.7146 305.402 23.9789 304.954 23.4429C304.505 22.907 303.848 22.639 302.98 22.639C302.055 22.639 301.343 22.9289 300.846 23.5087C300.349 24.0885 300.101 24.8266 300.101 25.7231V33.1848H299.209V25.5916C299.209 24.7194 298.99 24.0105 298.552 23.4649C298.113 22.9143 297.455 22.639 296.578 22.639C295.984 22.639 295.47 22.7754 295.036 23.0483C294.608 23.3211 294.274 23.6963 294.035 24.1738C293.801 24.6512 293.684 25.1993 293.684 25.8181V33.1848H292.793Z" fill="white"/>
<path d="M80.4556 69.1899H74.8051V51.7354H80.6346C82.3448 51.7354 83.8136 52.0848 85.0409 52.7837C86.2681 53.4769 87.2085 54.474 87.8619 55.7752C88.521 57.0706 88.8505 58.6246 88.8505 60.4371C88.8505 62.2553 88.5181 63.8178 87.8534 65.1246C87.1943 66.4314 86.2397 67.4371 84.9897 68.1416C83.7397 68.8405 82.2284 69.1899 80.4556 69.1899ZM77.4386 66.8888H80.3107C81.6403 66.8888 82.7454 66.6388 83.6261 66.1388C84.5068 65.6331 85.1659 64.903 85.6034 63.9485C86.0409 62.9882 86.2596 61.8178 86.2596 60.4371C86.2596 59.0678 86.0409 57.9059 85.6034 56.9513C85.1715 55.9968 84.5267 55.2723 83.6687 54.778C82.8107 54.2837 81.7454 54.0365 80.4727 54.0365H77.4386V66.8888ZM97.5629 69.4541C96.2731 69.4541 95.1623 69.1786 94.2305 68.6274C93.3044 68.0706 92.5884 67.2894 92.0828 66.2837C91.5828 65.2723 91.3328 64.0877 91.3328 62.7297C91.3328 61.3888 91.5828 60.207 92.0828 59.1843C92.5884 58.1615 93.293 57.3632 94.1964 56.7894C95.1055 56.2155 96.168 55.9286 97.3839 55.9286C98.1225 55.9286 98.8384 56.0507 99.5316 56.2951C100.225 56.5394 100.847 56.9229 101.398 57.4456C101.949 57.9684 102.384 58.6473 102.702 59.4826C103.02 60.3121 103.179 61.3206 103.179 62.5081V63.4115H92.7731V61.5024H100.682C100.682 60.832 100.546 60.2382 100.273 59.7212C100 59.1985 99.6169 58.7865 99.1225 58.4854C98.6339 58.1843 98.06 58.0337 97.4009 58.0337C96.685 58.0337 96.06 58.2098 95.5259 58.5621C94.9975 58.9087 94.5884 59.3632 94.2987 59.9257C94.0146 60.4826 93.8725 61.0877 93.8725 61.7411V63.2326C93.8725 64.1076 94.0259 64.8519 94.3328 65.4655C94.6453 66.0791 95.0799 66.5479 95.6367 66.8718C96.1936 67.1899 96.8441 67.349 97.5884 67.349C98.0714 67.349 98.5117 67.2809 98.9095 67.1445C99.3072 67.0024 99.6509 66.7922 99.9407 66.5138C100.23 66.2354 100.452 65.8916 100.605 65.4826L103.017 65.9172C102.824 66.6274 102.478 67.2496 101.978 67.7837C101.483 68.3121 100.861 68.724 100.111 69.0195C99.3669 69.3093 98.5174 69.4541 97.5629 69.4541ZM115.816 59.2951L113.507 59.7041C113.41 59.4087 113.257 59.1274 113.047 58.8604C112.842 58.5933 112.564 58.3746 112.211 58.2041C111.859 58.0337 111.419 57.9485 110.89 57.9485C110.169 57.9485 109.566 58.1104 109.083 58.4343C108.601 58.7524 108.359 59.1644 108.359 59.6701C108.359 60.1076 108.521 60.4598 108.845 60.7269C109.169 60.9939 109.691 61.2127 110.413 61.3831L112.493 61.8604C113.697 62.1388 114.595 62.5678 115.186 63.1473C115.777 63.7269 116.072 64.4797 116.072 65.4059C116.072 66.1899 115.845 66.8888 115.39 67.5024C114.941 68.1104 114.314 68.5877 113.507 68.9343C112.706 69.2809 111.777 69.4541 110.72 69.4541C109.254 69.4541 108.058 69.1416 107.132 68.5166C106.206 67.886 105.637 66.9911 105.427 65.832L107.89 65.457C108.044 66.099 108.359 66.5848 108.836 66.9144C109.314 67.2382 109.936 67.4002 110.703 67.4002C111.538 67.4002 112.206 67.2269 112.706 66.8803C113.206 66.528 113.456 66.099 113.456 65.5934C113.456 65.1843 113.302 64.8405 112.995 64.5621C112.694 64.2837 112.231 64.0735 111.606 63.9314L109.39 63.4456C108.169 63.1672 107.265 62.724 106.68 62.1161C106.101 61.5081 105.811 60.7382 105.811 59.8064C105.811 59.0337 106.027 58.3576 106.458 57.778C106.89 57.1985 107.487 56.7468 108.248 56.4229C109.01 56.0934 109.882 55.9286 110.865 55.9286C112.279 55.9286 113.393 56.2354 114.206 56.849C115.018 57.457 115.555 58.2723 115.816 59.2951ZM118.874 69.1899V56.099H121.422V69.1899H118.874ZM120.161 54.0791C119.718 54.0791 119.337 53.9314 119.019 53.636C118.706 53.3348 118.55 52.9769 118.55 52.5621C118.55 52.1416 118.706 51.7837 119.019 51.4882C119.337 51.1871 119.718 51.0365 120.161 51.0365C120.604 51.0365 120.982 51.1871 121.294 51.4882C121.613 51.7837 121.772 52.1416 121.772 52.5621C121.772 52.9769 121.613 53.3348 121.294 53.636C120.982 53.9314 120.604 54.0791 120.161 54.0791ZM130.339 74.3718C129.299 74.3718 128.404 74.2354 127.654 73.9627C126.91 73.6899 126.302 73.3291 125.831 72.8803C125.359 72.4314 125.007 71.9399 124.774 71.4059L126.964 70.5024C127.118 70.7524 127.322 71.0166 127.578 71.2951C127.839 71.5791 128.191 71.8206 128.635 72.0195C129.083 72.2184 129.66 72.3178 130.365 72.3178C131.331 72.3178 132.129 72.082 132.76 71.6104C133.39 71.1445 133.706 70.4002 133.706 69.3774V66.8036H133.544C133.39 67.082 133.169 67.3916 132.879 67.7326C132.595 68.0735 132.203 68.3689 131.703 68.6189C131.203 68.8689 130.552 68.9939 129.751 68.9939C128.717 68.9939 127.785 68.7524 126.956 68.2695C126.132 67.7809 125.478 67.0621 124.995 66.1132C124.518 65.1587 124.279 63.9854 124.279 62.5934C124.279 61.2013 124.515 60.0081 124.987 59.0138C125.464 58.0195 126.118 57.2581 126.947 56.7297C127.777 56.1956 128.717 55.9286 129.768 55.9286C130.581 55.9286 131.237 56.0649 131.737 56.3377C132.237 56.6047 132.626 56.9172 132.904 57.2752C133.189 57.6331 133.407 57.9485 133.561 58.2212H133.748V56.099H136.245V69.4797C136.245 70.6047 135.984 71.528 135.461 72.2496C134.939 72.9712 134.231 73.5053 133.339 73.8519C132.453 74.1985 131.453 74.3718 130.339 74.3718ZM130.314 66.8803C131.047 66.8803 131.666 66.7098 132.172 66.3689C132.683 66.0223 133.069 65.528 133.331 64.886C133.598 64.2382 133.731 63.4627 133.731 62.5593C133.731 61.6786 133.601 60.903 133.339 60.2326C133.078 59.5621 132.694 59.0394 132.189 58.6644C131.683 58.2837 131.058 58.0934 130.314 58.0934C129.547 58.0934 128.907 58.2922 128.396 58.6899C127.885 59.082 127.498 59.6161 127.237 60.2922C126.981 60.9684 126.853 61.724 126.853 62.5593C126.853 63.4172 126.984 64.1701 127.245 64.8178C127.507 65.4655 127.893 65.9712 128.404 66.3348C128.922 66.6985 129.558 66.8803 130.314 66.8803ZM142.211 61.4172V69.1899H139.663V56.099H142.109V58.2297H142.271C142.572 57.5365 143.044 56.9797 143.686 56.5593C144.333 56.1388 145.149 55.9286 146.132 55.9286C147.024 55.9286 147.805 56.1161 148.476 56.4911C149.146 56.8604 149.666 57.4115 150.035 58.1445C150.404 58.8774 150.589 59.7837 150.589 60.8632V69.1899H148.041V61.1701C148.041 60.2212 147.794 59.4797 147.299 58.9456C146.805 58.4059 146.126 58.136 145.262 58.136C144.672 58.136 144.146 58.2638 143.686 58.5195C143.231 58.7752 142.87 59.1502 142.603 59.6445C142.342 60.1331 142.211 60.724 142.211 61.4172ZM159.702 54.0024V51.7354H173.211V54.0024H167.765V69.1899H165.14V54.0024H159.702ZM179.607 69.4541C178.38 69.4541 177.309 69.1729 176.394 68.6104C175.479 68.0479 174.769 67.261 174.263 66.2496C173.757 65.2382 173.505 64.0564 173.505 62.7041C173.505 61.3462 173.757 60.1587 174.263 59.1416C174.769 58.1246 175.479 57.3348 176.394 56.7723C177.309 56.2098 178.38 55.9286 179.607 55.9286C180.834 55.9286 181.905 56.2098 182.82 56.7723C183.735 57.3348 184.445 58.1246 184.951 59.1416C185.456 60.1587 185.709 61.3462 185.709 62.7041C185.709 64.0564 185.456 65.2382 184.951 66.2496C184.445 67.261 183.735 68.0479 182.82 68.6104C181.905 69.1729 180.834 69.4541 179.607 69.4541ZM179.615 67.3149C180.411 67.3149 181.07 67.1047 181.593 66.6843C182.115 66.2638 182.502 65.7041 182.752 65.0053C183.007 64.3064 183.135 63.5365 183.135 62.6956C183.135 61.8604 183.007 61.0934 182.752 60.3945C182.502 59.6899 182.115 59.1246 181.593 58.6985C181.07 58.2723 180.411 58.0593 179.615 58.0593C178.814 58.0593 178.15 58.2723 177.621 58.6985C177.098 59.1246 176.709 59.6899 176.454 60.3945C176.204 61.0934 176.079 61.8604 176.079 62.6956C176.079 63.5365 176.204 64.3064 176.454 65.0053C176.709 65.7041 177.098 66.2638 177.621 66.6843C178.15 67.1047 178.814 67.3149 179.615 67.3149ZM190.897 64.7496L190.88 61.6388H191.324L196.539 56.099H199.591L193.642 62.4059H193.241L190.897 64.7496ZM188.554 69.1899V51.7354H191.102V69.1899H188.554ZM196.821 69.1899L192.133 62.9684L193.889 61.1871L199.949 69.1899H196.821ZM207.016 69.4541C205.726 69.4541 204.615 69.1786 203.684 68.6274C202.757 68.0706 202.042 67.2894 201.536 66.2837C201.036 65.2723 200.786 64.0877 200.786 62.7297C200.786 61.3888 201.036 60.207 201.536 59.1843C202.042 58.1615 202.746 57.3632 203.65 56.7894C204.559 56.2155 205.621 55.9286 206.837 55.9286C207.576 55.9286 208.292 56.0507 208.985 56.2951C209.678 56.5394 210.3 56.9229 210.851 57.4456C211.402 57.9684 211.837 58.6473 212.155 59.4826C212.473 60.3121 212.632 61.3206 212.632 62.5081V63.4115H202.226V61.5024H210.135C210.135 60.832 209.999 60.2382 209.726 59.7212C209.454 59.1985 209.07 58.7865 208.576 58.4854C208.087 58.1843 207.513 58.0337 206.854 58.0337C206.138 58.0337 205.513 58.2098 204.979 58.5621C204.451 58.9087 204.042 59.3632 203.752 59.9257C203.468 60.4826 203.326 61.0877 203.326 61.7411V63.2326C203.326 64.1076 203.479 64.8519 203.786 65.4655C204.098 66.0791 204.533 66.5479 205.09 66.8718C205.647 67.1899 206.297 67.349 207.042 67.349C207.525 67.349 207.965 67.2809 208.363 67.1445C208.76 67.0024 209.104 66.7922 209.394 66.5138C209.684 66.2354 209.905 65.8916 210.059 65.4826L212.471 65.9172C212.277 66.6274 211.931 67.2496 211.431 67.7837C210.936 68.3121 210.314 68.724 209.564 69.0195C208.82 69.3093 207.971 69.4541 207.016 69.4541ZM218.008 61.4172V69.1899H215.46V56.099H217.906V58.2297H218.068C218.369 57.5365 218.841 56.9797 219.483 56.5593C220.13 56.1388 220.946 55.9286 221.929 55.9286C222.821 55.9286 223.602 56.1161 224.272 56.4911C224.943 56.8604 225.463 57.4115 225.832 58.1445C226.201 58.8774 226.386 59.7837 226.386 60.8632V69.1899H223.838V61.1701C223.838 60.2212 223.591 59.4797 223.096 58.9456C222.602 58.4059 221.923 58.136 221.059 58.136C220.468 58.136 219.943 58.2638 219.483 58.5195C219.028 58.7752 218.667 59.1502 218.4 59.6445C218.139 60.1331 218.008 60.724 218.008 61.4172ZM240.442 53.9739V55.6779H252.49V53.9739H240.442ZM240.442 51.0939V52.7499H252.49V51.0939H240.442ZM238.69 49.7979H254.266V56.9499H238.69V49.7979ZM235.834 58.2939H256.978V59.7819H235.834V58.2939ZM246.49 61.2939H255.034V62.7579H246.49V61.2939ZM238.954 61.4379H244.882V62.7819H238.954V61.4379ZM238.954 64.4619H244.882V65.8059H238.954V64.4619ZM249.01 62.6379C250.402 66.0699 253.474 68.6859 257.554 69.6939C257.17 70.0299 256.69 70.6779 256.45 71.1099C252.226 69.8619 249.13 67.0059 247.546 63.0699L249.01 62.6379ZM254.482 61.2939H254.818L255.13 61.2219L256.234 61.6779C254.65 66.5499 250.786 69.5499 246.61 70.9899C246.418 70.5579 245.962 69.9099 245.626 69.5739C249.466 68.4219 253.162 65.6139 254.482 61.5819V61.2939ZM235.618 68.1339C237.97 67.9419 241.45 67.5579 244.834 67.1739V68.6619C241.594 69.0459 238.258 69.4539 235.786 69.7419L235.618 68.1339ZM243.922 58.7739H245.65V71.1099H243.922V58.7739ZM237.898 58.7979H239.578V68.5659H237.898V58.7979ZM264.85 49.1259L266.554 49.6299C265.114 53.6859 262.834 57.7659 260.41 60.4779C260.218 60.0699 259.69 59.1339 259.378 58.7019C261.586 56.3739 263.602 52.7739 264.85 49.1259ZM262.426 55.4859L264.178 53.7099L264.226 53.7339V71.1099H262.426V55.4859ZM267.466 52.1979H279.898V53.8779H267.466V52.1979ZM266.962 62.7339H280.33V64.4379H266.962V62.7339ZM266.29 57.3339H281.002V59.0379H266.29V57.3339ZM265.498 68.4699H281.482V70.2219H265.498V68.4699ZM272.698 49.0299H274.498V58.3419H272.698V49.0299ZM272.698 59.9739H274.498V69.6939H272.698V59.9739ZM295.33 66.6219L296.218 65.3259C299.41 66.4779 302.794 68.1339 304.762 69.5739L303.658 70.9659C301.738 69.5019 298.522 67.8459 295.33 66.6219ZM292.714 49.4379L294.514 48.8859C295.162 49.8699 295.906 51.2139 296.194 52.0779L294.346 52.7019C294.058 51.8619 293.362 50.4459 292.714 49.4379ZM284.602 51.7659H304.306V56.6379H302.458V53.4699H286.378V56.6379H284.602V51.7659ZM294.514 54.6699H296.386C296.098 63.5739 295.354 68.7579 285.394 71.0379C285.226 70.5579 284.746 69.8619 284.362 69.4779C293.842 67.4859 294.25 62.9499 294.514 54.6699ZM284.146 63.0699H304.858V64.6299H284.146V63.0699ZM288.202 55.8459L289.282 54.6939C290.578 55.3899 292.114 56.4939 292.858 57.3339L291.73 58.6299C291.01 57.7899 289.498 56.6139 288.202 55.8459ZM285.802 59.5659L286.858 58.3659C288.226 59.0619 289.834 60.1899 290.626 61.0299L289.546 62.3739C288.778 61.5099 287.146 60.3099 285.802 59.5659ZM310.09 51.6459V55.8939H314.338V51.6459H310.09ZM308.506 50.0859H315.97V57.4539H308.506V50.0859ZM311.65 56.6619H313.258V67.7979H311.65V56.6619ZM308.53 59.6859H310.018V68.5899H308.53V59.6859ZM307.33 68.2299C309.706 67.7259 313.354 66.8379 316.858 65.9499L317.05 67.5339C313.738 68.3979 310.258 69.2859 307.714 69.9339L307.33 68.2299ZM312.37 60.9099H316.57V62.4939H312.37V60.9099ZM316.93 53.4219L328.498 52.2699L328.642 53.8299L317.098 55.0059L316.93 53.4219ZM317.506 57.1659L328.042 56.0139L328.234 57.5259L317.674 58.6779L317.506 57.1659ZM316.954 61.1499L329.314 59.7819L329.506 61.3419L317.146 62.7339L316.954 61.1499ZM320.698 49.0779H322.522C322.426 60.4539 324.37 69.3579 327.322 69.3579C327.946 69.3579 328.21 68.5179 328.354 65.9979C328.714 66.4059 329.314 66.7659 329.746 66.9339C329.41 70.1499 328.834 71.1099 327.178 71.1099C322.474 71.1099 320.77 60.9099 320.698 49.0779ZM323.746 50.0619L324.754 48.9819C325.954 49.4859 327.466 50.3499 328.21 51.0219L327.178 52.2459C326.434 51.5499 324.946 50.6619 323.746 50.0619ZM326.89 62.3739L328.45 63.0459C326.026 66.6459 321.754 69.4299 317.074 70.9899C316.834 70.5339 316.378 69.9099 315.97 69.5019C320.506 68.1339 324.682 65.5899 326.89 62.3739ZM332.578 50.5659L333.658 49.3659C335.098 50.1339 337.042 51.2859 338.05 52.0059L336.922 53.3979C335.938 52.6299 334.018 51.4299 332.578 50.5659ZM331.354 57.0699L332.362 55.7739C333.85 56.4219 335.914 57.4539 336.97 58.1019L335.938 59.5659C334.906 58.8939 332.866 57.8139 331.354 57.0699ZM332.074 69.5979C333.37 67.7019 335.314 64.4139 336.73 61.6059L338.074 62.7819C336.754 65.3979 335.026 68.5179 333.586 70.8219L332.074 69.5979ZM342.562 56.4219H348.946V58.1019H342.562V56.4219ZM338.746 50.5419H352.954V55.3659H351.202V52.2699H340.45V55.3659H338.746V50.5419ZM341.506 56.4219H343.258V61.5099C343.258 64.6779 342.538 68.6379 338.458 71.1339C338.242 70.7499 337.642 70.0059 337.282 69.7659C341.026 67.4619 341.506 64.1979 341.506 61.4619V56.4219ZM347.986 56.4219H349.738V68.1099C349.738 68.8539 349.834 68.9739 350.266 68.9739C350.458 68.9739 351.322 68.9739 351.586 68.9739C352.09 68.9739 352.162 68.3259 352.21 64.8219C352.618 65.1819 353.362 65.4939 353.842 65.6139C353.698 69.5259 353.314 70.6539 351.73 70.6539C351.418 70.6539 350.29 70.6539 349.978 70.6539C348.442 70.6539 347.986 70.1259 347.986 68.1339V56.4219ZM363.226 56.9259H376.186V58.5579H363.226V56.9259ZM369.586 62.3019H375.85V63.9339H369.586V62.3019ZM362.506 52.1019H376.954V56.1099H375.178V53.7099H364.21V56.1099H362.506V52.1019ZM368.698 49.0539H370.546V52.9899H368.698V49.0539ZM368.746 57.6219H370.498V69.4059H368.746V57.6219ZM365.458 63.7659C366.826 68.3019 369.682 68.9979 373.258 68.9979C373.882 68.9979 376.834 68.9979 377.674 68.9979C377.434 69.3819 377.17 70.1739 377.098 70.6539H373.186C368.938 70.6539 365.866 69.7179 364.282 64.2219L365.458 63.7659ZM356.53 50.5419L357.538 49.2219C359.05 49.8699 360.898 50.9259 361.81 51.7419L360.754 53.2539C359.866 52.3659 358.042 51.2379 356.53 50.5419ZM355.33 57.0459L356.338 55.7019C357.826 56.2539 359.698 57.2859 360.634 58.0539L359.602 59.5419C358.69 58.7499 356.866 57.6939 355.33 57.0459ZM356.002 69.7179C357.178 67.8459 358.858 64.6539 360.106 61.8939L361.522 62.9739C360.394 65.5419 358.858 68.5899 357.586 70.8219L356.002 69.7179ZM364.57 60.2859L366.322 60.4779C365.746 65.1099 364.498 68.7819 362.146 71.2059C361.858 70.9179 361.09 70.3899 360.682 70.1499C363.01 68.0139 364.114 64.5099 364.57 60.2859Z" fill="white"/>
<rect x="72.8875" y="83.1899" width="189.58" height="22.86" rx="11.43" fill="white"/>
<path d="M86.9973 98.6199H84.0386V89.889H87.0569C87.9238 89.889 88.6684 90.0638 89.2908 90.4133C89.9161 90.7601 90.3964 91.2589 90.7318 91.9097C91.0671 92.5605 91.2348 93.3393 91.2348 94.2459C91.2348 95.1554 91.0657 95.9369 90.7275 96.5906C90.3921 97.2443 89.9076 97.7459 89.2738 98.0955C88.6428 98.4451 87.884 98.6199 86.9973 98.6199ZM85.6203 97.2514H86.9205C87.5287 97.2514 88.036 97.1406 88.4425 96.9189C88.8489 96.6944 89.1544 96.3604 89.359 95.917C89.5637 95.4708 89.666 94.9138 89.666 94.2459C89.666 93.578 89.5637 93.0238 89.359 92.5833C89.1544 92.1399 88.8517 91.8088 88.451 91.59C88.0531 91.3683 87.5586 91.2574 86.9674 91.2574H85.6203V97.2514ZM95.5683 98.7478C94.9118 98.7478 94.3448 98.6113 93.8673 98.3385C93.3927 98.0628 93.0275 97.6735 92.7717 97.1704C92.5159 96.6645 92.388 96.0691 92.388 95.3842C92.388 94.7106 92.5159 94.1194 92.7717 93.6107C93.0303 93.0991 93.3913 92.7012 93.8545 92.417C94.3178 92.13 94.862 91.9864 95.4873 91.9864C95.8909 91.9864 96.2717 92.0518 96.6298 92.1825C96.9908 92.3104 97.3091 92.5094 97.5848 92.7794C97.8633 93.0494 98.0821 93.3933 98.2413 93.8111C98.4005 94.226 98.48 94.7205 98.48 95.2946V95.7678H93.1127V94.7276H97.0007C96.9979 94.432 96.9339 94.1692 96.8089 93.9389C96.6838 93.7059 96.509 93.5226 96.2845 93.389C96.0628 93.2554 95.8042 93.1886 95.5086 93.1886C95.1931 93.1886 94.916 93.2654 94.6773 93.4188C94.4386 93.5695 94.2524 93.7684 94.1188 94.0157C93.9881 94.2601 93.9213 94.5287 93.9185 94.8214V95.7295C93.9185 96.1103 93.9881 96.4371 94.1274 96.71C94.2666 96.98 94.4613 97.1875 94.7114 97.3324C94.9615 97.4745 95.2543 97.5456 95.5896 97.5456C95.8141 97.5456 96.0174 97.5143 96.1992 97.4518C96.3811 97.3864 96.5389 97.2912 96.6725 97.1661C96.806 97.0411 96.9069 96.8862 96.9751 96.7015L98.4161 96.8635C98.3251 97.2443 98.1518 97.5768 97.896 97.861C97.643 98.1424 97.319 98.3612 96.924 98.5176C96.5289 98.671 96.077 98.7478 95.5683 98.7478ZM104.961 93.8025L103.554 93.956C103.514 93.8139 103.445 93.6803 103.345 93.5553C103.249 93.4302 103.118 93.3293 102.953 93.2526C102.788 93.1758 102.586 93.1375 102.348 93.1375C102.027 93.1375 101.757 93.2071 101.538 93.3464C101.322 93.4856 101.215 93.6661 101.218 93.8878C101.215 94.0782 101.285 94.2331 101.427 94.3525C101.572 94.4718 101.811 94.5699 102.143 94.6466L103.26 94.8854C103.88 95.0189 104.34 95.2307 104.641 95.5206C104.945 95.8105 105.099 96.1899 105.102 96.6588C105.099 97.0709 104.978 97.4347 104.739 97.7502C104.503 98.0628 104.175 98.3072 103.755 98.4835C103.334 98.6597 102.851 98.7478 102.305 98.7478C101.504 98.7478 100.859 98.5801 100.37 98.2447C99.8808 97.9065 99.5895 97.4361 99.4957 96.8336L101.001 96.6887C101.069 96.9842 101.214 97.2074 101.435 97.358C101.657 97.5086 101.946 97.5839 102.301 97.5839C102.667 97.5839 102.962 97.5086 103.183 97.358C103.408 97.2074 103.52 97.0212 103.52 96.7995C103.52 96.6119 103.448 96.457 103.303 96.3348C103.161 96.2126 102.939 96.1188 102.638 96.0535L101.521 95.819C100.893 95.6883 100.428 95.468 100.127 95.1582C99.8254 94.8456 99.6762 94.4505 99.679 93.9731C99.6762 93.5695 99.7856 93.2199 100.007 92.9243C100.232 92.6259 100.543 92.3957 100.941 92.2337C101.342 92.0688 101.804 91.9864 102.326 91.9864C103.094 91.9864 103.698 92.1498 104.138 92.4767C104.582 92.8035 104.856 93.2455 104.961 93.8025ZM106.374 98.6199V92.0717H107.918V98.6199H106.374ZM107.15 91.1423C106.906 91.1423 106.695 91.0613 106.519 90.8993C106.343 90.7345 106.255 90.537 106.255 90.3068C106.255 90.0737 106.343 89.8762 106.519 89.7142C106.695 89.5493 106.906 89.4669 107.15 89.4669C107.397 89.4669 107.608 89.5493 107.781 89.7142C107.957 89.8762 108.045 90.0737 108.045 90.3068C108.045 90.537 107.957 90.7345 107.781 90.8993C107.608 91.0613 107.397 91.1423 107.15 91.1423ZM112.352 101.212C111.798 101.212 111.322 101.137 110.924 100.986C110.526 100.838 110.207 100.639 109.965 100.389C109.723 100.139 109.556 99.8619 109.462 99.5578L110.852 99.221C110.914 99.3489 111.005 99.4753 111.125 99.6004C111.244 99.7283 111.404 99.8334 111.606 99.9159C111.811 100.001 112.068 100.044 112.378 100.044C112.816 100.044 113.178 99.9372 113.465 99.724C113.752 99.5137 113.896 99.167 113.896 98.6838V97.4432H113.819C113.739 97.6024 113.623 97.7658 113.469 97.9335C113.319 98.1012 113.118 98.2419 112.868 98.3556C112.621 98.4692 112.31 98.5261 111.934 98.5261C111.431 98.5261 110.975 98.4081 110.566 98.1722C110.16 97.9335 109.836 97.5782 109.594 97.1065C109.355 96.6318 109.236 96.0378 109.236 95.3245C109.236 94.6054 109.355 93.9986 109.594 93.5041C109.836 93.0067 110.161 92.6302 110.57 92.3744C110.98 92.1157 111.436 91.9864 111.939 91.9864C112.322 91.9864 112.638 92.0518 112.885 92.1825C113.135 92.3104 113.334 92.4653 113.482 92.6472C113.63 92.8263 113.742 92.9954 113.819 93.1545H113.904V92.0717H115.426V98.7265C115.426 99.2863 115.292 99.7496 115.025 100.116C114.758 100.483 114.393 100.757 113.93 100.939C113.466 101.121 112.941 101.212 112.352 101.212ZM112.365 97.3154C112.692 97.3154 112.97 97.2358 113.201 97.0766C113.431 96.9175 113.606 96.6887 113.725 96.3903C113.844 96.0918 113.904 95.7337 113.904 95.3159C113.904 94.9038 113.844 94.5429 113.725 94.2331C113.608 93.9233 113.435 93.6832 113.205 93.5126C112.978 93.3393 112.698 93.2526 112.365 93.2526C112.021 93.2526 111.734 93.3421 111.504 93.5212C111.274 93.7002 111.1 93.9461 110.984 94.2587C110.867 94.5685 110.809 94.9209 110.809 95.3159C110.809 95.7167 110.867 96.0677 110.984 96.3689C111.103 96.6674 111.278 96.9004 111.508 97.0681C111.741 97.2329 112.027 97.3154 112.365 97.3154ZM118.551 94.783V98.6199H117.008V92.0717H118.483V93.1844H118.559C118.71 92.8177 118.95 92.5264 119.28 92.3104C119.612 92.0944 120.023 91.9864 120.512 91.9864C120.964 91.9864 121.357 92.0831 121.693 92.2763C122.031 92.4696 122.293 92.7495 122.477 93.1162C122.665 93.4828 122.757 93.9276 122.754 94.4505V98.6199H121.211V94.6893C121.211 94.2516 121.097 93.9091 120.87 93.6618C120.646 93.4146 120.334 93.2909 119.936 93.2909C119.666 93.2909 119.426 93.3506 119.216 93.47C119.008 93.5865 118.845 93.7556 118.726 93.9773C118.609 94.199 118.551 94.4676 118.551 94.783ZM127.222 98.7478C126.566 98.7478 125.999 98.6113 125.521 98.3385C125.046 98.0628 124.681 97.6735 124.425 97.1704C124.17 96.6645 124.042 96.0691 124.042 95.3842C124.042 94.7106 124.17 94.1194 124.425 93.6107C124.684 93.0991 125.045 92.7012 125.508 92.417C125.972 92.13 126.516 91.9864 127.141 91.9864C127.545 91.9864 127.926 92.0518 128.284 92.1825C128.645 92.3104 128.963 92.5094 129.239 92.7794C129.517 93.0494 129.736 93.3933 129.895 93.8111C130.054 94.226 130.134 94.7205 130.134 95.2946V95.7678H124.767V94.7276H128.655C128.652 94.432 128.588 94.1692 128.463 93.9389C128.338 93.7059 128.163 93.5226 127.938 93.389C127.717 93.2554 127.458 93.1886 127.162 93.1886C126.847 93.1886 126.57 93.2654 126.331 93.4188C126.092 93.5695 125.906 93.7684 125.773 94.0157C125.642 94.2601 125.575 94.5287 125.572 94.8214V95.7295C125.572 96.1103 125.642 96.4371 125.781 96.71C125.92 96.98 126.115 97.1875 126.365 97.3324C126.615 97.4745 126.908 97.5456 127.243 97.5456C127.468 97.5456 127.671 97.5143 127.853 97.4518C128.035 97.3864 128.193 97.2912 128.326 97.1661C128.46 97.0411 128.561 96.8862 128.629 96.7015L130.07 96.8635C129.979 97.2443 129.806 97.5768 129.55 97.861C129.297 98.1424 128.973 98.3612 128.578 98.5176C128.183 98.671 127.731 98.7478 127.222 98.7478ZM133.869 98.735C133.355 98.735 132.895 98.6028 132.488 98.3385C132.082 98.0742 131.761 97.6905 131.525 97.1875C131.289 96.6844 131.171 96.0734 131.171 95.3543C131.171 94.6267 131.29 94.0128 131.529 93.5126C131.771 93.0096 132.096 92.6302 132.505 92.3744C132.914 92.1157 133.371 91.9864 133.874 91.9864C134.257 91.9864 134.573 92.0518 134.82 92.1825C135.067 92.3104 135.263 92.4653 135.408 92.6472C135.553 92.8263 135.666 92.9954 135.745 93.1545H135.809V89.889H137.357V98.6199H135.839V97.5882H135.745C135.666 97.7474 135.551 97.9165 135.4 98.0955C135.249 98.2717 135.05 98.4223 134.803 98.5474C134.556 98.6725 134.245 98.735 133.869 98.735ZM134.3 97.4688C134.627 97.4688 134.905 97.3807 135.136 97.2045C135.366 97.0255 135.541 96.7768 135.66 96.4585C135.779 96.1401 135.839 95.7693 135.839 95.3458C135.839 94.9223 135.779 94.5543 135.66 94.2416C135.543 93.929 135.37 93.686 135.14 93.5126C134.912 93.3393 134.633 93.2526 134.3 93.2526C133.956 93.2526 133.669 93.3421 133.439 93.5212C133.209 93.7002 133.035 93.9475 132.919 94.2629C132.802 94.5784 132.744 94.9394 132.744 95.3458C132.744 95.755 132.802 96.1203 132.919 96.4414C133.038 96.7597 133.213 97.0112 133.443 97.196C133.676 97.3779 133.962 97.4688 134.3 97.4688ZM143.863 98.752C143.448 98.752 143.075 98.6781 142.742 98.5303C142.412 98.3797 142.151 98.158 141.958 97.8653C141.767 97.5726 141.672 97.2116 141.672 96.7825C141.672 96.413 141.74 96.1075 141.877 95.8659C142.013 95.6243 142.199 95.431 142.435 95.2861C142.671 95.1412 142.937 95.0317 143.232 94.9578C143.531 94.8811 143.839 94.8257 144.157 94.7916C144.541 94.7518 144.852 94.7163 145.091 94.685C145.33 94.6509 145.503 94.5997 145.611 94.5315C145.722 94.4605 145.777 94.351 145.777 94.2033V94.1777C145.777 93.8565 145.682 93.6078 145.492 93.4316C145.301 93.2554 145.027 93.1673 144.669 93.1673C144.291 93.1673 143.991 93.2497 143.769 93.4146C143.551 93.5794 143.403 93.7741 143.326 93.9986L141.885 93.794C141.999 93.3961 142.186 93.0636 142.448 92.7964C142.709 92.5264 143.029 92.3246 143.407 92.1911C143.785 92.0546 144.203 91.9864 144.66 91.9864C144.976 91.9864 145.29 92.0234 145.603 92.0973C145.915 92.1712 146.201 92.2934 146.46 92.4639C146.718 92.6316 146.926 92.8604 147.082 93.1503C147.241 93.4402 147.321 93.8025 147.321 94.2374V98.6199H145.837V97.7204H145.786C145.692 97.9022 145.56 98.0728 145.389 98.2319C145.222 98.3882 145.01 98.5147 144.754 98.6113C144.501 98.7051 144.204 98.752 143.863 98.752ZM144.264 97.618C144.574 97.618 144.842 97.5569 145.07 97.4347C145.297 97.3097 145.472 97.1448 145.594 96.9402C145.719 96.7356 145.782 96.5125 145.782 96.2709V95.4993C145.733 95.539 145.651 95.576 145.534 95.6101C145.421 95.6442 145.293 95.674 145.151 95.6996C145.009 95.7252 144.868 95.7479 144.729 95.7678C144.589 95.7877 144.469 95.8048 144.366 95.819C144.136 95.8503 143.93 95.9014 143.748 95.9725C143.566 96.0435 143.423 96.143 143.318 96.2709C143.212 96.3959 143.16 96.5579 143.16 96.7569C143.16 97.0411 143.264 97.2557 143.471 97.4006C143.679 97.5456 143.943 97.618 144.264 97.618ZM150.416 94.783V98.6199H148.872V92.0717H150.348V93.1844H150.424C150.575 92.8177 150.815 92.5264 151.145 92.3104C151.477 92.0944 151.888 91.9864 152.377 91.9864C152.829 91.9864 153.222 92.0831 153.558 92.2763C153.896 92.4696 154.157 92.7495 154.342 93.1162C154.53 93.4828 154.622 93.9276 154.619 94.4505V98.6199H153.076V94.6893C153.076 94.2516 152.962 93.9091 152.735 93.6618C152.51 93.4146 152.199 93.2909 151.801 93.2909C151.531 93.2909 151.291 93.3506 151.081 93.47C150.873 93.5865 150.71 93.7556 150.591 93.9773C150.474 94.199 150.416 94.4676 150.416 94.783ZM158.618 98.735C158.104 98.735 157.643 98.6028 157.237 98.3385C156.83 98.0742 156.509 97.6905 156.273 97.1875C156.037 96.6844 155.919 96.0734 155.919 95.3543C155.919 94.6267 156.039 94.0128 156.278 93.5126C156.519 93.0096 156.845 92.6302 157.254 92.3744C157.663 92.1157 158.119 91.9864 158.622 91.9864C159.006 91.9864 159.321 92.0518 159.569 92.1825C159.816 92.3104 160.012 92.4653 160.157 92.6472C160.302 92.8263 160.414 92.9954 160.494 93.1545H160.558V89.889H162.105V98.6199H160.588V97.5882H160.494C160.414 97.7474 160.299 97.9165 160.148 98.0955C159.998 98.2717 159.799 98.4223 159.552 98.5474C159.304 98.6725 158.993 98.735 158.618 98.735ZM159.049 97.4688C159.375 97.4688 159.654 97.3807 159.884 97.2045C160.114 97.0255 160.289 96.7768 160.409 96.4585C160.528 96.1401 160.588 95.7693 160.588 95.3458C160.588 94.9223 160.528 94.5543 160.409 94.2416C160.292 93.929 160.119 93.686 159.888 93.5126C159.661 93.3393 159.381 93.2526 159.049 93.2526C158.705 93.2526 158.418 93.3421 158.187 93.5212C157.957 93.7002 157.784 93.9475 157.667 94.2629C157.551 94.5784 157.493 94.9394 157.493 95.3458C157.493 95.755 157.551 96.1203 157.667 96.4414C157.787 96.7597 157.961 97.0112 158.192 97.196C158.425 97.3779 158.71 97.4688 159.049 97.4688ZM169.584 98.7478C168.93 98.7478 168.369 98.6042 167.9 98.3172C167.434 98.0301 167.074 97.6337 166.821 97.1278C166.571 96.619 166.446 96.0336 166.446 95.3714C166.446 94.7063 166.574 94.1194 166.83 93.6107C167.086 93.0991 167.447 92.7012 167.913 92.417C168.382 92.13 168.936 91.9864 169.575 91.9864C170.107 91.9864 170.577 92.0845 170.986 92.2806C171.399 92.4738 171.727 92.7481 171.971 93.1034C172.216 93.4558 172.355 93.8679 172.389 94.3397H170.914C170.854 94.0242 170.712 93.7613 170.488 93.551C170.266 93.3378 169.969 93.2313 169.597 93.2313C169.281 93.2313 169.004 93.3165 168.765 93.4871C168.527 93.6547 168.34 93.8963 168.207 94.2118C168.076 94.5273 168.011 94.9053 168.011 95.3458C168.011 95.792 168.076 96.1757 168.207 96.4968C168.338 96.8151 168.521 97.061 168.757 97.2344C168.996 97.4049 169.275 97.4901 169.597 97.4901C169.824 97.4901 170.027 97.4475 170.206 97.3622C170.388 97.2741 170.54 97.1477 170.662 96.9828C170.785 96.818 170.868 96.6176 170.914 96.3817H172.389C172.352 96.845 172.216 97.2557 171.98 97.6138C171.744 97.969 171.423 98.2476 171.016 98.4493C170.61 98.6483 170.132 98.7478 169.584 98.7478ZM176.513 98.7478C175.873 98.7478 175.319 98.6071 174.85 98.3257C174.381 98.0443 174.017 97.6507 173.759 97.1448C173.503 96.6389 173.375 96.0478 173.375 95.3714C173.375 94.6949 173.503 94.1024 173.759 93.5936C174.017 93.0849 174.381 92.6898 174.85 92.4085C175.319 92.1271 175.873 91.9864 176.513 91.9864C177.152 91.9864 177.706 92.1271 178.175 92.4085C178.644 92.6898 179.006 93.0849 179.262 93.5936C179.521 94.1024 179.65 94.6949 179.65 95.3714C179.65 96.0478 179.521 96.6389 179.262 97.1448C179.006 97.6507 178.644 98.0443 178.175 98.3257C177.706 98.6071 177.152 98.7478 176.513 98.7478ZM176.521 97.5115C176.868 97.5115 177.158 97.4162 177.391 97.2258C177.624 97.0326 177.797 96.7739 177.911 96.4499C178.027 96.1259 178.086 95.765 178.086 95.3671C178.086 94.9664 178.027 94.604 177.911 94.28C177.797 93.9532 177.624 93.6931 177.391 93.4998C177.158 93.3066 176.868 93.2099 176.521 93.2099C176.166 93.2099 175.87 93.3066 175.634 93.4998C175.401 93.6931 175.226 93.9532 175.11 94.28C174.996 94.604 174.939 94.9664 174.939 95.3671C174.939 95.765 174.996 96.1259 175.11 96.4499C175.226 96.7739 175.401 97.0326 175.634 97.2258C175.87 97.4162 176.166 97.5115 176.521 97.5115ZM183.39 98.735C182.876 98.735 182.415 98.6028 182.009 98.3385C181.602 98.0742 181.281 97.6905 181.045 97.1875C180.809 96.6844 180.691 96.0734 180.691 95.3543C180.691 94.6267 180.811 94.0128 181.05 93.5126C181.291 93.0096 181.617 92.6302 182.026 92.3744C182.435 92.1157 182.891 91.9864 183.394 91.9864C183.778 91.9864 184.093 92.0518 184.341 92.1825C184.588 92.3104 184.784 92.4653 184.929 92.6472C185.074 92.8263 185.186 92.9954 185.266 93.1545H185.33V89.889H186.877V98.6199H185.36V97.5882H185.266C185.186 97.7474 185.071 97.9165 184.921 98.0955C184.77 98.2717 184.571 98.4223 184.324 98.5474C184.076 98.6725 183.765 98.735 183.39 98.735ZM183.821 97.4688C184.147 97.4688 184.426 97.3807 184.656 97.2045C184.886 97.0255 185.061 96.7768 185.181 96.4585C185.3 96.1401 185.36 95.7693 185.36 95.3458C185.36 94.9223 185.3 94.5543 185.181 94.2416C185.064 93.929 184.891 93.686 184.66 93.5126C184.433 93.3393 184.153 93.2526 183.821 93.2526C183.477 93.2526 183.19 93.3421 182.959 93.5212C182.729 93.7002 182.556 93.9475 182.439 94.2629C182.323 94.5784 182.265 94.9394 182.265 95.3458C182.265 95.755 182.323 96.1203 182.439 96.4414C182.559 96.7597 182.734 97.0112 182.964 97.196C183.197 97.3779 183.482 97.4688 183.821 97.4688ZM191.421 98.7478C190.764 98.7478 190.197 98.6113 189.72 98.3385C189.245 98.0628 188.88 97.6735 188.624 97.1704C188.368 96.6645 188.24 96.0691 188.24 95.3842C188.24 94.7106 188.368 94.1194 188.624 93.6107C188.883 93.0991 189.244 92.7012 189.707 92.417C190.17 92.13 190.714 91.9864 191.34 91.9864C191.743 91.9864 192.124 92.0518 192.482 92.1825C192.843 92.3104 193.162 92.5094 193.437 92.7794C193.716 93.0494 193.935 93.3933 194.094 93.8111C194.253 94.226 194.332 94.7205 194.332 95.2946V95.7678H188.965V94.7276H192.853C192.85 94.432 192.786 94.1692 192.661 93.9389C192.536 93.7059 192.361 93.5226 192.137 93.389C191.915 93.2554 191.657 93.1886 191.361 93.1886C191.046 93.1886 190.768 93.2654 190.53 93.4188C190.291 93.5695 190.105 93.7684 189.971 94.0157C189.841 94.2601 189.774 94.5287 189.771 94.8214V95.7295C189.771 96.1103 189.841 96.4371 189.98 96.71C190.119 96.98 190.314 97.1875 190.564 97.3324C190.814 97.4745 191.107 97.5456 191.442 97.5456C191.667 97.5456 191.87 97.5143 192.052 97.4518C192.234 97.3864 192.391 97.2912 192.525 97.1661C192.658 97.0411 192.759 96.8862 192.828 96.7015L194.269 96.8635C194.178 97.2443 194.004 97.5768 193.748 97.861C193.495 98.1424 193.171 98.3612 192.776 98.5176C192.381 98.671 191.929 98.7478 191.421 98.7478ZM198.068 98.735C197.554 98.735 197.093 98.6028 196.687 98.3385C196.28 98.0742 195.959 97.6905 195.723 97.1875C195.487 96.6844 195.369 96.0734 195.369 95.3543C195.369 94.6267 195.489 94.0128 195.728 93.5126C195.969 93.0096 196.295 92.6302 196.704 92.3744C197.113 92.1157 197.569 91.9864 198.072 91.9864C198.456 91.9864 198.771 92.0518 199.019 92.1825C199.266 92.3104 199.462 92.4653 199.607 92.6472C199.752 92.8263 199.864 92.9954 199.944 93.1545H200.008V89.889H201.555V98.6199H200.038V97.5882H199.944C199.864 97.7474 199.749 97.9165 199.598 98.0955C199.448 98.2717 199.249 98.4223 199.002 98.5474C198.754 98.6725 198.443 98.735 198.068 98.735ZM198.499 97.4688C198.825 97.4688 199.104 97.3807 199.334 97.2045C199.564 97.0255 199.739 96.7768 199.859 96.4585C199.978 96.1401 200.038 95.7693 200.038 95.3458C200.038 94.9223 199.978 94.5543 199.859 94.2416C199.742 93.929 199.569 93.686 199.338 93.5126C199.111 93.3393 198.831 93.2526 198.499 93.2526C198.155 93.2526 197.868 93.3421 197.637 93.5212C197.407 93.7002 197.234 93.9475 197.117 94.2629C197.001 94.5784 196.943 94.9394 196.943 95.3458C196.943 95.755 197.001 96.1203 197.117 96.4414C197.237 96.7597 197.412 97.0112 197.642 97.196C197.875 97.3779 198.16 97.4688 198.499 97.4688ZM206.246 98.6199V89.889H207.789V93.1545H207.853C207.933 92.9954 208.045 92.8263 208.19 92.6472C208.335 92.4653 208.531 92.3104 208.778 92.1825C209.025 92.0518 209.341 91.9864 209.725 91.9864C210.23 91.9864 210.687 92.1157 211.093 92.3744C211.502 92.6302 211.826 93.0096 212.065 93.5126C212.307 94.0128 212.427 94.6267 212.427 95.3543C212.427 96.0734 212.309 96.6844 212.074 97.1875C211.838 97.6905 211.516 98.0742 211.11 98.3385C210.704 98.6028 210.243 98.735 209.729 98.735C209.354 98.735 209.042 98.6725 208.795 98.5474C208.548 98.4223 208.349 98.2717 208.198 98.0955C208.051 97.9165 207.935 97.7474 207.853 97.5882H207.763V98.6199H206.246ZM207.759 95.3458C207.759 95.7693 207.819 96.1401 207.938 96.4585C208.06 96.7768 208.235 97.0255 208.463 97.2045C208.693 97.3807 208.971 97.4688 209.298 97.4688C209.639 97.4688 209.925 97.3779 210.155 97.196C210.385 97.0112 210.559 96.7597 210.675 96.4414C210.795 96.1203 210.854 95.755 210.854 95.3458C210.854 94.9394 210.796 94.5784 210.679 94.2629C210.563 93.9475 210.39 93.7002 210.159 93.5212C209.929 93.3421 209.642 93.2526 209.298 93.2526C208.969 93.2526 208.689 93.3393 208.458 93.5126C208.228 93.686 208.053 93.929 207.934 94.2416C207.817 94.5543 207.759 94.9223 207.759 95.3458ZM214.476 101.075C214.265 101.075 214.071 101.058 213.892 101.024C213.716 100.993 213.575 100.956 213.47 100.913L213.828 99.7112C214.052 99.7766 214.253 99.8079 214.429 99.805C214.605 99.8022 214.76 99.7468 214.894 99.6388C215.03 99.5336 215.145 99.3574 215.239 99.1101L215.371 98.7563L212.996 92.0717H214.634L216.143 97.0169H216.211L217.724 92.0717H219.366L216.744 99.4128C216.622 99.7596 216.46 100.057 216.258 100.304C216.056 100.554 215.809 100.744 215.516 100.875C215.226 101.009 214.879 101.075 214.476 101.075ZM222.883 89.889H224.669L226.805 93.7514H226.89L229.026 89.889H230.812L227.636 95.3628V98.6199H226.059V95.3628L222.883 89.889ZM237.713 92.0717L235.381 98.6199H233.676L231.344 92.0717H232.99L234.494 96.9359H234.563L236.072 92.0717H237.713ZM241.457 98.7478C240.801 98.7478 240.234 98.6113 239.756 98.3385C239.282 98.0628 238.916 97.6735 238.661 97.1704C238.405 96.6645 238.277 96.0691 238.277 95.3842C238.277 94.7106 238.405 94.1194 238.661 93.6107C238.919 93.0991 239.28 92.7012 239.743 92.417C240.207 92.13 240.751 91.9864 241.376 91.9864C241.78 91.9864 242.161 92.0518 242.519 92.1825C242.88 92.3104 243.198 92.5094 243.474 92.7794C243.752 93.0494 243.971 93.3933 244.13 93.8111C244.289 94.226 244.369 94.7205 244.369 95.2946V95.7678H239.002V94.7276H242.89C242.887 94.432 242.823 94.1692 242.698 93.9389C242.573 93.7059 242.398 93.5226 242.173 93.389C241.952 93.2554 241.693 93.1886 241.398 93.1886C241.082 93.1886 240.805 93.2654 240.566 93.4188C240.327 93.5695 240.141 93.7684 240.008 94.0157C239.877 94.2601 239.81 94.5287 239.807 94.8214V95.7295C239.807 96.1103 239.877 96.4371 240.016 96.71C240.156 96.98 240.35 97.1875 240.6 97.3324C240.85 97.4745 241.143 97.5456 241.479 97.5456C241.703 97.5456 241.906 97.5143 242.088 97.4518C242.27 97.3864 242.428 97.2912 242.561 97.1661C242.695 97.0411 242.796 96.8862 242.864 96.7015L244.305 96.8635C244.214 97.2443 244.041 97.5768 243.785 97.861C243.532 98.1424 243.208 98.3612 242.813 98.5176C242.418 98.671 241.966 98.7478 241.457 98.7478ZM250.85 93.8025L249.443 93.956C249.403 93.8139 249.334 93.6803 249.234 93.5553C249.138 93.4302 249.007 93.3293 248.842 93.2526C248.677 93.1758 248.475 93.1375 248.237 93.1375C247.915 93.1375 247.645 93.2071 247.427 93.3464C247.211 93.4856 247.104 93.6661 247.107 93.8878C247.104 94.0782 247.174 94.2331 247.316 94.3525C247.461 94.4718 247.699 94.5699 248.032 94.6466L249.149 94.8854C249.769 95.0189 250.229 95.2307 250.53 95.5206C250.834 95.8105 250.988 96.1899 250.991 96.6588C250.988 97.0709 250.867 97.4347 250.628 97.7502C250.392 98.0628 250.064 98.3072 249.643 98.4835C249.223 98.6597 248.74 98.7478 248.194 98.7478C247.393 98.7478 246.747 98.5801 246.259 98.2447C245.77 97.9065 245.478 97.4361 245.385 96.8336L246.889 96.6887C246.958 96.9842 247.103 97.2074 247.324 97.358C247.546 97.5086 247.834 97.5839 248.19 97.5839C248.556 97.5839 248.851 97.5086 249.072 97.358C249.297 97.2074 249.409 97.0212 249.409 96.7995C249.409 96.6119 249.337 96.457 249.192 96.3348C249.049 96.2126 248.828 96.1188 248.527 96.0535L247.41 95.819C246.782 95.6883 246.317 95.468 246.016 95.1582C245.714 94.8456 245.565 94.4505 245.568 93.9731C245.565 93.5695 245.675 93.2199 245.896 92.9243C246.121 92.6259 246.432 92.3957 246.83 92.2337C247.231 92.0688 247.692 91.9864 248.215 91.9864C248.983 91.9864 249.587 92.1498 250.027 92.4767C250.471 92.8035 250.745 93.2455 250.85 93.8025Z" fill="black" fill-opacity="0.85"/>
<path d="M277.245 98.6199V89.889H282.48V90.8269H278.302V93.7769H282.088V94.7148H278.302V98.6199H277.245ZM286.334 98.7563C285.743 98.7563 285.224 98.6156 284.778 98.3342C284.334 98.0529 283.988 97.6592 283.738 97.1534C283.49 96.6475 283.367 96.0563 283.367 95.3799C283.367 94.6978 283.49 94.1024 283.738 93.5936C283.988 93.0849 284.334 92.6898 284.778 92.4085C285.224 92.1271 285.743 91.9864 286.334 91.9864C286.925 91.9864 287.442 92.1271 287.886 92.4085C288.332 92.6898 288.678 93.0849 288.926 93.5936C289.176 94.1024 289.301 94.6978 289.301 95.3799C289.301 96.0563 289.176 96.6475 288.926 97.1534C288.678 97.6592 288.332 98.0529 287.886 98.3342C287.442 98.6156 286.925 98.7563 286.334 98.7563ZM286.334 97.8525C286.783 97.8525 287.152 97.7374 287.442 97.5072C287.732 97.277 287.947 96.9743 288.086 96.5991C288.225 96.224 288.295 95.8176 288.295 95.3799C288.295 94.9422 288.225 94.5344 288.086 94.1564C287.947 93.7784 287.732 93.4728 287.442 93.2398C287.152 93.0067 286.783 92.8902 286.334 92.8902C285.885 92.8902 285.515 93.0067 285.225 93.2398C284.935 93.4728 284.721 93.7784 284.582 94.1564C284.442 94.5344 284.373 94.9422 284.373 95.3799C284.373 95.8176 284.442 96.224 284.582 96.5991C284.721 96.9743 284.935 97.277 285.225 97.5072C285.515 97.7374 285.885 97.8525 286.334 97.8525ZM294.963 95.9426V92.0717H295.97V98.6199H294.963V97.5115H294.895C294.742 97.844 294.503 98.1268 294.179 98.3598C293.855 98.59 293.446 98.7051 292.951 98.7051C292.542 98.7051 292.178 98.6156 291.86 98.4366C291.542 98.2547 291.291 97.9818 291.11 97.618C290.928 97.2514 290.837 96.7896 290.837 96.2325V92.0717H291.843V96.1643C291.843 96.6418 291.976 97.0226 292.244 97.3068C292.514 97.591 292.857 97.7331 293.275 97.7331C293.525 97.7331 293.78 97.6692 294.038 97.5413C294.3 97.4134 294.519 97.2173 294.695 96.953C294.874 96.6887 294.963 96.3519 294.963 95.9426ZM298.818 94.6807V98.6199H297.812V92.0717H298.784V93.0948H298.87C299.023 92.7623 299.256 92.4952 299.569 92.2934C299.881 92.0887 300.285 91.9864 300.779 91.9864C301.223 91.9864 301.611 92.0774 301.943 92.2593C302.276 92.4383 302.534 92.7112 302.719 93.0778C302.904 93.4416 302.996 93.902 302.996 94.459V98.6199H301.99V94.5273C301.99 94.0128 301.857 93.6121 301.589 93.3251C301.322 93.0352 300.956 92.8902 300.49 92.8902C300.168 92.8902 299.881 92.9598 299.628 93.0991C299.378 93.2384 299.181 93.4416 299.036 93.7087C298.891 93.9759 298.818 94.2999 298.818 94.6807ZM307.307 98.7563C306.762 98.7563 306.28 98.6185 305.862 98.3428C305.444 98.0642 305.118 97.672 304.882 97.1661C304.646 96.6574 304.528 96.0563 304.528 95.3628C304.528 94.675 304.646 94.0782 304.882 93.5723C305.118 93.0664 305.446 92.6756 305.866 92.4C306.287 92.1243 306.773 91.9864 307.324 91.9864C307.751 91.9864 308.088 92.0575 308.335 92.1996C308.585 92.3388 308.775 92.498 308.906 92.6771C309.04 92.8533 309.143 92.9982 309.217 93.1119H309.303V89.889H310.309V98.6199H309.337V97.6138H309.217C309.143 97.7331 309.038 97.8838 308.902 98.0657C308.765 98.2447 308.571 98.4053 308.318 98.5474C308.065 98.6867 307.728 98.7563 307.307 98.7563ZM307.444 97.8525C307.847 97.8525 308.188 97.7474 308.467 97.537C308.745 97.3239 308.957 97.0297 309.102 96.6546C309.247 96.2766 309.32 95.8403 309.32 95.3458C309.32 94.8569 309.249 94.4292 309.106 94.0626C308.964 93.6931 308.754 93.4061 308.475 93.2014C308.197 92.994 307.853 92.8902 307.444 92.8902C307.017 92.8902 306.662 92.9996 306.378 93.2185C306.097 93.4345 305.885 93.7286 305.743 94.1009C305.604 94.4704 305.534 94.8854 305.534 95.3458C305.534 95.8119 305.605 96.2354 305.747 96.6162C305.892 96.9942 306.105 97.2955 306.387 97.52C306.671 97.7417 307.023 97.8525 307.444 97.8525ZM314.218 98.7733C313.803 98.7733 313.426 98.6952 313.088 98.5389C312.75 98.3797 312.481 98.1509 312.282 97.8525C312.083 97.5512 311.984 97.1875 311.984 96.7611C311.984 96.386 312.058 96.0819 312.206 95.8488C312.353 95.6129 312.551 95.4282 312.798 95.2946C313.046 95.161 313.318 95.0616 313.617 94.9962C313.918 94.928 314.221 94.874 314.525 94.8342C314.923 94.783 315.245 94.7447 315.493 94.7191C315.743 94.6907 315.925 94.6438 316.038 94.5784C316.155 94.513 316.213 94.3994 316.213 94.2374V94.2033C316.213 93.7826 316.098 93.4558 315.868 93.2227C315.64 92.9897 315.295 92.8732 314.832 92.8732C314.351 92.8732 313.975 92.9783 313.702 93.1886C313.429 93.3989 313.237 93.6235 313.127 93.8622L312.172 93.5212C312.342 93.1233 312.569 92.8135 312.854 92.5918C313.141 92.3673 313.453 92.211 313.792 92.1228C314.133 92.0319 314.468 91.9864 314.798 91.9864C315.008 91.9864 315.25 92.012 315.522 92.0632C315.798 92.1115 316.064 92.2124 316.32 92.3658C316.578 92.5193 316.793 92.751 316.963 93.0607C317.134 93.3705 317.219 93.7855 317.219 94.3056V98.6199H316.213V97.7331H316.162C316.094 97.8752 315.98 98.0273 315.821 98.1893C315.662 98.3513 315.45 98.4891 315.186 98.6028C314.921 98.7165 314.599 98.7733 314.218 98.7733ZM314.371 97.8696C314.769 97.8696 315.105 97.7914 315.377 97.6351C315.653 97.4788 315.861 97.277 316 97.0297C316.142 96.7825 316.213 96.5224 316.213 96.2496V95.3287C316.17 95.3799 316.077 95.4268 315.932 95.4694C315.79 95.5092 315.625 95.5447 315.437 95.576C315.252 95.6044 315.072 95.63 314.896 95.6527C314.722 95.6726 314.582 95.6897 314.474 95.7039C314.212 95.738 313.968 95.7934 313.74 95.8701C313.516 95.944 313.334 96.0563 313.195 96.2069C313.058 96.3547 312.99 96.5565 312.99 96.8123C312.99 97.1619 313.119 97.4262 313.378 97.6052C313.64 97.7815 313.971 97.8696 314.371 97.8696ZM321.903 92.0717V92.9243H318.51V92.0717H321.903ZM319.499 90.5029H320.505V96.7441C320.505 97.0283 320.546 97.2415 320.629 97.3836C320.714 97.5228 320.822 97.6166 320.953 97.6649C321.086 97.7104 321.227 97.7331 321.375 97.7331C321.485 97.7331 321.576 97.7275 321.647 97.7161C321.719 97.7019 321.775 97.6905 321.818 97.682L322.023 98.5858C321.954 98.6113 321.859 98.6369 321.737 98.6625C321.615 98.6909 321.46 98.7051 321.272 98.7051C320.988 98.7051 320.71 98.644 320.437 98.5218C320.167 98.3996 319.942 98.2135 319.763 97.9633C319.587 97.7132 319.499 97.3978 319.499 97.0169V90.5029ZM323.417 98.6199V92.0717H324.423V98.6199H323.417ZM323.928 90.9803C323.732 90.9803 323.563 90.9135 323.421 90.78C323.282 90.6464 323.212 90.4858 323.212 90.2982C323.212 90.1106 323.282 89.9501 323.421 89.8165C323.563 89.6829 323.732 89.6161 323.928 89.6161C324.124 89.6161 324.292 89.6829 324.431 89.8165C324.573 89.9501 324.644 90.1106 324.644 90.2982C324.644 90.4858 324.573 90.6464 324.431 90.78C324.292 90.9135 324.124 90.9803 323.928 90.9803ZM328.926 98.7563C328.335 98.7563 327.816 98.6156 327.37 98.3342C326.926 98.0529 326.58 97.6592 326.329 97.1534C326.082 96.6475 325.959 96.0563 325.959 95.3799C325.959 94.6978 326.082 94.1024 326.329 93.5936C326.58 93.0849 326.926 92.6898 327.37 92.4085C327.816 92.1271 328.335 91.9864 328.926 91.9864C329.517 91.9864 330.034 92.1271 330.478 92.4085C330.924 92.6898 331.27 93.0849 331.518 93.5936C331.768 94.1024 331.893 94.6978 331.893 95.3799C331.893 96.0563 331.768 96.6475 331.518 97.1534C331.27 97.6592 330.924 98.0529 330.478 98.3342C330.034 98.6156 329.517 98.7563 328.926 98.7563ZM328.926 97.8525C329.375 97.8525 329.744 97.7374 330.034 97.5072C330.324 97.277 330.539 96.9743 330.678 96.5991C330.817 96.224 330.887 95.8176 330.887 95.3799C330.887 94.9422 330.817 94.5344 330.678 94.1564C330.539 93.7784 330.324 93.4728 330.034 93.2398C329.744 93.0067 329.375 92.8902 328.926 92.8902C328.477 92.8902 328.107 93.0067 327.817 93.2398C327.527 93.4728 327.313 93.7784 327.174 94.1564C327.034 94.5344 326.965 94.9422 326.965 95.3799C326.965 95.8176 327.034 96.224 327.174 96.5991C327.313 96.9743 327.527 97.277 327.817 97.5072C328.107 97.7374 328.477 97.8525 328.926 97.8525ZM334.435 94.6807V98.6199H333.429V92.0717H334.401V93.0948H334.486C334.639 92.7623 334.872 92.4952 335.185 92.2934C335.498 92.0887 335.901 91.9864 336.396 91.9864C336.839 91.9864 337.227 92.0774 337.56 92.2593C337.892 92.4383 338.151 92.7112 338.336 93.0778C338.52 93.4416 338.613 93.902 338.613 94.459V98.6199H337.607V94.5273C337.607 94.0128 337.473 93.6121 337.206 93.3251C336.939 93.0352 336.572 92.8902 336.106 92.8902C335.785 92.8902 335.498 92.9598 335.245 93.0991C334.995 93.2384 334.797 93.4416 334.652 93.7087C334.507 93.9759 334.435 94.2999 334.435 94.6807ZM342.378 98.7733C341.963 98.7733 341.587 98.6952 341.248 98.5389C340.91 98.3797 340.642 98.1509 340.443 97.8525C340.244 97.5512 340.144 97.1875 340.144 96.7611C340.144 96.386 340.218 96.0819 340.366 95.8488C340.514 95.6129 340.711 95.4282 340.958 95.2946C341.206 95.161 341.479 95.0616 341.777 94.9962C342.078 94.928 342.381 94.874 342.685 94.8342C343.083 94.783 343.405 94.7447 343.653 94.7191C343.903 94.6907 344.085 94.6438 344.198 94.5784C344.315 94.513 344.373 94.3994 344.373 94.2374V94.2033C344.373 93.7826 344.258 93.4558 344.028 93.2227C343.801 92.9897 343.455 92.8732 342.992 92.8732C342.512 92.8732 342.135 92.9783 341.862 93.1886C341.589 93.3989 341.398 93.6235 341.287 93.8622L340.332 93.5212C340.502 93.1233 340.73 92.8135 341.014 92.5918C341.301 92.3673 341.614 92.211 341.952 92.1228C342.293 92.0319 342.628 91.9864 342.958 91.9864C343.168 91.9864 343.41 92.012 343.683 92.0632C343.958 92.1115 344.224 92.2124 344.48 92.3658C344.738 92.5193 344.953 92.751 345.124 93.0607C345.294 93.3705 345.379 93.7855 345.379 94.3056V98.6199H344.373V97.7331H344.322C344.254 97.8752 344.14 98.0273 343.981 98.1893C343.822 98.3513 343.61 98.4891 343.346 98.6028C343.081 98.7165 342.759 98.7733 342.378 98.7733ZM342.532 97.8696C342.929 97.8696 343.265 97.7914 343.538 97.6351C343.813 97.4788 344.021 97.277 344.16 97.0297C344.302 96.7825 344.373 96.5224 344.373 96.2496V95.3287C344.331 95.3799 344.237 95.4268 344.092 95.4694C343.95 95.5092 343.785 95.5447 343.597 95.576C343.413 95.6044 343.232 95.63 343.056 95.6527C342.883 95.6726 342.742 95.6897 342.634 95.7039C342.372 95.738 342.128 95.7934 341.901 95.8701C341.676 95.944 341.494 96.0563 341.355 96.2069C341.218 96.3547 341.15 96.5565 341.15 96.8123C341.15 97.1619 341.28 97.4262 341.538 97.6052C341.8 97.7815 342.131 97.8696 342.532 97.8696ZM348.222 89.889V98.6199H347.216V89.889H348.222ZM353.577 98.6199V89.889H354.583V93.1119H354.669C354.743 92.9982 354.845 92.8533 354.976 92.6771C355.109 92.498 355.3 92.3388 355.547 92.1996C355.797 92.0575 356.135 91.9864 356.562 91.9864C357.113 91.9864 357.599 92.1243 358.02 92.4C358.44 92.6756 358.768 93.0664 359.004 93.5723C359.24 94.0782 359.358 94.675 359.358 95.3628C359.358 96.0563 359.24 96.6574 359.004 97.1661C358.768 97.672 358.442 98.0642 358.024 98.3428C357.606 98.6185 357.124 98.7563 356.579 98.7563C356.158 98.7563 355.821 98.6867 355.568 98.5474C355.315 98.4053 355.121 98.2447 354.984 98.0657C354.848 97.8838 354.743 97.7331 354.669 97.6138H354.549V98.6199H353.577ZM354.566 95.3458C354.566 95.8403 354.639 96.2766 354.784 96.6546C354.929 97.0297 355.14 97.3239 355.419 97.537C355.698 97.7474 356.039 97.8525 356.442 97.8525C356.863 97.8525 357.214 97.7417 357.495 97.52C357.779 97.2955 357.993 96.9942 358.135 96.6162C358.28 96.2354 358.352 95.8119 358.352 95.3458C358.352 94.8854 358.281 94.4704 358.139 94.1009C358 93.7286 357.788 93.4345 357.504 93.2185C357.222 92.9996 356.868 92.8902 356.442 92.8902C356.033 92.8902 355.689 92.994 355.41 93.2014C355.132 93.4061 354.922 93.6931 354.78 94.0626C354.637 94.4292 354.566 94.8569 354.566 95.3458ZM365.024 95.9426V92.0717H366.03V98.6199H365.024V97.5115H364.956C364.802 97.844 364.563 98.1268 364.239 98.3598C363.915 98.59 363.506 98.7051 363.012 98.7051C362.602 98.7051 362.239 98.6156 361.92 98.4366C361.602 98.2547 361.352 97.9818 361.17 97.618C360.988 97.2514 360.897 96.7896 360.897 96.2325V92.0717H361.903V96.1643C361.903 96.6418 362.037 97.0226 362.304 97.3068C362.574 97.591 362.918 97.7331 363.336 97.7331C363.586 97.7331 363.84 97.6692 364.099 97.5413C364.36 97.4134 364.579 97.2173 364.755 96.953C364.934 96.6887 365.024 96.3519 365.024 95.9426ZM367.873 98.6199V92.0717H368.879V98.6199H367.873ZM368.384 90.9803C368.188 90.9803 368.019 90.9135 367.877 90.78C367.738 90.6464 367.668 90.4858 367.668 90.2982C367.668 90.1106 367.738 89.9501 367.877 89.8165C368.019 89.6829 368.188 89.6161 368.384 89.6161C368.58 89.6161 368.748 89.6829 368.887 89.8165C369.029 89.9501 369.1 90.1106 369.1 90.2982C369.1 90.4858 369.029 90.6464 368.887 90.78C368.748 90.9135 368.58 90.9803 368.384 90.9803ZM371.728 89.889V98.6199H370.722V89.889H371.728ZM376.043 98.7563C375.497 98.7563 375.016 98.6185 374.598 98.3428C374.18 98.0642 373.853 97.672 373.617 97.1661C373.381 96.6574 373.263 96.0563 373.263 95.3628C373.263 94.675 373.381 94.0782 373.617 93.5723C373.853 93.0664 374.181 92.6756 374.602 92.4C375.023 92.1243 375.509 91.9864 376.06 91.9864C376.486 91.9864 376.823 92.0575 377.07 92.1996C377.321 92.3388 377.511 92.498 377.642 92.6771C377.775 92.8533 377.879 92.9982 377.953 93.1119H378.038V89.889H379.044V98.6199H378.072V97.6138H377.953C377.879 97.7331 377.774 97.8838 377.637 98.0657C377.501 98.2447 377.306 98.4053 377.053 98.5474C376.8 98.6867 376.464 98.7563 376.043 98.7563ZM376.179 97.8525C376.583 97.8525 376.924 97.7474 377.203 97.537C377.481 97.3239 377.693 97.0297 377.838 96.6546C377.983 96.2766 378.055 95.8403 378.055 95.3458C378.055 94.8569 377.984 94.4292 377.842 94.0626C377.7 93.6931 377.49 93.4061 377.211 93.2014C376.933 92.994 376.589 92.8902 376.179 92.8902C375.753 92.8902 375.398 92.9996 375.114 93.2185C374.832 93.4345 374.621 93.7286 374.478 94.1009C374.339 94.4704 374.27 94.8854 374.27 95.3458C374.27 95.8119 374.341 96.2354 374.483 96.6162C374.628 96.9942 374.841 97.2955 375.122 97.52C375.406 97.7417 375.759 97.8525 376.179 97.8525ZM381.027 98.6199V92.0717H382.033V98.6199H381.027ZM381.538 90.9803C381.342 90.9803 381.173 90.9135 381.031 90.78C380.892 90.6464 380.822 90.4858 380.822 90.2982C380.822 90.1106 380.892 89.9501 381.031 89.8165C381.173 89.6829 381.342 89.6161 381.538 89.6161C381.734 89.6161 381.902 89.6829 382.041 89.8165C382.183 89.9501 382.254 90.1106 382.254 90.2982C382.254 90.4858 382.183 90.6464 382.041 90.78C381.902 90.9135 381.734 90.9803 381.538 90.9803ZM384.882 94.6807V98.6199H383.875V92.0717H384.847V93.0948H384.933C385.086 92.7623 385.319 92.4952 385.632 92.2934C385.945 92.0887 386.348 91.9864 386.843 91.9864C387.286 91.9864 387.674 92.0774 388.006 92.2593C388.339 92.4383 388.598 92.7112 388.782 93.0778C388.967 93.4416 389.059 93.902 389.059 94.459V98.6199H388.053V94.5273C388.053 94.0128 387.92 93.6121 387.653 93.3251C387.385 93.0352 387.019 92.8902 386.553 92.8902C386.232 92.8902 385.945 92.9598 385.692 93.0991C385.441 93.2384 385.244 93.4416 385.099 93.7087C384.954 93.9759 384.882 94.2999 384.882 94.6807ZM393.541 101.212C393.055 101.212 392.637 101.149 392.288 101.024C391.938 100.902 391.647 100.74 391.414 100.538C391.184 100.339 391 100.126 390.864 99.8988L391.665 99.3361C391.756 99.4554 391.871 99.5919 392.011 99.7453C392.15 99.9017 392.34 100.037 392.582 100.15C392.826 100.267 393.146 100.325 393.541 100.325C394.07 100.325 394.506 100.197 394.85 99.9414C395.194 99.6857 395.366 99.2849 395.366 98.7392V97.4091H395.28C395.207 97.5285 395.101 97.6763 394.965 97.8525C394.831 98.0259 394.638 98.1808 394.385 98.3172C394.135 98.4508 393.797 98.5176 393.371 98.5176C392.842 98.5176 392.367 98.3925 391.947 98.1424C391.529 97.8923 391.198 97.5285 390.953 97.051C390.712 96.5736 390.591 95.9938 390.591 95.3117C390.591 94.6409 390.709 94.0569 390.945 93.5595C391.181 93.0593 391.509 92.6728 391.93 92.4C392.35 92.1243 392.836 91.9864 393.388 91.9864C393.814 91.9864 394.152 92.0575 394.402 92.1996C394.655 92.3388 394.848 92.498 394.982 92.6771C395.118 92.8533 395.224 92.9982 395.297 93.1119H395.4V92.0717H396.372V98.8075C396.372 99.3702 396.244 99.8278 395.988 100.18C395.735 100.535 395.394 100.795 394.965 100.96C394.539 101.128 394.064 101.212 393.541 101.212ZM393.507 97.6138C393.911 97.6138 394.252 97.5214 394.53 97.3367C394.809 97.1519 395.02 96.8862 395.165 96.5395C395.31 96.1927 395.383 95.7778 395.383 95.2946C395.383 94.8228 395.312 94.4065 395.17 94.0455C395.027 93.6846 394.817 93.4018 394.539 93.1972C394.26 92.9925 393.916 92.8902 393.507 92.8902C393.081 92.8902 392.725 92.9982 392.441 93.2142C392.16 93.4302 391.948 93.7201 391.806 94.0839C391.667 94.4477 391.597 94.8513 391.597 95.2946C391.597 95.7494 391.668 96.1515 391.81 96.5011C391.955 96.8478 392.168 97.1207 392.45 97.3196C392.734 97.5157 393.086 97.6138 393.507 97.6138ZM401.726 98.6199V89.889H402.732V93.1119H402.818C402.892 92.9982 402.994 92.8533 403.125 92.6771C403.258 92.498 403.449 92.3388 403.696 92.1996C403.946 92.0575 404.284 91.9864 404.71 91.9864C405.262 91.9864 405.748 92.1243 406.168 92.4C406.589 92.6756 406.917 93.0664 407.153 93.5723C407.389 94.0782 407.507 94.675 407.507 95.3628C407.507 96.0563 407.389 96.6574 407.153 97.1661C406.917 97.672 406.591 98.0642 406.173 98.3428C405.755 98.6185 405.273 98.7563 404.728 98.7563C404.307 98.7563 403.97 98.6867 403.717 98.5474C403.464 98.4053 403.27 98.2447 403.133 98.0657C402.997 97.8838 402.892 97.7331 402.818 97.6138H402.698V98.6199H401.726ZM402.715 95.3458C402.715 95.8403 402.788 96.2766 402.933 96.6546C403.078 97.0297 403.289 97.3239 403.568 97.537C403.846 97.7474 404.188 97.8525 404.591 97.8525C405.012 97.8525 405.363 97.7417 405.644 97.52C405.928 97.2955 406.141 96.9942 406.284 96.6162C406.429 96.2354 406.501 95.8119 406.501 95.3458C406.501 94.8854 406.43 94.4704 406.288 94.1009C406.149 93.7286 405.937 93.4345 405.653 93.2185C405.371 92.9996 405.017 92.8902 404.591 92.8902C404.182 92.8902 403.838 92.994 403.559 93.2014C403.281 93.4061 403.071 93.6931 402.929 94.0626C402.786 94.4292 402.715 94.8569 402.715 95.3458ZM410.052 89.889V98.6199H409.046V89.889H410.052ZM414.555 98.7563C413.964 98.7563 413.445 98.6156 412.999 98.3342C412.556 98.0529 412.209 97.6592 411.959 97.1534C411.712 96.6475 411.588 96.0563 411.588 95.3799C411.588 94.6978 411.712 94.1024 411.959 93.5936C412.209 93.0849 412.556 92.6898 412.999 92.4085C413.445 92.1271 413.964 91.9864 414.555 91.9864C415.146 91.9864 415.664 92.1271 416.107 92.4085C416.553 92.6898 416.9 93.0849 417.147 93.5936C417.397 94.1024 417.522 94.6978 417.522 95.3799C417.522 96.0563 417.397 96.6475 417.147 97.1534C416.9 97.6592 416.553 98.0529 416.107 98.3342C415.664 98.6156 415.146 98.7563 414.555 98.7563ZM414.555 97.8525C415.004 97.8525 415.374 97.7374 415.664 97.5072C415.953 97.277 416.168 96.9743 416.307 96.5991C416.447 96.224 416.516 95.8176 416.516 95.3799C416.516 94.9422 416.447 94.5344 416.307 94.1564C416.168 93.7784 415.953 93.4728 415.664 93.2398C415.374 93.0067 415.004 92.8902 414.555 92.8902C414.106 92.8902 413.737 93.0067 413.447 93.2398C413.157 93.4728 412.942 93.7784 412.803 94.1564C412.664 94.5344 412.594 94.9422 412.594 95.3799C412.594 95.8176 412.664 96.224 412.803 96.5991C412.942 96.9743 413.157 97.277 413.447 97.5072C413.737 97.7374 414.106 97.8525 414.555 97.8525ZM421.718 98.7563C421.104 98.7563 420.576 98.6113 420.132 98.3215C419.689 98.0316 419.348 97.6322 419.109 97.1235C418.871 96.6148 418.751 96.0336 418.751 95.3799C418.751 94.7148 418.873 94.1279 419.118 93.6192C419.365 93.1076 419.709 92.7083 420.149 92.4213C420.593 92.1314 421.11 91.9864 421.701 91.9864C422.162 91.9864 422.577 92.0717 422.946 92.2422C423.316 92.4127 423.618 92.6515 423.854 92.9584C424.09 93.2654 424.236 93.6235 424.293 94.0327H423.287C423.21 93.7343 423.04 93.47 422.776 93.2398C422.514 93.0067 422.162 92.8902 421.718 92.8902C421.326 92.8902 420.982 92.9925 420.687 93.1972C420.394 93.3989 420.165 93.6846 420 94.0541C419.838 94.4207 419.757 94.8513 419.757 95.3458C419.757 95.8517 419.837 96.2922 419.996 96.6674C420.158 97.0425 420.385 97.3338 420.678 97.5413C420.974 97.7488 421.32 97.8525 421.718 97.8525C421.98 97.8525 422.217 97.807 422.43 97.7161C422.643 97.6251 422.824 97.4944 422.972 97.3239C423.119 97.1534 423.225 96.9487 423.287 96.71H424.293C424.236 97.0965 424.096 97.4447 423.871 97.7545C423.649 98.0614 423.355 98.3058 422.989 98.4877C422.625 98.6668 422.201 98.7563 421.718 98.7563ZM426.702 96.2325L426.685 94.9877H426.889L429.754 92.0717H430.999L427.947 95.1582H427.861L426.702 96.2325ZM425.764 98.6199V89.889H426.77V98.6199H425.764ZM429.925 98.6199L427.367 95.3799L428.083 94.6807L431.204 98.6199H429.925ZM436.932 93.5382L436.029 93.794C435.972 93.6434 435.888 93.497 435.777 93.3549C435.669 93.2099 435.521 93.0906 435.334 92.9968C435.146 92.903 434.906 92.8561 434.613 92.8561C434.212 92.8561 433.879 92.9485 433.611 93.1332C433.347 93.3151 433.215 93.5467 433.215 93.8281C433.215 94.0782 433.306 94.2757 433.488 94.4207C433.67 94.5656 433.954 94.6864 434.34 94.783L435.312 95.0218C435.898 95.1639 436.334 95.3813 436.621 95.674C436.908 95.9639 437.052 96.3377 437.052 96.7952C437.052 97.1704 436.944 97.5058 436.728 97.8014C436.515 98.0969 436.216 98.33 435.832 98.5005C435.449 98.671 435.003 98.7563 434.494 98.7563C433.826 98.7563 433.273 98.6113 432.835 98.3215C432.398 98.0316 432.121 97.6081 432.004 97.051L432.959 96.8123C433.05 97.1647 433.222 97.429 433.475 97.6052C433.731 97.7815 434.065 97.8696 434.477 97.8696C434.946 97.8696 435.318 97.7701 435.594 97.5711C435.872 97.3694 436.012 97.1278 436.012 96.8464C436.012 96.619 435.932 96.4286 435.773 96.2751C435.614 96.1188 435.369 96.0023 435.04 95.9256L433.948 95.6698C433.348 95.5277 432.908 95.3074 432.627 95.009C432.348 94.7077 432.209 94.3312 432.209 93.8793C432.209 93.5098 432.313 93.1829 432.52 92.8987C432.73 92.6145 433.016 92.3914 433.377 92.2294C433.741 92.0674 434.153 91.9864 434.613 91.9864C435.261 91.9864 435.77 92.1285 436.139 92.4127C436.512 92.697 436.776 93.0721 436.932 93.5382ZM444.859 92.0717V92.9243H441.329V92.0717H444.859ZM442.386 98.6199V91.1679C442.386 90.7927 442.474 90.4801 442.65 90.23C442.827 89.9799 443.055 89.7923 443.337 89.6673C443.618 89.5422 443.915 89.4797 444.228 89.4797C444.475 89.4797 444.677 89.4996 444.833 89.5394C444.989 89.5792 445.106 89.6161 445.183 89.6502L444.893 90.5199C444.842 90.5029 444.77 90.4815 444.68 90.456C444.591 90.4304 444.475 90.4176 444.33 90.4176C443.997 90.4176 443.757 90.5014 443.609 90.6691C443.465 90.8368 443.392 91.0826 443.392 91.4066V98.6199H442.386ZM448.659 98.7563C448.068 98.7563 447.549 98.6156 447.103 98.3342C446.66 98.0529 446.313 97.6592 446.063 97.1534C445.816 96.6475 445.692 96.0563 445.692 95.3799C445.692 94.6978 445.816 94.1024 446.063 93.5936C446.313 93.0849 446.66 92.6898 447.103 92.4085C447.549 92.1271 448.068 91.9864 448.659 91.9864C449.25 91.9864 449.768 92.1271 450.211 92.4085C450.657 92.6898 451.004 93.0849 451.251 93.5936C451.501 94.1024 451.626 94.6978 451.626 95.3799C451.626 96.0563 451.501 96.6475 451.251 97.1534C451.004 97.6592 450.657 98.0529 450.211 98.3342C449.768 98.6156 449.25 98.7563 448.659 98.7563ZM448.659 97.8525C449.108 97.8525 449.478 97.7374 449.768 97.5072C450.058 97.277 450.272 96.9743 450.411 96.5991C450.551 96.224 450.62 95.8176 450.62 95.3799C450.62 94.9422 450.551 94.5344 450.411 94.1564C450.272 93.7784 450.058 93.4728 449.768 93.2398C449.478 93.0067 449.108 92.8902 448.659 92.8902C448.21 92.8902 447.841 93.0067 447.551 93.2398C447.261 93.4728 447.046 93.7784 446.907 94.1564C446.768 94.5344 446.698 94.9422 446.698 95.3799C446.698 95.8176 446.768 96.224 446.907 96.5991C447.046 96.9743 447.261 97.277 447.551 97.5072C447.841 97.7374 448.21 97.8525 448.659 97.8525ZM453.162 98.6199V92.0717H454.134V93.0607H454.202C454.322 92.7367 454.538 92.4738 454.85 92.2721C455.163 92.0703 455.515 91.9694 455.908 91.9694C455.981 91.9694 456.074 91.9708 456.185 91.9736C456.296 91.9765 456.379 91.9807 456.436 91.9864V93.0096C456.402 93.0011 456.324 92.9883 456.202 92.9712C456.082 92.9513 455.956 92.9414 455.822 92.9414C455.504 92.9414 455.22 93.0082 454.97 93.1417C454.722 93.2725 454.526 93.4544 454.381 93.6874C454.239 93.9176 454.168 94.1805 454.168 94.4761V98.6199H453.162ZM466.871 89.889H467.929V95.6698C467.929 96.2666 467.788 96.7995 467.507 97.2685C467.228 97.7346 466.834 98.1026 466.326 98.3726C465.817 98.6398 465.22 98.7733 464.535 98.7733C463.85 98.7733 463.253 98.6398 462.745 98.3726C462.236 98.1026 461.841 97.7346 461.559 97.2685C461.281 96.7995 461.142 96.2666 461.142 95.6698V89.889H462.199V95.5845C462.199 96.0108 462.293 96.3903 462.48 96.7228C462.668 97.0525 462.935 97.3125 463.282 97.5029C463.631 97.6905 464.049 97.7843 464.535 97.7843C465.021 97.7843 465.439 97.6905 465.788 97.5029C466.138 97.3125 466.405 97.0525 466.59 96.7228C466.778 96.3903 466.871 96.0108 466.871 95.5845V89.889ZM471.097 89.889V98.6199H470.04V89.889H471.097Z" fill="white"/>
</g>
</g>
<defs>
<linearGradient id="paint0_linear_323_29194" x1="81.9157" y1="25.4377" x2="76.6485" y2="16.1243" gradientUnits="userSpaceOnUse">
<stop stop-color="white" stop-opacity="0.4"/>
<stop offset="0.9228" stop-color="white"/>
</linearGradient>
<clipPath id="clip0_323_29194">
<rect width="686" height="120" fill="white"/>
</clipPath>
<clipPath id="clip1_323_29194">
<rect width="686" height="411.6" fill="white" transform="translate(0 -75)"/>
</clipPath>
</defs>
</svg>
