<svg width="686" height="160" viewBox="0 0 686 160" fill="none" xmlns="http://www.w3.org/2000/svg">
<g clip-path="url(#clip0_323_29194)">
<g clip-path="url(#clip1_323_29194)">
<rect width="686" height="411.6" transform="translate(0 -70)" fill="#FE2223"/>
<g opacity="0.2">
<path d="M466.593 335.151C408.824 245.67 412.633 146.868 450.723 72.3002C488.812 -2.26788 518.015 -58.8171 519.92 -63.1669C521.824 -67.5167 526.268 -69.9999 530.711 -69.9999H674.181C683.069 -69.9999 689.418 -60.6801 684.975 -52.6019C684.975 -52.6019 491.986 325.208 486.908 334.529C483.099 343.85 472.307 343.851 466.593 335.151Z" fill="white"/>
</g>
<path d="M79.1007 31.9869C78.7835 32.3287 78.3078 32.2977 78.0858 31.8938L72.9474 21.796C72.7571 21.3921 73.0426 20.926 73.4866 20.926H80.6549C80.8769 20.926 81.0989 21.0503 81.1941 21.2678C82.7483 24.4058 81.7968 29.1596 79.1007 31.9869Z" fill="url(#paint0_linear_323_29194)"/>
<path d="M82.8757 41.1524C79.9893 36.6783 80.1797 31.7383 82.0827 28.0099C83.9858 24.2815 85.4449 21.454 85.5401 21.2365C85.6352 21.019 85.8572 20.8949 86.0792 20.8949H93.2475C93.6915 20.8949 94.0088 21.3608 93.7868 21.7648C93.7868 21.7648 84.1444 40.6553 83.8907 41.1213C83.7003 41.5874 83.1612 41.5874 82.8757 41.1524Z" fill="white"/>
<path d="M101.07 23.2127H105.601L108.525 29.2931H108.642L111.565 23.2127H116.096L110.6 33.4734V38.1799H106.566V33.4734L101.07 23.2127ZM121.513 23.2127L124.583 33.7658H124.7L127.769 23.2127H132.359L127.418 38.1799H121.864L116.924 23.2127H121.513ZM133.8 38.1799V23.2127H144.587V26.4867H137.864V29.0592H144.032V32.3333H137.864V34.9058H144.558V38.1799H133.8ZM154.671 27.8899C154.632 27.4027 154.449 27.0227 154.123 26.7498C153.801 26.477 153.311 26.3406 152.654 26.3406C152.235 26.3406 151.891 26.3917 151.623 26.4941C151.36 26.5915 151.165 26.7255 151.039 26.896C150.912 27.0665 150.846 27.2614 150.841 27.4807C150.831 27.6609 150.863 27.8242 150.936 27.9703C151.014 28.1116 151.136 28.2407 151.302 28.3577C151.467 28.4697 151.679 28.572 151.937 28.6646C152.196 28.7572 152.503 28.84 152.858 28.9131L154.086 29.1762C154.914 29.3516 155.623 29.583 156.213 29.8705C156.802 30.1579 157.285 30.4965 157.66 30.8863C158.035 31.2712 158.31 31.7048 158.486 32.1872C158.666 32.6695 158.758 33.1957 158.763 33.7658C158.758 34.7499 158.512 35.5831 158.025 36.2652C157.538 36.9473 156.841 37.4662 155.935 37.8218C155.034 38.1775 153.95 38.3553 152.683 38.3553C151.382 38.3553 150.247 38.1629 149.277 37.778C148.313 37.3931 147.562 36.8011 147.026 36.0021C146.495 35.1982 146.227 34.1701 146.222 32.918H150.081C150.106 33.376 150.22 33.7609 150.425 34.0727C150.629 34.3845 150.917 34.6208 151.287 34.7816C151.662 34.9424 152.108 35.0228 152.624 35.0228C153.058 35.0228 153.421 34.9692 153.713 34.862C154.006 34.7548 154.227 34.6062 154.378 34.4162C154.529 34.2262 154.607 34.0094 154.612 33.7658C154.607 33.5368 154.532 33.337 154.386 33.1665C154.244 32.9911 154.011 32.8352 153.684 32.6988C153.358 32.5575 152.917 32.4259 152.361 32.3041L150.87 31.9825C149.545 31.6951 148.5 31.2152 147.735 30.5428C146.975 29.8656 146.598 28.9423 146.602 27.773C146.598 26.8229 146.851 25.9922 147.362 25.2809C147.879 24.5647 148.593 24.0068 149.504 23.6073C150.42 23.2078 151.47 23.008 152.654 23.008C153.862 23.008 154.907 23.2102 155.789 23.6146C156.671 24.019 157.35 24.589 157.828 25.3247C158.31 26.0556 158.554 26.9106 158.559 27.8899H154.671Z" fill="white"/>
<path d="M172.632 38.1848H168.481V23.2175H172.954C174.357 23.2175 175.558 23.5147 176.557 24.1091C177.556 24.7036 178.321 25.5562 178.852 26.667C179.388 27.773 179.653 29.1007 179.648 30.65C179.643 32.2335 179.366 33.5879 178.815 34.7134C178.265 35.834 177.468 36.6939 176.425 37.2932C175.383 37.8876 174.118 38.1848 172.632 38.1848ZM169.395 37.3371H172.596C173.931 37.3371 175.056 37.0715 175.972 36.5405C176.888 36.0045 177.58 35.2372 178.048 34.2384C178.52 33.2396 178.754 32.0435 178.749 30.65C178.749 29.2761 178.523 28.0994 178.07 27.1201C177.617 26.136 176.956 25.3808 176.089 24.8546C175.227 24.3284 174.17 24.0653 172.917 24.0653H169.395V37.3371ZM187.276 38.4187C186.263 38.4187 185.381 38.1678 184.631 37.6659C183.88 37.1641 183.301 36.4771 182.891 35.605C182.482 34.7329 182.277 33.739 182.277 32.6232C182.277 31.5026 182.482 30.5039 182.891 29.6269C183.306 28.7499 183.873 28.058 184.594 27.5513C185.315 27.0446 186.139 26.7913 187.064 26.7913C187.693 26.7913 188.287 26.9179 188.848 27.1713C189.413 27.4198 189.91 27.7803 190.338 28.2529C190.772 28.7255 191.111 29.2956 191.354 29.963C191.603 30.6305 191.727 31.3808 191.727 32.214V32.7694H182.84V31.9582H190.835C190.835 31.1445 190.67 30.4113 190.338 29.7584C190.007 29.1055 189.556 28.5867 188.986 28.2018C188.416 27.8169 187.776 27.6244 187.064 27.6244C186.319 27.6244 185.654 27.8339 185.069 28.2529C184.489 28.6671 184.029 29.2273 183.688 29.9338C183.352 30.6403 183.176 31.4296 183.162 32.3017V32.6671C183.162 33.6025 183.325 34.443 183.651 35.1884C183.983 35.929 184.455 36.5161 185.069 36.9497C185.683 37.3785 186.419 37.5928 187.276 37.5928C187.89 37.5928 188.414 37.4905 188.848 37.2859C189.286 37.0764 189.644 36.823 189.922 36.5258C190.2 36.2286 190.409 35.9412 190.55 35.6635L191.362 35.9923C191.191 36.3675 190.926 36.7427 190.565 37.1178C190.209 37.4881 189.756 37.7975 189.206 38.046C188.66 38.2944 188.017 38.4187 187.276 38.4187ZM201.929 29.3784L201.104 29.5976C200.972 29.1884 200.784 28.8351 200.541 28.5379C200.297 28.2407 199.99 28.0117 199.62 27.851C199.255 27.6853 198.816 27.6025 198.304 27.6025C197.481 27.6025 196.806 27.8071 196.28 28.2164C195.759 28.6256 195.498 29.1591 195.498 29.8169C195.498 30.3528 195.676 30.7962 196.032 31.147C196.387 31.4929 196.93 31.756 197.661 31.9363L199.386 32.3675C200.273 32.5867 200.94 32.9424 201.389 33.4345C201.837 33.9217 202.061 34.5283 202.061 35.2542C202.061 35.873 201.893 36.4211 201.557 36.8986C201.22 37.376 200.755 37.7488 200.161 38.0167C199.571 38.2847 198.884 38.4187 198.1 38.4187C197.052 38.4187 196.192 38.1751 195.52 37.6879C194.848 37.1958 194.416 36.4917 194.226 35.5758L195.082 35.3565C195.242 36.0873 195.576 36.6452 196.083 37.0301C196.594 37.4101 197.264 37.6002 198.093 37.6002C199.008 37.6002 199.747 37.3833 200.307 36.9497C200.872 36.5161 201.155 35.9607 201.155 35.2834C201.155 34.767 200.989 34.3309 200.658 33.9753C200.326 33.6196 199.825 33.3589 199.152 33.1933L197.362 32.7548C196.446 32.5307 195.759 32.1726 195.301 31.6805C194.843 31.1835 194.614 30.5721 194.614 29.8461C194.614 29.242 194.772 28.7109 195.089 28.2529C195.406 27.7949 195.842 27.4368 196.397 27.1786C196.952 26.9204 197.588 26.7913 198.304 26.7913C199.255 26.7913 200.029 27.0154 200.628 27.4636C201.228 27.9119 201.661 28.5501 201.929 29.3784ZM205.191 38.1848V26.9594H206.075V38.1848H205.191ZM205.636 24.9715C205.442 24.9715 205.271 24.9033 205.125 24.7669C204.984 24.6305 204.913 24.4648 204.913 24.2699C204.913 24.075 204.984 23.9094 205.125 23.773C205.266 23.6365 205.437 23.5683 205.636 23.5683C205.831 23.5683 205.999 23.6365 206.141 23.773C206.287 23.9094 206.36 24.075 206.36 24.2699C206.36 24.4648 206.289 24.6305 206.148 24.7669C206.007 24.9033 205.836 24.9715 205.636 24.9715ZM213.858 42.6282C213.161 42.6282 212.535 42.5357 211.98 42.3505C211.425 42.1702 210.952 41.912 210.562 41.5758C210.177 41.2397 209.883 40.8401 209.678 40.3773L210.423 39.9388C210.589 40.2993 210.825 40.6209 211.132 40.9035C211.439 41.1861 211.819 41.4077 212.272 41.5685C212.73 41.7293 213.259 41.8097 213.858 41.8097C214.94 41.8097 215.795 41.5296 216.423 40.9693C217.057 40.4138 217.373 39.5612 217.373 38.4114V35.6196H217.286C217.115 36.1068 216.862 36.5405 216.526 36.9205C216.194 37.2956 215.788 37.5904 215.305 37.8048C214.823 38.0192 214.275 38.1263 213.661 38.1263C212.774 38.1263 211.995 37.8974 211.322 37.4394C210.65 36.9814 210.126 36.3383 209.751 35.51C209.376 34.6769 209.188 33.6976 209.188 32.5721C209.188 31.4466 209.371 30.4503 209.736 29.583C210.107 28.7109 210.628 28.0288 211.3 27.5367C211.973 27.0398 212.762 26.7913 213.668 26.7913C214.316 26.7913 214.876 26.9155 215.349 27.164C215.827 27.4076 216.226 27.7316 216.548 28.136C216.869 28.5404 217.118 28.9837 217.293 29.4661H217.395V26.9594H218.258V38.4479C218.258 39.3834 218.073 40.1605 217.702 40.7792C217.337 41.398 216.823 41.8609 216.16 42.1678C215.503 42.4748 214.735 42.6282 213.858 42.6282ZM213.741 37.3005C214.492 37.3005 215.137 37.1105 215.678 36.7305C216.224 36.3456 216.643 35.7999 216.935 35.0934C217.232 34.3821 217.381 33.5392 217.381 32.5648C217.381 31.6196 217.237 30.7743 216.95 30.0288C216.662 29.2834 216.246 28.6963 215.7 28.2675C215.154 27.8388 214.501 27.6244 213.741 27.6244C212.967 27.6244 212.306 27.8437 211.761 28.2822C211.215 28.7158 210.796 29.3053 210.504 30.0507C210.216 30.7962 210.073 31.6342 210.073 32.5648C210.073 33.5002 210.219 34.3236 210.511 35.035C210.803 35.7414 211.222 36.2969 211.768 36.7012C212.314 37.1008 212.971 37.3005 213.741 37.3005ZM222.9 30.9058V38.1848H222.009V26.9594H222.878V28.7353H222.966C223.229 28.1555 223.651 27.6902 224.23 27.3394C224.81 26.9886 225.5 26.8132 226.299 26.8132C227.054 26.8132 227.716 26.974 228.286 27.2955C228.861 27.6171 229.31 28.0751 229.631 28.6695C229.958 29.259 230.121 29.963 230.121 30.7816V38.1848H229.229V30.8181C229.229 29.8632 228.944 29.0958 228.374 28.516C227.809 27.9314 227.061 27.639 226.131 27.639C225.507 27.639 224.952 27.7754 224.464 28.0483C223.977 28.3211 223.595 28.7036 223.317 29.1957C223.039 29.6829 222.9 30.2529 222.9 30.9058ZM247.997 26.9594C247.919 26.0288 247.539 25.276 246.857 24.7011C246.18 24.1262 245.303 23.8387 244.226 23.8387C243.5 23.8387 242.854 23.9727 242.289 24.2407C241.724 24.5087 241.281 24.8741 240.959 25.3369C240.637 25.7998 240.477 26.3309 240.477 26.9301C240.477 27.315 240.55 27.6634 240.696 27.9752C240.847 28.2822 241.059 28.5574 241.332 28.801C241.605 29.0398 241.929 29.2493 242.304 29.4295C242.679 29.6098 243.093 29.7682 243.546 29.9046L245.183 30.3869C245.743 30.5574 246.26 30.7548 246.732 30.9789C247.21 31.203 247.624 31.471 247.975 31.7828C248.331 32.0897 248.606 32.4503 248.801 32.8644C249 33.2785 249.1 33.756 249.1 34.2968C249.1 35.0861 248.896 35.7926 248.486 36.4162C248.082 37.0399 247.505 37.5319 246.754 37.8925C246.009 38.2482 245.13 38.426 244.116 38.426C243.151 38.426 242.311 38.2628 241.595 37.9363C240.883 37.6099 240.321 37.1568 239.907 36.577C239.492 35.9923 239.259 35.32 239.205 34.5599H240.14C240.189 35.1787 240.387 35.7146 240.732 36.1677C241.083 36.616 241.549 36.9619 242.128 37.2055C242.708 37.4491 243.371 37.5709 244.116 37.5709C244.92 37.5709 245.629 37.4345 246.243 37.1617C246.857 36.8839 247.337 36.499 247.683 36.007C248.028 35.5149 248.201 34.9424 248.201 34.2895C248.201 33.7633 248.077 33.3127 247.829 32.9375C247.58 32.5623 247.212 32.2383 246.725 31.9655C246.243 31.6927 245.644 31.4491 244.927 31.2347L243.181 30.7085C242.011 30.3528 241.117 29.868 240.499 29.2541C239.885 28.6403 239.578 27.8753 239.578 26.9594C239.578 26.1896 239.782 25.5075 240.192 24.9131C240.601 24.3138 241.156 23.8436 241.858 23.5026C242.564 23.1615 243.361 22.991 244.248 22.991C245.139 22.991 245.926 23.1639 246.608 23.5099C247.29 23.8509 247.831 24.3211 248.231 24.9204C248.63 25.5148 248.852 26.1944 248.896 26.9594H247.997ZM253.113 42.3944C252.888 42.3944 252.667 42.37 252.448 42.3213C252.228 42.2726 252.031 42.2092 251.856 42.1313L252.119 41.3493C252.577 41.5247 252.991 41.588 253.361 41.5393C253.736 41.4906 254.068 41.32 254.355 41.0277C254.642 40.7354 254.886 40.3066 255.086 39.7415L255.597 38.3383L251.483 26.9594H252.44L256.007 37.0374H256.08L259.646 26.9594H260.604L255.868 40.0923C255.688 40.599 255.461 41.0228 255.188 41.3639C254.915 41.7049 254.603 41.9607 254.253 42.1313C253.907 42.3067 253.527 42.3944 253.113 42.3944ZM270.523 29.3784L269.697 29.5976C269.565 29.1884 269.378 28.8351 269.134 28.5379C268.89 28.2407 268.584 28.0117 268.213 27.851C267.848 27.6853 267.409 27.6025 266.898 27.6025C266.074 27.6025 265.4 27.8071 264.873 28.2164C264.352 28.6256 264.091 29.1591 264.091 29.8169C264.091 30.3528 264.269 30.7962 264.625 31.147C264.981 31.4929 265.524 31.756 266.255 31.9363L267.979 32.3675C268.866 32.5867 269.534 32.9424 269.982 33.4345C270.43 33.9217 270.654 34.5283 270.654 35.2542C270.654 35.873 270.486 36.4211 270.15 36.8986C269.814 37.376 269.348 37.7488 268.754 38.0167C268.165 38.2847 267.478 38.4187 266.693 38.4187C265.646 38.4187 264.786 38.1751 264.113 37.6879C263.441 37.1958 263.01 36.4917 262.82 35.5758L263.675 35.3565C263.836 36.0873 264.169 36.6452 264.676 37.0301C265.188 37.4101 265.858 37.6002 266.686 37.6002C267.602 37.6002 268.34 37.3833 268.9 36.9497C269.465 36.5161 269.748 35.9607 269.748 35.2834C269.748 34.767 269.582 34.3309 269.251 33.9753C268.92 33.6196 268.418 33.3589 267.746 33.1933L265.955 32.7548C265.039 32.5307 264.352 32.1726 263.894 31.6805C263.436 31.1835 263.207 30.5721 263.207 29.8461C263.207 29.242 263.365 28.7109 263.682 28.2529C263.999 27.7949 264.435 27.4368 264.99 27.1786C265.546 26.9204 266.182 26.7913 266.898 26.7913C267.848 26.7913 268.622 27.0154 269.222 27.4636C269.821 27.9119 270.255 28.5501 270.523 29.3784ZM277.708 26.9594V27.756H272.805V26.9594H277.708ZM274.464 24.2699H275.348V35.5319C275.348 35.9899 275.436 36.3651 275.611 36.6574C275.791 36.9448 276.025 37.1592 276.313 37.3005C276.605 37.4369 276.917 37.5051 277.248 37.5051C277.409 37.5051 277.548 37.493 277.665 37.4686C277.786 37.4442 277.901 37.4126 278.008 37.3736L278.227 38.1848C278.091 38.2335 277.94 38.2749 277.774 38.3091C277.609 38.348 277.414 38.3675 277.19 38.3675C276.722 38.3675 276.278 38.2628 275.859 38.0533C275.445 37.8438 275.109 37.5393 274.851 37.1397C274.593 36.7402 274.464 36.2579 274.464 35.6927V24.2699ZM285.272 38.4187C284.259 38.4187 283.377 38.1678 282.627 37.6659C281.877 37.1641 281.297 36.4771 280.888 35.605C280.478 34.7329 280.274 33.739 280.274 32.6232C280.274 31.5026 280.478 30.5039 280.888 29.6269C281.302 28.7499 281.869 28.058 282.59 27.5513C283.311 27.0446 284.135 26.7913 285.061 26.7913C285.689 26.7913 286.283 26.9179 286.844 27.1713C287.409 27.4198 287.906 27.7803 288.335 28.2529C288.768 28.7255 289.107 29.2956 289.35 29.963C289.599 30.6305 289.723 31.3808 289.723 32.214V32.7694H280.836V31.9582H288.832C288.832 31.1445 288.666 30.4113 288.335 29.7584C288.003 29.1055 287.553 28.5867 286.983 28.2018C286.413 27.8169 285.772 27.6244 285.061 27.6244C284.315 27.6244 283.65 27.8339 283.065 28.2529C282.486 28.6671 282.025 29.2273 281.684 29.9338C281.348 30.6403 281.173 31.4296 281.158 32.3017V32.6671C281.158 33.6025 281.321 34.443 281.648 35.1884C281.979 35.929 282.452 36.5161 283.065 36.9497C283.679 37.3785 284.415 37.5928 285.272 37.5928C285.886 37.5928 286.41 37.4905 286.844 37.2859C287.282 37.0764 287.64 36.823 287.918 36.5258C288.196 36.2286 288.405 35.9412 288.547 35.6635L289.358 35.9923C289.187 36.3675 288.922 36.7427 288.561 37.1178C288.206 37.4881 287.752 37.7975 287.202 38.046C286.656 38.2944 286.013 38.4187 285.272 38.4187ZM292.793 38.1848V26.9594H293.662V28.6549H293.75C293.964 28.0897 294.335 27.6415 294.861 27.3102C295.387 26.9788 296.02 26.8132 296.761 26.8132C297.575 26.8132 298.23 27.0081 298.727 27.3979C299.229 27.7876 299.589 28.3163 299.809 28.9837H299.889C300.108 28.326 300.5 27.7998 301.066 27.4052C301.636 27.0105 302.337 26.8132 303.17 26.8132C304.257 26.8132 305.085 27.1567 305.655 27.8437C306.23 28.5258 306.518 29.4612 306.518 30.65V38.1848H305.626V30.65C305.626 29.7146 305.402 28.9789 304.954 28.4429C304.505 27.907 303.848 27.639 302.98 27.639C302.055 27.639 301.343 27.9289 300.846 28.5087C300.349 29.0885 300.101 29.8266 300.101 30.7231V38.1848H299.209V30.5916C299.209 29.7194 298.99 29.0105 298.552 28.4649C298.113 27.9143 297.455 27.639 296.578 27.639C295.984 27.639 295.47 27.7754 295.036 28.0483C294.608 28.3211 294.274 28.6963 294.035 29.1738C293.801 29.6512 293.684 30.1993 293.684 30.8181V38.1848H292.793Z" fill="white"/>
<path d="M84.2397 91.9099H75.7639V65.7281H84.5082C87.0735 65.7281 89.2767 66.2522 91.1176 67.3005C92.9585 68.3403 94.369 69.836 95.3491 71.7878C96.3377 73.7309 96.8321 76.0619 96.8321 78.7807C96.8321 81.5079 96.3335 83.8517 95.3363 85.8119C94.3477 87.7721 92.9159 89.2807 91.0409 90.3375C89.1659 91.3858 86.8988 91.9099 84.2397 91.9099ZM79.7142 88.4582H84.0224C86.0167 88.4582 87.6744 88.0832 88.9954 87.3332C90.3164 86.5747 91.3051 85.4795 91.9613 84.0477C92.6176 82.6074 92.9457 80.8517 92.9457 78.7807C92.9457 76.7267 92.6176 74.9838 91.9613 73.552C91.3136 72.1201 90.3463 71.0335 89.0593 70.292C87.7724 69.5505 86.1744 69.1798 84.2653 69.1798H79.7142V88.4582ZM109.901 92.3062C107.966 92.3062 106.3 91.8929 104.902 91.0662C103.513 90.2309 102.439 89.0591 101.68 87.5505C100.93 86.0335 100.555 84.2565 100.555 82.2196C100.555 80.2082 100.93 78.4355 101.68 76.9014C102.439 75.3673 103.496 74.1699 104.851 73.3091C106.215 72.4483 107.808 72.0179 109.632 72.0179C110.74 72.0179 111.814 72.2011 112.854 72.5676C113.893 72.9341 114.827 73.5093 115.653 74.2934C116.48 75.0775 117.132 76.096 117.609 77.3488C118.087 78.5932 118.325 80.1059 118.325 81.8872V83.2423H102.716V80.3787H114.58C114.58 79.373 114.375 78.4824 113.966 77.7068C113.557 76.9227 112.982 76.3048 112.24 75.8531C111.507 75.4014 110.646 75.1755 109.658 75.1755C108.584 75.1755 107.646 75.4397 106.845 75.9682C106.053 76.488 105.439 77.1699 105.004 78.0136C104.578 78.8488 104.365 79.7565 104.365 80.7366V82.9738C104.365 84.2863 104.595 85.4028 105.055 86.3233C105.524 87.2437 106.176 87.9468 107.011 88.4326C107.847 88.9099 108.822 89.1485 109.939 89.1485C110.663 89.1485 111.324 89.0463 111.92 88.8417C112.517 88.6287 113.033 88.3133 113.467 87.8957C113.902 87.4781 114.234 86.9625 114.465 86.3488L118.082 87.0008C117.793 88.0662 117.273 88.9994 116.523 89.8005C115.781 90.5932 114.848 91.211 113.723 91.6542C112.607 92.0889 111.332 92.3062 109.901 92.3062ZM137.281 77.0676L133.816 77.6812C133.672 77.238 133.441 76.8162 133.126 76.4156C132.819 76.015 132.402 75.6869 131.873 75.4312C131.345 75.1755 130.684 75.0477 129.892 75.0477C128.809 75.0477 127.906 75.2906 127.181 75.7764C126.457 76.2537 126.095 76.8716 126.095 77.6301C126.095 78.2863 126.338 78.8147 126.824 79.2153C127.309 79.6159 128.093 79.944 129.176 80.1997L132.295 80.9156C134.102 81.3332 135.449 81.9767 136.335 82.846C137.221 83.7153 137.664 84.8446 137.664 86.2338C137.664 87.4099 137.324 88.4582 136.642 89.3787C135.968 90.2906 135.027 91.0065 133.816 91.5264C132.615 92.0463 131.221 92.3062 129.636 92.3062C127.437 92.3062 125.643 91.8375 124.254 90.9C122.865 89.9539 122.012 88.6116 121.697 86.873L125.392 86.3105C125.622 87.2735 126.095 88.0022 126.811 88.4966C127.527 88.9824 128.46 89.2253 129.61 89.2253C130.863 89.2253 131.865 88.9653 132.615 88.4454C133.365 87.917 133.74 87.2735 133.74 86.515C133.74 85.9014 133.51 85.3858 133.049 84.9682C132.598 84.5505 131.903 84.2352 130.966 84.0221L127.642 83.2934C125.809 82.8758 124.454 82.211 123.576 81.2991C122.707 80.3872 122.272 79.2324 122.272 77.8346C122.272 76.6755 122.596 75.6613 123.244 74.792C123.892 73.9227 124.787 73.2451 125.929 72.7593C127.071 72.265 128.379 72.0179 129.853 72.0179C131.976 72.0179 133.646 72.4781 134.865 73.3985C136.083 74.3105 136.889 75.5335 137.281 77.0676ZM141.867 91.9099V72.2735H145.69V91.9099H141.867ZM143.798 69.2437C143.133 69.2437 142.562 69.0221 142.085 68.5789C141.616 68.1272 141.381 67.5903 141.381 66.9681C141.381 66.3375 141.616 65.8005 142.085 65.3574C142.562 64.9056 143.133 64.6798 143.798 64.6798C144.462 64.6798 145.029 64.9056 145.498 65.3574C145.975 65.8005 146.214 66.3375 146.214 66.9681C146.214 67.5903 145.975 68.1272 145.498 68.5789C145.029 69.0221 144.462 69.2437 143.798 69.2437ZM159.065 99.6826C157.505 99.6826 156.163 99.4781 155.038 99.069C153.922 98.6599 153.01 98.1187 152.302 97.4454C151.595 96.7721 151.066 96.0349 150.717 95.2338L154.003 93.8787C154.233 94.2537 154.539 94.65 154.923 95.0676C155.315 95.4937 155.843 95.8559 156.508 96.1542C157.181 96.4525 158.047 96.6017 159.103 96.6017C160.552 96.6017 161.75 96.248 162.696 95.5406C163.642 94.8417 164.115 93.7253 164.115 92.1912V88.3304H163.872C163.642 88.748 163.309 89.2125 162.875 89.7238C162.449 90.2352 161.86 90.6784 161.11 91.0534C160.36 91.4284 159.385 91.6159 158.183 91.6159C156.632 91.6159 155.234 91.2537 153.99 90.5292C152.754 89.7963 151.774 88.7182 151.049 87.2949C150.333 85.863 149.976 84.1031 149.976 82.015C149.976 79.927 150.329 78.1372 151.037 76.6457C151.753 75.1542 152.733 74.0122 153.977 73.2196C155.221 72.4184 156.632 72.0179 158.208 72.0179C159.427 72.0179 160.412 72.2224 161.162 72.6315C161.912 73.0321 162.495 73.5008 162.913 74.0378C163.339 74.5747 163.667 75.0477 163.897 75.4568H164.179V72.2735H167.924V92.3446C167.924 94.0321 167.532 95.417 166.748 96.4994C165.964 97.5818 164.903 98.3829 163.565 98.9028C162.235 99.4227 160.735 99.6826 159.065 99.6826ZM159.027 88.4454C160.126 88.4454 161.055 88.1897 161.814 87.6784C162.581 87.1585 163.16 86.417 163.552 85.4539C163.953 84.4824 164.153 83.319 164.153 81.9639C164.153 80.6429 163.957 79.4795 163.565 78.4738C163.173 77.4682 162.598 76.6841 161.839 76.1216C161.081 75.5505 160.143 75.265 159.027 75.265C157.876 75.265 156.917 75.5633 156.15 76.1599C155.383 76.748 154.804 77.5491 154.412 78.5633C154.028 79.5775 153.836 80.711 153.836 81.9639C153.836 83.2508 154.032 84.3801 154.424 85.3517C154.816 86.3233 155.396 87.0818 156.163 87.6272C156.939 88.1727 157.893 88.4454 159.027 88.4454ZM176.873 80.2508V91.9099H173.051V72.2735H176.72V75.4696H176.963C177.414 74.4298 178.122 73.5946 179.085 72.9639C180.056 72.3332 181.279 72.0179 182.754 72.0179C184.092 72.0179 185.264 72.2991 186.27 72.8616C187.275 73.4156 188.055 74.2423 188.609 75.3417C189.163 76.4412 189.44 77.8005 189.44 79.4199V91.9099H185.618V79.8801C185.618 78.4568 185.247 77.3446 184.505 76.5434C183.764 75.7338 182.745 75.3289 181.45 75.3289C180.564 75.3289 179.775 75.5207 179.085 75.9042C178.403 76.2878 177.862 76.8503 177.461 77.5917C177.069 78.3247 176.873 79.211 176.873 80.2508ZM203.109 69.1287V65.7281H223.372V69.1287H215.203V91.9099H211.266V69.1287H203.109ZM232.967 92.3062C231.126 92.3062 229.519 91.8843 228.147 91.0406C226.775 90.1968 225.71 89.0164 224.951 87.4994C224.192 85.9824 223.813 84.2096 223.813 82.1812C223.813 80.1443 224.192 78.363 224.951 76.8375C225.71 75.3119 226.775 74.1272 228.147 73.2835C229.519 72.4397 231.126 72.0179 232.967 72.0179C234.808 72.0179 236.414 72.4397 237.786 73.2835C239.158 74.1272 240.224 75.3119 240.982 76.8375C241.741 78.363 242.12 80.1443 242.12 82.1812C242.12 84.2096 241.741 85.9824 240.982 87.4994C240.224 89.0164 239.158 90.1968 237.786 91.0406C236.414 91.8843 234.808 92.3062 232.967 92.3062ZM232.979 89.0974C234.173 89.0974 235.161 88.7821 235.945 88.1514C236.729 87.5207 237.309 86.6812 237.684 85.6329C238.067 84.5846 238.259 83.4298 238.259 82.1684C238.259 80.9156 238.067 79.765 237.684 78.7167C237.309 77.6599 236.729 76.8119 235.945 76.1727C235.161 75.5335 234.173 75.2139 232.979 75.2139C231.778 75.2139 230.781 75.5335 229.988 76.1727C229.204 76.8119 228.62 77.6599 228.237 78.7167C227.862 79.765 227.674 80.9156 227.674 82.1684C227.674 83.4298 227.862 84.5846 228.237 85.6329C228.62 86.6812 229.204 87.5207 229.988 88.1514C230.781 88.7821 231.778 89.0974 232.979 89.0974ZM249.902 85.2494L249.877 80.5832H250.542L258.365 72.2735H262.942L254.019 81.7338H253.418L249.902 85.2494ZM246.387 91.9099V65.7281H250.209V91.9099H246.387ZM258.787 91.9099L251.756 82.5775L254.39 79.9057L263.479 91.9099H258.787ZM274.08 92.3062C272.146 92.3062 270.479 91.8929 269.082 91.0662C267.692 90.2309 266.619 89.0591 265.86 87.5505C265.11 86.0335 264.735 84.2565 264.735 82.2196C264.735 80.2082 265.11 78.4355 265.86 76.9014C266.619 75.3673 267.675 74.1699 269.031 73.3091C270.394 72.4483 271.988 72.0179 273.812 72.0179C274.92 72.0179 275.994 72.2011 277.033 72.5676C278.073 72.9341 279.006 73.5093 279.833 74.2934C280.66 75.0775 281.312 76.096 281.789 77.3488C282.266 78.5932 282.505 80.1059 282.505 81.8872V83.2423H266.896V80.3787H278.759C278.759 79.373 278.555 78.4824 278.146 77.7068C277.737 76.9227 277.161 76.3048 276.42 75.8531C275.687 75.4014 274.826 75.1755 273.837 75.1755C272.764 75.1755 271.826 75.4397 271.025 75.9682C270.232 76.488 269.619 77.1699 269.184 78.0136C268.758 78.8488 268.545 79.7565 268.545 80.7366V82.9738C268.545 84.2863 268.775 85.4028 269.235 86.3233C269.704 87.2437 270.356 87.9468 271.191 88.4326C272.026 88.9099 273.002 89.1485 274.119 89.1485C274.843 89.1485 275.504 89.0463 276.1 88.8417C276.697 88.6287 277.212 88.3133 277.647 87.8957C278.082 87.4781 278.414 86.9625 278.644 86.3488L282.262 87.0008C281.972 88.0662 281.452 88.9994 280.702 89.8005C279.961 90.5932 279.028 91.211 277.903 91.6542C276.786 92.0889 275.512 92.3062 274.08 92.3062ZM290.569 80.2508V91.9099H286.746V72.2735H290.415V75.4696H290.658C291.11 74.4298 291.817 73.5946 292.78 72.9639C293.752 72.3332 294.975 72.0179 296.449 72.0179C297.787 72.0179 298.959 72.2991 299.965 72.8616C300.971 73.4156 301.75 74.2423 302.304 75.3417C302.858 76.4412 303.135 77.8005 303.135 79.4199V91.9099H299.313V79.8801C299.313 78.4568 298.942 77.3446 298.201 76.5434C297.459 75.7338 296.441 75.3289 295.145 75.3289C294.259 75.3289 293.471 75.5207 292.78 75.9042C292.098 76.2878 291.557 76.8503 291.157 77.5917C290.765 78.3247 290.569 79.211 290.569 80.2508ZM324.219 69.0859V71.6419H342.291V69.0859H324.219ZM324.219 64.7659V67.2499H342.291V64.7659H324.219ZM321.591 62.8219H344.955V73.5499H321.591V62.8219ZM317.307 75.5659H349.023V77.7979H317.307V75.5659ZM333.291 80.0659H346.107V82.2619H333.291V80.0659ZM321.987 80.2819H330.879V82.2979H321.987V80.2819ZM321.987 84.8179H330.879V86.8339H321.987V84.8179ZM337.071 82.0819C339.159 87.2299 343.767 91.1539 349.887 92.6659C349.311 93.1699 348.591 94.1419 348.231 94.7899C341.895 92.9179 337.251 88.6339 334.875 82.7299L337.071 82.0819ZM345.279 80.0659H345.783L346.251 79.9579L347.907 80.6419C345.531 87.9499 339.735 92.4499 333.471 94.6099C333.183 93.9619 332.499 92.9899 331.995 92.4859C337.755 90.7579 343.299 86.5459 345.279 80.4979V80.0659ZM316.983 90.3259C320.511 90.0379 325.731 89.4619 330.807 88.8859V91.1179C325.947 91.6939 320.943 92.3059 317.235 92.7379L316.983 90.3259ZM329.439 76.2859H332.031V94.7899H329.439V76.2859ZM320.403 76.3219H322.923V90.9739H320.403V76.3219ZM360.831 61.8139L363.387 62.5699C361.227 68.6539 357.807 74.7739 354.171 78.8419C353.883 78.2299 353.091 76.8259 352.623 76.1779C355.935 72.6859 358.959 67.2859 360.831 61.8139ZM357.195 71.3539L359.823 68.6899L359.895 68.7259V94.7899H357.195V71.3539ZM364.755 66.4219H383.403V68.9419H364.755V66.4219ZM363.999 82.2259H384.051V84.7819H363.999V82.2259ZM362.991 74.1259H385.059V76.6819H362.991V74.1259ZM361.803 90.8299H385.779V93.4579H361.803V90.8299ZM372.603 61.6699H375.303V75.6379H372.603V61.6699ZM372.603 78.0859H375.303V92.6659H372.603V78.0859ZM406.551 88.0579L407.883 86.1139C412.671 87.8419 417.747 90.3259 420.699 92.4859L419.043 94.5739C416.163 92.3779 411.339 89.8939 406.551 88.0579ZM402.627 62.2819L405.327 61.4539C406.299 62.9299 407.415 64.9459 407.847 66.2419L405.075 67.1779C404.643 65.9179 403.599 63.7939 402.627 62.2819ZM390.459 65.7739H420.015V73.0819H417.243V68.3299H393.123V73.0819H390.459V65.7739ZM405.327 70.1299H408.135C407.703 83.4859 406.587 91.2619 391.647 94.6819C391.395 93.9619 390.675 92.9179 390.099 92.3419C404.319 89.3539 404.931 82.5499 405.327 70.1299ZM389.775 82.7299H420.843V85.0699H389.775V82.7299ZM395.859 71.8939L397.479 70.1659C399.423 71.2099 401.727 72.8659 402.843 74.1259L401.151 76.0699C400.071 74.8099 397.803 73.0459 395.859 71.8939ZM392.259 77.4739L393.843 75.6739C395.895 76.7179 398.307 78.4099 399.495 79.6699L397.875 81.6859C396.723 80.3899 394.275 78.5899 392.259 77.4739ZM428.691 65.5939V71.9659H435.063V65.5939H428.691ZM426.315 63.2539H437.511V74.3059H426.315V63.2539ZM431.031 73.1179H433.443V89.8219H431.031V73.1179ZM426.351 77.6539H428.583V91.0099H426.351V77.6539ZM424.551 90.4699C428.115 89.7139 433.587 88.3819 438.843 87.0499L439.131 89.4259C434.163 90.7219 428.943 92.0539 425.127 93.0259L424.551 90.4699ZM432.111 79.4899H438.411V81.8659H432.111V79.4899ZM438.951 68.2579L456.303 66.5299L456.519 68.8699L439.203 70.6339L438.951 68.2579ZM439.815 73.8739L455.619 72.1459L455.907 74.4139L440.067 76.1419L439.815 73.8739ZM438.987 79.8499L457.527 77.7979L457.815 80.1379L439.275 82.2259L438.987 79.8499ZM444.603 61.7419H447.339C447.195 78.8059 450.111 92.1619 454.539 92.1619C455.475 92.1619 455.871 90.9019 456.087 87.1219C456.627 87.7339 457.527 88.2739 458.175 88.5259C457.671 93.3499 456.807 94.7899 454.323 94.7899C447.267 94.7899 444.711 79.4899 444.603 61.7419ZM449.175 63.2179L450.687 61.5979C452.487 62.3539 454.755 63.6499 455.871 64.6579L454.323 66.4939C453.207 65.4499 450.975 64.1179 449.175 63.2179ZM453.891 81.6859L456.231 82.6939C452.595 88.0939 446.187 92.2699 439.167 94.6099C438.807 93.9259 438.123 92.9899 437.511 92.3779C444.315 90.3259 450.579 86.5099 453.891 81.6859ZM462.423 63.9739L464.043 62.1739C466.203 63.3259 469.119 65.0539 470.631 66.1339L468.939 68.2219C467.463 67.0699 464.583 65.2699 462.423 63.9739ZM460.587 73.7299L462.099 71.7859C464.331 72.7579 467.427 74.3059 469.011 75.2779L467.463 77.4739C465.915 76.4659 462.855 74.8459 460.587 73.7299ZM461.667 92.5219C463.611 89.6779 466.527 84.7459 468.651 80.5339L470.667 82.2979C468.687 86.2219 466.095 90.9019 463.935 94.3579L461.667 92.5219ZM477.399 72.7579H486.975V75.2779H477.399V72.7579ZM471.675 63.9379H492.987V71.1739H490.359V66.5299H474.231V71.1739H471.675V63.9379ZM475.815 72.7579H478.443V80.3899C478.443 85.1419 477.363 91.0819 471.243 94.8259C470.919 94.2499 470.019 93.1339 469.479 92.7739C475.095 89.3179 475.815 84.4219 475.815 80.3179V72.7579ZM485.535 72.7579H488.163V90.2899C488.163 91.4059 488.307 91.5859 488.955 91.5859C489.243 91.5859 490.539 91.5859 490.935 91.5859C491.691 91.5859 491.799 90.6139 491.871 85.3579C492.483 85.8979 493.599 86.3659 494.319 86.5459C494.103 92.4139 493.527 94.1059 491.151 94.1059C490.683 94.1059 488.991 94.1059 488.523 94.1059C486.219 94.1059 485.535 93.3139 485.535 90.3259V72.7579ZM508.395 73.5139H527.835V75.9619H508.395V73.5139ZM517.935 81.5779H527.331V84.0259H517.935V81.5779ZM507.315 66.2779H528.987V72.2899H526.323V68.6899H509.871V72.2899H507.315V66.2779ZM516.603 61.7059H519.375V67.6099H516.603V61.7059ZM516.675 74.5579H519.303V92.2339H516.675V74.5579ZM511.743 83.7739C513.795 90.5779 518.079 91.6219 523.443 91.6219C524.379 91.6219 528.807 91.6219 530.067 91.6219C529.707 92.1979 529.311 93.3859 529.203 94.1059H523.335C516.963 94.1059 512.355 92.7019 509.979 84.4579L511.743 83.7739ZM498.351 63.9379L499.863 61.9579C502.131 62.9299 504.903 64.5139 506.271 65.7379L504.687 68.0059C503.355 66.6739 500.619 64.9819 498.351 63.9379ZM496.551 73.6939L498.063 71.6779C500.295 72.5059 503.103 74.0539 504.507 75.2059L502.959 77.4379C501.591 76.2499 498.855 74.6659 496.551 73.6939ZM497.559 92.7019C499.323 89.8939 501.843 85.1059 503.715 80.9659L505.839 82.5859C504.147 86.4379 501.843 91.0099 499.935 94.3579L497.559 92.7019ZM510.411 78.5539L513.039 78.8419C512.175 85.7899 510.303 91.2979 506.775 94.9339C506.343 94.5019 505.191 93.7099 504.579 93.3499C508.071 90.1459 509.727 84.8899 510.411 78.5539Z" fill="white"/>
<rect x="72.8875" y="114.63" width="189.58" height="22.86" rx="11.43" fill="white"/>
<path d="M86.9973 130.06H84.0386V121.329H87.0569C87.9238 121.329 88.6684 121.504 89.2908 121.853C89.9161 122.2 90.3964 122.699 90.7318 123.35C91.0671 124 91.2348 124.779 91.2348 125.686C91.2348 126.595 91.0657 127.377 90.7275 128.031C90.3921 128.684 89.9076 129.186 89.2738 129.535C88.6428 129.885 87.884 130.06 86.9973 130.06ZM85.6203 128.691H86.9205C87.5287 128.691 88.036 128.581 88.4425 128.359C88.8489 128.134 89.1544 127.8 89.359 127.357C89.5637 126.911 89.666 126.354 89.666 125.686C89.666 125.018 89.5637 124.464 89.359 124.023C89.1544 123.58 88.8517 123.249 88.451 123.03C88.0531 122.808 87.5586 122.697 86.9674 122.697H85.6203V128.691ZM95.5683 130.188C94.9118 130.188 94.3448 130.051 93.8673 129.778C93.3927 129.503 93.0275 129.113 92.7717 128.61C92.5159 128.104 92.388 127.509 92.388 126.824C92.388 126.151 92.5159 125.559 92.7717 125.051C93.0303 124.539 93.3913 124.141 93.8545 123.857C94.3178 123.57 94.862 123.426 95.4873 123.426C95.8909 123.426 96.2717 123.492 96.6298 123.622C96.9908 123.75 97.3091 123.949 97.5848 124.219C97.8633 124.489 98.0821 124.833 98.2413 125.251C98.4005 125.666 98.48 126.16 98.48 126.735V127.208H93.1127V126.168H97.0007C96.9979 125.872 96.9339 125.609 96.8089 125.379C96.6838 125.146 96.509 124.963 96.2845 124.829C96.0628 124.695 95.8042 124.629 95.5086 124.629C95.1931 124.629 94.916 124.705 94.6773 124.859C94.4386 125.009 94.2524 125.208 94.1188 125.456C93.9881 125.7 93.9213 125.969 93.9185 126.261V127.169C93.9185 127.55 93.9881 127.877 94.1274 128.15C94.2666 128.42 94.4613 128.627 94.7114 128.772C94.9615 128.914 95.2543 128.986 95.5896 128.986C95.8141 128.986 96.0174 128.954 96.1992 128.892C96.3811 128.826 96.5389 128.731 96.6725 128.606C96.806 128.481 96.9069 128.326 96.9751 128.141L98.4161 128.303C98.3251 128.684 98.1518 129.017 97.896 129.301C97.643 129.582 97.319 129.801 96.924 129.957C96.5289 130.111 96.077 130.188 95.5683 130.188ZM104.961 125.242L103.554 125.396C103.514 125.254 103.445 125.12 103.345 124.995C103.249 124.87 103.118 124.769 102.953 124.693C102.788 124.616 102.586 124.577 102.348 124.577C102.027 124.577 101.757 124.647 101.538 124.786C101.322 124.926 101.215 125.106 101.218 125.328C101.215 125.518 101.285 125.673 101.427 125.792C101.572 125.912 101.811 126.01 102.143 126.087L103.26 126.325C103.88 126.459 104.34 126.671 104.641 126.961C104.945 127.25 105.099 127.63 105.102 128.099C105.099 128.511 104.978 128.875 104.739 129.19C104.503 129.503 104.175 129.747 103.755 129.923C103.334 130.1 102.851 130.188 102.305 130.188C101.504 130.188 100.859 130.02 100.37 129.685C99.8808 129.346 99.5895 128.876 99.4957 128.274L101.001 128.129C101.069 128.424 101.214 128.647 101.435 128.798C101.657 128.949 101.946 129.024 102.301 129.024C102.667 129.024 102.962 128.949 103.183 128.798C103.408 128.647 103.52 128.461 103.52 128.239C103.52 128.052 103.448 127.897 103.303 127.775C103.161 127.653 102.939 127.559 102.638 127.493L101.521 127.259C100.893 127.128 100.428 126.908 100.127 126.598C99.8254 126.286 99.6762 125.89 99.679 125.413C99.6762 125.009 99.7856 124.66 100.007 124.364C100.232 124.066 100.543 123.836 100.941 123.674C101.342 123.509 101.804 123.426 102.326 123.426C103.094 123.426 103.698 123.59 104.138 123.917C104.582 124.243 104.856 124.685 104.961 125.242ZM106.374 130.06V123.512H107.918V130.06H106.374ZM107.15 122.582C106.906 122.582 106.695 122.501 106.519 122.339C106.343 122.174 106.255 121.977 106.255 121.747C106.255 121.514 106.343 121.316 106.519 121.154C106.695 120.989 106.906 120.907 107.15 120.907C107.397 120.907 107.608 120.989 107.781 121.154C107.957 121.316 108.045 121.514 108.045 121.747C108.045 121.977 107.957 122.174 107.781 122.339C107.608 122.501 107.397 122.582 107.15 122.582ZM112.352 132.652C111.798 132.652 111.322 132.576 110.924 132.426C110.526 132.278 110.207 132.079 109.965 131.829C109.723 131.579 109.556 131.302 109.462 130.998L110.852 130.661C110.914 130.789 111.005 130.915 111.125 131.04C111.244 131.168 111.404 131.273 111.606 131.356C111.811 131.441 112.068 131.484 112.378 131.484C112.816 131.484 113.178 131.377 113.465 131.164C113.752 130.954 113.896 130.607 113.896 130.124V128.883H113.819C113.739 129.042 113.623 129.206 113.469 129.373C113.319 129.541 113.118 129.682 112.868 129.795C112.621 129.909 112.31 129.966 111.934 129.966C111.431 129.966 110.975 129.848 110.566 129.612C110.16 129.373 109.836 129.018 109.594 128.546C109.355 128.072 109.236 127.478 109.236 126.764C109.236 126.045 109.355 125.439 109.594 124.944C109.836 124.447 110.161 124.07 110.57 123.814C110.98 123.556 111.436 123.426 111.939 123.426C112.322 123.426 112.638 123.492 112.885 123.622C113.135 123.75 113.334 123.905 113.482 124.087C113.63 124.266 113.742 124.435 113.819 124.594H113.904V123.512H115.426V130.166C115.426 130.726 115.292 131.19 115.025 131.556C114.758 131.923 114.393 132.197 113.93 132.379C113.466 132.561 112.941 132.652 112.352 132.652ZM112.365 128.755C112.692 128.755 112.97 128.676 113.201 128.517C113.431 128.357 113.606 128.129 113.725 127.83C113.844 127.532 113.904 127.174 113.904 126.756C113.904 126.344 113.844 125.983 113.725 125.673C113.608 125.363 113.435 125.123 113.205 124.953C112.978 124.779 112.698 124.693 112.365 124.693C112.021 124.693 111.734 124.782 111.504 124.961C111.274 125.14 111.1 125.386 110.984 125.699C110.867 126.008 110.809 126.361 110.809 126.756C110.809 127.157 110.867 127.508 110.984 127.809C111.103 128.107 111.278 128.34 111.508 128.508C111.741 128.673 112.027 128.755 112.365 128.755ZM118.551 126.223V130.06H117.008V123.512H118.483V124.624H118.559C118.71 124.258 118.95 123.966 119.28 123.75C119.612 123.534 120.023 123.426 120.512 123.426C120.964 123.426 121.357 123.523 121.693 123.716C122.031 123.91 122.293 124.189 122.477 124.556C122.665 124.923 122.757 125.368 122.754 125.89V130.06H121.211V126.129C121.211 125.692 121.097 125.349 120.87 125.102C120.646 124.855 120.334 124.731 119.936 124.731C119.666 124.731 119.426 124.791 119.216 124.91C119.008 125.026 118.845 125.196 118.726 125.417C118.609 125.639 118.551 125.908 118.551 126.223ZM127.222 130.188C126.566 130.188 125.999 130.051 125.521 129.778C125.046 129.503 124.681 129.113 124.425 128.61C124.17 128.104 124.042 127.509 124.042 126.824C124.042 126.151 124.17 125.559 124.425 125.051C124.684 124.539 125.045 124.141 125.508 123.857C125.972 123.57 126.516 123.426 127.141 123.426C127.545 123.426 127.926 123.492 128.284 123.622C128.645 123.75 128.963 123.949 129.239 124.219C129.517 124.489 129.736 124.833 129.895 125.251C130.054 125.666 130.134 126.16 130.134 126.735V127.208H124.767V126.168H128.655C128.652 125.872 128.588 125.609 128.463 125.379C128.338 125.146 128.163 124.963 127.938 124.829C127.717 124.695 127.458 124.629 127.162 124.629C126.847 124.629 126.57 124.705 126.331 124.859C126.092 125.009 125.906 125.208 125.773 125.456C125.642 125.7 125.575 125.969 125.572 126.261V127.169C125.572 127.55 125.642 127.877 125.781 128.15C125.92 128.42 126.115 128.627 126.365 128.772C126.615 128.914 126.908 128.986 127.243 128.986C127.468 128.986 127.671 128.954 127.853 128.892C128.035 128.826 128.193 128.731 128.326 128.606C128.46 128.481 128.561 128.326 128.629 128.141L130.07 128.303C129.979 128.684 129.806 129.017 129.55 129.301C129.297 129.582 128.973 129.801 128.578 129.957C128.183 130.111 127.731 130.188 127.222 130.188ZM133.869 130.175C133.355 130.175 132.895 130.043 132.488 129.778C132.082 129.514 131.761 129.13 131.525 128.627C131.289 128.124 131.171 127.513 131.171 126.794C131.171 126.067 131.29 125.453 131.529 124.953C131.771 124.45 132.096 124.07 132.505 123.814C132.914 123.556 133.371 123.426 133.874 123.426C134.257 123.426 134.573 123.492 134.82 123.622C135.067 123.75 135.263 123.905 135.408 124.087C135.553 124.266 135.666 124.435 135.745 124.594H135.809V121.329H137.357V130.06H135.839V129.028H135.745C135.666 129.187 135.551 129.356 135.4 129.535C135.249 129.712 135.05 129.862 134.803 129.987C134.556 130.112 134.245 130.175 133.869 130.175ZM134.3 128.909C134.627 128.909 134.905 128.821 135.136 128.644C135.366 128.465 135.541 128.217 135.66 127.898C135.779 127.58 135.839 127.209 135.839 126.786C135.839 126.362 135.779 125.994 135.66 125.682C135.543 125.369 135.37 125.126 135.14 124.953C134.912 124.779 134.633 124.693 134.3 124.693C133.956 124.693 133.669 124.782 133.439 124.961C133.209 125.14 133.035 125.387 132.919 125.703C132.802 126.018 132.744 126.379 132.744 126.786C132.744 127.195 132.802 127.56 132.919 127.881C133.038 128.2 133.213 128.451 133.443 128.636C133.676 128.818 133.962 128.909 134.3 128.909ZM143.863 130.192C143.448 130.192 143.075 130.118 142.742 129.97C142.412 129.82 142.151 129.598 141.958 129.305C141.767 129.013 141.672 128.652 141.672 128.222C141.672 127.853 141.74 127.547 141.877 127.306C142.013 127.064 142.199 126.871 142.435 126.726C142.671 126.581 142.937 126.472 143.232 126.398C143.531 126.321 143.839 126.266 144.157 126.232C144.541 126.192 144.852 126.156 145.091 126.125C145.33 126.091 145.503 126.04 145.611 125.971C145.722 125.9 145.777 125.791 145.777 125.643V125.618C145.777 125.296 145.682 125.048 145.492 124.872C145.301 124.695 145.027 124.607 144.669 124.607C144.291 124.607 143.991 124.69 143.769 124.855C143.551 125.019 143.403 125.214 143.326 125.439L141.885 125.234C141.999 124.836 142.186 124.504 142.448 124.236C142.709 123.966 143.029 123.765 143.407 123.631C143.785 123.495 144.203 123.426 144.66 123.426C144.976 123.426 145.29 123.463 145.603 123.537C145.915 123.611 146.201 123.733 146.46 123.904C146.718 124.072 146.926 124.3 147.082 124.59C147.241 124.88 147.321 125.242 147.321 125.677V130.06H145.837V129.16H145.786C145.692 129.342 145.56 129.513 145.389 129.672C145.222 129.828 145.01 129.955 144.754 130.051C144.501 130.145 144.204 130.192 143.863 130.192ZM144.264 129.058C144.574 129.058 144.842 128.997 145.07 128.875C145.297 128.75 145.472 128.585 145.594 128.38C145.719 128.176 145.782 127.952 145.782 127.711V126.939C145.733 126.979 145.651 127.016 145.534 127.05C145.421 127.084 145.293 127.114 145.151 127.14C145.009 127.165 144.868 127.188 144.729 127.208C144.589 127.228 144.469 127.245 144.366 127.259C144.136 127.29 143.93 127.341 143.748 127.412C143.566 127.483 143.423 127.583 143.318 127.711C143.212 127.836 143.16 127.998 143.16 128.197C143.16 128.481 143.264 128.696 143.471 128.841C143.679 128.986 143.943 129.058 144.264 129.058ZM150.416 126.223V130.06H148.872V123.512H150.348V124.624H150.424C150.575 124.258 150.815 123.966 151.145 123.75C151.477 123.534 151.888 123.426 152.377 123.426C152.829 123.426 153.222 123.523 153.558 123.716C153.896 123.91 154.157 124.189 154.342 124.556C154.53 124.923 154.622 125.368 154.619 125.89V130.06H153.076V126.129C153.076 125.692 152.962 125.349 152.735 125.102C152.51 124.855 152.199 124.731 151.801 124.731C151.531 124.731 151.291 124.791 151.081 124.91C150.873 125.026 150.71 125.196 150.591 125.417C150.474 125.639 150.416 125.908 150.416 126.223ZM158.618 130.175C158.104 130.175 157.643 130.043 157.237 129.778C156.83 129.514 156.509 129.13 156.273 128.627C156.037 128.124 155.919 127.513 155.919 126.794C155.919 126.067 156.039 125.453 156.278 124.953C156.519 124.45 156.845 124.07 157.254 123.814C157.663 123.556 158.119 123.426 158.622 123.426C159.006 123.426 159.321 123.492 159.569 123.622C159.816 123.75 160.012 123.905 160.157 124.087C160.302 124.266 160.414 124.435 160.494 124.594H160.558V121.329H162.105V130.06H160.588V129.028H160.494C160.414 129.187 160.299 129.356 160.148 129.535C159.998 129.712 159.799 129.862 159.552 129.987C159.304 130.112 158.993 130.175 158.618 130.175ZM159.049 128.909C159.375 128.909 159.654 128.821 159.884 128.644C160.114 128.465 160.289 128.217 160.409 127.898C160.528 127.58 160.588 127.209 160.588 126.786C160.588 126.362 160.528 125.994 160.409 125.682C160.292 125.369 160.119 125.126 159.888 124.953C159.661 124.779 159.381 124.693 159.049 124.693C158.705 124.693 158.418 124.782 158.187 124.961C157.957 125.14 157.784 125.387 157.667 125.703C157.551 126.018 157.493 126.379 157.493 126.786C157.493 127.195 157.551 127.56 157.667 127.881C157.787 128.2 157.961 128.451 158.192 128.636C158.425 128.818 158.71 128.909 159.049 128.909ZM169.584 130.188C168.93 130.188 168.369 130.044 167.9 129.757C167.434 129.47 167.074 129.074 166.821 128.568C166.571 128.059 166.446 127.474 166.446 126.811C166.446 126.146 166.574 125.559 166.83 125.051C167.086 124.539 167.447 124.141 167.913 123.857C168.382 123.57 168.936 123.426 169.575 123.426C170.107 123.426 170.577 123.524 170.986 123.721C171.399 123.914 171.727 124.188 171.971 124.543C172.216 124.896 172.355 125.308 172.389 125.78H170.914C170.854 125.464 170.712 125.201 170.488 124.991C170.266 124.778 169.969 124.671 169.597 124.671C169.281 124.671 169.004 124.756 168.765 124.927C168.527 125.095 168.34 125.336 168.207 125.652C168.076 125.967 168.011 126.345 168.011 126.786C168.011 127.232 168.076 127.616 168.207 127.937C168.338 128.255 168.521 128.501 168.757 128.674C168.996 128.845 169.275 128.93 169.597 128.93C169.824 128.93 170.027 128.887 170.206 128.802C170.388 128.714 170.54 128.588 170.662 128.423C170.785 128.258 170.868 128.058 170.914 127.822H172.389C172.352 128.285 172.216 128.696 171.98 129.054C171.744 129.409 171.423 129.688 171.016 129.889C170.61 130.088 170.132 130.188 169.584 130.188ZM176.513 130.188C175.873 130.188 175.319 130.047 174.85 129.766C174.381 129.484 174.017 129.091 173.759 128.585C173.503 128.079 173.375 127.488 173.375 126.811C173.375 126.135 173.503 125.542 173.759 125.034C174.017 124.525 174.381 124.13 174.85 123.848C175.319 123.567 175.873 123.426 176.513 123.426C177.152 123.426 177.706 123.567 178.175 123.848C178.644 124.13 179.006 124.525 179.262 125.034C179.521 125.542 179.65 126.135 179.65 126.811C179.65 127.488 179.521 128.079 179.262 128.585C179.006 129.091 178.644 129.484 178.175 129.766C177.706 130.047 177.152 130.188 176.513 130.188ZM176.521 128.951C176.868 128.951 177.158 128.856 177.391 128.666C177.624 128.473 177.797 128.214 177.911 127.89C178.027 127.566 178.086 127.205 178.086 126.807C178.086 126.406 178.027 126.044 177.911 125.72C177.797 125.393 177.624 125.133 177.391 124.94C177.158 124.747 176.868 124.65 176.521 124.65C176.166 124.65 175.87 124.747 175.634 124.94C175.401 125.133 175.226 125.393 175.11 125.72C174.996 126.044 174.939 126.406 174.939 126.807C174.939 127.205 174.996 127.566 175.11 127.89C175.226 128.214 175.401 128.473 175.634 128.666C175.87 128.856 176.166 128.951 176.521 128.951ZM183.39 130.175C182.876 130.175 182.415 130.043 182.009 129.778C181.602 129.514 181.281 129.13 181.045 128.627C180.809 128.124 180.691 127.513 180.691 126.794C180.691 126.067 180.811 125.453 181.05 124.953C181.291 124.45 181.617 124.07 182.026 123.814C182.435 123.556 182.891 123.426 183.394 123.426C183.778 123.426 184.093 123.492 184.341 123.622C184.588 123.75 184.784 123.905 184.929 124.087C185.074 124.266 185.186 124.435 185.266 124.594H185.33V121.329H186.877V130.06H185.36V129.028H185.266C185.186 129.187 185.071 129.356 184.921 129.535C184.77 129.712 184.571 129.862 184.324 129.987C184.076 130.112 183.765 130.175 183.39 130.175ZM183.821 128.909C184.147 128.909 184.426 128.821 184.656 128.644C184.886 128.465 185.061 128.217 185.181 127.898C185.3 127.58 185.36 127.209 185.36 126.786C185.36 126.362 185.3 125.994 185.181 125.682C185.064 125.369 184.891 125.126 184.66 124.953C184.433 124.779 184.153 124.693 183.821 124.693C183.477 124.693 183.19 124.782 182.959 124.961C182.729 125.14 182.556 125.387 182.439 125.703C182.323 126.018 182.265 126.379 182.265 126.786C182.265 127.195 182.323 127.56 182.439 127.881C182.559 128.2 182.734 128.451 182.964 128.636C183.197 128.818 183.482 128.909 183.821 128.909ZM191.421 130.188C190.764 130.188 190.197 130.051 189.72 129.778C189.245 129.503 188.88 129.113 188.624 128.61C188.368 128.104 188.24 127.509 188.24 126.824C188.24 126.151 188.368 125.559 188.624 125.051C188.883 124.539 189.244 124.141 189.707 123.857C190.17 123.57 190.714 123.426 191.34 123.426C191.743 123.426 192.124 123.492 192.482 123.622C192.843 123.75 193.162 123.949 193.437 124.219C193.716 124.489 193.935 124.833 194.094 125.251C194.253 125.666 194.332 126.16 194.332 126.735V127.208H188.965V126.168H192.853C192.85 125.872 192.786 125.609 192.661 125.379C192.536 125.146 192.361 124.963 192.137 124.829C191.915 124.695 191.657 124.629 191.361 124.629C191.046 124.629 190.768 124.705 190.53 124.859C190.291 125.009 190.105 125.208 189.971 125.456C189.841 125.7 189.774 125.969 189.771 126.261V127.169C189.771 127.55 189.841 127.877 189.98 128.15C190.119 128.42 190.314 128.627 190.564 128.772C190.814 128.914 191.107 128.986 191.442 128.986C191.667 128.986 191.87 128.954 192.052 128.892C192.234 128.826 192.391 128.731 192.525 128.606C192.658 128.481 192.759 128.326 192.828 128.141L194.269 128.303C194.178 128.684 194.004 129.017 193.748 129.301C193.495 129.582 193.171 129.801 192.776 129.957C192.381 130.111 191.929 130.188 191.421 130.188ZM198.068 130.175C197.554 130.175 197.093 130.043 196.687 129.778C196.28 129.514 195.959 129.13 195.723 128.627C195.487 128.124 195.369 127.513 195.369 126.794C195.369 126.067 195.489 125.453 195.728 124.953C195.969 124.45 196.295 124.07 196.704 123.814C197.113 123.556 197.569 123.426 198.072 123.426C198.456 123.426 198.771 123.492 199.019 123.622C199.266 123.75 199.462 123.905 199.607 124.087C199.752 124.266 199.864 124.435 199.944 124.594H200.008V121.329H201.555V130.06H200.038V129.028H199.944C199.864 129.187 199.749 129.356 199.598 129.535C199.448 129.712 199.249 129.862 199.002 129.987C198.754 130.112 198.443 130.175 198.068 130.175ZM198.499 128.909C198.825 128.909 199.104 128.821 199.334 128.644C199.564 128.465 199.739 128.217 199.859 127.898C199.978 127.58 200.038 127.209 200.038 126.786C200.038 126.362 199.978 125.994 199.859 125.682C199.742 125.369 199.569 125.126 199.338 124.953C199.111 124.779 198.831 124.693 198.499 124.693C198.155 124.693 197.868 124.782 197.637 124.961C197.407 125.14 197.234 125.387 197.117 125.703C197.001 126.018 196.943 126.379 196.943 126.786C196.943 127.195 197.001 127.56 197.117 127.881C197.237 128.2 197.412 128.451 197.642 128.636C197.875 128.818 198.16 128.909 198.499 128.909ZM206.246 130.06V121.329H207.789V124.594H207.853C207.933 124.435 208.045 124.266 208.19 124.087C208.335 123.905 208.531 123.75 208.778 123.622C209.025 123.492 209.341 123.426 209.725 123.426C210.23 123.426 210.687 123.556 211.093 123.814C211.502 124.07 211.826 124.45 212.065 124.953C212.307 125.453 212.427 126.067 212.427 126.794C212.427 127.513 212.309 128.124 212.074 128.627C211.838 129.13 211.516 129.514 211.11 129.778C210.704 130.043 210.243 130.175 209.729 130.175C209.354 130.175 209.042 130.112 208.795 129.987C208.548 129.862 208.349 129.712 208.198 129.535C208.051 129.356 207.935 129.187 207.853 129.028H207.763V130.06H206.246ZM207.759 126.786C207.759 127.209 207.819 127.58 207.938 127.898C208.06 128.217 208.235 128.465 208.463 128.644C208.693 128.821 208.971 128.909 209.298 128.909C209.639 128.909 209.925 128.818 210.155 128.636C210.385 128.451 210.559 128.2 210.675 127.881C210.795 127.56 210.854 127.195 210.854 126.786C210.854 126.379 210.796 126.018 210.679 125.703C210.563 125.387 210.39 125.14 210.159 124.961C209.929 124.782 209.642 124.693 209.298 124.693C208.969 124.693 208.689 124.779 208.458 124.953C208.228 125.126 208.053 125.369 207.934 125.682C207.817 125.994 207.759 126.362 207.759 126.786ZM214.476 132.515C214.265 132.515 214.071 132.498 213.892 132.464C213.716 132.433 213.575 132.396 213.47 132.353L213.828 131.151C214.052 131.217 214.253 131.248 214.429 131.245C214.605 131.242 214.76 131.187 214.894 131.079C215.03 130.974 215.145 130.797 215.239 130.55L215.371 130.196L212.996 123.512H214.634L216.143 128.457H216.211L217.724 123.512H219.366L216.744 130.853C216.622 131.199 216.46 131.496 216.258 131.744C216.056 131.994 215.809 132.184 215.516 132.315C215.226 132.449 214.879 132.515 214.476 132.515ZM222.883 121.329H224.669L226.805 125.191H226.89L229.026 121.329H230.812L227.636 126.803V130.06H226.059V126.803L222.883 121.329ZM237.713 123.512L235.381 130.06H233.676L231.344 123.512H232.99L234.494 128.376H234.563L236.072 123.512H237.713ZM241.457 130.188C240.801 130.188 240.234 130.051 239.756 129.778C239.282 129.503 238.916 129.113 238.661 128.61C238.405 128.104 238.277 127.509 238.277 126.824C238.277 126.151 238.405 125.559 238.661 125.051C238.919 124.539 239.28 124.141 239.743 123.857C240.207 123.57 240.751 123.426 241.376 123.426C241.78 123.426 242.161 123.492 242.519 123.622C242.88 123.75 243.198 123.949 243.474 124.219C243.752 124.489 243.971 124.833 244.13 125.251C244.289 125.666 244.369 126.16 244.369 126.735V127.208H239.002V126.168H242.89C242.887 125.872 242.823 125.609 242.698 125.379C242.573 125.146 242.398 124.963 242.173 124.829C241.952 124.695 241.693 124.629 241.398 124.629C241.082 124.629 240.805 124.705 240.566 124.859C240.327 125.009 240.141 125.208 240.008 125.456C239.877 125.7 239.81 125.969 239.807 126.261V127.169C239.807 127.55 239.877 127.877 240.016 128.15C240.156 128.42 240.35 128.627 240.6 128.772C240.85 128.914 241.143 128.986 241.479 128.986C241.703 128.986 241.906 128.954 242.088 128.892C242.27 128.826 242.428 128.731 242.561 128.606C242.695 128.481 242.796 128.326 242.864 128.141L244.305 128.303C244.214 128.684 244.041 129.017 243.785 129.301C243.532 129.582 243.208 129.801 242.813 129.957C242.418 130.111 241.966 130.188 241.457 130.188ZM250.85 125.242L249.443 125.396C249.403 125.254 249.334 125.12 249.234 124.995C249.138 124.87 249.007 124.769 248.842 124.693C248.677 124.616 248.475 124.577 248.237 124.577C247.915 124.577 247.645 124.647 247.427 124.786C247.211 124.926 247.104 125.106 247.107 125.328C247.104 125.518 247.174 125.673 247.316 125.792C247.461 125.912 247.699 126.01 248.032 126.087L249.149 126.325C249.769 126.459 250.229 126.671 250.53 126.961C250.834 127.25 250.988 127.63 250.991 128.099C250.988 128.511 250.867 128.875 250.628 129.19C250.392 129.503 250.064 129.747 249.643 129.923C249.223 130.1 248.74 130.188 248.194 130.188C247.393 130.188 246.747 130.02 246.259 129.685C245.77 129.346 245.478 128.876 245.385 128.274L246.889 128.129C246.958 128.424 247.103 128.647 247.324 128.798C247.546 128.949 247.834 129.024 248.19 129.024C248.556 129.024 248.851 128.949 249.072 128.798C249.297 128.647 249.409 128.461 249.409 128.239C249.409 128.052 249.337 127.897 249.192 127.775C249.049 127.653 248.828 127.559 248.527 127.493L247.41 127.259C246.782 127.128 246.317 126.908 246.016 126.598C245.714 126.286 245.565 125.89 245.568 125.413C245.565 125.009 245.675 124.66 245.896 124.364C246.121 124.066 246.432 123.836 246.83 123.674C247.231 123.509 247.692 123.426 248.215 123.426C248.983 123.426 249.587 123.59 250.027 123.917C250.471 124.243 250.745 124.685 250.85 125.242Z" fill="black" fill-opacity="0.85"/>
<path d="M277.245 130.06V121.329H282.48V122.267H278.302V125.217H282.088V126.155H278.302V130.06H277.245ZM286.334 130.196C285.743 130.196 285.224 130.056 284.778 129.774C284.334 129.493 283.988 129.099 283.738 128.593C283.49 128.087 283.367 127.496 283.367 126.82C283.367 126.138 283.49 125.542 283.738 125.034C283.988 124.525 284.334 124.13 284.778 123.848C285.224 123.567 285.743 123.426 286.334 123.426C286.925 123.426 287.442 123.567 287.886 123.848C288.332 124.13 288.678 124.525 288.926 125.034C289.176 125.542 289.301 126.138 289.301 126.82C289.301 127.496 289.176 128.087 288.926 128.593C288.678 129.099 288.332 129.493 287.886 129.774C287.442 130.056 286.925 130.196 286.334 130.196ZM286.334 129.292C286.783 129.292 287.152 129.177 287.442 128.947C287.732 128.717 287.947 128.414 288.086 128.039C288.225 127.664 288.295 127.258 288.295 126.82C288.295 126.382 288.225 125.974 288.086 125.596C287.947 125.218 287.732 124.913 287.442 124.68C287.152 124.447 286.783 124.33 286.334 124.33C285.885 124.33 285.515 124.447 285.225 124.68C284.935 124.913 284.721 125.218 284.582 125.596C284.442 125.974 284.373 126.382 284.373 126.82C284.373 127.258 284.442 127.664 284.582 128.039C284.721 128.414 284.935 128.717 285.225 128.947C285.515 129.177 285.885 129.292 286.334 129.292ZM294.963 127.383V123.512H295.97V130.06H294.963V128.951H294.895C294.742 129.284 294.503 129.567 294.179 129.8C293.855 130.03 293.446 130.145 292.951 130.145C292.542 130.145 292.178 130.056 291.86 129.876C291.542 129.695 291.291 129.422 291.11 129.058C290.928 128.691 290.837 128.23 290.837 127.672V123.512H291.843V127.604C291.843 128.082 291.976 128.463 292.244 128.747C292.514 129.031 292.857 129.173 293.275 129.173C293.525 129.173 293.78 129.109 294.038 128.981C294.3 128.853 294.519 128.657 294.695 128.393C294.874 128.129 294.963 127.792 294.963 127.383ZM298.818 126.121V130.06H297.812V123.512H298.784V124.535H298.87C299.023 124.202 299.256 123.935 299.569 123.733C299.881 123.529 300.285 123.426 300.779 123.426C301.223 123.426 301.611 123.517 301.943 123.699C302.276 123.878 302.534 124.151 302.719 124.518C302.904 124.882 302.996 125.342 302.996 125.899V130.06H301.99V125.967C301.99 125.453 301.857 125.052 301.589 124.765C301.322 124.475 300.956 124.33 300.49 124.33C300.168 124.33 299.881 124.4 299.628 124.539C299.378 124.678 299.181 124.882 299.036 125.149C298.891 125.416 298.818 125.74 298.818 126.121ZM307.307 130.196C306.762 130.196 306.28 130.058 305.862 129.783C305.444 129.504 305.118 129.112 304.882 128.606C304.646 128.097 304.528 127.496 304.528 126.803C304.528 126.115 304.646 125.518 304.882 125.012C305.118 124.506 305.446 124.116 305.866 123.84C306.287 123.564 306.773 123.426 307.324 123.426C307.751 123.426 308.088 123.497 308.335 123.64C308.585 123.779 308.775 123.938 308.906 124.117C309.04 124.293 309.143 124.438 309.217 124.552H309.303V121.329H310.309V130.06H309.337V129.054H309.217C309.143 129.173 309.038 129.324 308.902 129.506C308.765 129.685 308.571 129.845 308.318 129.987C308.065 130.127 307.728 130.196 307.307 130.196ZM307.444 129.292C307.847 129.292 308.188 129.187 308.467 128.977C308.745 128.764 308.957 128.47 309.102 128.095C309.247 127.717 309.32 127.28 309.32 126.786C309.32 126.297 309.249 125.869 309.106 125.503C308.964 125.133 308.754 124.846 308.475 124.641C308.197 124.434 307.853 124.33 307.444 124.33C307.017 124.33 306.662 124.44 306.378 124.658C306.097 124.874 305.885 125.169 305.743 125.541C305.604 125.91 305.534 126.325 305.534 126.786C305.534 127.252 305.605 127.675 305.747 128.056C305.892 128.434 306.105 128.735 306.387 128.96C306.671 129.182 307.023 129.292 307.444 129.292ZM314.218 130.213C313.803 130.213 313.426 130.135 313.088 129.979C312.75 129.82 312.481 129.591 312.282 129.292C312.083 128.991 311.984 128.627 311.984 128.201C311.984 127.826 312.058 127.522 312.206 127.289C312.353 127.053 312.551 126.868 312.798 126.735C313.046 126.601 313.318 126.502 313.617 126.436C313.918 126.368 314.221 126.314 314.525 126.274C314.923 126.223 315.245 126.185 315.493 126.159C315.743 126.131 315.925 126.084 316.038 126.018C316.155 125.953 316.213 125.839 316.213 125.677V125.643C316.213 125.223 316.098 124.896 315.868 124.663C315.64 124.43 315.295 124.313 314.832 124.313C314.351 124.313 313.975 124.418 313.702 124.629C313.429 124.839 313.237 125.063 313.127 125.302L312.172 124.961C312.342 124.563 312.569 124.253 312.854 124.032C313.141 123.807 313.453 123.651 313.792 123.563C314.133 123.472 314.468 123.426 314.798 123.426C315.008 123.426 315.25 123.452 315.522 123.503C315.798 123.551 316.064 123.652 316.32 123.806C316.578 123.959 316.793 124.191 316.963 124.501C317.134 124.81 317.219 125.225 317.219 125.746V130.06H316.213V129.173H316.162C316.094 129.315 315.98 129.467 315.821 129.629C315.662 129.791 315.45 129.929 315.186 130.043C314.921 130.156 314.599 130.213 314.218 130.213ZM314.371 129.31C314.769 129.31 315.105 129.231 315.377 129.075C315.653 128.919 315.861 128.717 316 128.47C316.142 128.222 316.213 127.962 316.213 127.69V126.769C316.17 126.82 316.077 126.867 315.932 126.909C315.79 126.949 315.625 126.985 315.437 127.016C315.252 127.044 315.072 127.07 314.896 127.093C314.722 127.113 314.582 127.13 314.474 127.144C314.212 127.178 313.968 127.233 313.74 127.31C313.516 127.384 313.334 127.496 313.195 127.647C313.058 127.795 312.99 127.996 312.99 128.252C312.99 128.602 313.119 128.866 313.378 129.045C313.64 129.221 313.971 129.31 314.371 129.31ZM321.903 123.512V124.364H318.51V123.512H321.903ZM319.499 121.943H320.505V128.184C320.505 128.468 320.546 128.681 320.629 128.824C320.714 128.963 320.822 129.057 320.953 129.105C321.086 129.15 321.227 129.173 321.375 129.173C321.485 129.173 321.576 129.167 321.647 129.156C321.719 129.142 321.775 129.13 321.818 129.122L322.023 130.026C321.954 130.051 321.859 130.077 321.737 130.102C321.615 130.131 321.46 130.145 321.272 130.145C320.988 130.145 320.71 130.084 320.437 129.962C320.167 129.84 319.942 129.653 319.763 129.403C319.587 129.153 319.499 128.838 319.499 128.457V121.943ZM323.417 130.06V123.512H324.423V130.06H323.417ZM323.928 122.42C323.732 122.42 323.563 122.353 323.421 122.22C323.282 122.086 323.212 121.926 323.212 121.738C323.212 121.551 323.282 121.39 323.421 121.256C323.563 121.123 323.732 121.056 323.928 121.056C324.124 121.056 324.292 121.123 324.431 121.256C324.573 121.39 324.644 121.551 324.644 121.738C324.644 121.926 324.573 122.086 324.431 122.22C324.292 122.353 324.124 122.42 323.928 122.42ZM328.926 130.196C328.335 130.196 327.816 130.056 327.37 129.774C326.926 129.493 326.58 129.099 326.329 128.593C326.082 128.087 325.959 127.496 325.959 126.82C325.959 126.138 326.082 125.542 326.329 125.034C326.58 124.525 326.926 124.13 327.37 123.848C327.816 123.567 328.335 123.426 328.926 123.426C329.517 123.426 330.034 123.567 330.478 123.848C330.924 124.13 331.27 124.525 331.518 125.034C331.768 125.542 331.893 126.138 331.893 126.82C331.893 127.496 331.768 128.087 331.518 128.593C331.27 129.099 330.924 129.493 330.478 129.774C330.034 130.056 329.517 130.196 328.926 130.196ZM328.926 129.292C329.375 129.292 329.744 129.177 330.034 128.947C330.324 128.717 330.539 128.414 330.678 128.039C330.817 127.664 330.887 127.258 330.887 126.82C330.887 126.382 330.817 125.974 330.678 125.596C330.539 125.218 330.324 124.913 330.034 124.68C329.744 124.447 329.375 124.33 328.926 124.33C328.477 124.33 328.107 124.447 327.817 124.68C327.527 124.913 327.313 125.218 327.174 125.596C327.034 125.974 326.965 126.382 326.965 126.82C326.965 127.258 327.034 127.664 327.174 128.039C327.313 128.414 327.527 128.717 327.817 128.947C328.107 129.177 328.477 129.292 328.926 129.292ZM334.435 126.121V130.06H333.429V123.512H334.401V124.535H334.486C334.639 124.202 334.872 123.935 335.185 123.733C335.498 123.529 335.901 123.426 336.396 123.426C336.839 123.426 337.227 123.517 337.56 123.699C337.892 123.878 338.151 124.151 338.336 124.518C338.52 124.882 338.613 125.342 338.613 125.899V130.06H337.607V125.967C337.607 125.453 337.473 125.052 337.206 124.765C336.939 124.475 336.572 124.33 336.106 124.33C335.785 124.33 335.498 124.4 335.245 124.539C334.995 124.678 334.797 124.882 334.652 125.149C334.507 125.416 334.435 125.74 334.435 126.121ZM342.378 130.213C341.963 130.213 341.587 130.135 341.248 129.979C340.91 129.82 340.642 129.591 340.443 129.292C340.244 128.991 340.144 128.627 340.144 128.201C340.144 127.826 340.218 127.522 340.366 127.289C340.514 127.053 340.711 126.868 340.958 126.735C341.206 126.601 341.479 126.502 341.777 126.436C342.078 126.368 342.381 126.314 342.685 126.274C343.083 126.223 343.405 126.185 343.653 126.159C343.903 126.131 344.085 126.084 344.198 126.018C344.315 125.953 344.373 125.839 344.373 125.677V125.643C344.373 125.223 344.258 124.896 344.028 124.663C343.801 124.43 343.455 124.313 342.992 124.313C342.512 124.313 342.135 124.418 341.862 124.629C341.589 124.839 341.398 125.063 341.287 125.302L340.332 124.961C340.502 124.563 340.73 124.253 341.014 124.032C341.301 123.807 341.614 123.651 341.952 123.563C342.293 123.472 342.628 123.426 342.958 123.426C343.168 123.426 343.41 123.452 343.683 123.503C343.958 123.551 344.224 123.652 344.48 123.806C344.738 123.959 344.953 124.191 345.124 124.501C345.294 124.81 345.379 125.225 345.379 125.746V130.06H344.373V129.173H344.322C344.254 129.315 344.14 129.467 343.981 129.629C343.822 129.791 343.61 129.929 343.346 130.043C343.081 130.156 342.759 130.213 342.378 130.213ZM342.532 129.31C342.929 129.31 343.265 129.231 343.538 129.075C343.813 128.919 344.021 128.717 344.16 128.47C344.302 128.222 344.373 127.962 344.373 127.69V126.769C344.331 126.82 344.237 126.867 344.092 126.909C343.95 126.949 343.785 126.985 343.597 127.016C343.413 127.044 343.232 127.07 343.056 127.093C342.883 127.113 342.742 127.13 342.634 127.144C342.372 127.178 342.128 127.233 341.901 127.31C341.676 127.384 341.494 127.496 341.355 127.647C341.218 127.795 341.15 127.996 341.15 128.252C341.15 128.602 341.28 128.866 341.538 129.045C341.8 129.221 342.131 129.31 342.532 129.31ZM348.222 121.329V130.06H347.216V121.329H348.222ZM353.577 130.06V121.329H354.583V124.552H354.669C354.743 124.438 354.845 124.293 354.976 124.117C355.109 123.938 355.3 123.779 355.547 123.64C355.797 123.497 356.135 123.426 356.562 123.426C357.113 123.426 357.599 123.564 358.02 123.84C358.44 124.116 358.768 124.506 359.004 125.012C359.24 125.518 359.358 126.115 359.358 126.803C359.358 127.496 359.24 128.097 359.004 128.606C358.768 129.112 358.442 129.504 358.024 129.783C357.606 130.058 357.124 130.196 356.579 130.196C356.158 130.196 355.821 130.127 355.568 129.987C355.315 129.845 355.121 129.685 354.984 129.506C354.848 129.324 354.743 129.173 354.669 129.054H354.549V130.06H353.577ZM354.566 126.786C354.566 127.28 354.639 127.717 354.784 128.095C354.929 128.47 355.14 128.764 355.419 128.977C355.698 129.187 356.039 129.292 356.442 129.292C356.863 129.292 357.214 129.182 357.495 128.96C357.779 128.735 357.993 128.434 358.135 128.056C358.28 127.675 358.352 127.252 358.352 126.786C358.352 126.325 358.281 125.91 358.139 125.541C358 125.169 357.788 124.874 357.504 124.658C357.222 124.44 356.868 124.33 356.442 124.33C356.033 124.33 355.689 124.434 355.41 124.641C355.132 124.846 354.922 125.133 354.78 125.503C354.637 125.869 354.566 126.297 354.566 126.786ZM365.024 127.383V123.512H366.03V130.06H365.024V128.951H364.956C364.802 129.284 364.563 129.567 364.239 129.8C363.915 130.03 363.506 130.145 363.012 130.145C362.602 130.145 362.239 130.056 361.92 129.876C361.602 129.695 361.352 129.422 361.17 129.058C360.988 128.691 360.897 128.23 360.897 127.672V123.512H361.903V127.604C361.903 128.082 362.037 128.463 362.304 128.747C362.574 129.031 362.918 129.173 363.336 129.173C363.586 129.173 363.84 129.109 364.099 128.981C364.36 128.853 364.579 128.657 364.755 128.393C364.934 128.129 365.024 127.792 365.024 127.383ZM367.873 130.06V123.512H368.879V130.06H367.873ZM368.384 122.42C368.188 122.42 368.019 122.353 367.877 122.22C367.738 122.086 367.668 121.926 367.668 121.738C367.668 121.551 367.738 121.39 367.877 121.256C368.019 121.123 368.188 121.056 368.384 121.056C368.58 121.056 368.748 121.123 368.887 121.256C369.029 121.39 369.1 121.551 369.1 121.738C369.1 121.926 369.029 122.086 368.887 122.22C368.748 122.353 368.58 122.42 368.384 122.42ZM371.728 121.329V130.06H370.722V121.329H371.728ZM376.043 130.196C375.497 130.196 375.016 130.058 374.598 129.783C374.18 129.504 373.853 129.112 373.617 128.606C373.381 128.097 373.263 127.496 373.263 126.803C373.263 126.115 373.381 125.518 373.617 125.012C373.853 124.506 374.181 124.116 374.602 123.84C375.023 123.564 375.509 123.426 376.06 123.426C376.486 123.426 376.823 123.497 377.07 123.64C377.321 123.779 377.511 123.938 377.642 124.117C377.775 124.293 377.879 124.438 377.953 124.552H378.038V121.329H379.044V130.06H378.072V129.054H377.953C377.879 129.173 377.774 129.324 377.637 129.506C377.501 129.685 377.306 129.845 377.053 129.987C376.8 130.127 376.464 130.196 376.043 130.196ZM376.179 129.292C376.583 129.292 376.924 129.187 377.203 128.977C377.481 128.764 377.693 128.47 377.838 128.095C377.983 127.717 378.055 127.28 378.055 126.786C378.055 126.297 377.984 125.869 377.842 125.503C377.7 125.133 377.49 124.846 377.211 124.641C376.933 124.434 376.589 124.33 376.179 124.33C375.753 124.33 375.398 124.44 375.114 124.658C374.832 124.874 374.621 125.169 374.478 125.541C374.339 125.91 374.27 126.325 374.27 126.786C374.27 127.252 374.341 127.675 374.483 128.056C374.628 128.434 374.841 128.735 375.122 128.96C375.406 129.182 375.759 129.292 376.179 129.292ZM381.027 130.06V123.512H382.033V130.06H381.027ZM381.538 122.42C381.342 122.42 381.173 122.353 381.031 122.22C380.892 122.086 380.822 121.926 380.822 121.738C380.822 121.551 380.892 121.39 381.031 121.256C381.173 121.123 381.342 121.056 381.538 121.056C381.734 121.056 381.902 121.123 382.041 121.256C382.183 121.39 382.254 121.551 382.254 121.738C382.254 121.926 382.183 122.086 382.041 122.22C381.902 122.353 381.734 122.42 381.538 122.42ZM384.882 126.121V130.06H383.875V123.512H384.847V124.535H384.933C385.086 124.202 385.319 123.935 385.632 123.733C385.945 123.529 386.348 123.426 386.843 123.426C387.286 123.426 387.674 123.517 388.006 123.699C388.339 123.878 388.598 124.151 388.782 124.518C388.967 124.882 389.059 125.342 389.059 125.899V130.06H388.053V125.967C388.053 125.453 387.92 125.052 387.653 124.765C387.385 124.475 387.019 124.33 386.553 124.33C386.232 124.33 385.945 124.4 385.692 124.539C385.441 124.678 385.244 124.882 385.099 125.149C384.954 125.416 384.882 125.74 384.882 126.121ZM393.541 132.652C393.055 132.652 392.637 132.589 392.288 132.464C391.938 132.342 391.647 132.18 391.414 131.978C391.184 131.779 391 131.566 390.864 131.339L391.665 130.776C391.756 130.895 391.871 131.032 392.011 131.185C392.15 131.342 392.34 131.477 392.582 131.59C392.826 131.707 393.146 131.765 393.541 131.765C394.07 131.765 394.506 131.637 394.85 131.381C395.194 131.126 395.366 130.725 395.366 130.179V128.849H395.28C395.207 128.968 395.101 129.116 394.965 129.292C394.831 129.466 394.638 129.621 394.385 129.757C394.135 129.891 393.797 129.957 393.371 129.957C392.842 129.957 392.367 129.832 391.947 129.582C391.529 129.332 391.198 128.968 390.953 128.491C390.712 128.014 390.591 127.434 390.591 126.752C390.591 126.081 390.709 125.497 390.945 124.999C391.181 124.499 391.509 124.113 391.93 123.84C392.35 123.564 392.836 123.426 393.388 123.426C393.814 123.426 394.152 123.497 394.402 123.64C394.655 123.779 394.848 123.938 394.982 124.117C395.118 124.293 395.224 124.438 395.297 124.552H395.4V123.512H396.372V130.247C396.372 130.81 396.244 131.268 395.988 131.62C395.735 131.975 395.394 132.235 394.965 132.4C394.539 132.568 394.064 132.652 393.541 132.652ZM393.507 129.054C393.911 129.054 394.252 128.961 394.53 128.777C394.809 128.592 395.02 128.326 395.165 127.979C395.31 127.633 395.383 127.218 395.383 126.735C395.383 126.263 395.312 125.846 395.17 125.485C395.027 125.125 394.817 124.842 394.539 124.637C394.26 124.432 393.916 124.33 393.507 124.33C393.081 124.33 392.725 124.438 392.441 124.654C392.16 124.87 391.948 125.16 391.806 125.524C391.667 125.888 391.597 126.291 391.597 126.735C391.597 127.189 391.668 127.591 391.81 127.941C391.955 128.288 392.168 128.561 392.45 128.76C392.734 128.956 393.086 129.054 393.507 129.054ZM401.726 130.06V121.329H402.732V124.552H402.818C402.892 124.438 402.994 124.293 403.125 124.117C403.258 123.938 403.449 123.779 403.696 123.64C403.946 123.497 404.284 123.426 404.71 123.426C405.262 123.426 405.748 123.564 406.168 123.84C406.589 124.116 406.917 124.506 407.153 125.012C407.389 125.518 407.507 126.115 407.507 126.803C407.507 127.496 407.389 128.097 407.153 128.606C406.917 129.112 406.591 129.504 406.173 129.783C405.755 130.058 405.273 130.196 404.728 130.196C404.307 130.196 403.97 130.127 403.717 129.987C403.464 129.845 403.27 129.685 403.133 129.506C402.997 129.324 402.892 129.173 402.818 129.054H402.698V130.06H401.726ZM402.715 126.786C402.715 127.28 402.788 127.717 402.933 128.095C403.078 128.47 403.289 128.764 403.568 128.977C403.846 129.187 404.188 129.292 404.591 129.292C405.012 129.292 405.363 129.182 405.644 128.96C405.928 128.735 406.141 128.434 406.284 128.056C406.429 127.675 406.501 127.252 406.501 126.786C406.501 126.325 406.43 125.91 406.288 125.541C406.149 125.169 405.937 124.874 405.653 124.658C405.371 124.44 405.017 124.33 404.591 124.33C404.182 124.33 403.838 124.434 403.559 124.641C403.281 124.846 403.071 125.133 402.929 125.503C402.786 125.869 402.715 126.297 402.715 126.786ZM410.052 121.329V130.06H409.046V121.329H410.052ZM414.555 130.196C413.964 130.196 413.445 130.056 412.999 129.774C412.556 129.493 412.209 129.099 411.959 128.593C411.712 128.087 411.588 127.496 411.588 126.82C411.588 126.138 411.712 125.542 411.959 125.034C412.209 124.525 412.556 124.13 412.999 123.848C413.445 123.567 413.964 123.426 414.555 123.426C415.146 123.426 415.664 123.567 416.107 123.848C416.553 124.13 416.9 124.525 417.147 125.034C417.397 125.542 417.522 126.138 417.522 126.82C417.522 127.496 417.397 128.087 417.147 128.593C416.9 129.099 416.553 129.493 416.107 129.774C415.664 130.056 415.146 130.196 414.555 130.196ZM414.555 129.292C415.004 129.292 415.374 129.177 415.664 128.947C415.953 128.717 416.168 128.414 416.307 128.039C416.447 127.664 416.516 127.258 416.516 126.82C416.516 126.382 416.447 125.974 416.307 125.596C416.168 125.218 415.953 124.913 415.664 124.68C415.374 124.447 415.004 124.33 414.555 124.33C414.106 124.33 413.737 124.447 413.447 124.68C413.157 124.913 412.942 125.218 412.803 125.596C412.664 125.974 412.594 126.382 412.594 126.82C412.594 127.258 412.664 127.664 412.803 128.039C412.942 128.414 413.157 128.717 413.447 128.947C413.737 129.177 414.106 129.292 414.555 129.292ZM421.718 130.196C421.104 130.196 420.576 130.051 420.132 129.761C419.689 129.472 419.348 129.072 419.109 128.563C418.871 128.055 418.751 127.474 418.751 126.82C418.751 126.155 418.873 125.568 419.118 125.059C419.365 124.548 419.709 124.148 420.149 123.861C420.593 123.571 421.11 123.426 421.701 123.426C422.162 123.426 422.577 123.512 422.946 123.682C423.316 123.853 423.618 124.091 423.854 124.398C424.09 124.705 424.236 125.063 424.293 125.473H423.287C423.21 125.174 423.04 124.91 422.776 124.68C422.514 124.447 422.162 124.33 421.718 124.33C421.326 124.33 420.982 124.432 420.687 124.637C420.394 124.839 420.165 125.125 420 125.494C419.838 125.861 419.757 126.291 419.757 126.786C419.757 127.292 419.837 127.732 419.996 128.107C420.158 128.482 420.385 128.774 420.678 128.981C420.974 129.189 421.32 129.292 421.718 129.292C421.98 129.292 422.217 129.247 422.43 129.156C422.643 129.065 422.824 128.934 422.972 128.764C423.119 128.593 423.225 128.389 423.287 128.15H424.293C424.236 128.536 424.096 128.885 423.871 129.194C423.649 129.501 423.355 129.746 422.989 129.928C422.625 130.107 422.201 130.196 421.718 130.196ZM426.702 127.672L426.685 126.428H426.889L429.754 123.512H430.999L427.947 126.598H427.861L426.702 127.672ZM425.764 130.06V121.329H426.77V130.06H425.764ZM429.925 130.06L427.367 126.82L428.083 126.121L431.204 130.06H429.925ZM436.932 124.978L436.029 125.234C435.972 125.083 435.888 124.937 435.777 124.795C435.669 124.65 435.521 124.531 435.334 124.437C435.146 124.343 434.906 124.296 434.613 124.296C434.212 124.296 433.879 124.388 433.611 124.573C433.347 124.755 433.215 124.987 433.215 125.268C433.215 125.518 433.306 125.716 433.488 125.861C433.67 126.006 433.954 126.126 434.34 126.223L435.312 126.462C435.898 126.604 436.334 126.821 436.621 127.114C436.908 127.404 437.052 127.778 437.052 128.235C437.052 128.61 436.944 128.946 436.728 129.241C436.515 129.537 436.216 129.77 435.832 129.94C435.449 130.111 435.003 130.196 434.494 130.196C433.826 130.196 433.273 130.051 432.835 129.761C432.398 129.472 432.121 129.048 432.004 128.491L432.959 128.252C433.05 128.605 433.222 128.869 433.475 129.045C433.731 129.221 434.065 129.31 434.477 129.31C434.946 129.31 435.318 129.21 435.594 129.011C435.872 128.809 436.012 128.568 436.012 128.286C436.012 128.059 435.932 127.869 435.773 127.715C435.614 127.559 435.369 127.442 435.04 127.366L433.948 127.11C433.348 126.968 432.908 126.747 432.627 126.449C432.348 126.148 432.209 125.771 432.209 125.319C432.209 124.95 432.313 124.623 432.52 124.339C432.73 124.054 433.016 123.831 433.377 123.669C433.741 123.507 434.153 123.426 434.613 123.426C435.261 123.426 435.77 123.568 436.139 123.853C436.512 124.137 436.776 124.512 436.932 124.978ZM444.859 123.512V124.364H441.329V123.512H444.859ZM442.386 130.06V122.608C442.386 122.233 442.474 121.92 442.65 121.67C442.827 121.42 443.055 121.232 443.337 121.107C443.618 120.982 443.915 120.92 444.228 120.92C444.475 120.92 444.677 120.94 444.833 120.979C444.989 121.019 445.106 121.056 445.183 121.09L444.893 121.96C444.842 121.943 444.77 121.921 444.68 121.896C444.591 121.87 444.475 121.858 444.33 121.858C443.997 121.858 443.757 121.941 443.609 122.109C443.465 122.277 443.392 122.523 443.392 122.847V130.06H442.386ZM448.659 130.196C448.068 130.196 447.549 130.056 447.103 129.774C446.66 129.493 446.313 129.099 446.063 128.593C445.816 128.087 445.692 127.496 445.692 126.82C445.692 126.138 445.816 125.542 446.063 125.034C446.313 124.525 446.66 124.13 447.103 123.848C447.549 123.567 448.068 123.426 448.659 123.426C449.25 123.426 449.768 123.567 450.211 123.848C450.657 124.13 451.004 124.525 451.251 125.034C451.501 125.542 451.626 126.138 451.626 126.82C451.626 127.496 451.501 128.087 451.251 128.593C451.004 129.099 450.657 129.493 450.211 129.774C449.768 130.056 449.25 130.196 448.659 130.196ZM448.659 129.292C449.108 129.292 449.478 129.177 449.768 128.947C450.058 128.717 450.272 128.414 450.411 128.039C450.551 127.664 450.62 127.258 450.62 126.82C450.62 126.382 450.551 125.974 450.411 125.596C450.272 125.218 450.058 124.913 449.768 124.68C449.478 124.447 449.108 124.33 448.659 124.33C448.21 124.33 447.841 124.447 447.551 124.68C447.261 124.913 447.046 125.218 446.907 125.596C446.768 125.974 446.698 126.382 446.698 126.82C446.698 127.258 446.768 127.664 446.907 128.039C447.046 128.414 447.261 128.717 447.551 128.947C447.841 129.177 448.21 129.292 448.659 129.292ZM453.162 130.06V123.512H454.134V124.501H454.202C454.322 124.177 454.538 123.914 454.85 123.712C455.163 123.51 455.515 123.409 455.908 123.409C455.981 123.409 456.074 123.411 456.185 123.414C456.296 123.416 456.379 123.421 456.436 123.426V124.45C456.402 124.441 456.324 124.428 456.202 124.411C456.082 124.391 455.956 124.381 455.822 124.381C455.504 124.381 455.22 124.448 454.97 124.582C454.722 124.712 454.526 124.894 454.381 125.127C454.239 125.358 454.168 125.62 454.168 125.916V130.06H453.162ZM466.871 121.329H467.929V127.11C467.929 127.707 467.788 128.239 467.507 128.708C467.228 129.175 466.834 129.543 466.326 129.813C465.817 130.08 465.22 130.213 464.535 130.213C463.85 130.213 463.253 130.08 462.745 129.813C462.236 129.543 461.841 129.175 461.559 128.708C461.281 128.239 461.142 127.707 461.142 127.11V121.329H462.199V127.024C462.199 127.451 462.293 127.83 462.48 128.163C462.668 128.492 462.935 128.752 463.282 128.943C463.631 129.13 464.049 129.224 464.535 129.224C465.021 129.224 465.439 129.13 465.788 128.943C466.138 128.752 466.405 128.492 466.59 128.163C466.778 127.83 466.871 127.451 466.871 127.024V121.329ZM471.097 121.329V130.06H470.04V121.329H471.097Z" fill="white"/>
</g>
</g>
<defs>
<linearGradient id="paint0_linear_323_29194" x1="81.9157" y1="30.4377" x2="76.6485" y2="21.1243" gradientUnits="userSpaceOnUse">
<stop stop-color="white" stop-opacity="0.4"/>
<stop offset="0.9228" stop-color="white"/>
</linearGradient>
<clipPath id="clip0_323_29194">
<rect width="686" height="160" fill="white"/>
</clipPath>
<clipPath id="clip1_323_29194">
<rect width="686" height="411.6" fill="white" transform="translate(0 -70)"/>
</clipPath>
</defs>
</svg>
