<svg width="686" height="120" viewBox="0 0 686 120" fill="none" xmlns="http://www.w3.org/2000/svg">
<g clip-path="url(#clip0_725_33199)">
<g clip-path="url(#clip1_725_33199)">
<rect width="686" height="411.6" transform="translate(0 -75)" fill="#0E9C28"/>
<g opacity="0.2">
<path d="M466.593 330.151C408.824 240.67 412.633 141.868 450.723 67.3002C488.812 -7.26788 518.015 -63.8171 519.92 -68.1669C521.824 -72.5167 526.268 -74.9999 530.711 -74.9999H674.181C683.069 -74.9999 689.418 -65.6801 684.974 -57.6019C684.974 -57.6019 491.986 320.208 486.907 329.529C483.098 338.85 472.307 338.851 466.593 330.151Z" fill="white"/>
</g>
<path d="M79.1007 30.807C78.7835 31.1488 78.3078 31.1178 78.0858 30.7138L72.9474 20.6161C72.7571 20.2122 73.0426 19.746 73.4866 19.746H80.6549C80.8769 19.746 81.0989 19.8703 81.1941 20.0878C82.7483 23.2259 81.7968 27.9796 79.1007 30.807Z" fill="url(#paint0_linear_725_33199)"/>
<path d="M82.8757 39.9725C79.9893 35.4984 80.1797 30.5583 82.0827 26.8299C83.9858 23.1015 85.4449 20.2741 85.5401 20.0566C85.6352 19.8391 85.8572 19.7149 86.0792 19.7149H93.2475C93.6915 19.7149 94.0088 20.1809 93.7868 20.5848C93.7868 20.5848 84.1444 39.4753 83.8907 39.9414C83.7003 40.4074 83.1612 40.4075 82.8757 39.9725Z" fill="white"/>
<path d="M101.07 22.0327H105.601L108.525 28.1132H108.641L111.565 22.0327H116.096L110.6 32.2935V37H106.566V32.2935L101.07 22.0327ZM121.513 22.0327L124.583 32.5858H124.7L127.769 22.0327H132.359L127.418 37H121.864L116.924 22.0327H121.513ZM133.8 37V22.0327H144.587V25.3068H137.863V27.8793H144.032V31.1534H137.863V33.7259H144.558V37H133.8ZM154.671 26.71C154.632 26.2228 154.449 25.8428 154.122 25.5699C153.801 25.2971 153.311 25.1607 152.654 25.1607C152.235 25.1607 151.891 25.2118 151.623 25.3141C151.36 25.4116 151.165 25.5456 151.038 25.7161C150.912 25.8866 150.846 26.0815 150.841 26.3007C150.831 26.481 150.863 26.6442 150.936 26.7904C151.014 26.9317 151.136 27.0608 151.302 27.1777C151.467 27.2898 151.679 27.3921 151.937 27.4847C152.196 27.5772 152.502 27.6601 152.858 27.7332L154.086 27.9963C154.914 28.1716 155.623 28.4031 156.213 28.6905C156.802 28.978 157.285 29.3166 157.66 29.7064C158.035 30.0913 158.31 30.5249 158.486 31.0072C158.666 31.4896 158.758 32.0158 158.763 32.5858C158.758 33.57 158.512 34.4031 158.025 35.0852C157.538 35.7673 156.841 36.2862 155.935 36.6419C155.034 36.9976 153.95 37.1754 152.683 37.1754C151.382 37.1754 150.247 36.9829 149.277 36.598C148.312 36.2131 147.562 35.6212 147.026 34.8221C146.495 34.0182 146.227 32.9902 146.222 31.7381H150.081C150.105 32.1961 150.22 32.581 150.425 32.8928C150.629 33.2046 150.917 33.4409 151.287 33.6017C151.662 33.7625 152.108 33.8428 152.624 33.8428C153.058 33.8428 153.421 33.7892 153.713 33.6821C154.006 33.5749 154.227 33.4263 154.378 33.2363C154.529 33.0462 154.607 32.8294 154.612 32.5858C154.607 32.3568 154.532 32.1571 154.386 31.9865C154.244 31.8112 154.01 31.6552 153.684 31.5188C153.358 31.3775 152.917 31.246 152.361 31.1242L150.87 30.8026C149.545 30.5152 148.5 30.0352 147.735 29.3629C146.975 28.6857 146.597 27.7624 146.602 26.5931C146.597 25.643 146.851 24.8123 147.362 24.101C147.879 23.3848 148.593 22.8269 149.504 22.4274C150.42 22.0279 151.47 21.8281 152.654 21.8281C153.862 21.8281 154.907 22.0303 155.789 22.4347C156.671 22.8391 157.35 23.4091 157.828 24.1448C158.31 24.8756 158.554 25.7307 158.559 26.71H154.671Z" fill="white"/>
<path d="M168.481 37.0049V22.0376H173.341C174.248 22.0376 175.012 22.1984 175.636 22.52C176.26 22.8415 176.732 23.2922 177.054 23.872C177.38 24.4518 177.544 25.1266 177.544 25.8964C177.544 26.5005 177.446 27.0364 177.251 27.5042C177.056 27.9719 176.784 28.3592 176.433 28.6662C176.087 28.9683 175.68 29.1778 175.212 29.2947V29.3824C175.729 29.4214 176.209 29.6016 176.652 29.9232C177.095 30.2399 177.451 30.6711 177.719 31.2168C177.992 31.7624 178.128 32.3983 178.128 33.1242C178.128 33.8891 177.963 34.5639 177.631 35.1486C177.305 35.7284 176.815 36.1839 176.162 36.5152C175.509 36.8417 174.701 37.0049 173.736 37.0049H168.481ZM169.395 36.1571H173.736C174.861 36.1571 175.726 35.8745 176.33 35.3094C176.939 34.7442 177.244 34.0158 177.244 33.1242C177.244 32.4957 177.095 31.933 176.798 31.436C176.506 30.939 176.099 30.5468 175.578 30.2594C175.056 29.967 174.452 29.8209 173.765 29.8209H169.395V36.1571ZM169.395 28.9877H173.656C174.294 28.9877 174.835 28.8489 175.278 28.5712C175.726 28.2935 176.067 27.9207 176.301 27.453C176.54 26.9853 176.659 26.4664 176.659 25.8964C176.659 24.9706 176.372 24.2374 175.797 23.6966C175.222 23.1558 174.403 22.8854 173.341 22.8854H169.395V28.9877ZM185.789 37.2387C184.776 37.2387 183.894 36.9878 183.144 36.486C182.393 35.9842 181.813 35.2972 181.404 34.4251C180.995 33.553 180.79 32.559 180.79 31.4433C180.79 30.3227 180.995 29.3239 181.404 28.4469C181.818 27.5699 182.386 26.8781 183.107 26.3714C183.828 25.8647 184.651 25.6113 185.577 25.6113C186.206 25.6113 186.8 25.738 187.36 25.9914C187.926 26.2398 188.422 26.6004 188.851 27.073C189.285 27.5456 189.623 28.1156 189.867 28.7831C190.116 29.4506 190.24 30.2009 190.24 31.0341V31.5895H181.353V30.7783H189.348C189.348 29.9646 189.183 29.2314 188.851 28.5785C188.52 27.9256 188.069 27.4067 187.499 27.0218C186.929 26.6369 186.288 26.4445 185.577 26.4445C184.832 26.4445 184.167 26.654 183.582 27.073C183.002 27.4871 182.542 28.0474 182.201 28.7539C181.865 29.4603 181.689 30.2496 181.675 31.1218V31.4872C181.675 32.4226 181.838 33.2631 182.164 34.0085C182.496 34.7491 182.968 35.3362 183.582 35.7698C184.196 36.1985 184.932 36.4129 185.789 36.4129C186.403 36.4129 186.927 36.3106 187.36 36.106C187.799 35.8965 188.157 35.6431 188.435 35.3459C188.712 35.0487 188.922 34.7613 189.063 34.4835L189.874 34.8124C189.704 35.1876 189.438 35.5627 189.078 35.9379C188.722 36.3082 188.269 36.6175 187.718 36.866C187.173 37.1145 186.53 37.2387 185.789 37.2387ZM200.442 28.1985L199.616 28.4177C199.485 28.0084 199.297 27.6552 199.054 27.358C198.81 27.0608 198.503 26.8318 198.133 26.671C197.767 26.5054 197.329 26.4226 196.817 26.4226C195.994 26.4226 195.319 26.6272 194.793 27.0364C194.272 27.4457 194.011 27.9792 194.011 28.6369C194.011 29.1729 194.189 29.6163 194.544 29.967C194.9 30.313 195.443 30.5761 196.174 30.7563L197.899 31.1875C198.786 31.4068 199.453 31.7624 199.901 32.2545C200.35 32.7417 200.574 33.3483 200.574 34.0743C200.574 34.693 200.406 35.2412 200.069 35.7186C199.733 36.1961 199.268 36.5688 198.674 36.8368C198.084 37.1048 197.397 37.2387 196.613 37.2387C195.565 37.2387 194.705 36.9951 194.033 36.5079C193.36 36.0158 192.929 35.3118 192.739 34.3958L193.594 34.1766C193.755 34.9074 194.089 35.4653 194.596 35.8502C195.107 36.2302 195.777 36.4202 196.605 36.4202C197.521 36.4202 198.259 36.2034 198.82 35.7698C199.385 35.3362 199.667 34.7807 199.667 34.1035C199.667 33.5871 199.502 33.151 199.17 32.7953C198.839 32.4397 198.337 32.179 197.665 32.0134L195.874 31.5749C194.958 31.3507 194.272 30.9926 193.814 30.5006C193.356 30.0036 193.127 29.3921 193.127 28.6662C193.127 28.062 193.285 27.531 193.602 27.073C193.918 26.615 194.354 26.2569 194.91 25.9987C195.465 25.7405 196.101 25.6113 196.817 25.6113C197.767 25.6113 198.542 25.8355 199.141 26.2837C199.741 26.7319 200.174 27.3702 200.442 28.1985ZM207.628 25.7794V26.576H202.724V25.7794H207.628ZM204.383 23.09H205.267V34.352C205.267 34.81 205.355 35.1851 205.53 35.4775C205.711 35.7649 205.945 35.9793 206.232 36.1206C206.524 36.257 206.836 36.3252 207.168 36.3252C207.328 36.3252 207.467 36.313 207.584 36.2887C207.706 36.2643 207.82 36.2326 207.928 36.1937L208.147 37.0049C208.01 37.0536 207.859 37.095 207.694 37.1291C207.528 37.1681 207.333 37.1876 207.109 37.1876C206.641 37.1876 206.198 37.0828 205.779 36.8733C205.365 36.6638 205.029 36.3593 204.77 35.9598C204.512 35.5603 204.383 35.0779 204.383 34.5128V23.09ZM217.037 37.0049V22.0376H221.649C222.599 22.0376 223.413 22.2325 224.09 22.6223C224.772 23.012 225.296 23.5455 225.661 24.2228C226.026 24.9 226.209 25.6722 226.209 26.5395C226.209 27.397 226.026 28.1643 225.661 28.8416C225.296 29.5188 224.772 30.0547 224.09 30.4494C223.413 30.8392 222.601 31.0341 221.656 31.0341H217.68V30.1863H221.634C222.404 30.1863 223.062 30.0304 223.607 29.7186C224.153 29.4019 224.572 28.9707 224.864 28.425C225.157 27.8745 225.303 27.2459 225.303 26.5395C225.303 25.8281 225.157 25.1972 224.864 24.6467C224.572 24.0961 224.151 23.6649 223.6 23.3531C223.054 23.0413 222.397 22.8854 221.627 22.8854H217.951V37.0049H217.037ZM229.405 37.0049V25.7794H230.274V27.5334H230.355C230.598 26.9585 231.01 26.4981 231.59 26.1521C232.17 25.8014 232.83 25.626 233.57 25.626C233.648 25.626 233.726 25.626 233.804 25.626C233.882 25.626 233.955 25.6284 234.023 25.6333V26.5322C233.965 26.5273 233.894 26.52 233.812 26.5103C233.734 26.4956 233.636 26.4883 233.519 26.4883C232.896 26.4883 232.34 26.6223 231.853 26.8903C231.371 27.1582 230.991 27.5285 230.713 28.0011C230.435 28.4689 230.296 29.0048 230.296 29.6089V37.0049H229.405ZM239.393 37.2461C238.745 37.2461 238.151 37.1169 237.61 36.8587C237.074 36.6005 236.643 36.2229 236.316 35.7259C235.995 35.229 235.834 34.6248 235.834 33.9135C235.834 33.4458 235.917 33.0341 236.083 32.6784C236.248 32.3227 236.504 32.0158 236.85 31.7576C237.196 31.4993 237.639 31.2874 238.18 31.1218C238.721 30.9512 239.366 30.8197 240.117 30.7271C240.687 30.6589 241.196 30.5931 241.644 30.5298C242.092 30.4616 242.443 30.3568 242.697 30.2155C242.955 30.0742 243.084 29.8599 243.084 29.5724V29.1047C243.084 28.2862 242.826 27.6357 242.309 27.1534C241.793 26.671 241.081 26.4299 240.175 26.4299C239.371 26.4299 238.694 26.6077 238.143 26.9634C237.598 27.3142 237.215 27.7673 236.996 28.3227L236.156 28.0084C236.37 27.4725 236.679 27.0267 237.084 26.671C237.493 26.3154 237.961 26.0498 238.487 25.8744C239.018 25.699 239.573 25.6113 240.153 25.6113C240.655 25.6113 241.133 25.682 241.586 25.8233C242.044 25.9646 242.45 26.1789 242.806 26.4664C243.167 26.7539 243.452 27.1217 243.661 27.5699C243.871 28.0133 243.975 28.5444 243.975 29.1631V37.0049H243.084V34.9805H243.018C242.823 35.3995 242.555 35.782 242.214 36.1279C241.878 36.4689 241.471 36.7418 240.994 36.9464C240.521 37.1462 239.988 37.2461 239.393 37.2461ZM239.481 36.4202C240.182 36.4202 240.804 36.2497 241.344 35.9086C241.89 35.5627 242.316 35.0901 242.623 34.4908C242.93 33.8916 243.084 33.2119 243.084 32.4519V30.8002C242.972 30.8976 242.809 30.9853 242.594 31.0633C242.385 31.1364 242.146 31.2021 241.878 31.2606C241.615 31.3142 241.337 31.3629 241.045 31.4068C240.757 31.4457 240.477 31.4823 240.204 31.5164C239.386 31.6138 238.718 31.7649 238.202 31.9695C237.69 32.1693 237.315 32.4324 237.076 32.7588C236.843 33.0852 236.726 33.4799 236.726 33.9427C236.726 34.7077 236.989 35.3118 237.515 35.7552C238.041 36.1985 238.696 36.4202 239.481 36.4202ZM251.923 37.2387C250.968 37.2387 250.128 36.9878 249.402 36.486C248.676 35.9793 248.108 35.2874 247.699 34.4105C247.295 33.5335 247.092 32.5395 247.092 31.4287C247.092 30.3178 247.297 29.3239 247.706 28.4469C248.116 27.5699 248.683 26.8781 249.409 26.3714C250.135 25.8647 250.971 25.6113 251.916 25.6113C252.627 25.6113 253.275 25.7575 253.86 26.0498C254.449 26.3422 254.937 26.749 255.322 27.2703C255.711 27.7916 255.96 28.3958 256.067 29.0828H255.161C255.015 28.3227 254.649 27.6942 254.064 27.1972C253.485 26.6954 252.771 26.4445 251.923 26.4445C251.163 26.4445 250.486 26.6589 249.891 27.0876C249.297 27.5115 248.829 28.0986 248.488 28.8489C248.147 29.5943 247.977 30.4494 247.977 31.4141C247.977 32.3642 248.142 33.2168 248.474 33.972C248.805 34.7223 249.268 35.3167 249.862 35.7552C250.457 36.1937 251.144 36.4129 251.923 36.4129C252.474 36.4129 252.976 36.3033 253.429 36.084C253.887 35.8648 254.269 35.553 254.576 35.1486C254.883 34.7442 255.085 34.2716 255.183 33.7308H256.089C255.982 34.4226 255.738 35.0317 255.358 35.5579C254.978 36.084 254.493 36.4957 253.904 36.7929C253.314 37.0901 252.654 37.2387 251.923 37.2387ZM263.097 25.7794V26.576H258.194V25.7794H263.097ZM259.853 23.09H260.737V34.352C260.737 34.81 260.825 35.1851 261 35.4775C261.18 35.7649 261.414 35.9793 261.702 36.1206C261.994 36.257 262.306 36.3252 262.637 36.3252C262.798 36.3252 262.937 36.313 263.054 36.2887C263.175 36.2643 263.29 36.2326 263.397 36.1937L263.616 37.0049C263.48 37.0536 263.329 37.095 263.163 37.1291C262.998 37.1681 262.803 37.1876 262.579 37.1876C262.111 37.1876 261.667 37.0828 261.248 36.8733C260.834 36.6638 260.498 36.3593 260.24 35.9598C259.982 35.5603 259.853 35.0779 259.853 34.5128V23.09ZM266.448 37.0049V25.7794H267.333V37.0049H266.448ZM266.894 23.7916C266.699 23.7916 266.529 23.7234 266.383 23.587C266.241 23.4505 266.171 23.2849 266.171 23.09C266.171 22.8951 266.241 22.7295 266.383 22.593C266.524 22.4566 266.694 22.3884 266.894 22.3884C267.089 22.3884 267.257 22.4566 267.398 22.593C267.545 22.7295 267.618 22.8951 267.618 23.09C267.618 23.2849 267.547 23.4505 267.406 23.587C267.264 23.7234 267.094 23.7916 266.894 23.7916ZM275.277 37.2387C274.322 37.2387 273.481 36.9878 272.755 36.486C272.029 35.9793 271.462 35.2874 271.052 34.4105C270.648 33.5335 270.446 32.5395 270.446 31.4287C270.446 30.3178 270.651 29.3239 271.06 28.4469C271.469 27.5699 272.037 26.8781 272.763 26.3714C273.489 25.8647 274.324 25.6113 275.269 25.6113C275.981 25.6113 276.629 25.7575 277.213 26.0498C277.803 26.3422 278.29 26.749 278.675 27.2703C279.065 27.7916 279.313 28.3958 279.42 29.0828H278.514C278.368 28.3227 278.003 27.6942 277.418 27.1972C276.838 26.6954 276.124 26.4445 275.277 26.4445C274.517 26.4445 273.839 26.6589 273.245 27.0876C272.651 27.5115 272.183 28.0986 271.842 28.8489C271.501 29.5943 271.33 30.4494 271.33 31.4141C271.33 32.3642 271.496 33.2168 271.827 33.972C272.158 34.7223 272.621 35.3167 273.216 35.7552C273.81 36.1937 274.497 36.4129 275.277 36.4129C275.827 36.4129 276.329 36.3033 276.782 36.084C277.24 35.8648 277.623 35.553 277.93 35.1486C278.236 34.7442 278.439 34.2716 278.536 33.7308H279.442C279.335 34.4226 279.092 35.0317 278.712 35.5579C278.331 36.084 277.847 36.4957 277.257 36.7929C276.668 37.0901 276.007 37.2387 275.277 37.2387ZM286.86 37.2387C285.847 37.2387 284.965 36.9878 284.215 36.486C283.464 35.9842 282.885 35.2972 282.475 34.4251C282.066 33.553 281.861 32.559 281.861 31.4433C281.861 30.3227 282.066 29.3239 282.475 28.4469C282.889 27.5699 283.457 26.8781 284.178 26.3714C284.899 25.8647 285.723 25.6113 286.648 25.6113C287.277 25.6113 287.871 25.738 288.431 25.9914C288.997 26.2398 289.494 26.6004 289.922 27.073C290.356 27.5456 290.695 28.1156 290.938 28.7831C291.187 29.4506 291.311 30.2009 291.311 31.0341V31.5895H282.424V30.7783H290.419C290.419 29.9646 290.254 29.2314 289.922 28.5785C289.591 27.9256 289.14 27.4067 288.57 27.0218C288 26.6369 287.36 26.4445 286.648 26.4445C285.903 26.4445 285.238 26.654 284.653 27.073C284.073 27.4871 283.613 28.0474 283.272 28.7539C282.936 29.4603 282.76 30.2496 282.746 31.1218V31.4872C282.746 32.4226 282.909 33.2631 283.235 34.0085C283.567 34.7491 284.039 35.3362 284.653 35.7698C285.267 36.1985 286.003 36.4129 286.86 36.4129C287.474 36.4129 287.998 36.3106 288.431 36.106C288.87 35.8965 289.228 35.6431 289.506 35.3459C289.783 35.0487 289.993 34.7613 290.134 34.4835L290.946 34.8124C290.775 35.1876 290.509 35.5627 290.149 35.9379C289.793 36.3082 289.34 36.6175 288.79 36.866C288.244 37.1145 287.601 37.2387 286.86 37.2387Z" fill="white"/>
<path d="M79.7056 59.9191V60.4646H74.5238V59.9191H79.7056ZM76.3306 73.01V57.7714C76.3306 57.1577 76.467 56.6265 76.7397 56.1776C77.0181 55.7288 77.3846 55.3822 77.8392 55.1379C78.2994 54.8935 78.7965 54.7714 79.3306 54.7714C79.5352 54.7714 79.7198 54.7884 79.8846 54.8225C80.0494 54.8566 80.2113 54.9021 80.3704 54.9589L80.2 55.4702C80.0579 55.4248 79.9187 55.3878 79.7823 55.3594C79.646 55.331 79.4954 55.3168 79.3306 55.3168C78.6772 55.3168 78.1034 55.5356 77.609 55.9731C77.1204 56.4106 76.8761 57.01 76.8761 57.7714L76.859 73.01H76.3306ZM87.2482 73.2827C86.2198 73.2827 85.2965 72.9873 84.4784 72.3964C83.6602 71.7998 83.0125 70.9901 82.5352 69.9674C82.0636 68.939 81.8278 67.7827 81.8278 66.4986C81.8278 65.2089 82.0636 64.0526 82.5352 63.0299C83.0125 62.0072 83.6602 61.2004 84.4784 60.6094C85.2965 60.0128 86.2198 59.7146 87.2482 59.7146C88.2767 59.7146 89.1971 60.0128 90.0096 60.6094C90.8278 61.206 91.4755 62.0157 91.9528 63.0384C92.4301 64.0611 92.6687 65.2146 92.6687 66.4986C92.6687 67.7827 92.4301 68.939 91.9528 69.9674C91.4812 70.9901 90.8363 71.7998 90.0181 72.3964C89.2 72.9873 88.2767 73.2827 87.2482 73.2827ZM87.2482 72.7373C88.1744 72.7373 89.0039 72.4646 89.7369 71.9191C90.4755 71.3736 91.0579 70.6293 91.484 69.6861C91.9102 68.743 92.1232 67.6805 92.1232 66.4986C92.1232 65.3168 91.9073 64.2572 91.4755 63.3197C91.0494 62.3765 90.4698 61.6322 89.7369 61.0867C89.0039 60.5356 88.1744 60.26 87.2482 60.26C86.3278 60.26 85.4982 60.5356 84.7596 61.0867C84.0267 61.6322 83.4443 62.3765 83.0125 63.3197C82.5863 64.2572 82.3732 65.3168 82.3732 66.4986C82.3732 67.6805 82.5863 68.743 83.0125 69.6861C83.4386 70.6293 84.0181 71.3736 84.7511 71.9191C85.4897 72.4646 86.3221 72.7373 87.2482 72.7373ZM96.5103 73.01V59.9191H97.0558V61.9986H97.124C97.4308 61.3168 97.9336 60.7714 98.6325 60.3623C99.337 59.9532 100.141 59.7486 101.044 59.7486C101.113 59.7486 101.158 59.7486 101.181 59.7486C101.204 59.7486 101.249 59.7486 101.317 59.7486V60.2941C101.249 60.2941 101.204 60.2941 101.181 60.2941C101.158 60.2941 101.113 60.2941 101.044 60.2941C100.272 60.2941 99.5842 60.4617 98.9819 60.7969C98.3853 61.1322 97.9137 61.5952 97.5671 62.1861C97.2262 62.7771 97.0558 63.4532 97.0558 64.2146V73.01H96.5103ZM110.664 73.01V55.5555H113.298V63.1407H122V55.5555H124.642V73.01H122V65.3992H113.298V73.01H110.664ZM136.565 67.581V59.9191H139.122V73.01H136.616V70.743H136.48C136.179 71.4418 135.696 72.0242 135.031 72.4901C134.372 72.9504 133.551 73.1805 132.568 73.1805C131.727 73.1805 130.983 72.9958 130.335 72.6265C129.693 72.2515 129.187 71.6975 128.818 70.9646C128.454 70.2316 128.272 69.3254 128.272 68.2458V59.9191H130.821V67.939C130.821 68.831 131.068 69.5413 131.562 70.0697C132.056 70.5981 132.699 70.8623 133.488 70.8623C133.966 70.8623 134.44 70.743 134.912 70.5043C135.389 70.2657 135.784 69.9049 136.096 69.4219C136.414 68.939 136.571 68.3254 136.565 67.581ZM142.546 73.01V59.9191H144.992V62.0498H145.154C145.427 61.3282 145.873 60.7657 146.492 60.3623C147.111 59.9532 147.853 59.7486 148.716 59.7486C149.591 59.7486 150.324 59.9532 150.915 60.3623C151.512 60.7714 151.952 61.3339 152.236 62.0498H152.373C152.685 61.3509 153.182 60.7941 153.864 60.3793C154.546 59.9589 155.358 59.7486 156.302 59.7486C157.489 59.7486 158.458 60.1208 159.208 60.8651C159.963 61.6094 160.341 62.7316 160.341 64.2316V73.01H157.793V64.4702C157.793 63.5839 157.552 62.9418 157.069 62.5441C156.586 62.1464 156.009 61.9475 155.338 61.9475C154.509 61.9475 153.864 62.2032 153.404 62.7146C152.944 63.2202 152.713 63.8708 152.713 64.6663V73.01H150.174V64.3083C150.174 63.5981 149.952 63.0271 149.509 62.5952C149.066 62.1634 148.489 61.9475 147.779 61.9475C147.296 61.9475 146.85 62.0754 146.441 62.331C146.037 62.581 145.711 62.9305 145.461 63.3793C145.216 63.8282 145.094 64.3481 145.094 64.939V73.01H142.546ZM167.566 73.2998C166.737 73.2998 165.987 73.1464 165.316 72.8396C164.646 72.5271 164.115 72.0754 163.723 71.4844C163.336 70.8935 163.143 70.1691 163.143 69.3111C163.143 68.5725 163.285 67.9646 163.569 67.4873C163.853 67.01 164.237 66.6322 164.72 66.3538C165.203 66.0754 165.743 65.8651 166.339 65.7231C166.936 65.581 167.544 65.4731 168.163 65.3992C168.947 65.3083 169.583 65.2344 170.072 65.1776C170.561 65.1151 170.916 65.0157 171.137 64.8793C171.359 64.743 171.47 64.5214 171.47 64.2146V64.1549C171.47 63.4106 171.26 62.8339 170.839 62.4248C170.424 62.0157 169.805 61.8111 168.981 61.8111C168.123 61.8111 167.447 62.0015 166.953 62.3822C166.464 62.7572 166.126 63.1748 165.939 63.635L163.544 63.0896C163.828 62.2941 164.243 61.6521 164.788 61.1634C165.339 60.6691 165.973 60.3111 166.689 60.0896C167.404 59.8623 168.157 59.7486 168.947 59.7486C169.47 59.7486 170.024 59.8111 170.609 59.9361C171.2 60.0555 171.751 60.2771 172.262 60.6009C172.779 60.9248 173.203 61.3879 173.532 61.9901C173.862 62.5867 174.027 63.3623 174.027 64.3168V73.01H171.538V71.2202H171.436C171.271 71.5498 171.024 71.8736 170.694 72.1918C170.365 72.51 169.941 72.7742 169.424 72.9844C168.907 73.1947 168.288 73.2998 167.566 73.2998ZM168.12 71.2543C168.825 71.2543 169.427 71.1151 169.927 70.8367C170.433 70.5583 170.816 70.1947 171.078 69.7458C171.345 69.2913 171.478 68.8055 171.478 68.2884V66.6009C171.387 66.6918 171.211 66.7771 170.95 66.8566C170.694 66.9305 170.402 66.9958 170.072 67.0526C169.743 67.1038 169.422 67.1521 169.109 67.1975C168.797 67.2373 168.535 67.2714 168.325 67.2998C167.831 67.3623 167.379 67.4674 166.97 67.6151C166.566 67.7629 166.243 67.9759 165.998 68.2543C165.76 68.5271 165.64 68.8907 165.64 69.3452C165.64 69.9759 165.873 70.4532 166.339 70.7771C166.805 71.0952 167.399 71.2543 168.12 71.2543ZM179.969 65.2373V73.01H177.421V59.9191H179.867V62.0498H180.029C180.33 61.3566 180.802 60.7998 181.444 60.3793C182.091 59.9589 182.907 59.7486 183.89 59.7486C184.782 59.7486 185.563 59.9361 186.233 60.3111C186.904 60.6805 187.424 61.2316 187.793 61.9646C188.162 62.6975 188.347 63.6038 188.347 64.6833V73.01H185.799V64.9901C185.799 64.0413 185.552 63.2998 185.057 62.7657C184.563 62.2259 183.884 61.956 183.02 61.956C182.429 61.956 181.904 62.0839 181.444 62.3396C180.989 62.5952 180.628 62.9702 180.361 63.4646C180.1 63.9532 179.969 64.5441 179.969 65.2373ZM198.321 73.01V55.5555H204.542C205.895 55.5555 207.017 55.7884 207.909 56.2543C208.806 56.7202 209.477 57.3651 209.92 58.189C210.363 59.0072 210.585 59.9532 210.585 61.0271C210.585 62.0952 210.36 63.0356 209.912 63.8481C209.468 64.6549 208.798 65.2827 207.9 65.7316C207.008 66.1805 205.886 66.4049 204.534 66.4049H199.821V64.1379H204.295C205.147 64.1379 205.841 64.0157 206.375 63.7714C206.914 63.5271 207.309 63.1719 207.559 62.706C207.809 62.2401 207.934 61.6805 207.934 61.0271C207.934 60.368 207.806 59.7969 207.551 59.314C207.301 58.831 206.906 58.4617 206.366 58.206C205.832 57.9447 205.13 57.814 204.261 57.814H200.954V73.01H198.321ZM206.937 65.135L211.25 73.01H208.25L204.022 65.135H206.937ZM219.063 73.2742C217.773 73.2742 216.662 72.9986 215.73 72.4475C214.804 71.8907 214.088 71.1094 213.583 70.1038C213.083 69.0924 212.833 67.9077 212.833 66.5498C212.833 65.2089 213.083 64.0271 213.583 63.0043C214.088 61.9816 214.793 61.1833 215.696 60.6094C216.605 60.0356 217.668 59.7486 218.884 59.7486C219.623 59.7486 220.338 59.8708 221.032 60.1151C221.725 60.3594 222.347 60.743 222.898 61.2657C223.449 61.7884 223.884 62.4674 224.202 63.3026C224.52 64.1322 224.679 65.1407 224.679 66.3282V67.2316H214.273V65.3225H222.182C222.182 64.6521 222.046 64.0583 221.773 63.5413C221.5 63.0185 221.117 62.6066 220.623 62.3055C220.134 62.0043 219.56 61.8538 218.901 61.8538C218.185 61.8538 217.56 62.0299 217.026 62.3822C216.498 62.7288 216.088 63.1833 215.799 63.7458C215.515 64.3026 215.373 64.9077 215.373 65.5611V67.0526C215.373 67.9276 215.526 68.6719 215.833 69.2856C216.145 69.8992 216.58 70.368 217.137 70.6918C217.694 71.01 218.344 71.1691 219.088 71.1691C219.571 71.1691 220.012 71.1009 220.409 70.9646C220.807 70.8225 221.151 70.6123 221.441 70.3339C221.73 70.0555 221.952 69.7117 222.105 69.3026L224.517 69.7373C224.324 70.4475 223.978 71.0697 223.478 71.6038C222.983 72.1322 222.361 72.5441 221.611 72.8396C220.867 73.1293 220.017 73.2742 219.063 73.2742ZM237.316 63.1151L235.007 63.5242C234.91 63.2288 234.757 62.9475 234.547 62.6805C234.342 62.4134 234.064 62.1947 233.711 62.0242C233.359 61.8538 232.919 61.7685 232.39 61.7685C231.669 61.7685 231.066 61.9305 230.583 62.2543C230.101 62.5725 229.859 62.9844 229.859 63.4901C229.859 63.9276 230.021 64.2799 230.345 64.5469C230.669 64.814 231.191 65.0327 231.913 65.2032L233.993 65.6805C235.197 65.9589 236.095 66.3879 236.686 66.9674C237.277 67.5469 237.572 68.2998 237.572 69.2259C237.572 70.01 237.345 70.7089 236.89 71.3225C236.441 71.9305 235.814 72.4077 235.007 72.7543C234.206 73.1009 233.277 73.2742 232.22 73.2742C230.754 73.2742 229.558 72.9617 228.632 72.3367C227.706 71.706 227.137 70.8111 226.927 69.6521L229.39 69.2771C229.544 69.9191 229.859 70.4049 230.336 70.7344C230.814 71.0583 231.436 71.2202 232.203 71.2202C233.038 71.2202 233.706 71.0469 234.206 70.7004C234.706 70.3481 234.956 69.9191 234.956 69.4134C234.956 69.0043 234.802 68.6606 234.495 68.3822C234.194 68.1038 233.731 67.8935 233.106 67.7515L230.89 67.2657C229.669 66.9873 228.765 66.5441 228.18 65.9361C227.601 65.3282 227.311 64.5583 227.311 63.6265C227.311 62.8538 227.527 62.1776 227.958 61.5981C228.39 61.0185 228.987 60.5668 229.748 60.243C230.51 59.9134 231.382 59.7486 232.365 59.7486C233.779 59.7486 234.893 60.0555 235.706 60.6691C236.518 61.2771 237.055 62.0924 237.316 63.1151ZM245.888 73.2742C244.661 73.2742 243.59 72.993 242.675 72.4305C241.76 71.868 241.05 71.081 240.544 70.0697C240.039 69.0583 239.786 67.8765 239.786 66.5242C239.786 65.1663 240.039 63.9788 240.544 62.9617C241.05 61.9447 241.76 61.1549 242.675 60.5924C243.59 60.0299 244.661 59.7486 245.888 59.7486C247.115 59.7486 248.186 60.0299 249.101 60.5924C250.016 61.1549 250.726 61.9447 251.232 62.9617C251.738 63.9788 251.99 65.1663 251.99 66.5242C251.99 67.8765 251.738 69.0583 251.232 70.0697C250.726 71.081 250.016 71.868 249.101 72.4305C248.186 72.993 247.115 73.2742 245.888 73.2742ZM245.897 71.135C246.692 71.135 247.351 70.9248 247.874 70.5043C248.397 70.0839 248.783 69.5242 249.033 68.8254C249.289 68.1265 249.417 67.3566 249.417 66.5157C249.417 65.6805 249.289 64.9134 249.033 64.2146C248.783 63.51 248.397 62.9447 247.874 62.5185C247.351 62.0924 246.692 61.8793 245.897 61.8793C245.096 61.8793 244.431 62.0924 243.902 62.5185C243.38 62.9447 242.99 63.51 242.735 64.2146C242.485 64.9134 242.36 65.6805 242.36 66.5157C242.36 67.3566 242.485 68.1265 242.735 68.8254C242.99 69.5242 243.38 70.0839 243.902 70.5043C244.431 70.9248 245.096 71.135 245.897 71.135ZM263.128 67.581V59.9191H265.684V73.01H263.179V70.743H263.042C262.741 71.4418 262.258 72.0242 261.593 72.4901C260.934 72.9504 260.113 73.1805 259.13 73.1805C258.289 73.1805 257.545 72.9958 256.897 72.6265C256.255 72.2515 255.75 71.6975 255.38 70.9646C255.017 70.2316 254.835 69.3254 254.835 68.2458V59.9191H257.383V67.939C257.383 68.831 257.63 69.5413 258.125 70.0697C258.619 70.5981 259.261 70.8623 260.051 70.8623C260.528 70.8623 261.003 70.743 261.474 70.5043C261.951 70.2657 262.346 69.9049 262.659 69.4219C262.977 68.939 263.133 68.3254 263.128 67.581ZM269.108 73.01V59.9191H271.571V61.9986H271.708C271.946 61.2941 272.367 60.7401 272.969 60.3367C273.577 59.9276 274.265 59.7231 275.032 59.7231C275.191 59.7231 275.378 59.7288 275.594 59.7401C275.816 59.7515 275.989 59.7657 276.114 59.7827V62.2202C276.012 62.1918 275.83 62.1606 275.569 62.1265C275.307 62.0867 275.046 62.0668 274.784 62.0668C274.182 62.0668 273.645 62.1947 273.174 62.4504C272.708 62.7004 272.338 63.0498 272.066 63.4986C271.793 63.9418 271.657 64.4475 271.657 65.0157V73.01H269.108ZM283.365 73.2742C282.098 73.2742 281.007 72.9873 280.092 72.4134C279.183 71.8339 278.484 71.0356 277.995 70.0185C277.507 69.0015 277.262 67.8367 277.262 66.5242C277.262 65.1947 277.512 64.0214 278.012 63.0043C278.512 61.9816 279.217 61.1833 280.126 60.6094C281.035 60.0356 282.106 59.7486 283.339 59.7486C284.333 59.7486 285.22 59.9333 285.998 60.3026C286.777 60.6663 287.404 61.1776 287.882 61.8367C288.365 62.4958 288.652 63.2657 288.743 64.1464H286.262C286.126 63.5327 285.814 63.0043 285.325 62.5611C284.842 62.118 284.194 61.8964 283.382 61.8964C282.672 61.8964 282.049 62.0839 281.515 62.4589C280.987 62.8282 280.575 63.3566 280.279 64.0441C279.984 64.7259 279.836 65.5327 279.836 66.4646C279.836 67.4191 279.981 68.243 280.271 68.9361C280.561 69.6293 280.97 70.1663 281.498 70.5469C282.032 70.9276 282.66 71.118 283.382 71.118C283.865 71.118 284.302 71.0299 284.694 70.8538C285.092 70.6719 285.424 70.4134 285.691 70.0782C285.964 69.743 286.154 69.3396 286.262 68.868H288.743C288.652 69.7146 288.376 70.4702 287.916 71.135C287.456 71.7998 286.839 72.3225 286.066 72.7032C285.299 73.0839 284.399 73.2742 283.365 73.2742ZM297.11 73.2742C295.82 73.2742 294.709 72.9986 293.777 72.4475C292.851 71.8907 292.135 71.1094 291.63 70.1038C291.13 69.0924 290.88 67.9077 290.88 66.5498C290.88 65.2089 291.13 64.0271 291.63 63.0043C292.135 61.9816 292.84 61.1833 293.743 60.6094C294.652 60.0356 295.715 59.7486 296.931 59.7486C297.669 59.7486 298.385 59.8708 299.079 60.1151C299.772 60.3594 300.394 60.743 300.945 61.2657C301.496 61.7884 301.931 62.4674 302.249 63.3026C302.567 64.1322 302.726 65.1407 302.726 66.3282V67.2316H292.32V65.3225H300.229C300.229 64.6521 300.093 64.0583 299.82 63.5413C299.547 63.0185 299.164 62.6066 298.669 62.3055C298.181 62.0043 297.607 61.8538 296.948 61.8538C296.232 61.8538 295.607 62.0299 295.073 62.3822C294.544 62.7288 294.135 63.1833 293.846 63.7458C293.561 64.3026 293.419 64.9077 293.419 65.5611V67.0526C293.419 67.9276 293.573 68.6719 293.88 69.2856C294.192 69.8992 294.627 70.368 295.184 70.6918C295.74 71.01 296.391 71.1691 297.135 71.1691C297.618 71.1691 298.059 71.1009 298.456 70.9646C298.854 70.8225 299.198 70.6123 299.488 70.3339C299.777 70.0555 299.999 69.7117 300.152 69.3026L302.564 69.7373C302.371 70.4475 302.025 71.0697 301.525 71.6038C301.03 72.1322 300.408 72.5441 299.658 72.8396C298.914 73.1293 298.064 73.2742 297.11 73.2742ZM315.363 63.1151L313.054 63.5242C312.957 63.2288 312.804 62.9475 312.593 62.6805C312.389 62.4134 312.11 62.1947 311.758 62.0242C311.406 61.8538 310.966 61.7685 310.437 61.7685C309.716 61.7685 309.113 61.9305 308.63 62.2543C308.147 62.5725 307.906 62.9844 307.906 63.4901C307.906 63.9276 308.068 64.2799 308.392 64.5469C308.716 64.814 309.238 65.0327 309.96 65.2032L312.039 65.6805C313.244 65.9589 314.142 66.3879 314.733 66.9674C315.324 67.5469 315.619 68.2998 315.619 69.2259C315.619 70.01 315.392 70.7089 314.937 71.3225C314.488 71.9305 313.86 72.4077 313.054 72.7543C312.253 73.1009 311.324 73.2742 310.267 73.2742C308.801 73.2742 307.605 72.9617 306.679 72.3367C305.753 71.706 305.184 70.8111 304.974 69.6521L307.437 69.2771C307.591 69.9191 307.906 70.4049 308.383 70.7344C308.86 71.0583 309.483 71.2202 310.25 71.2202C311.085 71.2202 311.753 71.0469 312.253 70.7004C312.753 70.3481 313.003 69.9191 313.003 69.4134C313.003 69.0043 312.849 68.6606 312.542 68.3822C312.241 68.1038 311.778 67.8935 311.153 67.7515L308.937 67.2657C307.716 66.9873 306.812 66.5441 306.227 65.9361C305.647 65.3282 305.358 64.5583 305.358 63.6265C305.358 62.8538 305.574 62.1776 306.005 61.5981C306.437 61.0185 307.034 60.5668 307.795 60.243C308.556 59.9134 309.429 59.7486 310.412 59.7486C311.826 59.7486 312.94 60.0555 313.753 60.6691C314.565 61.2771 315.102 62.0924 315.363 63.1151ZM326.185 73.01V55.5555H331.299C332.276 55.5555 333.14 55.7742 333.89 56.2117C334.645 56.6492 335.236 57.2515 335.662 58.0185C336.094 58.7856 336.31 59.6691 336.31 60.6691C336.31 61.6577 336.094 62.5356 335.662 63.3026C335.236 64.064 334.645 64.6634 333.89 65.1009C333.14 65.5327 332.276 65.7486 331.299 65.7486H326.458V65.2032H331.299C332.174 65.2032 332.946 65.01 333.617 64.6236C334.287 64.2373 334.813 63.7032 335.194 63.0214C335.574 62.3396 335.765 61.5555 335.765 60.6691C335.765 59.7771 335.574 58.9873 335.194 58.2998C334.813 57.6123 334.287 57.0753 333.617 56.689C332.946 56.2969 332.174 56.1009 331.299 56.1009H326.73V73.01H326.185ZM340.331 73.01V59.9191H340.876V61.9986H340.944C341.251 61.3168 341.754 60.7714 342.453 60.3623C343.157 59.9532 343.961 59.7486 344.865 59.7486C344.933 59.7486 344.978 59.7486 345.001 59.7486C345.024 59.7486 345.069 59.7486 345.137 59.7486V60.2941C345.069 60.2941 345.024 60.2941 345.001 60.2941C344.978 60.2941 344.933 60.2941 344.865 60.2941C344.092 60.2941 343.404 60.4617 342.802 60.7969C342.206 61.1322 341.734 61.5952 341.387 62.1861C341.047 62.7771 340.876 63.4532 340.876 64.2146V73.01H340.331ZM352.373 73.2827C351.345 73.2827 350.422 72.9873 349.603 72.3964C348.785 71.7998 348.137 70.9901 347.66 69.9674C347.189 68.939 346.953 67.7827 346.953 66.4986C346.953 65.2089 347.189 64.0526 347.66 63.0299C348.137 62.0072 348.785 61.2004 349.603 60.6094C350.422 60.0128 351.345 59.7146 352.373 59.7146C353.402 59.7146 354.322 60.0128 355.135 60.6094C355.953 61.206 356.601 62.0157 357.078 63.0384C357.555 64.0611 357.794 65.2146 357.794 66.4986C357.794 67.7827 357.555 68.939 357.078 69.9674C356.606 70.9901 355.961 71.7998 355.143 72.3964C354.325 72.9873 353.402 73.2827 352.373 73.2827ZM352.373 72.7373C353.299 72.7373 354.129 72.4646 354.862 71.9191C355.601 71.3736 356.183 70.6293 356.609 69.6861C357.035 68.743 357.248 67.6805 357.248 66.4986C357.248 65.3168 357.032 64.2572 356.601 63.3197C356.174 62.3765 355.595 61.6322 354.862 61.0867C354.129 60.5356 353.299 60.26 352.373 60.26C351.453 60.26 350.623 60.5356 349.885 61.0867C349.152 61.6322 348.569 62.3765 348.137 63.3197C347.711 64.2572 347.498 65.3168 347.498 66.4986C347.498 67.6805 347.711 68.743 348.137 69.6861C348.564 70.6293 349.143 71.3736 349.876 71.9191C350.615 72.4646 351.447 72.7373 352.373 72.7373ZM365.897 73.2827C364.863 73.2827 363.968 72.9873 363.212 72.3964C362.456 71.7998 361.874 70.9901 361.465 69.9674C361.056 68.9447 360.851 67.7884 360.851 66.4986C360.851 65.2146 361.059 64.0611 361.473 63.0384C361.888 62.0157 362.473 61.206 363.229 60.6094C363.985 60.0128 364.874 59.7146 365.897 59.7146C366.59 59.7146 367.229 59.8594 367.814 60.1492C368.4 60.4333 368.908 60.8424 369.34 61.3765C369.772 61.9049 370.101 62.5327 370.329 63.26H370.397V55.5555H370.942V73.01H370.397V69.7373H370.329C370.09 70.4589 369.757 71.0867 369.331 71.6208C368.905 72.1492 368.4 72.5583 367.814 72.8481C367.235 73.1379 366.596 73.2827 365.897 73.2827ZM365.897 72.7373C366.823 72.7373 367.621 72.4646 368.292 71.9191C368.968 71.368 369.488 70.6236 369.851 69.6861C370.215 68.743 370.397 67.6805 370.397 66.4986C370.397 65.3168 370.212 64.2572 369.843 63.3197C369.479 62.3765 368.959 61.6322 368.283 61.0867C367.613 60.5356 366.817 60.26 365.897 60.26C364.976 60.26 364.178 60.5356 363.502 61.0867C362.831 61.6322 362.311 62.3765 361.942 63.3197C361.579 64.2572 361.397 65.3168 361.397 66.4986C361.397 67.6805 361.579 68.743 361.942 69.6861C362.306 70.6236 362.823 71.368 363.493 71.9191C364.169 72.4646 364.971 72.7373 365.897 72.7373ZM384.434 68.7146V59.9191H384.979V73.01H384.434V70.9305H384.365C384.059 71.6123 383.553 72.1577 382.848 72.5668C382.15 72.9759 381.348 73.1805 380.445 73.1805C379.57 73.1805 378.797 72.9901 378.127 72.6094C377.456 72.2288 376.931 71.7032 376.55 71.0327C376.169 70.3623 375.979 69.5896 375.979 68.7146V59.9191H376.525V68.7146C376.525 69.8736 376.888 70.8168 377.615 71.5441C378.343 72.2714 379.286 72.635 380.445 72.635C381.218 72.635 381.902 72.4674 382.499 72.1322C383.101 71.7969 383.573 71.3339 383.914 70.743C384.26 70.1521 384.434 69.4759 384.434 68.7146ZM394.324 73.2827C393.267 73.2827 392.324 72.9873 391.495 72.3964C390.671 71.7998 390.02 70.9901 389.543 69.9674C389.071 68.9447 388.836 67.7884 388.836 66.4986C388.836 65.2202 389.071 64.0697 389.543 63.0469C390.015 62.0185 390.662 61.206 391.486 60.6094C392.316 60.0128 393.262 59.7146 394.324 59.7146C395.108 59.7146 395.827 59.885 396.48 60.2259C397.14 60.5611 397.691 61.0327 398.134 61.6407C398.577 62.243 398.864 62.9418 398.995 63.7373H398.415C398.239 62.7089 397.77 61.8736 397.009 61.2316C396.253 60.5839 395.358 60.26 394.324 60.26C393.387 60.26 392.543 60.5327 391.793 61.0782C391.049 61.618 390.461 62.3594 390.029 63.3026C389.597 64.2401 389.381 65.3055 389.381 66.4986C389.381 67.6577 389.588 68.7089 390.003 69.6521C390.424 70.5952 391.006 71.3452 391.75 71.9021C392.495 72.4589 393.353 72.7373 394.324 72.7373C395.023 72.7373 395.665 72.5924 396.25 72.3026C396.836 72.0072 397.321 71.5924 397.708 71.0583C398.1 70.5242 398.347 69.9021 398.449 69.1918H399.029C398.904 70.0157 398.62 70.7344 398.177 71.3481C397.733 71.9617 397.179 72.439 396.515 72.7799C395.85 73.1151 395.12 73.2827 394.324 73.2827ZM406.976 59.9191V60.4646H401.794V59.9191H406.976ZM403.704 56.7827H404.249V70.2486C404.249 70.76 404.363 71.2004 404.59 71.5697C404.817 71.9333 405.118 72.2146 405.493 72.4134C405.868 72.6066 406.272 72.7032 406.704 72.7032C406.868 72.7032 407.019 72.689 407.155 72.6606C407.297 72.6322 407.442 72.5896 407.59 72.5327L407.76 73.0441C407.59 73.1066 407.422 73.1549 407.257 73.189C407.093 73.2288 406.908 73.2486 406.704 73.2486C406.169 73.2486 405.672 73.1265 405.212 72.8822C404.757 72.6379 404.391 72.2913 404.113 71.8424C403.84 71.3935 403.704 70.8623 403.704 70.2486V56.7827ZM418.388 73.01V55.5555H418.934V72.4646H427.661V73.01H418.388ZM431.547 73.01V59.9191H432.093V73.01H431.547ZM431.82 57.5327C431.672 57.5327 431.544 57.4788 431.436 57.3708C431.329 57.2629 431.275 57.135 431.275 56.9873C431.275 56.8396 431.329 56.7117 431.436 56.6038C431.544 56.4958 431.672 56.4418 431.82 56.4418C431.968 56.4418 432.096 56.4958 432.204 56.6038C432.311 56.7117 432.365 56.8396 432.365 56.9873C432.365 57.135 432.311 57.2629 432.204 57.3708C432.096 57.4788 431.968 57.5327 431.82 57.5327ZM437.345 64.2146V73.01H436.799V59.9191H437.345V61.9986H437.413C437.72 61.3168 438.223 60.7714 438.922 60.3623C439.626 59.9532 440.43 59.7486 441.333 59.7486C442.208 59.7486 442.981 59.939 443.652 60.3197C444.322 60.7003 444.848 61.2259 445.228 61.8964C445.609 62.5668 445.799 63.3396 445.799 64.2146V73.01H445.254V64.2146C445.254 63.0555 444.89 62.1123 444.163 61.385C443.436 60.6577 442.493 60.2941 441.333 60.2941C440.561 60.2941 439.873 60.4617 439.271 60.7969C438.674 61.1322 438.203 61.5952 437.856 62.1861C437.515 62.7771 437.345 63.4532 437.345 64.2146ZM455.349 73.2827C454.207 73.2827 453.207 72.9844 452.349 72.3879C451.497 71.7913 450.835 70.9816 450.363 69.9589C449.892 68.9361 449.656 67.7827 449.656 66.4986C449.656 65.2146 449.892 64.0611 450.363 63.0384C450.841 62.0157 451.488 61.206 452.306 60.6094C453.125 60.0128 454.048 59.7146 455.076 59.7146C455.838 59.7146 456.542 59.8765 457.19 60.2004C457.843 60.5242 458.412 60.9731 458.895 61.5469C459.378 62.1208 459.753 62.7827 460.02 63.5327C460.292 64.2771 460.429 65.0725 460.429 65.9191V66.4646H449.929V65.9191H459.883C459.883 64.868 459.667 63.9163 459.235 63.064C458.804 62.206 458.224 61.5242 457.497 61.0185C456.77 60.5129 455.963 60.26 455.076 60.26C454.179 60.26 453.366 60.5271 452.639 61.0611C451.912 61.5952 451.329 62.3225 450.892 63.243C450.454 64.1634 450.224 65.2032 450.201 66.3623V66.4305C450.201 67.5725 450.4 68.6236 450.798 69.5839C451.201 70.5384 451.787 71.3026 452.554 71.8765C453.321 72.4504 454.253 72.7373 455.349 72.7373C456.156 72.7373 456.832 72.5952 457.378 72.3111C457.929 72.0271 458.369 71.7004 458.699 71.331C459.034 70.9617 459.281 70.6464 459.44 70.385L459.883 70.6918C459.69 71.0214 459.4 71.3879 459.014 71.7913C458.628 72.1947 458.133 72.5441 457.531 72.8396C456.929 73.135 456.201 73.2827 455.349 73.2827Z" fill="white"/>
<path d="M73.9447 99.01V90.2791H75.002V94.6104H75.1043L79.0264 90.2791H80.4076L76.7413 94.2182L80.4076 99.01H79.1287L76.0933 94.9515L75.002 96.1793V99.01H73.9447ZM83.9045 99.1464C83.2735 99.1464 82.7293 99.0072 82.2717 98.7286C81.817 98.4473 81.466 98.0551 81.2187 97.552C80.9743 97.0461 80.8521 96.4578 80.8521 95.7871C80.8521 95.1163 80.9743 94.5252 81.2187 94.0136C81.466 93.4992 81.8098 93.0985 82.2504 92.8114C82.6937 92.5215 83.211 92.3766 83.8022 92.3766C84.1432 92.3766 84.48 92.4334 84.8125 92.5471C85.145 92.6608 85.4477 92.8455 85.7206 93.1013C85.9934 93.3542 86.2108 93.6896 86.3728 94.1074C86.5348 94.5252 86.6158 95.0396 86.6158 95.6507V96.077H81.5683V95.2073H85.5927C85.5927 94.8378 85.5188 94.5081 85.371 94.2182C85.226 93.9283 85.0186 93.6996 84.7486 93.5319C84.4814 93.3642 84.1659 93.2804 83.8022 93.2804C83.4014 93.2804 83.0547 93.3798 82.7619 93.5788C82.4721 93.7749 82.2489 94.0307 82.0926 94.3461C81.9363 94.6616 81.8582 94.9998 81.8582 95.3608V95.9405C81.8582 96.4351 81.9434 96.8543 82.114 97.1982C82.2873 97.5392 82.5275 97.7993 82.8344 97.9783C83.1414 98.1545 83.498 98.2426 83.9045 98.2426C84.1688 98.2426 84.4075 98.2057 84.6207 98.1318C84.8367 98.0551 85.0228 97.9414 85.1791 97.7908C85.3355 97.6373 85.4563 97.4469 85.5415 97.2195L86.5135 97.4923C86.4112 97.822 86.2392 98.1119 85.9977 98.362C85.7561 98.6093 85.4577 98.8025 85.1024 98.9418C84.7471 99.0782 84.3478 99.1464 83.9045 99.1464ZM88.595 101.466C88.4245 101.466 88.2724 101.451 88.1388 101.423C88.0053 101.397 87.9129 101.372 87.8617 101.346L88.1175 100.459C88.3619 100.522 88.5779 100.545 88.7655 100.528C88.9531 100.511 89.1194 100.427 89.2643 100.276C89.4121 100.128 89.5471 99.8882 89.6693 99.5557L89.8569 99.0441L87.4354 92.4618H88.5268L90.3343 97.6799H90.4026L92.2101 92.4618H93.3015L90.5219 99.965C90.3969 100.303 90.242 100.583 90.0572 100.805C89.8725 101.029 89.6579 101.196 89.4135 101.304C89.1719 101.412 88.8991 101.466 88.595 101.466ZM96.113 99.01L94.1179 92.4618H95.1751L96.5905 97.4753H96.6587L98.057 92.4618H99.1313L100.513 97.4582H100.581L101.996 92.4618H103.053L101.058 99.01H100.069L98.6368 93.9795H98.5345L97.1021 99.01H96.113ZM106.821 99.1464C106.23 99.1464 105.711 99.0057 105.265 98.7244C104.822 98.443 104.475 98.0494 104.225 97.5435C103.977 97.0376 103.854 96.4464 103.854 95.77C103.854 95.0879 103.977 94.4925 104.225 93.9838C104.475 93.475 104.822 93.08 105.265 92.7986C105.711 92.5172 106.23 92.3766 106.821 92.3766C107.412 92.3766 107.929 92.5172 108.373 92.7986C108.819 93.08 109.166 93.475 109.413 93.9838C109.663 94.4925 109.788 95.0879 109.788 95.77C109.788 96.4464 109.663 97.0376 109.413 97.5435C109.166 98.0494 108.819 98.443 108.373 98.7244C107.929 99.0057 107.412 99.1464 106.821 99.1464ZM106.821 98.2426C107.27 98.2426 107.639 98.1275 107.929 97.8973C108.219 97.6671 108.434 97.3644 108.573 96.9893C108.712 96.6141 108.782 96.2077 108.782 95.77C108.782 95.3323 108.712 94.9245 108.573 94.5465C108.434 94.1685 108.219 93.863 107.929 93.6299C107.639 93.3969 107.27 93.2804 106.821 93.2804C106.372 93.2804 106.002 93.3969 105.713 93.6299C105.423 93.863 105.208 94.1685 105.069 94.5465C104.93 94.9245 104.86 95.3323 104.86 95.77C104.86 96.2077 104.93 96.6141 105.069 96.9893C105.208 97.3644 105.423 97.6671 105.713 97.8973C106.002 98.1275 106.372 98.2426 106.821 98.2426ZM111.324 99.01V92.4618H112.296V93.4509H112.364C112.483 93.1269 112.699 92.864 113.012 92.6622C113.325 92.4604 113.677 92.3595 114.069 92.3595C114.143 92.3595 114.236 92.3609 114.346 92.3638C114.457 92.3666 114.541 92.3709 114.598 92.3766V93.3997C114.564 93.3912 114.486 93.3784 114.364 93.3613C114.244 93.3415 114.118 93.3315 113.984 93.3315C113.666 93.3315 113.382 93.3983 113.131 93.5319C112.884 93.6626 112.688 93.8445 112.543 94.0776C112.401 94.3078 112.33 94.5707 112.33 94.8662V99.01H111.324ZM118.064 99.1464C117.518 99.1464 117.037 99.0086 116.619 98.7329C116.201 98.4544 115.874 98.0622 115.638 97.5563C115.402 97.0475 115.284 96.4464 115.284 95.753C115.284 95.0652 115.402 94.4683 115.638 93.9625C115.874 93.4566 116.202 93.0658 116.623 92.7901C117.044 92.5144 117.53 92.3766 118.081 92.3766C118.507 92.3766 118.844 92.4476 119.091 92.5897C119.341 92.729 119.532 92.8881 119.663 93.0672C119.796 93.2434 119.9 93.3883 119.974 93.502H120.059V90.2791H121.065V99.01H120.093V98.0039H119.974C119.9 98.1233 119.795 98.2739 119.658 98.4558C119.522 98.6349 119.327 98.7954 119.074 98.9375C118.821 99.0768 118.485 99.1464 118.064 99.1464ZM118.2 98.2426C118.604 98.2426 118.945 98.1375 119.224 97.9272C119.502 97.714 119.714 97.4199 119.859 97.0447C120.004 96.6667 120.076 96.2304 120.076 95.7359C120.076 95.2471 120.005 94.8193 119.863 94.4527C119.721 94.0832 119.511 93.7962 119.232 93.5916C118.954 93.3841 118.61 93.2804 118.2 93.2804C117.774 93.2804 117.419 93.3898 117.135 93.6086C116.853 93.8246 116.641 94.1188 116.499 94.4911C116.36 94.8606 116.29 95.2755 116.29 95.7359C116.29 96.202 116.362 96.6255 116.504 97.0063C116.649 97.3843 116.862 97.6856 117.143 97.9101C117.427 98.1318 117.78 98.2426 118.2 98.2426ZM123.781 99.0782C123.57 99.0782 123.39 99.0029 123.239 98.8523C123.089 98.7016 123.013 98.5212 123.013 98.3109C123.013 98.1005 123.089 97.9201 123.239 97.7694C123.39 97.6188 123.57 97.5435 123.781 97.5435C123.991 97.5435 124.172 97.6188 124.322 97.7694C124.473 97.9201 124.548 98.1005 124.548 98.3109C124.548 98.4501 124.513 98.578 124.442 98.6945C124.373 98.8111 124.281 98.9049 124.164 98.9759C124.051 99.0441 123.923 99.0782 123.781 99.0782ZM123.781 94.2182C123.57 94.2182 123.39 94.1429 123.239 93.9923C123.089 93.8417 123.013 93.6612 123.013 93.4509C123.013 93.2406 123.089 93.0601 123.239 92.9095C123.39 92.7588 123.57 92.6835 123.781 92.6835C123.991 92.6835 124.172 92.7588 124.322 92.9095C124.473 93.0601 124.548 93.2406 124.548 93.4509C124.548 93.5901 124.513 93.718 124.442 93.8346C124.373 93.9511 124.281 94.0449 124.164 94.1159C124.051 94.1841 123.923 94.2182 123.781 94.2182ZM129.866 99.01V90.2791H132.817C133.501 90.2791 134.061 90.4027 134.496 90.65C134.934 90.8944 135.258 91.2255 135.468 91.6433C135.679 92.0611 135.784 92.5272 135.784 93.0416C135.784 93.556 135.679 94.0236 135.468 94.4442C135.261 94.8648 134.94 95.2002 134.505 95.4503C134.07 95.6976 133.513 95.8212 132.834 95.8212H130.719V94.8833H132.799C133.268 94.8833 133.645 94.8023 133.929 94.6403C134.213 94.4783 134.419 94.2595 134.547 93.9838C134.678 93.7052 134.743 93.3912 134.743 93.0416C134.743 92.692 134.678 92.3794 134.547 92.1037C134.419 91.828 134.212 91.612 133.925 91.4557C133.638 91.2966 133.257 91.217 132.782 91.217H130.924V99.01H129.866ZM140.025 99.1464C139.395 99.1464 138.85 99.0072 138.393 98.7286C137.938 98.4473 137.587 98.0551 137.34 97.552C137.095 97.0461 136.973 96.4578 136.973 95.7871C136.973 95.1163 137.095 94.5252 137.34 94.0136C137.587 93.4992 137.931 93.0985 138.371 92.8114C138.815 92.5215 139.332 92.3766 139.923 92.3766C140.264 92.3766 140.601 92.4334 140.934 92.5471C141.266 92.6608 141.569 92.8455 141.842 93.1013C142.114 93.3542 142.332 93.6896 142.494 94.1074C142.656 94.5252 142.737 95.0396 142.737 95.6507V96.077H137.689V95.2073H141.714C141.714 94.8378 141.64 94.5081 141.492 94.2182C141.347 93.9283 141.14 93.6996 140.87 93.5319C140.602 93.3642 140.287 93.2804 139.923 93.2804C139.522 93.2804 139.176 93.3798 138.883 93.5788C138.593 93.7749 138.37 94.0307 138.214 94.3461C138.057 94.6616 137.979 94.9998 137.979 95.3608V95.9405C137.979 96.4351 138.064 96.8543 138.235 97.1982C138.408 97.5392 138.649 97.7993 138.955 97.9783C139.262 98.1545 139.619 98.2426 140.025 98.2426C140.29 98.2426 140.529 98.2057 140.742 98.1318C140.958 98.0551 141.144 97.9414 141.3 97.7908C141.456 97.6373 141.577 97.4469 141.663 97.2195L142.635 97.4923C142.532 97.822 142.36 98.1119 142.119 98.362C141.877 98.6093 141.579 98.8025 141.223 98.9418C140.868 99.0782 140.469 99.1464 140.025 99.1464ZM146.928 99.1464C146.336 99.1464 145.818 99.0057 145.371 98.7244C144.928 98.443 144.581 98.0494 144.331 97.5435C144.084 97.0376 143.96 96.4464 143.96 95.77C143.96 95.0879 144.084 94.4925 144.331 93.9838C144.581 93.475 144.928 93.08 145.371 92.7986C145.818 92.5172 146.336 92.3766 146.928 92.3766C147.519 92.3766 148.036 92.5172 148.479 92.7986C148.926 93.08 149.272 93.475 149.52 93.9838C149.77 94.4925 149.895 95.0879 149.895 95.77C149.895 96.4464 149.77 97.0376 149.52 97.5435C149.272 98.0494 148.926 98.443 148.479 98.7244C148.036 99.0057 147.519 99.1464 146.928 99.1464ZM146.928 98.2426C147.377 98.2426 147.746 98.1275 148.036 97.8973C148.326 97.6671 148.54 97.3644 148.68 96.9893C148.819 96.6141 148.889 96.2077 148.889 95.77C148.889 95.3323 148.819 94.9245 148.68 94.5465C148.54 94.1685 148.326 93.863 148.036 93.6299C147.746 93.3969 147.377 93.2804 146.928 93.2804C146.478 93.2804 146.109 93.3969 145.819 93.6299C145.529 93.863 145.315 94.1685 145.175 94.5465C145.036 94.9245 144.966 95.3323 144.966 95.77C144.966 96.2077 145.036 96.6141 145.175 96.9893C145.315 97.3644 145.529 97.6671 145.819 97.8973C146.109 98.1275 146.478 98.2426 146.928 98.2426ZM151.43 101.466V92.4618H152.402V93.502H152.522C152.596 93.3883 152.698 93.2434 152.829 93.0672C152.962 92.8881 153.153 92.729 153.4 92.5897C153.65 92.4476 153.988 92.3766 154.415 92.3766C154.966 92.3766 155.452 92.5144 155.873 92.7901C156.293 93.0658 156.622 93.4566 156.857 93.9625C157.093 94.4683 157.211 95.0652 157.211 95.753C157.211 96.4464 157.093 97.0475 156.857 97.5563C156.622 98.0622 156.295 98.4544 155.877 98.7329C155.459 99.0086 154.977 99.1464 154.432 99.1464C154.011 99.1464 153.674 99.0768 153.421 98.9375C153.168 98.7954 152.974 98.6349 152.837 98.4558C152.701 98.2739 152.596 98.1233 152.522 98.0039H152.437V101.466H151.43ZM152.42 95.7359C152.42 96.2304 152.492 96.6667 152.637 97.0447C152.782 97.4199 152.994 97.714 153.272 97.9272C153.551 98.1375 153.892 98.2426 154.295 98.2426C154.716 98.2426 155.067 98.1318 155.348 97.9101C155.633 97.6856 155.846 97.3843 155.988 97.0063C156.133 96.6255 156.205 96.202 156.205 95.7359C156.205 95.2755 156.134 94.8606 155.992 94.4911C155.853 94.1188 155.641 93.8246 155.357 93.6086C155.075 93.3898 154.722 93.2804 154.295 93.2804C153.886 93.2804 153.542 93.3841 153.264 93.5916C152.985 93.7962 152.775 94.0832 152.633 94.4527C152.491 94.8193 152.42 95.2471 152.42 95.7359ZM159.752 90.2791V99.01H158.746V90.2791H159.752ZM164.34 99.1464C163.709 99.1464 163.165 99.0072 162.708 98.7286C162.253 98.4473 161.902 98.0551 161.655 97.552C161.41 97.0461 161.288 96.4578 161.288 95.7871C161.288 95.1163 161.41 94.5252 161.655 94.0136C161.902 93.4992 162.246 93.0985 162.686 92.8114C163.13 92.5215 163.647 92.3766 164.238 92.3766C164.579 92.3766 164.916 92.4334 165.248 92.5471C165.581 92.6608 165.884 92.8455 166.156 93.1013C166.429 93.3542 166.647 93.6896 166.809 94.1074C166.971 94.5252 167.052 95.0396 167.052 95.6507V96.077H162.004V95.2073H166.029C166.029 94.8378 165.955 94.5081 165.807 94.2182C165.662 93.9283 165.454 93.6996 165.184 93.5319C164.917 93.3642 164.602 93.2804 164.238 93.2804C163.837 93.2804 163.491 93.3798 163.198 93.5788C162.908 93.7749 162.685 94.0307 162.528 94.3461C162.372 94.6616 162.294 94.9998 162.294 95.3608V95.9405C162.294 96.4351 162.379 96.8543 162.55 97.1982C162.723 97.5392 162.963 97.7993 163.27 97.9783C163.577 98.1545 163.934 98.2426 164.34 98.2426C164.605 98.2426 164.843 98.2057 165.057 98.1318C165.273 98.0551 165.459 97.9414 165.615 97.7908C165.771 97.6373 165.892 97.4469 165.977 97.2195L166.949 97.4923C166.847 97.822 166.675 98.1119 166.434 98.362C166.192 98.6093 165.894 98.8025 165.538 98.9418C165.183 99.0782 164.784 99.1464 164.34 99.1464ZM172.095 99.01V90.2791H175.045C175.73 90.2791 176.29 90.4027 176.725 90.65C177.162 90.8944 177.486 91.2255 177.697 91.6433C177.907 92.0611 178.012 92.5272 178.012 93.0416C178.012 93.556 177.907 94.0236 177.697 94.4442C177.489 94.8648 177.168 95.2002 176.733 95.4503C176.298 95.6976 175.741 95.8212 175.062 95.8212H172.948V94.8833H175.028C175.497 94.8833 175.874 94.8023 176.158 94.6403C176.442 94.4783 176.648 94.2595 176.776 93.9838C176.907 93.7052 176.972 93.3912 176.972 93.0416C176.972 92.692 176.907 92.3794 176.776 92.1037C176.648 91.828 176.441 91.612 176.153 91.4557C175.866 91.2966 175.486 91.217 175.011 91.217H173.152V99.01H172.095ZM182.254 99.1464C181.623 99.1464 181.079 99.0072 180.621 98.7286C180.167 98.4473 179.816 98.0551 179.568 97.552C179.324 97.0461 179.202 96.4578 179.202 95.7871C179.202 95.1163 179.324 94.5252 179.568 94.0136C179.816 93.4992 180.159 93.0985 180.6 92.8114C181.043 92.5215 181.561 92.3766 182.152 92.3766C182.493 92.3766 182.83 92.4334 183.162 92.5471C183.495 92.6608 183.797 92.8455 184.07 93.1013C184.343 93.3542 184.56 93.6896 184.722 94.1074C184.884 94.5252 184.965 95.0396 184.965 95.6507V96.077H179.918V95.2073H183.942C183.942 94.8378 183.868 94.5081 183.721 94.2182C183.576 93.9283 183.368 93.6996 183.098 93.5319C182.831 93.3642 182.515 93.2804 182.152 93.2804C181.751 93.2804 181.404 93.3798 181.112 93.5788C180.822 93.7749 180.599 94.0307 180.442 94.3461C180.286 94.6616 180.208 94.9998 180.208 95.3608V95.9405C180.208 96.4351 180.293 96.8543 180.464 97.1982C180.637 97.5392 180.877 97.7993 181.184 97.9783C181.491 98.1545 181.848 98.2426 182.254 98.2426C182.518 98.2426 182.757 98.2057 182.97 98.1318C183.186 98.0551 183.372 97.9414 183.529 97.7908C183.685 97.6373 183.806 97.4469 183.891 97.2195L184.863 97.4923C184.761 97.822 184.589 98.1119 184.347 98.362C184.106 98.6093 183.807 98.8025 183.452 98.9418C183.097 99.0782 182.697 99.1464 182.254 99.1464ZM186.496 99.01V92.4618H187.468V93.4509H187.536C187.655 93.1269 187.871 92.864 188.184 92.6622C188.497 92.4604 188.849 92.3595 189.241 92.3595C189.315 92.3595 189.408 92.3609 189.518 92.3638C189.629 92.3666 189.713 92.3709 189.77 92.3766V93.3997C189.736 93.3912 189.658 93.3784 189.535 93.3613C189.416 93.3415 189.29 93.3315 189.156 93.3315C188.838 93.3315 188.554 93.3983 188.303 93.5319C188.056 93.6626 187.86 93.8445 187.715 94.0776C187.573 94.3078 187.502 94.5707 187.502 94.8662V99.01H186.496ZM194.289 92.4618V93.3145H190.759V92.4618H194.289ZM191.816 99.01V91.558C191.816 91.1829 191.904 90.8703 192.081 90.6202C192.257 90.37 192.486 90.1825 192.767 90.0574C193.048 89.9324 193.345 89.8698 193.658 89.8698C193.905 89.8698 194.107 89.8897 194.263 89.9295C194.42 89.9693 194.536 90.0063 194.613 90.0404L194.323 90.91C194.272 90.893 194.201 90.8717 194.11 90.8461C194.022 90.8205 193.905 90.8077 193.76 90.8077C193.428 90.8077 193.188 90.8916 193.04 91.0593C192.895 91.2269 192.822 91.4728 192.822 91.7968V99.01H191.816ZM198.089 99.1464C197.498 99.1464 196.98 99.0057 196.533 98.7244C196.09 98.443 195.743 98.0494 195.493 97.5435C195.246 97.0376 195.122 96.4464 195.122 95.77C195.122 95.0879 195.246 94.4925 195.493 93.9838C195.743 93.475 196.09 93.08 196.533 92.7986C196.98 92.5172 197.498 92.3766 198.089 92.3766C198.681 92.3766 199.198 92.5172 199.641 92.7986C200.087 93.08 200.434 93.475 200.681 93.9838C200.932 94.4925 201.057 95.0879 201.057 95.77C201.057 96.4464 200.932 97.0376 200.681 97.5435C200.434 98.0494 200.087 98.443 199.641 98.7244C199.198 99.0057 198.681 99.1464 198.089 99.1464ZM198.089 98.2426C198.539 98.2426 198.908 98.1275 199.198 97.8973C199.488 97.6671 199.702 97.3644 199.842 96.9893C199.981 96.6141 200.051 96.2077 200.051 95.77C200.051 95.3323 199.981 94.9245 199.842 94.5465C199.702 94.1685 199.488 93.863 199.198 93.6299C198.908 93.3969 198.539 93.2804 198.089 93.2804C197.64 93.2804 197.271 93.3969 196.981 93.6299C196.691 93.863 196.477 94.1685 196.337 94.5465C196.198 94.9245 196.128 95.3323 196.128 95.77C196.128 96.2077 196.198 96.6141 196.337 96.9893C196.477 97.3644 196.691 97.6671 196.981 97.8973C197.271 98.1275 197.64 98.2426 198.089 98.2426ZM202.592 99.01V92.4618H203.564V93.4509H203.633C203.752 93.1269 203.968 92.864 204.281 92.6622C204.593 92.4604 204.946 92.3595 205.338 92.3595C205.412 92.3595 205.504 92.3609 205.615 92.3638C205.726 92.3666 205.81 92.3709 205.866 92.3766V93.3997C205.832 93.3912 205.754 93.3784 205.632 93.3613C205.513 93.3415 205.386 93.3315 205.253 93.3315C204.934 93.3315 204.65 93.3983 204.4 93.5319C204.153 93.6626 203.957 93.8445 203.812 94.0776C203.67 94.3078 203.598 94.5707 203.598 94.8662V99.01H202.592ZM207.059 99.01V92.4618H208.031V93.485H208.116C208.253 93.1354 208.473 92.864 208.777 92.6707C209.081 92.4746 209.446 92.3766 209.873 92.3766C210.305 92.3766 210.664 92.4746 210.951 92.6707C211.241 92.864 211.467 93.1354 211.629 93.485H211.697C211.865 93.1468 212.117 92.8782 212.452 92.6792C212.787 92.4775 213.189 92.3766 213.658 92.3766C214.244 92.3766 214.723 92.5599 215.095 92.9265C215.467 93.2903 215.654 93.8573 215.654 94.6275V99.01H214.647V94.6275C214.647 94.1443 214.515 93.799 214.251 93.5916C213.987 93.3841 213.675 93.2804 213.317 93.2804C212.857 93.2804 212.5 93.4196 212.247 93.6981C211.994 93.9738 211.868 94.3234 211.868 94.7469V99.01H210.845V94.5252C210.845 94.1529 210.724 93.853 210.482 93.6257C210.241 93.3955 209.93 93.2804 209.549 93.2804C209.287 93.2804 209.043 93.35 208.816 93.4892C208.591 93.6285 208.409 93.8218 208.27 94.069C208.133 94.3135 208.065 94.5962 208.065 94.9174V99.01H207.059ZM219.42 99.1635C219.005 99.1635 218.629 99.0853 218.29 98.929C217.952 98.7699 217.684 98.5411 217.485 98.2426C217.286 97.9414 217.186 97.5776 217.186 97.1513C217.186 96.7761 217.26 96.472 217.408 96.239C217.556 96.0031 217.753 95.8183 218 95.6848C218.248 95.5512 218.521 95.4517 218.819 95.3863C219.12 95.3181 219.423 95.2641 219.727 95.2243C220.125 95.1732 220.447 95.1348 220.695 95.1092C220.945 95.0808 221.127 95.0339 221.24 94.9686C221.357 94.9032 221.415 94.7895 221.415 94.6275V94.5934C221.415 94.1728 221.3 93.8459 221.07 93.6129C220.843 93.3798 220.497 93.2633 220.034 93.2633C219.554 93.2633 219.177 93.3685 218.904 93.5788C218.631 93.7891 218.44 94.0136 218.329 94.2523L217.374 93.9113C217.544 93.5134 217.772 93.2036 218.056 92.9819C218.343 92.7574 218.656 92.6011 218.994 92.513C219.335 92.422 219.67 92.3766 220 92.3766C220.21 92.3766 220.452 92.4021 220.725 92.4533C221 92.5016 221.266 92.6025 221.522 92.756C221.78 92.9095 221.995 93.1411 222.166 93.4509C222.336 93.7607 222.421 94.1756 222.421 94.6957V99.01H221.415V98.1233H221.364C221.296 98.2654 221.182 98.4174 221.023 98.5794C220.864 98.7414 220.652 98.8793 220.388 98.993C220.123 99.1066 219.801 99.1635 219.42 99.1635ZM219.574 98.2597C219.971 98.2597 220.307 98.1815 220.58 98.0252C220.855 97.8689 221.063 97.6671 221.202 97.4199C221.344 97.1726 221.415 96.9125 221.415 96.6397V95.7189C221.373 95.77 221.279 95.8169 221.134 95.8595C220.992 95.8993 220.827 95.9349 220.639 95.9661C220.455 95.9945 220.274 96.0201 220.098 96.0429C219.925 96.0628 219.784 96.0798 219.676 96.094C219.414 96.1281 219.17 96.1835 218.943 96.2603C218.718 96.3342 218.536 96.4464 218.397 96.5971C218.26 96.7449 218.192 96.9467 218.192 97.2024C218.192 97.552 218.322 97.8163 218.58 97.9954C218.842 98.1716 219.173 98.2597 219.574 98.2597ZM225.264 95.0709V99.01H224.258V92.4618H225.23V93.485H225.315C225.468 93.1525 225.701 92.8853 226.014 92.6835C226.327 92.4789 226.73 92.3766 227.225 92.3766C227.668 92.3766 228.056 92.4675 228.389 92.6494C228.721 92.8285 228.98 93.1013 229.165 93.4679C229.349 93.8317 229.442 94.2921 229.442 94.8492V99.01H228.436V94.9174C228.436 94.403 228.302 94.0022 228.035 93.7152C227.768 93.4253 227.401 93.2804 226.935 93.2804C226.614 93.2804 226.327 93.35 226.074 93.4892C225.824 93.6285 225.626 93.8317 225.481 94.0989C225.336 94.366 225.264 94.69 225.264 95.0709ZM233.94 99.1464C233.326 99.1464 232.798 99.0015 232.354 98.7116C231.911 98.4217 231.57 98.0224 231.331 97.5136C231.093 97.0049 230.973 96.4237 230.973 95.77C230.973 95.105 231.095 94.5181 231.34 94.0093C231.587 93.4978 231.931 93.0985 232.371 92.8114C232.815 92.5215 233.332 92.3766 233.923 92.3766C234.384 92.3766 234.799 92.4618 235.168 92.6324C235.538 92.8029 235.84 93.0416 236.076 93.3486C236.312 93.6555 236.458 94.0136 236.515 94.4229H235.509C235.432 94.1245 235.262 93.8601 234.998 93.6299C234.736 93.3969 234.384 93.2804 233.94 93.2804C233.548 93.2804 233.204 93.3827 232.909 93.5873C232.616 93.7891 232.387 94.0747 232.222 94.4442C232.06 94.8108 231.979 95.2414 231.979 95.7359C231.979 96.2418 232.059 96.6823 232.218 97.0575C232.38 97.4326 232.607 97.724 232.9 97.9314C233.196 98.1389 233.542 98.2426 233.94 98.2426C234.202 98.2426 234.439 98.1972 234.652 98.1062C234.865 98.0153 235.046 97.8845 235.194 97.714C235.341 97.5435 235.447 97.3389 235.509 97.1001H236.515C236.458 97.4866 236.318 97.8348 236.093 98.1446C235.872 98.4515 235.577 98.696 235.211 98.8779C234.847 99.0569 234.423 99.1464 233.94 99.1464ZM240.732 99.1464C240.101 99.1464 239.556 99.0072 239.099 98.7286C238.644 98.4473 238.293 98.0551 238.046 97.552C237.801 97.0461 237.679 96.4578 237.679 95.7871C237.679 95.1163 237.801 94.5252 238.046 94.0136C238.293 93.4992 238.637 93.0985 239.077 92.8114C239.521 92.5215 240.038 92.3766 240.629 92.3766C240.97 92.3766 241.307 92.4334 241.64 92.5471C241.972 92.6608 242.275 92.8455 242.548 93.1013C242.82 93.3542 243.038 93.6896 243.2 94.1074C243.362 94.5252 243.443 95.0396 243.443 95.6507V96.077H238.395V95.2073H242.42C242.42 94.8378 242.346 94.5081 242.198 94.2182C242.053 93.9283 241.846 93.6996 241.576 93.5319C241.308 93.3642 240.993 93.2804 240.629 93.2804C240.228 93.2804 239.882 93.3798 239.589 93.5788C239.299 93.7749 239.076 94.0307 238.92 94.3461C238.763 94.6616 238.685 94.9998 238.685 95.3608V95.9405C238.685 96.4351 238.77 96.8543 238.941 97.1982C239.114 97.5392 239.355 97.7993 239.661 97.9783C239.968 98.1545 240.325 98.2426 240.732 98.2426C240.996 98.2426 241.235 98.2057 241.448 98.1318C241.664 98.0551 241.85 97.9414 242.006 97.7908C242.162 97.6373 242.283 97.4469 242.369 97.2195L243.341 97.4923C243.238 97.822 243.066 98.1119 242.825 98.362C242.583 98.6093 242.285 98.8025 241.929 98.9418C241.574 99.0782 241.175 99.1464 240.732 99.1464Z" fill="white"/>
</g>
</g>
<defs>
<linearGradient id="paint0_linear_725_33199" x1="81.9157" y1="29.2577" x2="76.6485" y2="19.9443" gradientUnits="userSpaceOnUse">
<stop stop-color="white" stop-opacity="0.4"/>
<stop offset="0.9228" stop-color="white"/>
</linearGradient>
<clipPath id="clip0_725_33199">
<rect width="686" height="120" fill="white"/>
</clipPath>
<clipPath id="clip1_725_33199">
<rect width="686" height="411.6" fill="white" transform="translate(0 -75)"/>
</clipPath>
</defs>
</svg>
