<svg width="686" height="120" viewBox="0 0 686 120" fill="none" xmlns="http://www.w3.org/2000/svg">
<g clip-path="url(#clip0_725_33199)">
<g clip-path="url(#clip1_725_33199)">
<rect width="686" height="411.6" transform="translate(0 -75)" fill="#FF7436"/>
<g opacity="0.2">
<path d="M466.593 330.151C408.824 240.67 412.633 141.868 450.723 67.3002C488.812 -7.26788 518.015 -63.8171 519.92 -68.1669C521.824 -72.5167 526.268 -74.9999 530.711 -74.9999H674.181C683.069 -74.9999 689.418 -65.6801 684.974 -57.6019C684.974 -57.6019 491.986 320.208 486.907 329.529C483.098 338.85 472.307 338.851 466.593 330.151Z" fill="white"/>
</g>
<path d="M79.1007 30.807C78.7835 31.1488 78.3078 31.1178 78.0858 30.7138L72.9474 20.6161C72.7571 20.2122 73.0426 19.746 73.4866 19.746H80.6549C80.8769 19.746 81.0989 19.8703 81.1941 20.0878C82.7483 23.2259 81.7968 27.9796 79.1007 30.807Z" fill="url(#paint0_linear_725_33199)"/>
<path d="M82.8757 39.9725C79.9893 35.4984 80.1797 30.5583 82.0827 26.8299C83.9858 23.1015 85.4449 20.2741 85.5401 20.0566C85.6352 19.8391 85.8572 19.7149 86.0792 19.7149H93.2475C93.6915 19.7149 94.0088 20.1809 93.7868 20.5848C93.7868 20.5848 84.1444 39.4753 83.8907 39.9414C83.7003 40.4074 83.1612 40.4075 82.8757 39.9725Z" fill="white"/>
<path d="M101.07 22.0327H105.601L108.525 28.1132H108.641L111.565 22.0327H116.096L110.6 32.2935V37H106.566V32.2935L101.07 22.0327ZM121.513 22.0327L124.583 32.5858H124.7L127.769 22.0327H132.359L127.418 37H121.864L116.924 22.0327H121.513ZM133.8 37V22.0327H144.587V25.3068H137.863V27.8793H144.032V31.1534H137.863V33.7259H144.558V37H133.8ZM154.671 26.71C154.632 26.2228 154.449 25.8428 154.122 25.5699C153.801 25.2971 153.311 25.1607 152.654 25.1607C152.235 25.1607 151.891 25.2118 151.623 25.3141C151.36 25.4116 151.165 25.5456 151.038 25.7161C150.912 25.8866 150.846 26.0815 150.841 26.3007C150.831 26.481 150.863 26.6442 150.936 26.7904C151.014 26.9317 151.136 27.0608 151.302 27.1777C151.467 27.2898 151.679 27.3921 151.937 27.4847C152.196 27.5772 152.502 27.6601 152.858 27.7332L154.086 27.9963C154.914 28.1716 155.623 28.4031 156.213 28.6905C156.802 28.978 157.285 29.3166 157.66 29.7064C158.035 30.0913 158.31 30.5249 158.486 31.0072C158.666 31.4896 158.758 32.0158 158.763 32.5858C158.758 33.57 158.512 34.4031 158.025 35.0852C157.538 35.7673 156.841 36.2862 155.935 36.6419C155.034 36.9976 153.95 37.1754 152.683 37.1754C151.382 37.1754 150.247 36.9829 149.277 36.598C148.312 36.2131 147.562 35.6212 147.026 34.8221C146.495 34.0182 146.227 32.9902 146.222 31.7381H150.081C150.105 32.1961 150.22 32.581 150.425 32.8928C150.629 33.2046 150.917 33.4409 151.287 33.6017C151.662 33.7625 152.108 33.8428 152.624 33.8428C153.058 33.8428 153.421 33.7892 153.713 33.6821C154.006 33.5749 154.227 33.4263 154.378 33.2363C154.529 33.0462 154.607 32.8294 154.612 32.5858C154.607 32.3568 154.532 32.1571 154.386 31.9865C154.244 31.8112 154.01 31.6552 153.684 31.5188C153.358 31.3775 152.917 31.246 152.361 31.1242L150.87 30.8026C149.545 30.5152 148.5 30.0352 147.735 29.3629C146.975 28.6857 146.597 27.7624 146.602 26.5931C146.597 25.643 146.851 24.8123 147.362 24.101C147.879 23.3848 148.593 22.8269 149.504 22.4274C150.42 22.0279 151.47 21.8281 152.654 21.8281C153.862 21.8281 154.907 22.0303 155.789 22.4347C156.671 22.8391 157.35 23.4091 157.828 24.1448C158.31 24.8756 158.554 25.7307 158.559 26.71H154.671Z" fill="white"/>
<path d="M168.481 37.0049V22.0376H173.341C174.248 22.0376 175.012 22.1984 175.636 22.52C176.26 22.8415 176.732 23.2922 177.054 23.872C177.38 24.4518 177.544 25.1266 177.544 25.8964C177.544 26.5005 177.446 27.0364 177.251 27.5042C177.056 27.9719 176.784 28.3592 176.433 28.6662C176.087 28.9683 175.68 29.1778 175.212 29.2947V29.3824C175.729 29.4214 176.209 29.6016 176.652 29.9232C177.095 30.2399 177.451 30.6711 177.719 31.2168C177.992 31.7624 178.128 32.3983 178.128 33.1242C178.128 33.8891 177.963 34.5639 177.631 35.1486C177.305 35.7284 176.815 36.1839 176.162 36.5152C175.509 36.8417 174.701 37.0049 173.736 37.0049H168.481ZM169.395 36.1571H173.736C174.861 36.1571 175.726 35.8745 176.33 35.3094C176.939 34.7442 177.244 34.0158 177.244 33.1242C177.244 32.4957 177.095 31.933 176.798 31.436C176.506 30.939 176.099 30.5468 175.578 30.2594C175.056 29.967 174.452 29.8209 173.765 29.8209H169.395V36.1571ZM169.395 28.9877H173.656C174.294 28.9877 174.835 28.8489 175.278 28.5712C175.726 28.2935 176.067 27.9207 176.301 27.453C176.54 26.9853 176.659 26.4664 176.659 25.8964C176.659 24.9706 176.372 24.2374 175.797 23.6966C175.222 23.1558 174.403 22.8854 173.341 22.8854H169.395V28.9877ZM185.789 37.2387C184.776 37.2387 183.894 36.9878 183.144 36.486C182.393 35.9842 181.813 35.2972 181.404 34.4251C180.995 33.553 180.79 32.559 180.79 31.4433C180.79 30.3227 180.995 29.3239 181.404 28.4469C181.818 27.5699 182.386 26.8781 183.107 26.3714C183.828 25.8647 184.651 25.6113 185.577 25.6113C186.206 25.6113 186.8 25.738 187.36 25.9914C187.926 26.2398 188.422 26.6004 188.851 27.073C189.285 27.5456 189.623 28.1156 189.867 28.7831C190.116 29.4506 190.24 30.2009 190.24 31.0341V31.5895H181.353V30.7783H189.348C189.348 29.9646 189.183 29.2314 188.851 28.5785C188.52 27.9256 188.069 27.4067 187.499 27.0218C186.929 26.6369 186.288 26.4445 185.577 26.4445C184.832 26.4445 184.167 26.654 183.582 27.073C183.002 27.4871 182.542 28.0474 182.201 28.7539C181.865 29.4603 181.689 30.2496 181.675 31.1218V31.4872C181.675 32.4226 181.838 33.2631 182.164 34.0085C182.496 34.7491 182.968 35.3362 183.582 35.7698C184.196 36.1985 184.932 36.4129 185.789 36.4129C186.403 36.4129 186.927 36.3106 187.36 36.106C187.799 35.8965 188.157 35.6431 188.435 35.3459C188.712 35.0487 188.922 34.7613 189.063 34.4835L189.874 34.8124C189.704 35.1876 189.438 35.5627 189.078 35.9379C188.722 36.3082 188.269 36.6175 187.718 36.866C187.173 37.1145 186.53 37.2387 185.789 37.2387ZM200.442 28.1985L199.616 28.4177C199.485 28.0084 199.297 27.6552 199.054 27.358C198.81 27.0608 198.503 26.8318 198.133 26.671C197.767 26.5054 197.329 26.4226 196.817 26.4226C195.994 26.4226 195.319 26.6272 194.793 27.0364C194.272 27.4457 194.011 27.9792 194.011 28.6369C194.011 29.1729 194.189 29.6163 194.544 29.967C194.9 30.313 195.443 30.5761 196.174 30.7563L197.899 31.1875C198.786 31.4068 199.453 31.7624 199.901 32.2545C200.35 32.7417 200.574 33.3483 200.574 34.0743C200.574 34.693 200.406 35.2412 200.069 35.7186C199.733 36.1961 199.268 36.5688 198.674 36.8368C198.084 37.1048 197.397 37.2387 196.613 37.2387C195.565 37.2387 194.705 36.9951 194.033 36.5079C193.36 36.0158 192.929 35.3118 192.739 34.3958L193.594 34.1766C193.755 34.9074 194.089 35.4653 194.596 35.8502C195.107 36.2302 195.777 36.4202 196.605 36.4202C197.521 36.4202 198.259 36.2034 198.82 35.7698C199.385 35.3362 199.667 34.7807 199.667 34.1035C199.667 33.5871 199.502 33.151 199.17 32.7953C198.839 32.4397 198.337 32.179 197.665 32.0134L195.874 31.5749C194.958 31.3507 194.272 30.9926 193.814 30.5006C193.356 30.0036 193.127 29.3921 193.127 28.6662C193.127 28.062 193.285 27.531 193.602 27.073C193.918 26.615 194.354 26.2569 194.91 25.9987C195.465 25.7405 196.101 25.6113 196.817 25.6113C197.767 25.6113 198.542 25.8355 199.141 26.2837C199.741 26.7319 200.174 27.3702 200.442 28.1985ZM207.628 25.7794V26.576H202.724V25.7794H207.628ZM204.383 23.09H205.267V34.352C205.267 34.81 205.355 35.1851 205.53 35.4775C205.711 35.7649 205.945 35.9793 206.232 36.1206C206.524 36.257 206.836 36.3252 207.168 36.3252C207.328 36.3252 207.467 36.313 207.584 36.2887C207.706 36.2643 207.82 36.2326 207.928 36.1937L208.147 37.0049C208.01 37.0536 207.859 37.095 207.694 37.1291C207.528 37.1681 207.333 37.1876 207.109 37.1876C206.641 37.1876 206.198 37.0828 205.779 36.8733C205.365 36.6638 205.029 36.3593 204.77 35.9598C204.512 35.5603 204.383 35.0779 204.383 34.5128V23.09ZM217.037 37.0049V22.0376H221.649C222.599 22.0376 223.413 22.2325 224.09 22.6223C224.772 23.012 225.296 23.5455 225.661 24.2228C226.026 24.9 226.209 25.6722 226.209 26.5395C226.209 27.397 226.026 28.1643 225.661 28.8416C225.296 29.5188 224.772 30.0547 224.09 30.4494C223.413 30.8392 222.601 31.0341 221.656 31.0341H217.68V30.1863H221.634C222.404 30.1863 223.062 30.0304 223.607 29.7186C224.153 29.4019 224.572 28.9707 224.864 28.425C225.157 27.8745 225.303 27.2459 225.303 26.5395C225.303 25.8281 225.157 25.1972 224.864 24.6467C224.572 24.0961 224.151 23.6649 223.6 23.3531C223.054 23.0413 222.397 22.8854 221.627 22.8854H217.951V37.0049H217.037ZM229.405 37.0049V25.7794H230.274V27.5334H230.355C230.598 26.9585 231.01 26.4981 231.59 26.1521C232.17 25.8014 232.83 25.626 233.57 25.626C233.648 25.626 233.726 25.626 233.804 25.626C233.882 25.626 233.955 25.6284 234.023 25.6333V26.5322C233.965 26.5273 233.894 26.52 233.812 26.5103C233.734 26.4956 233.636 26.4883 233.519 26.4883C232.896 26.4883 232.34 26.6223 231.853 26.8903C231.371 27.1582 230.991 27.5285 230.713 28.0011C230.435 28.4689 230.296 29.0048 230.296 29.6089V37.0049H229.405ZM239.393 37.2461C238.745 37.2461 238.151 37.1169 237.61 36.8587C237.074 36.6005 236.643 36.2229 236.316 35.7259C235.995 35.229 235.834 34.6248 235.834 33.9135C235.834 33.4458 235.917 33.0341 236.083 32.6784C236.248 32.3227 236.504 32.0158 236.85 31.7576C237.196 31.4993 237.639 31.2874 238.18 31.1218C238.721 30.9512 239.366 30.8197 240.117 30.7271C240.687 30.6589 241.196 30.5931 241.644 30.5298C242.092 30.4616 242.443 30.3568 242.697 30.2155C242.955 30.0742 243.084 29.8599 243.084 29.5724V29.1047C243.084 28.2862 242.826 27.6357 242.309 27.1534C241.793 26.671 241.081 26.4299 240.175 26.4299C239.371 26.4299 238.694 26.6077 238.143 26.9634C237.598 27.3142 237.215 27.7673 236.996 28.3227L236.156 28.0084C236.37 27.4725 236.679 27.0267 237.084 26.671C237.493 26.3154 237.961 26.0498 238.487 25.8744C239.018 25.699 239.573 25.6113 240.153 25.6113C240.655 25.6113 241.133 25.682 241.586 25.8233C242.044 25.9646 242.45 26.1789 242.806 26.4664C243.167 26.7539 243.452 27.1217 243.661 27.5699C243.871 28.0133 243.975 28.5444 243.975 29.1631V37.0049H243.084V34.9805H243.018C242.823 35.3995 242.555 35.782 242.214 36.1279C241.878 36.4689 241.471 36.7418 240.994 36.9464C240.521 37.1462 239.988 37.2461 239.393 37.2461ZM239.481 36.4202C240.182 36.4202 240.804 36.2497 241.344 35.9086C241.89 35.5627 242.316 35.0901 242.623 34.4908C242.93 33.8916 243.084 33.2119 243.084 32.4519V30.8002C242.972 30.8976 242.809 30.9853 242.594 31.0633C242.385 31.1364 242.146 31.2021 241.878 31.2606C241.615 31.3142 241.337 31.3629 241.045 31.4068C240.757 31.4457 240.477 31.4823 240.204 31.5164C239.386 31.6138 238.718 31.7649 238.202 31.9695C237.69 32.1693 237.315 32.4324 237.076 32.7588C236.843 33.0852 236.726 33.4799 236.726 33.9427C236.726 34.7077 236.989 35.3118 237.515 35.7552C238.041 36.1985 238.696 36.4202 239.481 36.4202ZM251.923 37.2387C250.968 37.2387 250.128 36.9878 249.402 36.486C248.676 35.9793 248.108 35.2874 247.699 34.4105C247.295 33.5335 247.092 32.5395 247.092 31.4287C247.092 30.3178 247.297 29.3239 247.706 28.4469C248.116 27.5699 248.683 26.8781 249.409 26.3714C250.135 25.8647 250.971 25.6113 251.916 25.6113C252.627 25.6113 253.275 25.7575 253.86 26.0498C254.449 26.3422 254.937 26.749 255.322 27.2703C255.711 27.7916 255.96 28.3958 256.067 29.0828H255.161C255.015 28.3227 254.649 27.6942 254.064 27.1972C253.485 26.6954 252.771 26.4445 251.923 26.4445C251.163 26.4445 250.486 26.6589 249.891 27.0876C249.297 27.5115 248.829 28.0986 248.488 28.8489C248.147 29.5943 247.977 30.4494 247.977 31.4141C247.977 32.3642 248.142 33.2168 248.474 33.972C248.805 34.7223 249.268 35.3167 249.862 35.7552C250.457 36.1937 251.144 36.4129 251.923 36.4129C252.474 36.4129 252.976 36.3033 253.429 36.084C253.887 35.8648 254.269 35.553 254.576 35.1486C254.883 34.7442 255.085 34.2716 255.183 33.7308H256.089C255.982 34.4226 255.738 35.0317 255.358 35.5579C254.978 36.084 254.493 36.4957 253.904 36.7929C253.314 37.0901 252.654 37.2387 251.923 37.2387ZM263.097 25.7794V26.576H258.194V25.7794H263.097ZM259.853 23.09H260.737V34.352C260.737 34.81 260.825 35.1851 261 35.4775C261.18 35.7649 261.414 35.9793 261.702 36.1206C261.994 36.257 262.306 36.3252 262.637 36.3252C262.798 36.3252 262.937 36.313 263.054 36.2887C263.175 36.2643 263.29 36.2326 263.397 36.1937L263.616 37.0049C263.48 37.0536 263.329 37.095 263.163 37.1291C262.998 37.1681 262.803 37.1876 262.579 37.1876C262.111 37.1876 261.667 37.0828 261.248 36.8733C260.834 36.6638 260.498 36.3593 260.24 35.9598C259.982 35.5603 259.853 35.0779 259.853 34.5128V23.09ZM266.448 37.0049V25.7794H267.333V37.0049H266.448ZM266.894 23.7916C266.699 23.7916 266.529 23.7234 266.383 23.587C266.241 23.4505 266.171 23.2849 266.171 23.09C266.171 22.8951 266.241 22.7295 266.383 22.593C266.524 22.4566 266.694 22.3884 266.894 22.3884C267.089 22.3884 267.257 22.4566 267.398 22.593C267.545 22.7295 267.618 22.8951 267.618 23.09C267.618 23.2849 267.547 23.4505 267.406 23.587C267.264 23.7234 267.094 23.7916 266.894 23.7916ZM275.277 37.2387C274.322 37.2387 273.481 36.9878 272.755 36.486C272.029 35.9793 271.462 35.2874 271.052 34.4105C270.648 33.5335 270.446 32.5395 270.446 31.4287C270.446 30.3178 270.651 29.3239 271.06 28.4469C271.469 27.5699 272.037 26.8781 272.763 26.3714C273.489 25.8647 274.324 25.6113 275.269 25.6113C275.981 25.6113 276.629 25.7575 277.213 26.0498C277.803 26.3422 278.29 26.749 278.675 27.2703C279.065 27.7916 279.313 28.3958 279.42 29.0828H278.514C278.368 28.3227 278.003 27.6942 277.418 27.1972C276.838 26.6954 276.124 26.4445 275.277 26.4445C274.517 26.4445 273.839 26.6589 273.245 27.0876C272.651 27.5115 272.183 28.0986 271.842 28.8489C271.501 29.5943 271.33 30.4494 271.33 31.4141C271.33 32.3642 271.496 33.2168 271.827 33.972C272.158 34.7223 272.621 35.3167 273.216 35.7552C273.81 36.1937 274.497 36.4129 275.277 36.4129C275.827 36.4129 276.329 36.3033 276.782 36.084C277.24 35.8648 277.623 35.553 277.93 35.1486C278.236 34.7442 278.439 34.2716 278.536 33.7308H279.442C279.335 34.4226 279.092 35.0317 278.712 35.5579C278.331 36.084 277.847 36.4957 277.257 36.7929C276.668 37.0901 276.007 37.2387 275.277 37.2387ZM286.86 37.2387C285.847 37.2387 284.965 36.9878 284.215 36.486C283.464 35.9842 282.885 35.2972 282.475 34.4251C282.066 33.553 281.861 32.559 281.861 31.4433C281.861 30.3227 282.066 29.3239 282.475 28.4469C282.889 27.5699 283.457 26.8781 284.178 26.3714C284.899 25.8647 285.723 25.6113 286.648 25.6113C287.277 25.6113 287.871 25.738 288.431 25.9914C288.997 26.2398 289.494 26.6004 289.922 27.073C290.356 27.5456 290.695 28.1156 290.938 28.7831C291.187 29.4506 291.311 30.2009 291.311 31.0341V31.5895H282.424V30.7783H290.419C290.419 29.9646 290.254 29.2314 289.922 28.5785C289.591 27.9256 289.14 27.4067 288.57 27.0218C288 26.6369 287.36 26.4445 286.648 26.4445C285.903 26.4445 285.238 26.654 284.653 27.073C284.073 27.4871 283.613 28.0474 283.272 28.7539C282.936 29.4603 282.76 30.2496 282.746 31.1218V31.4872C282.746 32.4226 282.909 33.2631 283.235 34.0085C283.567 34.7491 284.039 35.3362 284.653 35.7698C285.267 36.1985 286.003 36.4129 286.86 36.4129C287.474 36.4129 287.998 36.3106 288.431 36.106C288.87 35.8965 289.228 35.6431 289.506 35.3459C289.783 35.0487 289.993 34.7613 290.134 34.4835L290.946 34.8124C290.775 35.1876 290.509 35.5627 290.149 35.9379C289.793 36.3082 289.34 36.6175 288.79 36.866C288.244 37.1145 287.601 37.2387 286.86 37.2387Z" fill="white"/>
<path d="M79.7056 59.9191V60.4646H74.5238V59.9191H79.7056ZM76.3306 73.01V57.7714C76.3306 57.1577 76.467 56.6265 76.7397 56.1776C77.0181 55.7288 77.3846 55.3822 77.8392 55.1379C78.2994 54.8935 78.7965 54.7714 79.3306 54.7714C79.5352 54.7714 79.7198 54.7884 79.8846 54.8225C80.0494 54.8566 80.2113 54.9021 80.3704 54.9589L80.2 55.4702C80.0579 55.4248 79.9187 55.3878 79.7823 55.3594C79.646 55.331 79.4954 55.3168 79.3306 55.3168C78.6772 55.3168 78.1034 55.5356 77.609 55.9731C77.1204 56.4106 76.8761 57.01 76.8761 57.7714L76.859 73.01H76.3306ZM87.2482 73.2827C86.2198 73.2827 85.2965 72.9873 84.4784 72.3964C83.6602 71.7998 83.0125 70.9901 82.5352 69.9674C82.0636 68.939 81.8278 67.7827 81.8278 66.4986C81.8278 65.2089 82.0636 64.0526 82.5352 63.0299C83.0125 62.0072 83.6602 61.2004 84.4784 60.6094C85.2965 60.0128 86.2198 59.7146 87.2482 59.7146C88.2767 59.7146 89.1971 60.0128 90.0096 60.6094C90.8278 61.206 91.4755 62.0157 91.9528 63.0384C92.4301 64.0611 92.6687 65.2146 92.6687 66.4986C92.6687 67.7827 92.4301 68.939 91.9528 69.9674C91.4812 70.9901 90.8363 71.7998 90.0181 72.3964C89.2 72.9873 88.2767 73.2827 87.2482 73.2827ZM87.2482 72.7373C88.1744 72.7373 89.0039 72.4646 89.7369 71.9191C90.4755 71.3736 91.0579 70.6293 91.484 69.6861C91.9102 68.743 92.1232 67.6805 92.1232 66.4986C92.1232 65.3168 91.9073 64.2572 91.4755 63.3197C91.0494 62.3765 90.4698 61.6322 89.7369 61.0867C89.0039 60.5356 88.1744 60.26 87.2482 60.26C86.3278 60.26 85.4982 60.5356 84.7596 61.0867C84.0267 61.6322 83.4443 62.3765 83.0125 63.3197C82.5863 64.2572 82.3732 65.3168 82.3732 66.4986C82.3732 67.6805 82.5863 68.743 83.0125 69.6861C83.4386 70.6293 84.0181 71.3736 84.7511 71.9191C85.4897 72.4646 86.3221 72.7373 87.2482 72.7373ZM96.5103 73.01V59.9191H97.0558V61.9986H97.124C97.4308 61.3168 97.9336 60.7714 98.6325 60.3623C99.337 59.9532 100.141 59.7486 101.044 59.7486C101.113 59.7486 101.158 59.7486 101.181 59.7486C101.204 59.7486 101.249 59.7486 101.317 59.7486V60.2941C101.249 60.2941 101.204 60.2941 101.181 60.2941C101.158 60.2941 101.113 60.2941 101.044 60.2941C100.272 60.2941 99.5842 60.4617 98.9819 60.7969C98.3853 61.1322 97.9137 61.5952 97.5671 62.1861C97.2262 62.7771 97.0558 63.4532 97.0558 64.2146V73.01H96.5103ZM110.664 73.01V55.5555H113.298V63.1407H122V55.5555H124.642V73.01H122V65.3992H113.298V73.01H110.664ZM136.565 67.581V59.9191H139.122V73.01H136.616V70.743H136.48C136.179 71.4418 135.696 72.0242 135.031 72.4901C134.372 72.9504 133.551 73.1805 132.568 73.1805C131.727 73.1805 130.983 72.9958 130.335 72.6265C129.693 72.2515 129.187 71.6975 128.818 70.9646C128.454 70.2316 128.272 69.3254 128.272 68.2458V59.9191H130.821V67.939C130.821 68.831 131.068 69.5413 131.562 70.0697C132.056 70.5981 132.699 70.8623 133.488 70.8623C133.966 70.8623 134.44 70.743 134.912 70.5043C135.389 70.2657 135.784 69.9049 136.096 69.4219C136.414 68.939 136.571 68.3254 136.565 67.581ZM142.546 73.01V59.9191H144.992V62.0498H145.154C145.427 61.3282 145.873 60.7657 146.492 60.3623C147.111 59.9532 147.853 59.7486 148.716 59.7486C149.591 59.7486 150.324 59.9532 150.915 60.3623C151.512 60.7714 151.952 61.3339 152.236 62.0498H152.373C152.685 61.3509 153.182 60.7941 153.864 60.3793C154.546 59.9589 155.358 59.7486 156.302 59.7486C157.489 59.7486 158.458 60.1208 159.208 60.8651C159.963 61.6094 160.341 62.7316 160.341 64.2316V73.01H157.793V64.4702C157.793 63.5839 157.552 62.9418 157.069 62.5441C156.586 62.1464 156.009 61.9475 155.338 61.9475C154.509 61.9475 153.864 62.2032 153.404 62.7146C152.944 63.2202 152.713 63.8708 152.713 64.6663V73.01H150.174V64.3083C150.174 63.5981 149.952 63.0271 149.509 62.5952C149.066 62.1634 148.489 61.9475 147.779 61.9475C147.296 61.9475 146.85 62.0754 146.441 62.331C146.037 62.581 145.711 62.9305 145.461 63.3793C145.216 63.8282 145.094 64.3481 145.094 64.939V73.01H142.546ZM167.566 73.2998C166.737 73.2998 165.987 73.1464 165.316 72.8396C164.646 72.5271 164.115 72.0754 163.723 71.4844C163.336 70.8935 163.143 70.1691 163.143 69.3111C163.143 68.5725 163.285 67.9646 163.569 67.4873C163.853 67.01 164.237 66.6322 164.72 66.3538C165.203 66.0754 165.743 65.8651 166.339 65.7231C166.936 65.581 167.544 65.4731 168.163 65.3992C168.947 65.3083 169.583 65.2344 170.072 65.1776C170.561 65.1151 170.916 65.0157 171.137 64.8793C171.359 64.743 171.47 64.5214 171.47 64.2146V64.1549C171.47 63.4106 171.26 62.8339 170.839 62.4248C170.424 62.0157 169.805 61.8111 168.981 61.8111C168.123 61.8111 167.447 62.0015 166.953 62.3822C166.464 62.7572 166.126 63.1748 165.939 63.635L163.544 63.0896C163.828 62.2941 164.243 61.6521 164.788 61.1634C165.339 60.6691 165.973 60.3111 166.689 60.0896C167.404 59.8623 168.157 59.7486 168.947 59.7486C169.47 59.7486 170.024 59.8111 170.609 59.9361C171.2 60.0555 171.751 60.2771 172.262 60.6009C172.779 60.9248 173.203 61.3879 173.532 61.9901C173.862 62.5867 174.027 63.3623 174.027 64.3168V73.01H171.538V71.2202H171.436C171.271 71.5498 171.024 71.8736 170.694 72.1918C170.365 72.51 169.941 72.7742 169.424 72.9844C168.907 73.1947 168.288 73.2998 167.566 73.2998ZM168.12 71.2543C168.825 71.2543 169.427 71.1151 169.927 70.8367C170.433 70.5583 170.816 70.1947 171.078 69.7458C171.345 69.2913 171.478 68.8055 171.478 68.2884V66.6009C171.387 66.6918 171.211 66.7771 170.95 66.8566C170.694 66.9305 170.402 66.9958 170.072 67.0526C169.743 67.1038 169.422 67.1521 169.109 67.1975C168.797 67.2373 168.535 67.2714 168.325 67.2998C167.831 67.3623 167.379 67.4674 166.97 67.6151C166.566 67.7629 166.243 67.9759 165.998 68.2543C165.76 68.5271 165.64 68.8907 165.64 69.3452C165.64 69.9759 165.873 70.4532 166.339 70.7771C166.805 71.0952 167.399 71.2543 168.12 71.2543ZM179.969 65.2373V73.01H177.421V59.9191H179.867V62.0498H180.029C180.33 61.3566 180.802 60.7998 181.444 60.3793C182.091 59.9589 182.907 59.7486 183.89 59.7486C184.782 59.7486 185.563 59.9361 186.233 60.3111C186.904 60.6805 187.424 61.2316 187.793 61.9646C188.162 62.6975 188.347 63.6038 188.347 64.6833V73.01H185.799V64.9901C185.799 64.0413 185.552 63.2998 185.057 62.7657C184.563 62.2259 183.884 61.956 183.02 61.956C182.429 61.956 181.904 62.0839 181.444 62.3396C180.989 62.5952 180.628 62.9702 180.361 63.4646C180.1 63.9532 179.969 64.5441 179.969 65.2373ZM198.321 73.01V55.5555H204.542C205.895 55.5555 207.017 55.7884 207.909 56.2543C208.806 56.7202 209.477 57.3651 209.92 58.189C210.363 59.0072 210.585 59.9532 210.585 61.0271C210.585 62.0952 210.36 63.0356 209.912 63.8481C209.468 64.6549 208.798 65.2827 207.9 65.7316C207.008 66.1805 205.886 66.4049 204.534 66.4049H199.821V64.1379H204.295C205.147 64.1379 205.841 64.0157 206.375 63.7714C206.914 63.5271 207.309 63.1719 207.559 62.706C207.809 62.2401 207.934 61.6805 207.934 61.0271C207.934 60.368 207.806 59.7969 207.551 59.314C207.301 58.831 206.906 58.4617 206.366 58.206C205.832 57.9447 205.13 57.814 204.261 57.814H200.954V73.01H198.321ZM206.937 65.135L211.25 73.01H208.25L204.022 65.135H206.937ZM219.063 73.2742C217.773 73.2742 216.662 72.9986 215.73 72.4475C214.804 71.8907 214.088 71.1094 213.583 70.1038C213.083 69.0924 212.833 67.9077 212.833 66.5498C212.833 65.2089 213.083 64.0271 213.583 63.0043C214.088 61.9816 214.793 61.1833 215.696 60.6094C216.605 60.0356 217.668 59.7486 218.884 59.7486C219.623 59.7486 220.338 59.8708 221.032 60.1151C221.725 60.3594 222.347 60.743 222.898 61.2657C223.449 61.7884 223.884 62.4674 224.202 63.3026C224.52 64.1322 224.679 65.1407 224.679 66.3282V67.2316H214.273V65.3225H222.182C222.182 64.6521 222.046 64.0583 221.773 63.5413C221.5 63.0185 221.117 62.6066 220.623 62.3055C220.134 62.0043 219.56 61.8538 218.901 61.8538C218.185 61.8538 217.56 62.0299 217.026 62.3822C216.498 62.7288 216.088 63.1833 215.799 63.7458C215.515 64.3026 215.373 64.9077 215.373 65.5611V67.0526C215.373 67.9276 215.526 68.6719 215.833 69.2856C216.145 69.8992 216.58 70.368 217.137 70.6918C217.694 71.01 218.344 71.1691 219.088 71.1691C219.571 71.1691 220.012 71.1009 220.409 70.9646C220.807 70.8225 221.151 70.6123 221.441 70.3339C221.73 70.0555 221.952 69.7117 222.105 69.3026L224.517 69.7373C224.324 70.4475 223.978 71.0697 223.478 71.6038C222.983 72.1322 222.361 72.5441 221.611 72.8396C220.867 73.1293 220.017 73.2742 219.063 73.2742ZM237.316 63.1151L235.007 63.5242C234.91 63.2288 234.757 62.9475 234.547 62.6805C234.342 62.4134 234.064 62.1947 233.711 62.0242C233.359 61.8538 232.919 61.7685 232.39 61.7685C231.669 61.7685 231.066 61.9305 230.583 62.2543C230.101 62.5725 229.859 62.9844 229.859 63.4901C229.859 63.9276 230.021 64.2799 230.345 64.5469C230.669 64.814 231.191 65.0327 231.913 65.2032L233.993 65.6805C235.197 65.9589 236.095 66.3879 236.686 66.9674C237.277 67.5469 237.572 68.2998 237.572 69.2259C237.572 70.01 237.345 70.7089 236.89 71.3225C236.441 71.9305 235.814 72.4077 235.007 72.7543C234.206 73.1009 233.277 73.2742 232.22 73.2742C230.754 73.2742 229.558 72.9617 228.632 72.3367C227.706 71.706 227.137 70.8111 226.927 69.6521L229.39 69.2771C229.544 69.9191 229.859 70.4049 230.336 70.7344C230.814 71.0583 231.436 71.2202 232.203 71.2202C233.038 71.2202 233.706 71.0469 234.206 70.7004C234.706 70.3481 234.956 69.9191 234.956 69.4134C234.956 69.0043 234.802 68.6606 234.495 68.3822C234.194 68.1038 233.731 67.8935 233.106 67.7515L230.89 67.2657C229.669 66.9873 228.765 66.5441 228.18 65.9361C227.601 65.3282 227.311 64.5583 227.311 63.6265C227.311 62.8538 227.527 62.1776 227.958 61.5981C228.39 61.0185 228.987 60.5668 229.748 60.243C230.51 59.9134 231.382 59.7486 232.365 59.7486C233.779 59.7486 234.893 60.0555 235.706 60.6691C236.518 61.2771 237.055 62.0924 237.316 63.1151ZM245.888 73.2742C244.661 73.2742 243.59 72.993 242.675 72.4305C241.76 71.868 241.05 71.081 240.544 70.0697C240.039 69.0583 239.786 67.8765 239.786 66.5242C239.786 65.1663 240.039 63.9788 240.544 62.9617C241.05 61.9447 241.76 61.1549 242.675 60.5924C243.59 60.0299 244.661 59.7486 245.888 59.7486C247.115 59.7486 248.186 60.0299 249.101 60.5924C250.016 61.1549 250.726 61.9447 251.232 62.9617C251.738 63.9788 251.99 65.1663 251.99 66.5242C251.99 67.8765 251.738 69.0583 251.232 70.0697C250.726 71.081 250.016 71.868 249.101 72.4305C248.186 72.993 247.115 73.2742 245.888 73.2742ZM245.897 71.135C246.692 71.135 247.351 70.9248 247.874 70.5043C248.397 70.0839 248.783 69.5242 249.033 68.8254C249.289 68.1265 249.417 67.3566 249.417 66.5157C249.417 65.6805 249.289 64.9134 249.033 64.2146C248.783 63.51 248.397 62.9447 247.874 62.5185C247.351 62.0924 246.692 61.8793 245.897 61.8793C245.096 61.8793 244.431 62.0924 243.902 62.5185C243.38 62.9447 242.99 63.51 242.735 64.2146C242.485 64.9134 242.36 65.6805 242.36 66.5157C242.36 67.3566 242.485 68.1265 242.735 68.8254C242.99 69.5242 243.38 70.0839 243.902 70.5043C244.431 70.9248 245.096 71.135 245.897 71.135ZM263.128 67.581V59.9191H265.684V73.01H263.179V70.743H263.042C262.741 71.4418 262.258 72.0242 261.593 72.4901C260.934 72.9504 260.113 73.1805 259.13 73.1805C258.289 73.1805 257.545 72.9958 256.897 72.6265C256.255 72.2515 255.75 71.6975 255.38 70.9646C255.017 70.2316 254.835 69.3254 254.835 68.2458V59.9191H257.383V67.939C257.383 68.831 257.63 69.5413 258.125 70.0697C258.619 70.5981 259.261 70.8623 260.051 70.8623C260.528 70.8623 261.003 70.743 261.474 70.5043C261.951 70.2657 262.346 69.9049 262.659 69.4219C262.977 68.939 263.133 68.3254 263.128 67.581ZM269.108 73.01V59.9191H271.571V61.9986H271.708C271.946 61.2941 272.367 60.7401 272.969 60.3367C273.577 59.9276 274.265 59.7231 275.032 59.7231C275.191 59.7231 275.378 59.7288 275.594 59.7401C275.816 59.7515 275.989 59.7657 276.114 59.7827V62.2202C276.012 62.1918 275.83 62.1606 275.569 62.1265C275.307 62.0867 275.046 62.0668 274.784 62.0668C274.182 62.0668 273.645 62.1947 273.174 62.4504C272.708 62.7004 272.338 63.0498 272.066 63.4986C271.793 63.9418 271.657 64.4475 271.657 65.0157V73.01H269.108ZM283.365 73.2742C282.098 73.2742 281.007 72.9873 280.092 72.4134C279.183 71.8339 278.484 71.0356 277.995 70.0185C277.507 69.0015 277.262 67.8367 277.262 66.5242C277.262 65.1947 277.512 64.0214 278.012 63.0043C278.512 61.9816 279.217 61.1833 280.126 60.6094C281.035 60.0356 282.106 59.7486 283.339 59.7486C284.333 59.7486 285.22 59.9333 285.998 60.3026C286.777 60.6663 287.404 61.1776 287.882 61.8367C288.365 62.4958 288.652 63.2657 288.743 64.1464H286.262C286.126 63.5327 285.814 63.0043 285.325 62.5611C284.842 62.118 284.194 61.8964 283.382 61.8964C282.672 61.8964 282.049 62.0839 281.515 62.4589C280.987 62.8282 280.575 63.3566 280.279 64.0441C279.984 64.7259 279.836 65.5327 279.836 66.4646C279.836 67.4191 279.981 68.243 280.271 68.9361C280.561 69.6293 280.97 70.1663 281.498 70.5469C282.032 70.9276 282.66 71.118 283.382 71.118C283.865 71.118 284.302 71.0299 284.694 70.8538C285.092 70.6719 285.424 70.4134 285.691 70.0782C285.964 69.743 286.154 69.3396 286.262 68.868H288.743C288.652 69.7146 288.376 70.4702 287.916 71.135C287.456 71.7998 286.839 72.3225 286.066 72.7032C285.299 73.0839 284.399 73.2742 283.365 73.2742ZM297.11 73.2742C295.82 73.2742 294.709 72.9986 293.777 72.4475C292.851 71.8907 292.135 71.1094 291.63 70.1038C291.13 69.0924 290.88 67.9077 290.88 66.5498C290.88 65.2089 291.13 64.0271 291.63 63.0043C292.135 61.9816 292.84 61.1833 293.743 60.6094C294.652 60.0356 295.715 59.7486 296.931 59.7486C297.669 59.7486 298.385 59.8708 299.079 60.1151C299.772 60.3594 300.394 60.743 300.945 61.2657C301.496 61.7884 301.931 62.4674 302.249 63.3026C302.567 64.1322 302.726 65.1407 302.726 66.3282V67.2316H292.32V65.3225H300.229C300.229 64.6521 300.093 64.0583 299.82 63.5413C299.547 63.0185 299.164 62.6066 298.669 62.3055C298.181 62.0043 297.607 61.8538 296.948 61.8538C296.232 61.8538 295.607 62.0299 295.073 62.3822C294.544 62.7288 294.135 63.1833 293.846 63.7458C293.561 64.3026 293.419 64.9077 293.419 65.5611V67.0526C293.419 67.9276 293.573 68.6719 293.88 69.2856C294.192 69.8992 294.627 70.368 295.184 70.6918C295.74 71.01 296.391 71.1691 297.135 71.1691C297.618 71.1691 298.059 71.1009 298.456 70.9646C298.854 70.8225 299.198 70.6123 299.488 70.3339C299.777 70.0555 299.999 69.7117 300.152 69.3026L302.564 69.7373C302.371 70.4475 302.025 71.0697 301.525 71.6038C301.03 72.1322 300.408 72.5441 299.658 72.8396C298.914 73.1293 298.064 73.2742 297.11 73.2742ZM315.363 63.1151L313.054 63.5242C312.957 63.2288 312.804 62.9475 312.593 62.6805C312.389 62.4134 312.11 62.1947 311.758 62.0242C311.406 61.8538 310.966 61.7685 310.437 61.7685C309.716 61.7685 309.113 61.9305 308.63 62.2543C308.147 62.5725 307.906 62.9844 307.906 63.4901C307.906 63.9276 308.068 64.2799 308.392 64.5469C308.716 64.814 309.238 65.0327 309.96 65.2032L312.039 65.6805C313.244 65.9589 314.142 66.3879 314.733 66.9674C315.324 67.5469 315.619 68.2998 315.619 69.2259C315.619 70.01 315.392 70.7089 314.937 71.3225C314.488 71.9305 313.86 72.4077 313.054 72.7543C312.253 73.1009 311.324 73.2742 310.267 73.2742C308.801 73.2742 307.605 72.9617 306.679 72.3367C305.753 71.706 305.184 70.8111 304.974 69.6521L307.437 69.2771C307.591 69.9191 307.906 70.4049 308.383 70.7344C308.86 71.0583 309.483 71.2202 310.25 71.2202C311.085 71.2202 311.753 71.0469 312.253 70.7004C312.753 70.3481 313.003 69.9191 313.003 69.4134C313.003 69.0043 312.849 68.6606 312.542 68.3822C312.241 68.1038 311.778 67.8935 311.153 67.7515L308.937 67.2657C307.716 66.9873 306.812 66.5441 306.227 65.9361C305.647 65.3282 305.358 64.5583 305.358 63.6265C305.358 62.8538 305.574 62.1776 306.005 61.5981C306.437 61.0185 307.034 60.5668 307.795 60.243C308.556 59.9134 309.429 59.7486 310.412 59.7486C311.826 59.7486 312.94 60.0555 313.753 60.6691C314.565 61.2771 315.102 62.0924 315.363 63.1151ZM326.185 73.01V55.5555H331.299C332.276 55.5555 333.14 55.7742 333.89 56.2117C334.645 56.6492 335.236 57.2515 335.662 58.0185C336.094 58.7856 336.31 59.6691 336.31 60.6691C336.31 61.6577 336.094 62.5356 335.662 63.3026C335.236 64.064 334.645 64.6634 333.89 65.1009C333.14 65.5327 332.276 65.7486 331.299 65.7486H326.458V65.2032H331.299C332.174 65.2032 332.946 65.01 333.617 64.6236C334.287 64.2373 334.813 63.7032 335.194 63.0214C335.574 62.3396 335.765 61.5555 335.765 60.6691C335.765 59.7771 335.574 58.9873 335.194 58.2998C334.813 57.6123 334.287 57.0753 333.617 56.689C332.946 56.2969 332.174 56.1009 331.299 56.1009H326.73V73.01H326.185ZM340.331 73.01V59.9191H340.876V61.9986H340.944C341.251 61.3168 341.754 60.7714 342.453 60.3623C343.157 59.9532 343.961 59.7486 344.865 59.7486C344.933 59.7486 344.978 59.7486 345.001 59.7486C345.024 59.7486 345.069 59.7486 345.137 59.7486V60.2941C345.069 60.2941 345.024 60.2941 345.001 60.2941C344.978 60.2941 344.933 60.2941 344.865 60.2941C344.092 60.2941 343.404 60.4617 342.802 60.7969C342.206 61.1322 341.734 61.5952 341.387 62.1861C341.047 62.7771 340.876 63.4532 340.876 64.2146V73.01H340.331ZM352.373 73.2827C351.345 73.2827 350.422 72.9873 349.603 72.3964C348.785 71.7998 348.137 70.9901 347.66 69.9674C347.189 68.939 346.953 67.7827 346.953 66.4986C346.953 65.2089 347.189 64.0526 347.66 63.0299C348.137 62.0072 348.785 61.2004 349.603 60.6094C350.422 60.0128 351.345 59.7146 352.373 59.7146C353.402 59.7146 354.322 60.0128 355.135 60.6094C355.953 61.206 356.601 62.0157 357.078 63.0384C357.555 64.0611 357.794 65.2146 357.794 66.4986C357.794 67.7827 357.555 68.939 357.078 69.9674C356.606 70.9901 355.961 71.7998 355.143 72.3964C354.325 72.9873 353.402 73.2827 352.373 73.2827ZM352.373 72.7373C353.299 72.7373 354.129 72.4646 354.862 71.9191C355.601 71.3736 356.183 70.6293 356.609 69.6861C357.035 68.743 357.248 67.6805 357.248 66.4986C357.248 65.3168 357.032 64.2572 356.601 63.3197C356.174 62.3765 355.595 61.6322 354.862 61.0867C354.129 60.5356 353.299 60.26 352.373 60.26C351.453 60.26 350.623 60.5356 349.885 61.0867C349.152 61.6322 348.569 62.3765 348.137 63.3197C347.711 64.2572 347.498 65.3168 347.498 66.4986C347.498 67.6805 347.711 68.743 348.137 69.6861C348.564 70.6293 349.143 71.3736 349.876 71.9191C350.615 72.4646 351.447 72.7373 352.373 72.7373ZM365.897 73.2827C364.863 73.2827 363.968 72.9873 363.212 72.3964C362.456 71.7998 361.874 70.9901 361.465 69.9674C361.056 68.9447 360.851 67.7884 360.851 66.4986C360.851 65.2146 361.059 64.0611 361.473 63.0384C361.888 62.0157 362.473 61.206 363.229 60.6094C363.985 60.0128 364.874 59.7146 365.897 59.7146C366.59 59.7146 367.229 59.8594 367.814 60.1492C368.4 60.4333 368.908 60.8424 369.34 61.3765C369.772 61.9049 370.101 62.5327 370.329 63.26H370.397V55.5555H370.942V73.01H370.397V69.7373H370.329C370.09 70.4589 369.757 71.0867 369.331 71.6208C368.905 72.1492 368.4 72.5583 367.814 72.8481C367.235 73.1379 366.596 73.2827 365.897 73.2827ZM365.897 72.7373C366.823 72.7373 367.621 72.4646 368.292 71.9191C368.968 71.368 369.488 70.6236 369.851 69.6861C370.215 68.743 370.397 67.6805 370.397 66.4986C370.397 65.3168 370.212 64.2572 369.843 63.3197C369.479 62.3765 368.959 61.6322 368.283 61.0867C367.613 60.5356 366.817 60.26 365.897 60.26C364.976 60.26 364.178 60.5356 363.502 61.0867C362.831 61.6322 362.311 62.3765 361.942 63.3197C361.579 64.2572 361.397 65.3168 361.397 66.4986C361.397 67.6805 361.579 68.743 361.942 69.6861C362.306 70.6236 362.823 71.368 363.493 71.9191C364.169 72.4646 364.971 72.7373 365.897 72.7373ZM384.434 68.7146V59.9191H384.979V73.01H384.434V70.9305H384.365C384.059 71.6123 383.553 72.1577 382.848 72.5668C382.15 72.9759 381.348 73.1805 380.445 73.1805C379.57 73.1805 378.797 72.9901 378.127 72.6094C377.456 72.2288 376.931 71.7032 376.55 71.0327C376.169 70.3623 375.979 69.5896 375.979 68.7146V59.9191H376.525V68.7146C376.525 69.8736 376.888 70.8168 377.615 71.5441C378.343 72.2714 379.286 72.635 380.445 72.635C381.218 72.635 381.902 72.4674 382.499 72.1322C383.101 71.7969 383.573 71.3339 383.914 70.743C384.26 70.1521 384.434 69.4759 384.434 68.7146ZM394.324 73.2827C393.267 73.2827 392.324 72.9873 391.495 72.3964C390.671 71.7998 390.02 70.9901 389.543 69.9674C389.071 68.9447 388.836 67.7884 388.836 66.4986C388.836 65.2202 389.071 64.0697 389.543 63.0469C390.015 62.0185 390.662 61.206 391.486 60.6094C392.316 60.0128 393.262 59.7146 394.324 59.7146C395.108 59.7146 395.827 59.885 396.48 60.2259C397.14 60.5611 397.691 61.0327 398.134 61.6407C398.577 62.243 398.864 62.9418 398.995 63.7373H398.415C398.239 62.7089 397.77 61.8736 397.009 61.2316C396.253 60.5839 395.358 60.26 394.324 60.26C393.387 60.26 392.543 60.5327 391.793 61.0782C391.049 61.618 390.461 62.3594 390.029 63.3026C389.597 64.2401 389.381 65.3055 389.381 66.4986C389.381 67.6577 389.588 68.7089 390.003 69.6521C390.424 70.5952 391.006 71.3452 391.75 71.9021C392.495 72.4589 393.353 72.7373 394.324 72.7373C395.023 72.7373 395.665 72.5924 396.25 72.3026C396.836 72.0072 397.321 71.5924 397.708 71.0583C398.1 70.5242 398.347 69.9021 398.449 69.1918H399.029C398.904 70.0157 398.62 70.7344 398.177 71.3481C397.733 71.9617 397.179 72.439 396.515 72.7799C395.85 73.1151 395.12 73.2827 394.324 73.2827ZM406.976 59.9191V60.4646H401.794V59.9191H406.976ZM403.704 56.7827H404.249V70.2486C404.249 70.76 404.363 71.2004 404.59 71.5697C404.817 71.9333 405.118 72.2146 405.493 72.4134C405.868 72.6066 406.272 72.7032 406.704 72.7032C406.868 72.7032 407.019 72.689 407.155 72.6606C407.297 72.6322 407.442 72.5896 407.59 72.5327L407.76 73.0441C407.59 73.1066 407.422 73.1549 407.257 73.189C407.093 73.2288 406.908 73.2486 406.704 73.2486C406.169 73.2486 405.672 73.1265 405.212 72.8822C404.757 72.6379 404.391 72.2913 404.113 71.8424C403.84 71.3935 403.704 70.8623 403.704 70.2486V56.7827ZM418.388 73.01V55.5555H418.934V72.4646H427.661V73.01H418.388ZM431.547 73.01V59.9191H432.093V73.01H431.547ZM431.82 57.5327C431.672 57.5327 431.544 57.4788 431.436 57.3708C431.329 57.2629 431.275 57.135 431.275 56.9873C431.275 56.8396 431.329 56.7117 431.436 56.6038C431.544 56.4958 431.672 56.4418 431.82 56.4418C431.968 56.4418 432.096 56.4958 432.204 56.6038C432.311 56.7117 432.365 56.8396 432.365 56.9873C432.365 57.135 432.311 57.2629 432.204 57.3708C432.096 57.4788 431.968 57.5327 431.82 57.5327ZM437.345 64.2146V73.01H436.799V59.9191H437.345V61.9986H437.413C437.72 61.3168 438.223 60.7714 438.922 60.3623C439.626 59.9532 440.43 59.7486 441.333 59.7486C442.208 59.7486 442.981 59.939 443.652 60.3197C444.322 60.7003 444.848 61.2259 445.228 61.8964C445.609 62.5668 445.799 63.3396 445.799 64.2146V73.01H445.254V64.2146C445.254 63.0555 444.89 62.1123 444.163 61.385C443.436 60.6577 442.493 60.2941 441.333 60.2941C440.561 60.2941 439.873 60.4617 439.271 60.7969C438.674 61.1322 438.203 61.5952 437.856 62.1861C437.515 62.7771 437.345 63.4532 437.345 64.2146ZM455.349 73.2827C454.207 73.2827 453.207 72.9844 452.349 72.3879C451.497 71.7913 450.835 70.9816 450.363 69.9589C449.892 68.9361 449.656 67.7827 449.656 66.4986C449.656 65.2146 449.892 64.0611 450.363 63.0384C450.841 62.0157 451.488 61.206 452.306 60.6094C453.125 60.0128 454.048 59.7146 455.076 59.7146C455.838 59.7146 456.542 59.8765 457.19 60.2004C457.843 60.5242 458.412 60.9731 458.895 61.5469C459.378 62.1208 459.753 62.7827 460.02 63.5327C460.292 64.2771 460.429 65.0725 460.429 65.9191V66.4646H449.929V65.9191H459.883C459.883 64.868 459.667 63.9163 459.235 63.064C458.804 62.206 458.224 61.5242 457.497 61.0185C456.77 60.5129 455.963 60.26 455.076 60.26C454.179 60.26 453.366 60.5271 452.639 61.0611C451.912 61.5952 451.329 62.3225 450.892 63.243C450.454 64.1634 450.224 65.2032 450.201 66.3623V66.4305C450.201 67.5725 450.4 68.6236 450.798 69.5839C451.201 70.5384 451.787 71.3026 452.554 71.8765C453.321 72.4504 454.253 72.7373 455.349 72.7373C456.156 72.7373 456.832 72.5952 457.378 72.3111C457.929 72.0271 458.369 71.7004 458.699 71.331C459.034 70.9617 459.281 70.6464 459.44 70.385L459.883 70.6918C459.69 71.0214 459.4 71.3879 459.014 71.7913C458.628 72.1947 458.133 72.5441 457.531 72.8396C456.929 73.135 456.201 73.2827 455.349 73.2827Z" fill="white"/>
<path d="M74.2517 99.01V90.2791H74.5245V95.7189H74.5586L79.5038 90.2791H79.879L76.0251 94.5081L79.8278 99.01H79.4697L75.8375 94.7128L74.5245 96.1622V99.01H74.2517ZM83.4195 99.1464C82.8483 99.1464 82.3481 98.9972 81.9189 98.6988C81.4926 98.4004 81.1615 97.9954 80.9256 97.4838C80.6897 96.9722 80.5718 96.3953 80.5718 95.753C80.5718 95.1107 80.6897 94.5337 80.9256 94.0221C81.1643 93.5106 81.4883 93.1056 81.8976 92.8071C82.3069 92.5087 82.7687 92.3595 83.2831 92.3595C83.664 92.3595 84.0164 92.4405 84.3404 92.6025C84.6672 92.7645 84.9514 92.989 85.193 93.2761C85.4346 93.5631 85.6222 93.8942 85.7557 94.2694C85.8922 94.6417 85.9604 95.0396 85.9604 95.4631V95.7359H80.7082V95.4631H85.6875C85.6875 94.9373 85.5795 94.4612 85.3635 94.0349C85.1475 93.6058 84.8576 93.2647 84.4938 93.0118C84.1301 92.7588 83.7265 92.6324 83.2831 92.6324C82.8341 92.6324 82.4276 92.7659 82.0639 93.0331C81.7001 93.3002 81.4088 93.664 81.1899 94.1245C80.9711 94.5849 80.856 95.105 80.8446 95.6848V95.7189C80.8446 96.2901 80.9441 96.8159 81.143 97.2962C81.3448 97.7737 81.6375 98.156 82.0212 98.443C82.4049 98.7301 82.871 98.8736 83.4195 98.8736C83.8231 98.8736 84.1613 98.8025 84.4342 98.6604C84.7098 98.5183 84.9301 98.3549 85.095 98.1702C85.2626 97.9854 85.3863 97.8277 85.4658 97.697L85.6875 97.8504C85.5909 98.0153 85.4459 98.1986 85.2527 98.4004C85.0594 98.6022 84.8122 98.777 84.5109 98.9247C84.2096 99.0725 83.8459 99.1464 83.4195 99.1464ZM87.9918 101.466C87.8809 101.466 87.763 101.45 87.6379 101.419C87.5129 101.39 87.3864 101.349 87.2585 101.295L87.3608 101.056C87.6422 101.176 87.898 101.218 88.1282 101.184C88.3612 101.153 88.5659 101.046 88.7421 100.864C88.9211 100.683 89.0689 100.428 89.1854 100.101L89.535 99.1294L87.1477 92.4618H87.4375L89.6544 98.669H89.6885L91.9053 92.4618H92.1952L89.4412 100.204C89.3446 100.477 89.2238 100.707 89.0789 100.894C88.9339 101.082 88.7691 101.224 88.5843 101.321C88.4024 101.417 88.2049 101.466 87.9918 101.466ZM95.3638 99.01L93.4198 92.4618H93.7097L95.5343 98.6349H95.5684L97.4101 92.4618H97.6829L99.5246 98.6349H99.5587L101.383 92.4618H101.673L99.7292 99.01H99.3541L97.5636 92.9734H97.5295L95.7389 99.01H95.3638ZM105.546 99.1464C105.032 99.1464 104.57 98.9986 104.161 98.7031C103.752 98.4046 103.428 97.9996 103.189 97.4881C102.953 96.9737 102.835 96.3953 102.835 95.753C102.835 95.1078 102.953 94.5295 103.189 94.0179C103.428 93.5063 103.752 93.1027 104.161 92.8071C104.57 92.5087 105.032 92.3595 105.546 92.3595C106.061 92.3595 106.521 92.5087 106.928 92.8071C107.337 93.1056 107.661 93.5106 107.9 94.0221C108.138 94.5337 108.258 95.1107 108.258 95.753C108.258 96.3953 108.138 96.9737 107.9 97.4881C107.664 97.9996 107.341 98.4046 106.932 98.7031C106.523 98.9986 106.061 99.1464 105.546 99.1464ZM105.546 98.8736C106.01 98.8736 106.425 98.7372 106.791 98.4643C107.161 98.1915 107.452 97.8192 107.665 97.3474C107.878 96.8756 107.985 96.3441 107.985 95.753C107.985 95.1618 107.877 94.6318 107.661 94.1628C107.448 93.691 107.158 93.3187 106.791 93.0459C106.425 92.7702 106.01 92.6324 105.546 92.6324C105.086 92.6324 104.671 92.7702 104.301 93.0459C103.935 93.3187 103.644 93.691 103.428 94.1628C103.214 94.6318 103.108 95.1618 103.108 95.753C103.108 96.3441 103.214 96.8756 103.428 97.3474C103.641 97.8192 103.931 98.1915 104.297 98.4643C104.667 98.7372 105.083 98.8736 105.546 98.8736ZM110.179 99.01V92.4618H110.452V93.502H110.486C110.64 93.161 110.891 92.8881 111.241 92.6835C111.593 92.4789 111.995 92.3766 112.447 92.3766C112.481 92.3766 112.504 92.3766 112.515 92.3766C112.527 92.3766 112.55 92.3766 112.584 92.3766V92.6494C112.55 92.6494 112.527 92.6494 112.515 92.6494C112.504 92.6494 112.481 92.6494 112.447 92.6494C112.061 92.6494 111.717 92.7332 111.416 92.9009C111.117 93.0686 110.881 93.3002 110.708 93.5958C110.537 93.8914 110.452 94.2296 110.452 94.6104V99.01H110.179ZM116.016 99.1464C115.498 99.1464 115.051 98.9986 114.673 98.7031C114.295 98.4046 114.003 97.9996 113.799 97.4881C113.594 96.9765 113.492 96.3981 113.492 95.753C113.492 95.1107 113.595 94.5337 113.803 94.0221C114.01 93.5106 114.303 93.1056 114.681 92.8071C115.059 92.5087 115.504 92.3595 116.016 92.3595C116.362 92.3595 116.682 92.432 116.975 92.5769C117.267 92.719 117.522 92.9237 117.738 93.1908C117.954 93.4551 118.119 93.7692 118.232 94.133H118.266V90.2791H118.539V99.01H118.266V97.373H118.232C118.113 97.7339 117.947 98.048 117.734 98.3151C117.52 98.5794 117.267 98.7841 116.975 98.929C116.685 99.074 116.365 99.1464 116.016 99.1464ZM116.016 98.8736C116.479 98.8736 116.878 98.7372 117.213 98.4643C117.552 98.1886 117.812 97.8163 117.994 97.3474C118.175 96.8756 118.266 96.3441 118.266 95.753C118.266 95.1618 118.174 94.6318 117.989 94.1628C117.807 93.691 117.547 93.3187 117.209 93.0459C116.874 92.7702 116.476 92.6324 116.016 92.6324C115.555 92.6324 115.156 92.7702 114.818 93.0459C114.482 93.3187 114.222 93.691 114.037 94.1628C113.856 94.6318 113.765 95.1618 113.765 95.753C113.765 96.3441 113.856 96.8756 114.037 97.3474C114.219 97.8163 114.478 98.1886 114.813 98.4643C115.152 98.7372 115.552 98.8736 116.016 98.8736ZM121.417 98.3791C121.332 98.3791 121.259 98.3492 121.199 98.2895C121.14 98.2299 121.11 98.1574 121.11 98.0721C121.11 97.9869 121.14 97.9144 121.199 97.8547C121.259 97.795 121.332 97.7652 121.417 97.7652C121.502 97.7652 121.575 97.795 121.634 97.8547C121.694 97.9144 121.724 97.9869 121.724 98.0721C121.724 98.129 121.71 98.1815 121.681 98.2299C121.656 98.2753 121.619 98.3123 121.57 98.3407C121.525 98.3663 121.474 98.3791 121.417 98.3791ZM121.417 93.9283C121.332 93.9283 121.259 93.8985 121.199 93.8388C121.14 93.7791 121.11 93.7067 121.11 93.6214C121.11 93.5361 121.14 93.4637 121.199 93.404C121.259 93.3443 121.332 93.3145 121.417 93.3145C121.502 93.3145 121.575 93.3443 121.634 93.404C121.694 93.4637 121.724 93.5361 121.724 93.6214C121.724 93.6782 121.71 93.7308 121.681 93.7791C121.656 93.8246 121.619 93.8616 121.57 93.89C121.525 93.9156 121.474 93.9283 121.417 93.9283ZM127.369 99.01V90.2791H130.319C131.004 90.2791 131.564 90.4027 131.999 90.65C132.437 90.8944 132.761 91.2255 132.971 91.6433C133.181 92.0611 133.287 92.5272 133.287 93.0416C133.287 93.556 133.181 94.0236 132.971 94.4442C132.764 94.8648 132.442 95.2002 132.008 95.4503C131.573 95.6976 131.016 95.8212 130.336 95.8212H128.222V94.8833H130.302C130.771 94.8833 131.148 94.8023 131.432 94.6403C131.716 94.4783 131.922 94.2595 132.05 93.9838C132.181 93.7052 132.246 93.3912 132.246 93.0416C132.246 92.692 132.181 92.3794 132.05 92.1037C131.922 91.828 131.715 91.612 131.428 91.4557C131.141 91.2966 130.76 91.217 130.285 91.217H128.427V99.01H127.369ZM137.528 99.1464C136.897 99.1464 136.353 99.0072 135.896 98.7286C135.441 98.4473 135.09 98.0551 134.843 97.552C134.598 97.0461 134.476 96.4578 134.476 95.7871C134.476 95.1163 134.598 94.5252 134.843 94.0136C135.09 93.4992 135.434 93.0985 135.874 92.8114C136.318 92.5215 136.835 92.3766 137.426 92.3766C137.767 92.3766 138.104 92.4334 138.436 92.5471C138.769 92.6608 139.072 92.8455 139.344 93.1013C139.617 93.3542 139.835 93.6896 139.997 94.1074C140.159 94.5252 140.24 95.0396 140.24 95.6507V96.077H135.192V95.2073H139.217C139.217 94.8378 139.143 94.5081 138.995 94.2182C138.85 93.9283 138.642 93.6996 138.372 93.5319C138.105 93.3642 137.79 93.2804 137.426 93.2804C137.025 93.2804 136.679 93.3798 136.386 93.5788C136.096 93.7749 135.873 94.0307 135.717 94.3461C135.56 94.6616 135.482 94.9998 135.482 95.3608V95.9405C135.482 96.4351 135.567 96.8543 135.738 97.1982C135.911 97.5392 136.151 97.7993 136.458 97.9783C136.765 98.1545 137.122 98.2426 137.528 98.2426C137.793 98.2426 138.031 98.2057 138.245 98.1318C138.461 98.0551 138.647 97.9414 138.803 97.7908C138.959 97.6373 139.08 97.4469 139.165 97.2195L140.137 97.4923C140.035 97.822 139.863 98.1119 139.622 98.362C139.38 98.6093 139.082 98.8025 138.726 98.9418C138.371 99.0782 137.972 99.1464 137.528 99.1464ZM144.43 99.1464C143.839 99.1464 143.321 99.0057 142.874 98.7244C142.431 98.443 142.084 98.0494 141.834 97.5435C141.587 97.0376 141.463 96.4464 141.463 95.77C141.463 95.0879 141.587 94.4925 141.834 93.9838C142.084 93.475 142.431 93.08 142.874 92.7986C143.321 92.5172 143.839 92.3766 144.43 92.3766C145.022 92.3766 145.539 92.5172 145.982 92.7986C146.428 93.08 146.775 93.475 147.022 93.9838C147.272 94.4925 147.398 95.0879 147.398 95.77C147.398 96.4464 147.272 97.0376 147.022 97.5435C146.775 98.0494 146.428 98.443 145.982 98.7244C145.539 99.0057 145.022 99.1464 144.43 99.1464ZM144.43 98.2426C144.879 98.2426 145.249 98.1275 145.539 97.8973C145.829 97.6671 146.043 97.3644 146.183 96.9893C146.322 96.6141 146.391 96.2077 146.391 95.77C146.391 95.3323 146.322 94.9245 146.183 94.5465C146.043 94.1685 145.829 93.863 145.539 93.6299C145.249 93.3969 144.879 93.2804 144.43 93.2804C143.981 93.2804 143.612 93.3969 143.322 93.6299C143.032 93.863 142.817 94.1685 142.678 94.5465C142.539 94.9245 142.469 95.3323 142.469 95.77C142.469 96.2077 142.539 96.6141 142.678 96.9893C142.817 97.3644 143.032 97.6671 143.322 97.8973C143.612 98.1275 143.981 98.2426 144.43 98.2426ZM148.933 101.466V92.4618H149.905V93.502H150.025C150.099 93.3883 150.201 93.2434 150.332 93.0672C150.465 92.8881 150.656 92.729 150.903 92.5897C151.153 92.4476 151.491 92.3766 151.918 92.3766C152.469 92.3766 152.955 92.5144 153.376 92.7901C153.796 93.0658 154.124 93.4566 154.36 93.9625C154.596 94.4683 154.714 95.0652 154.714 95.753C154.714 96.4464 154.596 97.0475 154.36 97.5563C154.124 98.0622 153.798 98.4544 153.38 98.7329C152.962 99.0086 152.48 99.1464 151.935 99.1464C151.514 99.1464 151.177 99.0768 150.924 98.9375C150.671 98.7954 150.477 98.6349 150.34 98.4558C150.204 98.2739 150.099 98.1233 150.025 98.0039H149.939V101.466H148.933ZM149.922 95.7359C149.922 96.2304 149.995 96.6667 150.14 97.0447C150.285 97.4199 150.496 97.714 150.775 97.9272C151.054 98.1375 151.395 98.2426 151.798 98.2426C152.219 98.2426 152.57 98.1318 152.851 97.9101C153.135 97.6856 153.349 97.3843 153.491 97.0063C153.636 96.6255 153.708 96.202 153.708 95.7359C153.708 95.2755 153.637 94.8606 153.495 94.4911C153.356 94.1188 153.144 93.8246 152.86 93.6086C152.578 93.3898 152.224 93.2804 151.798 93.2804C151.389 93.2804 151.045 93.3841 150.766 93.5916C150.488 93.7962 150.278 94.0832 150.136 94.4527C149.993 94.8193 149.922 95.2471 149.922 95.7359ZM157.255 90.2791V99.01H156.249V90.2791H157.255ZM161.843 99.1464C161.212 99.1464 160.668 99.0072 160.21 98.7286C159.756 98.4473 159.405 98.0551 159.157 97.552C158.913 97.0461 158.791 96.4578 158.791 95.7871C158.791 95.1163 158.913 94.5252 159.157 94.0136C159.405 93.4992 159.749 93.0985 160.189 92.8114C160.632 92.5215 161.15 92.3766 161.741 92.3766C162.082 92.3766 162.419 92.4334 162.751 92.5471C163.084 92.6608 163.386 92.8455 163.659 93.1013C163.932 93.3542 164.15 93.6896 164.312 94.1074C164.474 94.5252 164.555 95.0396 164.555 95.6507V96.077H159.507V95.2073H163.531C163.531 94.8378 163.457 94.5081 163.31 94.2182C163.165 93.9283 162.957 93.6996 162.687 93.5319C162.42 93.3642 162.105 93.2804 161.741 93.2804C161.34 93.2804 160.993 93.3798 160.701 93.5788C160.411 93.7749 160.188 94.0307 160.031 94.3461C159.875 94.6616 159.797 94.9998 159.797 95.3608V95.9405C159.797 96.4351 159.882 96.8543 160.053 97.1982C160.226 97.5392 160.466 97.7993 160.773 97.9783C161.08 98.1545 161.437 98.2426 161.843 98.2426C162.107 98.2426 162.346 98.2057 162.559 98.1318C162.775 98.0551 162.962 97.9414 163.118 97.7908C163.274 97.6373 163.395 97.4469 163.48 97.2195L164.452 97.4923C164.35 97.822 164.178 98.1119 163.936 98.362C163.695 98.6093 163.396 98.8025 163.041 98.9418C162.686 99.0782 162.287 99.1464 161.843 99.1464ZM169.598 99.01V90.2791H172.548C173.233 90.2791 173.793 90.4027 174.228 90.65C174.665 90.8944 174.989 91.2255 175.2 91.6433C175.41 92.0611 175.515 92.5272 175.515 93.0416C175.515 93.556 175.41 94.0236 175.2 94.4442C174.992 94.8648 174.671 95.2002 174.236 95.4503C173.801 95.6976 173.244 95.8212 172.565 95.8212H170.45V94.8833H172.531C173 94.8833 173.376 94.8023 173.661 94.6403C173.945 94.4783 174.151 94.2595 174.279 93.9838C174.409 93.7052 174.475 93.3912 174.475 93.0416C174.475 92.692 174.409 92.3794 174.279 92.1037C174.151 91.828 173.943 91.612 173.656 91.4557C173.369 91.2966 172.988 91.217 172.514 91.217H170.655V99.01H169.598ZM179.757 99.1464C179.126 99.1464 178.582 99.0072 178.124 98.7286C177.669 98.4473 177.318 98.0551 177.071 97.552C176.827 97.0461 176.704 96.4578 176.704 95.7871C176.704 95.1163 176.827 94.5252 177.071 94.0136C177.318 93.4992 177.662 93.0985 178.103 92.8114C178.546 92.5215 179.063 92.3766 179.655 92.3766C179.996 92.3766 180.332 92.4334 180.665 92.5471C180.997 92.6608 181.3 92.8455 181.573 93.1013C181.846 93.3542 182.063 93.6896 182.225 94.1074C182.387 94.5252 182.468 95.0396 182.468 95.6507V96.077H177.421V95.2073H181.445C181.445 94.8378 181.371 94.5081 181.223 94.2182C181.078 93.9283 180.871 93.6996 180.601 93.5319C180.334 93.3642 180.018 93.2804 179.655 93.2804C179.254 93.2804 178.907 93.3798 178.614 93.5788C178.324 93.7749 178.101 94.0307 177.945 94.3461C177.789 94.6616 177.711 94.9998 177.711 95.3608V95.9405C177.711 96.4351 177.796 96.8543 177.966 97.1982C178.14 97.5392 178.38 97.7993 178.687 97.9783C178.994 98.1545 179.35 98.2426 179.757 98.2426C180.021 98.2426 180.26 98.2057 180.473 98.1318C180.689 98.0551 180.875 97.9414 181.032 97.7908C181.188 97.6373 181.309 97.4469 181.394 97.2195L182.366 97.4923C182.264 97.822 182.092 98.1119 181.85 98.362C181.609 98.6093 181.31 98.8025 180.955 98.9418C180.6 99.0782 180.2 99.1464 179.757 99.1464ZM183.999 99.01V92.4618H184.971V93.4509H185.039C185.158 93.1269 185.374 92.864 185.687 92.6622C186 92.4604 186.352 92.3595 186.744 92.3595C186.818 92.3595 186.91 92.3609 187.021 92.3638C187.132 92.3666 187.216 92.3709 187.273 92.3766V93.3997C187.239 93.3912 187.161 93.3784 187.038 93.3613C186.919 93.3415 186.792 93.3315 186.659 93.3315C186.341 93.3315 186.056 93.3983 185.806 93.5319C185.559 93.6626 185.363 93.8445 185.218 94.0776C185.076 94.3078 185.005 94.5707 185.005 94.8662V99.01H183.999ZM191.792 92.4618V93.3145H188.262V92.4618H191.792ZM189.319 99.01V91.558C189.319 91.1829 189.407 90.8703 189.583 90.6202C189.76 90.37 189.988 90.1825 190.27 90.0574C190.551 89.9324 190.848 89.8698 191.161 89.8698C191.408 89.8698 191.61 89.8897 191.766 89.9295C191.922 89.9693 192.039 90.0063 192.116 90.0404L191.826 90.91C191.775 90.893 191.704 90.8717 191.613 90.8461C191.525 90.8205 191.408 90.8077 191.263 90.8077C190.931 90.8077 190.69 90.8916 190.543 91.0593C190.398 91.2269 190.325 91.4728 190.325 91.7968V99.01H189.319ZM195.592 99.1464C195.001 99.1464 194.482 99.0057 194.036 98.7244C193.593 98.443 193.246 98.0494 192.996 97.5435C192.749 97.0376 192.625 96.4464 192.625 95.77C192.625 95.0879 192.749 94.4925 192.996 93.9838C193.246 93.475 193.593 93.08 194.036 92.7986C194.482 92.5172 195.001 92.3766 195.592 92.3766C196.183 92.3766 196.701 92.5172 197.144 92.7986C197.59 93.08 197.937 93.475 198.184 93.9838C198.434 94.4925 198.559 95.0879 198.559 95.77C198.559 96.4464 198.434 97.0376 198.184 97.5435C197.937 98.0494 197.59 98.443 197.144 98.7244C196.701 99.0057 196.183 99.1464 195.592 99.1464ZM195.592 98.2426C196.041 98.2426 196.411 98.1275 196.701 97.8973C196.991 97.6671 197.205 97.3644 197.344 96.9893C197.484 96.6141 197.553 96.2077 197.553 95.77C197.553 95.3323 197.484 94.9245 197.344 94.5465C197.205 94.1685 196.991 93.863 196.701 93.6299C196.411 93.3969 196.041 93.2804 195.592 93.2804C195.143 93.2804 194.774 93.3969 194.484 93.6299C194.194 93.863 193.979 94.1685 193.84 94.5465C193.701 94.9245 193.631 95.3323 193.631 95.77C193.631 96.2077 193.701 96.6141 193.84 96.9893C193.979 97.3644 194.194 97.6671 194.484 97.8973C194.774 98.1275 195.143 98.2426 195.592 98.2426ZM200.095 99.01V92.4618H201.067V93.4509H201.135C201.255 93.1269 201.471 92.864 201.783 92.6622C202.096 92.4604 202.449 92.3595 202.841 92.3595C202.915 92.3595 203.007 92.3609 203.118 92.3638C203.229 92.3666 203.313 92.3709 203.369 92.3766V93.3997C203.335 93.3912 203.257 93.3784 203.135 93.3613C203.016 93.3415 202.889 93.3315 202.755 93.3315C202.437 93.3315 202.153 93.3983 201.903 93.5319C201.656 93.6626 201.459 93.8445 201.315 94.0776C201.172 94.3078 201.101 94.5707 201.101 94.8662V99.01H200.095ZM204.562 99.01V92.4618H205.534V93.485H205.619C205.756 93.1354 205.976 92.864 206.28 92.6707C206.584 92.4746 206.949 92.3766 207.376 92.3766C207.808 92.3766 208.167 92.4746 208.454 92.6707C208.744 92.864 208.97 93.1354 209.132 93.485H209.2C209.368 93.1468 209.619 92.8782 209.955 92.6792C210.29 92.4775 210.692 92.3766 211.161 92.3766C211.747 92.3766 212.226 92.5599 212.598 92.9265C212.97 93.2903 213.156 93.8573 213.156 94.6275V99.01H212.15V94.6275C212.15 94.1443 212.018 93.799 211.754 93.5916C211.49 93.3841 211.178 93.2804 210.82 93.2804C210.36 93.2804 210.003 93.4196 209.75 93.6981C209.497 93.9738 209.371 94.3234 209.371 94.7469V99.01H208.348V94.5252C208.348 94.1529 208.227 93.853 207.985 93.6257C207.744 93.3955 207.432 93.2804 207.052 93.2804C206.79 93.2804 206.546 93.35 206.318 93.4892C206.094 93.6285 205.912 93.8218 205.773 94.069C205.636 94.3135 205.568 94.5962 205.568 94.9174V99.01H204.562ZM216.923 99.1635C216.508 99.1635 216.131 99.0853 215.793 98.929C215.455 98.7699 215.186 98.5411 214.987 98.2426C214.789 97.9414 214.689 97.5776 214.689 97.1513C214.689 96.7761 214.763 96.472 214.911 96.239C215.059 96.0031 215.256 95.8183 215.503 95.6848C215.751 95.5512 216.023 95.4517 216.322 95.3863C216.623 95.3181 216.926 95.2641 217.23 95.2243C217.628 95.1732 217.95 95.1348 218.198 95.1092C218.448 95.0808 218.63 95.0339 218.743 94.9686C218.86 94.9032 218.918 94.7895 218.918 94.6275V94.5934C218.918 94.1728 218.803 93.8459 218.573 93.6129C218.345 93.3798 218 93.2633 217.537 93.2633C217.057 93.2633 216.68 93.3685 216.407 93.5788C216.134 93.7891 215.942 94.0136 215.832 94.2523L214.877 93.9113C215.047 93.5134 215.275 93.2036 215.559 92.9819C215.846 92.7574 216.158 92.6011 216.497 92.513C216.838 92.422 217.173 92.3766 217.503 92.3766C217.713 92.3766 217.955 92.4021 218.227 92.4533C218.503 92.5016 218.769 92.6025 219.025 92.756C219.283 92.9095 219.498 93.1411 219.668 93.4509C219.839 93.7607 219.924 94.1756 219.924 94.6957V99.01H218.918V98.1233H218.867C218.799 98.2654 218.685 98.4174 218.526 98.5794C218.367 98.7414 218.155 98.8793 217.891 98.993C217.626 99.1066 217.304 99.1635 216.923 99.1635ZM217.076 98.2597C217.474 98.2597 217.81 98.1815 218.083 98.0252C218.358 97.8689 218.566 97.6671 218.705 97.4199C218.847 97.1726 218.918 96.9125 218.918 96.6397V95.7189C218.875 95.77 218.782 95.8169 218.637 95.8595C218.495 95.8993 218.33 95.9349 218.142 95.9661C217.957 95.9945 217.777 96.0201 217.601 96.0429C217.427 96.0628 217.287 96.0798 217.179 96.094C216.917 96.1281 216.673 96.1835 216.445 96.2603C216.221 96.3342 216.039 96.4464 215.9 96.5971C215.763 96.7449 215.695 96.9467 215.695 97.2024C215.695 97.552 215.824 97.8163 216.083 97.9954C216.345 98.1716 216.676 98.2597 217.076 98.2597ZM222.767 95.0709V99.01H221.761V92.4618H222.733V93.485H222.818C222.971 93.1525 223.204 92.8853 223.517 92.6835C223.83 92.4789 224.233 92.3766 224.728 92.3766C225.171 92.3766 225.559 92.4675 225.892 92.6494C226.224 92.8285 226.483 93.1013 226.667 93.4679C226.852 93.8317 226.945 94.2921 226.945 94.8492V99.01H225.938V94.9174C225.938 94.403 225.805 94.0022 225.538 93.7152C225.271 93.4253 224.904 93.2804 224.438 93.2804C224.117 93.2804 223.83 93.35 223.577 93.4892C223.327 93.6285 223.129 93.8317 222.984 94.0989C222.839 94.366 222.767 94.69 222.767 95.0709ZM231.443 99.1464C230.829 99.1464 230.301 99.0015 229.857 98.7116C229.414 98.4217 229.073 98.0224 228.834 97.5136C228.595 97.0049 228.476 96.4237 228.476 95.77C228.476 95.105 228.598 94.5181 228.843 94.0093C229.09 93.4978 229.434 93.0985 229.874 92.8114C230.318 92.5215 230.835 92.3766 231.426 92.3766C231.887 92.3766 232.302 92.4618 232.671 92.6324C233.04 92.8029 233.343 93.0416 233.579 93.3486C233.815 93.6555 233.961 94.0136 234.018 94.4229H233.012C232.935 94.1245 232.765 93.8601 232.5 93.6299C232.239 93.3969 231.887 93.2804 231.443 93.2804C231.051 93.2804 230.707 93.3827 230.412 93.5873C230.119 93.7891 229.89 94.0747 229.725 94.4442C229.563 94.8108 229.482 95.2414 229.482 95.7359C229.482 96.2418 229.562 96.6823 229.721 97.0575C229.883 97.4326 230.11 97.724 230.403 97.9314C230.699 98.1389 231.045 98.2426 231.443 98.2426C231.705 98.2426 231.942 98.1972 232.155 98.1062C232.368 98.0153 232.549 97.8845 232.697 97.714C232.844 97.5435 232.949 97.3389 233.012 97.1001H234.018C233.961 97.4866 233.821 97.8348 233.596 98.1446C233.374 98.4515 233.08 98.696 232.714 98.8779C232.35 99.0569 231.926 99.1464 231.443 99.1464ZM238.234 99.1464C237.603 99.1464 237.059 99.0072 236.602 98.7286C236.147 98.4473 235.796 98.0551 235.549 97.552C235.304 97.0461 235.182 96.4578 235.182 95.7871C235.182 95.1163 235.304 94.5252 235.549 94.0136C235.796 93.4992 236.14 93.0985 236.58 92.8114C237.024 92.5215 237.541 92.3766 238.132 92.3766C238.473 92.3766 238.81 92.4334 239.142 92.5471C239.475 92.6608 239.778 92.8455 240.05 93.1013C240.323 93.3542 240.541 93.6896 240.703 94.1074C240.865 94.5252 240.946 95.0396 240.946 95.6507V96.077H235.898V95.2073H239.923C239.923 94.8378 239.849 94.5081 239.701 94.2182C239.556 93.9283 239.348 93.6996 239.078 93.5319C238.811 93.3642 238.496 93.2804 238.132 93.2804C237.731 93.2804 237.385 93.3798 237.092 93.5788C236.802 93.7749 236.579 94.0307 236.423 94.3461C236.266 94.6616 236.188 94.9998 236.188 95.3608V95.9405C236.188 96.4351 236.273 96.8543 236.444 97.1982C236.617 97.5392 236.857 97.7993 237.164 97.9783C237.471 98.1545 237.828 98.2426 238.234 98.2426C238.499 98.2426 238.737 98.2057 238.951 98.1318C239.167 98.0551 239.353 97.9414 239.509 97.7908C239.665 97.6373 239.786 97.4469 239.871 97.2195L240.843 97.4923C240.741 97.822 240.569 98.1119 240.328 98.362C240.086 98.6093 239.788 98.8025 239.432 98.9418C239.077 99.0782 238.678 99.1464 238.234 99.1464Z" fill="white"/>
</g>
</g>
<defs>
<linearGradient id="paint0_linear_725_33199" x1="81.9157" y1="29.2577" x2="76.6485" y2="19.9443" gradientUnits="userSpaceOnUse">
<stop stop-color="white" stop-opacity="0.4"/>
<stop offset="0.9228" stop-color="white"/>
</linearGradient>
<clipPath id="clip0_725_33199">
<path d="M0 12C0 5.37259 5.37258 0 12 0H674C680.627 0 686 5.37258 686 12V108C686 114.627 680.627 120 674 120H12C5.37258 120 0 114.627 0 108V12Z" fill="white"/>
</clipPath>
<clipPath id="clip1_725_33199">
<rect width="686" height="411.6" fill="white" transform="translate(0 -75)"/>
</clipPath>
</defs>
</svg>
