<svg width="686" height="120" viewBox="0 0 686 120" fill="none" xmlns="http://www.w3.org/2000/svg">
<g clip-path="url(#clip0_726_33216)">
<g clip-path="url(#clip1_726_33216)">
<rect width="686" height="411.6" transform="translate(0 -75)" fill="#6A49E0"/>
<g opacity="0.2">
<path d="M466.593 330.151C408.824 240.67 412.633 141.868 450.723 67.3002C488.812 -7.26788 518.015 -63.8171 519.92 -68.1669C521.824 -72.5167 526.268 -74.9999 530.711 -74.9999H674.181C683.069 -74.9999 689.418 -65.6801 684.975 -57.6019C684.975 -57.6019 491.986 320.208 486.908 329.529C483.099 338.85 472.307 338.851 466.593 330.151Z" fill="white"/>
</g>
<path d="M79.1007 30.807C78.7835 31.1488 78.3078 31.1178 78.0858 30.7138L72.9474 20.6161C72.7571 20.2122 73.0426 19.746 73.4866 19.746H80.6549C80.8769 19.746 81.0989 19.8703 81.1941 20.0878C82.7483 23.2259 81.7968 27.9796 79.1007 30.807Z" fill="url(#paint0_linear_726_33216)"/>
<path d="M82.8757 39.9725C79.9893 35.4984 80.1797 30.5583 82.0827 26.8299C83.9858 23.1015 85.4449 20.2741 85.5401 20.0566C85.6352 19.8391 85.8572 19.7149 86.0792 19.7149H93.2475C93.6915 19.7149 94.0088 20.1809 93.7868 20.5848C93.7868 20.5848 84.1444 39.4753 83.8907 39.9414C83.7003 40.4074 83.1612 40.4075 82.8757 39.9725Z" fill="white"/>
<path d="M101.07 22.0327H105.601L108.525 28.1132H108.642L111.565 22.0327H116.096L110.6 32.2935V37H106.566V32.2935L101.07 22.0327ZM121.513 22.0327L124.583 32.5858H124.7L127.769 22.0327H132.359L127.418 37H121.864L116.924 22.0327H121.513ZM133.8 37V22.0327H144.587V25.3068H137.864V27.8793H144.032V31.1534H137.864V33.7259H144.558V37H133.8ZM154.671 26.71C154.632 26.2228 154.449 25.8428 154.123 25.5699C153.801 25.2971 153.311 25.1607 152.654 25.1607C152.235 25.1607 151.891 25.2118 151.623 25.3141C151.36 25.4116 151.165 25.5456 151.039 25.7161C150.912 25.8866 150.846 26.0815 150.841 26.3007C150.831 26.481 150.863 26.6442 150.936 26.7904C151.014 26.9317 151.136 27.0608 151.302 27.1777C151.467 27.2898 151.679 27.3921 151.937 27.4847C152.196 27.5772 152.503 27.6601 152.858 27.7332L154.086 27.9963C154.914 28.1716 155.623 28.4031 156.213 28.6905C156.802 28.978 157.285 29.3166 157.66 29.7064C158.035 30.0913 158.31 30.5249 158.486 31.0072C158.666 31.4896 158.758 32.0158 158.763 32.5858C158.758 33.57 158.512 34.4031 158.025 35.0852C157.538 35.7673 156.841 36.2862 155.935 36.6419C155.034 36.9976 153.95 37.1754 152.683 37.1754C151.382 37.1754 150.247 36.9829 149.277 36.598C148.313 36.2131 147.562 35.6212 147.026 34.8221C146.495 34.0182 146.227 32.9902 146.222 31.7381H150.081C150.106 32.1961 150.22 32.581 150.425 32.8928C150.629 33.2046 150.917 33.4409 151.287 33.6017C151.662 33.7625 152.108 33.8428 152.624 33.8428C153.058 33.8428 153.421 33.7892 153.713 33.6821C154.006 33.5749 154.227 33.4263 154.378 33.2363C154.529 33.0462 154.607 32.8294 154.612 32.5858C154.607 32.3568 154.532 32.1571 154.386 31.9865C154.244 31.8112 154.011 31.6552 153.684 31.5188C153.358 31.3775 152.917 31.246 152.361 31.1242L150.87 30.8026C149.545 30.5152 148.5 30.0352 147.735 29.3629C146.975 28.6857 146.598 27.7624 146.602 26.5931C146.598 25.643 146.851 24.8123 147.362 24.101C147.879 23.3848 148.593 22.8269 149.504 22.4274C150.42 22.0279 151.47 21.8281 152.654 21.8281C153.862 21.8281 154.907 22.0303 155.789 22.4347C156.671 22.8391 157.35 23.4091 157.828 24.1448C158.31 24.8756 158.554 25.7307 158.559 26.71H154.671Z" fill="white"/>
<path d="M168.481 37.0049V22.0376H173.341C174.248 22.0376 175.012 22.1984 175.636 22.52C176.26 22.8415 176.732 23.2922 177.054 23.872C177.38 24.4518 177.544 25.1266 177.544 25.8964C177.544 26.5005 177.446 27.0364 177.251 27.5042C177.056 27.9719 176.784 28.3592 176.433 28.6662C176.087 28.9683 175.68 29.1778 175.212 29.2947V29.3824C175.729 29.4214 176.209 29.6016 176.652 29.9232C177.095 30.2399 177.451 30.6711 177.719 31.2168C177.992 31.7624 178.128 32.3983 178.128 33.1242C178.128 33.8891 177.963 34.5639 177.631 35.1486C177.305 35.7284 176.815 36.1839 176.162 36.5152C175.509 36.8417 174.701 37.0049 173.736 37.0049H168.481ZM169.395 36.1571H173.736C174.861 36.1571 175.726 35.8745 176.33 35.3094C176.939 34.7442 177.244 34.0158 177.244 33.1242C177.244 32.4957 177.095 31.933 176.798 31.436C176.506 30.939 176.099 30.5468 175.578 30.2594C175.056 29.967 174.452 29.8209 173.765 29.8209H169.395V36.1571ZM169.395 28.9877H173.656C174.294 28.9877 174.835 28.8489 175.278 28.5712C175.726 28.2935 176.067 27.9207 176.301 27.453C176.54 26.9853 176.659 26.4664 176.659 25.8964C176.659 24.9706 176.372 24.2374 175.797 23.6966C175.222 23.1558 174.403 22.8854 173.341 22.8854H169.395V28.9877ZM185.789 37.2387C184.776 37.2387 183.894 36.9878 183.144 36.486C182.393 35.9842 181.813 35.2972 181.404 34.4251C180.995 33.553 180.79 32.559 180.79 31.4433C180.79 30.3227 180.995 29.3239 181.404 28.4469C181.818 27.5699 182.386 26.8781 183.107 26.3714C183.828 25.8647 184.651 25.6113 185.577 25.6113C186.206 25.6113 186.8 25.738 187.36 25.9914C187.926 26.2398 188.422 26.6004 188.851 27.073C189.285 27.5456 189.623 28.1156 189.867 28.7831C190.116 29.4506 190.24 30.2009 190.24 31.0341V31.5895H181.353V30.7783H189.348C189.348 29.9646 189.183 29.2314 188.851 28.5785C188.52 27.9256 188.069 27.4067 187.499 27.0218C186.929 26.6369 186.288 26.4445 185.577 26.4445C184.832 26.4445 184.167 26.654 183.582 27.073C183.002 27.4871 182.542 28.0474 182.201 28.7539C181.865 29.4603 181.689 30.2496 181.675 31.1218V31.4872C181.675 32.4226 181.838 33.2631 182.164 34.0085C182.496 34.7491 182.968 35.3362 183.582 35.7698C184.196 36.1985 184.932 36.4129 185.789 36.4129C186.403 36.4129 186.927 36.3106 187.36 36.106C187.799 35.8965 188.157 35.6431 188.435 35.3459C188.712 35.0487 188.922 34.7613 189.063 34.4835L189.874 34.8124C189.704 35.1876 189.438 35.5627 189.078 35.9379C188.722 36.3082 188.269 36.6175 187.718 36.866C187.173 37.1145 186.53 37.2387 185.789 37.2387ZM200.442 28.1985L199.616 28.4177C199.485 28.0084 199.297 27.6552 199.054 27.358C198.81 27.0608 198.503 26.8318 198.133 26.671C197.767 26.5054 197.329 26.4226 196.817 26.4226C195.994 26.4226 195.319 26.6272 194.793 27.0364C194.272 27.4457 194.011 27.9792 194.011 28.6369C194.011 29.1729 194.189 29.6163 194.544 29.967C194.9 30.313 195.443 30.5761 196.174 30.7563L197.899 31.1875C198.786 31.4068 199.453 31.7624 199.901 32.2545C200.35 32.7417 200.574 33.3483 200.574 34.0743C200.574 34.693 200.406 35.2412 200.069 35.7186C199.733 36.1961 199.268 36.5688 198.674 36.8368C198.084 37.1048 197.397 37.2387 196.613 37.2387C195.565 37.2387 194.705 36.9951 194.033 36.5079C193.36 36.0158 192.929 35.3118 192.739 34.3958L193.594 34.1766C193.755 34.9074 194.089 35.4653 194.596 35.8502C195.107 36.2302 195.777 36.4202 196.605 36.4202C197.521 36.4202 198.259 36.2034 198.82 35.7698C199.385 35.3362 199.667 34.7807 199.667 34.1035C199.667 33.5871 199.502 33.151 199.17 32.7953C198.839 32.4397 198.337 32.179 197.665 32.0134L195.874 31.5749C194.958 31.3507 194.272 30.9926 193.814 30.5006C193.356 30.0036 193.127 29.3921 193.127 28.6662C193.127 28.062 193.285 27.531 193.602 27.073C193.918 26.615 194.354 26.2569 194.91 25.9987C195.465 25.7405 196.101 25.6113 196.817 25.6113C197.767 25.6113 198.542 25.8355 199.141 26.2837C199.741 26.7319 200.174 27.3702 200.442 28.1985ZM207.628 25.7794V26.576H202.724V25.7794H207.628ZM204.383 23.09H205.267V34.352C205.267 34.81 205.355 35.1851 205.53 35.4775C205.711 35.7649 205.945 35.9793 206.232 36.1206C206.524 36.257 206.836 36.3252 207.168 36.3252C207.328 36.3252 207.467 36.313 207.584 36.2887C207.706 36.2643 207.82 36.2326 207.928 36.1937L208.147 37.0049C208.01 37.0536 207.859 37.095 207.694 37.1291C207.528 37.1681 207.333 37.1876 207.109 37.1876C206.641 37.1876 206.198 37.0828 205.779 36.8733C205.365 36.6638 205.029 36.3593 204.77 35.9598C204.512 35.5603 204.383 35.0779 204.383 34.5128V23.09ZM217.037 37.0049V22.0376H221.649C222.599 22.0376 223.413 22.2325 224.09 22.6223C224.772 23.012 225.296 23.5455 225.661 24.2228C226.026 24.9 226.209 25.6722 226.209 26.5395C226.209 27.397 226.026 28.1643 225.661 28.8416C225.296 29.5188 224.772 30.0547 224.09 30.4494C223.413 30.8392 222.601 31.0341 221.656 31.0341H217.68V30.1863H221.634C222.404 30.1863 223.062 30.0304 223.607 29.7186C224.153 29.4019 224.572 28.9707 224.864 28.425C225.157 27.8745 225.303 27.2459 225.303 26.5395C225.303 25.8281 225.157 25.1972 224.864 24.6467C224.572 24.0961 224.151 23.6649 223.6 23.3531C223.054 23.0413 222.397 22.8854 221.627 22.8854H217.951V37.0049H217.037ZM229.405 37.0049V25.7794H230.274V27.5334H230.355C230.598 26.9585 231.01 26.4981 231.59 26.1521C232.17 25.8014 232.83 25.626 233.57 25.626C233.648 25.626 233.726 25.626 233.804 25.626C233.882 25.626 233.955 25.6284 234.023 25.6333V26.5322C233.965 26.5273 233.894 26.52 233.812 26.5103C233.734 26.4956 233.636 26.4883 233.519 26.4883C232.896 26.4883 232.34 26.6223 231.853 26.8903C231.371 27.1582 230.991 27.5285 230.713 28.0011C230.435 28.4689 230.296 29.0048 230.296 29.6089V37.0049H229.405ZM239.393 37.2461C238.745 37.2461 238.151 37.1169 237.61 36.8587C237.074 36.6005 236.643 36.2229 236.316 35.7259C235.995 35.229 235.834 34.6248 235.834 33.9135C235.834 33.4458 235.917 33.0341 236.083 32.6784C236.248 32.3227 236.504 32.0158 236.85 31.7576C237.196 31.4993 237.639 31.2874 238.18 31.1218C238.721 30.9512 239.366 30.8197 240.117 30.7271C240.687 30.6589 241.196 30.5931 241.644 30.5298C242.092 30.4616 242.443 30.3568 242.697 30.2155C242.955 30.0742 243.084 29.8599 243.084 29.5724V29.1047C243.084 28.2862 242.826 27.6357 242.309 27.1534C241.793 26.671 241.081 26.4299 240.175 26.4299C239.371 26.4299 238.694 26.6077 238.143 26.9634C237.598 27.3142 237.215 27.7673 236.996 28.3227L236.156 28.0084C236.37 27.4725 236.679 27.0267 237.084 26.671C237.493 26.3154 237.961 26.0498 238.487 25.8744C239.018 25.699 239.573 25.6113 240.153 25.6113C240.655 25.6113 241.133 25.682 241.586 25.8233C242.044 25.9646 242.45 26.1789 242.806 26.4664C243.167 26.7539 243.452 27.1217 243.661 27.5699C243.871 28.0133 243.975 28.5444 243.975 29.1631V37.0049H243.084V34.9805H243.018C242.823 35.3995 242.555 35.782 242.214 36.1279C241.878 36.4689 241.471 36.7418 240.994 36.9464C240.521 37.1462 239.988 37.2461 239.393 37.2461ZM239.481 36.4202C240.182 36.4202 240.804 36.2497 241.344 35.9086C241.89 35.5627 242.316 35.0901 242.623 34.4908C242.93 33.8916 243.084 33.2119 243.084 32.4519V30.8002C242.972 30.8976 242.809 30.9853 242.594 31.0633C242.385 31.1364 242.146 31.2021 241.878 31.2606C241.615 31.3142 241.337 31.3629 241.045 31.4068C240.757 31.4457 240.477 31.4823 240.204 31.5164C239.386 31.6138 238.718 31.7649 238.202 31.9695C237.69 32.1693 237.315 32.4324 237.076 32.7588C236.843 33.0852 236.726 33.4799 236.726 33.9427C236.726 34.7077 236.989 35.3118 237.515 35.7552C238.041 36.1985 238.696 36.4202 239.481 36.4202ZM251.923 37.2387C250.968 37.2387 250.128 36.9878 249.402 36.486C248.676 35.9793 248.108 35.2874 247.699 34.4105C247.295 33.5335 247.092 32.5395 247.092 31.4287C247.092 30.3178 247.297 29.3239 247.706 28.4469C248.116 27.5699 248.683 26.8781 249.409 26.3714C250.135 25.8647 250.971 25.6113 251.916 25.6113C252.627 25.6113 253.275 25.7575 253.86 26.0498C254.449 26.3422 254.937 26.749 255.322 27.2703C255.711 27.7916 255.96 28.3958 256.067 29.0828H255.161C255.015 28.3227 254.649 27.6942 254.064 27.1972C253.485 26.6954 252.771 26.4445 251.923 26.4445C251.163 26.4445 250.486 26.6589 249.891 27.0876C249.297 27.5115 248.829 28.0986 248.488 28.8489C248.147 29.5943 247.977 30.4494 247.977 31.4141C247.977 32.3642 248.142 33.2168 248.474 33.972C248.805 34.7223 249.268 35.3167 249.862 35.7552C250.457 36.1937 251.144 36.4129 251.923 36.4129C252.474 36.4129 252.976 36.3033 253.429 36.084C253.887 35.8648 254.269 35.553 254.576 35.1486C254.883 34.7442 255.085 34.2716 255.183 33.7308H256.089C255.982 34.4226 255.738 35.0317 255.358 35.5579C254.978 36.084 254.493 36.4957 253.904 36.7929C253.314 37.0901 252.654 37.2387 251.923 37.2387ZM263.097 25.7794V26.576H258.194V25.7794H263.097ZM259.853 23.09H260.737V34.352C260.737 34.81 260.825 35.1851 261 35.4775C261.18 35.7649 261.414 35.9793 261.702 36.1206C261.994 36.257 262.306 36.3252 262.637 36.3252C262.798 36.3252 262.937 36.313 263.054 36.2887C263.175 36.2643 263.29 36.2326 263.397 36.1937L263.616 37.0049C263.48 37.0536 263.329 37.095 263.163 37.1291C262.998 37.1681 262.803 37.1876 262.579 37.1876C262.111 37.1876 261.667 37.0828 261.248 36.8733C260.834 36.6638 260.498 36.3593 260.24 35.9598C259.982 35.5603 259.853 35.0779 259.853 34.5128V23.09ZM266.448 37.0049V25.7794H267.333V37.0049H266.448ZM266.894 23.7916C266.699 23.7916 266.529 23.7234 266.383 23.587C266.241 23.4505 266.171 23.2849 266.171 23.09C266.171 22.8951 266.241 22.7295 266.383 22.593C266.524 22.4566 266.694 22.3884 266.894 22.3884C267.089 22.3884 267.257 22.4566 267.398 22.593C267.545 22.7295 267.618 22.8951 267.618 23.09C267.618 23.2849 267.547 23.4505 267.406 23.587C267.264 23.7234 267.094 23.7916 266.894 23.7916ZM275.277 37.2387C274.322 37.2387 273.481 36.9878 272.755 36.486C272.029 35.9793 271.462 35.2874 271.052 34.4105C270.648 33.5335 270.446 32.5395 270.446 31.4287C270.446 30.3178 270.651 29.3239 271.06 28.4469C271.469 27.5699 272.037 26.8781 272.763 26.3714C273.489 25.8647 274.324 25.6113 275.269 25.6113C275.981 25.6113 276.629 25.7575 277.213 26.0498C277.803 26.3422 278.29 26.749 278.675 27.2703C279.065 27.7916 279.313 28.3958 279.42 29.0828H278.514C278.368 28.3227 278.003 27.6942 277.418 27.1972C276.838 26.6954 276.124 26.4445 275.277 26.4445C274.517 26.4445 273.839 26.6589 273.245 27.0876C272.651 27.5115 272.183 28.0986 271.842 28.8489C271.501 29.5943 271.33 30.4494 271.33 31.4141C271.33 32.3642 271.496 33.2168 271.827 33.972C272.158 34.7223 272.621 35.3167 273.216 35.7552C273.81 36.1937 274.497 36.4129 275.277 36.4129C275.827 36.4129 276.329 36.3033 276.782 36.084C277.24 35.8648 277.623 35.553 277.93 35.1486C278.236 34.7442 278.439 34.2716 278.536 33.7308H279.442C279.335 34.4226 279.092 35.0317 278.712 35.5579C278.331 36.084 277.847 36.4957 277.257 36.7929C276.668 37.0901 276.007 37.2387 275.277 37.2387ZM286.86 37.2387C285.847 37.2387 284.965 36.9878 284.215 36.486C283.464 35.9842 282.885 35.2972 282.475 34.4251C282.066 33.553 281.861 32.559 281.861 31.4433C281.861 30.3227 282.066 29.3239 282.475 28.4469C282.889 27.5699 283.457 26.8781 284.178 26.3714C284.899 25.8647 285.723 25.6113 286.648 25.6113C287.277 25.6113 287.871 25.738 288.431 25.9914C288.997 26.2398 289.494 26.6004 289.922 27.073C290.356 27.5456 290.695 28.1156 290.938 28.7831C291.187 29.4506 291.311 30.2009 291.311 31.0341V31.5895H282.424V30.7783H290.419C290.419 29.9646 290.254 29.2314 289.922 28.5785C289.591 27.9256 289.14 27.4067 288.57 27.0218C288 26.6369 287.36 26.4445 286.648 26.4445C285.903 26.4445 285.238 26.654 284.653 27.073C284.073 27.4871 283.613 28.0474 283.272 28.7539C282.936 29.4603 282.76 30.2496 282.746 31.1218V31.4872C282.746 32.4226 282.909 33.2631 283.235 34.0085C283.567 34.7491 284.039 35.3362 284.653 35.7698C285.267 36.1985 286.003 36.4129 286.86 36.4129C287.474 36.4129 287.998 36.3106 288.431 36.106C288.87 35.8965 289.228 35.6431 289.506 35.3459C289.783 35.0487 289.993 34.7613 290.134 34.4835L290.946 34.8124C290.775 35.1876 290.509 35.5627 290.149 35.9379C289.793 36.3082 289.34 36.6175 288.79 36.866C288.244 37.1145 287.601 37.2387 286.86 37.2387Z" fill="white"/>
<path d="M79.7056 59.9191V60.4646H74.5238V59.9191H79.7056ZM76.3306 73.01V57.7714C76.3306 57.1577 76.467 56.6265 76.7397 56.1776C77.0181 55.7288 77.3846 55.3822 77.8392 55.1379C78.2994 54.8935 78.7965 54.7714 79.3306 54.7714C79.5352 54.7714 79.7198 54.7884 79.8846 54.8225C80.0494 54.8566 80.2113 54.9021 80.3704 54.9589L80.2 55.4702C80.0579 55.4248 79.9187 55.3878 79.7823 55.3594C79.646 55.331 79.4954 55.3168 79.3306 55.3168C78.6772 55.3168 78.1034 55.5356 77.609 55.9731C77.1204 56.4106 76.8761 57.01 76.8761 57.7714L76.859 73.01H76.3306ZM87.2482 73.2827C86.2198 73.2827 85.2965 72.9873 84.4784 72.3964C83.6602 71.7998 83.0125 70.9901 82.5352 69.9674C82.0636 68.939 81.8278 67.7827 81.8278 66.4986C81.8278 65.2089 82.0636 64.0526 82.5352 63.0299C83.0125 62.0072 83.6602 61.2004 84.4784 60.6094C85.2965 60.0128 86.2198 59.7146 87.2482 59.7146C88.2767 59.7146 89.1971 60.0128 90.0096 60.6094C90.8278 61.206 91.4755 62.0157 91.9528 63.0384C92.4301 64.0611 92.6687 65.2146 92.6687 66.4986C92.6687 67.7827 92.4301 68.939 91.9528 69.9674C91.4812 70.9901 90.8363 71.7998 90.0181 72.3964C89.2 72.9873 88.2767 73.2827 87.2482 73.2827ZM87.2482 72.7373C88.1744 72.7373 89.0039 72.4646 89.7369 71.9191C90.4755 71.3736 91.0579 70.6293 91.484 69.6861C91.9102 68.743 92.1232 67.6805 92.1232 66.4986C92.1232 65.3168 91.9073 64.2572 91.4755 63.3197C91.0494 62.3765 90.4698 61.6322 89.7369 61.0867C89.0039 60.5356 88.1744 60.26 87.2482 60.26C86.3278 60.26 85.4982 60.5356 84.7596 61.0867C84.0267 61.6322 83.4443 62.3765 83.0125 63.3197C82.5863 64.2572 82.3732 65.3168 82.3732 66.4986C82.3732 67.6805 82.5863 68.743 83.0125 69.6861C83.4386 70.6293 84.0181 71.3736 84.7511 71.9191C85.4897 72.4646 86.3221 72.7373 87.2482 72.7373ZM96.5103 73.01V59.9191H97.0558V61.9986H97.124C97.4308 61.3168 97.9336 60.7714 98.6325 60.3623C99.337 59.9532 100.141 59.7486 101.044 59.7486C101.113 59.7486 101.158 59.7486 101.181 59.7486C101.204 59.7486 101.249 59.7486 101.317 59.7486V60.2941C101.249 60.2941 101.204 60.2941 101.181 60.2941C101.158 60.2941 101.113 60.2941 101.044 60.2941C100.272 60.2941 99.5842 60.4617 98.9819 60.7969C98.3853 61.1322 97.9137 61.5952 97.5671 62.1861C97.2262 62.7771 97.0558 63.4532 97.0558 64.2146V73.01H96.5103ZM110.664 73.01V55.5555H121.608V57.8225H113.298V63.1407H121.037V65.3992H113.298V70.743H121.71V73.01H110.664ZM132.634 64.5299V66.7373H124.895V64.5299H132.634ZM141.544 73.2742C140.277 73.2742 139.186 72.9873 138.272 72.4134C137.363 71.8339 136.664 71.0356 136.175 70.0185C135.686 69.0015 135.442 67.8367 135.442 66.5242C135.442 65.1947 135.692 64.0214 136.192 63.0043C136.692 61.9816 137.397 61.1833 138.306 60.6094C139.215 60.0356 140.286 59.7486 141.519 59.7486C142.513 59.7486 143.4 59.9333 144.178 60.3026C144.956 60.6663 145.584 61.1776 146.061 61.8367C146.544 62.4958 146.831 63.2657 146.922 64.1464H144.442C144.306 63.5327 143.993 63.0043 143.505 62.5611C143.022 62.118 142.374 61.8964 141.561 61.8964C140.851 61.8964 140.229 62.0839 139.695 62.4589C139.167 62.8282 138.755 63.3566 138.459 64.0441C138.164 64.7259 138.016 65.5327 138.016 66.4646C138.016 67.4191 138.161 68.243 138.451 68.9361C138.74 69.6293 139.15 70.1663 139.678 70.5469C140.212 70.9276 140.84 71.118 141.561 71.118C142.044 71.118 142.482 71.0299 142.874 70.8538C143.272 70.6719 143.604 70.4134 143.871 70.0782C144.144 69.743 144.334 69.3396 144.442 68.868H146.922C146.831 69.7146 146.556 70.4702 146.096 71.135C145.635 71.7998 145.019 72.3225 144.246 72.7032C143.479 73.0839 142.579 73.2742 141.544 73.2742ZM155.162 73.2742C153.934 73.2742 152.863 72.993 151.949 72.4305C151.034 71.868 150.324 71.081 149.818 70.0697C149.312 69.0583 149.059 67.8765 149.059 66.5242C149.059 65.1663 149.312 63.9788 149.818 62.9617C150.324 61.9447 151.034 61.1549 151.949 60.5924C152.863 60.0299 153.934 59.7486 155.162 59.7486C156.389 59.7486 157.46 60.0299 158.375 60.5924C159.289 61.1549 160 61.9447 160.505 62.9617C161.011 63.9788 161.264 65.1663 161.264 66.5242C161.264 67.8765 161.011 69.0583 160.505 70.0697C160 71.081 159.289 71.868 158.375 72.4305C157.46 72.993 156.389 73.2742 155.162 73.2742ZM155.17 71.135C155.966 71.135 156.625 70.9248 157.147 70.5043C157.67 70.0839 158.056 69.5242 158.306 68.8254C158.562 68.1265 158.69 67.3566 158.69 66.5157C158.69 65.6805 158.562 64.9134 158.306 64.2146C158.056 63.51 157.67 62.9447 157.147 62.5185C156.625 62.0924 155.966 61.8793 155.17 61.8793C154.369 61.8793 153.704 62.0924 153.176 62.5185C152.653 62.9447 152.264 63.51 152.008 64.2146C151.758 64.9134 151.633 65.6805 151.633 66.5157C151.633 67.3566 151.758 68.1265 152.008 68.8254C152.264 69.5242 152.653 70.0839 153.176 70.5043C153.704 70.9248 154.369 71.135 155.17 71.135ZM164.108 73.01V59.9191H166.554V62.0498H166.716C166.989 61.3282 167.435 60.7657 168.054 60.3623C168.674 59.9532 169.415 59.7486 170.279 59.7486C171.154 59.7486 171.887 59.9532 172.478 60.3623C173.074 60.7714 173.515 61.3339 173.799 62.0498H173.935C174.248 61.3509 174.745 60.7941 175.427 60.3793C176.108 59.9589 176.921 59.7486 177.864 59.7486C179.052 59.7486 180.02 60.1208 180.77 60.8651C181.526 61.6094 181.904 62.7316 181.904 64.2316V73.01H179.355V64.4702C179.355 63.5839 179.114 62.9418 178.631 62.5441C178.148 62.1464 177.571 61.9475 176.901 61.9475C176.071 61.9475 175.427 62.2032 174.966 62.7146C174.506 63.2202 174.276 63.8708 174.276 64.6663V73.01H171.736V64.3083C171.736 63.5981 171.515 63.0271 171.071 62.5952C170.628 62.1634 170.052 61.9475 169.341 61.9475C168.858 61.9475 168.412 62.0754 168.003 62.331C167.6 62.581 167.273 62.9305 167.023 63.3793C166.779 63.8282 166.657 64.3481 166.657 64.939V73.01H164.108ZM185.319 73.01V59.9191H187.765V62.0498H187.927C188.2 61.3282 188.646 60.7657 189.265 60.3623C189.885 59.9532 190.626 59.7486 191.49 59.7486C192.365 59.7486 193.098 59.9532 193.689 60.3623C194.285 60.7714 194.726 61.3339 195.01 62.0498H195.146C195.458 61.3509 195.956 60.7941 196.637 60.3793C197.319 59.9589 198.132 59.7486 199.075 59.7486C200.262 59.7486 201.231 60.1208 201.981 60.8651C202.737 61.6094 203.115 62.7316 203.115 64.2316V73.01H200.566V64.4702C200.566 63.5839 200.325 62.9418 199.842 62.5441C199.359 62.1464 198.782 61.9475 198.112 61.9475C197.282 61.9475 196.637 62.2032 196.177 62.7146C195.717 63.2202 195.487 63.8708 195.487 64.6663V73.01H192.947V64.3083C192.947 63.5981 192.726 63.0271 192.282 62.5952C191.839 62.1634 191.262 61.9475 190.552 61.9475C190.069 61.9475 189.623 62.0754 189.214 62.331C188.811 62.581 188.484 62.9305 188.234 63.3793C187.99 63.8282 187.868 64.3481 187.868 64.939V73.01H185.319ZM212.172 73.2742C210.882 73.2742 209.772 72.9986 208.84 72.4475C207.914 71.8907 207.198 71.1094 206.692 70.1038C206.192 69.0924 205.942 67.9077 205.942 66.5498C205.942 65.2089 206.192 64.0271 206.692 63.0043C207.198 61.9816 207.902 61.1833 208.806 60.6094C209.715 60.0356 210.777 59.7486 211.993 59.7486C212.732 59.7486 213.448 59.8708 214.141 60.1151C214.834 60.3594 215.456 60.743 216.007 61.2657C216.559 61.7884 216.993 62.4674 217.311 63.3026C217.63 64.1322 217.789 65.1407 217.789 66.3282V67.2316H207.382V65.3225H215.292C215.292 64.6521 215.155 64.0583 214.882 63.5413C214.61 63.0185 214.226 62.6066 213.732 62.3055C213.243 62.0043 212.669 61.8538 212.01 61.8538C211.294 61.8538 210.669 62.0299 210.135 62.3822C209.607 62.7288 209.198 63.1833 208.908 63.7458C208.624 64.3026 208.482 64.9077 208.482 65.5611V67.0526C208.482 67.9276 208.635 68.6719 208.942 69.2856C209.255 69.8992 209.689 70.368 210.246 70.6918C210.803 71.01 211.454 71.1691 212.198 71.1691C212.681 71.1691 213.121 71.1009 213.519 70.9646C213.917 70.8225 214.26 70.6123 214.55 70.3339C214.84 70.0555 215.061 69.7117 215.215 69.3026L217.627 69.7373C217.434 70.4475 217.087 71.0697 216.587 71.6038C216.093 72.1322 215.471 72.5441 214.721 72.8396C213.976 73.1293 213.127 73.2742 212.172 73.2742ZM220.616 73.01V59.9191H223.079V61.9986H223.216C223.454 61.2941 223.875 60.7401 224.477 60.3367C225.085 59.9276 225.772 59.7231 226.539 59.7231C226.699 59.7231 226.886 59.7288 227.102 59.7401C227.324 59.7515 227.497 59.7657 227.622 59.7827V62.2202C227.52 62.1918 227.338 62.1606 227.076 62.1265C226.815 62.0867 226.554 62.0668 226.292 62.0668C225.69 62.0668 225.153 62.1947 224.681 62.4504C224.216 62.7004 223.846 63.0498 223.574 63.4986C223.301 63.9418 223.164 64.4475 223.164 65.0157V73.01H220.616ZM234.873 73.2742C233.605 73.2742 232.515 72.9873 231.6 72.4134C230.691 71.8339 229.992 71.0356 229.503 70.0185C229.015 69.0015 228.77 67.8367 228.77 66.5242C228.77 65.1947 229.02 64.0214 229.52 63.0043C230.02 61.9816 230.725 61.1833 231.634 60.6094C232.543 60.0356 233.614 59.7486 234.847 59.7486C235.841 59.7486 236.728 59.9333 237.506 60.3026C238.284 60.6663 238.912 61.1776 239.39 61.8367C239.873 62.4958 240.159 63.2657 240.25 64.1464H237.77C237.634 63.5327 237.321 63.0043 236.833 62.5611C236.35 62.118 235.702 61.8964 234.89 61.8964C234.179 61.8964 233.557 62.0839 233.023 62.4589C232.495 62.8282 232.083 63.3566 231.787 64.0441C231.492 64.7259 231.344 65.5327 231.344 66.4646C231.344 67.4191 231.489 68.243 231.779 68.9361C232.069 69.6293 232.478 70.1663 233.006 70.5469C233.54 70.9276 234.168 71.118 234.89 71.118C235.373 71.118 235.81 71.0299 236.202 70.8538C236.6 70.6719 236.932 70.4134 237.199 70.0782C237.472 69.743 237.662 69.3396 237.77 68.868H240.25C240.159 69.7146 239.884 70.4702 239.424 71.135C238.963 71.7998 238.347 72.3225 237.574 72.7032C236.807 73.0839 235.907 73.2742 234.873 73.2742ZM248.618 73.2742C247.328 73.2742 246.217 72.9986 245.285 72.4475C244.359 71.8907 243.643 71.1094 243.137 70.1038C242.637 69.0924 242.387 67.9077 242.387 66.5498C242.387 65.2089 242.637 64.0271 243.137 63.0043C243.643 61.9816 244.348 61.1833 245.251 60.6094C246.16 60.0356 247.223 59.7486 248.439 59.7486C249.177 59.7486 249.893 59.8708 250.586 60.1151C251.279 60.3594 251.902 60.743 252.453 61.2657C253.004 61.7884 253.439 62.4674 253.757 63.3026C254.075 64.1322 254.234 65.1407 254.234 66.3282V67.2316H243.828V65.3225H251.737C251.737 64.6521 251.601 64.0583 251.328 63.5413C251.055 63.0185 250.672 62.6066 250.177 62.3055C249.689 62.0043 249.115 61.8538 248.456 61.8538C247.74 61.8538 247.115 62.0299 246.581 62.3822C246.052 62.7288 245.643 63.1833 245.353 63.7458C245.069 64.3026 244.927 64.9077 244.927 65.5611V67.0526C244.927 67.9276 245.081 68.6719 245.387 69.2856C245.7 69.8992 246.135 70.368 246.691 70.6918C247.248 71.01 247.899 71.1691 248.643 71.1691C249.126 71.1691 249.566 71.1009 249.964 70.9646C250.362 70.8225 250.706 70.6123 250.995 70.3339C251.285 70.0555 251.507 69.7117 251.66 69.3026L254.072 69.7373C253.879 70.4475 253.532 71.0697 253.032 71.6038C252.538 72.1322 251.916 72.5441 251.166 72.8396C250.422 73.1293 249.572 73.2742 248.618 73.2742ZM264.826 73.01V55.5555H269.939C270.917 55.5555 271.78 55.7742 272.53 56.2117C273.286 56.6492 273.877 57.2515 274.303 58.0185C274.735 58.7856 274.951 59.6691 274.951 60.6691C274.951 61.6577 274.735 62.5356 274.303 63.3026C273.877 64.064 273.286 64.6634 272.53 65.1009C271.78 65.5327 270.917 65.7486 269.939 65.7486H265.098V65.2032H269.939C270.814 65.2032 271.587 65.01 272.257 64.6236C272.928 64.2373 273.454 63.7032 273.834 63.0214C274.215 62.3396 274.405 61.5555 274.405 60.6691C274.405 59.7771 274.215 58.9873 273.834 58.2998C273.454 57.6123 272.928 57.0753 272.257 56.689C271.587 56.2969 270.814 56.1009 269.939 56.1009H265.371V73.01H264.826ZM278.971 73.01V59.9191H279.517V61.9986H279.585C279.892 61.3168 280.395 60.7714 281.093 60.3623C281.798 59.9532 282.602 59.7486 283.505 59.7486C283.574 59.7486 283.619 59.7486 283.642 59.7486C283.664 59.7486 283.71 59.7486 283.778 59.7486V60.2941C283.71 60.2941 283.664 60.2941 283.642 60.2941C283.619 60.2941 283.574 60.2941 283.505 60.2941C282.733 60.2941 282.045 60.4617 281.443 60.7969C280.846 61.1322 280.375 61.5952 280.028 62.1861C279.687 62.7771 279.517 63.4532 279.517 64.2146V73.01H278.971ZM291.014 73.2827C289.985 73.2827 289.062 72.9873 288.244 72.3964C287.426 71.7998 286.778 70.9901 286.301 69.9674C285.829 68.939 285.593 67.7827 285.593 66.4986C285.593 65.2089 285.829 64.0526 286.301 63.0299C286.778 62.0072 287.426 61.2004 288.244 60.6094C289.062 60.0128 289.985 59.7146 291.014 59.7146C292.042 59.7146 292.963 60.0128 293.775 60.6094C294.593 61.206 295.241 62.0157 295.718 63.0384C296.196 64.0611 296.434 65.2146 296.434 66.4986C296.434 67.7827 296.196 68.939 295.718 69.9674C295.247 70.9901 294.602 71.7998 293.784 72.3964C292.966 72.9873 292.042 73.2827 291.014 73.2827ZM291.014 72.7373C291.94 72.7373 292.77 72.4646 293.503 71.9191C294.241 71.3736 294.824 70.6293 295.25 69.6861C295.676 68.743 295.889 67.6805 295.889 66.4986C295.889 65.3168 295.673 64.2572 295.241 63.3197C294.815 62.3765 294.235 61.6322 293.503 61.0867C292.77 60.5356 291.94 60.26 291.014 60.26C290.093 60.26 289.264 60.5356 288.525 61.0867C287.792 61.6322 287.21 62.3765 286.778 63.3197C286.352 64.2572 286.139 65.3168 286.139 66.4986C286.139 67.6805 286.352 68.743 286.778 69.6861C287.204 70.6293 287.784 71.3736 288.517 71.9191C289.255 72.4646 290.088 72.7373 291.014 72.7373ZM304.537 73.2827C303.503 73.2827 302.608 72.9873 301.853 72.3964C301.097 71.7998 300.515 70.9901 300.105 69.9674C299.696 68.9447 299.492 67.7884 299.492 66.4986C299.492 65.2146 299.699 64.0611 300.114 63.0384C300.529 62.0157 301.114 61.206 301.87 60.6094C302.625 60.0128 303.515 59.7146 304.537 59.7146C305.23 59.7146 305.87 59.8594 306.455 60.1492C307.04 60.4333 307.549 60.8424 307.98 61.3765C308.412 61.9049 308.742 62.5327 308.969 63.26H309.037V55.5555H309.583V73.01H309.037V69.7373H308.969C308.73 70.4589 308.398 71.0867 307.972 71.6208C307.546 72.1492 307.04 72.5583 306.455 72.8481C305.875 73.1379 305.236 73.2827 304.537 73.2827ZM304.537 72.7373C305.463 72.7373 306.262 72.4646 306.932 71.9191C307.608 71.368 308.128 70.6236 308.492 69.6861C308.855 68.743 309.037 67.6805 309.037 66.4986C309.037 65.3168 308.853 64.2572 308.483 63.3197C308.12 62.3765 307.6 61.6322 306.924 61.0867C306.253 60.5356 305.458 60.26 304.537 60.26C303.617 60.26 302.819 60.5356 302.142 61.0867C301.472 61.6322 300.952 62.3765 300.583 63.3197C300.219 64.2572 300.037 65.3168 300.037 66.4986C300.037 67.6805 300.219 68.743 300.583 69.6861C300.946 70.6236 301.463 71.368 302.134 71.9191C302.81 72.4646 303.611 72.7373 304.537 72.7373ZM323.074 68.7146V59.9191H323.62V73.01H323.074V70.9305H323.006C322.699 71.6123 322.194 72.1577 321.489 72.5668C320.79 72.9759 319.989 73.1805 319.086 73.1805C318.211 73.1805 317.438 72.9901 316.767 72.6094C316.097 72.2288 315.571 71.7032 315.191 71.0327C314.81 70.3623 314.62 69.5896 314.62 68.7146V59.9191H315.165V68.7146C315.165 69.8736 315.529 70.8168 316.256 71.5441C316.983 72.2714 317.927 72.635 319.086 72.635C319.858 72.635 320.543 72.4674 321.14 72.1322C321.742 71.7969 322.213 71.3339 322.554 70.743C322.901 70.1521 323.074 69.4759 323.074 68.7146ZM332.965 73.2827C331.908 73.2827 330.965 72.9873 330.135 72.3964C329.311 71.7998 328.661 70.9901 328.184 69.9674C327.712 68.9447 327.476 67.7884 327.476 66.4986C327.476 65.2202 327.712 64.0697 328.184 63.0469C328.655 62.0185 329.303 61.206 330.127 60.6094C330.956 60.0128 331.902 59.7146 332.965 59.7146C333.749 59.7146 334.468 59.885 335.121 60.2259C335.78 60.5611 336.331 61.0327 336.775 61.6407C337.218 62.243 337.505 62.9418 337.635 63.7373H337.056C336.88 62.7089 336.411 61.8736 335.65 61.2316C334.894 60.5839 333.999 60.26 332.965 60.26C332.027 60.26 331.184 60.5327 330.434 61.0782C329.689 61.618 329.101 62.3594 328.669 63.3026C328.238 64.2401 328.022 65.3055 328.022 66.4986C328.022 67.6577 328.229 68.7089 328.644 69.6521C329.064 70.5952 329.647 71.3452 330.391 71.9021C331.135 72.4589 331.993 72.7373 332.965 72.7373C333.664 72.7373 334.306 72.5924 334.891 72.3026C335.476 72.0072 335.962 71.5924 336.348 71.0583C336.74 70.5242 336.988 69.9021 337.09 69.1918H337.669C337.544 70.0157 337.26 70.7344 336.817 71.3481C336.374 71.9617 335.82 72.439 335.155 72.7799C334.49 73.1151 333.76 73.2827 332.965 73.2827ZM345.617 59.9191V60.4646H340.435V59.9191H345.617ZM342.344 56.7827H342.89V70.2486C342.89 70.76 343.003 71.2004 343.23 71.5697C343.458 71.9333 343.759 72.2146 344.134 72.4134C344.509 72.6066 344.912 72.7032 345.344 72.7032C345.509 72.7032 345.659 72.689 345.796 72.6606C345.938 72.6322 346.083 72.5896 346.23 72.5327L346.401 73.0441C346.23 73.1066 346.063 73.1549 345.898 73.189C345.733 73.2288 345.549 73.2486 345.344 73.2486C344.81 73.2486 344.313 73.1265 343.853 72.8822C343.398 72.6379 343.032 72.2913 342.753 71.8424C342.48 71.3935 342.344 70.8623 342.344 70.2486V56.7827ZM357.029 73.01V55.5555H357.574V72.4646H366.302V73.01H357.029ZM370.188 73.01V59.9191H370.733V73.01H370.188ZM370.461 57.5327C370.313 57.5327 370.185 57.4788 370.077 57.3708C369.969 57.2629 369.915 57.135 369.915 56.9873C369.915 56.8396 369.969 56.7117 370.077 56.6038C370.185 56.4958 370.313 56.4418 370.461 56.4418C370.608 56.4418 370.736 56.4958 370.844 56.6038C370.952 56.7117 371.006 56.8396 371.006 56.9873C371.006 57.135 370.952 57.2629 370.844 57.3708C370.736 57.4788 370.608 57.5327 370.461 57.5327ZM375.985 64.2146V73.01H375.44V59.9191H375.985V61.9986H376.054C376.36 61.3168 376.863 60.7714 377.562 60.3623C378.267 59.9532 379.071 59.7486 379.974 59.7486C380.849 59.7486 381.622 59.939 382.292 60.3197C382.963 60.7003 383.488 61.2259 383.869 61.8964C384.25 62.5668 384.44 63.3396 384.44 64.2146V73.01H383.895V64.2146C383.895 63.0555 383.531 62.1123 382.804 61.385C382.076 60.6577 381.133 60.2941 379.974 60.2941C379.201 60.2941 378.514 60.4617 377.912 60.7969C377.315 61.1322 376.843 61.5952 376.497 62.1861C376.156 62.7771 375.985 63.4532 375.985 64.2146ZM393.99 73.2827C392.848 73.2827 391.848 72.9844 390.99 72.3879C390.137 71.7913 389.476 70.9816 389.004 69.9589C388.532 68.9361 388.297 67.7827 388.297 66.4986C388.297 65.2146 388.532 64.0611 389.004 63.0384C389.481 62.0157 390.129 61.206 390.947 60.6094C391.765 60.0128 392.689 59.7146 393.717 59.7146C394.478 59.7146 395.183 59.8765 395.831 60.2004C396.484 60.5242 397.052 60.9731 397.535 61.5469C398.018 62.1208 398.393 62.7827 398.66 63.5327C398.933 64.2771 399.069 65.0725 399.069 65.9191V66.4646H388.569V65.9191H398.524C398.524 64.868 398.308 63.9163 397.876 63.064C397.444 62.206 396.865 61.5242 396.137 61.0185C395.41 60.5129 394.603 60.26 393.717 60.26C392.819 60.26 392.007 60.5271 391.279 61.0611C390.552 61.5952 389.97 62.3225 389.532 63.243C389.095 64.1634 388.865 65.2032 388.842 66.3623V66.4305C388.842 67.5725 389.041 68.6236 389.439 69.5839C389.842 70.5384 390.427 71.3026 391.194 71.8765C391.961 72.4504 392.893 72.7373 393.99 72.7373C394.797 72.7373 395.473 72.5952 396.018 72.3111C396.569 72.0271 397.01 71.7004 397.339 71.331C397.674 70.9617 397.922 70.6464 398.081 70.385L398.524 70.6918C398.331 71.0214 398.041 71.3879 397.654 71.7913C397.268 72.1947 396.774 72.5441 396.172 72.8396C395.569 73.135 394.842 73.2827 393.99 73.2827Z" fill="white"/>
<path d="M73.9447 99.01V90.2791H75.002V94.6104H75.1043L79.0264 90.2791H80.4076L76.7413 94.2182L80.4076 99.01H79.1287L76.0933 94.9515L75.002 96.1793V99.01H73.9447ZM83.9045 99.1464C83.2735 99.1464 82.7293 99.0072 82.2717 98.7286C81.817 98.4473 81.466 98.0551 81.2187 97.552C80.9743 97.0461 80.8521 96.4578 80.8521 95.7871C80.8521 95.1163 80.9743 94.5252 81.2187 94.0136C81.466 93.4992 81.8098 93.0985 82.2504 92.8114C82.6937 92.5215 83.211 92.3766 83.8022 92.3766C84.1432 92.3766 84.48 92.4334 84.8125 92.5471C85.145 92.6608 85.4477 92.8455 85.7206 93.1013C85.9934 93.3542 86.2108 93.6896 86.3728 94.1074C86.5348 94.5252 86.6158 95.0396 86.6158 95.6507V96.077H81.5683V95.2073H85.5927C85.5927 94.8378 85.5188 94.5081 85.371 94.2182C85.226 93.9283 85.0186 93.6996 84.7486 93.5319C84.4814 93.3642 84.1659 93.2804 83.8022 93.2804C83.4014 93.2804 83.0547 93.3798 82.7619 93.5788C82.4721 93.7749 82.2489 94.0307 82.0926 94.3461C81.9363 94.6616 81.8582 94.9998 81.8582 95.3608V95.9405C81.8582 96.4351 81.9434 96.8543 82.114 97.1982C82.2873 97.5392 82.5275 97.7993 82.8344 97.9783C83.1414 98.1545 83.498 98.2426 83.9045 98.2426C84.1688 98.2426 84.4075 98.2057 84.6207 98.1318C84.8367 98.0551 85.0228 97.9414 85.1791 97.7908C85.3355 97.6373 85.4563 97.4469 85.5415 97.2195L86.5135 97.4923C86.4112 97.822 86.2392 98.1119 85.9977 98.362C85.7561 98.6093 85.4577 98.8025 85.1024 98.9418C84.7471 99.0782 84.3478 99.1464 83.9045 99.1464ZM88.595 101.466C88.4245 101.466 88.2724 101.451 88.1388 101.423C88.0053 101.397 87.9129 101.372 87.8617 101.346L88.1175 100.459C88.3619 100.522 88.5779 100.545 88.7655 100.528C88.9531 100.511 89.1194 100.427 89.2643 100.276C89.4121 100.128 89.5471 99.8882 89.6693 99.5557L89.8569 99.0441L87.4354 92.4618H88.5268L90.3343 97.6799H90.4026L92.2101 92.4618H93.3015L90.5219 99.965C90.3969 100.303 90.242 100.583 90.0572 100.805C89.8725 101.029 89.6579 101.196 89.4135 101.304C89.1719 101.412 88.8991 101.466 88.595 101.466ZM96.113 99.01L94.1179 92.4618H95.1751L96.5905 97.4753H96.6587L98.057 92.4618H99.1313L100.513 97.4582H100.581L101.996 92.4618H103.053L101.058 99.01H100.069L98.6368 93.9795H98.5345L97.1021 99.01H96.113ZM106.821 99.1464C106.23 99.1464 105.711 99.0057 105.265 98.7244C104.822 98.443 104.475 98.0494 104.225 97.5435C103.977 97.0376 103.854 96.4464 103.854 95.77C103.854 95.0879 103.977 94.4925 104.225 93.9838C104.475 93.475 104.822 93.08 105.265 92.7986C105.711 92.5172 106.23 92.3766 106.821 92.3766C107.412 92.3766 107.929 92.5172 108.373 92.7986C108.819 93.08 109.166 93.475 109.413 93.9838C109.663 94.4925 109.788 95.0879 109.788 95.77C109.788 96.4464 109.663 97.0376 109.413 97.5435C109.166 98.0494 108.819 98.443 108.373 98.7244C107.929 99.0057 107.412 99.1464 106.821 99.1464ZM106.821 98.2426C107.27 98.2426 107.639 98.1275 107.929 97.8973C108.219 97.6671 108.434 97.3644 108.573 96.9893C108.712 96.6141 108.782 96.2077 108.782 95.77C108.782 95.3323 108.712 94.9245 108.573 94.5465C108.434 94.1685 108.219 93.863 107.929 93.6299C107.639 93.3969 107.27 93.2804 106.821 93.2804C106.372 93.2804 106.002 93.3969 105.713 93.6299C105.423 93.863 105.208 94.1685 105.069 94.5465C104.93 94.9245 104.86 95.3323 104.86 95.77C104.86 96.2077 104.93 96.6141 105.069 96.9893C105.208 97.3644 105.423 97.6671 105.713 97.8973C106.002 98.1275 106.372 98.2426 106.821 98.2426ZM111.324 99.01V92.4618H112.296V93.4509H112.364C112.483 93.1269 112.699 92.864 113.012 92.6622C113.325 92.4604 113.677 92.3595 114.069 92.3595C114.143 92.3595 114.236 92.3609 114.346 92.3638C114.457 92.3666 114.541 92.3709 114.598 92.3766V93.3997C114.564 93.3912 114.486 93.3784 114.364 93.3613C114.244 93.3415 114.118 93.3315 113.984 93.3315C113.666 93.3315 113.382 93.3983 113.131 93.5319C112.884 93.6626 112.688 93.8445 112.543 94.0776C112.401 94.3078 112.33 94.5707 112.33 94.8662V99.01H111.324ZM118.064 99.1464C117.518 99.1464 117.037 99.0086 116.619 98.7329C116.201 98.4544 115.874 98.0622 115.638 97.5563C115.402 97.0475 115.284 96.4464 115.284 95.753C115.284 95.0652 115.402 94.4683 115.638 93.9625C115.874 93.4566 116.202 93.0658 116.623 92.7901C117.044 92.5144 117.53 92.3766 118.081 92.3766C118.507 92.3766 118.844 92.4476 119.091 92.5897C119.341 92.729 119.532 92.8881 119.663 93.0672C119.796 93.2434 119.9 93.3883 119.974 93.502H120.059V90.2791H121.065V99.01H120.093V98.0039H119.974C119.9 98.1233 119.795 98.2739 119.658 98.4558C119.522 98.6349 119.327 98.7954 119.074 98.9375C118.821 99.0768 118.485 99.1464 118.064 99.1464ZM118.2 98.2426C118.604 98.2426 118.945 98.1375 119.224 97.9272C119.502 97.714 119.714 97.4199 119.859 97.0447C120.004 96.6667 120.076 96.2304 120.076 95.7359C120.076 95.2471 120.005 94.8193 119.863 94.4527C119.721 94.0832 119.511 93.7962 119.232 93.5916C118.954 93.3841 118.61 93.2804 118.2 93.2804C117.774 93.2804 117.419 93.3898 117.135 93.6086C116.853 93.8246 116.641 94.1188 116.499 94.4911C116.36 94.8606 116.29 95.2755 116.29 95.7359C116.29 96.202 116.362 96.6255 116.504 97.0063C116.649 97.3843 116.862 97.6856 117.143 97.9101C117.427 98.1318 117.78 98.2426 118.2 98.2426ZM123.781 99.0782C123.57 99.0782 123.39 99.0029 123.239 98.8523C123.089 98.7016 123.013 98.5212 123.013 98.3109C123.013 98.1005 123.089 97.9201 123.239 97.7694C123.39 97.6188 123.57 97.5435 123.781 97.5435C123.991 97.5435 124.172 97.6188 124.322 97.7694C124.473 97.9201 124.548 98.1005 124.548 98.3109C124.548 98.4501 124.513 98.578 124.442 98.6945C124.373 98.8111 124.281 98.9049 124.164 98.9759C124.051 99.0441 123.923 99.0782 123.781 99.0782ZM123.781 94.2182C123.57 94.2182 123.39 94.1429 123.239 93.9923C123.089 93.8417 123.013 93.6612 123.013 93.4509C123.013 93.2406 123.089 93.0601 123.239 92.9095C123.39 92.7588 123.57 92.6835 123.781 92.6835C123.991 92.6835 124.172 92.7588 124.322 92.9095C124.473 93.0601 124.548 93.2406 124.548 93.4509C124.548 93.5901 124.513 93.718 124.442 93.8346C124.373 93.9511 124.281 94.0449 124.164 94.1159C124.051 94.1841 123.923 94.2182 123.781 94.2182ZM129.866 99.01V90.2791H132.817C133.501 90.2791 134.061 90.4027 134.496 90.65C134.934 90.8944 135.258 91.2255 135.468 91.6433C135.679 92.0611 135.784 92.5272 135.784 93.0416C135.784 93.556 135.679 94.0236 135.468 94.4442C135.261 94.8648 134.94 95.2002 134.505 95.4503C134.07 95.6976 133.513 95.8212 132.834 95.8212H130.719V94.8833H132.799C133.268 94.8833 133.645 94.8023 133.929 94.6403C134.213 94.4783 134.419 94.2595 134.547 93.9838C134.678 93.7052 134.743 93.3912 134.743 93.0416C134.743 92.692 134.678 92.3794 134.547 92.1037C134.419 91.828 134.212 91.612 133.925 91.4557C133.638 91.2966 133.257 91.217 132.782 91.217H130.924V99.01H129.866ZM140.025 99.1464C139.395 99.1464 138.85 99.0072 138.393 98.7286C137.938 98.4473 137.587 98.0551 137.34 97.552C137.095 97.0461 136.973 96.4578 136.973 95.7871C136.973 95.1163 137.095 94.5252 137.34 94.0136C137.587 93.4992 137.931 93.0985 138.371 92.8114C138.815 92.5215 139.332 92.3766 139.923 92.3766C140.264 92.3766 140.601 92.4334 140.934 92.5471C141.266 92.6608 141.569 92.8455 141.842 93.1013C142.114 93.3542 142.332 93.6896 142.494 94.1074C142.656 94.5252 142.737 95.0396 142.737 95.6507V96.077H137.689V95.2073H141.714C141.714 94.8378 141.64 94.5081 141.492 94.2182C141.347 93.9283 141.14 93.6996 140.87 93.5319C140.602 93.3642 140.287 93.2804 139.923 93.2804C139.522 93.2804 139.176 93.3798 138.883 93.5788C138.593 93.7749 138.37 94.0307 138.214 94.3461C138.057 94.6616 137.979 94.9998 137.979 95.3608V95.9405C137.979 96.4351 138.064 96.8543 138.235 97.1982C138.408 97.5392 138.649 97.7993 138.955 97.9783C139.262 98.1545 139.619 98.2426 140.025 98.2426C140.29 98.2426 140.529 98.2057 140.742 98.1318C140.958 98.0551 141.144 97.9414 141.3 97.7908C141.456 97.6373 141.577 97.4469 141.663 97.2195L142.635 97.4923C142.532 97.822 142.36 98.1119 142.119 98.362C141.877 98.6093 141.579 98.8025 141.223 98.9418C140.868 99.0782 140.469 99.1464 140.025 99.1464ZM146.928 99.1464C146.336 99.1464 145.818 99.0057 145.371 98.7244C144.928 98.443 144.581 98.0494 144.331 97.5435C144.084 97.0376 143.96 96.4464 143.96 95.77C143.96 95.0879 144.084 94.4925 144.331 93.9838C144.581 93.475 144.928 93.08 145.371 92.7986C145.818 92.5172 146.336 92.3766 146.928 92.3766C147.519 92.3766 148.036 92.5172 148.479 92.7986C148.926 93.08 149.272 93.475 149.52 93.9838C149.77 94.4925 149.895 95.0879 149.895 95.77C149.895 96.4464 149.77 97.0376 149.52 97.5435C149.272 98.0494 148.926 98.443 148.479 98.7244C148.036 99.0057 147.519 99.1464 146.928 99.1464ZM146.928 98.2426C147.377 98.2426 147.746 98.1275 148.036 97.8973C148.326 97.6671 148.54 97.3644 148.68 96.9893C148.819 96.6141 148.889 96.2077 148.889 95.77C148.889 95.3323 148.819 94.9245 148.68 94.5465C148.54 94.1685 148.326 93.863 148.036 93.6299C147.746 93.3969 147.377 93.2804 146.928 93.2804C146.478 93.2804 146.109 93.3969 145.819 93.6299C145.529 93.863 145.315 94.1685 145.175 94.5465C145.036 94.9245 144.966 95.3323 144.966 95.77C144.966 96.2077 145.036 96.6141 145.175 96.9893C145.315 97.3644 145.529 97.6671 145.819 97.8973C146.109 98.1275 146.478 98.2426 146.928 98.2426ZM151.43 101.466V92.4618H152.402V93.502H152.522C152.596 93.3883 152.698 93.2434 152.829 93.0672C152.962 92.8881 153.153 92.729 153.4 92.5897C153.65 92.4476 153.988 92.3766 154.415 92.3766C154.966 92.3766 155.452 92.5144 155.873 92.7901C156.293 93.0658 156.622 93.4566 156.857 93.9625C157.093 94.4683 157.211 95.0652 157.211 95.753C157.211 96.4464 157.093 97.0475 156.857 97.5563C156.622 98.0622 156.295 98.4544 155.877 98.7329C155.459 99.0086 154.977 99.1464 154.432 99.1464C154.011 99.1464 153.674 99.0768 153.421 98.9375C153.168 98.7954 152.974 98.6349 152.837 98.4558C152.701 98.2739 152.596 98.1233 152.522 98.0039H152.437V101.466H151.43ZM152.42 95.7359C152.42 96.2304 152.492 96.6667 152.637 97.0447C152.782 97.4199 152.994 97.714 153.272 97.9272C153.551 98.1375 153.892 98.2426 154.295 98.2426C154.716 98.2426 155.067 98.1318 155.348 97.9101C155.633 97.6856 155.846 97.3843 155.988 97.0063C156.133 96.6255 156.205 96.202 156.205 95.7359C156.205 95.2755 156.134 94.8606 155.992 94.4911C155.853 94.1188 155.641 93.8246 155.357 93.6086C155.075 93.3898 154.722 93.2804 154.295 93.2804C153.886 93.2804 153.542 93.3841 153.264 93.5916C152.985 93.7962 152.775 94.0832 152.633 94.4527C152.491 94.8193 152.42 95.2471 152.42 95.7359ZM159.752 90.2791V99.01H158.746V90.2791H159.752ZM164.34 99.1464C163.709 99.1464 163.165 99.0072 162.708 98.7286C162.253 98.4473 161.902 98.0551 161.655 97.552C161.41 97.0461 161.288 96.4578 161.288 95.7871C161.288 95.1163 161.41 94.5252 161.655 94.0136C161.902 93.4992 162.246 93.0985 162.686 92.8114C163.13 92.5215 163.647 92.3766 164.238 92.3766C164.579 92.3766 164.916 92.4334 165.248 92.5471C165.581 92.6608 165.884 92.8455 166.156 93.1013C166.429 93.3542 166.647 93.6896 166.809 94.1074C166.971 94.5252 167.052 95.0396 167.052 95.6507V96.077H162.004V95.2073H166.029C166.029 94.8378 165.955 94.5081 165.807 94.2182C165.662 93.9283 165.454 93.6996 165.184 93.5319C164.917 93.3642 164.602 93.2804 164.238 93.2804C163.837 93.2804 163.491 93.3798 163.198 93.5788C162.908 93.7749 162.685 94.0307 162.528 94.3461C162.372 94.6616 162.294 94.9998 162.294 95.3608V95.9405C162.294 96.4351 162.379 96.8543 162.55 97.1982C162.723 97.5392 162.963 97.7993 163.27 97.9783C163.577 98.1545 163.934 98.2426 164.34 98.2426C164.605 98.2426 164.843 98.2057 165.057 98.1318C165.273 98.0551 165.459 97.9414 165.615 97.7908C165.771 97.6373 165.892 97.4469 165.977 97.2195L166.949 97.4923C166.847 97.822 166.675 98.1119 166.434 98.362C166.192 98.6093 165.894 98.8025 165.538 98.9418C165.183 99.0782 164.784 99.1464 164.34 99.1464ZM172.095 99.01V90.2791H175.045C175.73 90.2791 176.29 90.4027 176.725 90.65C177.162 90.8944 177.486 91.2255 177.697 91.6433C177.907 92.0611 178.012 92.5272 178.012 93.0416C178.012 93.556 177.907 94.0236 177.697 94.4442C177.489 94.8648 177.168 95.2002 176.733 95.4503C176.298 95.6976 175.741 95.8212 175.062 95.8212H172.948V94.8833H175.028C175.497 94.8833 175.874 94.8023 176.158 94.6403C176.442 94.4783 176.648 94.2595 176.776 93.9838C176.907 93.7052 176.972 93.3912 176.972 93.0416C176.972 92.692 176.907 92.3794 176.776 92.1037C176.648 91.828 176.441 91.612 176.153 91.4557C175.866 91.2966 175.486 91.217 175.011 91.217H173.152V99.01H172.095ZM182.254 99.1464C181.623 99.1464 181.079 99.0072 180.621 98.7286C180.167 98.4473 179.816 98.0551 179.568 97.552C179.324 97.0461 179.202 96.4578 179.202 95.7871C179.202 95.1163 179.324 94.5252 179.568 94.0136C179.816 93.4992 180.159 93.0985 180.6 92.8114C181.043 92.5215 181.561 92.3766 182.152 92.3766C182.493 92.3766 182.83 92.4334 183.162 92.5471C183.495 92.6608 183.797 92.8455 184.07 93.1013C184.343 93.3542 184.56 93.6896 184.722 94.1074C184.884 94.5252 184.965 95.0396 184.965 95.6507V96.077H179.918V95.2073H183.942C183.942 94.8378 183.868 94.5081 183.721 94.2182C183.576 93.9283 183.368 93.6996 183.098 93.5319C182.831 93.3642 182.515 93.2804 182.152 93.2804C181.751 93.2804 181.404 93.3798 181.112 93.5788C180.822 93.7749 180.599 94.0307 180.442 94.3461C180.286 94.6616 180.208 94.9998 180.208 95.3608V95.9405C180.208 96.4351 180.293 96.8543 180.464 97.1982C180.637 97.5392 180.877 97.7993 181.184 97.9783C181.491 98.1545 181.848 98.2426 182.254 98.2426C182.518 98.2426 182.757 98.2057 182.97 98.1318C183.186 98.0551 183.372 97.9414 183.529 97.7908C183.685 97.6373 183.806 97.4469 183.891 97.2195L184.863 97.4923C184.761 97.822 184.589 98.1119 184.347 98.362C184.106 98.6093 183.807 98.8025 183.452 98.9418C183.097 99.0782 182.697 99.1464 182.254 99.1464ZM186.496 99.01V92.4618H187.468V93.4509H187.536C187.655 93.1269 187.871 92.864 188.184 92.6622C188.497 92.4604 188.849 92.3595 189.241 92.3595C189.315 92.3595 189.408 92.3609 189.518 92.3638C189.629 92.3666 189.713 92.3709 189.77 92.3766V93.3997C189.736 93.3912 189.658 93.3784 189.535 93.3613C189.416 93.3415 189.29 93.3315 189.156 93.3315C188.838 93.3315 188.554 93.3983 188.303 93.5319C188.056 93.6626 187.86 93.8445 187.715 94.0776C187.573 94.3078 187.502 94.5707 187.502 94.8662V99.01H186.496ZM194.289 92.4618V93.3145H190.759V92.4618H194.289ZM191.816 99.01V91.558C191.816 91.1829 191.904 90.8703 192.081 90.6202C192.257 90.37 192.486 90.1825 192.767 90.0574C193.048 89.9324 193.345 89.8698 193.658 89.8698C193.905 89.8698 194.107 89.8897 194.263 89.9295C194.42 89.9693 194.536 90.0063 194.613 90.0404L194.323 90.91C194.272 90.893 194.201 90.8717 194.11 90.8461C194.022 90.8205 193.905 90.8077 193.76 90.8077C193.428 90.8077 193.188 90.8916 193.04 91.0593C192.895 91.2269 192.822 91.4728 192.822 91.7968V99.01H191.816ZM198.089 99.1464C197.498 99.1464 196.98 99.0057 196.533 98.7244C196.09 98.443 195.743 98.0494 195.493 97.5435C195.246 97.0376 195.122 96.4464 195.122 95.77C195.122 95.0879 195.246 94.4925 195.493 93.9838C195.743 93.475 196.09 93.08 196.533 92.7986C196.98 92.5172 197.498 92.3766 198.089 92.3766C198.681 92.3766 199.198 92.5172 199.641 92.7986C200.087 93.08 200.434 93.475 200.681 93.9838C200.932 94.4925 201.057 95.0879 201.057 95.77C201.057 96.4464 200.932 97.0376 200.681 97.5435C200.434 98.0494 200.087 98.443 199.641 98.7244C199.198 99.0057 198.681 99.1464 198.089 99.1464ZM198.089 98.2426C198.539 98.2426 198.908 98.1275 199.198 97.8973C199.488 97.6671 199.702 97.3644 199.842 96.9893C199.981 96.6141 200.051 96.2077 200.051 95.77C200.051 95.3323 199.981 94.9245 199.842 94.5465C199.702 94.1685 199.488 93.863 199.198 93.6299C198.908 93.3969 198.539 93.2804 198.089 93.2804C197.64 93.2804 197.271 93.3969 196.981 93.6299C196.691 93.863 196.477 94.1685 196.337 94.5465C196.198 94.9245 196.128 95.3323 196.128 95.77C196.128 96.2077 196.198 96.6141 196.337 96.9893C196.477 97.3644 196.691 97.6671 196.981 97.8973C197.271 98.1275 197.64 98.2426 198.089 98.2426ZM202.592 99.01V92.4618H203.564V93.4509H203.633C203.752 93.1269 203.968 92.864 204.281 92.6622C204.593 92.4604 204.946 92.3595 205.338 92.3595C205.412 92.3595 205.504 92.3609 205.615 92.3638C205.726 92.3666 205.81 92.3709 205.866 92.3766V93.3997C205.832 93.3912 205.754 93.3784 205.632 93.3613C205.513 93.3415 205.386 93.3315 205.253 93.3315C204.934 93.3315 204.65 93.3983 204.4 93.5319C204.153 93.6626 203.957 93.8445 203.812 94.0776C203.67 94.3078 203.598 94.5707 203.598 94.8662V99.01H202.592ZM207.059 99.01V92.4618H208.031V93.485H208.116C208.253 93.1354 208.473 92.864 208.777 92.6707C209.081 92.4746 209.446 92.3766 209.873 92.3766C210.305 92.3766 210.664 92.4746 210.951 92.6707C211.241 92.864 211.467 93.1354 211.629 93.485H211.697C211.865 93.1468 212.117 92.8782 212.452 92.6792C212.787 92.4775 213.189 92.3766 213.658 92.3766C214.244 92.3766 214.723 92.5599 215.095 92.9265C215.467 93.2903 215.654 93.8573 215.654 94.6275V99.01H214.647V94.6275C214.647 94.1443 214.515 93.799 214.251 93.5916C213.987 93.3841 213.675 93.2804 213.317 93.2804C212.857 93.2804 212.5 93.4196 212.247 93.6981C211.994 93.9738 211.868 94.3234 211.868 94.7469V99.01H210.845V94.5252C210.845 94.1529 210.724 93.853 210.482 93.6257C210.241 93.3955 209.93 93.2804 209.549 93.2804C209.287 93.2804 209.043 93.35 208.816 93.4892C208.591 93.6285 208.409 93.8218 208.27 94.069C208.133 94.3135 208.065 94.5962 208.065 94.9174V99.01H207.059ZM219.42 99.1635C219.005 99.1635 218.629 99.0853 218.29 98.929C217.952 98.7699 217.684 98.5411 217.485 98.2426C217.286 97.9414 217.186 97.5776 217.186 97.1513C217.186 96.7761 217.26 96.472 217.408 96.239C217.556 96.0031 217.753 95.8183 218 95.6848C218.248 95.5512 218.521 95.4517 218.819 95.3863C219.12 95.3181 219.423 95.2641 219.727 95.2243C220.125 95.1732 220.447 95.1348 220.695 95.1092C220.945 95.0808 221.127 95.0339 221.24 94.9686C221.357 94.9032 221.415 94.7895 221.415 94.6275V94.5934C221.415 94.1728 221.3 93.8459 221.07 93.6129C220.843 93.3798 220.497 93.2633 220.034 93.2633C219.554 93.2633 219.177 93.3685 218.904 93.5788C218.631 93.7891 218.44 94.0136 218.329 94.2523L217.374 93.9113C217.544 93.5134 217.772 93.2036 218.056 92.9819C218.343 92.7574 218.656 92.6011 218.994 92.513C219.335 92.422 219.67 92.3766 220 92.3766C220.21 92.3766 220.452 92.4021 220.725 92.4533C221 92.5016 221.266 92.6025 221.522 92.756C221.78 92.9095 221.995 93.1411 222.166 93.4509C222.336 93.7607 222.421 94.1756 222.421 94.6957V99.01H221.415V98.1233H221.364C221.296 98.2654 221.182 98.4174 221.023 98.5794C220.864 98.7414 220.652 98.8793 220.388 98.993C220.123 99.1066 219.801 99.1635 219.42 99.1635ZM219.574 98.2597C219.971 98.2597 220.307 98.1815 220.58 98.0252C220.855 97.8689 221.063 97.6671 221.202 97.4199C221.344 97.1726 221.415 96.9125 221.415 96.6397V95.7189C221.373 95.77 221.279 95.8169 221.134 95.8595C220.992 95.8993 220.827 95.9349 220.639 95.9661C220.455 95.9945 220.274 96.0201 220.098 96.0429C219.925 96.0628 219.784 96.0798 219.676 96.094C219.414 96.1281 219.17 96.1835 218.943 96.2603C218.718 96.3342 218.536 96.4464 218.397 96.5971C218.26 96.7449 218.192 96.9467 218.192 97.2024C218.192 97.552 218.322 97.8163 218.58 97.9954C218.842 98.1716 219.173 98.2597 219.574 98.2597ZM225.264 95.0709V99.01H224.258V92.4618H225.23V93.485H225.315C225.468 93.1525 225.701 92.8853 226.014 92.6835C226.327 92.4789 226.73 92.3766 227.225 92.3766C227.668 92.3766 228.056 92.4675 228.389 92.6494C228.721 92.8285 228.98 93.1013 229.165 93.4679C229.349 93.8317 229.442 94.2921 229.442 94.8492V99.01H228.436V94.9174C228.436 94.403 228.302 94.0022 228.035 93.7152C227.768 93.4253 227.401 93.2804 226.935 93.2804C226.614 93.2804 226.327 93.35 226.074 93.4892C225.824 93.6285 225.626 93.8317 225.481 94.0989C225.336 94.366 225.264 94.69 225.264 95.0709ZM233.94 99.1464C233.326 99.1464 232.798 99.0015 232.354 98.7116C231.911 98.4217 231.57 98.0224 231.331 97.5136C231.093 97.0049 230.973 96.4237 230.973 95.77C230.973 95.105 231.095 94.5181 231.34 94.0093C231.587 93.4978 231.931 93.0985 232.371 92.8114C232.815 92.5215 233.332 92.3766 233.923 92.3766C234.384 92.3766 234.799 92.4618 235.168 92.6324C235.538 92.8029 235.84 93.0416 236.076 93.3486C236.312 93.6555 236.458 94.0136 236.515 94.4229H235.509C235.432 94.1245 235.262 93.8601 234.998 93.6299C234.736 93.3969 234.384 93.2804 233.94 93.2804C233.548 93.2804 233.204 93.3827 232.909 93.5873C232.616 93.7891 232.387 94.0747 232.222 94.4442C232.06 94.8108 231.979 95.2414 231.979 95.7359C231.979 96.2418 232.059 96.6823 232.218 97.0575C232.38 97.4326 232.607 97.724 232.9 97.9314C233.196 98.1389 233.542 98.2426 233.94 98.2426C234.202 98.2426 234.439 98.1972 234.652 98.1062C234.865 98.0153 235.046 97.8845 235.194 97.714C235.341 97.5435 235.447 97.3389 235.509 97.1001H236.515C236.458 97.4866 236.318 97.8348 236.093 98.1446C235.872 98.4515 235.577 98.696 235.211 98.8779C234.847 99.0569 234.423 99.1464 233.94 99.1464ZM240.732 99.1464C240.101 99.1464 239.556 99.0072 239.099 98.7286C238.644 98.4473 238.293 98.0551 238.046 97.552C237.801 97.0461 237.679 96.4578 237.679 95.7871C237.679 95.1163 237.801 94.5252 238.046 94.0136C238.293 93.4992 238.637 93.0985 239.077 92.8114C239.521 92.5215 240.038 92.3766 240.629 92.3766C240.97 92.3766 241.307 92.4334 241.64 92.5471C241.972 92.6608 242.275 92.8455 242.548 93.1013C242.82 93.3542 243.038 93.6896 243.2 94.1074C243.362 94.5252 243.443 95.0396 243.443 95.6507V96.077H238.395V95.2073H242.42C242.42 94.8378 242.346 94.5081 242.198 94.2182C242.053 93.9283 241.846 93.6996 241.576 93.5319C241.308 93.3642 240.993 93.2804 240.629 93.2804C240.228 93.2804 239.882 93.3798 239.589 93.5788C239.299 93.7749 239.076 94.0307 238.92 94.3461C238.763 94.6616 238.685 94.9998 238.685 95.3608V95.9405C238.685 96.4351 238.77 96.8543 238.941 97.1982C239.114 97.5392 239.355 97.7993 239.661 97.9783C239.968 98.1545 240.325 98.2426 240.732 98.2426C240.996 98.2426 241.235 98.2057 241.448 98.1318C241.664 98.0551 241.85 97.9414 242.006 97.7908C242.162 97.6373 242.283 97.4469 242.369 97.2195L243.341 97.4923C243.238 97.822 243.066 98.1119 242.825 98.362C242.583 98.6093 242.285 98.8025 241.929 98.9418C241.574 99.0782 241.175 99.1464 240.732 99.1464Z" fill="white"/>
</g>
</g>
<defs>
<linearGradient id="paint0_linear_726_33216" x1="81.9157" y1="29.2577" x2="76.6485" y2="19.9443" gradientUnits="userSpaceOnUse">
<stop stop-color="white" stop-opacity="0.4"/>
<stop offset="0.9228" stop-color="white"/>
</linearGradient>
<clipPath id="clip0_726_33216">
<rect width="686" height="120" fill="white"/>
</clipPath>
<clipPath id="clip1_726_33216">
<rect width="686" height="411.6" fill="white" transform="translate(0 -75)"/>
</clipPath>
</defs>
</svg>
