<svg width="686" height="120" viewBox="0 0 686 120" fill="none" xmlns="http://www.w3.org/2000/svg">
<g clip-path="url(#clip0_122_20948)">
<g clip-path="url(#clip1_122_20948)">
<rect width="686" height="411.6" transform="translate(0 -76)" fill="#FE2223"/>
<g opacity="0.2">
<path d="M466.593 329.151C408.824 239.67 412.633 140.868 450.723 66.3002C488.812 -8.26788 518.015 -64.8171 519.92 -69.1669C521.824 -73.5167 526.268 -75.9999 530.711 -75.9999H674.181C683.069 -75.9999 689.418 -66.6801 684.974 -58.6019C684.974 -58.6019 491.986 319.208 486.907 328.529C483.098 337.85 472.307 337.851 466.593 329.151Z" fill="white"/>
</g>
<path d="M79.1007 25.9869C78.7835 26.3287 78.3078 26.2977 78.0858 25.8938L72.9474 15.796C72.7571 15.3921 73.0426 14.926 73.4866 14.926H80.6549C80.8769 14.926 81.0989 15.0503 81.1941 15.2678C82.7483 18.4058 81.7968 23.1596 79.1007 25.9869Z" fill="url(#paint0_linear_122_20948)"/>
<path d="M82.8757 35.1524C79.9893 30.6783 80.1797 25.7383 82.0827 22.0099C83.9858 18.2815 85.4449 15.454 85.5401 15.2365C85.6352 15.019 85.8572 14.8949 86.0792 14.8949H93.2475C93.6915 14.8949 94.0088 15.3608 93.7868 15.7648C93.7868 15.7648 84.1444 34.6553 83.8907 35.1213C83.7003 35.5874 83.1612 35.5874 82.8757 35.1524Z" fill="white"/>
<path d="M101.07 17.2127H105.601L108.525 23.2931H108.641L111.565 17.2127H116.096L110.6 27.4734V32.1799H106.566V27.4734L101.07 17.2127ZM121.513 17.2127L124.583 27.7658H124.7L127.769 17.2127H132.359L127.418 32.1799H121.864L116.924 17.2127H121.513ZM133.8 32.1799V17.2127H144.587V20.4867H137.863V23.0592H144.032V26.3333H137.863V28.9058H144.558V32.1799H133.8ZM154.671 21.8899C154.632 21.4027 154.449 21.0227 154.122 20.7498C153.801 20.477 153.311 20.3406 152.654 20.3406C152.235 20.3406 151.891 20.3917 151.623 20.4941C151.36 20.5915 151.165 20.7255 151.038 20.896C150.912 21.0665 150.846 21.2614 150.841 21.4807C150.831 21.6609 150.863 21.8242 150.936 21.9703C151.014 22.1116 151.136 22.2407 151.302 22.3577C151.467 22.4697 151.679 22.572 151.937 22.6646C152.196 22.7572 152.502 22.84 152.858 22.9131L154.086 23.1762C154.914 23.3516 155.623 23.583 156.213 23.8705C156.802 24.1579 157.285 24.4965 157.66 24.8863C158.035 25.2712 158.31 25.7048 158.486 26.1872C158.666 26.6695 158.758 27.1957 158.763 27.7658C158.758 28.7499 158.512 29.5831 158.025 30.2652C157.538 30.9473 156.841 31.4662 155.935 31.8218C155.034 32.1775 153.95 32.3553 152.683 32.3553C151.382 32.3553 150.247 32.1629 149.277 31.778C148.312 31.3931 147.562 30.8011 147.026 30.0021C146.495 29.1982 146.227 28.1701 146.222 26.918H150.081C150.105 27.376 150.22 27.7609 150.425 28.0727C150.629 28.3845 150.917 28.6208 151.287 28.7816C151.662 28.9424 152.108 29.0228 152.624 29.0228C153.058 29.0228 153.421 28.9692 153.713 28.862C154.006 28.7548 154.227 28.6062 154.378 28.4162C154.529 28.2262 154.607 28.0094 154.612 27.7658C154.607 27.5368 154.532 27.337 154.386 27.1665C154.244 26.9911 154.01 26.8352 153.684 26.6988C153.358 26.5575 152.917 26.4259 152.361 26.3041L150.87 25.9825C149.545 25.6951 148.5 25.2152 147.735 24.5428C146.975 23.8656 146.597 22.9423 146.602 21.773C146.597 20.8229 146.851 19.9922 147.362 19.2809C147.879 18.5647 148.593 18.0068 149.504 17.6073C150.42 17.2078 151.47 17.008 152.654 17.008C153.862 17.008 154.907 17.2102 155.789 17.6146C156.671 18.019 157.35 18.589 157.828 19.3247C158.31 20.0556 158.554 20.9106 158.559 21.8899H154.671Z" fill="white"/>
<path d="M172.632 32.1848H168.481V17.2175H172.954C174.357 17.2175 175.558 17.5147 176.557 18.1091C177.556 18.7036 178.321 19.5562 178.852 20.667C179.388 21.773 179.653 23.1007 179.648 24.65C179.643 26.2335 179.366 27.5879 178.815 28.7134C178.265 29.834 177.468 30.6939 176.425 31.2932C175.383 31.8876 174.118 32.1848 172.632 32.1848ZM169.395 31.3371H172.596C173.931 31.3371 175.056 31.0715 175.972 30.5405C176.888 30.0045 177.58 29.2372 178.048 28.2384C178.52 27.2396 178.754 26.0435 178.749 24.65C178.749 23.2761 178.523 22.0994 178.07 21.1201C177.617 20.136 176.956 19.3808 176.089 18.8546C175.227 18.3284 174.17 18.0653 172.917 18.0653H169.395V31.3371ZM187.276 32.4187C186.263 32.4187 185.381 32.1678 184.631 31.6659C183.88 31.1641 183.301 30.4771 182.891 29.605C182.482 28.7329 182.277 27.739 182.277 26.6232C182.277 25.5026 182.482 24.5039 182.891 23.6269C183.306 22.7499 183.873 22.058 184.594 21.5513C185.315 21.0446 186.139 20.7913 187.064 20.7913C187.693 20.7913 188.287 20.9179 188.848 21.1713C189.413 21.4198 189.91 21.7803 190.338 22.2529C190.772 22.7255 191.111 23.2956 191.354 23.963C191.603 24.6305 191.727 25.3808 191.727 26.214V26.7694H182.84V25.9582H190.835C190.835 25.1445 190.67 24.4113 190.338 23.7584C190.007 23.1055 189.556 22.5867 188.986 22.2018C188.416 21.8169 187.776 21.6244 187.064 21.6244C186.319 21.6244 185.654 21.8339 185.069 22.2529C184.489 22.6671 184.029 23.2273 183.688 23.9338C183.352 24.6403 183.176 25.4296 183.162 26.3017V26.6671C183.162 27.6025 183.325 28.443 183.651 29.1884C183.983 29.929 184.455 30.5161 185.069 30.9497C185.683 31.3785 186.419 31.5928 187.276 31.5928C187.89 31.5928 188.414 31.4905 188.848 31.2859C189.286 31.0764 189.644 30.823 189.922 30.5258C190.2 30.2286 190.409 29.9412 190.55 29.6635L191.362 29.9923C191.191 30.3675 190.926 30.7427 190.565 31.1178C190.209 31.4881 189.756 31.7975 189.206 32.046C188.66 32.2944 188.017 32.4187 187.276 32.4187ZM201.929 23.3784L201.104 23.5976C200.972 23.1884 200.784 22.8351 200.541 22.5379C200.297 22.2407 199.99 22.0117 199.62 21.851C199.255 21.6853 198.816 21.6025 198.304 21.6025C197.481 21.6025 196.806 21.8071 196.28 22.2164C195.759 22.6256 195.498 23.1591 195.498 23.8169C195.498 24.3528 195.676 24.7962 196.032 25.147C196.387 25.4929 196.93 25.756 197.661 25.9363L199.386 26.3675C200.273 26.5867 200.94 26.9424 201.389 27.4345C201.837 27.9217 202.061 28.5283 202.061 29.2542C202.061 29.873 201.893 30.4211 201.557 30.8986C201.22 31.376 200.755 31.7488 200.161 32.0167C199.571 32.2847 198.884 32.4187 198.1 32.4187C197.052 32.4187 196.192 32.1751 195.52 31.6879C194.848 31.1958 194.416 30.4917 194.226 29.5758L195.082 29.3565C195.242 30.0873 195.576 30.6452 196.083 31.0301C196.594 31.4101 197.264 31.6002 198.093 31.6002C199.008 31.6002 199.747 31.3833 200.307 30.9497C200.872 30.5161 201.155 29.9607 201.155 29.2834C201.155 28.767 200.989 28.3309 200.658 27.9753C200.326 27.6196 199.825 27.3589 199.152 27.1933L197.362 26.7548C196.446 26.5307 195.759 26.1726 195.301 25.6805C194.843 25.1835 194.614 24.5721 194.614 23.8461C194.614 23.242 194.772 22.7109 195.089 22.2529C195.406 21.7949 195.842 21.4368 196.397 21.1786C196.952 20.9204 197.588 20.7913 198.304 20.7913C199.255 20.7913 200.029 21.0154 200.628 21.4636C201.228 21.9119 201.661 22.5501 201.929 23.3784ZM205.191 32.1848V20.9594H206.075V32.1848H205.191ZM205.636 18.9715C205.442 18.9715 205.271 18.9033 205.125 18.7669C204.984 18.6305 204.913 18.4648 204.913 18.2699C204.913 18.075 204.984 17.9094 205.125 17.773C205.266 17.6365 205.437 17.5683 205.636 17.5683C205.831 17.5683 205.999 17.6365 206.141 17.773C206.287 17.9094 206.36 18.075 206.36 18.2699C206.36 18.4648 206.289 18.6305 206.148 18.7669C206.007 18.9033 205.836 18.9715 205.636 18.9715ZM213.858 36.6282C213.161 36.6282 212.535 36.5357 211.98 36.3505C211.425 36.1702 210.952 35.912 210.562 35.5758C210.177 35.2397 209.883 34.8401 209.678 34.3773L210.423 33.9388C210.589 34.2993 210.825 34.6209 211.132 34.9035C211.439 35.1861 211.819 35.4077 212.272 35.5685C212.73 35.7293 213.259 35.8097 213.858 35.8097C214.94 35.8097 215.795 35.5296 216.423 34.9693C217.057 34.4138 217.373 33.5612 217.373 32.4114V29.6196H217.286C217.115 30.1068 216.862 30.5405 216.526 30.9205C216.194 31.2956 215.788 31.5904 215.305 31.8048C214.823 32.0192 214.275 32.1263 213.661 32.1263C212.774 32.1263 211.995 31.8974 211.322 31.4394C210.65 30.9814 210.126 30.3383 209.751 29.51C209.376 28.6769 209.188 27.6976 209.188 26.5721C209.188 25.4466 209.371 24.4503 209.736 23.583C210.107 22.7109 210.628 22.0288 211.3 21.5367C211.973 21.0398 212.762 20.7913 213.668 20.7913C214.316 20.7913 214.876 20.9155 215.349 21.164C215.827 21.4076 216.226 21.7316 216.548 22.136C216.869 22.5404 217.118 22.9837 217.293 23.4661H217.395V20.9594H218.258V32.4479C218.258 33.3834 218.073 34.1605 217.702 34.7792C217.337 35.398 216.823 35.8609 216.16 36.1678C215.503 36.4748 214.735 36.6282 213.858 36.6282ZM213.741 31.3005C214.492 31.3005 215.137 31.1105 215.678 30.7305C216.224 30.3456 216.643 29.7999 216.935 29.0934C217.232 28.3821 217.381 27.5392 217.381 26.5648C217.381 25.6196 217.237 24.7743 216.95 24.0288C216.662 23.2834 216.246 22.6963 215.7 22.2675C215.154 21.8388 214.501 21.6244 213.741 21.6244C212.967 21.6244 212.306 21.8437 211.761 22.2822C211.215 22.7158 210.796 23.3053 210.504 24.0507C210.216 24.7962 210.073 25.6342 210.073 26.5648C210.073 27.5002 210.219 28.3236 210.511 29.035C210.803 29.7414 211.222 30.2969 211.768 30.7012C212.314 31.1008 212.971 31.3005 213.741 31.3005ZM222.9 24.9058V32.1848H222.009V20.9594H222.878V22.7353H222.966C223.229 22.1555 223.651 21.6902 224.23 21.3394C224.81 20.9886 225.5 20.8132 226.299 20.8132C227.054 20.8132 227.716 20.974 228.286 21.2955C228.861 21.6171 229.31 22.0751 229.631 22.6695C229.958 23.259 230.121 23.963 230.121 24.7816V32.1848H229.229V24.8181C229.229 23.8632 228.944 23.0958 228.374 22.516C227.809 21.9314 227.061 21.639 226.131 21.639C225.507 21.639 224.952 21.7754 224.464 22.0483C223.977 22.3211 223.595 22.7036 223.317 23.1957C223.039 23.6829 222.9 24.2529 222.9 24.9058ZM247.997 20.9594C247.919 20.0288 247.539 19.276 246.857 18.7011C246.18 18.1262 245.303 17.8387 244.226 17.8387C243.5 17.8387 242.854 17.9727 242.289 18.2407C241.724 18.5087 241.281 18.8741 240.959 19.3369C240.637 19.7998 240.477 20.3309 240.477 20.9301C240.477 21.315 240.55 21.6634 240.696 21.9752C240.847 22.2822 241.059 22.5574 241.332 22.801C241.605 23.0398 241.929 23.2493 242.304 23.4295C242.679 23.6098 243.093 23.7682 243.546 23.9046L245.183 24.3869C245.743 24.5574 246.26 24.7548 246.732 24.9789C247.21 25.203 247.624 25.471 247.975 25.7828C248.331 26.0897 248.606 26.4503 248.801 26.8644C249 27.2785 249.1 27.756 249.1 28.2968C249.1 29.0861 248.896 29.7926 248.486 30.4162C248.082 31.0399 247.505 31.5319 246.754 31.8925C246.009 32.2482 245.13 32.426 244.116 32.426C243.151 32.426 242.311 32.2628 241.595 31.9363C240.883 31.6099 240.321 31.1568 239.907 30.577C239.492 29.9923 239.259 29.32 239.205 28.5599H240.14C240.189 29.1787 240.387 29.7146 240.732 30.1677C241.083 30.616 241.549 30.9619 242.128 31.2055C242.708 31.4491 243.371 31.5709 244.116 31.5709C244.92 31.5709 245.629 31.4345 246.243 31.1617C246.857 30.8839 247.337 30.499 247.683 30.007C248.028 29.5149 248.201 28.9424 248.201 28.2895C248.201 27.7633 248.077 27.3127 247.829 26.9375C247.58 26.5623 247.212 26.2383 246.725 25.9655C246.243 25.6927 245.644 25.4491 244.927 25.2347L243.181 24.7085C242.011 24.3528 241.117 23.868 240.499 23.2541C239.885 22.6403 239.578 21.8753 239.578 20.9594C239.578 20.1896 239.782 19.5075 240.192 18.9131C240.601 18.3138 241.156 17.8436 241.858 17.5026C242.564 17.1615 243.361 16.991 244.248 16.991C245.139 16.991 245.926 17.1639 246.608 17.5099C247.29 17.8509 247.831 18.3211 248.231 18.9204C248.63 19.5148 248.852 20.1944 248.896 20.9594H247.997ZM253.113 36.3944C252.888 36.3944 252.667 36.37 252.448 36.3213C252.228 36.2726 252.031 36.2092 251.856 36.1313L252.119 35.3493C252.577 35.5247 252.991 35.588 253.361 35.5393C253.736 35.4906 254.068 35.32 254.355 35.0277C254.642 34.7354 254.886 34.3066 255.086 33.7415L255.597 32.3383L251.483 20.9594H252.44L256.007 31.0374H256.08L259.646 20.9594H260.604L255.868 34.0923C255.688 34.599 255.461 35.0228 255.188 35.3639C254.915 35.7049 254.603 35.9607 254.253 36.1313C253.907 36.3067 253.527 36.3944 253.113 36.3944ZM270.523 23.3784L269.697 23.5976C269.565 23.1884 269.378 22.8351 269.134 22.5379C268.89 22.2407 268.584 22.0117 268.213 21.851C267.848 21.6853 267.409 21.6025 266.898 21.6025C266.074 21.6025 265.4 21.8071 264.873 22.2164C264.352 22.6256 264.091 23.1591 264.091 23.8169C264.091 24.3528 264.269 24.7962 264.625 25.147C264.981 25.4929 265.524 25.756 266.255 25.9363L267.979 26.3675C268.866 26.5867 269.534 26.9424 269.982 27.4345C270.43 27.9217 270.654 28.5283 270.654 29.2542C270.654 29.873 270.486 30.4211 270.15 30.8986C269.814 31.376 269.348 31.7488 268.754 32.0167C268.165 32.2847 267.478 32.4187 266.693 32.4187C265.646 32.4187 264.786 32.1751 264.113 31.6879C263.441 31.1958 263.01 30.4917 262.82 29.5758L263.675 29.3565C263.836 30.0873 264.169 30.6452 264.676 31.0301C265.188 31.4101 265.858 31.6002 266.686 31.6002C267.602 31.6002 268.34 31.3833 268.9 30.9497C269.465 30.5161 269.748 29.9607 269.748 29.2834C269.748 28.767 269.582 28.3309 269.251 27.9753C268.92 27.6196 268.418 27.3589 267.746 27.1933L265.955 26.7548C265.039 26.5307 264.352 26.1726 263.894 25.6805C263.436 25.1835 263.207 24.5721 263.207 23.8461C263.207 23.242 263.365 22.7109 263.682 22.2529C263.999 21.7949 264.435 21.4368 264.99 21.1786C265.546 20.9204 266.182 20.7913 266.898 20.7913C267.848 20.7913 268.622 21.0154 269.222 21.4636C269.821 21.9119 270.255 22.5501 270.523 23.3784ZM277.708 20.9594V21.756H272.805V20.9594H277.708ZM274.464 18.2699H275.348V29.5319C275.348 29.9899 275.436 30.3651 275.611 30.6574C275.791 30.9448 276.025 31.1592 276.313 31.3005C276.605 31.4369 276.917 31.5051 277.248 31.5051C277.409 31.5051 277.548 31.493 277.665 31.4686C277.786 31.4442 277.901 31.4126 278.008 31.3736L278.227 32.1848C278.091 32.2335 277.94 32.2749 277.774 32.3091C277.609 32.348 277.414 32.3675 277.19 32.3675C276.722 32.3675 276.278 32.2628 275.859 32.0533C275.445 31.8438 275.109 31.5393 274.851 31.1397C274.593 30.7402 274.464 30.2579 274.464 29.6927V18.2699ZM285.272 32.4187C284.259 32.4187 283.377 32.1678 282.627 31.6659C281.877 31.1641 281.297 30.4771 280.888 29.605C280.478 28.7329 280.274 27.739 280.274 26.6232C280.274 25.5026 280.478 24.5039 280.888 23.6269C281.302 22.7499 281.869 22.058 282.59 21.5513C283.311 21.0446 284.135 20.7913 285.061 20.7913C285.689 20.7913 286.283 20.9179 286.844 21.1713C287.409 21.4198 287.906 21.7803 288.335 22.2529C288.768 22.7255 289.107 23.2956 289.35 23.963C289.599 24.6305 289.723 25.3808 289.723 26.214V26.7694H280.836V25.9582H288.832C288.832 25.1445 288.666 24.4113 288.335 23.7584C288.003 23.1055 287.553 22.5867 286.983 22.2018C286.413 21.8169 285.772 21.6244 285.061 21.6244C284.315 21.6244 283.65 21.8339 283.065 22.2529C282.486 22.6671 282.025 23.2273 281.684 23.9338C281.348 24.6403 281.173 25.4296 281.158 26.3017V26.6671C281.158 27.6025 281.321 28.443 281.648 29.1884C281.979 29.929 282.452 30.5161 283.065 30.9497C283.679 31.3785 284.415 31.5928 285.272 31.5928C285.886 31.5928 286.41 31.4905 286.844 31.2859C287.282 31.0764 287.64 30.823 287.918 30.5258C288.196 30.2286 288.405 29.9412 288.547 29.6635L289.358 29.9923C289.187 30.3675 288.922 30.7427 288.561 31.1178C288.206 31.4881 287.752 31.7975 287.202 32.046C286.656 32.2944 286.013 32.4187 285.272 32.4187ZM292.793 32.1848V20.9594H293.662V22.6549H293.75C293.964 22.0897 294.335 21.6415 294.861 21.3102C295.387 20.9788 296.02 20.8132 296.761 20.8132C297.575 20.8132 298.23 21.0081 298.727 21.3979C299.229 21.7876 299.589 22.3163 299.809 22.9837H299.889C300.108 22.326 300.5 21.7998 301.066 21.4052C301.636 21.0105 302.337 20.8132 303.17 20.8132C304.257 20.8132 305.085 21.1567 305.655 21.8437C306.23 22.5258 306.518 23.4612 306.518 24.65V32.1848H305.626V24.65C305.626 23.7146 305.402 22.9789 304.954 22.4429C304.505 21.907 303.848 21.639 302.98 21.639C302.055 21.639 301.343 21.9289 300.846 22.5087C300.349 23.0885 300.101 23.8266 300.101 24.7231V32.1848H299.209V24.5916C299.209 23.7194 298.99 23.0105 298.552 22.4649C298.113 21.9143 297.455 21.639 296.578 21.639C295.984 21.639 295.47 21.7754 295.036 22.0483C294.608 22.3211 294.274 22.6963 294.035 23.1738C293.801 23.6512 293.684 24.1993 293.684 24.8181V32.1848H292.793Z" fill="white"/>
<path d="M74.8051 68.1899V50.7354H81.1971C82.4357 50.7354 83.4613 50.9399 84.2738 51.349C85.0863 51.7524 85.6943 52.3007 86.0977 52.9939C86.5011 53.6814 86.7028 54.457 86.7028 55.3206C86.7028 56.0479 86.5693 56.6615 86.3022 57.1615C86.0352 57.6558 85.6772 58.0536 85.2284 58.3547C84.7852 58.6502 84.2965 58.8661 83.7625 59.0024V59.1729C84.342 59.2013 84.9073 59.3888 85.4585 59.7354C86.0153 60.0763 86.4755 60.5621 86.8392 61.1928C87.2028 61.8235 87.3846 62.5905 87.3846 63.4939C87.3846 64.386 87.1744 65.1871 86.7539 65.8973C86.3392 66.6019 85.6971 67.1615 84.8278 67.5763C83.9585 67.9854 82.8477 68.1899 81.4954 68.1899H74.8051ZM77.4386 65.9314H81.2397C82.5011 65.9314 83.4045 65.6871 83.95 65.1985C84.4954 64.7098 84.7681 64.099 84.7681 63.3661C84.7681 62.8149 84.6289 62.3093 84.3505 61.849C84.0721 61.3888 83.6744 61.0223 83.1573 60.7496C82.646 60.4769 82.038 60.3405 81.3335 60.3405H77.4386V65.9314ZM77.4386 58.2865H80.967C81.5579 58.2865 82.0892 58.1729 82.5607 57.9456C83.038 57.7184 83.4159 57.4002 83.6943 56.9911C83.9784 56.5763 84.1204 56.0877 84.1204 55.5252C84.1204 54.8036 83.8676 54.1985 83.3619 53.7098C82.8562 53.2212 82.0806 52.9769 81.0352 52.9769H77.4386V58.2865ZM97.6386 56.7419H111.583V58.3739H97.6386V56.7419ZM102.127 61.2299H103.567V69.8459H102.127V61.2299ZM105.775 61.2299H107.239V69.7979H105.775V61.2299ZM103.663 48.0779H105.391V54.2699H103.663V48.0779ZM98.3826 60.6059H110.335V62.1659H100.015V70.0859H98.3826V60.6059ZM109.447 60.6059H111.079V68.4299C111.079 69.1979 110.959 69.6299 110.479 69.8459C109.951 70.1339 109.279 70.1339 108.199 70.1339C108.127 69.7019 107.911 69.1019 107.695 68.6939C108.391 68.7179 108.991 68.7179 109.183 68.6939C109.375 68.6939 109.447 68.6219 109.447 68.4059V60.6059ZM103.663 57.2699L105.727 57.7019C105.271 59.0699 104.839 60.6059 104.455 61.5899L102.919 61.1819C103.207 60.0779 103.519 58.3979 103.663 57.2699ZM98.6706 49.2539H100.351V53.3579H109.039V49.2539H110.767V54.9419H98.6706V49.2539ZM89.8146 52.8539H97.3986V54.5099H89.8146V52.8539ZM92.8386 48.3419H94.4706V53.6699H92.8386V48.3419ZM89.3586 65.2139C91.5426 64.8059 94.7346 64.0859 97.8306 63.4139L97.9986 64.9739C95.1186 65.7179 92.0946 66.4379 89.7906 66.9899L89.3586 65.2139ZM90.3426 55.6859L91.7346 55.4459C92.2866 57.9179 92.6946 61.0859 92.7186 63.1979L91.2306 63.4379C91.2306 61.3259 90.8466 58.1339 90.3426 55.6859ZM95.1426 55.2299L96.8466 55.5899C96.3906 58.3979 95.7426 62.1179 95.1666 64.3499L93.8226 63.9899C94.3506 61.7339 94.9266 57.8939 95.1426 55.2299ZM123.493 50.7354V68.1899H120.86V50.7354H123.493ZM132.638 68.4541C131.371 68.4541 130.28 68.1672 129.365 67.5934C128.456 67.0138 127.757 66.2155 127.269 65.1985C126.78 64.1814 126.536 63.0166 126.536 61.7041C126.536 60.3746 126.786 59.2013 127.286 58.1843C127.786 57.1615 128.49 56.3632 129.4 55.7894C130.309 55.2155 131.38 54.9286 132.613 54.9286C133.607 54.9286 134.493 55.1132 135.272 55.4826C136.05 55.8462 136.678 56.3576 137.155 57.0166C137.638 57.6757 137.925 58.4456 138.016 59.3263H135.536C135.4 58.7127 135.087 58.1843 134.598 57.7411C134.115 57.2979 133.468 57.0763 132.655 57.0763C131.945 57.0763 131.323 57.2638 130.789 57.6388C130.26 58.0081 129.848 58.5365 129.553 59.224C129.257 59.9059 129.11 60.7127 129.11 61.6445C129.11 62.599 129.255 63.4229 129.544 64.1161C129.834 64.8093 130.243 65.3462 130.772 65.7269C131.306 66.1076 131.934 66.2979 132.655 66.2979C133.138 66.2979 133.576 66.2098 133.968 66.0337C134.365 65.8519 134.698 65.5934 134.965 65.2581C135.238 64.9229 135.428 64.5195 135.536 64.0479H138.016C137.925 64.8945 137.65 65.6502 137.189 66.3149C136.729 66.9797 136.113 67.5024 135.34 67.8831C134.573 68.2638 133.672 68.4541 132.638 68.4541ZM146.255 68.4541C145.028 68.4541 143.957 68.1729 143.042 67.6104C142.128 67.0479 141.417 66.261 140.912 65.2496C140.406 64.2382 140.153 63.0564 140.153 61.7041C140.153 60.3462 140.406 59.1587 140.912 58.1416C141.417 57.1246 142.128 56.3348 143.042 55.7723C143.957 55.2098 145.028 54.9286 146.255 54.9286C147.483 54.9286 148.554 55.2098 149.468 55.7723C150.383 56.3348 151.093 57.1246 151.599 58.1416C152.105 59.1587 152.358 60.3462 152.358 61.7041C152.358 63.0564 152.105 64.2382 151.599 65.2496C151.093 66.261 150.383 67.0479 149.468 67.6104C148.554 68.1729 147.483 68.4541 146.255 68.4541ZM146.264 66.3149C147.059 66.3149 147.718 66.1047 148.241 65.6843C148.764 65.2638 149.15 64.7041 149.4 64.0053C149.656 63.3064 149.784 62.5365 149.784 61.6956C149.784 60.8604 149.656 60.0934 149.4 59.3945C149.15 58.6899 148.764 58.1246 148.241 57.6985C147.718 57.2723 147.059 57.0593 146.264 57.0593C145.463 57.0593 144.798 57.2723 144.27 57.6985C143.747 58.1246 143.358 58.6899 143.102 59.3945C142.852 60.0934 142.727 60.8604 142.727 61.6956C142.727 62.5365 142.852 63.3064 143.102 64.0053C143.358 64.7041 143.747 65.2638 144.27 65.6843C144.798 66.1047 145.463 66.3149 146.264 66.3149ZM157.75 60.4172V68.1899H155.202V55.099H157.648V57.2297H157.81C158.111 56.5365 158.583 55.9797 159.225 55.5593C159.873 55.1388 160.688 54.9286 161.671 54.9286C162.563 54.9286 163.344 55.1161 164.015 55.4911C164.685 55.8604 165.205 56.4115 165.574 57.1445C165.944 57.8774 166.128 58.7837 166.128 59.8632V68.1899H163.58V60.1701C163.58 59.2212 163.333 58.4797 162.838 57.9456C162.344 57.4059 161.665 57.136 160.802 57.136C160.211 57.136 159.685 57.2638 159.225 57.5195C158.77 57.7752 158.409 58.1502 158.142 58.6445C157.881 59.1331 157.75 59.724 157.75 60.4172ZM175.72 52.0379H184.168V53.7179H175.72V52.0379ZM175.192 57.5819H184.456V59.3099H175.192V57.5819ZM179.152 48.2939H180.88V56.0699C180.88 60.2939 180.52 66.1739 176.32 69.8699C176.08 69.5099 175.48 68.9099 175.048 68.6219C179.008 65.3579 179.152 59.8139 179.152 56.0939V48.2939ZM180.472 60.4619C181.264 61.2059 183.976 64.4699 184.6 65.2379L183.352 66.5819C182.56 65.3099 180.28 62.3579 179.368 61.3019L180.472 60.4619ZM185.584 49.2059H195.736V61.9739H193.96V50.7899H187.336V61.9739H185.584V49.2059ZM190.624 61.2539H192.232V67.3739C192.232 68.0219 192.448 68.1659 193.024 68.1659H194.728C195.496 68.1659 195.64 67.5419 195.736 64.2299C196.144 64.5659 196.768 64.8059 197.2 64.9019C197.008 68.6699 196.72 69.6059 194.752 69.6059H192.808C191.248 69.6059 190.624 69.1739 190.624 67.5659V61.2539ZM189.832 52.8539H191.512V57.4859C191.512 61.5899 190.432 66.8459 184.12 70.0859C183.928 69.7499 183.352 69.0779 182.992 68.7899C189.064 65.6939 189.832 61.1579 189.832 57.4619V52.8539ZM209.008 55.2059H218.176V56.9339H209.008V55.2059ZM199.96 68.5739C201.544 67.1579 203.896 64.6859 205.768 62.5019L206.776 63.8459C205.096 65.9099 203.008 68.2379 201.208 70.0379L199.96 68.5739ZM200.944 55.5179L201.976 54.3659C203.368 55.1099 205.36 56.2139 206.392 56.8859L205.336 58.2299C204.352 57.5339 202.384 56.3339 200.944 55.5179ZM199.528 60.1019L200.512 58.8779C201.928 59.5019 203.968 60.4619 205.048 61.0859L204.04 62.4539C203.008 61.8059 201.016 60.7739 199.528 60.1019ZM217.264 55.2059H219.064V61.3019C219.064 62.2859 218.848 62.8379 218.032 63.1019C217.192 63.3899 215.848 63.4139 213.808 63.4139C213.712 62.8859 213.4 62.1899 213.112 61.7099C214.816 61.7579 216.28 61.7579 216.736 61.7099C217.168 61.7099 217.264 61.6139 217.264 61.2779V55.2059ZM208.024 55.2059H209.872V66.6539C209.872 67.7579 210.184 67.9979 211.816 67.9979C212.608 67.9979 216.616 67.9979 217.648 67.9979C219.064 67.9979 219.304 67.4459 219.496 64.7099C219.928 65.0219 220.672 65.3099 221.2 65.4539C220.936 68.7419 220.312 69.7019 217.744 69.7019C217.072 69.7019 212.368 69.7019 211.72 69.7019C208.888 69.7019 208.024 69.1019 208.024 66.6539V55.2059ZM199.552 50.1419H220.84V51.8219H199.552V50.1419ZM204.952 48.0539H206.776V54.1259H204.952V48.0539ZM213.496 48.0539H215.32V54.1259H213.496V48.0539ZM228.184 52.9739V54.6779H240.232V52.9739H228.184ZM228.184 50.0939V51.7499H240.232V50.0939H228.184ZM226.432 48.7979H242.008V55.9499H226.432V48.7979ZM223.576 57.2939H244.72V58.7819H223.576V57.2939ZM234.232 60.2939H242.776V61.7579H234.232V60.2939ZM226.696 60.4379H232.624V61.7819H226.696V60.4379ZM226.696 63.4619H232.624V64.8059H226.696V63.4619ZM236.752 61.6379C238.144 65.0699 241.216 67.6859 245.296 68.6939C244.912 69.0299 244.432 69.6779 244.192 70.1099C239.968 68.8619 236.872 66.0059 235.288 62.0699L236.752 61.6379ZM242.224 60.2939H242.56L242.872 60.2219L243.976 60.6779C242.392 65.5499 238.528 68.5499 234.352 69.9899C234.16 69.5579 233.704 68.9099 233.368 68.5739C237.208 67.4219 240.904 64.6139 242.224 60.5819V60.2939ZM223.36 67.1339C225.712 66.9419 229.192 66.5579 232.576 66.1739V67.6619C229.336 68.0459 226 68.4539 223.528 68.7419L223.36 67.1339ZM231.664 57.7739H233.392V70.1099H231.664V57.7739ZM225.64 57.7979H227.32V67.5659H225.64V57.7979ZM252.592 48.1259L254.296 48.6299C252.856 52.6859 250.576 56.7659 248.152 59.4779C247.96 59.0699 247.432 58.1339 247.12 57.7019C249.328 55.3739 251.344 51.7739 252.592 48.1259ZM250.168 54.4859L251.92 52.7099L251.968 52.7339V70.1099H250.168V54.4859ZM255.208 51.1979H267.64V52.8779H255.208V51.1979ZM254.704 61.7339H268.072V63.4379H254.704V61.7339ZM254.032 56.3339H268.744V58.0379H254.032V56.3339ZM253.24 67.4699H269.224V69.2219H253.24V67.4699ZM260.44 48.0299H262.24V57.3419H260.44V48.0299ZM260.44 58.9739H262.24V68.6939H260.44V58.9739ZM283.072 65.6219L283.96 64.3259C287.152 65.4779 290.536 67.1339 292.504 68.5739L291.4 69.9659C289.48 68.5019 286.264 66.8459 283.072 65.6219ZM280.456 48.4379L282.256 47.8859C282.904 48.8699 283.648 50.2139 283.936 51.0779L282.088 51.7019C281.8 50.8619 281.104 49.4459 280.456 48.4379ZM272.344 50.7659H292.048V55.6379H290.2V52.4699H274.12V55.6379H272.344V50.7659ZM282.256 53.6699H284.128C283.84 62.5739 283.096 67.7579 273.136 70.0379C272.968 69.5579 272.488 68.8619 272.104 68.4779C281.584 66.4859 281.992 61.9499 282.256 53.6699ZM271.888 62.0699H292.6V63.6299H271.888V62.0699ZM275.944 54.8459L277.024 53.6939C278.32 54.3899 279.856 55.4939 280.6 56.3339L279.472 57.6299C278.752 56.7899 277.24 55.6139 275.944 54.8459ZM273.544 58.5659L274.6 57.3659C275.968 58.0619 277.576 59.1899 278.368 60.0299L277.288 61.3739C276.52 60.5099 274.888 59.3099 273.544 58.5659ZM297.832 50.6459V54.8939H302.08V50.6459H297.832ZM296.248 49.0859H303.712V56.4539H296.248V49.0859ZM299.392 55.6619H301V66.7979H299.392V55.6619ZM296.272 58.6859H297.76V67.5899H296.272V58.6859ZM295.072 67.2299C297.448 66.7259 301.096 65.8379 304.6 64.9499L304.792 66.5339C301.48 67.3979 298 68.2859 295.456 68.9339L295.072 67.2299ZM300.112 59.9099H304.312V61.4939H300.112V59.9099ZM304.672 52.4219L316.24 51.2699L316.384 52.8299L304.84 54.0059L304.672 52.4219ZM305.248 56.1659L315.784 55.0139L315.976 56.5259L305.416 57.6779L305.248 56.1659ZM304.696 60.1499L317.056 58.7819L317.248 60.3419L304.888 61.7339L304.696 60.1499ZM308.44 48.0779H310.264C310.168 59.4539 312.112 68.3579 315.064 68.3579C315.688 68.3579 315.952 67.5179 316.096 64.9979C316.456 65.4059 317.056 65.7659 317.488 65.9339C317.152 69.1499 316.576 70.1099 314.92 70.1099C310.216 70.1099 308.512 59.9099 308.44 48.0779ZM311.488 49.0619L312.496 47.9819C313.696 48.4859 315.208 49.3499 315.952 50.0219L314.92 51.2459C314.176 50.5499 312.688 49.6619 311.488 49.0619ZM314.632 61.3739L316.192 62.0459C313.768 65.6459 309.496 68.4299 304.816 69.9899C304.576 69.5339 304.12 68.9099 303.712 68.5019C308.248 67.1339 312.424 64.5899 314.632 61.3739ZM320.32 49.5659L321.4 48.3659C322.84 49.1339 324.784 50.2859 325.792 51.0059L324.664 52.3979C323.68 51.6299 321.76 50.4299 320.32 49.5659ZM319.096 56.0699L320.104 54.7739C321.592 55.4219 323.656 56.4539 324.712 57.1019L323.68 58.5659C322.648 57.8939 320.608 56.8139 319.096 56.0699ZM319.816 68.5979C321.112 66.7019 323.056 63.4139 324.472 60.6059L325.816 61.7819C324.496 64.3979 322.768 67.5179 321.328 69.8219L319.816 68.5979ZM330.304 55.4219H336.688V57.1019H330.304V55.4219ZM326.488 49.5419H340.696V54.3659H338.944V51.2699H328.192V54.3659H326.488V49.5419ZM329.248 55.4219H331V60.5099C331 63.6779 330.28 67.6379 326.2 70.1339C325.984 69.7499 325.384 69.0059 325.024 68.7659C328.768 66.4619 329.248 63.1979 329.248 60.4619V55.4219ZM335.728 55.4219H337.48V67.1099C337.48 67.8539 337.576 67.9739 338.008 67.9739C338.2 67.9739 339.064 67.9739 339.328 67.9739C339.832 67.9739 339.904 67.3259 339.952 63.8219C340.36 64.1819 341.104 64.4939 341.584 64.6139C341.44 68.5259 341.056 69.6539 339.472 69.6539C339.16 69.6539 338.032 69.6539 337.72 69.6539C336.184 69.6539 335.728 69.1259 335.728 67.1339V55.4219ZM350.968 55.9259H363.928V57.5579H350.968V55.9259ZM357.328 61.3019H363.592V62.9339H357.328V61.3019ZM350.248 51.1019H364.696V55.1099H362.92V52.7099H351.952V55.1099H350.248V51.1019ZM356.44 48.0539H358.288V51.9899H356.44V48.0539ZM356.488 56.6219H358.24V68.4059H356.488V56.6219ZM353.2 62.7659C354.568 67.3019 357.424 67.9979 361 67.9979C361.624 67.9979 364.576 67.9979 365.416 67.9979C365.176 68.3819 364.912 69.1739 364.84 69.6539H360.928C356.68 69.6539 353.608 68.7179 352.024 63.2219L353.2 62.7659ZM344.272 49.5419L345.28 48.2219C346.792 48.8699 348.64 49.9259 349.552 50.7419L348.496 52.2539C347.608 51.3659 345.784 50.2379 344.272 49.5419ZM343.072 56.0459L344.08 54.7019C345.568 55.2539 347.44 56.2859 348.376 57.0539L347.344 58.5419C346.432 57.7499 344.608 56.6939 343.072 56.0459ZM343.744 68.7179C344.92 66.8459 346.6 63.6539 347.848 60.8939L349.264 61.9739C348.136 64.5419 346.6 67.5899 345.328 69.8219L343.744 68.7179ZM352.312 59.2859L354.064 59.4779C353.488 64.1099 352.24 67.7819 349.888 70.2059C349.6 69.9179 348.832 69.3899 348.424 69.1499C350.752 67.0139 351.856 63.5099 352.312 59.2859Z" fill="white"/>
<rect x="72.8875" y="82.1899" width="189.58" height="22.86" rx="11.43" fill="white"/>
<path d="M86.9973 97.6199H84.0386V88.889H87.0569C87.9238 88.889 88.6684 89.0638 89.2908 89.4133C89.9161 89.7601 90.3964 90.2589 90.7318 90.9097C91.0671 91.5605 91.2348 92.3393 91.2348 93.2459C91.2348 94.1554 91.0657 94.9369 90.7275 95.5906C90.3921 96.2443 89.9076 96.7459 89.2738 97.0955C88.6428 97.4451 87.884 97.6199 86.9973 97.6199ZM85.6203 96.2514H86.9205C87.5287 96.2514 88.036 96.1406 88.4425 95.9189C88.8489 95.6944 89.1544 95.3604 89.359 94.917C89.5637 94.4708 89.666 93.9138 89.666 93.2459C89.666 92.578 89.5637 92.0238 89.359 91.5833C89.1544 91.1399 88.8517 90.8088 88.451 90.59C88.0531 90.3683 87.5586 90.2574 86.9674 90.2574H85.6203V96.2514ZM95.5683 97.7478C94.9118 97.7478 94.3448 97.6113 93.8673 97.3385C93.3927 97.0628 93.0275 96.6735 92.7717 96.1704C92.5159 95.6645 92.388 95.0691 92.388 94.3842C92.388 93.7106 92.5159 93.1194 92.7717 92.6107C93.0303 92.0991 93.3913 91.7012 93.8545 91.417C94.3178 91.13 94.862 90.9864 95.4873 90.9864C95.8909 90.9864 96.2717 91.0518 96.6298 91.1825C96.9908 91.3104 97.3091 91.5094 97.5848 91.7794C97.8633 92.0494 98.0821 92.3933 98.2413 92.8111C98.4005 93.226 98.48 93.7205 98.48 94.2946V94.7678H93.1127V93.7276H97.0007C96.9979 93.432 96.9339 93.1692 96.8089 92.9389C96.6838 92.7059 96.509 92.5226 96.2845 92.389C96.0628 92.2554 95.8042 92.1886 95.5086 92.1886C95.1931 92.1886 94.916 92.2654 94.6773 92.4188C94.4386 92.5695 94.2524 92.7684 94.1188 93.0157C93.9881 93.2601 93.9213 93.5287 93.9185 93.8214V94.7295C93.9185 95.1103 93.9881 95.4371 94.1274 95.71C94.2666 95.98 94.4613 96.1875 94.7114 96.3324C94.9615 96.4745 95.2543 96.5456 95.5896 96.5456C95.8141 96.5456 96.0174 96.5143 96.1992 96.4518C96.3811 96.3864 96.5389 96.2912 96.6725 96.1661C96.806 96.0411 96.9069 95.8862 96.9751 95.7015L98.4161 95.8635C98.3251 96.2443 98.1518 96.5768 97.896 96.861C97.643 97.1424 97.319 97.3612 96.924 97.5176C96.5289 97.671 96.077 97.7478 95.5683 97.7478ZM104.961 92.8025L103.554 92.956C103.514 92.8139 103.445 92.6803 103.345 92.5553C103.249 92.4302 103.118 92.3293 102.953 92.2526C102.788 92.1758 102.586 92.1375 102.348 92.1375C102.027 92.1375 101.757 92.2071 101.538 92.3464C101.322 92.4856 101.215 92.6661 101.218 92.8878C101.215 93.0782 101.285 93.2331 101.427 93.3525C101.572 93.4718 101.811 93.5699 102.143 93.6466L103.26 93.8854C103.88 94.0189 104.34 94.2307 104.641 94.5206C104.945 94.8105 105.099 95.1899 105.102 95.6588C105.099 96.0709 104.978 96.4347 104.739 96.7502C104.503 97.0628 104.175 97.3072 103.755 97.4835C103.334 97.6597 102.851 97.7478 102.305 97.7478C101.504 97.7478 100.859 97.5801 100.37 97.2447C99.8808 96.9065 99.5895 96.4361 99.4957 95.8336L101.001 95.6887C101.069 95.9842 101.214 96.2074 101.435 96.358C101.657 96.5086 101.946 96.5839 102.301 96.5839C102.667 96.5839 102.962 96.5086 103.183 96.358C103.408 96.2074 103.52 96.0212 103.52 95.7995C103.52 95.6119 103.448 95.457 103.303 95.3348C103.161 95.2126 102.939 95.1188 102.638 95.0535L101.521 94.819C100.893 94.6883 100.428 94.468 100.127 94.1582C99.8254 93.8456 99.6762 93.4505 99.679 92.9731C99.6762 92.5695 99.7856 92.2199 100.007 91.9243C100.232 91.6259 100.543 91.3957 100.941 91.2337C101.342 91.0688 101.804 90.9864 102.326 90.9864C103.094 90.9864 103.698 91.1498 104.138 91.4767C104.582 91.8035 104.856 92.2455 104.961 92.8025ZM106.374 97.6199V91.0717H107.918V97.6199H106.374ZM107.15 90.1423C106.906 90.1423 106.695 90.0613 106.519 89.8993C106.343 89.7345 106.255 89.537 106.255 89.3068C106.255 89.0737 106.343 88.8762 106.519 88.7142C106.695 88.5493 106.906 88.4669 107.15 88.4669C107.397 88.4669 107.608 88.5493 107.781 88.7142C107.957 88.8762 108.045 89.0737 108.045 89.3068C108.045 89.537 107.957 89.7345 107.781 89.8993C107.608 90.0613 107.397 90.1423 107.15 90.1423ZM112.352 100.212C111.798 100.212 111.322 100.137 110.924 99.9859C110.526 99.8381 110.207 99.6392 109.965 99.3891C109.723 99.139 109.556 98.8619 109.462 98.5578L110.852 98.221C110.914 98.3489 111.005 98.4753 111.125 98.6004C111.244 98.7283 111.404 98.8334 111.606 98.9159C111.811 99.0011 112.068 99.0438 112.378 99.0438C112.816 99.0438 113.178 98.9372 113.465 98.724C113.752 98.5137 113.896 98.167 113.896 97.6838V96.4432H113.819C113.739 96.6024 113.623 96.7658 113.469 96.9335C113.319 97.1012 113.118 97.2419 112.868 97.3556C112.621 97.4692 112.31 97.5261 111.934 97.5261C111.431 97.5261 110.975 97.4081 110.566 97.1722C110.16 96.9335 109.836 96.5782 109.594 96.1065C109.355 95.6318 109.236 95.0378 109.236 94.3245C109.236 93.6054 109.355 92.9986 109.594 92.5041C109.836 92.0067 110.161 91.6302 110.57 91.3744C110.98 91.1157 111.436 90.9864 111.939 90.9864C112.322 90.9864 112.638 91.0518 112.885 91.1825C113.135 91.3104 113.334 91.4653 113.482 91.6472C113.63 91.8263 113.742 91.9954 113.819 92.1545H113.904V91.0717H115.426V97.7265C115.426 98.2863 115.292 98.7496 115.025 99.1162C114.758 99.4829 114.393 99.7571 113.93 99.939C113.466 100.121 112.941 100.212 112.352 100.212ZM112.365 96.3154C112.692 96.3154 112.97 96.2358 113.201 96.0766C113.431 95.9175 113.606 95.6887 113.725 95.3903C113.844 95.0918 113.904 94.7337 113.904 94.3159C113.904 93.9038 113.844 93.5429 113.725 93.2331C113.608 92.9233 113.435 92.6832 113.205 92.5126C112.978 92.3393 112.698 92.2526 112.365 92.2526C112.021 92.2526 111.734 92.3421 111.504 92.5212C111.274 92.7002 111.1 92.9461 110.984 93.2587C110.867 93.5685 110.809 93.9209 110.809 94.3159C110.809 94.7167 110.867 95.0677 110.984 95.3689C111.103 95.6674 111.278 95.9004 111.508 96.0681C111.741 96.2329 112.027 96.3154 112.365 96.3154ZM118.551 93.783V97.6199H117.008V91.0717H118.483V92.1844H118.559C118.71 91.8177 118.95 91.5264 119.28 91.3104C119.612 91.0944 120.023 90.9864 120.512 90.9864C120.964 90.9864 121.357 91.0831 121.693 91.2763C122.031 91.4696 122.293 91.7495 122.477 92.1162C122.665 92.4828 122.757 92.9276 122.754 93.4505V97.6199H121.211V93.6893C121.211 93.2516 121.097 92.9091 120.87 92.6618C120.646 92.4146 120.334 92.2909 119.936 92.2909C119.666 92.2909 119.426 92.3506 119.216 92.47C119.008 92.5865 118.845 92.7556 118.726 92.9773C118.609 93.199 118.551 93.4676 118.551 93.783ZM127.222 97.7478C126.566 97.7478 125.999 97.6113 125.521 97.3385C125.046 97.0628 124.681 96.6735 124.425 96.1704C124.17 95.6645 124.042 95.0691 124.042 94.3842C124.042 93.7106 124.17 93.1194 124.425 92.6107C124.684 92.0991 125.045 91.7012 125.508 91.417C125.972 91.13 126.516 90.9864 127.141 90.9864C127.545 90.9864 127.926 91.0518 128.284 91.1825C128.645 91.3104 128.963 91.5094 129.239 91.7794C129.517 92.0494 129.736 92.3933 129.895 92.8111C130.054 93.226 130.134 93.7205 130.134 94.2946V94.7678H124.767V93.7276H128.655C128.652 93.432 128.588 93.1692 128.463 92.9389C128.338 92.7059 128.163 92.5226 127.938 92.389C127.717 92.2554 127.458 92.1886 127.162 92.1886C126.847 92.1886 126.57 92.2654 126.331 92.4188C126.092 92.5695 125.906 92.7684 125.773 93.0157C125.642 93.2601 125.575 93.5287 125.572 93.8214V94.7295C125.572 95.1103 125.642 95.4371 125.781 95.71C125.92 95.98 126.115 96.1875 126.365 96.3324C126.615 96.4745 126.908 96.5456 127.243 96.5456C127.468 96.5456 127.671 96.5143 127.853 96.4518C128.035 96.3864 128.193 96.2912 128.326 96.1661C128.46 96.0411 128.561 95.8862 128.629 95.7015L130.07 95.8635C129.979 96.2443 129.806 96.5768 129.55 96.861C129.297 97.1424 128.973 97.3612 128.578 97.5176C128.183 97.671 127.731 97.7478 127.222 97.7478ZM133.869 97.735C133.355 97.735 132.895 97.6028 132.488 97.3385C132.082 97.0742 131.761 96.6905 131.525 96.1875C131.289 95.6844 131.171 95.0734 131.171 94.3543C131.171 93.6267 131.29 93.0128 131.529 92.5126C131.771 92.0096 132.096 91.6302 132.505 91.3744C132.914 91.1157 133.371 90.9864 133.874 90.9864C134.257 90.9864 134.573 91.0518 134.82 91.1825C135.067 91.3104 135.263 91.4653 135.408 91.6472C135.553 91.8263 135.666 91.9954 135.745 92.1545H135.809V88.889H137.357V97.6199H135.839V96.5882H135.745C135.666 96.7474 135.551 96.9165 135.4 97.0955C135.249 97.2717 135.05 97.4223 134.803 97.5474C134.556 97.6725 134.245 97.735 133.869 97.735ZM134.3 96.4688C134.627 96.4688 134.905 96.3807 135.136 96.2045C135.366 96.0255 135.541 95.7768 135.66 95.4585C135.779 95.1401 135.839 94.7693 135.839 94.3458C135.839 93.9223 135.779 93.5543 135.66 93.2416C135.543 92.929 135.37 92.686 135.14 92.5126C134.912 92.3393 134.633 92.2526 134.3 92.2526C133.956 92.2526 133.669 92.3421 133.439 92.5212C133.209 92.7002 133.035 92.9475 132.919 93.2629C132.802 93.5784 132.744 93.9394 132.744 94.3458C132.744 94.755 132.802 95.1203 132.919 95.4414C133.038 95.7597 133.213 96.0112 133.443 96.196C133.676 96.3779 133.962 96.4688 134.3 96.4688ZM143.863 97.752C143.448 97.752 143.075 97.6781 142.742 97.5303C142.412 97.3797 142.151 97.158 141.958 96.8653C141.767 96.5726 141.672 96.2116 141.672 95.7825C141.672 95.413 141.74 95.1075 141.877 94.8659C142.013 94.6243 142.199 94.431 142.435 94.2861C142.671 94.1412 142.937 94.0317 143.232 93.9578C143.531 93.8811 143.839 93.8257 144.157 93.7916C144.541 93.7518 144.852 93.7163 145.091 93.685C145.33 93.6509 145.503 93.5997 145.611 93.5315C145.722 93.4605 145.777 93.351 145.777 93.2033V93.1777C145.777 92.8565 145.682 92.6078 145.492 92.4316C145.301 92.2554 145.027 92.1673 144.669 92.1673C144.291 92.1673 143.991 92.2497 143.769 92.4146C143.551 92.5794 143.403 92.7741 143.326 92.9986L141.885 92.794C141.999 92.3961 142.186 92.0636 142.448 91.7964C142.709 91.5264 143.029 91.3246 143.407 91.1911C143.785 91.0546 144.203 90.9864 144.66 90.9864C144.976 90.9864 145.29 91.0234 145.603 91.0973C145.915 91.1712 146.201 91.2934 146.46 91.4639C146.718 91.6316 146.926 91.8604 147.082 92.1503C147.241 92.4402 147.321 92.8025 147.321 93.2374V97.6199H145.837V96.7204H145.786C145.692 96.9022 145.56 97.0728 145.389 97.2319C145.222 97.3882 145.01 97.5147 144.754 97.6113C144.501 97.7051 144.204 97.752 143.863 97.752ZM144.264 96.618C144.574 96.618 144.842 96.5569 145.07 96.4347C145.297 96.3097 145.472 96.1448 145.594 95.9402C145.719 95.7356 145.782 95.5125 145.782 95.2709V94.4993C145.733 94.539 145.651 94.576 145.534 94.6101C145.421 94.6442 145.293 94.674 145.151 94.6996C145.009 94.7252 144.868 94.7479 144.729 94.7678C144.589 94.7877 144.469 94.8048 144.366 94.819C144.136 94.8503 143.93 94.9014 143.748 94.9725C143.566 95.0435 143.423 95.143 143.318 95.2709C143.212 95.3959 143.16 95.5579 143.16 95.7569C143.16 96.0411 143.264 96.2557 143.471 96.4006C143.679 96.5456 143.943 96.618 144.264 96.618ZM150.416 93.783V97.6199H148.872V91.0717H150.348V92.1844H150.424C150.575 91.8177 150.815 91.5264 151.145 91.3104C151.477 91.0944 151.888 90.9864 152.377 90.9864C152.829 90.9864 153.222 91.0831 153.558 91.2763C153.896 91.4696 154.157 91.7495 154.342 92.1162C154.53 92.4828 154.622 92.9276 154.619 93.4505V97.6199H153.076V93.6893C153.076 93.2516 152.962 92.9091 152.735 92.6618C152.51 92.4146 152.199 92.2909 151.801 92.2909C151.531 92.2909 151.291 92.3506 151.081 92.47C150.873 92.5865 150.71 92.7556 150.591 92.9773C150.474 93.199 150.416 93.4676 150.416 93.783ZM158.618 97.735C158.104 97.735 157.643 97.6028 157.237 97.3385C156.83 97.0742 156.509 96.6905 156.273 96.1875C156.037 95.6844 155.919 95.0734 155.919 94.3543C155.919 93.6267 156.039 93.0128 156.278 92.5126C156.519 92.0096 156.845 91.6302 157.254 91.3744C157.663 91.1157 158.119 90.9864 158.622 90.9864C159.006 90.9864 159.321 91.0518 159.569 91.1825C159.816 91.3104 160.012 91.4653 160.157 91.6472C160.302 91.8263 160.414 91.9954 160.494 92.1545H160.558V88.889H162.105V97.6199H160.588V96.5882H160.494C160.414 96.7474 160.299 96.9165 160.148 97.0955C159.998 97.2717 159.799 97.4223 159.552 97.5474C159.304 97.6725 158.993 97.735 158.618 97.735ZM159.049 96.4688C159.375 96.4688 159.654 96.3807 159.884 96.2045C160.114 96.0255 160.289 95.7768 160.409 95.4585C160.528 95.1401 160.588 94.7693 160.588 94.3458C160.588 93.9223 160.528 93.5543 160.409 93.2416C160.292 92.929 160.119 92.686 159.888 92.5126C159.661 92.3393 159.381 92.2526 159.049 92.2526C158.705 92.2526 158.418 92.3421 158.187 92.5212C157.957 92.7002 157.784 92.9475 157.667 93.2629C157.551 93.5784 157.493 93.9394 157.493 94.3458C157.493 94.755 157.551 95.1203 157.667 95.4414C157.787 95.7597 157.961 96.0112 158.192 96.196C158.425 96.3779 158.71 96.4688 159.049 96.4688ZM169.584 97.7478C168.93 97.7478 168.369 97.6042 167.9 97.3172C167.434 97.0301 167.074 96.6337 166.821 96.1278C166.571 95.619 166.446 95.0336 166.446 94.3714C166.446 93.7063 166.574 93.1194 166.83 92.6107C167.086 92.0991 167.447 91.7012 167.913 91.417C168.382 91.13 168.936 90.9864 169.575 90.9864C170.107 90.9864 170.577 91.0845 170.986 91.2806C171.399 91.4738 171.727 91.7481 171.971 92.1034C172.216 92.4558 172.355 92.8679 172.389 93.3397H170.914C170.854 93.0242 170.712 92.7613 170.488 92.551C170.266 92.3378 169.969 92.2313 169.597 92.2313C169.281 92.2313 169.004 92.3165 168.765 92.4871C168.527 92.6547 168.34 92.8963 168.207 93.2118C168.076 93.5273 168.011 93.9053 168.011 94.3458C168.011 94.792 168.076 95.1757 168.207 95.4968C168.338 95.8151 168.521 96.061 168.757 96.2344C168.996 96.4049 169.275 96.4901 169.597 96.4901C169.824 96.4901 170.027 96.4475 170.206 96.3622C170.388 96.2741 170.54 96.1477 170.662 95.9828C170.785 95.818 170.868 95.6176 170.914 95.3817H172.389C172.352 95.845 172.216 96.2557 171.98 96.6138C171.744 96.969 171.423 97.2476 171.016 97.4493C170.61 97.6483 170.132 97.7478 169.584 97.7478ZM176.513 97.7478C175.873 97.7478 175.319 97.6071 174.85 97.3257C174.381 97.0443 174.017 96.6507 173.759 96.1448C173.503 95.6389 173.375 95.0478 173.375 94.3714C173.375 93.6949 173.503 93.1024 173.759 92.5936C174.017 92.0849 174.381 91.6898 174.85 91.4085C175.319 91.1271 175.873 90.9864 176.513 90.9864C177.152 90.9864 177.706 91.1271 178.175 91.4085C178.644 91.6898 179.006 92.0849 179.262 92.5936C179.521 93.1024 179.65 93.6949 179.65 94.3714C179.65 95.0478 179.521 95.6389 179.262 96.1448C179.006 96.6507 178.644 97.0443 178.175 97.3257C177.706 97.6071 177.152 97.7478 176.513 97.7478ZM176.521 96.5115C176.868 96.5115 177.158 96.4162 177.391 96.2258C177.624 96.0326 177.797 95.7739 177.911 95.4499C178.027 95.1259 178.086 94.765 178.086 94.3671C178.086 93.9664 178.027 93.604 177.911 93.28C177.797 92.9532 177.624 92.6931 177.391 92.4998C177.158 92.3066 176.868 92.2099 176.521 92.2099C176.166 92.2099 175.87 92.3066 175.634 92.4998C175.401 92.6931 175.226 92.9532 175.11 93.28C174.996 93.604 174.939 93.9664 174.939 94.3671C174.939 94.765 174.996 95.1259 175.11 95.4499C175.226 95.7739 175.401 96.0326 175.634 96.2258C175.87 96.4162 176.166 96.5115 176.521 96.5115ZM183.39 97.735C182.876 97.735 182.415 97.6028 182.009 97.3385C181.602 97.0742 181.281 96.6905 181.045 96.1875C180.809 95.6844 180.691 95.0734 180.691 94.3543C180.691 93.6267 180.811 93.0128 181.05 92.5126C181.291 92.0096 181.617 91.6302 182.026 91.3744C182.435 91.1157 182.891 90.9864 183.394 90.9864C183.778 90.9864 184.093 91.0518 184.341 91.1825C184.588 91.3104 184.784 91.4653 184.929 91.6472C185.074 91.8263 185.186 91.9954 185.266 92.1545H185.33V88.889H186.877V97.6199H185.36V96.5882H185.266C185.186 96.7474 185.071 96.9165 184.921 97.0955C184.77 97.2717 184.571 97.4223 184.324 97.5474C184.076 97.6725 183.765 97.735 183.39 97.735ZM183.821 96.4688C184.147 96.4688 184.426 96.3807 184.656 96.2045C184.886 96.0255 185.061 95.7768 185.181 95.4585C185.3 95.1401 185.36 94.7693 185.36 94.3458C185.36 93.9223 185.3 93.5543 185.181 93.2416C185.064 92.929 184.891 92.686 184.66 92.5126C184.433 92.3393 184.153 92.2526 183.821 92.2526C183.477 92.2526 183.19 92.3421 182.959 92.5212C182.729 92.7002 182.556 92.9475 182.439 93.2629C182.323 93.5784 182.265 93.9394 182.265 94.3458C182.265 94.755 182.323 95.1203 182.439 95.4414C182.559 95.7597 182.734 96.0112 182.964 96.196C183.197 96.3779 183.482 96.4688 183.821 96.4688ZM191.421 97.7478C190.764 97.7478 190.197 97.6113 189.72 97.3385C189.245 97.0628 188.88 96.6735 188.624 96.1704C188.368 95.6645 188.24 95.0691 188.24 94.3842C188.24 93.7106 188.368 93.1194 188.624 92.6107C188.883 92.0991 189.244 91.7012 189.707 91.417C190.17 91.13 190.714 90.9864 191.34 90.9864C191.743 90.9864 192.124 91.0518 192.482 91.1825C192.843 91.3104 193.162 91.5094 193.437 91.7794C193.716 92.0494 193.935 92.3933 194.094 92.8111C194.253 93.226 194.332 93.7205 194.332 94.2946V94.7678H188.965V93.7276H192.853C192.85 93.432 192.786 93.1692 192.661 92.9389C192.536 92.7059 192.361 92.5226 192.137 92.389C191.915 92.2554 191.657 92.1886 191.361 92.1886C191.046 92.1886 190.768 92.2654 190.53 92.4188C190.291 92.5695 190.105 92.7684 189.971 93.0157C189.841 93.2601 189.774 93.5287 189.771 93.8214V94.7295C189.771 95.1103 189.841 95.4371 189.98 95.71C190.119 95.98 190.314 96.1875 190.564 96.3324C190.814 96.4745 191.107 96.5456 191.442 96.5456C191.667 96.5456 191.87 96.5143 192.052 96.4518C192.234 96.3864 192.391 96.2912 192.525 96.1661C192.658 96.0411 192.759 95.8862 192.828 95.7015L194.269 95.8635C194.178 96.2443 194.004 96.5768 193.748 96.861C193.495 97.1424 193.171 97.3612 192.776 97.5176C192.381 97.671 191.929 97.7478 191.421 97.7478ZM198.068 97.735C197.554 97.735 197.093 97.6028 196.687 97.3385C196.28 97.0742 195.959 96.6905 195.723 96.1875C195.487 95.6844 195.369 95.0734 195.369 94.3543C195.369 93.6267 195.489 93.0128 195.728 92.5126C195.969 92.0096 196.295 91.6302 196.704 91.3744C197.113 91.1157 197.569 90.9864 198.072 90.9864C198.456 90.9864 198.771 91.0518 199.019 91.1825C199.266 91.3104 199.462 91.4653 199.607 91.6472C199.752 91.8263 199.864 91.9954 199.944 92.1545H200.008V88.889H201.555V97.6199H200.038V96.5882H199.944C199.864 96.7474 199.749 96.9165 199.598 97.0955C199.448 97.2717 199.249 97.4223 199.002 97.5474C198.754 97.6725 198.443 97.735 198.068 97.735ZM198.499 96.4688C198.825 96.4688 199.104 96.3807 199.334 96.2045C199.564 96.0255 199.739 95.7768 199.859 95.4585C199.978 95.1401 200.038 94.7693 200.038 94.3458C200.038 93.9223 199.978 93.5543 199.859 93.2416C199.742 92.929 199.569 92.686 199.338 92.5126C199.111 92.3393 198.831 92.2526 198.499 92.2526C198.155 92.2526 197.868 92.3421 197.637 92.5212C197.407 92.7002 197.234 92.9475 197.117 93.2629C197.001 93.5784 196.943 93.9394 196.943 94.3458C196.943 94.755 197.001 95.1203 197.117 95.4414C197.237 95.7597 197.412 96.0112 197.642 96.196C197.875 96.3779 198.16 96.4688 198.499 96.4688ZM206.246 97.6199V88.889H207.789V92.1545H207.853C207.933 91.9954 208.045 91.8263 208.19 91.6472C208.335 91.4653 208.531 91.3104 208.778 91.1825C209.025 91.0518 209.341 90.9864 209.725 90.9864C210.23 90.9864 210.687 91.1157 211.093 91.3744C211.502 91.6302 211.826 92.0096 212.065 92.5126C212.307 93.0128 212.427 93.6267 212.427 94.3543C212.427 95.0734 212.309 95.6844 212.074 96.1875C211.838 96.6905 211.516 97.0742 211.11 97.3385C210.704 97.6028 210.243 97.735 209.729 97.735C209.354 97.735 209.042 97.6725 208.795 97.5474C208.548 97.4223 208.349 97.2717 208.198 97.0955C208.051 96.9165 207.935 96.7474 207.853 96.5882H207.763V97.6199H206.246ZM207.759 94.3458C207.759 94.7693 207.819 95.1401 207.938 95.4585C208.06 95.7768 208.235 96.0255 208.463 96.2045C208.693 96.3807 208.971 96.4688 209.298 96.4688C209.639 96.4688 209.925 96.3779 210.155 96.196C210.385 96.0112 210.559 95.7597 210.675 95.4414C210.795 95.1203 210.854 94.755 210.854 94.3458C210.854 93.9394 210.796 93.5784 210.679 93.2629C210.563 92.9475 210.39 92.7002 210.159 92.5212C209.929 92.3421 209.642 92.2526 209.298 92.2526C208.969 92.2526 208.689 92.3393 208.458 92.5126C208.228 92.686 208.053 92.929 207.934 93.2416C207.817 93.5543 207.759 93.9223 207.759 94.3458ZM214.476 100.075C214.265 100.075 214.071 100.058 213.892 100.024C213.716 99.993 213.575 99.9561 213.47 99.9134L213.828 98.7112C214.052 98.7766 214.253 98.8079 214.429 98.805C214.605 98.8022 214.76 98.7468 214.894 98.6388C215.03 98.5336 215.145 98.3574 215.239 98.1101L215.371 97.7563L212.996 91.0717H214.634L216.143 96.0169H216.211L217.724 91.0717H219.366L216.744 98.4128C216.622 98.7596 216.46 99.0566 216.258 99.3038C216.056 99.5539 215.809 99.7443 215.516 99.8751C215.226 100.009 214.879 100.075 214.476 100.075ZM222.883 88.889H224.669L226.805 92.7514H226.89L229.026 88.889H230.812L227.636 94.3628V97.6199H226.059V94.3628L222.883 88.889ZM237.713 91.0717L235.381 97.6199H233.676L231.344 91.0717H232.99L234.494 95.9359H234.563L236.072 91.0717H237.713ZM241.457 97.7478C240.801 97.7478 240.234 97.6113 239.756 97.3385C239.282 97.0628 238.916 96.6735 238.661 96.1704C238.405 95.6645 238.277 95.0691 238.277 94.3842C238.277 93.7106 238.405 93.1194 238.661 92.6107C238.919 92.0991 239.28 91.7012 239.743 91.417C240.207 91.13 240.751 90.9864 241.376 90.9864C241.78 90.9864 242.161 91.0518 242.519 91.1825C242.88 91.3104 243.198 91.5094 243.474 91.7794C243.752 92.0494 243.971 92.3933 244.13 92.8111C244.289 93.226 244.369 93.7205 244.369 94.2946V94.7678H239.002V93.7276H242.89C242.887 93.432 242.823 93.1692 242.698 92.9389C242.573 92.7059 242.398 92.5226 242.173 92.389C241.952 92.2554 241.693 92.1886 241.398 92.1886C241.082 92.1886 240.805 92.2654 240.566 92.4188C240.327 92.5695 240.141 92.7684 240.008 93.0157C239.877 93.2601 239.81 93.5287 239.807 93.8214V94.7295C239.807 95.1103 239.877 95.4371 240.016 95.71C240.156 95.98 240.35 96.1875 240.6 96.3324C240.85 96.4745 241.143 96.5456 241.479 96.5456C241.703 96.5456 241.906 96.5143 242.088 96.4518C242.27 96.3864 242.428 96.2912 242.561 96.1661C242.695 96.0411 242.796 95.8862 242.864 95.7015L244.305 95.8635C244.214 96.2443 244.041 96.5768 243.785 96.861C243.532 97.1424 243.208 97.3612 242.813 97.5176C242.418 97.671 241.966 97.7478 241.457 97.7478ZM250.85 92.8025L249.443 92.956C249.403 92.8139 249.334 92.6803 249.234 92.5553C249.138 92.4302 249.007 92.3293 248.842 92.2526C248.677 92.1758 248.475 92.1375 248.237 92.1375C247.915 92.1375 247.645 92.2071 247.427 92.3464C247.211 92.4856 247.104 92.6661 247.107 92.8878C247.104 93.0782 247.174 93.2331 247.316 93.3525C247.461 93.4718 247.699 93.5699 248.032 93.6466L249.149 93.8854C249.769 94.0189 250.229 94.2307 250.53 94.5206C250.834 94.8105 250.988 95.1899 250.991 95.6588C250.988 96.0709 250.867 96.4347 250.628 96.7502C250.392 97.0628 250.064 97.3072 249.643 97.4835C249.223 97.6597 248.74 97.7478 248.194 97.7478C247.393 97.7478 246.747 97.5801 246.259 97.2447C245.77 96.9065 245.478 96.4361 245.385 95.8336L246.889 95.6887C246.958 95.9842 247.103 96.2074 247.324 96.358C247.546 96.5086 247.834 96.5839 248.19 96.5839C248.556 96.5839 248.851 96.5086 249.072 96.358C249.297 96.2074 249.409 96.0212 249.409 95.7995C249.409 95.6119 249.337 95.457 249.192 95.3348C249.049 95.2126 248.828 95.1188 248.527 95.0535L247.41 94.819C246.782 94.6883 246.317 94.468 246.016 94.1582C245.714 93.8456 245.565 93.4505 245.568 92.9731C245.565 92.5695 245.675 92.2199 245.896 91.9243C246.121 91.6259 246.432 91.3957 246.83 91.2337C247.231 91.0688 247.692 90.9864 248.215 90.9864C248.983 90.9864 249.587 91.1498 250.027 91.4767C250.471 91.8035 250.745 92.2455 250.85 92.8025Z" fill="black" fill-opacity="0.85"/>
<path d="M277.245 97.6199V88.889H282.48V89.8269H278.302V92.7769H282.088V93.7148H278.302V97.6199H277.245ZM286.334 97.7563C285.743 97.7563 285.224 97.6156 284.778 97.3342C284.334 97.0529 283.988 96.6592 283.738 96.1534C283.49 95.6475 283.367 95.0563 283.367 94.3799C283.367 93.6978 283.49 93.1024 283.738 92.5936C283.988 92.0849 284.334 91.6898 284.778 91.4085C285.224 91.1271 285.743 90.9864 286.334 90.9864C286.925 90.9864 287.442 91.1271 287.886 91.4085C288.332 91.6898 288.678 92.0849 288.926 92.5936C289.176 93.1024 289.301 93.6978 289.301 94.3799C289.301 95.0563 289.176 95.6475 288.926 96.1534C288.678 96.6592 288.332 97.0529 287.886 97.3342C287.442 97.6156 286.925 97.7563 286.334 97.7563ZM286.334 96.8525C286.783 96.8525 287.152 96.7374 287.442 96.5072C287.732 96.277 287.947 95.9743 288.086 95.5991C288.225 95.224 288.295 94.8176 288.295 94.3799C288.295 93.9422 288.225 93.5344 288.086 93.1564C287.947 92.7784 287.732 92.4728 287.442 92.2398C287.152 92.0067 286.783 91.8902 286.334 91.8902C285.885 91.8902 285.515 92.0067 285.225 92.2398C284.935 92.4728 284.721 92.7784 284.582 93.1564C284.442 93.5344 284.373 93.9422 284.373 94.3799C284.373 94.8176 284.442 95.224 284.582 95.5991C284.721 95.9743 284.935 96.277 285.225 96.5072C285.515 96.7374 285.885 96.8525 286.334 96.8525ZM294.963 94.9426V91.0717H295.97V97.6199H294.963V96.5115H294.895C294.742 96.844 294.503 97.1268 294.179 97.3598C293.855 97.59 293.446 97.7051 292.951 97.7051C292.542 97.7051 292.178 97.6156 291.86 97.4366C291.542 97.2547 291.291 96.9818 291.11 96.618C290.928 96.2514 290.837 95.7896 290.837 95.2325V91.0717H291.843V95.1643C291.843 95.6418 291.976 96.0226 292.244 96.3068C292.514 96.591 292.857 96.7331 293.275 96.7331C293.525 96.7331 293.78 96.6692 294.038 96.5413C294.3 96.4134 294.519 96.2173 294.695 95.953C294.874 95.6887 294.963 95.3519 294.963 94.9426ZM298.818 93.6807V97.6199H297.812V91.0717H298.784V92.0948H298.87C299.023 91.7623 299.256 91.4952 299.569 91.2934C299.881 91.0887 300.285 90.9864 300.779 90.9864C301.223 90.9864 301.611 91.0774 301.943 91.2593C302.276 91.4383 302.534 91.7112 302.719 92.0778C302.904 92.4416 302.996 92.902 302.996 93.459V97.6199H301.99V93.5273C301.99 93.0128 301.857 92.6121 301.589 92.3251C301.322 92.0352 300.956 91.8902 300.49 91.8902C300.168 91.8902 299.881 91.9598 299.628 92.0991C299.378 92.2384 299.181 92.4416 299.036 92.7087C298.891 92.9759 298.818 93.2999 298.818 93.6807ZM307.307 97.7563C306.762 97.7563 306.28 97.6185 305.862 97.3428C305.444 97.0642 305.118 96.672 304.882 96.1661C304.646 95.6574 304.528 95.0563 304.528 94.3628C304.528 93.675 304.646 93.0782 304.882 92.5723C305.118 92.0664 305.446 91.6756 305.866 91.4C306.287 91.1243 306.773 90.9864 307.324 90.9864C307.751 90.9864 308.088 91.0575 308.335 91.1996C308.585 91.3388 308.775 91.498 308.906 91.6771C309.04 91.8533 309.143 91.9982 309.217 92.1119H309.303V88.889H310.309V97.6199H309.337V96.6138H309.217C309.143 96.7331 309.038 96.8838 308.902 97.0657C308.765 97.2447 308.571 97.4053 308.318 97.5474C308.065 97.6867 307.728 97.7563 307.307 97.7563ZM307.444 96.8525C307.847 96.8525 308.188 96.7474 308.467 96.537C308.745 96.3239 308.957 96.0297 309.102 95.6546C309.247 95.2766 309.32 94.8403 309.32 94.3458C309.32 93.8569 309.249 93.4292 309.106 93.0626C308.964 92.6931 308.754 92.4061 308.475 92.2014C308.197 91.994 307.853 91.8902 307.444 91.8902C307.017 91.8902 306.662 91.9996 306.378 92.2185C306.097 92.4345 305.885 92.7286 305.743 93.1009C305.604 93.4704 305.534 93.8854 305.534 94.3458C305.534 94.8119 305.605 95.2354 305.747 95.6162C305.892 95.9942 306.105 96.2955 306.387 96.52C306.671 96.7417 307.023 96.8525 307.444 96.8525ZM314.218 97.7733C313.803 97.7733 313.426 97.6952 313.088 97.5389C312.75 97.3797 312.481 97.1509 312.282 96.8525C312.083 96.5512 311.984 96.1875 311.984 95.7611C311.984 95.386 312.058 95.0819 312.206 94.8488C312.353 94.6129 312.551 94.4282 312.798 94.2946C313.046 94.161 313.318 94.0616 313.617 93.9962C313.918 93.928 314.221 93.874 314.525 93.8342C314.923 93.783 315.245 93.7447 315.493 93.7191C315.743 93.6907 315.925 93.6438 316.038 93.5784C316.155 93.513 316.213 93.3994 316.213 93.2374V93.2033C316.213 92.7826 316.098 92.4558 315.868 92.2227C315.64 91.9897 315.295 91.8732 314.832 91.8732C314.351 91.8732 313.975 91.9783 313.702 92.1886C313.429 92.3989 313.237 92.6235 313.127 92.8622L312.172 92.5212C312.342 92.1233 312.569 91.8135 312.854 91.5918C313.141 91.3673 313.453 91.211 313.792 91.1228C314.133 91.0319 314.468 90.9864 314.798 90.9864C315.008 90.9864 315.25 91.012 315.522 91.0632C315.798 91.1115 316.064 91.2124 316.32 91.3658C316.578 91.5193 316.793 91.751 316.963 92.0607C317.134 92.3705 317.219 92.7855 317.219 93.3056V97.6199H316.213V96.7331H316.162C316.094 96.8752 315.98 97.0273 315.821 97.1893C315.662 97.3513 315.45 97.4891 315.186 97.6028C314.921 97.7165 314.599 97.7733 314.218 97.7733ZM314.371 96.8696C314.769 96.8696 315.105 96.7914 315.377 96.6351C315.653 96.4788 315.861 96.277 316 96.0297C316.142 95.7825 316.213 95.5224 316.213 95.2496V94.3287C316.17 94.3799 316.077 94.4268 315.932 94.4694C315.79 94.5092 315.625 94.5447 315.437 94.576C315.252 94.6044 315.072 94.63 314.896 94.6527C314.722 94.6726 314.582 94.6897 314.474 94.7039C314.212 94.738 313.968 94.7934 313.74 94.8701C313.516 94.944 313.334 95.0563 313.195 95.2069C313.058 95.3547 312.99 95.5565 312.99 95.8123C312.99 96.1619 313.119 96.4262 313.378 96.6052C313.64 96.7815 313.971 96.8696 314.371 96.8696ZM321.903 91.0717V91.9243H318.51V91.0717H321.903ZM319.499 89.5029H320.505V95.7441C320.505 96.0283 320.546 96.2415 320.629 96.3836C320.714 96.5228 320.822 96.6166 320.953 96.6649C321.086 96.7104 321.227 96.7331 321.375 96.7331C321.485 96.7331 321.576 96.7275 321.647 96.7161C321.719 96.7019 321.775 96.6905 321.818 96.682L322.023 97.5858C321.954 97.6113 321.859 97.6369 321.737 97.6625C321.615 97.6909 321.46 97.7051 321.272 97.7051C320.988 97.7051 320.71 97.644 320.437 97.5218C320.167 97.3996 319.942 97.2135 319.763 96.9633C319.587 96.7132 319.499 96.3978 319.499 96.0169V89.5029ZM323.417 97.6199V91.0717H324.423V97.6199H323.417ZM323.928 89.9803C323.732 89.9803 323.563 89.9135 323.421 89.78C323.282 89.6464 323.212 89.4858 323.212 89.2982C323.212 89.1106 323.282 88.9501 323.421 88.8165C323.563 88.6829 323.732 88.6161 323.928 88.6161C324.124 88.6161 324.292 88.6829 324.431 88.8165C324.573 88.9501 324.644 89.1106 324.644 89.2982C324.644 89.4858 324.573 89.6464 324.431 89.78C324.292 89.9135 324.124 89.9803 323.928 89.9803ZM328.926 97.7563C328.335 97.7563 327.816 97.6156 327.37 97.3342C326.926 97.0529 326.58 96.6592 326.329 96.1534C326.082 95.6475 325.959 95.0563 325.959 94.3799C325.959 93.6978 326.082 93.1024 326.329 92.5936C326.58 92.0849 326.926 91.6898 327.37 91.4085C327.816 91.1271 328.335 90.9864 328.926 90.9864C329.517 90.9864 330.034 91.1271 330.478 91.4085C330.924 91.6898 331.27 92.0849 331.518 92.5936C331.768 93.1024 331.893 93.6978 331.893 94.3799C331.893 95.0563 331.768 95.6475 331.518 96.1534C331.27 96.6592 330.924 97.0529 330.478 97.3342C330.034 97.6156 329.517 97.7563 328.926 97.7563ZM328.926 96.8525C329.375 96.8525 329.744 96.7374 330.034 96.5072C330.324 96.277 330.539 95.9743 330.678 95.5991C330.817 95.224 330.887 94.8176 330.887 94.3799C330.887 93.9422 330.817 93.5344 330.678 93.1564C330.539 92.7784 330.324 92.4728 330.034 92.2398C329.744 92.0067 329.375 91.8902 328.926 91.8902C328.477 91.8902 328.107 92.0067 327.817 92.2398C327.527 92.4728 327.313 92.7784 327.174 93.1564C327.034 93.5344 326.965 93.9422 326.965 94.3799C326.965 94.8176 327.034 95.224 327.174 95.5991C327.313 95.9743 327.527 96.277 327.817 96.5072C328.107 96.7374 328.477 96.8525 328.926 96.8525ZM334.435 93.6807V97.6199H333.429V91.0717H334.401V92.0948H334.486C334.639 91.7623 334.872 91.4952 335.185 91.2934C335.498 91.0887 335.901 90.9864 336.396 90.9864C336.839 90.9864 337.227 91.0774 337.56 91.2593C337.892 91.4383 338.151 91.7112 338.336 92.0778C338.52 92.4416 338.613 92.902 338.613 93.459V97.6199H337.607V93.5273C337.607 93.0128 337.473 92.6121 337.206 92.3251C336.939 92.0352 336.572 91.8902 336.106 91.8902C335.785 91.8902 335.498 91.9598 335.245 92.0991C334.995 92.2384 334.797 92.4416 334.652 92.7087C334.507 92.9759 334.435 93.2999 334.435 93.6807ZM342.378 97.7733C341.963 97.7733 341.587 97.6952 341.248 97.5389C340.91 97.3797 340.642 97.1509 340.443 96.8525C340.244 96.5512 340.144 96.1875 340.144 95.7611C340.144 95.386 340.218 95.0819 340.366 94.8488C340.514 94.6129 340.711 94.4282 340.958 94.2946C341.206 94.161 341.479 94.0616 341.777 93.9962C342.078 93.928 342.381 93.874 342.685 93.8342C343.083 93.783 343.405 93.7447 343.653 93.7191C343.903 93.6907 344.085 93.6438 344.198 93.5784C344.315 93.513 344.373 93.3994 344.373 93.2374V93.2033C344.373 92.7826 344.258 92.4558 344.028 92.2227C343.801 91.9897 343.455 91.8732 342.992 91.8732C342.512 91.8732 342.135 91.9783 341.862 92.1886C341.589 92.3989 341.398 92.6235 341.287 92.8622L340.332 92.5212C340.502 92.1233 340.73 91.8135 341.014 91.5918C341.301 91.3673 341.614 91.211 341.952 91.1228C342.293 91.0319 342.628 90.9864 342.958 90.9864C343.168 90.9864 343.41 91.012 343.683 91.0632C343.958 91.1115 344.224 91.2124 344.48 91.3658C344.738 91.5193 344.953 91.751 345.124 92.0607C345.294 92.3705 345.379 92.7855 345.379 93.3056V97.6199H344.373V96.7331H344.322C344.254 96.8752 344.14 97.0273 343.981 97.1893C343.822 97.3513 343.61 97.4891 343.346 97.6028C343.081 97.7165 342.759 97.7733 342.378 97.7733ZM342.532 96.8696C342.929 96.8696 343.265 96.7914 343.538 96.6351C343.813 96.4788 344.021 96.277 344.16 96.0297C344.302 95.7825 344.373 95.5224 344.373 95.2496V94.3287C344.331 94.3799 344.237 94.4268 344.092 94.4694C343.95 94.5092 343.785 94.5447 343.597 94.576C343.413 94.6044 343.232 94.63 343.056 94.6527C342.883 94.6726 342.742 94.6897 342.634 94.7039C342.372 94.738 342.128 94.7934 341.901 94.8701C341.676 94.944 341.494 95.0563 341.355 95.2069C341.218 95.3547 341.15 95.5565 341.15 95.8123C341.15 96.1619 341.28 96.4262 341.538 96.6052C341.8 96.7815 342.131 96.8696 342.532 96.8696ZM348.222 88.889V97.6199H347.216V88.889H348.222ZM353.577 97.6199V88.889H354.583V92.1119H354.669C354.743 91.9982 354.845 91.8533 354.976 91.6771C355.109 91.498 355.3 91.3388 355.547 91.1996C355.797 91.0575 356.135 90.9864 356.562 90.9864C357.113 90.9864 357.599 91.1243 358.02 91.4C358.44 91.6756 358.768 92.0664 359.004 92.5723C359.24 93.0782 359.358 93.675 359.358 94.3628C359.358 95.0563 359.24 95.6574 359.004 96.1661C358.768 96.672 358.442 97.0642 358.024 97.3428C357.606 97.6185 357.124 97.7563 356.579 97.7563C356.158 97.7563 355.821 97.6867 355.568 97.5474C355.315 97.4053 355.121 97.2447 354.984 97.0657C354.848 96.8838 354.743 96.7331 354.669 96.6138H354.549V97.6199H353.577ZM354.566 94.3458C354.566 94.8403 354.639 95.2766 354.784 95.6546C354.929 96.0297 355.14 96.3239 355.419 96.537C355.698 96.7474 356.039 96.8525 356.442 96.8525C356.863 96.8525 357.214 96.7417 357.495 96.52C357.779 96.2955 357.993 95.9942 358.135 95.6162C358.28 95.2354 358.352 94.8119 358.352 94.3458C358.352 93.8854 358.281 93.4704 358.139 93.1009C358 92.7286 357.788 92.4345 357.504 92.2185C357.222 91.9996 356.868 91.8902 356.442 91.8902C356.033 91.8902 355.689 91.994 355.41 92.2014C355.132 92.4061 354.922 92.6931 354.78 93.0626C354.637 93.4292 354.566 93.8569 354.566 94.3458ZM365.024 94.9426V91.0717H366.03V97.6199H365.024V96.5115H364.956C364.802 96.844 364.563 97.1268 364.239 97.3598C363.915 97.59 363.506 97.7051 363.012 97.7051C362.602 97.7051 362.239 97.6156 361.92 97.4366C361.602 97.2547 361.352 96.9818 361.17 96.618C360.988 96.2514 360.897 95.7896 360.897 95.2325V91.0717H361.903V95.1643C361.903 95.6418 362.037 96.0226 362.304 96.3068C362.574 96.591 362.918 96.7331 363.336 96.7331C363.586 96.7331 363.84 96.6692 364.099 96.5413C364.36 96.4134 364.579 96.2173 364.755 95.953C364.934 95.6887 365.024 95.3519 365.024 94.9426ZM367.873 97.6199V91.0717H368.879V97.6199H367.873ZM368.384 89.9803C368.188 89.9803 368.019 89.9135 367.877 89.78C367.738 89.6464 367.668 89.4858 367.668 89.2982C367.668 89.1106 367.738 88.9501 367.877 88.8165C368.019 88.6829 368.188 88.6161 368.384 88.6161C368.58 88.6161 368.748 88.6829 368.887 88.8165C369.029 88.9501 369.1 89.1106 369.1 89.2982C369.1 89.4858 369.029 89.6464 368.887 89.78C368.748 89.9135 368.58 89.9803 368.384 89.9803ZM371.728 88.889V97.6199H370.722V88.889H371.728ZM376.043 97.7563C375.497 97.7563 375.016 97.6185 374.598 97.3428C374.18 97.0642 373.853 96.672 373.617 96.1661C373.381 95.6574 373.263 95.0563 373.263 94.3628C373.263 93.675 373.381 93.0782 373.617 92.5723C373.853 92.0664 374.181 91.6756 374.602 91.4C375.023 91.1243 375.509 90.9864 376.06 90.9864C376.486 90.9864 376.823 91.0575 377.07 91.1996C377.321 91.3388 377.511 91.498 377.642 91.6771C377.775 91.8533 377.879 91.9982 377.953 92.1119H378.038V88.889H379.044V97.6199H378.072V96.6138H377.953C377.879 96.7331 377.774 96.8838 377.637 97.0657C377.501 97.2447 377.306 97.4053 377.053 97.5474C376.8 97.6867 376.464 97.7563 376.043 97.7563ZM376.179 96.8525C376.583 96.8525 376.924 96.7474 377.203 96.537C377.481 96.3239 377.693 96.0297 377.838 95.6546C377.983 95.2766 378.055 94.8403 378.055 94.3458C378.055 93.8569 377.984 93.4292 377.842 93.0626C377.7 92.6931 377.49 92.4061 377.211 92.2014C376.933 91.994 376.589 91.8902 376.179 91.8902C375.753 91.8902 375.398 91.9996 375.114 92.2185C374.832 92.4345 374.621 92.7286 374.478 93.1009C374.339 93.4704 374.27 93.8854 374.27 94.3458C374.27 94.8119 374.341 95.2354 374.483 95.6162C374.628 95.9942 374.841 96.2955 375.122 96.52C375.406 96.7417 375.759 96.8525 376.179 96.8525ZM381.027 97.6199V91.0717H382.033V97.6199H381.027ZM381.538 89.9803C381.342 89.9803 381.173 89.9135 381.031 89.78C380.892 89.6464 380.822 89.4858 380.822 89.2982C380.822 89.1106 380.892 88.9501 381.031 88.8165C381.173 88.6829 381.342 88.6161 381.538 88.6161C381.734 88.6161 381.902 88.6829 382.041 88.8165C382.183 88.9501 382.254 89.1106 382.254 89.2982C382.254 89.4858 382.183 89.6464 382.041 89.78C381.902 89.9135 381.734 89.9803 381.538 89.9803ZM384.882 93.6807V97.6199H383.875V91.0717H384.847V92.0948H384.933C385.086 91.7623 385.319 91.4952 385.632 91.2934C385.945 91.0887 386.348 90.9864 386.843 90.9864C387.286 90.9864 387.674 91.0774 388.006 91.2593C388.339 91.4383 388.598 91.7112 388.782 92.0778C388.967 92.4416 389.059 92.902 389.059 93.459V97.6199H388.053V93.5273C388.053 93.0128 387.92 92.6121 387.653 92.3251C387.385 92.0352 387.019 91.8902 386.553 91.8902C386.232 91.8902 385.945 91.9598 385.692 92.0991C385.441 92.2384 385.244 92.4416 385.099 92.7087C384.954 92.9759 384.882 93.2999 384.882 93.6807ZM393.541 100.212C393.055 100.212 392.637 100.149 392.288 100.024C391.938 99.9021 391.647 99.7401 391.414 99.5383C391.184 99.3393 391 99.1262 390.864 98.8988L391.665 98.3361C391.756 98.4554 391.871 98.5919 392.011 98.7453C392.15 98.9017 392.34 99.0367 392.582 99.1503C392.826 99.2669 393.146 99.3251 393.541 99.3251C394.07 99.3251 394.506 99.1972 394.85 98.9414C395.194 98.6857 395.366 98.2849 395.366 97.7392V96.4091H395.28C395.207 96.5285 395.101 96.6763 394.965 96.8525C394.831 97.0259 394.638 97.1808 394.385 97.3172C394.135 97.4508 393.797 97.5176 393.371 97.5176C392.842 97.5176 392.367 97.3925 391.947 97.1424C391.529 96.8923 391.198 96.5285 390.953 96.051C390.712 95.5736 390.591 94.9938 390.591 94.3117C390.591 93.6409 390.709 93.0569 390.945 92.5595C391.181 92.0593 391.509 91.6728 391.93 91.4C392.35 91.1243 392.836 90.9864 393.388 90.9864C393.814 90.9864 394.152 91.0575 394.402 91.1996C394.655 91.3388 394.848 91.498 394.982 91.6771C395.118 91.8533 395.224 91.9982 395.297 92.1119H395.4V91.0717H396.372V97.8075C396.372 98.3702 396.244 98.8278 395.988 99.1802C395.735 99.5354 395.394 99.7955 394.965 99.9603C394.539 100.128 394.064 100.212 393.541 100.212ZM393.507 96.6138C393.911 96.6138 394.252 96.5214 394.53 96.3367C394.809 96.1519 395.02 95.8862 395.165 95.5395C395.31 95.1927 395.383 94.7778 395.383 94.2946C395.383 93.8228 395.312 93.4065 395.17 93.0455C395.027 92.6846 394.817 92.4018 394.539 92.1972C394.26 91.9925 393.916 91.8902 393.507 91.8902C393.081 91.8902 392.725 91.9982 392.441 92.2142C392.16 92.4302 391.948 92.7201 391.806 93.0839C391.667 93.4477 391.597 93.8513 391.597 94.2946C391.597 94.7494 391.668 95.1515 391.81 95.5011C391.955 95.8478 392.168 96.1207 392.45 96.3196C392.734 96.5157 393.086 96.6138 393.507 96.6138ZM401.726 97.6199V88.889H402.732V92.1119H402.818C402.892 91.9982 402.994 91.8533 403.125 91.6771C403.258 91.498 403.449 91.3388 403.696 91.1996C403.946 91.0575 404.284 90.9864 404.71 90.9864C405.262 90.9864 405.748 91.1243 406.168 91.4C406.589 91.6756 406.917 92.0664 407.153 92.5723C407.389 93.0782 407.507 93.675 407.507 94.3628C407.507 95.0563 407.389 95.6574 407.153 96.1661C406.917 96.672 406.591 97.0642 406.173 97.3428C405.755 97.6185 405.273 97.7563 404.728 97.7563C404.307 97.7563 403.97 97.6867 403.717 97.5474C403.464 97.4053 403.27 97.2447 403.133 97.0657C402.997 96.8838 402.892 96.7331 402.818 96.6138H402.698V97.6199H401.726ZM402.715 94.3458C402.715 94.8403 402.788 95.2766 402.933 95.6546C403.078 96.0297 403.289 96.3239 403.568 96.537C403.846 96.7474 404.188 96.8525 404.591 96.8525C405.012 96.8525 405.363 96.7417 405.644 96.52C405.928 96.2955 406.141 95.9942 406.284 95.6162C406.429 95.2354 406.501 94.8119 406.501 94.3458C406.501 93.8854 406.43 93.4704 406.288 93.1009C406.149 92.7286 405.937 92.4345 405.653 92.2185C405.371 91.9996 405.017 91.8902 404.591 91.8902C404.182 91.8902 403.838 91.994 403.559 92.2014C403.281 92.4061 403.071 92.6931 402.929 93.0626C402.786 93.4292 402.715 93.8569 402.715 94.3458ZM410.052 88.889V97.6199H409.046V88.889H410.052ZM414.555 97.7563C413.964 97.7563 413.445 97.6156 412.999 97.3342C412.556 97.0529 412.209 96.6592 411.959 96.1534C411.712 95.6475 411.588 95.0563 411.588 94.3799C411.588 93.6978 411.712 93.1024 411.959 92.5936C412.209 92.0849 412.556 91.6898 412.999 91.4085C413.445 91.1271 413.964 90.9864 414.555 90.9864C415.146 90.9864 415.664 91.1271 416.107 91.4085C416.553 91.6898 416.9 92.0849 417.147 92.5936C417.397 93.1024 417.522 93.6978 417.522 94.3799C417.522 95.0563 417.397 95.6475 417.147 96.1534C416.9 96.6592 416.553 97.0529 416.107 97.3342C415.664 97.6156 415.146 97.7563 414.555 97.7563ZM414.555 96.8525C415.004 96.8525 415.374 96.7374 415.664 96.5072C415.953 96.277 416.168 95.9743 416.307 95.5991C416.447 95.224 416.516 94.8176 416.516 94.3799C416.516 93.9422 416.447 93.5344 416.307 93.1564C416.168 92.7784 415.953 92.4728 415.664 92.2398C415.374 92.0067 415.004 91.8902 414.555 91.8902C414.106 91.8902 413.737 92.0067 413.447 92.2398C413.157 92.4728 412.942 92.7784 412.803 93.1564C412.664 93.5344 412.594 93.9422 412.594 94.3799C412.594 94.8176 412.664 95.224 412.803 95.5991C412.942 95.9743 413.157 96.277 413.447 96.5072C413.737 96.7374 414.106 96.8525 414.555 96.8525ZM421.718 97.7563C421.104 97.7563 420.576 97.6113 420.132 97.3215C419.689 97.0316 419.348 96.6322 419.109 96.1235C418.871 95.6148 418.751 95.0336 418.751 94.3799C418.751 93.7148 418.873 93.1279 419.118 92.6192C419.365 92.1076 419.709 91.7083 420.149 91.4213C420.593 91.1314 421.11 90.9864 421.701 90.9864C422.162 90.9864 422.577 91.0717 422.946 91.2422C423.316 91.4127 423.618 91.6515 423.854 91.9584C424.09 92.2654 424.236 92.6235 424.293 93.0327H423.287C423.21 92.7343 423.04 92.47 422.776 92.2398C422.514 92.0067 422.162 91.8902 421.718 91.8902C421.326 91.8902 420.982 91.9925 420.687 92.1972C420.394 92.3989 420.165 92.6846 420 93.0541C419.838 93.4207 419.757 93.8513 419.757 94.3458C419.757 94.8517 419.837 95.2922 419.996 95.6674C420.158 96.0425 420.385 96.3338 420.678 96.5413C420.974 96.7488 421.32 96.8525 421.718 96.8525C421.98 96.8525 422.217 96.807 422.43 96.7161C422.643 96.6251 422.824 96.4944 422.972 96.3239C423.119 96.1534 423.225 95.9487 423.287 95.71H424.293C424.236 96.0965 424.096 96.4447 423.871 96.7545C423.649 97.0614 423.355 97.3058 422.989 97.4877C422.625 97.6668 422.201 97.7563 421.718 97.7563ZM426.702 95.2325L426.685 93.9877H426.889L429.754 91.0717H430.999L427.947 94.1582H427.861L426.702 95.2325ZM425.764 97.6199V88.889H426.77V97.6199H425.764ZM429.925 97.6199L427.367 94.3799L428.083 93.6807L431.204 97.6199H429.925ZM436.932 92.5382L436.029 92.794C435.972 92.6434 435.888 92.497 435.777 92.3549C435.669 92.2099 435.521 92.0906 435.334 91.9968C435.146 91.903 434.906 91.8561 434.613 91.8561C434.212 91.8561 433.879 91.9485 433.611 92.1332C433.347 92.3151 433.215 92.5467 433.215 92.8281C433.215 93.0782 433.306 93.2757 433.488 93.4207C433.67 93.5656 433.954 93.6864 434.34 93.783L435.312 94.0218C435.898 94.1639 436.334 94.3813 436.621 94.674C436.908 94.9639 437.052 95.3377 437.052 95.7952C437.052 96.1704 436.944 96.5058 436.728 96.8014C436.515 97.0969 436.216 97.33 435.832 97.5005C435.449 97.671 435.003 97.7563 434.494 97.7563C433.826 97.7563 433.273 97.6113 432.835 97.3215C432.398 97.0316 432.121 96.6081 432.004 96.051L432.959 95.8123C433.05 96.1647 433.222 96.429 433.475 96.6052C433.731 96.7815 434.065 96.8696 434.477 96.8696C434.946 96.8696 435.318 96.7701 435.594 96.5711C435.872 96.3694 436.012 96.1278 436.012 95.8464C436.012 95.619 435.932 95.4286 435.773 95.2751C435.614 95.1188 435.369 95.0023 435.04 94.9256L433.948 94.6698C433.348 94.5277 432.908 94.3074 432.627 94.009C432.348 93.7077 432.209 93.3312 432.209 92.8793C432.209 92.5098 432.313 92.1829 432.52 91.8987C432.73 91.6145 433.016 91.3914 433.377 91.2294C433.741 91.0674 434.153 90.9864 434.613 90.9864C435.261 90.9864 435.77 91.1285 436.139 91.4127C436.512 91.697 436.776 92.0721 436.932 92.5382ZM444.859 91.0717V91.9243H441.329V91.0717H444.859ZM442.386 97.6199V90.1679C442.386 89.7927 442.474 89.4801 442.65 89.23C442.827 88.9799 443.055 88.7923 443.337 88.6673C443.618 88.5422 443.915 88.4797 444.228 88.4797C444.475 88.4797 444.677 88.4996 444.833 88.5394C444.989 88.5792 445.106 88.6161 445.183 88.6502L444.893 89.5199C444.842 89.5029 444.77 89.4815 444.68 89.456C444.591 89.4304 444.475 89.4176 444.33 89.4176C443.997 89.4176 443.757 89.5014 443.609 89.6691C443.465 89.8368 443.392 90.0826 443.392 90.4066V97.6199H442.386ZM448.659 97.7563C448.068 97.7563 447.549 97.6156 447.103 97.3342C446.66 97.0529 446.313 96.6592 446.063 96.1534C445.816 95.6475 445.692 95.0563 445.692 94.3799C445.692 93.6978 445.816 93.1024 446.063 92.5936C446.313 92.0849 446.66 91.6898 447.103 91.4085C447.549 91.1271 448.068 90.9864 448.659 90.9864C449.25 90.9864 449.768 91.1271 450.211 91.4085C450.657 91.6898 451.004 92.0849 451.251 92.5936C451.501 93.1024 451.626 93.6978 451.626 94.3799C451.626 95.0563 451.501 95.6475 451.251 96.1534C451.004 96.6592 450.657 97.0529 450.211 97.3342C449.768 97.6156 449.25 97.7563 448.659 97.7563ZM448.659 96.8525C449.108 96.8525 449.478 96.7374 449.768 96.5072C450.058 96.277 450.272 95.9743 450.411 95.5991C450.551 95.224 450.62 94.8176 450.62 94.3799C450.62 93.9422 450.551 93.5344 450.411 93.1564C450.272 92.7784 450.058 92.4728 449.768 92.2398C449.478 92.0067 449.108 91.8902 448.659 91.8902C448.21 91.8902 447.841 92.0067 447.551 92.2398C447.261 92.4728 447.046 92.7784 446.907 93.1564C446.768 93.5344 446.698 93.9422 446.698 94.3799C446.698 94.8176 446.768 95.224 446.907 95.5991C447.046 95.9743 447.261 96.277 447.551 96.5072C447.841 96.7374 448.21 96.8525 448.659 96.8525ZM453.162 97.6199V91.0717H454.134V92.0607H454.202C454.322 91.7367 454.538 91.4738 454.85 91.2721C455.163 91.0703 455.515 90.9694 455.908 90.9694C455.981 90.9694 456.074 90.9708 456.185 90.9736C456.296 90.9765 456.379 90.9807 456.436 90.9864V92.0096C456.402 92.0011 456.324 91.9883 456.202 91.9712C456.082 91.9513 455.956 91.9414 455.822 91.9414C455.504 91.9414 455.22 92.0082 454.97 92.1417C454.722 92.2725 454.526 92.4544 454.381 92.6874C454.239 92.9176 454.168 93.1805 454.168 93.4761V97.6199H453.162ZM466.871 88.889H467.929V94.6698C467.929 95.2666 467.788 95.7995 467.507 96.2685C467.228 96.7346 466.834 97.1026 466.326 97.3726C465.817 97.6398 465.22 97.7733 464.535 97.7733C463.85 97.7733 463.253 97.6398 462.745 97.3726C462.236 97.1026 461.841 96.7346 461.559 96.2685C461.281 95.7995 461.142 95.2666 461.142 94.6698V88.889H462.199V94.5845C462.199 95.0108 462.293 95.3903 462.48 95.7228C462.668 96.0525 462.935 96.3125 463.282 96.5029C463.631 96.6905 464.049 96.7843 464.535 96.7843C465.021 96.7843 465.439 96.6905 465.788 96.5029C466.138 96.3125 466.405 96.0525 466.59 95.7228C466.778 95.3903 466.871 95.0108 466.871 94.5845V88.889ZM471.097 88.889V97.6199H470.04V88.889H471.097Z" fill="white"/>
</g>
</g>
<defs>
<linearGradient id="paint0_linear_122_20948" x1="81.9157" y1="24.4377" x2="76.6485" y2="15.1243" gradientUnits="userSpaceOnUse">
<stop stop-color="white" stop-opacity="0.4"/>
<stop offset="0.9228" stop-color="white"/>
</linearGradient>
<clipPath id="clip0_122_20948">
<rect width="686" height="120" fill="white"/>
</clipPath>
<clipPath id="clip1_122_20948">
<rect width="686" height="411.6" fill="white" transform="translate(0 -76)"/>
</clipPath>
</defs>
</svg>
