<svg width="686" height="160" viewBox="0 0 686 160" fill="none" xmlns="http://www.w3.org/2000/svg">
<g clip-path="url(#clip0_122_20948)">
<g clip-path="url(#clip1_122_20948)">
<rect width="686" height="411.6" transform="translate(0 -70)" fill="#FE2223"/>
<g opacity="0.2">
<path d="M466.593 335.151C408.824 245.67 412.633 146.868 450.723 72.3C488.812 -2.26801 518.015 -58.8172 519.92 -63.167C521.824 -67.5169 526.268 -70 530.711 -70H674.181C683.069 -70 689.418 -60.6803 684.974 -52.6021C684.974 -52.6021 491.986 325.208 486.907 334.529C483.098 343.85 472.307 343.851 466.593 335.151Z" fill="white"/>
</g>
<path d="M79.1007 31.9871C78.7835 32.3289 78.3078 32.2978 78.0858 31.8939L72.9474 21.7962C72.7571 21.3923 73.0426 20.9261 73.4866 20.9261H80.6549C80.8769 20.9261 81.0989 21.0504 81.1941 21.2679C82.7483 24.406 81.7968 29.1597 79.1007 31.9871Z" fill="url(#paint0_linear_122_20948)"/>
<path d="M82.8757 41.1526C79.9893 36.6785 80.1797 31.7384 82.0827 28.01C83.9858 24.2816 85.4449 21.4541 85.5401 21.2367C85.6352 21.0192 85.8572 20.895 86.0792 20.895H93.2475C93.6915 20.895 94.0088 21.361 93.7868 21.7649C93.7868 21.7649 84.1444 40.6554 83.8907 41.1215C83.7003 41.5875 83.1612 41.5875 82.8757 41.1526Z" fill="white"/>
<path d="M101.07 23.2127H105.601L108.525 29.2932H108.641L111.565 23.2127H116.096L110.6 33.4735V38.18H106.566V33.4735L101.07 23.2127ZM121.513 23.2127L124.583 33.7658H124.7L127.769 23.2127H132.359L127.418 38.18H121.864L116.924 23.2127H121.513ZM133.8 38.18V23.2127H144.587V26.4868H137.863V29.0593H144.032V32.3334H137.863V34.9059H144.558V38.18H133.8ZM154.671 27.89C154.632 27.4028 154.449 27.0227 154.122 26.7499C153.801 26.4771 153.311 26.3406 152.654 26.3406C152.235 26.3406 151.891 26.3918 151.623 26.4941C151.36 26.5916 151.165 26.7255 151.038 26.8961C150.912 27.0666 150.846 27.2615 150.841 27.4807C150.831 27.661 150.863 27.8242 150.936 27.9704C151.014 28.1117 151.136 28.2408 151.302 28.3577C151.467 28.4698 151.679 28.5721 151.937 28.6647C152.196 28.7572 152.502 28.8401 152.858 28.9131L154.086 29.1762C154.914 29.3516 155.623 29.5831 156.213 29.8705C156.802 30.158 157.285 30.4966 157.66 30.8864C158.035 31.2713 158.31 31.7049 158.486 32.1872C158.666 32.6696 158.758 33.1958 158.763 33.7658C158.758 34.75 158.512 35.5831 158.025 36.2652C157.538 36.9473 156.841 37.4662 155.935 37.8219C155.034 38.1776 153.95 38.3554 152.683 38.3554C151.382 38.3554 150.247 38.1629 149.277 37.778C148.312 37.3931 147.562 36.8012 147.026 36.0021C146.495 35.1982 146.227 34.1702 146.222 32.9181H150.081C150.105 33.376 150.22 33.7609 150.425 34.0728C150.629 34.3846 150.917 34.6209 151.287 34.7817C151.662 34.9424 152.108 35.0228 152.624 35.0228C153.058 35.0228 153.421 34.9692 153.713 34.8621C154.006 34.7549 154.227 34.6063 154.378 34.4162C154.529 34.2262 154.607 34.0094 154.612 33.7658C154.607 33.5368 154.532 33.3371 154.386 33.1665C154.244 32.9911 154.01 32.8352 153.684 32.6988C153.358 32.5575 152.917 32.426 152.361 32.3042L150.87 31.9826C149.545 31.6951 148.5 31.2152 147.735 30.5429C146.975 29.8657 146.597 28.9424 146.602 27.7731C146.597 26.823 146.851 25.9923 147.362 25.281C147.879 24.5647 148.593 24.0069 149.504 23.6074C150.42 23.2078 151.47 23.0081 152.654 23.0081C153.862 23.0081 154.907 23.2103 155.789 23.6147C156.671 24.0191 157.35 24.5891 157.828 25.3248C158.31 26.0556 158.554 26.9107 158.559 27.89H154.671Z" fill="white"/>
<path d="M172.632 38.185H168.481V23.2177H172.954C174.357 23.2177 175.558 23.5149 176.557 24.1093C177.556 24.7037 178.321 25.5564 178.852 26.6672C179.388 27.7732 179.653 29.1009 179.648 30.6502C179.643 32.2337 179.366 33.5881 178.815 34.7136C178.265 35.8342 177.468 36.6941 176.425 37.2934C175.383 37.8878 174.118 38.185 172.632 38.185ZM169.395 37.3372H172.596C173.931 37.3372 175.056 37.0717 175.972 36.5406C176.888 36.0047 177.58 35.2373 178.048 34.2385C178.52 33.2398 178.754 32.0436 178.749 30.6502C178.749 29.2763 178.523 28.0996 178.07 27.1203C177.617 26.1361 176.956 25.381 176.089 24.8548C175.227 24.3286 174.17 24.0655 172.917 24.0655H169.395V37.3372ZM187.276 38.4189C186.263 38.4189 185.381 38.1679 184.631 37.6661C183.88 37.1643 183.301 36.4773 182.891 35.6052C182.482 34.7331 182.277 33.7392 182.277 32.6234C182.277 31.5028 182.482 30.504 182.891 29.627C183.306 28.7501 183.873 28.0582 184.594 27.5515C185.315 27.0448 186.139 26.7915 187.064 26.7915C187.693 26.7915 188.287 26.9181 188.848 27.1715C189.413 27.42 189.91 27.7805 190.338 28.2531C190.772 28.7257 191.111 29.2957 191.354 29.9632C191.603 30.6307 191.727 31.381 191.727 32.2142V32.7696H182.84V31.9584H190.835C190.835 31.1447 190.67 30.4115 190.338 29.7586C190.007 29.1057 189.556 28.5868 188.986 28.2019C188.416 27.817 187.776 27.6246 187.064 27.6246C186.319 27.6246 185.654 27.8341 185.069 28.2531C184.489 28.6672 184.029 29.2275 183.688 29.934C183.352 30.6405 183.176 31.4297 183.162 32.3019V32.6673C183.162 33.6027 183.325 34.4432 183.651 35.1886C183.983 35.9292 184.455 36.5163 185.069 36.9499C185.683 37.3787 186.419 37.593 187.276 37.593C187.89 37.593 188.414 37.4907 188.848 37.2861C189.286 37.0766 189.644 36.8232 189.922 36.526C190.2 36.2288 190.409 35.9414 190.55 35.6637L191.362 35.9925C191.191 36.3677 190.926 36.7428 190.565 37.118C190.209 37.4883 189.756 37.7977 189.206 38.0461C188.66 38.2946 188.017 38.4189 187.276 38.4189ZM201.929 29.3786L201.104 29.5978C200.972 29.1886 200.784 28.8353 200.541 28.5381C200.297 28.2409 199.99 28.0119 199.62 27.8511C199.255 27.6855 198.816 27.6027 198.304 27.6027C197.481 27.6027 196.806 27.8073 196.28 28.2166C195.759 28.6258 195.498 29.1593 195.498 29.8171C195.498 30.353 195.676 30.7964 196.032 31.1472C196.387 31.4931 196.93 31.7562 197.661 31.9365L199.386 32.3676C200.273 32.5869 200.94 32.9426 201.389 33.4346C201.837 33.9219 202.061 34.5284 202.061 35.2544C202.061 35.8732 201.893 36.4213 201.557 36.8987C201.22 37.3762 200.755 37.7489 200.161 38.0169C199.571 38.2849 198.884 38.4189 198.1 38.4189C197.052 38.4189 196.192 38.1753 195.52 37.688C194.848 37.1959 194.416 36.4919 194.226 35.576L195.082 35.3567C195.242 36.0875 195.576 36.6454 196.083 37.0303C196.594 37.4103 197.264 37.6003 198.093 37.6003C199.008 37.6003 199.747 37.3835 200.307 36.9499C200.872 36.5163 201.155 35.9609 201.155 35.2836C201.155 34.7672 200.989 34.3311 200.658 33.9755C200.326 33.6198 199.825 33.3591 199.152 33.1935L197.362 32.755C196.446 32.5309 195.759 32.1728 195.301 31.6807C194.843 31.1837 194.614 30.5722 194.614 29.8463C194.614 29.2421 194.772 28.7111 195.089 28.2531C195.406 27.7951 195.842 27.437 196.397 27.1788C196.952 26.9206 197.588 26.7915 198.304 26.7915C199.255 26.7915 200.029 27.0156 200.628 27.4638C201.228 27.912 201.661 28.5503 201.929 29.3786ZM205.191 38.185V26.9595H206.075V38.185H205.191ZM205.636 24.9717C205.442 24.9717 205.271 24.9035 205.125 24.7671C204.984 24.6307 204.913 24.465 204.913 24.2701C204.913 24.0752 204.984 23.9096 205.125 23.7732C205.266 23.6367 205.437 23.5685 205.636 23.5685C205.831 23.5685 205.999 23.6367 206.141 23.7732C206.287 23.9096 206.36 24.0752 206.36 24.2701C206.36 24.465 206.289 24.6307 206.148 24.7671C206.007 24.9035 205.836 24.9717 205.636 24.9717ZM213.858 42.6284C213.161 42.6284 212.535 42.5358 211.98 42.3507C211.425 42.1704 210.952 41.9122 210.562 41.576C210.177 41.2398 209.883 40.8403 209.678 40.3775L210.423 39.939C210.589 40.2995 210.825 40.6211 211.132 40.9037C211.439 41.1862 211.819 41.4079 212.272 41.5687C212.73 41.7295 213.259 41.8099 213.858 41.8099C214.94 41.8099 215.795 41.5297 216.423 40.9694C217.057 40.414 217.373 39.5614 217.373 38.4116V35.6198H217.286C217.115 36.107 216.862 36.5406 216.526 36.9207C216.194 37.2958 215.788 37.5906 215.305 37.805C214.823 38.0193 214.275 38.1265 213.661 38.1265C212.774 38.1265 211.995 37.8975 211.322 37.4396C210.65 36.9816 210.126 36.3384 209.751 35.5102C209.376 34.677 209.188 33.6977 209.188 32.5723C209.188 31.4468 209.371 30.4504 209.736 29.5832C210.107 28.7111 210.628 28.029 211.3 27.5369C211.973 27.0399 212.762 26.7915 213.668 26.7915C214.316 26.7915 214.876 26.9157 215.349 27.1642C215.827 27.4078 216.226 27.7318 216.548 28.1362C216.869 28.5406 217.118 28.9839 217.293 29.4663H217.395V26.9595H218.258V38.4481C218.258 39.3835 218.073 40.1607 217.702 40.7794C217.337 41.3982 216.823 41.861 216.16 42.168C215.503 42.4749 214.735 42.6284 213.858 42.6284ZM213.741 37.3007C214.492 37.3007 215.137 37.1107 215.678 36.7307C216.224 36.3458 216.643 35.8001 216.935 35.0936C217.232 34.3823 217.381 33.5394 217.381 32.565C217.381 31.6198 217.237 30.7744 216.95 30.029C216.662 29.2836 216.246 28.6965 215.7 28.2677C215.154 27.839 214.501 27.6246 213.741 27.6246C212.967 27.6246 212.306 27.8438 211.761 28.2823C211.215 28.716 210.796 29.3055 210.504 30.0509C210.216 30.7964 210.073 31.6344 210.073 32.565C210.073 33.5004 210.219 34.3238 210.511 35.0351C210.803 35.7416 211.222 36.297 211.768 36.7014C212.314 37.1009 212.971 37.3007 213.741 37.3007ZM222.9 30.906V38.185H222.009V26.9595H222.878V28.7354H222.966C223.229 28.1557 223.651 27.6904 224.23 27.3396C224.81 26.9888 225.5 26.8134 226.299 26.8134C227.054 26.8134 227.716 26.9742 228.286 27.2957C228.861 27.6173 229.31 28.0753 229.631 28.6697C229.958 29.2592 230.121 29.9632 230.121 30.7818V38.185H229.229V30.8183C229.229 29.8633 228.944 29.096 228.374 28.5162C227.809 27.9315 227.061 27.6392 226.131 27.6392C225.507 27.6392 224.952 27.7756 224.464 28.0485C223.977 28.3213 223.595 28.7038 223.317 29.1959C223.039 29.6831 222.9 30.2531 222.9 30.906ZM247.997 26.9595C247.919 26.029 247.539 25.2762 246.857 24.7013C246.18 24.1264 245.303 23.8389 244.226 23.8389C243.5 23.8389 242.854 23.9729 242.289 24.2409C241.724 24.5088 241.281 24.8743 240.959 25.3371C240.637 25.8 240.477 26.331 240.477 26.9303C240.477 27.3152 240.55 27.6636 240.696 27.9754C240.847 28.2823 241.059 28.5576 241.332 28.8012C241.605 29.04 241.929 29.2495 242.304 29.4297C242.679 29.61 243.093 29.7683 243.546 29.9048L245.183 30.3871C245.743 30.5576 246.26 30.755 246.732 30.9791C247.21 31.2032 247.624 31.4712 247.975 31.783C248.331 32.0899 248.606 32.4505 248.801 32.8646C249 33.2787 249.1 33.7562 249.1 34.297C249.1 35.0863 248.896 35.7928 248.486 36.4164C248.082 37.04 247.505 37.5321 246.754 37.8927C246.009 38.2483 245.13 38.4262 244.116 38.4262C243.151 38.4262 242.311 38.263 241.595 37.9365C240.883 37.6101 240.321 37.157 239.907 36.5772C239.492 35.9925 239.259 35.3202 239.205 34.5601H240.14C240.189 35.1789 240.387 35.7148 240.732 36.1679C241.083 36.6162 241.549 36.9621 242.128 37.2057C242.708 37.4493 243.371 37.5711 244.116 37.5711C244.92 37.5711 245.629 37.4347 246.243 37.1618C246.857 36.8841 247.337 36.4992 247.683 36.0071C248.028 35.5151 248.201 34.9426 248.201 34.2897C248.201 33.7635 248.077 33.3128 247.829 32.9377C247.58 32.5625 247.212 32.2385 246.725 31.9657C246.243 31.6928 245.644 31.4492 244.927 31.2349L243.181 30.7087C242.011 30.353 241.117 29.8682 240.499 29.2543C239.885 28.6404 239.578 27.8755 239.578 26.9595C239.578 26.1897 239.782 25.5076 240.192 24.9132C240.601 24.314 241.156 23.8438 241.858 23.5027C242.564 23.1617 243.361 22.9912 244.248 22.9912C245.139 22.9912 245.926 23.1641 246.608 23.5101C247.29 23.8511 247.831 24.3213 248.231 24.9205C248.63 25.5149 248.852 26.1946 248.896 26.9595H247.997ZM253.113 42.3945C252.888 42.3945 252.667 42.3702 252.448 42.3215C252.228 42.2727 252.031 42.2094 251.856 42.1314L252.119 41.3495C252.577 41.5249 252.991 41.5882 253.361 41.5395C253.736 41.4908 254.068 41.3202 254.355 41.0279C254.642 40.7356 254.886 40.3068 255.086 39.7417L255.597 38.3385L251.483 26.9595H252.44L256.007 37.0376H256.08L259.646 26.9595H260.604L255.868 40.0924C255.688 40.5992 255.461 41.023 255.188 41.3641C254.915 41.7051 254.603 41.9609 254.253 42.1314C253.907 42.3068 253.527 42.3945 253.113 42.3945ZM270.523 29.3786L269.697 29.5978C269.565 29.1886 269.378 28.8353 269.134 28.5381C268.89 28.2409 268.584 28.0119 268.213 27.8511C267.848 27.6855 267.409 27.6027 266.898 27.6027C266.074 27.6027 265.4 27.8073 264.873 28.2166C264.352 28.6258 264.091 29.1593 264.091 29.8171C264.091 30.353 264.269 30.7964 264.625 31.1472C264.981 31.4931 265.524 31.7562 266.255 31.9365L267.979 32.3676C268.866 32.5869 269.534 32.9426 269.982 33.4346C270.43 33.9219 270.654 34.5284 270.654 35.2544C270.654 35.8732 270.486 36.4213 270.15 36.8987C269.814 37.3762 269.348 37.7489 268.754 38.0169C268.165 38.2849 267.478 38.4189 266.693 38.4189C265.646 38.4189 264.786 38.1753 264.113 37.688C263.441 37.1959 263.01 36.4919 262.82 35.576L263.675 35.3567C263.836 36.0875 264.169 36.6454 264.676 37.0303C265.188 37.4103 265.858 37.6003 266.686 37.6003C267.602 37.6003 268.34 37.3835 268.9 36.9499C269.465 36.5163 269.748 35.9609 269.748 35.2836C269.748 34.7672 269.582 34.3311 269.251 33.9755C268.92 33.6198 268.418 33.3591 267.746 33.1935L265.955 32.755C265.039 32.5309 264.352 32.1728 263.894 31.6807C263.436 31.1837 263.207 30.5722 263.207 29.8463C263.207 29.2421 263.365 28.7111 263.682 28.2531C263.999 27.7951 264.435 27.437 264.99 27.1788C265.546 26.9206 266.182 26.7915 266.898 26.7915C267.848 26.7915 268.622 27.0156 269.222 27.4638C269.821 27.912 270.255 28.5503 270.523 29.3786ZM277.708 26.9595V27.7561H272.805V26.9595H277.708ZM274.464 24.2701H275.348V35.5321C275.348 35.9901 275.436 36.3652 275.611 36.6576C275.791 36.945 276.025 37.1594 276.313 37.3007C276.605 37.4371 276.917 37.5053 277.248 37.5053C277.409 37.5053 277.548 37.4932 277.665 37.4688C277.786 37.4444 277.901 37.4128 278.008 37.3738L278.227 38.185C278.091 38.2337 277.94 38.2751 277.774 38.3092C277.609 38.3482 277.414 38.3677 277.19 38.3677C276.722 38.3677 276.278 38.263 275.859 38.0534C275.445 37.8439 275.109 37.5394 274.851 37.1399C274.593 36.7404 274.464 36.2581 274.464 35.6929V24.2701ZM285.272 38.4189C284.259 38.4189 283.377 38.1679 282.627 37.6661C281.877 37.1643 281.297 36.4773 280.888 35.6052C280.478 34.7331 280.274 33.7392 280.274 32.6234C280.274 31.5028 280.478 30.504 280.888 29.627C281.302 28.7501 281.869 28.0582 282.59 27.5515C283.311 27.0448 284.135 26.7915 285.061 26.7915C285.689 26.7915 286.283 26.9181 286.844 27.1715C287.409 27.42 287.906 27.7805 288.335 28.2531C288.768 28.7257 289.107 29.2957 289.35 29.9632C289.599 30.6307 289.723 31.381 289.723 32.2142V32.7696H280.836V31.9584H288.832C288.832 31.1447 288.666 30.4115 288.335 29.7586C288.003 29.1057 287.553 28.5868 286.983 28.2019C286.413 27.817 285.772 27.6246 285.061 27.6246C284.315 27.6246 283.65 27.8341 283.065 28.2531C282.486 28.6672 282.025 29.2275 281.684 29.934C281.348 30.6405 281.173 31.4297 281.158 32.3019V32.6673C281.158 33.6027 281.321 34.4432 281.648 35.1886C281.979 35.9292 282.452 36.5163 283.065 36.9499C283.679 37.3787 284.415 37.593 285.272 37.593C285.886 37.593 286.41 37.4907 286.844 37.2861C287.282 37.0766 287.64 36.8232 287.918 36.526C288.196 36.2288 288.405 35.9414 288.547 35.6637L289.358 35.9925C289.187 36.3677 288.922 36.7428 288.561 37.118C288.206 37.4883 287.752 37.7977 287.202 38.0461C286.656 38.2946 286.013 38.4189 285.272 38.4189ZM292.793 38.185V26.9595H293.662V28.6551H293.75C293.964 28.0899 294.335 27.6416 294.861 27.3103C295.387 26.979 296.02 26.8134 296.761 26.8134C297.575 26.8134 298.23 27.0083 298.727 27.398C299.229 27.7878 299.589 28.3164 299.809 28.9839H299.889C300.108 28.3262 300.5 27.8 301.066 27.4053C301.636 27.0107 302.337 26.8134 303.17 26.8134C304.257 26.8134 305.085 27.1569 305.655 27.8438C306.23 28.5259 306.518 29.4614 306.518 30.6502V38.185H305.626V30.6502C305.626 29.7147 305.402 28.9791 304.954 28.4431C304.505 27.9072 303.848 27.6392 302.98 27.6392C302.055 27.6392 301.343 27.9291 300.846 28.5089C300.349 29.0887 300.101 29.8268 300.101 30.7233V38.185H299.209V30.5917C299.209 29.7196 298.99 29.0107 298.552 28.465C298.113 27.9145 297.455 27.6392 296.578 27.6392C295.984 27.6392 295.47 27.7756 295.036 28.0485C294.608 28.3213 294.274 28.6965 294.035 29.1739C293.801 29.6514 293.684 30.1995 293.684 30.8183V38.185H292.793Z" fill="white"/>
<path d="M75.7639 91.91V65.7282H85.3519C87.2099 65.7282 88.7482 66.035 89.967 66.6486C91.1857 67.2538 92.0977 68.0762 92.7028 69.116C93.3079 70.1472 93.6105 71.3106 93.6105 72.606C93.6105 73.6969 93.4102 74.6174 93.0096 75.3674C92.609 76.1089 92.0721 76.7055 91.3988 77.1572C90.734 77.6003 90.0011 77.9242 89.2 78.1288V78.3844C90.0693 78.427 90.9173 78.7083 91.744 79.2282C92.5792 79.7395 93.2696 80.4682 93.815 81.4143C94.3605 82.3603 94.6332 83.5109 94.6332 84.866C94.6332 86.204 94.3178 87.4057 93.6872 88.4711C93.065 89.5279 92.1019 90.3674 90.798 90.9895C89.494 91.6032 87.8278 91.91 85.7994 91.91H75.7639ZM79.7142 88.5222H85.4159C87.3079 88.5222 88.663 88.1557 89.4812 87.4228C90.2994 86.6898 90.7085 85.7736 90.7085 84.6742C90.7085 83.8475 90.4997 83.089 90.0821 82.3986C89.6644 81.7083 89.0678 81.1586 88.2923 80.7495C87.5252 80.3404 86.6133 80.1359 85.5565 80.1359H79.7142V88.5222ZM79.7142 77.0549H85.0068C85.8931 77.0549 86.69 76.8844 87.3974 76.5435C88.1133 76.2026 88.6801 75.7253 89.0977 75.1117C89.5238 74.4895 89.7369 73.7566 89.7369 72.9128C89.7369 71.8305 89.3576 70.9228 88.5991 70.1898C87.8406 69.4569 86.6772 69.0904 85.109 69.0904H79.7142V77.0549ZM110.014 74.738H130.93V77.186H110.014V74.738ZM116.746 81.47H118.906V94.394H116.746V81.47ZM122.218 81.47H124.414V94.322H122.218V81.47ZM119.05 61.742H121.642V71.03H119.05V61.742ZM111.13 80.534H129.058V82.874H113.578V94.754H111.13V80.534ZM127.726 80.534H130.174V92.27C130.174 93.422 129.994 94.07 129.274 94.394C128.482 94.826 127.474 94.826 125.854 94.826C125.746 94.178 125.422 93.278 125.098 92.666C126.142 92.702 127.042 92.702 127.33 92.666C127.618 92.666 127.726 92.558 127.726 92.234V80.534ZM119.05 75.53L122.146 76.178C121.462 78.23 120.814 80.534 120.238 82.01L117.934 81.398C118.366 79.742 118.834 77.222 119.05 75.53ZM111.562 63.506H114.082V69.662H127.114V63.506H129.706V72.038H111.562V63.506ZM98.2781 68.906H109.654V71.39H98.2781V68.906ZM102.814 62.138H105.262V70.13H102.814V62.138ZM97.5941 87.446C100.87 86.834 105.658 85.754 110.302 84.746L110.554 87.086C106.234 88.202 101.698 89.282 98.2421 90.11L97.5941 87.446ZM99.0701 73.154L101.158 72.794C101.986 76.502 102.598 81.254 102.634 84.422L100.402 84.782C100.402 81.614 99.8261 76.826 99.0701 73.154ZM106.27 72.47L108.826 73.01C108.142 77.222 107.17 82.802 106.306 86.15L104.29 85.61C105.082 82.226 105.946 76.466 106.27 72.47ZM148.796 65.7282V91.91H144.846V65.7282H148.796ZM162.514 92.3063C160.613 92.3063 158.977 91.8759 157.604 91.0151C156.241 90.1458 155.192 88.9484 154.46 87.4228C153.727 85.8972 153.36 84.1501 153.36 82.1813C153.36 80.187 153.735 78.427 154.485 76.9015C155.235 75.3674 156.292 74.1699 157.656 73.3092C159.019 72.4484 160.626 72.018 162.475 72.018C163.967 72.018 165.296 72.2949 166.464 72.8489C167.631 73.3944 168.573 74.1614 169.289 75.1501C170.014 76.1387 170.444 77.2935 170.58 78.6145H166.86C166.656 77.6941 166.187 76.9015 165.454 76.2367C164.729 75.5719 163.758 75.2395 162.539 75.2395C161.474 75.2395 160.541 75.5208 159.739 76.0833C158.947 76.6373 158.329 77.4299 157.886 78.4611C157.442 79.4839 157.221 80.6941 157.221 82.0918C157.221 83.5236 157.438 84.7594 157.873 85.7992C158.308 86.839 158.921 87.6444 159.714 88.2154C160.515 88.7864 161.457 89.0719 162.539 89.0719C163.264 89.0719 163.92 88.9398 164.508 88.6756C165.104 88.4029 165.603 88.0151 166.004 87.5123C166.413 87.0094 166.698 86.4043 166.86 85.6969H170.58C170.444 86.9668 170.031 88.1003 169.34 89.0975C168.65 90.0947 167.725 90.8788 166.566 91.4498C165.416 92.0208 164.065 92.3063 162.514 92.3063ZM182.939 92.3063C181.098 92.3063 179.492 91.8844 178.12 91.0407C176.748 90.1969 175.682 89.0165 174.924 87.4995C174.165 85.9824 173.786 84.2097 173.786 82.1813C173.786 80.1444 174.165 78.3631 174.924 76.8376C175.682 75.312 176.748 74.1273 178.12 73.2836C179.492 72.4398 181.098 72.018 182.939 72.018C184.78 72.018 186.387 72.4398 187.759 73.2836C189.131 74.1273 190.196 75.312 190.955 76.8376C191.713 78.3631 192.093 80.1444 192.093 82.1813C192.093 84.2097 191.713 85.9824 190.955 87.4995C190.196 89.0165 189.131 90.1969 187.759 91.0407C186.387 91.8844 184.78 92.3063 182.939 92.3063ZM182.952 89.0975C184.145 89.0975 185.134 88.7822 185.918 88.1515C186.702 87.5208 187.282 86.6813 187.657 85.633C188.04 84.5847 188.232 83.4299 188.232 82.1685C188.232 80.9157 188.04 79.7651 187.657 78.7168C187.282 77.66 186.702 76.812 185.918 76.1728C185.134 75.5336 184.145 75.214 182.952 75.214C181.75 75.214 180.753 75.5336 179.961 76.1728C179.177 76.812 178.593 77.66 178.209 78.7168C177.834 79.7651 177.647 80.9157 177.647 82.1685C177.647 83.4299 177.834 84.5847 178.209 85.633C178.593 86.6813 179.177 87.5208 179.961 88.1515C180.753 88.7822 181.75 89.0975 182.952 89.0975ZM200.182 80.2509V91.91H196.359V72.2736H200.028V75.4697H200.271C200.723 74.4299 201.43 73.5947 202.393 72.964C203.365 72.3333 204.588 72.018 206.063 72.018C207.401 72.018 208.572 72.2992 209.578 72.8617C210.584 73.4157 211.364 74.2424 211.918 75.3418C212.472 76.4413 212.749 77.8006 212.749 79.4199V91.91H208.926V79.8802C208.926 78.4569 208.555 77.3447 207.814 76.5435C207.072 75.7339 206.054 75.329 204.759 75.329C203.872 75.329 203.084 75.5208 202.393 75.9043C201.712 76.2878 201.17 76.8503 200.77 77.5918C200.378 78.3248 200.182 79.2111 200.182 80.2509ZM227.137 67.682H239.809V70.202H227.137V67.682ZM226.345 75.998H240.241V78.59H226.345V75.998ZM232.285 62.066H234.877V73.73C234.877 80.066 234.337 88.886 228.037 94.43C227.677 93.89 226.777 92.99 226.129 92.558C232.069 87.662 232.285 79.346 232.285 73.766V62.066ZM234.265 80.318C235.453 81.434 239.521 86.33 240.457 87.482L238.585 89.498C237.397 87.59 233.977 83.162 232.609 81.578L234.265 80.318ZM241.933 63.434H257.161V82.586H254.497V65.81H244.561V82.586H241.933V63.434ZM249.493 81.506H251.905V90.686C251.905 91.658 252.229 91.874 253.093 91.874H255.649C256.801 91.874 257.017 90.938 257.161 85.97C257.773 86.474 258.709 86.834 259.357 86.978C259.069 92.63 258.637 94.034 255.685 94.034H252.769C250.429 94.034 249.493 93.386 249.493 90.974V81.506ZM248.305 68.906H250.825V75.854C250.825 82.01 249.205 89.894 239.737 94.754C239.449 94.25 238.585 93.242 238.045 92.81C247.153 88.166 248.305 81.362 248.305 75.818V68.906ZM277.069 72.434H290.821V75.026H277.069V72.434ZM263.497 92.486C265.873 90.362 269.401 86.654 272.209 83.378L273.721 85.394C271.201 88.49 268.069 91.982 265.369 94.682L263.497 92.486ZM264.973 72.902L266.521 71.174C268.609 72.29 271.597 73.946 273.145 74.954L271.561 76.97C270.085 75.926 267.133 74.126 264.973 72.902ZM262.849 79.778L264.325 77.942C266.449 78.878 269.509 80.318 271.129 81.254L269.617 83.306C268.069 82.334 265.081 80.786 262.849 79.778ZM289.453 72.434H292.153V81.578C292.153 83.054 291.829 83.882 290.605 84.278C289.345 84.71 287.329 84.746 284.269 84.746C284.125 83.954 283.657 82.91 283.225 82.19C285.781 82.262 287.977 82.262 288.661 82.19C289.309 82.19 289.453 82.046 289.453 81.542V72.434ZM275.593 72.434H278.365V89.606C278.365 91.262 278.833 91.622 281.281 91.622C282.469 91.622 288.481 91.622 290.029 91.622C292.153 91.622 292.513 90.794 292.801 86.69C293.449 87.158 294.565 87.59 295.357 87.806C294.961 92.738 294.025 94.178 290.173 94.178C289.165 94.178 282.109 94.178 281.137 94.178C276.889 94.178 275.593 93.278 275.593 89.606V72.434ZM262.885 64.838H294.817V67.358H262.885V64.838ZM270.985 61.706H273.721V70.814H270.985V61.706ZM283.801 61.706H286.537V70.814H283.801V61.706ZM305.833 69.086V71.642H323.905V69.086H305.833ZM305.833 64.766V67.25H323.905V64.766H305.833ZM303.205 62.822H326.569V73.55H303.205V62.822ZM298.921 75.566H330.637V77.798H298.921V75.566ZM314.905 80.066H327.721V82.262H314.905V80.066ZM303.601 80.282H312.493V82.298H303.601V80.282ZM303.601 84.818H312.493V86.834H303.601V84.818ZM318.685 82.082C320.773 87.23 325.381 91.154 331.501 92.666C330.925 93.17 330.205 94.142 329.845 94.79C323.509 92.918 318.865 88.634 316.489 82.73L318.685 82.082ZM326.893 80.066H327.397L327.865 79.958L329.521 80.642C327.145 87.95 321.349 92.45 315.085 94.61C314.797 93.962 314.113 92.99 313.609 92.486C319.369 90.758 324.913 86.546 326.893 80.498V80.066ZM298.597 90.326C302.125 90.038 307.345 89.462 312.421 88.886V91.118C307.561 91.694 302.557 92.306 298.849 92.738L298.597 90.326ZM311.053 76.286H313.645V94.79H311.053V76.286ZM302.017 76.322H304.537V90.974H302.017V76.322ZM342.445 61.814L345.001 62.57C342.841 68.654 339.421 74.774 335.785 78.842C335.497 78.23 334.705 76.826 334.237 76.178C337.549 72.686 340.573 67.286 342.445 61.814ZM338.809 71.354L341.437 68.69L341.509 68.726V94.79H338.809V71.354ZM346.369 66.422H365.017V68.942H346.369V66.422ZM345.613 82.226H365.665V84.782H345.613V82.226ZM344.605 74.126H366.673V76.682H344.605V74.126ZM343.417 90.83H367.393V93.458H343.417V90.83ZM354.217 61.67H356.917V75.638H354.217V61.67ZM354.217 78.086H356.917V92.666H354.217V78.086ZM388.165 88.058L389.497 86.114C394.285 87.842 399.361 90.326 402.313 92.486L400.657 94.574C397.777 92.378 392.953 89.894 388.165 88.058ZM384.241 62.282L386.941 61.454C387.913 62.93 389.029 64.946 389.461 66.242L386.689 67.178C386.257 65.918 385.213 63.794 384.241 62.282ZM372.073 65.774H401.629V73.082H398.857V68.33H374.737V73.082H372.073V65.774ZM386.941 70.13H389.749C389.317 83.486 388.201 91.262 373.261 94.682C373.009 93.962 372.289 92.918 371.713 92.342C385.933 89.354 386.545 82.55 386.941 70.13ZM371.389 82.73H402.457V85.07H371.389V82.73ZM377.473 71.894L379.093 70.166C381.037 71.21 383.341 72.866 384.457 74.126L382.765 76.07C381.685 74.81 379.417 73.046 377.473 71.894ZM373.873 77.474L375.457 75.674C377.509 76.718 379.921 78.41 381.109 79.67L379.489 81.686C378.337 80.39 375.889 78.59 373.873 77.474ZM410.305 65.594V71.966H416.677V65.594H410.305ZM407.929 63.254H419.125V74.306H407.929V63.254ZM412.645 73.118H415.057V89.822H412.645V73.118ZM407.965 77.654H410.197V91.01H407.965V77.654ZM406.165 90.47C409.729 89.714 415.201 88.382 420.457 87.05L420.745 89.426C415.777 90.722 410.557 92.054 406.741 93.026L406.165 90.47ZM413.725 79.49H420.025V81.866H413.725V79.49ZM420.565 68.258L437.917 66.53L438.133 68.87L420.817 70.634L420.565 68.258ZM421.429 73.874L437.233 72.146L437.521 74.414L421.681 76.142L421.429 73.874ZM420.601 79.85L439.141 77.798L439.429 80.138L420.889 82.226L420.601 79.85ZM426.217 61.742H428.953C428.809 78.806 431.725 92.162 436.153 92.162C437.089 92.162 437.485 90.902 437.701 87.122C438.241 87.734 439.141 88.274 439.789 88.526C439.285 93.35 438.421 94.79 435.937 94.79C428.881 94.79 426.325 79.49 426.217 61.742ZM430.789 63.218L432.301 61.598C434.101 62.354 436.369 63.65 437.485 64.658L435.937 66.494C434.821 65.45 432.589 64.118 430.789 63.218ZM435.505 81.686L437.845 82.694C434.209 88.094 427.801 92.27 420.781 94.61C420.421 93.926 419.737 92.99 419.125 92.378C425.929 90.326 432.193 86.51 435.505 81.686ZM444.037 63.974L445.657 62.174C447.817 63.326 450.733 65.054 452.245 66.134L450.553 68.222C449.077 67.07 446.197 65.27 444.037 63.974ZM442.201 73.73L443.713 71.786C445.945 72.758 449.041 74.306 450.625 75.278L449.077 77.474C447.529 76.466 444.469 74.846 442.201 73.73ZM443.281 92.522C445.225 89.678 448.141 84.746 450.265 80.534L452.281 82.298C450.301 86.222 447.709 90.902 445.549 94.358L443.281 92.522ZM459.013 72.758H468.589V75.278H459.013V72.758ZM453.289 63.938H474.601V71.174H471.973V66.53H455.845V71.174H453.289V63.938ZM457.429 72.758H460.057V80.39C460.057 85.142 458.977 91.082 452.857 94.826C452.533 94.25 451.633 93.134 451.093 92.774C456.709 89.318 457.429 84.422 457.429 80.318V72.758ZM467.149 72.758H469.777V90.29C469.777 91.406 469.921 91.586 470.569 91.586C470.857 91.586 472.153 91.586 472.549 91.586C473.305 91.586 473.413 90.614 473.485 85.358C474.097 85.898 475.213 86.366 475.933 86.546C475.717 92.414 475.141 94.106 472.765 94.106C472.297 94.106 470.605 94.106 470.137 94.106C467.833 94.106 467.149 93.314 467.149 90.326V72.758ZM490.009 73.514H509.449V75.962H490.009V73.514ZM499.549 81.578H508.945V84.026H499.549V81.578ZM488.929 66.278H510.601V72.29H507.937V68.69H491.485V72.29H488.929V66.278ZM498.217 61.706H500.989V67.61H498.217V61.706ZM498.289 74.558H500.917V92.234H498.289V74.558ZM493.357 83.774C495.409 90.578 499.693 91.622 505.057 91.622C505.993 91.622 510.421 91.622 511.681 91.622C511.321 92.198 510.925 93.386 510.817 94.106H504.949C498.577 94.106 493.969 92.702 491.593 84.458L493.357 83.774ZM479.965 63.938L481.477 61.958C483.745 62.93 486.517 64.514 487.885 65.738L486.301 68.006C484.969 66.674 482.233 64.982 479.965 63.938ZM478.165 73.694L479.677 71.678C481.909 72.506 484.717 74.054 486.121 75.206L484.573 77.438C483.205 76.25 480.469 74.666 478.165 73.694ZM479.173 92.702C480.937 89.894 483.457 85.106 485.329 80.966L487.453 82.586C485.761 86.438 483.457 91.01 481.549 94.358L479.173 92.702ZM492.025 78.554L494.653 78.842C493.789 85.79 491.917 91.298 488.389 94.934C487.957 94.502 486.805 93.71 486.193 93.35C489.685 90.146 491.341 84.89 492.025 78.554Z" fill="white"/>
<rect x="72.8875" y="114.63" width="189.58" height="22.86" rx="11.43" fill="white"/>
<path d="M86.9973 130.06H84.0386V121.329H87.0569C87.9238 121.329 88.6684 121.504 89.2908 121.853C89.9161 122.2 90.3964 122.699 90.7318 123.35C91.0671 124.001 91.2348 124.779 91.2348 125.686C91.2348 126.595 91.0657 127.377 90.7275 128.031C90.3921 128.684 89.9076 129.186 89.2738 129.536C88.6428 129.885 87.884 130.06 86.9973 130.06ZM85.6203 128.692H86.9205C87.5287 128.692 88.036 128.581 88.4425 128.359C88.8489 128.134 89.1544 127.801 89.359 127.357C89.5637 126.911 89.666 126.354 89.666 125.686C89.666 125.018 89.5637 124.464 89.359 124.023C89.1544 123.58 88.8517 123.249 88.451 123.03C88.0531 122.808 87.5586 122.698 86.9674 122.698H85.6203V128.692ZM95.5683 130.188C94.9118 130.188 94.3448 130.051 93.8673 129.779C93.3927 129.503 93.0275 129.114 92.7717 128.611C92.5159 128.105 92.388 127.509 92.388 126.824C92.388 126.151 92.5159 125.56 92.7717 125.051C93.0303 124.539 93.3913 124.141 93.8545 123.857C94.3178 123.57 94.862 123.427 95.4873 123.427C95.8909 123.427 96.2717 123.492 96.6298 123.623C96.9908 123.751 97.3091 123.949 97.5848 124.219C97.8633 124.489 98.0821 124.833 98.2413 125.251C98.4005 125.666 98.48 126.161 98.48 126.735V127.208H93.1127V126.168H97.0007C96.9979 125.872 96.9339 125.609 96.8089 125.379C96.6838 125.146 96.509 124.963 96.2845 124.829C96.0628 124.696 95.8042 124.629 95.5086 124.629C95.1931 124.629 94.916 124.705 94.6773 124.859C94.4386 125.01 94.2524 125.209 94.1188 125.456C93.9881 125.7 93.9213 125.969 93.9185 126.262V127.17C93.9185 127.55 93.9881 127.877 94.1274 128.15C94.2666 128.42 94.4613 128.628 94.7114 128.773C94.9615 128.915 95.2543 128.986 95.5896 128.986C95.8141 128.986 96.0174 128.954 96.1992 128.892C96.3811 128.827 96.5389 128.731 96.6725 128.606C96.806 128.481 96.9069 128.326 96.9751 128.142L98.4161 128.304C98.3251 128.684 98.1518 129.017 97.896 129.301C97.643 129.583 97.319 129.801 96.924 129.958C96.5289 130.111 96.077 130.188 95.5683 130.188ZM104.961 125.243L103.554 125.396C103.514 125.254 103.445 125.12 103.345 124.995C103.249 124.87 103.118 124.769 102.953 124.693C102.788 124.616 102.586 124.578 102.348 124.578C102.027 124.578 101.757 124.647 101.538 124.786C101.322 124.926 101.215 125.106 101.218 125.328C101.215 125.518 101.285 125.673 101.427 125.793C101.572 125.912 101.811 126.01 102.143 126.087L103.26 126.325C103.88 126.459 104.34 126.671 104.641 126.961C104.945 127.251 105.099 127.63 105.102 128.099C105.099 128.511 104.978 128.875 104.739 129.19C104.503 129.503 104.175 129.747 103.755 129.924C103.334 130.1 102.851 130.188 102.305 130.188C101.504 130.188 100.859 130.02 100.37 129.685C99.8808 129.347 99.5895 128.876 99.4957 128.274L101.001 128.129C101.069 128.424 101.214 128.647 101.435 128.798C101.657 128.949 101.946 129.024 102.301 129.024C102.667 129.024 102.962 128.949 103.183 128.798C103.408 128.647 103.52 128.461 103.52 128.24C103.52 128.052 103.448 127.897 103.303 127.775C103.161 127.653 102.939 127.559 102.638 127.494L101.521 127.259C100.893 127.128 100.428 126.908 100.127 126.598C99.8254 126.286 99.6762 125.891 99.679 125.413C99.6762 125.01 99.7856 124.66 100.007 124.364C100.232 124.066 100.543 123.836 100.941 123.674C101.342 123.509 101.804 123.427 102.326 123.427C103.094 123.427 103.698 123.59 104.138 123.917C104.582 124.244 104.856 124.686 104.961 125.243ZM106.374 130.06V123.512H107.918V130.06H106.374ZM107.15 122.582C106.906 122.582 106.695 122.501 106.519 122.339C106.343 122.175 106.255 121.977 106.255 121.747C106.255 121.514 106.343 121.316 106.519 121.154C106.695 120.989 106.906 120.907 107.15 120.907C107.397 120.907 107.608 120.989 107.781 121.154C107.957 121.316 108.045 121.514 108.045 121.747C108.045 121.977 107.957 122.175 107.781 122.339C107.608 122.501 107.397 122.582 107.15 122.582ZM112.352 132.652C111.798 132.652 111.322 132.577 110.924 132.426C110.526 132.278 110.207 132.079 109.965 131.829C109.723 131.579 109.556 131.302 109.462 130.998L110.852 130.661C110.914 130.789 111.005 130.915 111.125 131.041C111.244 131.168 111.404 131.274 111.606 131.356C111.811 131.441 112.068 131.484 112.378 131.484C112.816 131.484 113.178 131.377 113.465 131.164C113.752 130.954 113.896 130.607 113.896 130.124V128.883H113.819C113.739 129.043 113.623 129.206 113.469 129.374C113.319 129.541 113.118 129.682 112.868 129.796C112.621 129.909 112.31 129.966 111.934 129.966C111.431 129.966 110.975 129.848 110.566 129.612C110.16 129.374 109.836 129.018 109.594 128.547C109.355 128.072 109.236 127.478 109.236 126.765C109.236 126.046 109.355 125.439 109.594 124.944C109.836 124.447 110.161 124.07 110.57 123.814C110.98 123.556 111.436 123.427 111.939 123.427C112.322 123.427 112.638 123.492 112.885 123.623C113.135 123.751 113.334 123.905 113.482 124.087C113.63 124.266 113.742 124.435 113.819 124.595H113.904V123.512H115.426V130.167C115.426 130.726 115.292 131.19 115.025 131.556C114.758 131.923 114.393 132.197 113.93 132.379C113.466 132.561 112.941 132.652 112.352 132.652ZM112.365 128.755C112.692 128.755 112.97 128.676 113.201 128.517C113.431 128.358 113.606 128.129 113.725 127.83C113.844 127.532 113.904 127.174 113.904 126.756C113.904 126.344 113.844 125.983 113.725 125.673C113.608 125.363 113.435 125.123 113.205 124.953C112.978 124.779 112.698 124.693 112.365 124.693C112.021 124.693 111.734 124.782 111.504 124.961C111.274 125.14 111.1 125.386 110.984 125.699C110.867 126.009 110.809 126.361 110.809 126.756C110.809 127.157 110.867 127.508 110.984 127.809C111.103 128.107 111.278 128.341 111.508 128.508C111.741 128.673 112.027 128.755 112.365 128.755ZM118.551 126.223V130.06H117.008V123.512H118.483V124.624H118.559C118.71 124.258 118.95 123.967 119.28 123.751C119.612 123.535 120.023 123.427 120.512 123.427C120.964 123.427 121.357 123.523 121.693 123.716C122.031 123.91 122.293 124.19 122.477 124.556C122.665 124.923 122.757 125.368 122.754 125.891V130.06H121.211V126.129C121.211 125.692 121.097 125.349 120.87 125.102C120.646 124.855 120.334 124.731 119.936 124.731C119.666 124.731 119.426 124.791 119.216 124.91C119.008 125.027 118.845 125.196 118.726 125.417C118.609 125.639 118.551 125.908 118.551 126.223ZM127.222 130.188C126.566 130.188 125.999 130.051 125.521 129.779C125.046 129.503 124.681 129.114 124.425 128.611C124.17 128.105 124.042 127.509 124.042 126.824C124.042 126.151 124.17 125.56 124.425 125.051C124.684 124.539 125.045 124.141 125.508 123.857C125.972 123.57 126.516 123.427 127.141 123.427C127.545 123.427 127.926 123.492 128.284 123.623C128.645 123.751 128.963 123.949 129.239 124.219C129.517 124.489 129.736 124.833 129.895 125.251C130.054 125.666 130.134 126.161 130.134 126.735V127.208H124.767V126.168H128.655C128.652 125.872 128.588 125.609 128.463 125.379C128.338 125.146 128.163 124.963 127.938 124.829C127.717 124.696 127.458 124.629 127.162 124.629C126.847 124.629 126.57 124.705 126.331 124.859C126.092 125.01 125.906 125.209 125.773 125.456C125.642 125.7 125.575 125.969 125.572 126.262V127.17C125.572 127.55 125.642 127.877 125.781 128.15C125.92 128.42 126.115 128.628 126.365 128.773C126.615 128.915 126.908 128.986 127.243 128.986C127.468 128.986 127.671 128.954 127.853 128.892C128.035 128.827 128.193 128.731 128.326 128.606C128.46 128.481 128.561 128.326 128.629 128.142L130.07 128.304C129.979 128.684 129.806 129.017 129.55 129.301C129.297 129.583 128.973 129.801 128.578 129.958C128.183 130.111 127.731 130.188 127.222 130.188ZM133.869 130.175C133.355 130.175 132.895 130.043 132.488 129.779C132.082 129.514 131.761 129.131 131.525 128.628C131.289 128.125 131.171 127.513 131.171 126.794C131.171 126.067 131.29 125.453 131.529 124.953C131.771 124.45 132.096 124.07 132.505 123.814C132.914 123.556 133.371 123.427 133.874 123.427C134.257 123.427 134.573 123.492 134.82 123.623C135.067 123.751 135.263 123.905 135.408 124.087C135.553 124.266 135.666 124.435 135.745 124.595H135.809V121.329H137.357V130.06H135.839V129.028H135.745C135.666 129.187 135.551 129.357 135.4 129.536C135.249 129.712 135.05 129.862 134.803 129.988C134.556 130.113 134.245 130.175 133.869 130.175ZM134.3 128.909C134.627 128.909 134.905 128.821 135.136 128.645C135.366 128.466 135.541 128.217 135.66 127.899C135.779 127.58 135.839 127.209 135.839 126.786C135.839 126.362 135.779 125.994 135.66 125.682C135.543 125.369 135.37 125.126 135.14 124.953C134.912 124.779 134.633 124.693 134.3 124.693C133.956 124.693 133.669 124.782 133.439 124.961C133.209 125.14 133.035 125.388 132.919 125.703C132.802 126.019 132.744 126.379 132.744 126.786C132.744 127.195 132.802 127.56 132.919 127.882C133.038 128.2 133.213 128.451 133.443 128.636C133.676 128.818 133.962 128.909 134.3 128.909ZM143.863 130.192C143.448 130.192 143.075 130.118 142.742 129.97C142.412 129.82 142.151 129.598 141.958 129.305C141.767 129.013 141.672 128.652 141.672 128.223C141.672 127.853 141.74 127.548 141.877 127.306C142.013 127.064 142.199 126.871 142.435 126.726C142.671 126.581 142.937 126.472 143.232 126.398C143.531 126.321 143.839 126.266 144.157 126.232C144.541 126.192 144.852 126.156 145.091 126.125C145.33 126.091 145.503 126.04 145.611 125.972C145.722 125.901 145.777 125.791 145.777 125.643V125.618C145.777 125.297 145.682 125.048 145.492 124.872C145.301 124.696 145.027 124.607 144.669 124.607C144.291 124.607 143.991 124.69 143.769 124.855C143.551 125.02 143.403 125.214 143.326 125.439L141.885 125.234C141.999 124.836 142.186 124.504 142.448 124.237C142.709 123.967 143.029 123.765 143.407 123.631C143.785 123.495 144.203 123.427 144.66 123.427C144.976 123.427 145.29 123.464 145.603 123.537C145.915 123.611 146.201 123.733 146.46 123.904C146.718 124.072 146.926 124.3 147.082 124.59C147.241 124.88 147.321 125.243 147.321 125.677V130.06H145.837V129.16H145.786C145.692 129.342 145.56 129.513 145.389 129.672C145.222 129.828 145.01 129.955 144.754 130.051C144.501 130.145 144.204 130.192 143.863 130.192ZM144.264 129.058C144.574 129.058 144.842 128.997 145.07 128.875C145.297 128.75 145.472 128.585 145.594 128.38C145.719 128.176 145.782 127.953 145.782 127.711V126.939C145.733 126.979 145.651 127.016 145.534 127.05C145.421 127.084 145.293 127.114 145.151 127.14C145.009 127.165 144.868 127.188 144.729 127.208C144.589 127.228 144.469 127.245 144.366 127.259C144.136 127.29 143.93 127.342 143.748 127.413C143.566 127.484 143.423 127.583 143.318 127.711C143.212 127.836 143.16 127.998 143.16 128.197C143.16 128.481 143.264 128.696 143.471 128.841C143.679 128.986 143.943 129.058 144.264 129.058ZM150.416 126.223V130.06H148.872V123.512H150.348V124.624H150.424C150.575 124.258 150.815 123.967 151.145 123.751C151.477 123.535 151.888 123.427 152.377 123.427C152.829 123.427 153.222 123.523 153.558 123.716C153.896 123.91 154.157 124.19 154.342 124.556C154.53 124.923 154.622 125.368 154.619 125.891V130.06H153.076V126.129C153.076 125.692 152.962 125.349 152.735 125.102C152.51 124.855 152.199 124.731 151.801 124.731C151.531 124.731 151.291 124.791 151.081 124.91C150.873 125.027 150.71 125.196 150.591 125.417C150.474 125.639 150.416 125.908 150.416 126.223ZM158.618 130.175C158.104 130.175 157.643 130.043 157.237 129.779C156.83 129.514 156.509 129.131 156.273 128.628C156.037 128.125 155.919 127.513 155.919 126.794C155.919 126.067 156.039 125.453 156.278 124.953C156.519 124.45 156.845 124.07 157.254 123.814C157.663 123.556 158.119 123.427 158.622 123.427C159.006 123.427 159.321 123.492 159.569 123.623C159.816 123.751 160.012 123.905 160.157 124.087C160.302 124.266 160.414 124.435 160.494 124.595H160.558V121.329H162.105V130.06H160.588V129.028H160.494C160.414 129.187 160.299 129.357 160.148 129.536C159.998 129.712 159.799 129.862 159.552 129.988C159.304 130.113 158.993 130.175 158.618 130.175ZM159.049 128.909C159.375 128.909 159.654 128.821 159.884 128.645C160.114 128.466 160.289 128.217 160.409 127.899C160.528 127.58 160.588 127.209 160.588 126.786C160.588 126.362 160.528 125.994 160.409 125.682C160.292 125.369 160.119 125.126 159.888 124.953C159.661 124.779 159.381 124.693 159.049 124.693C158.705 124.693 158.418 124.782 158.187 124.961C157.957 125.14 157.784 125.388 157.667 125.703C157.551 126.019 157.493 126.379 157.493 126.786C157.493 127.195 157.551 127.56 157.667 127.882C157.787 128.2 157.961 128.451 158.192 128.636C158.425 128.818 158.71 128.909 159.049 128.909ZM169.584 130.188C168.93 130.188 168.369 130.044 167.9 129.757C167.434 129.47 167.074 129.074 166.821 128.568C166.571 128.059 166.446 127.474 166.446 126.811C166.446 126.146 166.574 125.56 166.83 125.051C167.086 124.539 167.447 124.141 167.913 123.857C168.382 123.57 168.936 123.427 169.575 123.427C170.107 123.427 170.577 123.525 170.986 123.721C171.399 123.914 171.727 124.188 171.971 124.543C172.216 124.896 172.355 125.308 172.389 125.78H170.914C170.854 125.464 170.712 125.201 170.488 124.991C170.266 124.778 169.969 124.671 169.597 124.671C169.281 124.671 169.004 124.757 168.765 124.927C168.527 125.095 168.34 125.336 168.207 125.652C168.076 125.967 168.011 126.345 168.011 126.786C168.011 127.232 168.076 127.616 168.207 127.937C168.338 128.255 168.521 128.501 168.757 128.674C168.996 128.845 169.275 128.93 169.597 128.93C169.824 128.93 170.027 128.888 170.206 128.802C170.388 128.714 170.54 128.588 170.662 128.423C170.785 128.258 170.868 128.058 170.914 127.822H172.389C172.352 128.285 172.216 128.696 171.98 129.054C171.744 129.409 171.423 129.688 171.016 129.889C170.61 130.088 170.132 130.188 169.584 130.188ZM176.513 130.188C175.873 130.188 175.319 130.047 174.85 129.766C174.381 129.484 174.017 129.091 173.759 128.585C173.503 128.079 173.375 127.488 173.375 126.811C173.375 126.135 173.503 125.542 173.759 125.034C174.017 124.525 174.381 124.13 174.85 123.849C175.319 123.567 175.873 123.427 176.513 123.427C177.152 123.427 177.706 123.567 178.175 123.849C178.644 124.13 179.006 124.525 179.262 125.034C179.521 125.542 179.65 126.135 179.65 126.811C179.65 127.488 179.521 128.079 179.262 128.585C179.006 129.091 178.644 129.484 178.175 129.766C177.706 130.047 177.152 130.188 176.513 130.188ZM176.521 128.952C176.868 128.952 177.158 128.856 177.391 128.666C177.624 128.473 177.797 128.214 177.911 127.89C178.027 127.566 178.086 127.205 178.086 126.807C178.086 126.406 178.027 126.044 177.911 125.72C177.797 125.393 177.624 125.133 177.391 124.94C177.158 124.747 176.868 124.65 176.521 124.65C176.166 124.65 175.87 124.747 175.634 124.94C175.401 125.133 175.226 125.393 175.11 125.72C174.996 126.044 174.939 126.406 174.939 126.807C174.939 127.205 174.996 127.566 175.11 127.89C175.226 128.214 175.401 128.473 175.634 128.666C175.87 128.856 176.166 128.952 176.521 128.952ZM183.39 130.175C182.876 130.175 182.415 130.043 182.009 129.779C181.602 129.514 181.281 129.131 181.045 128.628C180.809 128.125 180.691 127.513 180.691 126.794C180.691 126.067 180.811 125.453 181.05 124.953C181.291 124.45 181.617 124.07 182.026 123.814C182.435 123.556 182.891 123.427 183.394 123.427C183.778 123.427 184.093 123.492 184.341 123.623C184.588 123.751 184.784 123.905 184.929 124.087C185.074 124.266 185.186 124.435 185.266 124.595H185.33V121.329H186.877V130.06H185.36V129.028H185.266C185.186 129.187 185.071 129.357 184.921 129.536C184.77 129.712 184.571 129.862 184.324 129.988C184.076 130.113 183.765 130.175 183.39 130.175ZM183.821 128.909C184.147 128.909 184.426 128.821 184.656 128.645C184.886 128.466 185.061 128.217 185.181 127.899C185.3 127.58 185.36 127.209 185.36 126.786C185.36 126.362 185.3 125.994 185.181 125.682C185.064 125.369 184.891 125.126 184.66 124.953C184.433 124.779 184.153 124.693 183.821 124.693C183.477 124.693 183.19 124.782 182.959 124.961C182.729 125.14 182.556 125.388 182.439 125.703C182.323 126.019 182.265 126.379 182.265 126.786C182.265 127.195 182.323 127.56 182.439 127.882C182.559 128.2 182.734 128.451 182.964 128.636C183.197 128.818 183.482 128.909 183.821 128.909ZM191.421 130.188C190.764 130.188 190.197 130.051 189.72 129.779C189.245 129.503 188.88 129.114 188.624 128.611C188.368 128.105 188.24 127.509 188.24 126.824C188.24 126.151 188.368 125.56 188.624 125.051C188.883 124.539 189.244 124.141 189.707 123.857C190.17 123.57 190.714 123.427 191.34 123.427C191.743 123.427 192.124 123.492 192.482 123.623C192.843 123.751 193.162 123.949 193.437 124.219C193.716 124.489 193.935 124.833 194.094 125.251C194.253 125.666 194.332 126.161 194.332 126.735V127.208H188.965V126.168H192.853C192.85 125.872 192.786 125.609 192.661 125.379C192.536 125.146 192.361 124.963 192.137 124.829C191.915 124.696 191.657 124.629 191.361 124.629C191.046 124.629 190.768 124.705 190.53 124.859C190.291 125.01 190.105 125.209 189.971 125.456C189.841 125.7 189.774 125.969 189.771 126.262V127.17C189.771 127.55 189.841 127.877 189.98 128.15C190.119 128.42 190.314 128.628 190.564 128.773C190.814 128.915 191.107 128.986 191.442 128.986C191.667 128.986 191.87 128.954 192.052 128.892C192.234 128.827 192.391 128.731 192.525 128.606C192.658 128.481 192.759 128.326 192.828 128.142L194.269 128.304C194.178 128.684 194.004 129.017 193.748 129.301C193.495 129.583 193.171 129.801 192.776 129.958C192.381 130.111 191.929 130.188 191.421 130.188ZM198.068 130.175C197.554 130.175 197.093 130.043 196.687 129.779C196.28 129.514 195.959 129.131 195.723 128.628C195.487 128.125 195.369 127.513 195.369 126.794C195.369 126.067 195.489 125.453 195.728 124.953C195.969 124.45 196.295 124.07 196.704 123.814C197.113 123.556 197.569 123.427 198.072 123.427C198.456 123.427 198.771 123.492 199.019 123.623C199.266 123.751 199.462 123.905 199.607 124.087C199.752 124.266 199.864 124.435 199.944 124.595H200.008V121.329H201.555V130.06H200.038V129.028H199.944C199.864 129.187 199.749 129.357 199.598 129.536C199.448 129.712 199.249 129.862 199.002 129.988C198.754 130.113 198.443 130.175 198.068 130.175ZM198.499 128.909C198.825 128.909 199.104 128.821 199.334 128.645C199.564 128.466 199.739 128.217 199.859 127.899C199.978 127.58 200.038 127.209 200.038 126.786C200.038 126.362 199.978 125.994 199.859 125.682C199.742 125.369 199.569 125.126 199.338 124.953C199.111 124.779 198.831 124.693 198.499 124.693C198.155 124.693 197.868 124.782 197.637 124.961C197.407 125.14 197.234 125.388 197.117 125.703C197.001 126.019 196.943 126.379 196.943 126.786C196.943 127.195 197.001 127.56 197.117 127.882C197.237 128.2 197.412 128.451 197.642 128.636C197.875 128.818 198.16 128.909 198.499 128.909ZM206.246 130.06V121.329H207.789V124.595H207.853C207.933 124.435 208.045 124.266 208.19 124.087C208.335 123.905 208.531 123.751 208.778 123.623C209.025 123.492 209.341 123.427 209.725 123.427C210.23 123.427 210.687 123.556 211.093 123.814C211.502 124.07 211.826 124.45 212.065 124.953C212.307 125.453 212.427 126.067 212.427 126.794C212.427 127.513 212.309 128.125 212.074 128.628C211.838 129.131 211.516 129.514 211.11 129.779C210.704 130.043 210.243 130.175 209.729 130.175C209.354 130.175 209.042 130.113 208.795 129.988C208.548 129.862 208.349 129.712 208.198 129.536C208.051 129.357 207.935 129.187 207.853 129.028H207.763V130.06H206.246ZM207.759 126.786C207.759 127.209 207.819 127.58 207.938 127.899C208.06 128.217 208.235 128.466 208.463 128.645C208.693 128.821 208.971 128.909 209.298 128.909C209.639 128.909 209.925 128.818 210.155 128.636C210.385 128.451 210.559 128.2 210.675 127.882C210.795 127.56 210.854 127.195 210.854 126.786C210.854 126.379 210.796 126.019 210.679 125.703C210.563 125.388 210.39 125.14 210.159 124.961C209.929 124.782 209.642 124.693 209.298 124.693C208.969 124.693 208.689 124.779 208.458 124.953C208.228 125.126 208.053 125.369 207.934 125.682C207.817 125.994 207.759 126.362 207.759 126.786ZM214.476 132.516C214.265 132.516 214.071 132.499 213.892 132.464C213.716 132.433 213.575 132.396 213.47 132.354L213.828 131.151C214.052 131.217 214.253 131.248 214.429 131.245C214.605 131.242 214.76 131.187 214.894 131.079C215.03 130.974 215.145 130.798 215.239 130.55L215.371 130.196L212.996 123.512H214.634L216.143 128.457H216.211L217.724 123.512H219.366L216.744 130.853C216.622 131.2 216.46 131.497 216.258 131.744C216.056 131.994 215.809 132.184 215.516 132.315C215.226 132.449 214.879 132.516 214.476 132.516ZM222.883 121.329H224.669L226.805 125.191H226.89L229.026 121.329H230.812L227.636 126.803V130.06H226.059V126.803L222.883 121.329ZM237.713 123.512L235.381 130.06H233.676L231.344 123.512H232.99L234.494 128.376H234.563L236.072 123.512H237.713ZM241.457 130.188C240.801 130.188 240.234 130.051 239.756 129.779C239.282 129.503 238.916 129.114 238.661 128.611C238.405 128.105 238.277 127.509 238.277 126.824C238.277 126.151 238.405 125.56 238.661 125.051C238.919 124.539 239.28 124.141 239.743 123.857C240.207 123.57 240.751 123.427 241.376 123.427C241.78 123.427 242.161 123.492 242.519 123.623C242.88 123.751 243.198 123.949 243.474 124.219C243.752 124.489 243.971 124.833 244.13 125.251C244.289 125.666 244.369 126.161 244.369 126.735V127.208H239.002V126.168H242.89C242.887 125.872 242.823 125.609 242.698 125.379C242.573 125.146 242.398 124.963 242.173 124.829C241.952 124.696 241.693 124.629 241.398 124.629C241.082 124.629 240.805 124.705 240.566 124.859C240.327 125.01 240.141 125.209 240.008 125.456C239.877 125.7 239.81 125.969 239.807 126.262V127.17C239.807 127.55 239.877 127.877 240.016 128.15C240.156 128.42 240.35 128.628 240.6 128.773C240.85 128.915 241.143 128.986 241.479 128.986C241.703 128.986 241.906 128.954 242.088 128.892C242.27 128.827 242.428 128.731 242.561 128.606C242.695 128.481 242.796 128.326 242.864 128.142L244.305 128.304C244.214 128.684 244.041 129.017 243.785 129.301C243.532 129.583 243.208 129.801 242.813 129.958C242.418 130.111 241.966 130.188 241.457 130.188ZM250.85 125.243L249.443 125.396C249.403 125.254 249.334 125.12 249.234 124.995C249.138 124.87 249.007 124.769 248.842 124.693C248.677 124.616 248.475 124.578 248.237 124.578C247.915 124.578 247.645 124.647 247.427 124.786C247.211 124.926 247.104 125.106 247.107 125.328C247.104 125.518 247.174 125.673 247.316 125.793C247.461 125.912 247.699 126.01 248.032 126.087L249.149 126.325C249.769 126.459 250.229 126.671 250.53 126.961C250.834 127.251 250.988 127.63 250.991 128.099C250.988 128.511 250.867 128.875 250.628 129.19C250.392 129.503 250.064 129.747 249.643 129.924C249.223 130.1 248.74 130.188 248.194 130.188C247.393 130.188 246.747 130.02 246.259 129.685C245.77 129.347 245.478 128.876 245.385 128.274L246.889 128.129C246.958 128.424 247.103 128.647 247.324 128.798C247.546 128.949 247.834 129.024 248.19 129.024C248.556 129.024 248.851 128.949 249.072 128.798C249.297 128.647 249.409 128.461 249.409 128.24C249.409 128.052 249.337 127.897 249.192 127.775C249.049 127.653 248.828 127.559 248.527 127.494L247.41 127.259C246.782 127.128 246.317 126.908 246.016 126.598C245.714 126.286 245.565 125.891 245.568 125.413C245.565 125.01 245.675 124.66 245.896 124.364C246.121 124.066 246.432 123.836 246.83 123.674C247.231 123.509 247.692 123.427 248.215 123.427C248.983 123.427 249.587 123.59 250.027 123.917C250.471 124.244 250.745 124.686 250.85 125.243Z" fill="black" fill-opacity="0.85"/>
<path d="M277.245 130.06V121.329H282.48V122.267H278.302V125.217H282.088V126.155H278.302V130.06H277.245ZM286.334 130.196C285.743 130.196 285.224 130.056 284.778 129.774C284.334 129.493 283.988 129.099 283.738 128.593C283.49 128.088 283.367 127.496 283.367 126.82C283.367 126.138 283.49 125.542 283.738 125.034C283.988 124.525 284.334 124.13 284.778 123.849C285.224 123.567 285.743 123.427 286.334 123.427C286.925 123.427 287.442 123.567 287.886 123.849C288.332 124.13 288.678 124.525 288.926 125.034C289.176 125.542 289.301 126.138 289.301 126.82C289.301 127.496 289.176 128.088 288.926 128.593C288.678 129.099 288.332 129.493 287.886 129.774C287.442 130.056 286.925 130.196 286.334 130.196ZM286.334 129.293C286.783 129.293 287.152 129.178 287.442 128.947C287.732 128.717 287.947 128.414 288.086 128.039C288.225 127.664 288.295 127.258 288.295 126.82C288.295 126.382 288.225 125.974 288.086 125.596C287.947 125.218 287.732 124.913 287.442 124.68C287.152 124.447 286.783 124.33 286.334 124.33C285.885 124.33 285.515 124.447 285.225 124.68C284.935 124.913 284.721 125.218 284.582 125.596C284.442 125.974 284.373 126.382 284.373 126.82C284.373 127.258 284.442 127.664 284.582 128.039C284.721 128.414 284.935 128.717 285.225 128.947C285.515 129.178 285.885 129.293 286.334 129.293ZM294.963 127.383V123.512H295.97V130.06H294.963V128.952H294.895C294.742 129.284 294.503 129.567 294.179 129.8C293.855 130.03 293.446 130.145 292.951 130.145C292.542 130.145 292.178 130.056 291.86 129.877C291.542 129.695 291.291 129.422 291.11 129.058C290.928 128.692 290.837 128.23 290.837 127.673V123.512H291.843V127.604C291.843 128.082 291.976 128.463 292.244 128.747C292.514 129.031 292.857 129.173 293.275 129.173C293.525 129.173 293.78 129.109 294.038 128.981C294.3 128.854 294.519 128.657 294.695 128.393C294.874 128.129 294.963 127.792 294.963 127.383ZM298.818 126.121V130.06H297.812V123.512H298.784V124.535H298.87C299.023 124.202 299.256 123.935 299.569 123.733C299.881 123.529 300.285 123.427 300.779 123.427C301.223 123.427 301.611 123.517 301.943 123.699C302.276 123.878 302.534 124.151 302.719 124.518C302.904 124.882 302.996 125.342 302.996 125.899V130.06H301.99V125.967C301.99 125.453 301.857 125.052 301.589 124.765C301.322 124.475 300.956 124.33 300.49 124.33C300.168 124.33 299.881 124.4 299.628 124.539C299.378 124.678 299.181 124.882 299.036 125.149C298.891 125.416 298.818 125.74 298.818 126.121ZM307.307 130.196C306.762 130.196 306.28 130.059 305.862 129.783C305.444 129.504 305.118 129.112 304.882 128.606C304.646 128.098 304.528 127.496 304.528 126.803C304.528 126.115 304.646 125.518 304.882 125.012C305.118 124.507 305.446 124.116 305.866 123.84C306.287 123.564 306.773 123.427 307.324 123.427C307.751 123.427 308.088 123.498 308.335 123.64C308.585 123.779 308.775 123.938 308.906 124.117C309.04 124.293 309.143 124.438 309.217 124.552H309.303V121.329H310.309V130.06H309.337V129.054H309.217C309.143 129.173 309.038 129.324 308.902 129.506C308.765 129.685 308.571 129.845 308.318 129.988C308.065 130.127 307.728 130.196 307.307 130.196ZM307.444 129.293C307.847 129.293 308.188 129.187 308.467 128.977C308.745 128.764 308.957 128.47 309.102 128.095C309.247 127.717 309.32 127.28 309.32 126.786C309.32 126.297 309.249 125.869 309.106 125.503C308.964 125.133 308.754 124.846 308.475 124.642C308.197 124.434 307.853 124.33 307.444 124.33C307.017 124.33 306.662 124.44 306.378 124.659C306.097 124.875 305.885 125.169 305.743 125.541C305.604 125.911 305.534 126.325 305.534 126.786C305.534 127.252 305.605 127.675 305.747 128.056C305.892 128.434 306.105 128.736 306.387 128.96C306.671 129.182 307.023 129.293 307.444 129.293ZM314.218 130.213C313.803 130.213 313.426 130.135 313.088 129.979C312.75 129.82 312.481 129.591 312.282 129.293C312.083 128.991 311.984 128.628 311.984 128.201C311.984 127.826 312.058 127.522 312.206 127.289C312.353 127.053 312.551 126.868 312.798 126.735C313.046 126.601 313.318 126.502 313.617 126.436C313.918 126.368 314.221 126.314 314.525 126.274C314.923 126.223 315.245 126.185 315.493 126.159C315.743 126.131 315.925 126.084 316.038 126.019C316.155 125.953 316.213 125.839 316.213 125.677V125.643C316.213 125.223 316.098 124.896 315.868 124.663C315.64 124.43 315.295 124.313 314.832 124.313C314.351 124.313 313.975 124.418 313.702 124.629C313.429 124.839 313.237 125.064 313.127 125.302L312.172 124.961C312.342 124.563 312.569 124.254 312.854 124.032C313.141 123.807 313.453 123.651 313.792 123.563C314.133 123.472 314.468 123.427 314.798 123.427C315.008 123.427 315.25 123.452 315.522 123.503C315.798 123.552 316.064 123.652 316.32 123.806C316.578 123.959 316.793 124.191 316.963 124.501C317.134 124.811 317.219 125.226 317.219 125.746V130.06H316.213V129.173H316.162C316.094 129.315 315.98 129.467 315.821 129.629C315.662 129.791 315.45 129.929 315.186 130.043C314.921 130.157 314.599 130.213 314.218 130.213ZM314.371 129.31C314.769 129.31 315.105 129.232 315.377 129.075C315.653 128.919 315.861 128.717 316 128.47C316.142 128.223 316.213 127.963 316.213 127.69V126.769C316.17 126.82 316.077 126.867 315.932 126.91C315.79 126.949 315.625 126.985 315.437 127.016C315.252 127.045 315.072 127.07 314.896 127.093C314.722 127.113 314.582 127.13 314.474 127.144C314.212 127.178 313.968 127.234 313.74 127.31C313.516 127.384 313.334 127.496 313.195 127.647C313.058 127.795 312.99 127.997 312.99 128.252C312.99 128.602 313.119 128.866 313.378 129.045C313.64 129.222 313.971 129.31 314.371 129.31ZM321.903 123.512V124.364H318.51V123.512H321.903ZM319.499 121.943H320.505V128.184C320.505 128.468 320.546 128.682 320.629 128.824C320.714 128.963 320.822 129.057 320.953 129.105C321.086 129.151 321.227 129.173 321.375 129.173C321.485 129.173 321.576 129.168 321.647 129.156C321.719 129.142 321.775 129.131 321.818 129.122L322.023 130.026C321.954 130.051 321.859 130.077 321.737 130.103C321.615 130.131 321.46 130.145 321.272 130.145C320.988 130.145 320.71 130.084 320.437 129.962C320.167 129.84 319.942 129.654 319.763 129.403C319.587 129.153 319.499 128.838 319.499 128.457V121.943ZM323.417 130.06V123.512H324.423V130.06H323.417ZM323.928 122.42C323.732 122.42 323.563 122.354 323.421 122.22C323.282 122.087 323.212 121.926 323.212 121.738C323.212 121.551 323.282 121.39 323.421 121.257C323.563 121.123 323.732 121.056 323.928 121.056C324.124 121.056 324.292 121.123 324.431 121.257C324.573 121.39 324.644 121.551 324.644 121.738C324.644 121.926 324.573 122.087 324.431 122.22C324.292 122.354 324.124 122.42 323.928 122.42ZM328.926 130.196C328.335 130.196 327.816 130.056 327.37 129.774C326.926 129.493 326.58 129.099 326.329 128.593C326.082 128.088 325.959 127.496 325.959 126.82C325.959 126.138 326.082 125.542 326.329 125.034C326.58 124.525 326.926 124.13 327.37 123.849C327.816 123.567 328.335 123.427 328.926 123.427C329.517 123.427 330.034 123.567 330.478 123.849C330.924 124.13 331.27 124.525 331.518 125.034C331.768 125.542 331.893 126.138 331.893 126.82C331.893 127.496 331.768 128.088 331.518 128.593C331.27 129.099 330.924 129.493 330.478 129.774C330.034 130.056 329.517 130.196 328.926 130.196ZM328.926 129.293C329.375 129.293 329.744 129.178 330.034 128.947C330.324 128.717 330.539 128.414 330.678 128.039C330.817 127.664 330.887 127.258 330.887 126.82C330.887 126.382 330.817 125.974 330.678 125.596C330.539 125.218 330.324 124.913 330.034 124.68C329.744 124.447 329.375 124.33 328.926 124.33C328.477 124.33 328.107 124.447 327.817 124.68C327.527 124.913 327.313 125.218 327.174 125.596C327.034 125.974 326.965 126.382 326.965 126.82C326.965 127.258 327.034 127.664 327.174 128.039C327.313 128.414 327.527 128.717 327.817 128.947C328.107 129.178 328.477 129.293 328.926 129.293ZM334.435 126.121V130.06H333.429V123.512H334.401V124.535H334.486C334.639 124.202 334.872 123.935 335.185 123.733C335.498 123.529 335.901 123.427 336.396 123.427C336.839 123.427 337.227 123.517 337.56 123.699C337.892 123.878 338.151 124.151 338.336 124.518C338.52 124.882 338.613 125.342 338.613 125.899V130.06H337.607V125.967C337.607 125.453 337.473 125.052 337.206 124.765C336.939 124.475 336.572 124.33 336.106 124.33C335.785 124.33 335.498 124.4 335.245 124.539C334.995 124.678 334.797 124.882 334.652 125.149C334.507 125.416 334.435 125.74 334.435 126.121ZM342.378 130.213C341.963 130.213 341.587 130.135 341.248 129.979C340.91 129.82 340.642 129.591 340.443 129.293C340.244 128.991 340.144 128.628 340.144 128.201C340.144 127.826 340.218 127.522 340.366 127.289C340.514 127.053 340.711 126.868 340.958 126.735C341.206 126.601 341.479 126.502 341.777 126.436C342.078 126.368 342.381 126.314 342.685 126.274C343.083 126.223 343.405 126.185 343.653 126.159C343.903 126.131 344.085 126.084 344.198 126.019C344.315 125.953 344.373 125.839 344.373 125.677V125.643C344.373 125.223 344.258 124.896 344.028 124.663C343.801 124.43 343.455 124.313 342.992 124.313C342.512 124.313 342.135 124.418 341.862 124.629C341.589 124.839 341.398 125.064 341.287 125.302L340.332 124.961C340.502 124.563 340.73 124.254 341.014 124.032C341.301 123.807 341.614 123.651 341.952 123.563C342.293 123.472 342.628 123.427 342.958 123.427C343.168 123.427 343.41 123.452 343.683 123.503C343.958 123.552 344.224 123.652 344.48 123.806C344.738 123.959 344.953 124.191 345.124 124.501C345.294 124.811 345.379 125.226 345.379 125.746V130.06H344.373V129.173H344.322C344.254 129.315 344.14 129.467 343.981 129.629C343.822 129.791 343.61 129.929 343.346 130.043C343.081 130.157 342.759 130.213 342.378 130.213ZM342.532 129.31C342.929 129.31 343.265 129.232 343.538 129.075C343.813 128.919 344.021 128.717 344.16 128.47C344.302 128.223 344.373 127.963 344.373 127.69V126.769C344.331 126.82 344.237 126.867 344.092 126.91C343.95 126.949 343.785 126.985 343.597 127.016C343.413 127.045 343.232 127.07 343.056 127.093C342.883 127.113 342.742 127.13 342.634 127.144C342.372 127.178 342.128 127.234 341.901 127.31C341.676 127.384 341.494 127.496 341.355 127.647C341.218 127.795 341.15 127.997 341.15 128.252C341.15 128.602 341.28 128.866 341.538 129.045C341.8 129.222 342.131 129.31 342.532 129.31ZM348.222 121.329V130.06H347.216V121.329H348.222ZM353.577 130.06V121.329H354.583V124.552H354.669C354.743 124.438 354.845 124.293 354.976 124.117C355.109 123.938 355.3 123.779 355.547 123.64C355.797 123.498 356.135 123.427 356.562 123.427C357.113 123.427 357.599 123.564 358.02 123.84C358.44 124.116 358.768 124.507 359.004 125.012C359.24 125.518 359.358 126.115 359.358 126.803C359.358 127.496 359.24 128.098 359.004 128.606C358.768 129.112 358.442 129.504 358.024 129.783C357.606 130.059 357.124 130.196 356.579 130.196C356.158 130.196 355.821 130.127 355.568 129.988C355.315 129.845 355.121 129.685 354.984 129.506C354.848 129.324 354.743 129.173 354.669 129.054H354.549V130.06H353.577ZM354.566 126.786C354.566 127.28 354.639 127.717 354.784 128.095C354.929 128.47 355.14 128.764 355.419 128.977C355.698 129.187 356.039 129.293 356.442 129.293C356.863 129.293 357.214 129.182 357.495 128.96C357.779 128.736 357.993 128.434 358.135 128.056C358.28 127.675 358.352 127.252 358.352 126.786C358.352 126.325 358.281 125.911 358.139 125.541C358 125.169 357.788 124.875 357.504 124.659C357.222 124.44 356.868 124.33 356.442 124.33C356.033 124.33 355.689 124.434 355.41 124.642C355.132 124.846 354.922 125.133 354.78 125.503C354.637 125.869 354.566 126.297 354.566 126.786ZM365.024 127.383V123.512H366.03V130.06H365.024V128.952H364.956C364.802 129.284 364.563 129.567 364.239 129.8C363.915 130.03 363.506 130.145 363.012 130.145C362.602 130.145 362.239 130.056 361.92 129.877C361.602 129.695 361.352 129.422 361.17 129.058C360.988 128.692 360.897 128.23 360.897 127.673V123.512H361.903V127.604C361.903 128.082 362.037 128.463 362.304 128.747C362.574 129.031 362.918 129.173 363.336 129.173C363.586 129.173 363.84 129.109 364.099 128.981C364.36 128.854 364.579 128.657 364.755 128.393C364.934 128.129 365.024 127.792 365.024 127.383ZM367.873 130.06V123.512H368.879V130.06H367.873ZM368.384 122.42C368.188 122.42 368.019 122.354 367.877 122.22C367.738 122.087 367.668 121.926 367.668 121.738C367.668 121.551 367.738 121.39 367.877 121.257C368.019 121.123 368.188 121.056 368.384 121.056C368.58 121.056 368.748 121.123 368.887 121.257C369.029 121.39 369.1 121.551 369.1 121.738C369.1 121.926 369.029 122.087 368.887 122.22C368.748 122.354 368.58 122.42 368.384 122.42ZM371.728 121.329V130.06H370.722V121.329H371.728ZM376.043 130.196C375.497 130.196 375.016 130.059 374.598 129.783C374.18 129.504 373.853 129.112 373.617 128.606C373.381 128.098 373.263 127.496 373.263 126.803C373.263 126.115 373.381 125.518 373.617 125.012C373.853 124.507 374.181 124.116 374.602 123.84C375.023 123.564 375.509 123.427 376.06 123.427C376.486 123.427 376.823 123.498 377.07 123.64C377.321 123.779 377.511 123.938 377.642 124.117C377.775 124.293 377.879 124.438 377.953 124.552H378.038V121.329H379.044V130.06H378.072V129.054H377.953C377.879 129.173 377.774 129.324 377.637 129.506C377.501 129.685 377.306 129.845 377.053 129.988C376.8 130.127 376.464 130.196 376.043 130.196ZM376.179 129.293C376.583 129.293 376.924 129.187 377.203 128.977C377.481 128.764 377.693 128.47 377.838 128.095C377.983 127.717 378.055 127.28 378.055 126.786C378.055 126.297 377.984 125.869 377.842 125.503C377.7 125.133 377.49 124.846 377.211 124.642C376.933 124.434 376.589 124.33 376.179 124.33C375.753 124.33 375.398 124.44 375.114 124.659C374.832 124.875 374.621 125.169 374.478 125.541C374.339 125.911 374.27 126.325 374.27 126.786C374.27 127.252 374.341 127.675 374.483 128.056C374.628 128.434 374.841 128.736 375.122 128.96C375.406 129.182 375.759 129.293 376.179 129.293ZM381.027 130.06V123.512H382.033V130.06H381.027ZM381.538 122.42C381.342 122.42 381.173 122.354 381.031 122.22C380.892 122.087 380.822 121.926 380.822 121.738C380.822 121.551 380.892 121.39 381.031 121.257C381.173 121.123 381.342 121.056 381.538 121.056C381.734 121.056 381.902 121.123 382.041 121.257C382.183 121.39 382.254 121.551 382.254 121.738C382.254 121.926 382.183 122.087 382.041 122.22C381.902 122.354 381.734 122.42 381.538 122.42ZM384.882 126.121V130.06H383.875V123.512H384.847V124.535H384.933C385.086 124.202 385.319 123.935 385.632 123.733C385.945 123.529 386.348 123.427 386.843 123.427C387.286 123.427 387.674 123.517 388.006 123.699C388.339 123.878 388.598 124.151 388.782 124.518C388.967 124.882 389.059 125.342 389.059 125.899V130.06H388.053V125.967C388.053 125.453 387.92 125.052 387.653 124.765C387.385 124.475 387.019 124.33 386.553 124.33C386.232 124.33 385.945 124.4 385.692 124.539C385.441 124.678 385.244 124.882 385.099 125.149C384.954 125.416 384.882 125.74 384.882 126.121ZM393.541 132.652C393.055 132.652 392.637 132.589 392.288 132.464C391.938 132.342 391.647 132.18 391.414 131.978C391.184 131.779 391 131.566 390.864 131.339L391.665 130.776C391.756 130.896 391.871 131.032 392.011 131.185C392.15 131.342 392.34 131.477 392.582 131.59C392.826 131.707 393.146 131.765 393.541 131.765C394.07 131.765 394.506 131.637 394.85 131.382C395.194 131.126 395.366 130.725 395.366 130.179V128.849H395.28C395.207 128.969 395.101 129.116 394.965 129.293C394.831 129.466 394.638 129.621 394.385 129.757C394.135 129.891 393.797 129.958 393.371 129.958C392.842 129.958 392.367 129.833 391.947 129.583C391.529 129.332 391.198 128.969 390.953 128.491C390.712 128.014 390.591 127.434 390.591 126.752C390.591 126.081 390.709 125.497 390.945 125C391.181 124.499 391.509 124.113 391.93 123.84C392.35 123.564 392.836 123.427 393.388 123.427C393.814 123.427 394.152 123.498 394.402 123.64C394.655 123.779 394.848 123.938 394.982 124.117C395.118 124.293 395.224 124.438 395.297 124.552H395.4V123.512H396.372V130.248C396.372 130.81 396.244 131.268 395.988 131.62C395.735 131.976 395.394 132.236 394.965 132.4C394.539 132.568 394.064 132.652 393.541 132.652ZM393.507 129.054C393.911 129.054 394.252 128.962 394.53 128.777C394.809 128.592 395.02 128.326 395.165 127.98C395.31 127.633 395.383 127.218 395.383 126.735C395.383 126.263 395.312 125.847 395.17 125.486C395.027 125.125 394.817 124.842 394.539 124.637C394.26 124.433 393.916 124.33 393.507 124.33C393.081 124.33 392.725 124.438 392.441 124.654C392.16 124.87 391.948 125.16 391.806 125.524C391.667 125.888 391.597 126.291 391.597 126.735C391.597 127.189 391.668 127.592 391.81 127.941C391.955 128.288 392.168 128.561 392.45 128.76C392.734 128.956 393.086 129.054 393.507 129.054ZM401.726 130.06V121.329H402.732V124.552H402.818C402.892 124.438 402.994 124.293 403.125 124.117C403.258 123.938 403.449 123.779 403.696 123.64C403.946 123.498 404.284 123.427 404.71 123.427C405.262 123.427 405.748 123.564 406.168 123.84C406.589 124.116 406.917 124.507 407.153 125.012C407.389 125.518 407.507 126.115 407.507 126.803C407.507 127.496 407.389 128.098 407.153 128.606C406.917 129.112 406.591 129.504 406.173 129.783C405.755 130.059 405.273 130.196 404.728 130.196C404.307 130.196 403.97 130.127 403.717 129.988C403.464 129.845 403.27 129.685 403.133 129.506C402.997 129.324 402.892 129.173 402.818 129.054H402.698V130.06H401.726ZM402.715 126.786C402.715 127.28 402.788 127.717 402.933 128.095C403.078 128.47 403.289 128.764 403.568 128.977C403.846 129.187 404.188 129.293 404.591 129.293C405.012 129.293 405.363 129.182 405.644 128.96C405.928 128.736 406.141 128.434 406.284 128.056C406.429 127.675 406.501 127.252 406.501 126.786C406.501 126.325 406.43 125.911 406.288 125.541C406.149 125.169 405.937 124.875 405.653 124.659C405.371 124.44 405.017 124.33 404.591 124.33C404.182 124.33 403.838 124.434 403.559 124.642C403.281 124.846 403.071 125.133 402.929 125.503C402.786 125.869 402.715 126.297 402.715 126.786ZM410.052 121.329V130.06H409.046V121.329H410.052ZM414.555 130.196C413.964 130.196 413.445 130.056 412.999 129.774C412.556 129.493 412.209 129.099 411.959 128.593C411.712 128.088 411.588 127.496 411.588 126.82C411.588 126.138 411.712 125.542 411.959 125.034C412.209 124.525 412.556 124.13 412.999 123.849C413.445 123.567 413.964 123.427 414.555 123.427C415.146 123.427 415.664 123.567 416.107 123.849C416.553 124.13 416.9 124.525 417.147 125.034C417.397 125.542 417.522 126.138 417.522 126.82C417.522 127.496 417.397 128.088 417.147 128.593C416.9 129.099 416.553 129.493 416.107 129.774C415.664 130.056 415.146 130.196 414.555 130.196ZM414.555 129.293C415.004 129.293 415.374 129.178 415.664 128.947C415.953 128.717 416.168 128.414 416.307 128.039C416.447 127.664 416.516 127.258 416.516 126.82C416.516 126.382 416.447 125.974 416.307 125.596C416.168 125.218 415.953 124.913 415.664 124.68C415.374 124.447 415.004 124.33 414.555 124.33C414.106 124.33 413.737 124.447 413.447 124.68C413.157 124.913 412.942 125.218 412.803 125.596C412.664 125.974 412.594 126.382 412.594 126.82C412.594 127.258 412.664 127.664 412.803 128.039C412.942 128.414 413.157 128.717 413.447 128.947C413.737 129.178 414.106 129.293 414.555 129.293ZM421.718 130.196C421.104 130.196 420.576 130.051 420.132 129.762C419.689 129.472 419.348 129.072 419.109 128.564C418.871 128.055 418.751 127.474 418.751 126.82C418.751 126.155 418.873 125.568 419.118 125.059C419.365 124.548 419.709 124.148 420.149 123.861C420.593 123.571 421.11 123.427 421.701 123.427C422.162 123.427 422.577 123.512 422.946 123.682C423.316 123.853 423.618 124.092 423.854 124.399C424.09 124.705 424.236 125.064 424.293 125.473H423.287C423.21 125.174 423.04 124.91 422.776 124.68C422.514 124.447 422.162 124.33 421.718 124.33C421.326 124.33 420.982 124.433 420.687 124.637C420.394 124.839 420.165 125.125 420 125.494C419.838 125.861 419.757 126.291 419.757 126.786C419.757 127.292 419.837 127.732 419.996 128.107C420.158 128.483 420.385 128.774 420.678 128.981C420.974 129.189 421.32 129.293 421.718 129.293C421.98 129.293 422.217 129.247 422.43 129.156C422.643 129.065 422.824 128.935 422.972 128.764C423.119 128.593 423.225 128.389 423.287 128.15H424.293C424.236 128.537 424.096 128.885 423.871 129.195C423.649 129.502 423.355 129.746 422.989 129.928C422.625 130.107 422.201 130.196 421.718 130.196ZM426.702 127.673L426.685 126.428H426.889L429.754 123.512H430.999L427.947 126.598H427.861L426.702 127.673ZM425.764 130.06V121.329H426.77V130.06H425.764ZM429.925 130.06L427.367 126.82L428.083 126.121L431.204 130.06H429.925ZM436.932 124.978L436.029 125.234C435.972 125.083 435.888 124.937 435.777 124.795C435.669 124.65 435.521 124.531 435.334 124.437C435.146 124.343 434.906 124.296 434.613 124.296C434.212 124.296 433.879 124.389 433.611 124.573C433.347 124.755 433.215 124.987 433.215 125.268C433.215 125.518 433.306 125.716 433.488 125.861C433.67 126.006 433.954 126.127 434.34 126.223L435.312 126.462C435.898 126.604 436.334 126.821 436.621 127.114C436.908 127.404 437.052 127.778 437.052 128.235C437.052 128.611 436.944 128.946 436.728 129.241C436.515 129.537 436.216 129.77 435.832 129.941C435.449 130.111 435.003 130.196 434.494 130.196C433.826 130.196 433.273 130.051 432.835 129.762C432.398 129.472 432.121 129.048 432.004 128.491L432.959 128.252C433.05 128.605 433.222 128.869 433.475 129.045C433.731 129.222 434.065 129.31 434.477 129.31C434.946 129.31 435.318 129.21 435.594 129.011C435.872 128.809 436.012 128.568 436.012 128.287C436.012 128.059 435.932 127.869 435.773 127.715C435.614 127.559 435.369 127.442 435.04 127.366L433.948 127.11C433.348 126.968 432.908 126.748 432.627 126.449C432.348 126.148 432.209 125.771 432.209 125.319C432.209 124.95 432.313 124.623 432.52 124.339C432.73 124.055 433.016 123.832 433.377 123.67C433.741 123.508 434.153 123.427 434.613 123.427C435.261 123.427 435.77 123.569 436.139 123.853C436.512 124.137 436.776 124.512 436.932 124.978ZM444.859 123.512V124.364H441.329V123.512H444.859ZM442.386 130.06V122.608C442.386 122.233 442.474 121.92 442.65 121.67C442.827 121.42 443.055 121.232 443.337 121.107C443.618 120.982 443.915 120.92 444.228 120.92C444.475 120.92 444.677 120.94 444.833 120.98C444.989 121.019 445.106 121.056 445.183 121.09L444.893 121.96C444.842 121.943 444.77 121.922 444.68 121.896C444.591 121.871 444.475 121.858 444.33 121.858C443.997 121.858 443.757 121.942 443.609 122.109C443.465 122.277 443.392 122.523 443.392 122.847V130.06H442.386ZM448.659 130.196C448.068 130.196 447.549 130.056 447.103 129.774C446.66 129.493 446.313 129.099 446.063 128.593C445.816 128.088 445.692 127.496 445.692 126.82C445.692 126.138 445.816 125.542 446.063 125.034C446.313 124.525 446.66 124.13 447.103 123.849C447.549 123.567 448.068 123.427 448.659 123.427C449.25 123.427 449.768 123.567 450.211 123.849C450.657 124.13 451.004 124.525 451.251 125.034C451.501 125.542 451.626 126.138 451.626 126.82C451.626 127.496 451.501 128.088 451.251 128.593C451.004 129.099 450.657 129.493 450.211 129.774C449.768 130.056 449.25 130.196 448.659 130.196ZM448.659 129.293C449.108 129.293 449.478 129.178 449.768 128.947C450.058 128.717 450.272 128.414 450.411 128.039C450.551 127.664 450.62 127.258 450.62 126.82C450.62 126.382 450.551 125.974 450.411 125.596C450.272 125.218 450.058 124.913 449.768 124.68C449.478 124.447 449.108 124.33 448.659 124.33C448.21 124.33 447.841 124.447 447.551 124.68C447.261 124.913 447.046 125.218 446.907 125.596C446.768 125.974 446.698 126.382 446.698 126.82C446.698 127.258 446.768 127.664 446.907 128.039C447.046 128.414 447.261 128.717 447.551 128.947C447.841 129.178 448.21 129.293 448.659 129.293ZM453.162 130.06V123.512H454.134V124.501H454.202C454.322 124.177 454.538 123.914 454.85 123.712C455.163 123.51 455.515 123.409 455.908 123.409C455.981 123.409 456.074 123.411 456.185 123.414C456.296 123.417 456.379 123.421 456.436 123.427V124.45C456.402 124.441 456.324 124.428 456.202 124.411C456.082 124.391 455.956 124.381 455.822 124.381C455.504 124.381 455.22 124.448 454.97 124.582C454.722 124.713 454.526 124.894 454.381 125.128C454.239 125.358 454.168 125.621 454.168 125.916V130.06H453.162ZM466.871 121.329H467.929V127.11C467.929 127.707 467.788 128.24 467.507 128.709C467.228 129.175 466.834 129.543 466.326 129.813C465.817 130.08 465.22 130.213 464.535 130.213C463.85 130.213 463.253 130.08 462.745 129.813C462.236 129.543 461.841 129.175 461.559 128.709C461.281 128.24 461.142 127.707 461.142 127.11V121.329H462.199V127.025C462.199 127.451 462.293 127.83 462.48 128.163C462.668 128.493 462.935 128.753 463.282 128.943C463.631 129.131 464.049 129.224 464.535 129.224C465.021 129.224 465.439 129.131 465.788 128.943C466.138 128.753 466.405 128.493 466.59 128.163C466.778 127.83 466.871 127.451 466.871 127.025V121.329ZM471.097 121.329V130.06H470.04V121.329H471.097Z" fill="white"/>
</g>
</g>
<defs>
<linearGradient id="paint0_linear_122_20948" x1="81.9157" y1="30.4378" x2="76.6485" y2="21.1244" gradientUnits="userSpaceOnUse">
<stop stop-color="white" stop-opacity="0.4"/>
<stop offset="0.9228" stop-color="white"/>
</linearGradient>
<clipPath id="clip0_122_20948">
<rect width="686" height="160" fill="white"/>
</clipPath>
<clipPath id="clip1_122_20948">
<rect width="686" height="411.6" fill="white" transform="translate(0 -70)"/>
</clipPath>
</defs>
</svg>
