<svg width="686" height="120" viewBox="0 0 686 120" fill="none" xmlns="http://www.w3.org/2000/svg">
<g clip-path="url(#clip0_122_20948)">
<g clip-path="url(#clip1_122_20948)">
<rect width="686" height="411.6" transform="translate(0 -76)" fill="#FE2223"/>
<g opacity="0.2">
<path d="M466.593 329.151C408.824 239.67 412.633 140.868 450.723 66.3002C488.812 -8.26788 518.015 -64.8171 519.92 -69.1669C521.824 -73.5167 526.268 -75.9999 530.711 -75.9999H674.181C683.069 -75.9999 689.418 -66.6801 684.974 -58.6019C684.974 -58.6019 491.986 319.208 486.907 328.529C483.098 337.85 472.307 337.851 466.593 329.151Z" fill="white"/>
</g>
<path d="M79.1007 25.9869C78.7835 26.3287 78.3078 26.2977 78.0858 25.8938L72.9474 15.796C72.7571 15.3921 73.0426 14.926 73.4866 14.926H80.6549C80.8769 14.926 81.0989 15.0503 81.1941 15.2678C82.7483 18.4058 81.7968 23.1596 79.1007 25.9869Z" fill="url(#paint0_linear_122_20948)"/>
<path d="M82.8757 35.1524C79.9893 30.6783 80.1797 25.7383 82.0827 22.0099C83.9858 18.2815 85.4449 15.454 85.5401 15.2365C85.6352 15.019 85.8572 14.8949 86.0792 14.8949H93.2475C93.6915 14.8949 94.0088 15.3608 93.7868 15.7648C93.7868 15.7648 84.1444 34.6553 83.8907 35.1213C83.7003 35.5874 83.1612 35.5874 82.8757 35.1524Z" fill="white"/>
<path d="M101.07 17.2127H105.601L108.525 23.2931H108.641L111.565 17.2127H116.096L110.6 27.4734V32.1799H106.566V27.4734L101.07 17.2127ZM121.513 17.2127L124.583 27.7658H124.7L127.769 17.2127H132.359L127.418 32.1799H121.864L116.924 17.2127H121.513ZM133.8 32.1799V17.2127H144.587V20.4867H137.863V23.0592H144.032V26.3333H137.863V28.9058H144.558V32.1799H133.8ZM154.671 21.8899C154.632 21.4027 154.449 21.0227 154.122 20.7498C153.801 20.477 153.311 20.3406 152.654 20.3406C152.235 20.3406 151.891 20.3917 151.623 20.4941C151.36 20.5915 151.165 20.7255 151.038 20.896C150.912 21.0665 150.846 21.2614 150.841 21.4807C150.831 21.6609 150.863 21.8242 150.936 21.9703C151.014 22.1116 151.136 22.2407 151.302 22.3577C151.467 22.4697 151.679 22.572 151.937 22.6646C152.196 22.7572 152.502 22.84 152.858 22.9131L154.086 23.1762C154.914 23.3516 155.623 23.583 156.213 23.8705C156.802 24.1579 157.285 24.4965 157.66 24.8863C158.035 25.2712 158.31 25.7048 158.486 26.1872C158.666 26.6695 158.758 27.1957 158.763 27.7658C158.758 28.7499 158.512 29.5831 158.025 30.2652C157.538 30.9473 156.841 31.4662 155.935 31.8218C155.034 32.1775 153.95 32.3553 152.683 32.3553C151.382 32.3553 150.247 32.1629 149.277 31.778C148.312 31.3931 147.562 30.8011 147.026 30.0021C146.495 29.1982 146.227 28.1701 146.222 26.918H150.081C150.105 27.376 150.22 27.7609 150.425 28.0727C150.629 28.3845 150.917 28.6208 151.287 28.7816C151.662 28.9424 152.108 29.0228 152.624 29.0228C153.058 29.0228 153.421 28.9692 153.713 28.862C154.006 28.7548 154.227 28.6062 154.378 28.4162C154.529 28.2262 154.607 28.0094 154.612 27.7658C154.607 27.5368 154.532 27.337 154.386 27.1665C154.244 26.9911 154.01 26.8352 153.684 26.6988C153.358 26.5575 152.917 26.4259 152.361 26.3041L150.87 25.9825C149.545 25.6951 148.5 25.2152 147.735 24.5428C146.975 23.8656 146.597 22.9423 146.602 21.773C146.597 20.8229 146.851 19.9922 147.362 19.2809C147.879 18.5647 148.593 18.0068 149.504 17.6073C150.42 17.2078 151.47 17.008 152.654 17.008C153.862 17.008 154.907 17.2102 155.789 17.6146C156.671 18.019 157.35 18.589 157.828 19.3247C158.31 20.0556 158.554 20.9106 158.559 21.8899H154.671Z" fill="white"/>
<path d="M168.481 32.1848V17.2175H173.341C174.248 17.2175 175.012 17.3783 175.636 17.6999C176.26 18.0214 176.732 18.4721 177.054 19.0519C177.38 19.6317 177.544 20.3065 177.544 21.0763C177.544 21.6804 177.446 22.2164 177.251 22.6841C177.056 23.1518 176.784 23.5392 176.433 23.8461C176.087 24.1482 175.68 24.3577 175.212 24.4746V24.5623C175.729 24.6013 176.209 24.7816 176.652 25.1031C177.095 25.4198 177.451 25.851 177.719 26.3967C177.992 26.9424 178.128 27.5782 178.128 28.3041C178.128 29.0691 177.963 29.7439 177.631 30.3285C177.305 30.9083 176.815 31.3639 176.162 31.6952C175.509 32.0216 174.701 32.1848 173.736 32.1848H168.481ZM169.395 31.3371H173.736C174.861 31.3371 175.726 31.0545 176.33 30.4893C176.939 29.9241 177.244 29.1957 177.244 28.3041C177.244 27.6756 177.095 27.1129 176.798 26.6159C176.506 26.119 176.099 25.7268 175.578 25.4393C175.056 25.147 174.452 25.0008 173.765 25.0008H169.395V31.3371ZM169.395 24.1677H173.656C174.294 24.1677 174.835 24.0288 175.278 23.7511C175.726 23.4734 176.067 23.1007 176.301 22.6329C176.54 22.1652 176.659 21.6463 176.659 21.0763C176.659 20.1506 176.372 19.4173 175.797 18.8765C175.222 18.3357 174.403 18.0653 173.341 18.0653H169.395V24.1677ZM185.789 32.4187C184.776 32.4187 183.894 32.1678 183.144 31.6659C182.393 31.1641 181.813 30.4771 181.404 29.605C180.995 28.7329 180.79 27.739 180.79 26.6232C180.79 25.5026 180.995 24.5039 181.404 23.6269C181.818 22.7499 182.386 22.058 183.107 21.5513C183.828 21.0446 184.651 20.7913 185.577 20.7913C186.206 20.7913 186.8 20.9179 187.36 21.1713C187.926 21.4198 188.422 21.7803 188.851 22.2529C189.285 22.7255 189.623 23.2956 189.867 23.963C190.116 24.6305 190.24 25.3808 190.24 26.214V26.7694H181.353V25.9582H189.348C189.348 25.1445 189.183 24.4113 188.851 23.7584C188.52 23.1055 188.069 22.5867 187.499 22.2018C186.929 21.8169 186.288 21.6244 185.577 21.6244C184.832 21.6244 184.167 21.8339 183.582 22.2529C183.002 22.6671 182.542 23.2273 182.201 23.9338C181.865 24.6403 181.689 25.4296 181.675 26.3017V26.6671C181.675 27.6025 181.838 28.443 182.164 29.1884C182.496 29.929 182.968 30.5161 183.582 30.9497C184.196 31.3785 184.932 31.5928 185.789 31.5928C186.403 31.5928 186.927 31.4905 187.36 31.2859C187.799 31.0764 188.157 30.823 188.435 30.5258C188.712 30.2286 188.922 29.9412 189.063 29.6635L189.874 29.9923C189.704 30.3675 189.438 30.7427 189.078 31.1178C188.722 31.4881 188.269 31.7975 187.718 32.046C187.173 32.2944 186.53 32.4187 185.789 32.4187ZM200.442 23.3784L199.616 23.5976C199.485 23.1884 199.297 22.8351 199.054 22.5379C198.81 22.2407 198.503 22.0117 198.133 21.851C197.767 21.6853 197.329 21.6025 196.817 21.6025C195.994 21.6025 195.319 21.8071 194.793 22.2164C194.272 22.6256 194.011 23.1591 194.011 23.8169C194.011 24.3528 194.189 24.7962 194.544 25.147C194.9 25.4929 195.443 25.756 196.174 25.9363L197.899 26.3675C198.786 26.5867 199.453 26.9424 199.901 27.4345C200.35 27.9217 200.574 28.5283 200.574 29.2542C200.574 29.873 200.406 30.4211 200.069 30.8986C199.733 31.376 199.268 31.7488 198.674 32.0167C198.084 32.2847 197.397 32.4187 196.613 32.4187C195.565 32.4187 194.705 32.1751 194.033 31.6879C193.36 31.1958 192.929 30.4917 192.739 29.5758L193.594 29.3565C193.755 30.0873 194.089 30.6452 194.596 31.0301C195.107 31.4101 195.777 31.6002 196.605 31.6002C197.521 31.6002 198.259 31.3833 198.82 30.9497C199.385 30.5161 199.667 29.9607 199.667 29.2834C199.667 28.767 199.502 28.3309 199.17 27.9753C198.839 27.6196 198.337 27.3589 197.665 27.1933L195.874 26.7548C194.958 26.5307 194.272 26.1726 193.814 25.6805C193.356 25.1835 193.127 24.5721 193.127 23.8461C193.127 23.242 193.285 22.7109 193.602 22.2529C193.918 21.7949 194.354 21.4368 194.91 21.1786C195.465 20.9204 196.101 20.7913 196.817 20.7913C197.767 20.7913 198.542 21.0154 199.141 21.4636C199.741 21.9119 200.174 22.5501 200.442 23.3784ZM207.628 20.9594V21.756H202.724V20.9594H207.628ZM204.383 18.2699H205.267V29.5319C205.267 29.9899 205.355 30.3651 205.53 30.6574C205.711 30.9448 205.945 31.1592 206.232 31.3005C206.524 31.4369 206.836 31.5051 207.168 31.5051C207.328 31.5051 207.467 31.493 207.584 31.4686C207.706 31.4442 207.82 31.4126 207.928 31.3736L208.147 32.1848C208.01 32.2335 207.859 32.2749 207.694 32.3091C207.528 32.348 207.333 32.3675 207.109 32.3675C206.641 32.3675 206.198 32.2628 205.779 32.0533C205.365 31.8438 205.029 31.5393 204.77 31.1397C204.512 30.7402 204.383 30.2579 204.383 29.6927V18.2699ZM217.037 32.1848V17.2175H221.649C222.599 17.2175 223.413 17.4124 224.09 17.8022C224.772 18.192 225.296 18.7255 225.661 19.4027C226.026 20.0799 226.209 20.8522 226.209 21.7194C226.209 22.5769 226.026 23.3443 225.661 24.0215C225.296 24.6987 224.772 25.2347 224.09 25.6293C223.413 26.0191 222.601 26.214 221.656 26.214H217.68V25.3662H221.634C222.404 25.3662 223.062 25.2103 223.607 24.8985C224.153 24.5818 224.572 24.1506 224.864 23.6049C225.157 23.0544 225.303 22.4259 225.303 21.7194C225.303 21.0081 225.157 20.3771 224.864 19.8266C224.572 19.276 224.151 18.8448 223.6 18.533C223.054 18.2212 222.397 18.0653 221.627 18.0653H217.951V32.1848H217.037ZM229.405 32.1848V20.9594H230.274V22.7133H230.355C230.598 22.1384 231.01 21.678 231.59 21.3321C232.17 20.9813 232.83 20.8059 233.57 20.8059C233.648 20.8059 233.726 20.8059 233.804 20.8059C233.882 20.8059 233.955 20.8083 234.023 20.8132V21.7121C233.965 21.7072 233.894 21.6999 233.812 21.6902C233.734 21.6756 233.636 21.6683 233.519 21.6683C232.896 21.6683 232.34 21.8022 231.853 22.0702C231.371 22.3382 230.991 22.7085 230.713 23.1811C230.435 23.6488 230.296 24.1847 230.296 24.7889V32.1848H229.405ZM239.393 32.426C238.745 32.426 238.151 32.2969 237.61 32.0386C237.074 31.7804 236.643 31.4028 236.316 30.9059C235.995 30.4089 235.834 29.8048 235.834 29.0934C235.834 28.6257 235.917 28.214 236.083 27.8583C236.248 27.5027 236.504 27.1957 236.85 26.9375C237.196 26.6793 237.639 26.4673 238.18 26.3017C238.721 26.1312 239.366 25.9996 240.117 25.907C240.687 25.8388 241.196 25.7731 241.644 25.7097C242.092 25.6415 242.443 25.5368 242.697 25.3955C242.955 25.2542 243.084 25.0398 243.084 24.7523V24.2846C243.084 23.4661 242.826 22.8157 242.309 22.3333C241.793 21.851 241.081 21.6098 240.175 21.6098C239.371 21.6098 238.694 21.7876 238.143 22.1433C237.598 22.4941 237.215 22.9472 236.996 23.5026L236.156 23.1884C236.37 22.6524 236.679 22.2066 237.084 21.851C237.493 21.4953 237.961 21.2298 238.487 21.0544C239.018 20.879 239.573 20.7913 240.153 20.7913C240.655 20.7913 241.133 20.8619 241.586 21.0032C242.044 21.1445 242.45 21.3589 242.806 21.6463C243.167 21.9338 243.452 22.3016 243.661 22.7499C243.871 23.1932 243.975 23.7243 243.975 24.3431V32.1848H243.084V30.1604H243.018C242.823 30.5794 242.555 30.9619 242.214 31.3078C241.878 31.6489 241.471 31.9217 240.994 32.1263C240.521 32.3261 239.988 32.426 239.393 32.426ZM239.481 31.6002C240.182 31.6002 240.804 31.4296 241.344 31.0886C241.89 30.7427 242.316 30.2701 242.623 29.6708C242.93 29.0715 243.084 28.3918 243.084 27.6318V25.9801C242.972 26.0776 242.809 26.1653 242.594 26.2432C242.385 26.3163 242.146 26.3821 241.878 26.4405C241.615 26.4941 241.337 26.5429 241.045 26.5867C240.757 26.6257 240.477 26.6622 240.204 26.6963C239.386 26.7938 238.718 26.9448 238.202 27.1494C237.69 27.3492 237.315 27.6123 237.076 27.9387C236.843 28.2652 236.726 28.6598 236.726 29.1227C236.726 29.8876 236.989 30.4917 237.515 30.9351C238.041 31.3785 238.696 31.6002 239.481 31.6002ZM251.923 32.4187C250.968 32.4187 250.128 32.1678 249.402 31.6659C248.676 31.1592 248.108 30.4674 247.699 29.5904C247.295 28.7134 247.092 27.7195 247.092 26.6086C247.092 25.4978 247.297 24.5039 247.706 23.6269C248.116 22.7499 248.683 22.058 249.409 21.5513C250.135 21.0446 250.971 20.7913 251.916 20.7913C252.627 20.7913 253.275 20.9374 253.86 21.2298C254.449 21.5221 254.937 21.9289 255.322 22.4502C255.711 22.9716 255.96 23.5757 256.067 24.2627H255.161C255.015 23.5026 254.649 22.8741 254.064 22.3772C253.485 21.8753 252.771 21.6244 251.923 21.6244C251.163 21.6244 250.486 21.8388 249.891 22.2675C249.297 22.6914 248.829 23.2785 248.488 24.0288C248.147 24.7743 247.977 25.6293 247.977 26.594C247.977 27.5441 248.142 28.3967 248.474 29.1519C248.805 29.9022 249.268 30.4966 249.862 30.9351C250.457 31.3736 251.144 31.5928 251.923 31.5928C252.474 31.5928 252.976 31.4832 253.429 31.264C253.887 31.0447 254.269 30.7329 254.576 30.3285C254.883 29.9241 255.085 29.4515 255.183 28.9107H256.089C255.982 29.6026 255.738 30.2116 255.358 30.7378C254.978 31.264 254.493 31.6757 253.904 31.9729C253.314 32.2701 252.654 32.4187 251.923 32.4187ZM263.097 20.9594V21.756H258.194V20.9594H263.097ZM259.853 18.2699H260.737V29.5319C260.737 29.9899 260.825 30.3651 261 30.6574C261.18 30.9448 261.414 31.1592 261.702 31.3005C261.994 31.4369 262.306 31.5051 262.637 31.5051C262.798 31.5051 262.937 31.493 263.054 31.4686C263.175 31.4442 263.29 31.4126 263.397 31.3736L263.616 32.1848C263.48 32.2335 263.329 32.2749 263.163 32.3091C262.998 32.348 262.803 32.3675 262.579 32.3675C262.111 32.3675 261.667 32.2628 261.248 32.0533C260.834 31.8438 260.498 31.5393 260.24 31.1397C259.982 30.7402 259.853 30.2579 259.853 29.6927V18.2699ZM266.448 32.1848V20.9594H267.333V32.1848H266.448ZM266.894 18.9715C266.699 18.9715 266.529 18.9033 266.383 18.7669C266.241 18.6305 266.171 18.4648 266.171 18.2699C266.171 18.075 266.241 17.9094 266.383 17.773C266.524 17.6365 266.694 17.5683 266.894 17.5683C267.089 17.5683 267.257 17.6365 267.398 17.773C267.545 17.9094 267.618 18.075 267.618 18.2699C267.618 18.4648 267.547 18.6305 267.406 18.7669C267.264 18.9033 267.094 18.9715 266.894 18.9715ZM275.277 32.4187C274.322 32.4187 273.481 32.1678 272.755 31.6659C272.029 31.1592 271.462 30.4674 271.052 29.5904C270.648 28.7134 270.446 27.7195 270.446 26.6086C270.446 25.4978 270.651 24.5039 271.06 23.6269C271.469 22.7499 272.037 22.058 272.763 21.5513C273.489 21.0446 274.324 20.7913 275.269 20.7913C275.981 20.7913 276.629 20.9374 277.213 21.2298C277.803 21.5221 278.29 21.9289 278.675 22.4502C279.065 22.9716 279.313 23.5757 279.42 24.2627H278.514C278.368 23.5026 278.003 22.8741 277.418 22.3772C276.838 21.8753 276.124 21.6244 275.277 21.6244C274.517 21.6244 273.839 21.8388 273.245 22.2675C272.651 22.6914 272.183 23.2785 271.842 24.0288C271.501 24.7743 271.33 25.6293 271.33 26.594C271.33 27.5441 271.496 28.3967 271.827 29.1519C272.158 29.9022 272.621 30.4966 273.216 30.9351C273.81 31.3736 274.497 31.5928 275.277 31.5928C275.827 31.5928 276.329 31.4832 276.782 31.264C277.24 31.0447 277.623 30.7329 277.93 30.3285C278.236 29.9241 278.439 29.4515 278.536 28.9107H279.442C279.335 29.6026 279.092 30.2116 278.712 30.7378C278.331 31.264 277.847 31.6757 277.257 31.9729C276.668 32.2701 276.007 32.4187 275.277 32.4187ZM286.86 32.4187C285.847 32.4187 284.965 32.1678 284.215 31.6659C283.464 31.1641 282.885 30.4771 282.475 29.605C282.066 28.7329 281.861 27.739 281.861 26.6232C281.861 25.5026 282.066 24.5039 282.475 23.6269C282.889 22.7499 283.457 22.058 284.178 21.5513C284.899 21.0446 285.723 20.7913 286.648 20.7913C287.277 20.7913 287.871 20.9179 288.431 21.1713C288.997 21.4198 289.494 21.7803 289.922 22.2529C290.356 22.7255 290.695 23.2956 290.938 23.963C291.187 24.6305 291.311 25.3808 291.311 26.214V26.7694H282.424V25.9582H290.419C290.419 25.1445 290.254 24.4113 289.922 23.7584C289.591 23.1055 289.14 22.5867 288.57 22.2018C288 21.8169 287.36 21.6244 286.648 21.6244C285.903 21.6244 285.238 21.8339 284.653 22.2529C284.073 22.6671 283.613 23.2273 283.272 23.9338C282.936 24.6403 282.76 25.4296 282.746 26.3017V26.6671C282.746 27.6025 282.909 28.443 283.235 29.1884C283.567 29.929 284.039 30.5161 284.653 30.9497C285.267 31.3785 286.003 31.5928 286.86 31.5928C287.474 31.5928 287.998 31.4905 288.431 31.2859C288.87 31.0764 289.228 30.823 289.506 30.5258C289.783 30.2286 289.993 29.9412 290.134 29.6635L290.946 29.9923C290.775 30.3675 290.509 30.7427 290.149 31.1178C289.793 31.4881 289.34 31.7975 288.79 32.046C288.244 32.2944 287.601 32.4187 286.86 32.4187Z" fill="white"/>
<path d="M77.4386 50.7354V68.1899H74.8051V50.7354H77.4386ZM86.5835 68.4541C85.3164 68.4541 84.2255 68.1672 83.3107 67.5934C82.4017 67.0138 81.7028 66.2155 81.2142 65.1985C80.7255 64.1814 80.4812 63.0166 80.4812 61.7041C80.4812 60.3746 80.7312 59.2013 81.2312 58.1843C81.7312 57.1615 82.4357 56.3632 83.3448 55.7894C84.2539 55.2155 85.325 54.9286 86.5579 54.9286C87.5522 54.9286 88.4386 55.1132 89.217 55.4826C89.9954 55.8462 90.6232 56.3576 91.1005 57.0166C91.5835 57.6757 91.8704 58.4456 91.9613 59.3263H89.4812C89.3448 58.7127 89.0323 58.1843 88.5437 57.7411C88.0607 57.2979 87.413 57.0763 86.6005 57.0763C85.8903 57.0763 85.2681 57.2638 84.734 57.6388C84.2056 58.0081 83.7937 58.5365 83.4982 59.224C83.2028 59.9059 83.0551 60.7127 83.0551 61.6445C83.0551 62.599 83.2 63.4229 83.4897 64.1161C83.7795 64.8093 84.1886 65.3462 84.717 65.7269C85.2511 66.1076 85.8789 66.2979 86.6005 66.2979C87.0835 66.2979 87.521 66.2098 87.913 66.0337C88.3107 65.8519 88.6431 65.5934 88.9102 65.2581C89.1829 64.9229 89.3732 64.5195 89.4812 64.0479H91.9613C91.8704 64.8945 91.5948 65.6502 91.1346 66.3149C90.6744 66.9797 90.0579 67.5024 89.2852 67.8831C88.5181 68.2638 87.6176 68.4541 86.5835 68.4541ZM100.201 68.4541C98.9734 68.4541 97.9024 68.1729 96.9876 67.6104C96.0728 67.0479 95.3626 66.261 94.8569 65.2496C94.3512 64.2382 94.0984 63.0564 94.0984 61.7041C94.0984 60.3462 94.3512 59.1587 94.8569 58.1416C95.3626 57.1246 96.0728 56.3348 96.9876 55.7723C97.9024 55.2098 98.9734 54.9286 100.201 54.9286C101.428 54.9286 102.499 55.2098 103.414 55.7723C104.329 56.3348 105.039 57.1246 105.544 58.1416C106.05 59.1587 106.303 60.3462 106.303 61.7041C106.303 63.0564 106.05 64.2382 105.544 65.2496C105.039 66.261 104.329 67.0479 103.414 67.6104C102.499 68.1729 101.428 68.4541 100.201 68.4541ZM100.209 66.3149C101.005 66.3149 101.664 66.1047 102.186 65.6843C102.709 65.2638 103.096 64.7041 103.346 64.0053C103.601 63.3064 103.729 62.5365 103.729 61.6956C103.729 60.8604 103.601 60.0934 103.346 59.3945C103.096 58.6899 102.709 58.1246 102.186 57.6985C101.664 57.2723 101.005 57.0593 100.209 57.0593C99.408 57.0593 98.7433 57.2723 98.2149 57.6985C97.6921 58.1246 97.3029 58.6899 97.0473 59.3945C96.7973 60.0934 96.6723 60.8604 96.6723 61.6956C96.6723 62.5365 96.7973 63.3064 97.0473 64.0053C97.3029 64.7041 97.6921 65.2638 98.2149 65.6843C98.7433 66.1047 99.408 66.3149 100.209 66.3149ZM111.696 60.4172V68.1899H109.147V55.099H111.593V57.2297H111.755C112.056 56.5365 112.528 55.9797 113.17 55.5593C113.818 55.1388 114.633 54.9286 115.616 54.9286C116.508 54.9286 117.289 55.1161 117.96 55.4911C118.63 55.8604 119.15 56.4115 119.52 57.1445C119.889 57.8774 120.074 58.7837 120.074 59.8632V68.1899H117.525V60.1701C117.525 59.2212 117.278 58.4797 116.784 57.9456C116.289 57.4059 115.61 57.136 114.747 57.136C114.156 57.136 113.63 57.2638 113.17 57.5195C112.716 57.7752 112.355 58.1502 112.088 58.6445C111.826 59.1331 111.696 59.724 111.696 60.4172ZM141.86 56.2496C141.695 55.7326 141.473 55.2695 141.195 54.8604C140.922 54.4456 140.596 54.0933 140.215 53.8036C139.834 53.5081 139.4 53.2837 138.911 53.1303C138.428 52.9769 137.897 52.9002 137.317 52.9002C136.334 52.9002 135.448 53.153 134.658 53.6587C133.868 54.1644 133.243 54.9059 132.783 55.8831C132.329 56.8547 132.101 58.0451 132.101 59.4541C132.101 60.8689 132.331 62.0649 132.792 63.0422C133.252 64.0195 133.882 64.761 134.684 65.2666C135.485 65.7723 136.397 66.0252 137.419 66.0252C138.368 66.0252 139.195 65.832 139.9 65.4456C140.61 65.0593 141.158 64.5138 141.544 63.8093C141.936 63.099 142.132 62.2638 142.132 61.3036L142.814 61.4314H137.82V59.2581H144.681V61.2439C144.681 62.7098 144.368 63.9826 143.743 65.0621C143.124 66.136 142.266 66.9655 141.169 67.5507C140.079 68.136 138.829 68.4286 137.419 68.4286C135.84 68.4286 134.454 68.0649 133.26 67.3377C132.073 66.6104 131.147 65.5791 130.482 64.2439C129.817 62.903 129.485 61.3121 129.485 59.4712C129.485 58.0791 129.678 56.8291 130.064 55.7212C130.451 54.6132 130.993 53.6729 131.692 52.9002C132.397 52.1218 133.223 51.528 134.172 51.1189C135.127 50.7041 136.169 50.4968 137.3 50.4968C138.243 50.4968 139.121 50.636 139.934 50.9144C140.752 51.1928 141.479 51.5877 142.115 52.099C142.757 52.6104 143.289 53.2184 143.709 53.9229C144.13 54.6218 144.414 55.3973 144.561 56.2496H141.86ZM156.112 62.761V55.099H158.669V68.1899H156.163V65.9229H156.027C155.726 66.6218 155.243 67.2041 154.578 67.6701C153.919 68.1303 153.098 68.3604 152.115 68.3604C151.274 68.3604 150.529 68.1757 149.882 67.8064C149.24 67.4314 148.734 66.8774 148.365 66.1445C148.001 65.4115 147.819 64.5053 147.819 63.4257V55.099H150.368V63.1189C150.368 64.011 150.615 64.7212 151.109 65.2496C151.603 65.778 152.245 66.0422 153.035 66.0422C153.512 66.0422 153.987 65.9229 154.458 65.6843C154.936 65.4456 155.331 65.0848 155.643 64.6019C155.961 64.1189 156.118 63.5053 156.112 62.761ZM162.093 68.1899V55.099H164.641V68.1899H162.093ZM163.38 53.0791C162.936 53.0791 162.556 52.9314 162.238 52.636C161.925 52.3348 161.769 51.9769 161.769 51.5621C161.769 51.1416 161.925 50.7837 162.238 50.4882C162.556 50.1871 162.936 50.0365 163.38 50.0365C163.823 50.0365 164.201 50.1871 164.513 50.4882C164.831 50.7837 164.99 51.1416 164.99 51.5621C164.99 51.9769 164.831 52.3348 164.513 52.636C164.201 52.9314 163.823 53.0791 163.38 53.0791ZM172.97 68.4456C171.913 68.4456 170.97 68.1757 170.14 67.636C169.316 67.0905 168.669 66.3149 168.197 65.3093C167.731 64.2979 167.498 63.0848 167.498 61.6701C167.498 60.2553 167.734 59.0451 168.206 58.0394C168.683 57.0337 169.336 56.2638 170.166 55.7297C170.995 55.1956 171.936 54.9286 172.987 54.9286C173.799 54.9286 174.453 55.0649 174.947 55.3377C175.447 55.6047 175.833 55.9172 176.106 56.2752C176.385 56.6331 176.601 56.9485 176.754 57.2212H176.907V50.7354H179.456V68.1899H176.967V66.153H176.754C176.601 66.4314 176.379 66.7496 176.089 67.1076C175.805 67.4655 175.413 67.778 174.913 68.0451C174.413 68.3121 173.765 68.4456 172.97 68.4456ZM173.532 66.2723C174.265 66.2723 174.885 66.0791 175.39 65.6928C175.902 65.3007 176.288 64.7581 176.549 64.0649C176.816 63.3718 176.95 62.5649 176.95 61.6445C176.95 60.7354 176.819 59.9399 176.558 59.2581C176.297 58.5763 175.913 58.0451 175.407 57.6644C174.902 57.2837 174.277 57.0934 173.532 57.0934C172.765 57.0934 172.126 57.2922 171.615 57.6899C171.103 58.0877 170.717 58.6303 170.456 59.3178C170.2 60.0053 170.072 60.7809 170.072 61.6445C170.072 62.5195 170.203 63.3064 170.464 64.0053C170.726 64.7041 171.112 65.2581 171.623 65.6672C172.14 66.0706 172.777 66.2723 173.532 66.2723ZM188.735 68.4541C187.445 68.4541 186.334 68.1786 185.402 67.6274C184.476 67.0706 183.76 66.2894 183.255 65.2837C182.755 64.2723 182.505 63.0877 182.505 61.7297C182.505 60.3888 182.755 59.207 183.255 58.1843C183.76 57.1615 184.465 56.3632 185.368 55.7894C186.277 55.2155 187.34 54.9286 188.556 54.9286C189.294 54.9286 190.01 55.0507 190.704 55.2951C191.397 55.5394 192.019 55.9229 192.57 56.4456C193.121 56.9684 193.556 57.6473 193.874 58.4826C194.192 59.3121 194.351 60.3206 194.351 61.5081V62.4115H183.945V60.5024H191.854C191.854 59.832 191.718 59.2382 191.445 58.7212C191.172 58.1985 190.789 57.7865 190.294 57.4854C189.806 57.1843 189.232 57.0337 188.573 57.0337C187.857 57.0337 187.232 57.2098 186.698 57.5621C186.169 57.9087 185.76 58.3632 185.471 58.9257C185.186 59.4826 185.044 60.0877 185.044 60.7411V62.2326C185.044 63.1076 185.198 63.8519 185.505 64.4655C185.817 65.0791 186.252 65.5479 186.809 65.8718C187.365 66.1899 188.016 66.349 188.76 66.349C189.243 66.349 189.684 66.2809 190.081 66.1445C190.479 66.0024 190.823 65.7922 191.113 65.5138C191.402 65.2354 191.624 64.8916 191.777 64.4826L194.189 64.9172C193.996 65.6274 193.65 66.2496 193.15 66.7837C192.655 67.3121 192.033 67.724 191.283 68.0195C190.539 68.3093 189.689 68.4541 188.735 68.4541ZM199.727 50.7354V68.1899H197.179V50.7354H199.727ZM203.155 68.1899V55.099H205.704V68.1899H203.155ZM204.442 53.0791C203.999 53.0791 203.618 52.9314 203.3 52.636C202.988 52.3348 202.831 51.9769 202.831 51.5621C202.831 51.1416 202.988 50.7837 203.3 50.4882C203.618 50.1871 203.999 50.0365 204.442 50.0365C204.885 50.0365 205.263 50.1871 205.576 50.4882C205.894 50.7837 206.053 51.1416 206.053 51.5621C206.053 51.9769 205.894 52.3348 205.576 52.636C205.263 52.9314 204.885 53.0791 204.442 53.0791ZM211.68 60.4172V68.1899H209.132V55.099H211.578V57.2297H211.74C212.041 56.5365 212.512 55.9797 213.154 55.5593C213.802 55.1388 214.618 54.9286 215.601 54.9286C216.493 54.9286 217.274 55.1161 217.944 55.4911C218.615 55.8604 219.135 56.4115 219.504 57.1445C219.873 57.8774 220.058 58.7837 220.058 59.8632V68.1899H217.51V60.1701C217.51 59.2212 217.262 58.4797 216.768 57.9456C216.274 57.4059 215.595 57.136 214.731 57.136C214.14 57.136 213.615 57.2638 213.154 57.5195C212.7 57.7752 212.339 58.1502 212.072 58.6445C211.811 59.1331 211.68 59.724 211.68 60.4172ZM229.118 68.4541C227.828 68.4541 226.717 68.1786 225.785 67.6274C224.859 67.0706 224.143 66.2894 223.637 65.2837C223.137 64.2723 222.887 63.0877 222.887 61.7297C222.887 60.3888 223.137 59.207 223.637 58.1843C224.143 57.1615 224.848 56.3632 225.751 55.7894C226.66 55.2155 227.723 54.9286 228.939 54.9286C229.677 54.9286 230.393 55.0507 231.086 55.2951C231.779 55.5394 232.402 55.9229 232.953 56.4456C233.504 56.9684 233.939 57.6473 234.257 58.4826C234.575 59.3121 234.734 60.3206 234.734 61.5081V62.4115H224.328V60.5024H232.237C232.237 59.832 232.101 59.2382 231.828 58.7212C231.555 58.1985 231.172 57.7865 230.677 57.4854C230.189 57.1843 229.615 57.0337 228.956 57.0337C228.24 57.0337 227.615 57.2098 227.081 57.5621C226.552 57.9087 226.143 58.3632 225.853 58.9257C225.569 59.4826 225.427 60.0877 225.427 60.7411V62.2326C225.427 63.1076 225.581 63.8519 225.887 64.4655C226.2 65.0791 226.635 65.5479 227.191 65.8718C227.748 66.1899 228.399 66.349 229.143 66.349C229.626 66.349 230.066 66.2809 230.464 66.1445C230.862 66.0024 231.206 65.7922 231.495 65.5138C231.785 65.2354 232.007 64.8916 232.16 64.4826L234.572 64.9172C234.379 65.6274 234.032 66.2496 233.532 66.7837C233.038 67.3121 232.416 67.724 231.666 68.0195C230.922 68.3093 230.072 68.4541 229.118 68.4541ZM247.371 58.2951L245.061 58.7041C244.965 58.4087 244.811 58.1274 244.601 57.8604C244.397 57.5933 244.118 57.3746 243.766 57.2041C243.414 57.0337 242.973 56.9485 242.445 56.9485C241.723 56.9485 241.121 57.1104 240.638 57.4343C240.155 57.7524 239.914 58.1644 239.914 58.6701C239.914 59.1076 240.076 59.4598 240.4 59.7269C240.723 59.9939 241.246 60.2127 241.968 60.3831L244.047 60.8604C245.252 61.1388 246.15 61.5678 246.74 62.1473C247.331 62.7269 247.627 63.4797 247.627 64.4059C247.627 65.1899 247.4 65.8888 246.945 66.5024C246.496 67.1104 245.868 67.5877 245.061 67.9343C244.26 68.2809 243.331 68.4541 242.275 68.4541C240.809 68.4541 239.613 68.1416 238.686 67.5166C237.76 66.886 237.192 65.9911 236.982 64.832L239.445 64.457C239.598 65.099 239.914 65.5848 240.391 65.9144C240.868 66.2382 241.49 66.4002 242.257 66.4002C243.093 66.4002 243.76 66.2269 244.26 65.8803C244.76 65.528 245.01 65.099 245.01 64.5934C245.01 64.1843 244.857 63.8405 244.55 63.5621C244.249 63.2837 243.786 63.0735 243.161 62.9314L240.945 62.4456C239.723 62.1672 238.82 61.724 238.235 61.1161C237.655 60.5081 237.365 59.7382 237.365 58.8064C237.365 58.0337 237.581 57.3576 238.013 56.778C238.445 56.1985 239.042 55.7468 239.803 55.4229C240.564 55.0934 241.436 54.9286 242.419 54.9286C243.834 54.9286 244.948 55.2354 245.76 55.849C246.573 56.457 247.11 57.2723 247.371 58.2951Z" fill="white"/>
<rect x="72.8875" y="82.1899" width="189.58" height="22.86" rx="11.43" fill="white"/>
<path d="M86.9973 97.6199H84.0386V88.889H87.0569C87.9238 88.889 88.6684 89.0638 89.2908 89.4133C89.9161 89.7601 90.3964 90.2589 90.7318 90.9097C91.0671 91.5605 91.2348 92.3393 91.2348 93.2459C91.2348 94.1554 91.0657 94.9369 90.7275 95.5906C90.3921 96.2443 89.9076 96.7459 89.2738 97.0955C88.6428 97.4451 87.884 97.6199 86.9973 97.6199ZM85.6203 96.2514H86.9205C87.5287 96.2514 88.036 96.1406 88.4425 95.9189C88.8489 95.6944 89.1544 95.3604 89.359 94.917C89.5637 94.4708 89.666 93.9138 89.666 93.2459C89.666 92.578 89.5637 92.0238 89.359 91.5833C89.1544 91.1399 88.8517 90.8088 88.451 90.59C88.0531 90.3683 87.5586 90.2574 86.9674 90.2574H85.6203V96.2514ZM95.5683 97.7478C94.9118 97.7478 94.3448 97.6113 93.8673 97.3385C93.3927 97.0628 93.0275 96.6735 92.7717 96.1704C92.5159 95.6645 92.388 95.0691 92.388 94.3842C92.388 93.7106 92.5159 93.1194 92.7717 92.6107C93.0303 92.0991 93.3913 91.7012 93.8545 91.417C94.3178 91.13 94.862 90.9864 95.4873 90.9864C95.8909 90.9864 96.2717 91.0518 96.6298 91.1825C96.9908 91.3104 97.3091 91.5094 97.5848 91.7794C97.8633 92.0494 98.0821 92.3933 98.2413 92.8111C98.4005 93.226 98.48 93.7205 98.48 94.2946V94.7678H93.1127V93.7276H97.0007C96.9979 93.432 96.9339 93.1692 96.8089 92.9389C96.6838 92.7059 96.509 92.5226 96.2845 92.389C96.0628 92.2554 95.8042 92.1886 95.5086 92.1886C95.1931 92.1886 94.916 92.2654 94.6773 92.4188C94.4386 92.5695 94.2524 92.7684 94.1188 93.0157C93.9881 93.2601 93.9213 93.5287 93.9185 93.8214V94.7295C93.9185 95.1103 93.9881 95.4371 94.1274 95.71C94.2666 95.98 94.4613 96.1875 94.7114 96.3324C94.9615 96.4745 95.2543 96.5456 95.5896 96.5456C95.8141 96.5456 96.0174 96.5143 96.1992 96.4518C96.3811 96.3864 96.5389 96.2912 96.6725 96.1661C96.806 96.0411 96.9069 95.8862 96.9751 95.7015L98.4161 95.8635C98.3251 96.2443 98.1518 96.5768 97.896 96.861C97.643 97.1424 97.319 97.3612 96.924 97.5176C96.5289 97.671 96.077 97.7478 95.5683 97.7478ZM104.961 92.8025L103.554 92.956C103.514 92.8139 103.445 92.6803 103.345 92.5553C103.249 92.4302 103.118 92.3293 102.953 92.2526C102.788 92.1758 102.586 92.1375 102.348 92.1375C102.027 92.1375 101.757 92.2071 101.538 92.3464C101.322 92.4856 101.215 92.6661 101.218 92.8878C101.215 93.0782 101.285 93.2331 101.427 93.3525C101.572 93.4718 101.811 93.5699 102.143 93.6466L103.26 93.8854C103.88 94.0189 104.34 94.2307 104.641 94.5206C104.945 94.8105 105.099 95.1899 105.102 95.6588C105.099 96.0709 104.978 96.4347 104.739 96.7502C104.503 97.0628 104.175 97.3072 103.755 97.4835C103.334 97.6597 102.851 97.7478 102.305 97.7478C101.504 97.7478 100.859 97.5801 100.37 97.2447C99.8808 96.9065 99.5895 96.4361 99.4957 95.8336L101.001 95.6887C101.069 95.9842 101.214 96.2074 101.435 96.358C101.657 96.5086 101.946 96.5839 102.301 96.5839C102.667 96.5839 102.962 96.5086 103.183 96.358C103.408 96.2074 103.52 96.0212 103.52 95.7995C103.52 95.6119 103.448 95.457 103.303 95.3348C103.161 95.2126 102.939 95.1188 102.638 95.0535L101.521 94.819C100.893 94.6883 100.428 94.468 100.127 94.1582C99.8254 93.8456 99.6762 93.4505 99.679 92.9731C99.6762 92.5695 99.7856 92.2199 100.007 91.9243C100.232 91.6259 100.543 91.3957 100.941 91.2337C101.342 91.0688 101.804 90.9864 102.326 90.9864C103.094 90.9864 103.698 91.1498 104.138 91.4767C104.582 91.8035 104.856 92.2455 104.961 92.8025ZM106.374 97.6199V91.0717H107.918V97.6199H106.374ZM107.15 90.1423C106.906 90.1423 106.695 90.0613 106.519 89.8993C106.343 89.7345 106.255 89.537 106.255 89.3068C106.255 89.0737 106.343 88.8762 106.519 88.7142C106.695 88.5493 106.906 88.4669 107.15 88.4669C107.397 88.4669 107.608 88.5493 107.781 88.7142C107.957 88.8762 108.045 89.0737 108.045 89.3068C108.045 89.537 107.957 89.7345 107.781 89.8993C107.608 90.0613 107.397 90.1423 107.15 90.1423ZM112.352 100.212C111.798 100.212 111.322 100.137 110.924 99.9859C110.526 99.8381 110.207 99.6392 109.965 99.3891C109.723 99.139 109.556 98.8619 109.462 98.5578L110.852 98.221C110.914 98.3489 111.005 98.4753 111.125 98.6004C111.244 98.7283 111.404 98.8334 111.606 98.9159C111.811 99.0011 112.068 99.0438 112.378 99.0438C112.816 99.0438 113.178 98.9372 113.465 98.724C113.752 98.5137 113.896 98.167 113.896 97.6838V96.4432H113.819C113.739 96.6024 113.623 96.7658 113.469 96.9335C113.319 97.1012 113.118 97.2419 112.868 97.3556C112.621 97.4692 112.31 97.5261 111.934 97.5261C111.431 97.5261 110.975 97.4081 110.566 97.1722C110.16 96.9335 109.836 96.5782 109.594 96.1065C109.355 95.6318 109.236 95.0378 109.236 94.3245C109.236 93.6054 109.355 92.9986 109.594 92.5041C109.836 92.0067 110.161 91.6302 110.57 91.3744C110.98 91.1157 111.436 90.9864 111.939 90.9864C112.322 90.9864 112.638 91.0518 112.885 91.1825C113.135 91.3104 113.334 91.4653 113.482 91.6472C113.63 91.8263 113.742 91.9954 113.819 92.1545H113.904V91.0717H115.426V97.7265C115.426 98.2863 115.292 98.7496 115.025 99.1162C114.758 99.4829 114.393 99.7571 113.93 99.939C113.466 100.121 112.941 100.212 112.352 100.212ZM112.365 96.3154C112.692 96.3154 112.97 96.2358 113.201 96.0766C113.431 95.9175 113.606 95.6887 113.725 95.3903C113.844 95.0918 113.904 94.7337 113.904 94.3159C113.904 93.9038 113.844 93.5429 113.725 93.2331C113.608 92.9233 113.435 92.6832 113.205 92.5126C112.978 92.3393 112.698 92.2526 112.365 92.2526C112.021 92.2526 111.734 92.3421 111.504 92.5212C111.274 92.7002 111.1 92.9461 110.984 93.2587C110.867 93.5685 110.809 93.9209 110.809 94.3159C110.809 94.7167 110.867 95.0677 110.984 95.3689C111.103 95.6674 111.278 95.9004 111.508 96.0681C111.741 96.2329 112.027 96.3154 112.365 96.3154ZM118.551 93.783V97.6199H117.008V91.0717H118.483V92.1844H118.559C118.71 91.8177 118.95 91.5264 119.28 91.3104C119.612 91.0944 120.023 90.9864 120.512 90.9864C120.964 90.9864 121.357 91.0831 121.693 91.2763C122.031 91.4696 122.293 91.7495 122.477 92.1162C122.665 92.4828 122.757 92.9276 122.754 93.4505V97.6199H121.211V93.6893C121.211 93.2516 121.097 92.9091 120.87 92.6618C120.646 92.4146 120.334 92.2909 119.936 92.2909C119.666 92.2909 119.426 92.3506 119.216 92.47C119.008 92.5865 118.845 92.7556 118.726 92.9773C118.609 93.199 118.551 93.4676 118.551 93.783ZM127.222 97.7478C126.566 97.7478 125.999 97.6113 125.521 97.3385C125.046 97.0628 124.681 96.6735 124.425 96.1704C124.17 95.6645 124.042 95.0691 124.042 94.3842C124.042 93.7106 124.17 93.1194 124.425 92.6107C124.684 92.0991 125.045 91.7012 125.508 91.417C125.972 91.13 126.516 90.9864 127.141 90.9864C127.545 90.9864 127.926 91.0518 128.284 91.1825C128.645 91.3104 128.963 91.5094 129.239 91.7794C129.517 92.0494 129.736 92.3933 129.895 92.8111C130.054 93.226 130.134 93.7205 130.134 94.2946V94.7678H124.767V93.7276H128.655C128.652 93.432 128.588 93.1692 128.463 92.9389C128.338 92.7059 128.163 92.5226 127.938 92.389C127.717 92.2554 127.458 92.1886 127.162 92.1886C126.847 92.1886 126.57 92.2654 126.331 92.4188C126.092 92.5695 125.906 92.7684 125.773 93.0157C125.642 93.2601 125.575 93.5287 125.572 93.8214V94.7295C125.572 95.1103 125.642 95.4371 125.781 95.71C125.92 95.98 126.115 96.1875 126.365 96.3324C126.615 96.4745 126.908 96.5456 127.243 96.5456C127.468 96.5456 127.671 96.5143 127.853 96.4518C128.035 96.3864 128.193 96.2912 128.326 96.1661C128.46 96.0411 128.561 95.8862 128.629 95.7015L130.07 95.8635C129.979 96.2443 129.806 96.5768 129.55 96.861C129.297 97.1424 128.973 97.3612 128.578 97.5176C128.183 97.671 127.731 97.7478 127.222 97.7478ZM133.869 97.735C133.355 97.735 132.895 97.6028 132.488 97.3385C132.082 97.0742 131.761 96.6905 131.525 96.1875C131.289 95.6844 131.171 95.0734 131.171 94.3543C131.171 93.6267 131.29 93.0128 131.529 92.5126C131.771 92.0096 132.096 91.6302 132.505 91.3744C132.914 91.1157 133.371 90.9864 133.874 90.9864C134.257 90.9864 134.573 91.0518 134.82 91.1825C135.067 91.3104 135.263 91.4653 135.408 91.6472C135.553 91.8263 135.666 91.9954 135.745 92.1545H135.809V88.889H137.357V97.6199H135.839V96.5882H135.745C135.666 96.7474 135.551 96.9165 135.4 97.0955C135.249 97.2717 135.05 97.4223 134.803 97.5474C134.556 97.6725 134.245 97.735 133.869 97.735ZM134.3 96.4688C134.627 96.4688 134.905 96.3807 135.136 96.2045C135.366 96.0255 135.541 95.7768 135.66 95.4585C135.779 95.1401 135.839 94.7693 135.839 94.3458C135.839 93.9223 135.779 93.5543 135.66 93.2416C135.543 92.929 135.37 92.686 135.14 92.5126C134.912 92.3393 134.633 92.2526 134.3 92.2526C133.956 92.2526 133.669 92.3421 133.439 92.5212C133.209 92.7002 133.035 92.9475 132.919 93.2629C132.802 93.5784 132.744 93.9394 132.744 94.3458C132.744 94.755 132.802 95.1203 132.919 95.4414C133.038 95.7597 133.213 96.0112 133.443 96.196C133.676 96.3779 133.962 96.4688 134.3 96.4688ZM143.863 97.752C143.448 97.752 143.075 97.6781 142.742 97.5303C142.412 97.3797 142.151 97.158 141.958 96.8653C141.767 96.5726 141.672 96.2116 141.672 95.7825C141.672 95.413 141.74 95.1075 141.877 94.8659C142.013 94.6243 142.199 94.431 142.435 94.2861C142.671 94.1412 142.937 94.0317 143.232 93.9578C143.531 93.8811 143.839 93.8257 144.157 93.7916C144.541 93.7518 144.852 93.7163 145.091 93.685C145.33 93.6509 145.503 93.5997 145.611 93.5315C145.722 93.4605 145.777 93.351 145.777 93.2033V93.1777C145.777 92.8565 145.682 92.6078 145.492 92.4316C145.301 92.2554 145.027 92.1673 144.669 92.1673C144.291 92.1673 143.991 92.2497 143.769 92.4146C143.551 92.5794 143.403 92.7741 143.326 92.9986L141.885 92.794C141.999 92.3961 142.186 92.0636 142.448 91.7964C142.709 91.5264 143.029 91.3246 143.407 91.1911C143.785 91.0546 144.203 90.9864 144.66 90.9864C144.976 90.9864 145.29 91.0234 145.603 91.0973C145.915 91.1712 146.201 91.2934 146.46 91.4639C146.718 91.6316 146.926 91.8604 147.082 92.1503C147.241 92.4402 147.321 92.8025 147.321 93.2374V97.6199H145.837V96.7204H145.786C145.692 96.9022 145.56 97.0728 145.389 97.2319C145.222 97.3882 145.01 97.5147 144.754 97.6113C144.501 97.7051 144.204 97.752 143.863 97.752ZM144.264 96.618C144.574 96.618 144.842 96.5569 145.07 96.4347C145.297 96.3097 145.472 96.1448 145.594 95.9402C145.719 95.7356 145.782 95.5125 145.782 95.2709V94.4993C145.733 94.539 145.651 94.576 145.534 94.6101C145.421 94.6442 145.293 94.674 145.151 94.6996C145.009 94.7252 144.868 94.7479 144.729 94.7678C144.589 94.7877 144.469 94.8048 144.366 94.819C144.136 94.8503 143.93 94.9014 143.748 94.9725C143.566 95.0435 143.423 95.143 143.318 95.2709C143.212 95.3959 143.16 95.5579 143.16 95.7569C143.16 96.0411 143.264 96.2557 143.471 96.4006C143.679 96.5456 143.943 96.618 144.264 96.618ZM150.416 93.783V97.6199H148.872V91.0717H150.348V92.1844H150.424C150.575 91.8177 150.815 91.5264 151.145 91.3104C151.477 91.0944 151.888 90.9864 152.377 90.9864C152.829 90.9864 153.222 91.0831 153.558 91.2763C153.896 91.4696 154.157 91.7495 154.342 92.1162C154.53 92.4828 154.622 92.9276 154.619 93.4505V97.6199H153.076V93.6893C153.076 93.2516 152.962 92.9091 152.735 92.6618C152.51 92.4146 152.199 92.2909 151.801 92.2909C151.531 92.2909 151.291 92.3506 151.081 92.47C150.873 92.5865 150.71 92.7556 150.591 92.9773C150.474 93.199 150.416 93.4676 150.416 93.783ZM158.618 97.735C158.104 97.735 157.643 97.6028 157.237 97.3385C156.83 97.0742 156.509 96.6905 156.273 96.1875C156.037 95.6844 155.919 95.0734 155.919 94.3543C155.919 93.6267 156.039 93.0128 156.278 92.5126C156.519 92.0096 156.845 91.6302 157.254 91.3744C157.663 91.1157 158.119 90.9864 158.622 90.9864C159.006 90.9864 159.321 91.0518 159.569 91.1825C159.816 91.3104 160.012 91.4653 160.157 91.6472C160.302 91.8263 160.414 91.9954 160.494 92.1545H160.558V88.889H162.105V97.6199H160.588V96.5882H160.494C160.414 96.7474 160.299 96.9165 160.148 97.0955C159.998 97.2717 159.799 97.4223 159.552 97.5474C159.304 97.6725 158.993 97.735 158.618 97.735ZM159.049 96.4688C159.375 96.4688 159.654 96.3807 159.884 96.2045C160.114 96.0255 160.289 95.7768 160.409 95.4585C160.528 95.1401 160.588 94.7693 160.588 94.3458C160.588 93.9223 160.528 93.5543 160.409 93.2416C160.292 92.929 160.119 92.686 159.888 92.5126C159.661 92.3393 159.381 92.2526 159.049 92.2526C158.705 92.2526 158.418 92.3421 158.187 92.5212C157.957 92.7002 157.784 92.9475 157.667 93.2629C157.551 93.5784 157.493 93.9394 157.493 94.3458C157.493 94.755 157.551 95.1203 157.667 95.4414C157.787 95.7597 157.961 96.0112 158.192 96.196C158.425 96.3779 158.71 96.4688 159.049 96.4688ZM169.584 97.7478C168.93 97.7478 168.369 97.6042 167.9 97.3172C167.434 97.0301 167.074 96.6337 166.821 96.1278C166.571 95.619 166.446 95.0336 166.446 94.3714C166.446 93.7063 166.574 93.1194 166.83 92.6107C167.086 92.0991 167.447 91.7012 167.913 91.417C168.382 91.13 168.936 90.9864 169.575 90.9864C170.107 90.9864 170.577 91.0845 170.986 91.2806C171.399 91.4738 171.727 91.7481 171.971 92.1034C172.216 92.4558 172.355 92.8679 172.389 93.3397H170.914C170.854 93.0242 170.712 92.7613 170.488 92.551C170.266 92.3378 169.969 92.2313 169.597 92.2313C169.281 92.2313 169.004 92.3165 168.765 92.4871C168.527 92.6547 168.34 92.8963 168.207 93.2118C168.076 93.5273 168.011 93.9053 168.011 94.3458C168.011 94.792 168.076 95.1757 168.207 95.4968C168.338 95.8151 168.521 96.061 168.757 96.2344C168.996 96.4049 169.275 96.4901 169.597 96.4901C169.824 96.4901 170.027 96.4475 170.206 96.3622C170.388 96.2741 170.54 96.1477 170.662 95.9828C170.785 95.818 170.868 95.6176 170.914 95.3817H172.389C172.352 95.845 172.216 96.2557 171.98 96.6138C171.744 96.969 171.423 97.2476 171.016 97.4493C170.61 97.6483 170.132 97.7478 169.584 97.7478ZM176.513 97.7478C175.873 97.7478 175.319 97.6071 174.85 97.3257C174.381 97.0443 174.017 96.6507 173.759 96.1448C173.503 95.6389 173.375 95.0478 173.375 94.3714C173.375 93.6949 173.503 93.1024 173.759 92.5936C174.017 92.0849 174.381 91.6898 174.85 91.4085C175.319 91.1271 175.873 90.9864 176.513 90.9864C177.152 90.9864 177.706 91.1271 178.175 91.4085C178.644 91.6898 179.006 92.0849 179.262 92.5936C179.521 93.1024 179.65 93.6949 179.65 94.3714C179.65 95.0478 179.521 95.6389 179.262 96.1448C179.006 96.6507 178.644 97.0443 178.175 97.3257C177.706 97.6071 177.152 97.7478 176.513 97.7478ZM176.521 96.5115C176.868 96.5115 177.158 96.4162 177.391 96.2258C177.624 96.0326 177.797 95.7739 177.911 95.4499C178.027 95.1259 178.086 94.765 178.086 94.3671C178.086 93.9664 178.027 93.604 177.911 93.28C177.797 92.9532 177.624 92.6931 177.391 92.4998C177.158 92.3066 176.868 92.2099 176.521 92.2099C176.166 92.2099 175.87 92.3066 175.634 92.4998C175.401 92.6931 175.226 92.9532 175.11 93.28C174.996 93.604 174.939 93.9664 174.939 94.3671C174.939 94.765 174.996 95.1259 175.11 95.4499C175.226 95.7739 175.401 96.0326 175.634 96.2258C175.87 96.4162 176.166 96.5115 176.521 96.5115ZM183.39 97.735C182.876 97.735 182.415 97.6028 182.009 97.3385C181.602 97.0742 181.281 96.6905 181.045 96.1875C180.809 95.6844 180.691 95.0734 180.691 94.3543C180.691 93.6267 180.811 93.0128 181.05 92.5126C181.291 92.0096 181.617 91.6302 182.026 91.3744C182.435 91.1157 182.891 90.9864 183.394 90.9864C183.778 90.9864 184.093 91.0518 184.341 91.1825C184.588 91.3104 184.784 91.4653 184.929 91.6472C185.074 91.8263 185.186 91.9954 185.266 92.1545H185.33V88.889H186.877V97.6199H185.36V96.5882H185.266C185.186 96.7474 185.071 96.9165 184.921 97.0955C184.77 97.2717 184.571 97.4223 184.324 97.5474C184.076 97.6725 183.765 97.735 183.39 97.735ZM183.821 96.4688C184.147 96.4688 184.426 96.3807 184.656 96.2045C184.886 96.0255 185.061 95.7768 185.181 95.4585C185.3 95.1401 185.36 94.7693 185.36 94.3458C185.36 93.9223 185.3 93.5543 185.181 93.2416C185.064 92.929 184.891 92.686 184.66 92.5126C184.433 92.3393 184.153 92.2526 183.821 92.2526C183.477 92.2526 183.19 92.3421 182.959 92.5212C182.729 92.7002 182.556 92.9475 182.439 93.2629C182.323 93.5784 182.265 93.9394 182.265 94.3458C182.265 94.755 182.323 95.1203 182.439 95.4414C182.559 95.7597 182.734 96.0112 182.964 96.196C183.197 96.3779 183.482 96.4688 183.821 96.4688ZM191.421 97.7478C190.764 97.7478 190.197 97.6113 189.72 97.3385C189.245 97.0628 188.88 96.6735 188.624 96.1704C188.368 95.6645 188.24 95.0691 188.24 94.3842C188.24 93.7106 188.368 93.1194 188.624 92.6107C188.883 92.0991 189.244 91.7012 189.707 91.417C190.17 91.13 190.714 90.9864 191.34 90.9864C191.743 90.9864 192.124 91.0518 192.482 91.1825C192.843 91.3104 193.162 91.5094 193.437 91.7794C193.716 92.0494 193.935 92.3933 194.094 92.8111C194.253 93.226 194.332 93.7205 194.332 94.2946V94.7678H188.965V93.7276H192.853C192.85 93.432 192.786 93.1692 192.661 92.9389C192.536 92.7059 192.361 92.5226 192.137 92.389C191.915 92.2554 191.657 92.1886 191.361 92.1886C191.046 92.1886 190.768 92.2654 190.53 92.4188C190.291 92.5695 190.105 92.7684 189.971 93.0157C189.841 93.2601 189.774 93.5287 189.771 93.8214V94.7295C189.771 95.1103 189.841 95.4371 189.98 95.71C190.119 95.98 190.314 96.1875 190.564 96.3324C190.814 96.4745 191.107 96.5456 191.442 96.5456C191.667 96.5456 191.87 96.5143 192.052 96.4518C192.234 96.3864 192.391 96.2912 192.525 96.1661C192.658 96.0411 192.759 95.8862 192.828 95.7015L194.269 95.8635C194.178 96.2443 194.004 96.5768 193.748 96.861C193.495 97.1424 193.171 97.3612 192.776 97.5176C192.381 97.671 191.929 97.7478 191.421 97.7478ZM198.068 97.735C197.554 97.735 197.093 97.6028 196.687 97.3385C196.28 97.0742 195.959 96.6905 195.723 96.1875C195.487 95.6844 195.369 95.0734 195.369 94.3543C195.369 93.6267 195.489 93.0128 195.728 92.5126C195.969 92.0096 196.295 91.6302 196.704 91.3744C197.113 91.1157 197.569 90.9864 198.072 90.9864C198.456 90.9864 198.771 91.0518 199.019 91.1825C199.266 91.3104 199.462 91.4653 199.607 91.6472C199.752 91.8263 199.864 91.9954 199.944 92.1545H200.008V88.889H201.555V97.6199H200.038V96.5882H199.944C199.864 96.7474 199.749 96.9165 199.598 97.0955C199.448 97.2717 199.249 97.4223 199.002 97.5474C198.754 97.6725 198.443 97.735 198.068 97.735ZM198.499 96.4688C198.825 96.4688 199.104 96.3807 199.334 96.2045C199.564 96.0255 199.739 95.7768 199.859 95.4585C199.978 95.1401 200.038 94.7693 200.038 94.3458C200.038 93.9223 199.978 93.5543 199.859 93.2416C199.742 92.929 199.569 92.686 199.338 92.5126C199.111 92.3393 198.831 92.2526 198.499 92.2526C198.155 92.2526 197.868 92.3421 197.637 92.5212C197.407 92.7002 197.234 92.9475 197.117 93.2629C197.001 93.5784 196.943 93.9394 196.943 94.3458C196.943 94.755 197.001 95.1203 197.117 95.4414C197.237 95.7597 197.412 96.0112 197.642 96.196C197.875 96.3779 198.16 96.4688 198.499 96.4688ZM206.246 97.6199V88.889H207.789V92.1545H207.853C207.933 91.9954 208.045 91.8263 208.19 91.6472C208.335 91.4653 208.531 91.3104 208.778 91.1825C209.025 91.0518 209.341 90.9864 209.725 90.9864C210.23 90.9864 210.687 91.1157 211.093 91.3744C211.502 91.6302 211.826 92.0096 212.065 92.5126C212.307 93.0128 212.427 93.6267 212.427 94.3543C212.427 95.0734 212.309 95.6844 212.074 96.1875C211.838 96.6905 211.516 97.0742 211.11 97.3385C210.704 97.6028 210.243 97.735 209.729 97.735C209.354 97.735 209.042 97.6725 208.795 97.5474C208.548 97.4223 208.349 97.2717 208.198 97.0955C208.051 96.9165 207.935 96.7474 207.853 96.5882H207.763V97.6199H206.246ZM207.759 94.3458C207.759 94.7693 207.819 95.1401 207.938 95.4585C208.06 95.7768 208.235 96.0255 208.463 96.2045C208.693 96.3807 208.971 96.4688 209.298 96.4688C209.639 96.4688 209.925 96.3779 210.155 96.196C210.385 96.0112 210.559 95.7597 210.675 95.4414C210.795 95.1203 210.854 94.755 210.854 94.3458C210.854 93.9394 210.796 93.5784 210.679 93.2629C210.563 92.9475 210.39 92.7002 210.159 92.5212C209.929 92.3421 209.642 92.2526 209.298 92.2526C208.969 92.2526 208.689 92.3393 208.458 92.5126C208.228 92.686 208.053 92.929 207.934 93.2416C207.817 93.5543 207.759 93.9223 207.759 94.3458ZM214.476 100.075C214.265 100.075 214.071 100.058 213.892 100.024C213.716 99.993 213.575 99.9561 213.47 99.9134L213.828 98.7112C214.052 98.7766 214.253 98.8079 214.429 98.805C214.605 98.8022 214.76 98.7468 214.894 98.6388C215.03 98.5336 215.145 98.3574 215.239 98.1101L215.371 97.7563L212.996 91.0717H214.634L216.143 96.0169H216.211L217.724 91.0717H219.366L216.744 98.4128C216.622 98.7596 216.46 99.0566 216.258 99.3038C216.056 99.5539 215.809 99.7443 215.516 99.8751C215.226 100.009 214.879 100.075 214.476 100.075ZM222.883 88.889H224.669L226.805 92.7514H226.89L229.026 88.889H230.812L227.636 94.3628V97.6199H226.059V94.3628L222.883 88.889ZM237.713 91.0717L235.381 97.6199H233.676L231.344 91.0717H232.99L234.494 95.9359H234.563L236.072 91.0717H237.713ZM241.457 97.7478C240.801 97.7478 240.234 97.6113 239.756 97.3385C239.282 97.0628 238.916 96.6735 238.661 96.1704C238.405 95.6645 238.277 95.0691 238.277 94.3842C238.277 93.7106 238.405 93.1194 238.661 92.6107C238.919 92.0991 239.28 91.7012 239.743 91.417C240.207 91.13 240.751 90.9864 241.376 90.9864C241.78 90.9864 242.161 91.0518 242.519 91.1825C242.88 91.3104 243.198 91.5094 243.474 91.7794C243.752 92.0494 243.971 92.3933 244.13 92.8111C244.289 93.226 244.369 93.7205 244.369 94.2946V94.7678H239.002V93.7276H242.89C242.887 93.432 242.823 93.1692 242.698 92.9389C242.573 92.7059 242.398 92.5226 242.173 92.389C241.952 92.2554 241.693 92.1886 241.398 92.1886C241.082 92.1886 240.805 92.2654 240.566 92.4188C240.327 92.5695 240.141 92.7684 240.008 93.0157C239.877 93.2601 239.81 93.5287 239.807 93.8214V94.7295C239.807 95.1103 239.877 95.4371 240.016 95.71C240.156 95.98 240.35 96.1875 240.6 96.3324C240.85 96.4745 241.143 96.5456 241.479 96.5456C241.703 96.5456 241.906 96.5143 242.088 96.4518C242.27 96.3864 242.428 96.2912 242.561 96.1661C242.695 96.0411 242.796 95.8862 242.864 95.7015L244.305 95.8635C244.214 96.2443 244.041 96.5768 243.785 96.861C243.532 97.1424 243.208 97.3612 242.813 97.5176C242.418 97.671 241.966 97.7478 241.457 97.7478ZM250.85 92.8025L249.443 92.956C249.403 92.8139 249.334 92.6803 249.234 92.5553C249.138 92.4302 249.007 92.3293 248.842 92.2526C248.677 92.1758 248.475 92.1375 248.237 92.1375C247.915 92.1375 247.645 92.2071 247.427 92.3464C247.211 92.4856 247.104 92.6661 247.107 92.8878C247.104 93.0782 247.174 93.2331 247.316 93.3525C247.461 93.4718 247.699 93.5699 248.032 93.6466L249.149 93.8854C249.769 94.0189 250.229 94.2307 250.53 94.5206C250.834 94.8105 250.988 95.1899 250.991 95.6588C250.988 96.0709 250.867 96.4347 250.628 96.7502C250.392 97.0628 250.064 97.3072 249.643 97.4835C249.223 97.6597 248.74 97.7478 248.194 97.7478C247.393 97.7478 246.747 97.5801 246.259 97.2447C245.77 96.9065 245.478 96.4361 245.385 95.8336L246.889 95.6887C246.958 95.9842 247.103 96.2074 247.324 96.358C247.546 96.5086 247.834 96.5839 248.19 96.5839C248.556 96.5839 248.851 96.5086 249.072 96.358C249.297 96.2074 249.409 96.0212 249.409 95.7995C249.409 95.6119 249.337 95.457 249.192 95.3348C249.049 95.2126 248.828 95.1188 248.527 95.0535L247.41 94.819C246.782 94.6883 246.317 94.468 246.016 94.1582C245.714 93.8456 245.565 93.4505 245.568 92.9731C245.565 92.5695 245.675 92.2199 245.896 91.9243C246.121 91.6259 246.432 91.3957 246.83 91.2337C247.231 91.0688 247.692 90.9864 248.215 90.9864C248.983 90.9864 249.587 91.1498 250.027 91.4767C250.471 91.8035 250.745 92.2455 250.85 92.8025Z" fill="black" fill-opacity="0.85"/>
<path d="M277.245 97.6199V88.889H282.48V89.8269H278.302V92.7769H282.088V93.7148H278.302V97.6199H277.245ZM286.334 97.7563C285.743 97.7563 285.224 97.6156 284.778 97.3342C284.334 97.0529 283.988 96.6592 283.738 96.1534C283.49 95.6475 283.367 95.0563 283.367 94.3799C283.367 93.6978 283.49 93.1024 283.738 92.5936C283.988 92.0849 284.334 91.6898 284.778 91.4085C285.224 91.1271 285.743 90.9864 286.334 90.9864C286.925 90.9864 287.442 91.1271 287.886 91.4085C288.332 91.6898 288.678 92.0849 288.926 92.5936C289.176 93.1024 289.301 93.6978 289.301 94.3799C289.301 95.0563 289.176 95.6475 288.926 96.1534C288.678 96.6592 288.332 97.0529 287.886 97.3342C287.442 97.6156 286.925 97.7563 286.334 97.7563ZM286.334 96.8525C286.783 96.8525 287.152 96.7374 287.442 96.5072C287.732 96.277 287.947 95.9743 288.086 95.5991C288.225 95.224 288.295 94.8176 288.295 94.3799C288.295 93.9422 288.225 93.5344 288.086 93.1564C287.947 92.7784 287.732 92.4728 287.442 92.2398C287.152 92.0067 286.783 91.8902 286.334 91.8902C285.885 91.8902 285.515 92.0067 285.225 92.2398C284.935 92.4728 284.721 92.7784 284.582 93.1564C284.442 93.5344 284.373 93.9422 284.373 94.3799C284.373 94.8176 284.442 95.224 284.582 95.5991C284.721 95.9743 284.935 96.277 285.225 96.5072C285.515 96.7374 285.885 96.8525 286.334 96.8525ZM294.963 94.9426V91.0717H295.97V97.6199H294.963V96.5115H294.895C294.742 96.844 294.503 97.1268 294.179 97.3598C293.855 97.59 293.446 97.7051 292.951 97.7051C292.542 97.7051 292.178 97.6156 291.86 97.4366C291.542 97.2547 291.291 96.9818 291.11 96.618C290.928 96.2514 290.837 95.7896 290.837 95.2325V91.0717H291.843V95.1643C291.843 95.6418 291.976 96.0226 292.244 96.3068C292.514 96.591 292.857 96.7331 293.275 96.7331C293.525 96.7331 293.78 96.6692 294.038 96.5413C294.3 96.4134 294.519 96.2173 294.695 95.953C294.874 95.6887 294.963 95.3519 294.963 94.9426ZM298.818 93.6807V97.6199H297.812V91.0717H298.784V92.0948H298.87C299.023 91.7623 299.256 91.4952 299.569 91.2934C299.881 91.0887 300.285 90.9864 300.779 90.9864C301.223 90.9864 301.611 91.0774 301.943 91.2593C302.276 91.4383 302.534 91.7112 302.719 92.0778C302.904 92.4416 302.996 92.902 302.996 93.459V97.6199H301.99V93.5273C301.99 93.0128 301.857 92.6121 301.589 92.3251C301.322 92.0352 300.956 91.8902 300.49 91.8902C300.168 91.8902 299.881 91.9598 299.628 92.0991C299.378 92.2384 299.181 92.4416 299.036 92.7087C298.891 92.9759 298.818 93.2999 298.818 93.6807ZM307.307 97.7563C306.762 97.7563 306.28 97.6185 305.862 97.3428C305.444 97.0642 305.118 96.672 304.882 96.1661C304.646 95.6574 304.528 95.0563 304.528 94.3628C304.528 93.675 304.646 93.0782 304.882 92.5723C305.118 92.0664 305.446 91.6756 305.866 91.4C306.287 91.1243 306.773 90.9864 307.324 90.9864C307.751 90.9864 308.088 91.0575 308.335 91.1996C308.585 91.3388 308.775 91.498 308.906 91.6771C309.04 91.8533 309.143 91.9982 309.217 92.1119H309.303V88.889H310.309V97.6199H309.337V96.6138H309.217C309.143 96.7331 309.038 96.8838 308.902 97.0657C308.765 97.2447 308.571 97.4053 308.318 97.5474C308.065 97.6867 307.728 97.7563 307.307 97.7563ZM307.444 96.8525C307.847 96.8525 308.188 96.7474 308.467 96.537C308.745 96.3239 308.957 96.0297 309.102 95.6546C309.247 95.2766 309.32 94.8403 309.32 94.3458C309.32 93.8569 309.249 93.4292 309.106 93.0626C308.964 92.6931 308.754 92.4061 308.475 92.2014C308.197 91.994 307.853 91.8902 307.444 91.8902C307.017 91.8902 306.662 91.9996 306.378 92.2185C306.097 92.4345 305.885 92.7286 305.743 93.1009C305.604 93.4704 305.534 93.8854 305.534 94.3458C305.534 94.8119 305.605 95.2354 305.747 95.6162C305.892 95.9942 306.105 96.2955 306.387 96.52C306.671 96.7417 307.023 96.8525 307.444 96.8525ZM314.218 97.7733C313.803 97.7733 313.426 97.6952 313.088 97.5389C312.75 97.3797 312.481 97.1509 312.282 96.8525C312.083 96.5512 311.984 96.1875 311.984 95.7611C311.984 95.386 312.058 95.0819 312.206 94.8488C312.353 94.6129 312.551 94.4282 312.798 94.2946C313.046 94.161 313.318 94.0616 313.617 93.9962C313.918 93.928 314.221 93.874 314.525 93.8342C314.923 93.783 315.245 93.7447 315.493 93.7191C315.743 93.6907 315.925 93.6438 316.038 93.5784C316.155 93.513 316.213 93.3994 316.213 93.2374V93.2033C316.213 92.7826 316.098 92.4558 315.868 92.2227C315.64 91.9897 315.295 91.8732 314.832 91.8732C314.351 91.8732 313.975 91.9783 313.702 92.1886C313.429 92.3989 313.237 92.6235 313.127 92.8622L312.172 92.5212C312.342 92.1233 312.569 91.8135 312.854 91.5918C313.141 91.3673 313.453 91.211 313.792 91.1228C314.133 91.0319 314.468 90.9864 314.798 90.9864C315.008 90.9864 315.25 91.012 315.522 91.0632C315.798 91.1115 316.064 91.2124 316.32 91.3658C316.578 91.5193 316.793 91.751 316.963 92.0607C317.134 92.3705 317.219 92.7855 317.219 93.3056V97.6199H316.213V96.7331H316.162C316.094 96.8752 315.98 97.0273 315.821 97.1893C315.662 97.3513 315.45 97.4891 315.186 97.6028C314.921 97.7165 314.599 97.7733 314.218 97.7733ZM314.371 96.8696C314.769 96.8696 315.105 96.7914 315.377 96.6351C315.653 96.4788 315.861 96.277 316 96.0297C316.142 95.7825 316.213 95.5224 316.213 95.2496V94.3287C316.17 94.3799 316.077 94.4268 315.932 94.4694C315.79 94.5092 315.625 94.5447 315.437 94.576C315.252 94.6044 315.072 94.63 314.896 94.6527C314.722 94.6726 314.582 94.6897 314.474 94.7039C314.212 94.738 313.968 94.7934 313.74 94.8701C313.516 94.944 313.334 95.0563 313.195 95.2069C313.058 95.3547 312.99 95.5565 312.99 95.8123C312.99 96.1619 313.119 96.4262 313.378 96.6052C313.64 96.7815 313.971 96.8696 314.371 96.8696ZM321.903 91.0717V91.9243H318.51V91.0717H321.903ZM319.499 89.5029H320.505V95.7441C320.505 96.0283 320.546 96.2415 320.629 96.3836C320.714 96.5228 320.822 96.6166 320.953 96.6649C321.086 96.7104 321.227 96.7331 321.375 96.7331C321.485 96.7331 321.576 96.7275 321.647 96.7161C321.719 96.7019 321.775 96.6905 321.818 96.682L322.023 97.5858C321.954 97.6113 321.859 97.6369 321.737 97.6625C321.615 97.6909 321.46 97.7051 321.272 97.7051C320.988 97.7051 320.71 97.644 320.437 97.5218C320.167 97.3996 319.942 97.2135 319.763 96.9633C319.587 96.7132 319.499 96.3978 319.499 96.0169V89.5029ZM323.417 97.6199V91.0717H324.423V97.6199H323.417ZM323.928 89.9803C323.732 89.9803 323.563 89.9135 323.421 89.78C323.282 89.6464 323.212 89.4858 323.212 89.2982C323.212 89.1106 323.282 88.9501 323.421 88.8165C323.563 88.6829 323.732 88.6161 323.928 88.6161C324.124 88.6161 324.292 88.6829 324.431 88.8165C324.573 88.9501 324.644 89.1106 324.644 89.2982C324.644 89.4858 324.573 89.6464 324.431 89.78C324.292 89.9135 324.124 89.9803 323.928 89.9803ZM328.926 97.7563C328.335 97.7563 327.816 97.6156 327.37 97.3342C326.926 97.0529 326.58 96.6592 326.329 96.1534C326.082 95.6475 325.959 95.0563 325.959 94.3799C325.959 93.6978 326.082 93.1024 326.329 92.5936C326.58 92.0849 326.926 91.6898 327.37 91.4085C327.816 91.1271 328.335 90.9864 328.926 90.9864C329.517 90.9864 330.034 91.1271 330.478 91.4085C330.924 91.6898 331.27 92.0849 331.518 92.5936C331.768 93.1024 331.893 93.6978 331.893 94.3799C331.893 95.0563 331.768 95.6475 331.518 96.1534C331.27 96.6592 330.924 97.0529 330.478 97.3342C330.034 97.6156 329.517 97.7563 328.926 97.7563ZM328.926 96.8525C329.375 96.8525 329.744 96.7374 330.034 96.5072C330.324 96.277 330.539 95.9743 330.678 95.5991C330.817 95.224 330.887 94.8176 330.887 94.3799C330.887 93.9422 330.817 93.5344 330.678 93.1564C330.539 92.7784 330.324 92.4728 330.034 92.2398C329.744 92.0067 329.375 91.8902 328.926 91.8902C328.477 91.8902 328.107 92.0067 327.817 92.2398C327.527 92.4728 327.313 92.7784 327.174 93.1564C327.034 93.5344 326.965 93.9422 326.965 94.3799C326.965 94.8176 327.034 95.224 327.174 95.5991C327.313 95.9743 327.527 96.277 327.817 96.5072C328.107 96.7374 328.477 96.8525 328.926 96.8525ZM334.435 93.6807V97.6199H333.429V91.0717H334.401V92.0948H334.486C334.639 91.7623 334.872 91.4952 335.185 91.2934C335.498 91.0887 335.901 90.9864 336.396 90.9864C336.839 90.9864 337.227 91.0774 337.56 91.2593C337.892 91.4383 338.151 91.7112 338.336 92.0778C338.52 92.4416 338.613 92.902 338.613 93.459V97.6199H337.607V93.5273C337.607 93.0128 337.473 92.6121 337.206 92.3251C336.939 92.0352 336.572 91.8902 336.106 91.8902C335.785 91.8902 335.498 91.9598 335.245 92.0991C334.995 92.2384 334.797 92.4416 334.652 92.7087C334.507 92.9759 334.435 93.2999 334.435 93.6807ZM342.378 97.7733C341.963 97.7733 341.587 97.6952 341.248 97.5389C340.91 97.3797 340.642 97.1509 340.443 96.8525C340.244 96.5512 340.144 96.1875 340.144 95.7611C340.144 95.386 340.218 95.0819 340.366 94.8488C340.514 94.6129 340.711 94.4282 340.958 94.2946C341.206 94.161 341.479 94.0616 341.777 93.9962C342.078 93.928 342.381 93.874 342.685 93.8342C343.083 93.783 343.405 93.7447 343.653 93.7191C343.903 93.6907 344.085 93.6438 344.198 93.5784C344.315 93.513 344.373 93.3994 344.373 93.2374V93.2033C344.373 92.7826 344.258 92.4558 344.028 92.2227C343.801 91.9897 343.455 91.8732 342.992 91.8732C342.512 91.8732 342.135 91.9783 341.862 92.1886C341.589 92.3989 341.398 92.6235 341.287 92.8622L340.332 92.5212C340.502 92.1233 340.73 91.8135 341.014 91.5918C341.301 91.3673 341.614 91.211 341.952 91.1228C342.293 91.0319 342.628 90.9864 342.958 90.9864C343.168 90.9864 343.41 91.012 343.683 91.0632C343.958 91.1115 344.224 91.2124 344.48 91.3658C344.738 91.5193 344.953 91.751 345.124 92.0607C345.294 92.3705 345.379 92.7855 345.379 93.3056V97.6199H344.373V96.7331H344.322C344.254 96.8752 344.14 97.0273 343.981 97.1893C343.822 97.3513 343.61 97.4891 343.346 97.6028C343.081 97.7165 342.759 97.7733 342.378 97.7733ZM342.532 96.8696C342.929 96.8696 343.265 96.7914 343.538 96.6351C343.813 96.4788 344.021 96.277 344.16 96.0297C344.302 95.7825 344.373 95.5224 344.373 95.2496V94.3287C344.331 94.3799 344.237 94.4268 344.092 94.4694C343.95 94.5092 343.785 94.5447 343.597 94.576C343.413 94.6044 343.232 94.63 343.056 94.6527C342.883 94.6726 342.742 94.6897 342.634 94.7039C342.372 94.738 342.128 94.7934 341.901 94.8701C341.676 94.944 341.494 95.0563 341.355 95.2069C341.218 95.3547 341.15 95.5565 341.15 95.8123C341.15 96.1619 341.28 96.4262 341.538 96.6052C341.8 96.7815 342.131 96.8696 342.532 96.8696ZM348.222 88.889V97.6199H347.216V88.889H348.222ZM353.577 97.6199V88.889H354.583V92.1119H354.669C354.743 91.9982 354.845 91.8533 354.976 91.6771C355.109 91.498 355.3 91.3388 355.547 91.1996C355.797 91.0575 356.135 90.9864 356.562 90.9864C357.113 90.9864 357.599 91.1243 358.02 91.4C358.44 91.6756 358.768 92.0664 359.004 92.5723C359.24 93.0782 359.358 93.675 359.358 94.3628C359.358 95.0563 359.24 95.6574 359.004 96.1661C358.768 96.672 358.442 97.0642 358.024 97.3428C357.606 97.6185 357.124 97.7563 356.579 97.7563C356.158 97.7563 355.821 97.6867 355.568 97.5474C355.315 97.4053 355.121 97.2447 354.984 97.0657C354.848 96.8838 354.743 96.7331 354.669 96.6138H354.549V97.6199H353.577ZM354.566 94.3458C354.566 94.8403 354.639 95.2766 354.784 95.6546C354.929 96.0297 355.14 96.3239 355.419 96.537C355.698 96.7474 356.039 96.8525 356.442 96.8525C356.863 96.8525 357.214 96.7417 357.495 96.52C357.779 96.2955 357.993 95.9942 358.135 95.6162C358.28 95.2354 358.352 94.8119 358.352 94.3458C358.352 93.8854 358.281 93.4704 358.139 93.1009C358 92.7286 357.788 92.4345 357.504 92.2185C357.222 91.9996 356.868 91.8902 356.442 91.8902C356.033 91.8902 355.689 91.994 355.41 92.2014C355.132 92.4061 354.922 92.6931 354.78 93.0626C354.637 93.4292 354.566 93.8569 354.566 94.3458ZM365.024 94.9426V91.0717H366.03V97.6199H365.024V96.5115H364.956C364.802 96.844 364.563 97.1268 364.239 97.3598C363.915 97.59 363.506 97.7051 363.012 97.7051C362.602 97.7051 362.239 97.6156 361.92 97.4366C361.602 97.2547 361.352 96.9818 361.17 96.618C360.988 96.2514 360.897 95.7896 360.897 95.2325V91.0717H361.903V95.1643C361.903 95.6418 362.037 96.0226 362.304 96.3068C362.574 96.591 362.918 96.7331 363.336 96.7331C363.586 96.7331 363.84 96.6692 364.099 96.5413C364.36 96.4134 364.579 96.2173 364.755 95.953C364.934 95.6887 365.024 95.3519 365.024 94.9426ZM367.873 97.6199V91.0717H368.879V97.6199H367.873ZM368.384 89.9803C368.188 89.9803 368.019 89.9135 367.877 89.78C367.738 89.6464 367.668 89.4858 367.668 89.2982C367.668 89.1106 367.738 88.9501 367.877 88.8165C368.019 88.6829 368.188 88.6161 368.384 88.6161C368.58 88.6161 368.748 88.6829 368.887 88.8165C369.029 88.9501 369.1 89.1106 369.1 89.2982C369.1 89.4858 369.029 89.6464 368.887 89.78C368.748 89.9135 368.58 89.9803 368.384 89.9803ZM371.728 88.889V97.6199H370.722V88.889H371.728ZM376.043 97.7563C375.497 97.7563 375.016 97.6185 374.598 97.3428C374.18 97.0642 373.853 96.672 373.617 96.1661C373.381 95.6574 373.263 95.0563 373.263 94.3628C373.263 93.675 373.381 93.0782 373.617 92.5723C373.853 92.0664 374.181 91.6756 374.602 91.4C375.023 91.1243 375.509 90.9864 376.06 90.9864C376.486 90.9864 376.823 91.0575 377.07 91.1996C377.321 91.3388 377.511 91.498 377.642 91.6771C377.775 91.8533 377.879 91.9982 377.953 92.1119H378.038V88.889H379.044V97.6199H378.072V96.6138H377.953C377.879 96.7331 377.774 96.8838 377.637 97.0657C377.501 97.2447 377.306 97.4053 377.053 97.5474C376.8 97.6867 376.464 97.7563 376.043 97.7563ZM376.179 96.8525C376.583 96.8525 376.924 96.7474 377.203 96.537C377.481 96.3239 377.693 96.0297 377.838 95.6546C377.983 95.2766 378.055 94.8403 378.055 94.3458C378.055 93.8569 377.984 93.4292 377.842 93.0626C377.7 92.6931 377.49 92.4061 377.211 92.2014C376.933 91.994 376.589 91.8902 376.179 91.8902C375.753 91.8902 375.398 91.9996 375.114 92.2185C374.832 92.4345 374.621 92.7286 374.478 93.1009C374.339 93.4704 374.27 93.8854 374.27 94.3458C374.27 94.8119 374.341 95.2354 374.483 95.6162C374.628 95.9942 374.841 96.2955 375.122 96.52C375.406 96.7417 375.759 96.8525 376.179 96.8525ZM381.027 97.6199V91.0717H382.033V97.6199H381.027ZM381.538 89.9803C381.342 89.9803 381.173 89.9135 381.031 89.78C380.892 89.6464 380.822 89.4858 380.822 89.2982C380.822 89.1106 380.892 88.9501 381.031 88.8165C381.173 88.6829 381.342 88.6161 381.538 88.6161C381.734 88.6161 381.902 88.6829 382.041 88.8165C382.183 88.9501 382.254 89.1106 382.254 89.2982C382.254 89.4858 382.183 89.6464 382.041 89.78C381.902 89.9135 381.734 89.9803 381.538 89.9803ZM384.882 93.6807V97.6199H383.875V91.0717H384.847V92.0948H384.933C385.086 91.7623 385.319 91.4952 385.632 91.2934C385.945 91.0887 386.348 90.9864 386.843 90.9864C387.286 90.9864 387.674 91.0774 388.006 91.2593C388.339 91.4383 388.598 91.7112 388.782 92.0778C388.967 92.4416 389.059 92.902 389.059 93.459V97.6199H388.053V93.5273C388.053 93.0128 387.92 92.6121 387.653 92.3251C387.385 92.0352 387.019 91.8902 386.553 91.8902C386.232 91.8902 385.945 91.9598 385.692 92.0991C385.441 92.2384 385.244 92.4416 385.099 92.7087C384.954 92.9759 384.882 93.2999 384.882 93.6807ZM393.541 100.212C393.055 100.212 392.637 100.149 392.288 100.024C391.938 99.9021 391.647 99.7401 391.414 99.5383C391.184 99.3393 391 99.1262 390.864 98.8988L391.665 98.3361C391.756 98.4554 391.871 98.5919 392.011 98.7453C392.15 98.9017 392.34 99.0367 392.582 99.1503C392.826 99.2669 393.146 99.3251 393.541 99.3251C394.07 99.3251 394.506 99.1972 394.85 98.9414C395.194 98.6857 395.366 98.2849 395.366 97.7392V96.4091H395.28C395.207 96.5285 395.101 96.6763 394.965 96.8525C394.831 97.0259 394.638 97.1808 394.385 97.3172C394.135 97.4508 393.797 97.5176 393.371 97.5176C392.842 97.5176 392.367 97.3925 391.947 97.1424C391.529 96.8923 391.198 96.5285 390.953 96.051C390.712 95.5736 390.591 94.9938 390.591 94.3117C390.591 93.6409 390.709 93.0569 390.945 92.5595C391.181 92.0593 391.509 91.6728 391.93 91.4C392.35 91.1243 392.836 90.9864 393.388 90.9864C393.814 90.9864 394.152 91.0575 394.402 91.1996C394.655 91.3388 394.848 91.498 394.982 91.6771C395.118 91.8533 395.224 91.9982 395.297 92.1119H395.4V91.0717H396.372V97.8075C396.372 98.3702 396.244 98.8278 395.988 99.1802C395.735 99.5354 395.394 99.7955 394.965 99.9603C394.539 100.128 394.064 100.212 393.541 100.212ZM393.507 96.6138C393.911 96.6138 394.252 96.5214 394.53 96.3367C394.809 96.1519 395.02 95.8862 395.165 95.5395C395.31 95.1927 395.383 94.7778 395.383 94.2946C395.383 93.8228 395.312 93.4065 395.17 93.0455C395.027 92.6846 394.817 92.4018 394.539 92.1972C394.26 91.9925 393.916 91.8902 393.507 91.8902C393.081 91.8902 392.725 91.9982 392.441 92.2142C392.16 92.4302 391.948 92.7201 391.806 93.0839C391.667 93.4477 391.597 93.8513 391.597 94.2946C391.597 94.7494 391.668 95.1515 391.81 95.5011C391.955 95.8478 392.168 96.1207 392.45 96.3196C392.734 96.5157 393.086 96.6138 393.507 96.6138ZM401.726 97.6199V88.889H402.732V92.1119H402.818C402.892 91.9982 402.994 91.8533 403.125 91.6771C403.258 91.498 403.449 91.3388 403.696 91.1996C403.946 91.0575 404.284 90.9864 404.71 90.9864C405.262 90.9864 405.748 91.1243 406.168 91.4C406.589 91.6756 406.917 92.0664 407.153 92.5723C407.389 93.0782 407.507 93.675 407.507 94.3628C407.507 95.0563 407.389 95.6574 407.153 96.1661C406.917 96.672 406.591 97.0642 406.173 97.3428C405.755 97.6185 405.273 97.7563 404.728 97.7563C404.307 97.7563 403.97 97.6867 403.717 97.5474C403.464 97.4053 403.27 97.2447 403.133 97.0657C402.997 96.8838 402.892 96.7331 402.818 96.6138H402.698V97.6199H401.726ZM402.715 94.3458C402.715 94.8403 402.788 95.2766 402.933 95.6546C403.078 96.0297 403.289 96.3239 403.568 96.537C403.846 96.7474 404.188 96.8525 404.591 96.8525C405.012 96.8525 405.363 96.7417 405.644 96.52C405.928 96.2955 406.141 95.9942 406.284 95.6162C406.429 95.2354 406.501 94.8119 406.501 94.3458C406.501 93.8854 406.43 93.4704 406.288 93.1009C406.149 92.7286 405.937 92.4345 405.653 92.2185C405.371 91.9996 405.017 91.8902 404.591 91.8902C404.182 91.8902 403.838 91.994 403.559 92.2014C403.281 92.4061 403.071 92.6931 402.929 93.0626C402.786 93.4292 402.715 93.8569 402.715 94.3458ZM410.052 88.889V97.6199H409.046V88.889H410.052ZM414.555 97.7563C413.964 97.7563 413.445 97.6156 412.999 97.3342C412.556 97.0529 412.209 96.6592 411.959 96.1534C411.712 95.6475 411.588 95.0563 411.588 94.3799C411.588 93.6978 411.712 93.1024 411.959 92.5936C412.209 92.0849 412.556 91.6898 412.999 91.4085C413.445 91.1271 413.964 90.9864 414.555 90.9864C415.146 90.9864 415.664 91.1271 416.107 91.4085C416.553 91.6898 416.9 92.0849 417.147 92.5936C417.397 93.1024 417.522 93.6978 417.522 94.3799C417.522 95.0563 417.397 95.6475 417.147 96.1534C416.9 96.6592 416.553 97.0529 416.107 97.3342C415.664 97.6156 415.146 97.7563 414.555 97.7563ZM414.555 96.8525C415.004 96.8525 415.374 96.7374 415.664 96.5072C415.953 96.277 416.168 95.9743 416.307 95.5991C416.447 95.224 416.516 94.8176 416.516 94.3799C416.516 93.9422 416.447 93.5344 416.307 93.1564C416.168 92.7784 415.953 92.4728 415.664 92.2398C415.374 92.0067 415.004 91.8902 414.555 91.8902C414.106 91.8902 413.737 92.0067 413.447 92.2398C413.157 92.4728 412.942 92.7784 412.803 93.1564C412.664 93.5344 412.594 93.9422 412.594 94.3799C412.594 94.8176 412.664 95.224 412.803 95.5991C412.942 95.9743 413.157 96.277 413.447 96.5072C413.737 96.7374 414.106 96.8525 414.555 96.8525ZM421.718 97.7563C421.104 97.7563 420.576 97.6113 420.132 97.3215C419.689 97.0316 419.348 96.6322 419.109 96.1235C418.871 95.6148 418.751 95.0336 418.751 94.3799C418.751 93.7148 418.873 93.1279 419.118 92.6192C419.365 92.1076 419.709 91.7083 420.149 91.4213C420.593 91.1314 421.11 90.9864 421.701 90.9864C422.162 90.9864 422.577 91.0717 422.946 91.2422C423.316 91.4127 423.618 91.6515 423.854 91.9584C424.09 92.2654 424.236 92.6235 424.293 93.0327H423.287C423.21 92.7343 423.04 92.47 422.776 92.2398C422.514 92.0067 422.162 91.8902 421.718 91.8902C421.326 91.8902 420.982 91.9925 420.687 92.1972C420.394 92.3989 420.165 92.6846 420 93.0541C419.838 93.4207 419.757 93.8513 419.757 94.3458C419.757 94.8517 419.837 95.2922 419.996 95.6674C420.158 96.0425 420.385 96.3338 420.678 96.5413C420.974 96.7488 421.32 96.8525 421.718 96.8525C421.98 96.8525 422.217 96.807 422.43 96.7161C422.643 96.6251 422.824 96.4944 422.972 96.3239C423.119 96.1534 423.225 95.9487 423.287 95.71H424.293C424.236 96.0965 424.096 96.4447 423.871 96.7545C423.649 97.0614 423.355 97.3058 422.989 97.4877C422.625 97.6668 422.201 97.7563 421.718 97.7563ZM426.702 95.2325L426.685 93.9877H426.889L429.754 91.0717H430.999L427.947 94.1582H427.861L426.702 95.2325ZM425.764 97.6199V88.889H426.77V97.6199H425.764ZM429.925 97.6199L427.367 94.3799L428.083 93.6807L431.204 97.6199H429.925ZM436.932 92.5382L436.029 92.794C435.972 92.6434 435.888 92.497 435.777 92.3549C435.669 92.2099 435.521 92.0906 435.334 91.9968C435.146 91.903 434.906 91.8561 434.613 91.8561C434.212 91.8561 433.879 91.9485 433.611 92.1332C433.347 92.3151 433.215 92.5467 433.215 92.8281C433.215 93.0782 433.306 93.2757 433.488 93.4207C433.67 93.5656 433.954 93.6864 434.34 93.783L435.312 94.0218C435.898 94.1639 436.334 94.3813 436.621 94.674C436.908 94.9639 437.052 95.3377 437.052 95.7952C437.052 96.1704 436.944 96.5058 436.728 96.8014C436.515 97.0969 436.216 97.33 435.832 97.5005C435.449 97.671 435.003 97.7563 434.494 97.7563C433.826 97.7563 433.273 97.6113 432.835 97.3215C432.398 97.0316 432.121 96.6081 432.004 96.051L432.959 95.8123C433.05 96.1647 433.222 96.429 433.475 96.6052C433.731 96.7815 434.065 96.8696 434.477 96.8696C434.946 96.8696 435.318 96.7701 435.594 96.5711C435.872 96.3694 436.012 96.1278 436.012 95.8464C436.012 95.619 435.932 95.4286 435.773 95.2751C435.614 95.1188 435.369 95.0023 435.04 94.9256L433.948 94.6698C433.348 94.5277 432.908 94.3074 432.627 94.009C432.348 93.7077 432.209 93.3312 432.209 92.8793C432.209 92.5098 432.313 92.1829 432.52 91.8987C432.73 91.6145 433.016 91.3914 433.377 91.2294C433.741 91.0674 434.153 90.9864 434.613 90.9864C435.261 90.9864 435.77 91.1285 436.139 91.4127C436.512 91.697 436.776 92.0721 436.932 92.5382ZM444.859 91.0717V91.9243H441.329V91.0717H444.859ZM442.386 97.6199V90.1679C442.386 89.7927 442.474 89.4801 442.65 89.23C442.827 88.9799 443.055 88.7923 443.337 88.6673C443.618 88.5422 443.915 88.4797 444.228 88.4797C444.475 88.4797 444.677 88.4996 444.833 88.5394C444.989 88.5792 445.106 88.6161 445.183 88.6502L444.893 89.5199C444.842 89.5029 444.77 89.4815 444.68 89.456C444.591 89.4304 444.475 89.4176 444.33 89.4176C443.997 89.4176 443.757 89.5014 443.609 89.6691C443.465 89.8368 443.392 90.0826 443.392 90.4066V97.6199H442.386ZM448.659 97.7563C448.068 97.7563 447.549 97.6156 447.103 97.3342C446.66 97.0529 446.313 96.6592 446.063 96.1534C445.816 95.6475 445.692 95.0563 445.692 94.3799C445.692 93.6978 445.816 93.1024 446.063 92.5936C446.313 92.0849 446.66 91.6898 447.103 91.4085C447.549 91.1271 448.068 90.9864 448.659 90.9864C449.25 90.9864 449.768 91.1271 450.211 91.4085C450.657 91.6898 451.004 92.0849 451.251 92.5936C451.501 93.1024 451.626 93.6978 451.626 94.3799C451.626 95.0563 451.501 95.6475 451.251 96.1534C451.004 96.6592 450.657 97.0529 450.211 97.3342C449.768 97.6156 449.25 97.7563 448.659 97.7563ZM448.659 96.8525C449.108 96.8525 449.478 96.7374 449.768 96.5072C450.058 96.277 450.272 95.9743 450.411 95.5991C450.551 95.224 450.62 94.8176 450.62 94.3799C450.62 93.9422 450.551 93.5344 450.411 93.1564C450.272 92.7784 450.058 92.4728 449.768 92.2398C449.478 92.0067 449.108 91.8902 448.659 91.8902C448.21 91.8902 447.841 92.0067 447.551 92.2398C447.261 92.4728 447.046 92.7784 446.907 93.1564C446.768 93.5344 446.698 93.9422 446.698 94.3799C446.698 94.8176 446.768 95.224 446.907 95.5991C447.046 95.9743 447.261 96.277 447.551 96.5072C447.841 96.7374 448.21 96.8525 448.659 96.8525ZM453.162 97.6199V91.0717H454.134V92.0607H454.202C454.322 91.7367 454.538 91.4738 454.85 91.2721C455.163 91.0703 455.515 90.9694 455.908 90.9694C455.981 90.9694 456.074 90.9708 456.185 90.9736C456.296 90.9765 456.379 90.9807 456.436 90.9864V92.0096C456.402 92.0011 456.324 91.9883 456.202 91.9712C456.082 91.9513 455.956 91.9414 455.822 91.9414C455.504 91.9414 455.22 92.0082 454.97 92.1417C454.722 92.2725 454.526 92.4544 454.381 92.6874C454.239 92.9176 454.168 93.1805 454.168 93.4761V97.6199H453.162ZM466.871 88.889H467.929V94.6698C467.929 95.2666 467.788 95.7995 467.507 96.2685C467.228 96.7346 466.834 97.1026 466.326 97.3726C465.817 97.6398 465.22 97.7733 464.535 97.7733C463.85 97.7733 463.253 97.6398 462.745 97.3726C462.236 97.1026 461.841 96.7346 461.559 96.2685C461.281 95.7995 461.142 95.2666 461.142 94.6698V88.889H462.199V94.5845C462.199 95.0108 462.293 95.3903 462.48 95.7228C462.668 96.0525 462.935 96.3125 463.282 96.5029C463.631 96.6905 464.049 96.7843 464.535 96.7843C465.021 96.7843 465.439 96.6905 465.788 96.5029C466.138 96.3125 466.405 96.0525 466.59 95.7228C466.778 95.3903 466.871 95.0108 466.871 94.5845V88.889ZM471.097 88.889V97.6199H470.04V88.889H471.097Z" fill="white"/>
</g>
</g>
<defs>
<linearGradient id="paint0_linear_122_20948" x1="81.9157" y1="24.4377" x2="76.6485" y2="15.1243" gradientUnits="userSpaceOnUse">
<stop stop-color="white" stop-opacity="0.4"/>
<stop offset="0.9228" stop-color="white"/>
</linearGradient>
<clipPath id="clip0_122_20948">
<path d="M0 12C0 5.37259 5.37258 0 12 0H674C680.627 0 686 5.37258 686 12V108C686 114.627 680.627 120 674 120H12C5.37258 120 0 114.627 0 108V12Z" fill="white"/>
</clipPath>
<clipPath id="clip1_122_20948">
<rect width="686" height="411.6" fill="white" transform="translate(0 -76)"/>
</clipPath>
</defs>
</svg>
