<svg width="1552" height="100" viewBox="0 0 1552 100" fill="none" xmlns="http://www.w3.org/2000/svg">
<g filter="url(#filter0_d_122_20900)">
<rect x="10" y="10" width="1532" height="80" rx="16" fill="white" shape-rendering="crispEdges"/>
<path d="M563.375 58.5L566.239 41.0455H569.648L566.784 58.5H563.375ZM555.636 54.5114L556.216 51.1023H570.261L569.682 54.5114H555.636ZM557.239 58.5L560.102 41.0455H563.511L560.648 58.5H557.239ZM556.625 48.4432L557.205 45.0341H571.25L570.67 48.4432H556.625ZM576.581 41.0455H581.865L585.274 48.1364H585.411L588.82 41.0455H594.104L587.695 53.0114V58.5H582.99V53.0114L576.581 41.0455ZM608.91 45.4091L604.512 58.5H599.058L594.66 45.4091H599.603L601.717 54.0682H601.853L603.967 45.4091H608.91ZM616.122 58.7386C614.724 58.7386 613.52 58.4716 612.509 57.9375C611.503 57.3977 610.727 56.625 610.182 55.6193C609.642 54.608 609.372 53.3977 609.372 51.9886C609.372 50.6364 609.645 49.4545 610.19 48.4432C610.736 47.4318 611.506 46.6449 612.5 46.0824C613.494 45.5199 614.668 45.2386 616.02 45.2386C617.009 45.2386 617.903 45.392 618.705 45.6989C619.506 46.0057 620.19 46.4517 620.759 47.0369C621.327 47.6165 621.764 48.321 622.071 49.1506C622.378 49.9801 622.531 50.9148 622.531 51.9545V53.0455H610.838V50.4545H618.202C618.196 50.0795 618.099 49.75 617.912 49.4659C617.73 49.1761 617.483 48.9517 617.17 48.7926C616.864 48.6278 616.514 48.5455 616.122 48.5455C615.741 48.5455 615.392 48.6278 615.074 48.7926C614.756 48.9517 614.5 49.1733 614.307 49.4574C614.119 49.7415 614.02 50.0739 614.009 50.4545V53.25C614.009 53.6705 614.097 54.0455 614.273 54.375C614.449 54.7045 614.702 54.9631 615.031 55.1506C615.361 55.3381 615.759 55.4318 616.224 55.4318C616.548 55.4318 616.844 55.3864 617.111 55.2955C617.384 55.2045 617.616 55.0739 617.81 54.9034C618.003 54.7273 618.145 54.517 618.236 54.2727H622.531C622.384 55.1818 622.034 55.9716 621.483 56.642C620.932 57.3068 620.202 57.8239 619.293 58.1932C618.389 58.5568 617.332 58.7386 616.122 58.7386ZM636.417 49.6705H632.087C632.065 49.4034 631.971 49.1733 631.806 48.9801C631.641 48.7869 631.428 48.6392 631.167 48.5369C630.911 48.429 630.627 48.375 630.315 48.375C629.911 48.375 629.565 48.4489 629.275 48.5966C628.985 48.7443 628.843 48.9545 628.849 49.2273C628.843 49.4205 628.925 49.5994 629.096 49.7642C629.272 49.929 629.61 50.0568 630.11 50.1477L632.769 50.625C634.11 50.8693 635.107 51.2812 635.761 51.8608C636.42 52.4347 636.752 53.2045 636.758 54.1705C636.752 55.1023 636.474 55.9119 635.923 56.5994C635.377 57.2812 634.63 57.8097 633.681 58.1847C632.738 58.554 631.661 58.7386 630.451 58.7386C628.451 58.7386 626.886 58.3295 625.755 57.5114C624.63 56.6932 624.002 55.6136 623.871 54.2727H628.542C628.604 54.6875 628.809 55.0085 629.156 55.2358C629.508 55.4574 629.951 55.5682 630.485 55.5682C630.917 55.5682 631.272 55.4943 631.55 55.3466C631.835 55.1989 631.979 54.9886 631.985 54.7159C631.979 54.4659 631.854 54.267 631.61 54.1193C631.371 53.9716 630.996 53.8523 630.485 53.7614L628.167 53.3523C626.832 53.1193 625.832 52.6761 625.167 52.0227C624.502 51.3693 624.173 50.5284 624.178 49.5C624.173 48.5909 624.411 47.821 624.894 47.1903C625.383 46.554 626.079 46.071 626.982 45.7415C627.891 45.4062 628.968 45.2386 630.212 45.2386C632.104 45.2386 633.596 45.6307 634.687 46.4148C635.783 47.1989 636.36 48.2841 636.417 49.6705ZM649.989 58.5H643.273V41.0455H649.921C651.717 41.0455 653.268 41.3949 654.575 42.0938C655.887 42.7869 656.898 43.7869 657.609 45.0938C658.325 46.3949 658.683 47.9545 658.683 49.7727C658.683 51.5909 658.327 53.1534 657.617 54.4602C656.907 55.7614 655.901 56.7614 654.6 57.4602C653.299 58.1534 651.762 58.5 649.989 58.5ZM648.012 54.4773H649.819C650.683 54.4773 651.418 54.3381 652.026 54.0597C652.64 53.7812 653.106 53.3011 653.424 52.6193C653.748 51.9375 653.91 50.9886 653.91 49.7727C653.91 48.5568 653.745 47.608 653.415 46.9261C653.092 46.2443 652.614 45.7642 651.984 45.4858C651.359 45.2074 650.592 45.0682 649.683 45.0682H648.012V54.4773ZM660.875 58.5V41.0455H673.455V44.8636H665.614V47.8636H672.807V51.6818H665.614V54.6818H673.42V58.5H660.875ZM685.214 46.5C685.168 45.9318 684.955 45.4886 684.575 45.1705C684.2 44.8523 683.629 44.6932 682.862 44.6932C682.373 44.6932 681.972 44.7528 681.66 44.8722C681.353 44.9858 681.126 45.142 680.978 45.3409C680.83 45.5398 680.754 45.767 680.748 46.0227C680.737 46.233 680.773 46.4233 680.859 46.5938C680.95 46.7585 681.092 46.9091 681.285 47.0455C681.478 47.1761 681.725 47.2955 682.026 47.4034C682.327 47.5114 682.685 47.608 683.1 47.6932L684.532 48C685.498 48.2045 686.325 48.4744 687.012 48.8097C687.7 49.1449 688.262 49.5398 688.7 49.9943C689.137 50.4432 689.458 50.9489 689.663 51.5114C689.873 52.0739 689.981 52.6875 689.987 53.3523C689.981 54.5 689.694 55.4716 689.126 56.267C688.558 57.0625 687.745 57.6676 686.688 58.0824C685.637 58.4972 684.373 58.7045 682.896 58.7045C681.379 58.7045 680.055 58.4801 678.924 58.0312C677.799 57.5824 676.924 56.892 676.299 55.9602C675.68 55.0227 675.367 53.8239 675.362 52.3636H679.862C679.89 52.8977 680.023 53.3466 680.262 53.7102C680.501 54.0739 680.836 54.3494 681.268 54.5369C681.705 54.7244 682.225 54.8182 682.827 54.8182C683.333 54.8182 683.756 54.7557 684.097 54.6307C684.438 54.5057 684.697 54.3324 684.873 54.1108C685.049 53.8892 685.14 53.6364 685.146 53.3523C685.14 53.0852 685.052 52.8523 684.881 52.6534C684.717 52.4489 684.444 52.267 684.063 52.108C683.683 51.9432 683.168 51.7898 682.521 51.6477L680.782 51.2727C679.237 50.9375 678.018 50.3778 677.126 49.5938C676.239 48.804 675.799 47.7273 675.805 46.3636C675.799 45.2557 676.094 44.2869 676.691 43.4574C677.293 42.6222 678.126 41.9716 679.188 41.5057C680.256 41.0398 681.481 40.8068 682.862 40.8068C684.271 40.8068 685.489 41.0426 686.518 41.5142C687.546 41.9858 688.339 42.6506 688.896 43.5085C689.458 44.3608 689.742 45.358 689.748 46.5H685.214ZM691.857 58.5V45.4091H696.562V58.5H691.857ZM694.21 44.0455C693.573 44.0455 693.028 43.8352 692.573 43.4148C692.119 42.9943 691.891 42.4886 691.891 41.8977C691.891 41.3068 692.119 40.8011 692.573 40.3807C693.028 39.9602 693.573 39.75 694.21 39.75C694.852 39.75 695.397 39.9602 695.846 40.3807C696.3 40.8011 696.528 41.3068 696.528 41.8977C696.528 42.4886 696.3 42.9943 695.846 43.4148C695.397 43.8352 694.852 44.0455 694.21 44.0455ZM710.226 46.8068C710.152 46.5057 710.036 46.2415 709.876 46.0142C709.717 45.7812 709.518 45.5852 709.28 45.4261C709.047 45.2614 708.774 45.1392 708.462 45.0597C708.155 44.9744 707.817 44.9318 707.447 44.9318C706.652 44.9318 705.973 45.1222 705.411 45.5028C704.854 45.8835 704.428 46.4318 704.132 47.1477C703.842 47.8636 703.697 48.7273 703.697 49.7386C703.697 50.7614 703.837 51.6364 704.115 52.3636C704.393 53.0909 704.808 53.6477 705.359 54.0341C705.911 54.4205 706.595 54.6136 707.413 54.6136C708.135 54.6136 708.734 54.5085 709.212 54.2983C709.695 54.0881 710.055 53.7898 710.294 53.4034C710.533 53.017 710.652 52.5625 710.652 52.0398L711.47 52.125H707.482V48.75H715.22V51.1705C715.22 52.7614 714.882 54.1222 714.206 55.2528C713.536 56.3778 712.609 57.2415 711.428 57.8438C710.251 58.4403 708.902 58.7386 707.379 58.7386C705.68 58.7386 704.189 58.3778 702.905 57.6562C701.621 56.9347 700.618 55.9062 699.896 54.571C699.18 53.2358 698.822 51.6477 698.822 49.8068C698.822 48.3636 699.041 47.0852 699.479 45.9716C699.922 44.858 700.536 43.9176 701.32 43.1506C702.104 42.3778 703.01 41.7955 704.038 41.4034C705.067 41.0057 706.169 40.8068 707.345 40.8068C708.379 40.8068 709.339 40.9545 710.226 41.25C711.118 41.5398 711.905 41.9545 712.587 42.4943C713.274 43.0284 713.828 43.6619 714.249 44.3949C714.669 45.1278 714.925 45.9318 715.016 46.8068H710.226ZM732.532 41.0455V58.5H728.577L722.271 49.3295H722.168V58.5H717.43V41.0455H721.452L727.657 50.1818H727.793V41.0455H732.532Z" fill="black" fill-opacity="0.85"/>
<path d="M769.023 58.5V41.0455H770.088V57.5114H778.611V58.5H769.023ZM787.261 58.7727C786.08 58.7727 785.051 58.4801 784.176 57.8949C783.301 57.3097 782.625 56.5085 782.148 55.4915C781.67 54.4744 781.432 53.3153 781.432 52.0142C781.432 50.7074 781.67 49.5426 782.148 48.5199C782.631 47.4972 783.293 46.6903 784.134 46.0994C784.974 45.5085 785.935 45.2131 787.014 45.2131C787.747 45.2131 788.44 45.3608 789.094 45.6562C789.753 45.946 790.332 46.3665 790.832 46.9176C791.338 47.4687 791.733 48.1335 792.017 48.9119C792.307 49.6903 792.452 50.5653 792.452 51.5369V52.1847H782.088V51.2386H791.412C791.412 50.2898 791.219 49.4347 790.832 48.6733C790.446 47.9119 789.92 47.3068 789.256 46.858C788.591 46.4091 787.844 46.1847 787.014 46.1847C786.145 46.1847 785.369 46.429 784.688 46.9176C784.011 47.4006 783.474 48.054 783.077 48.8778C782.685 49.7017 782.48 50.6222 782.463 51.6392V52.0653C782.463 53.1562 782.653 54.1364 783.034 55.0057C783.42 55.8693 783.972 56.554 784.688 57.0597C785.403 57.5597 786.261 57.8097 787.261 57.8097C787.977 57.8097 788.588 57.6903 789.094 57.4517C789.605 57.2074 790.023 56.9119 790.347 56.5653C790.67 56.2187 790.915 55.8835 791.08 55.5597L792.026 55.9432C791.827 56.3807 791.517 56.8182 791.097 57.2557C790.682 57.6875 790.153 58.0483 789.511 58.3381C788.875 58.6278 788.125 58.7727 787.261 58.7727ZM799.5 58.7812C798.744 58.7812 798.051 58.6307 797.42 58.3295C796.795 58.0284 796.293 57.5881 795.912 57.0085C795.537 56.429 795.349 55.7244 795.349 54.8949C795.349 54.3494 795.446 53.8693 795.639 53.4545C795.832 53.0398 796.131 52.6818 796.534 52.3807C796.938 52.0795 797.455 51.8324 798.085 51.6392C798.716 51.4403 799.469 51.2869 800.344 51.179C801.009 51.0994 801.602 51.0227 802.125 50.9489C802.648 50.8693 803.057 50.7472 803.352 50.5824C803.653 50.4176 803.804 50.1676 803.804 49.8324V49.2869C803.804 48.3324 803.503 47.5739 802.901 47.0114C802.298 46.4489 801.469 46.1676 800.412 46.1676C799.474 46.1676 798.685 46.375 798.043 46.7898C797.406 47.1989 796.96 47.7273 796.705 48.375L795.724 48.0085C795.974 47.3835 796.335 46.8636 796.807 46.4489C797.284 46.0341 797.83 45.7244 798.443 45.5199C799.063 45.3153 799.71 45.2131 800.386 45.2131C800.972 45.2131 801.528 45.2955 802.057 45.4602C802.591 45.625 803.065 45.875 803.48 46.2102C803.901 46.5455 804.233 46.9744 804.477 47.4972C804.722 48.0142 804.844 48.6335 804.844 49.3551V58.5H803.804V56.1392H803.727C803.5 56.6278 803.188 57.0739 802.79 57.4773C802.398 57.875 801.923 58.1932 801.366 58.4318C800.815 58.6648 800.193 58.7812 799.5 58.7812ZM799.602 57.8182C800.42 57.8182 801.145 57.6193 801.776 57.2216C802.412 56.8182 802.909 56.267 803.267 55.5682C803.625 54.8693 803.804 54.0767 803.804 53.1903V51.2642C803.673 51.3778 803.483 51.4801 803.233 51.571C802.989 51.6562 802.71 51.733 802.398 51.8011C802.091 51.8636 801.767 51.9205 801.426 51.9716C801.091 52.017 800.764 52.0597 800.446 52.0994C799.491 52.2131 798.713 52.3892 798.111 52.6278C797.514 52.8608 797.077 53.1676 796.798 53.5483C796.526 53.929 796.389 54.3892 796.389 54.929C796.389 55.821 796.696 56.5256 797.31 57.0426C797.923 57.5597 798.688 57.8182 799.602 57.8182ZM809.203 58.5V45.4091H810.217V47.4545H810.311C810.595 46.7841 811.075 46.2472 811.751 45.8438C812.428 45.4347 813.197 45.2301 814.061 45.2301C814.152 45.2301 814.243 45.2301 814.334 45.2301C814.425 45.2301 814.51 45.233 814.589 45.2386V46.2869C814.521 46.2812 814.439 46.2727 814.342 46.2614C814.251 46.2443 814.138 46.2358 814.001 46.2358C813.274 46.2358 812.626 46.392 812.058 46.7045C811.496 47.017 811.053 47.4489 810.729 48C810.405 48.5455 810.243 49.1705 810.243 49.875V58.5H809.203ZM818.423 50.0114V58.5H817.383V45.4091H818.397V47.4801H818.499C818.806 46.804 819.298 46.2614 819.974 45.8523C820.65 45.4432 821.454 45.2386 822.386 45.2386C823.266 45.2386 824.039 45.4261 824.704 45.8011C825.374 46.1761 825.897 46.7102 826.272 47.4034C826.653 48.0909 826.843 48.9119 826.843 49.8665V58.5H825.803V49.9091C825.803 48.7955 825.471 47.9006 824.806 47.2244C824.147 46.5426 823.275 46.2017 822.19 46.2017C821.462 46.2017 820.815 46.3608 820.246 46.679C819.678 46.9972 819.232 47.4432 818.908 48.017C818.585 48.5852 818.423 49.25 818.423 50.0114ZM831.215 58.5V45.4091H832.246V58.5H831.215ZM831.735 43.0909C831.508 43.0909 831.309 43.0114 831.138 42.8523C830.974 42.6932 830.891 42.5 830.891 42.2727C830.891 42.0455 830.974 41.8523 831.138 41.6932C831.303 41.5341 831.502 41.4545 831.735 41.4545C831.962 41.4545 832.158 41.5341 832.323 41.6932C832.494 41.8523 832.579 42.0455 832.579 42.2727C832.579 42.5 832.496 42.6932 832.332 42.8523C832.167 43.0114 831.968 43.0909 831.735 43.0909ZM837.641 50.0114V58.5H836.602V45.4091H837.616V47.4801H837.718C838.025 46.804 838.516 46.2614 839.192 45.8523C839.869 45.4432 840.673 45.2386 841.604 45.2386C842.485 45.2386 843.258 45.4261 843.923 45.8011C844.593 46.1761 845.116 46.7102 845.491 47.4034C845.871 48.0909 846.062 48.9119 846.062 49.8665V58.5H845.022V49.9091C845.022 48.7955 844.69 47.9006 844.025 47.2244C843.366 46.5426 842.494 46.2017 841.408 46.2017C840.681 46.2017 840.033 46.3608 839.465 46.679C838.897 46.9972 838.451 47.4432 838.127 48.017C837.803 48.5852 837.641 49.25 837.641 50.0114ZM855.104 63.6818C854.292 63.6818 853.562 63.5739 852.914 63.358C852.266 63.1477 851.715 62.8466 851.261 62.4545C850.812 62.0625 850.468 61.5966 850.229 61.0568L851.099 60.5455C851.292 60.9659 851.567 61.3409 851.925 61.6705C852.283 62 852.727 62.2585 853.255 62.446C853.789 62.6335 854.406 62.7273 855.104 62.7273C856.366 62.7273 857.363 62.4006 858.096 61.7472C858.835 61.0994 859.204 60.1051 859.204 58.7642V55.5085H859.102C858.903 56.0767 858.607 56.5824 858.215 57.0256C857.829 57.4631 857.354 57.8068 856.792 58.0568C856.229 58.3068 855.59 58.4318 854.874 58.4318C853.84 58.4318 852.931 58.1648 852.147 57.6307C851.363 57.0966 850.752 56.3466 850.315 55.3807C849.877 54.4091 849.658 53.267 849.658 51.9545C849.658 50.642 849.871 49.4801 850.298 48.4688C850.729 47.4517 851.337 46.6562 852.121 46.0824C852.906 45.5028 853.826 45.2131 854.883 45.2131C855.638 45.2131 856.292 45.358 856.843 45.6477C857.4 45.9318 857.866 46.3097 858.241 46.7812C858.616 47.2528 858.906 47.7699 859.11 48.3324H859.229V45.4091H860.235V58.8068C860.235 59.8977 860.019 60.804 859.587 61.5256C859.161 62.2472 858.562 62.7869 857.789 63.1449C857.022 63.5028 856.127 63.6818 855.104 63.6818ZM854.968 57.4688C855.843 57.4688 856.596 57.2472 857.227 56.804C857.863 56.3551 858.352 55.7187 858.692 54.8949C859.039 54.0653 859.212 53.0824 859.212 51.946C859.212 50.8437 859.045 49.858 858.71 48.9886C858.374 48.1193 857.888 47.4347 857.252 46.9347C856.616 46.4347 855.854 46.1847 854.968 46.1847C854.065 46.1847 853.295 46.4403 852.658 46.9517C852.022 47.4574 851.533 48.1449 851.192 49.0142C850.857 49.8835 850.69 50.8608 850.69 51.946C850.69 53.0369 850.86 53.9972 851.201 54.8267C851.542 55.6506 852.031 56.2983 852.667 56.7699C853.303 57.2358 854.07 57.4688 854.968 57.4688ZM875.757 58.7386C874.763 58.7386 873.879 58.5312 873.107 58.1165C872.339 57.7017 871.734 57.142 871.291 56.4375C870.854 55.7273 870.635 54.929 870.635 54.0426C870.635 53.4517 870.751 52.9119 870.984 52.4233C871.217 51.929 871.57 51.4432 872.041 50.9659C872.518 50.483 873.121 49.9716 873.848 49.4318L876.396 47.5312C877.112 46.9972 877.635 46.4972 877.964 46.0312C878.3 45.5597 878.467 45.0199 878.467 44.4119C878.467 43.6847 878.217 43.0625 877.717 42.5455C877.223 42.0284 876.592 41.7699 875.825 41.7699C875.303 41.7699 874.822 41.9062 874.385 42.179C873.953 42.446 873.607 42.7955 873.345 43.2273C873.089 43.6591 872.962 44.1222 872.962 44.6165C872.962 45.0028 873.053 45.3864 873.234 45.767C873.422 46.142 873.686 46.5568 874.027 47.0114C874.374 47.4602 874.788 47.983 875.271 48.5795L883.214 58.5H881.953L874.658 49.4062C874.095 48.7131 873.609 48.1051 873.2 47.5824C872.791 47.0597 872.476 46.5625 872.254 46.0909C872.033 45.6193 871.922 45.1222 871.922 44.5994C871.922 43.9006 872.092 43.267 872.433 42.6989C872.78 42.125 873.246 41.6705 873.831 41.3352C874.416 41 875.075 40.8324 875.808 40.8324C876.536 40.8324 877.178 40.9915 877.734 41.3097C878.291 41.6222 878.726 42.0511 879.038 42.5966C879.351 43.1364 879.507 43.7415 879.507 44.4119C879.507 45.1562 879.308 45.8295 878.911 46.4318C878.518 47.0341 877.908 47.6562 877.078 48.2983L874.214 50.429C873.26 51.1562 872.598 51.804 872.229 52.3722C871.865 52.9403 871.683 53.4972 871.683 54.0426C871.683 54.7244 871.859 55.3466 872.212 55.9091C872.564 56.4716 873.044 56.9233 873.652 57.2642C874.266 57.6051 874.962 57.7784 875.74 57.7841C876.524 57.7727 877.249 57.6193 877.913 57.3239C878.578 57.0284 879.163 56.6165 879.669 56.0881C880.18 55.554 880.595 54.9205 880.913 54.1875C881.237 53.4489 881.447 52.6278 881.544 51.7244L882.558 51.7756C882.501 52.4858 882.376 53.125 882.183 53.6932C881.99 54.2557 881.766 54.7528 881.51 55.1847C881.26 55.6165 881.018 55.983 880.786 56.2841C880.717 56.375 880.652 56.4631 880.589 56.5483C880.527 56.6335 880.459 56.7159 880.385 56.7955C879.811 57.4148 879.107 57.8949 878.271 58.2358C877.442 58.571 876.604 58.7386 875.757 58.7386ZM902.346 45.4091C902.255 44.3239 901.812 43.446 901.016 42.7756C900.227 42.1051 899.204 41.7699 897.948 41.7699C897.102 41.7699 896.349 41.9261 895.69 42.2386C895.031 42.5511 894.513 42.9773 894.138 43.517C893.763 44.0568 893.576 44.6761 893.576 45.375C893.576 45.8239 893.661 46.2301 893.832 46.5938C894.008 46.9517 894.255 47.2727 894.573 47.5568C894.891 47.8352 895.269 48.0795 895.707 48.2898C896.144 48.5 896.627 48.6847 897.156 48.8438L899.065 49.4062C899.718 49.6051 900.32 49.8352 900.871 50.0966C901.428 50.358 901.911 50.6705 902.32 51.0341C902.735 51.392 903.056 51.8125 903.283 52.2955C903.516 52.7784 903.633 53.3352 903.633 53.9659C903.633 54.8864 903.394 55.7102 902.917 56.4375C902.445 57.1648 901.772 57.7386 900.897 58.1591C900.028 58.5739 899.002 58.7812 897.82 58.7812C896.695 58.7812 895.715 58.5909 894.88 58.2102C894.05 57.8295 893.394 57.3011 892.911 56.625C892.428 55.9432 892.156 55.1591 892.093 54.2727H893.184C893.241 54.9943 893.471 55.6193 893.874 56.1477C894.283 56.6705 894.826 57.0739 895.502 57.358C896.178 57.642 896.951 57.7841 897.82 57.7841C898.758 57.7841 899.585 57.625 900.3 57.3068C901.016 56.983 901.576 56.5341 901.979 55.9602C902.383 55.3864 902.585 54.7187 902.585 53.9574C902.585 53.3437 902.44 52.8182 902.15 52.3807C901.86 51.9432 901.431 51.5653 900.863 51.2472C900.3 50.929 899.602 50.6449 898.766 50.3949L896.729 49.7812C895.366 49.3665 894.323 48.8011 893.602 48.0852C892.886 47.3693 892.528 46.4773 892.528 45.4091C892.528 44.5114 892.766 43.7159 893.244 43.0227C893.721 42.3239 894.369 41.7756 895.187 41.3778C896.011 40.9801 896.94 40.7812 897.974 40.7812C899.013 40.7812 899.931 40.983 900.727 41.3864C901.522 41.7841 902.153 42.3324 902.619 43.0312C903.085 43.7244 903.343 44.517 903.394 45.4091H902.346ZM908.516 50.0114V58.5H907.477V41.0455H908.516V47.4801H908.619C908.925 46.7983 909.414 46.2557 910.085 45.8523C910.761 45.4432 911.57 45.2386 912.513 45.2386C913.394 45.2386 914.17 45.4261 914.84 45.8011C915.511 46.1705 916.033 46.7017 916.408 47.3949C916.789 48.0824 916.979 48.9062 916.979 49.8665V58.5H915.948V49.9091C915.948 48.7898 915.616 47.892 914.951 47.2159C914.286 46.5398 913.408 46.2017 912.317 46.2017C911.585 46.2017 910.931 46.3608 910.357 46.679C909.783 46.9972 909.332 47.4432 909.002 48.017C908.678 48.5852 908.516 49.25 908.516 50.0114ZM924.75 58.7812C923.994 58.7812 923.301 58.6307 922.67 58.3295C922.045 58.0284 921.543 57.5881 921.162 57.0085C920.787 56.429 920.599 55.7244 920.599 54.8949C920.599 54.3494 920.696 53.8693 920.889 53.4545C921.082 53.0398 921.381 52.6818 921.784 52.3807C922.188 52.0795 922.705 51.8324 923.335 51.6392C923.966 51.4403 924.719 51.2869 925.594 51.179C926.259 51.0994 926.852 51.0227 927.375 50.9489C927.898 50.8693 928.307 50.7472 928.602 50.5824C928.903 50.4176 929.054 50.1676 929.054 49.8324V49.2869C929.054 48.3324 928.753 47.5739 928.151 47.0114C927.548 46.4489 926.719 46.1676 925.662 46.1676C924.724 46.1676 923.935 46.375 923.293 46.7898C922.656 47.1989 922.21 47.7273 921.955 48.375L920.974 48.0085C921.224 47.3835 921.585 46.8636 922.057 46.4489C922.534 46.0341 923.08 45.7244 923.693 45.5199C924.313 45.3153 924.96 45.2131 925.636 45.2131C926.222 45.2131 926.778 45.2955 927.307 45.4602C927.841 45.625 928.315 45.875 928.73 46.2102C929.151 46.5455 929.483 46.9744 929.727 47.4972C929.972 48.0142 930.094 48.6335 930.094 49.3551V58.5H929.054V56.1392H928.977C928.75 56.6278 928.438 57.0739 928.04 57.4773C927.648 57.875 927.173 58.1932 926.616 58.4318C926.065 58.6648 925.443 58.7812 924.75 58.7812ZM924.852 57.8182C925.67 57.8182 926.395 57.6193 927.026 57.2216C927.662 56.8182 928.159 56.267 928.517 55.5682C928.875 54.8693 929.054 54.0767 929.054 53.1903V51.2642C928.923 51.3778 928.733 51.4801 928.483 51.571C928.239 51.6562 927.96 51.733 927.648 51.8011C927.341 51.8636 927.017 51.9205 926.676 51.9716C926.341 52.017 926.014 52.0597 925.696 52.0994C924.741 52.2131 923.963 52.3892 923.361 52.6278C922.764 52.8608 922.327 53.1676 922.048 53.5483C921.776 53.929 921.639 54.3892 921.639 54.929C921.639 55.821 921.946 56.5256 922.56 57.0426C923.173 57.5597 923.938 57.8182 924.852 57.8182ZM934.453 58.5V45.4091H935.467V47.4545H935.561C935.845 46.7841 936.325 46.2472 937.001 45.8438C937.678 45.4347 938.447 45.2301 939.311 45.2301C939.402 45.2301 939.493 45.2301 939.584 45.2301C939.675 45.2301 939.76 45.233 939.839 45.2386V46.2869C939.771 46.2812 939.689 46.2727 939.592 46.2614C939.501 46.2443 939.388 46.2358 939.251 46.2358C938.524 46.2358 937.876 46.392 937.308 46.7045C936.746 47.017 936.303 47.4489 935.979 48C935.655 48.5455 935.493 49.1705 935.493 49.875V58.5H934.453ZM942.684 58.5V45.4091H943.715V58.5H942.684ZM943.204 43.0909C942.977 43.0909 942.778 43.0114 942.607 42.8523C942.442 42.6932 942.36 42.5 942.36 42.2727C942.36 42.0455 942.442 41.8523 942.607 41.6932C942.772 41.5341 942.971 41.4545 943.204 41.4545C943.431 41.4545 943.627 41.5341 943.792 41.6932C943.962 41.8523 944.048 42.0455 944.048 42.2727C944.048 42.5 943.965 42.6932 943.8 42.8523C943.636 43.0114 943.437 43.0909 943.204 43.0909ZM949.11 50.0114V58.5H948.07V45.4091H949.085V47.4801H949.187C949.494 46.804 949.985 46.2614 950.661 45.8523C951.337 45.4432 952.141 45.2386 953.073 45.2386C953.954 45.2386 954.727 45.4261 955.391 45.8011C956.062 46.1761 956.585 46.7102 956.96 47.4034C957.34 48.0909 957.531 48.9119 957.531 49.8665V58.5H956.491V49.9091C956.491 48.7955 956.158 47.9006 955.494 47.2244C954.835 46.5426 953.962 46.2017 952.877 46.2017C952.15 46.2017 951.502 46.3608 950.934 46.679C950.366 46.9972 949.92 47.4432 949.596 48.017C949.272 48.5852 949.11 49.25 949.11 50.0114ZM966.573 63.6818C965.761 63.6818 965.031 63.5739 964.383 63.358C963.735 63.1477 963.184 62.8466 962.729 62.4545C962.281 62.0625 961.937 61.5966 961.698 61.0568L962.567 60.5455C962.761 60.9659 963.036 61.3409 963.394 61.6705C963.752 62 964.195 62.2585 964.724 62.446C965.258 62.6335 965.874 62.7273 966.573 62.7273C967.835 62.7273 968.832 62.4006 969.565 61.7472C970.303 61.0994 970.673 60.1051 970.673 58.7642V55.5085H970.57C970.371 56.0767 970.076 56.5824 969.684 57.0256C969.298 57.4631 968.823 57.8068 968.261 58.0568C967.698 58.3068 967.059 58.4318 966.343 58.4318C965.309 58.4318 964.4 58.1648 963.616 57.6307C962.832 57.0966 962.221 56.3466 961.783 55.3807C961.346 54.4091 961.127 53.267 961.127 51.9545C961.127 50.642 961.34 49.4801 961.766 48.4688C962.198 47.4517 962.806 46.6562 963.59 46.0824C964.374 45.5028 965.295 45.2131 966.352 45.2131C967.107 45.2131 967.761 45.358 968.312 45.6477C968.869 45.9318 969.335 46.3097 969.71 46.7812C970.085 47.2528 970.374 47.7699 970.579 48.3324H970.698V45.4091H971.704V58.8068C971.704 59.8977 971.488 60.804 971.056 61.5256C970.63 62.2472 970.031 62.7869 969.258 63.1449C968.491 63.5028 967.596 63.6818 966.573 63.6818ZM966.437 57.4688C967.312 57.4688 968.065 57.2472 968.695 56.804C969.332 56.3551 969.82 55.7187 970.161 54.8949C970.508 54.0653 970.681 53.0824 970.681 51.946C970.681 50.8437 970.513 49.858 970.178 48.9886C969.843 48.1193 969.357 47.4347 968.721 46.9347C968.085 46.4347 967.323 46.1847 966.437 46.1847C965.533 46.1847 964.763 46.4403 964.127 46.9517C963.491 47.4574 963.002 48.1449 962.661 49.0142C962.326 49.8835 962.158 50.8608 962.158 51.946C962.158 53.0369 962.329 53.9972 962.67 54.8267C963.011 55.6506 963.499 56.2983 964.136 56.7699C964.772 57.2358 965.539 57.4688 966.437 57.4688ZM989.433 58.5L992.297 41.0455H993.226L990.362 58.5H989.433ZM981.175 53.2756L981.328 52.3381H994.351L994.197 53.2756H981.175ZM983.297 58.5L986.161 41.0455H987.089L984.226 58.5H983.297ZM982.172 47.2074L982.334 46.2699H995.357L995.195 47.2074H982.172Z" fill="black" fill-opacity="0.45"/>
</g>
<defs>
<filter id="filter0_d_122_20900" x="0" y="0" width="1552" height="100" filterUnits="userSpaceOnUse" color-interpolation-filters="sRGB">
<feFlood flood-opacity="0" result="BackgroundImageFix"/>
<feColorMatrix in="SourceAlpha" type="matrix" values="0 0 0 0 0 0 0 0 0 0 0 0 0 0 0 0 0 0 127 0" result="hardAlpha"/>
<feOffset/>
<feGaussianBlur stdDeviation="5"/>
<feComposite in2="hardAlpha" operator="out"/>
<feColorMatrix type="matrix" values="0 0 0 0 0 0 0 0 0 0 0 0 0 0 0 0 0 0 0.02 0"/>
<feBlend mode="normal" in2="BackgroundImageFix" result="effect1_dropShadow_122_20900"/>
<feBlend mode="normal" in="SourceGraphic" in2="effect1_dropShadow_122_20900" result="shape"/>
</filter>
</defs>
</svg>
