<svg width="1552" height="100" viewBox="0 0 1552 100" fill="none" xmlns="http://www.w3.org/2000/svg">
<g filter="url(#filter0_d_122_20900)">
<rect x="10" y="10" width="1532" height="80" rx="16" fill="white" shape-rendering="crispEdges"/>
<path d="M426.5 61.5L430.318 38.2273H434.864L431.045 61.5H426.5ZM416.182 56.1818L416.955 51.6364H435.682L434.909 56.1818H416.182ZM418.318 61.5L422.136 38.2273H426.682L422.864 61.5H418.318ZM417.5 48.0909L418.273 43.5455H437L436.227 48.0909H417.5ZM444.108 38.2273H451.153L455.699 47.6818H455.881L460.426 38.2273H467.472L458.926 54.1818V61.5H452.653V54.1818L444.108 38.2273ZM487.213 44.0455L481.349 61.5H474.077L468.213 44.0455H474.804L477.622 55.5909H477.804L480.622 44.0455H487.213ZM496.83 61.8182C494.966 61.8182 493.36 61.4621 492.011 60.75C490.67 60.0303 489.636 59 488.909 57.6591C488.189 56.3106 487.83 54.697 487.83 52.8182C487.83 51.0152 488.193 49.4394 488.92 48.0909C489.648 46.7424 490.674 45.6932 492 44.9432C493.326 44.1932 494.89 43.8182 496.693 43.8182C498.011 43.8182 499.205 44.0227 500.273 44.4318C501.341 44.8409 502.254 45.4356 503.011 46.2159C503.769 46.9886 504.352 47.928 504.761 49.0341C505.17 50.1402 505.375 51.3864 505.375 52.7727V54.2273H489.784V50.7727H499.602C499.595 50.2727 499.466 49.8333 499.216 49.4545C498.973 49.0682 498.644 48.7689 498.227 48.5568C497.818 48.3371 497.352 48.2273 496.83 48.2273C496.322 48.2273 495.856 48.3371 495.432 48.5568C495.008 48.7689 494.667 49.0644 494.409 49.4432C494.159 49.822 494.027 50.2652 494.011 50.7727V54.5C494.011 55.0606 494.129 55.5606 494.364 56C494.598 56.4394 494.936 56.7841 495.375 57.0341C495.814 57.2841 496.345 57.4091 496.966 57.4091C497.398 57.4091 497.792 57.3485 498.148 57.2273C498.511 57.1061 498.822 56.9318 499.08 56.7045C499.337 56.4697 499.527 56.1894 499.648 55.8636H505.375C505.178 57.0758 504.712 58.1288 503.977 59.0227C503.242 59.9091 502.269 60.5985 501.057 61.0909C499.852 61.5758 498.443 61.8182 496.83 61.8182ZM523.889 49.7273H518.116C518.086 49.3712 517.961 49.0644 517.741 48.8068C517.522 48.5492 517.238 48.3523 516.889 48.2159C516.548 48.072 516.17 48 515.753 48C515.215 48 514.753 48.0985 514.366 48.2955C513.98 48.4924 513.791 48.7727 513.798 49.1364C513.791 49.3939 513.901 49.6326 514.128 49.8523C514.363 50.072 514.813 50.2424 515.48 50.3636L519.026 51C520.813 51.3258 522.143 51.875 523.014 52.6477C523.893 53.4129 524.336 54.4394 524.344 55.7273C524.336 56.9697 523.965 58.0492 523.23 58.9659C522.503 59.875 521.507 60.5795 520.241 61.0795C518.984 61.572 517.548 61.8182 515.935 61.8182C513.268 61.8182 511.181 61.2727 509.673 60.1818C508.173 59.0909 507.336 57.6515 507.162 55.8636H513.389C513.473 56.4167 513.745 56.8447 514.207 57.1477C514.677 57.4432 515.268 57.5909 515.98 57.5909C516.556 57.5909 517.029 57.4924 517.401 57.2955C517.779 57.0985 517.973 56.8182 517.98 56.4545C517.973 56.1212 517.806 55.8561 517.48 55.6591C517.162 55.4621 516.662 55.303 515.98 55.1818L512.889 54.6364C511.109 54.3258 509.776 53.7348 508.889 52.8636C508.003 51.9924 507.563 50.8712 507.571 49.5C507.563 48.2879 507.882 47.2614 508.526 46.4205C509.177 45.572 510.105 44.928 511.31 44.4886C512.522 44.0417 513.957 43.8182 515.616 43.8182C518.139 43.8182 520.128 44.3409 521.582 45.3864C523.045 46.4318 523.813 47.8788 523.889 49.7273ZM541.986 61.5H533.031V38.2273H541.895C544.289 38.2273 546.357 38.6932 548.099 39.625C549.849 40.5492 551.198 41.8826 552.145 43.625C553.099 45.3598 553.577 47.4394 553.577 49.8636C553.577 52.2879 553.103 54.3712 552.156 56.1136C551.209 57.8485 549.868 59.1818 548.134 60.1136C546.399 61.0379 544.349 61.5 541.986 61.5ZM539.349 56.1364H541.759C542.91 56.1364 543.891 55.9508 544.702 55.5795C545.52 55.2083 546.141 54.5682 546.565 53.6591C546.997 52.75 547.213 51.4848 547.213 49.8636C547.213 48.2424 546.993 46.9773 546.554 46.0682C546.122 45.1591 545.486 44.5189 544.645 44.1477C543.812 43.7765 542.789 43.5909 541.577 43.5909H539.349V56.1364ZM556.5 61.5V38.2273H573.273V43.3182H562.818V47.3182H572.409V52.4091H562.818V56.4091H573.227V61.5H556.5ZM588.952 45.5C588.891 44.7424 588.607 44.1515 588.099 43.7273C587.599 43.303 586.838 43.0909 585.815 43.0909C585.164 43.0909 584.63 43.1705 584.213 43.3295C583.804 43.4811 583.501 43.6894 583.304 43.9545C583.107 44.2197 583.005 44.5227 582.997 44.8636C582.982 45.1439 583.031 45.3977 583.145 45.625C583.266 45.8447 583.455 46.0455 583.713 46.2273C583.971 46.4015 584.3 46.5606 584.702 46.7045C585.103 46.8485 585.58 46.9773 586.134 47.0909L588.043 47.5C589.33 47.7727 590.433 48.1326 591.349 48.5795C592.266 49.0265 593.016 49.553 593.599 50.1591C594.183 50.7576 594.611 51.4318 594.884 52.1818C595.164 52.9318 595.308 53.75 595.315 54.6364C595.308 56.1667 594.925 57.4621 594.168 58.5227C593.41 59.5833 592.327 60.3902 590.918 60.9432C589.516 61.4962 587.83 61.7727 585.861 61.7727C583.838 61.7727 582.073 61.4735 580.565 60.875C579.065 60.2765 577.899 59.3561 577.065 58.1136C576.24 56.8636 575.823 55.2652 575.815 53.3182H581.815C581.853 54.0303 582.031 54.6288 582.349 55.1136C582.668 55.5985 583.115 55.9659 583.69 56.2159C584.274 56.4659 584.967 56.5909 585.77 56.5909C586.444 56.5909 587.009 56.5076 587.463 56.3409C587.918 56.1742 588.262 55.9432 588.497 55.6477C588.732 55.3523 588.853 55.0152 588.861 54.6364C588.853 54.2803 588.736 53.9697 588.509 53.7045C588.289 53.4318 587.925 53.1894 587.418 52.9773C586.91 52.7576 586.224 52.553 585.361 52.3636L583.043 51.8636C580.982 51.4167 579.357 50.6705 578.168 49.625C576.986 48.572 576.399 47.1364 576.406 45.3182C576.399 43.8409 576.793 42.5492 577.588 41.4432C578.391 40.3295 579.501 39.4621 580.918 38.8409C582.342 38.2197 583.974 37.9091 585.815 37.9091C587.694 37.9091 589.319 38.2235 590.69 38.8523C592.062 39.4811 593.118 40.3674 593.861 41.5114C594.611 42.6477 594.99 43.9773 594.997 45.5H588.952ZM597.81 61.5V44.0455H604.082V61.5H597.81ZM600.946 42.2273C600.098 42.2273 599.37 41.947 598.764 41.3864C598.158 40.8258 597.855 40.1515 597.855 39.3636C597.855 38.5758 598.158 37.9015 598.764 37.3409C599.37 36.7803 600.098 36.5 600.946 36.5C601.802 36.5 602.529 36.7803 603.128 37.3409C603.734 37.9015 604.037 38.5758 604.037 39.3636C604.037 40.1515 603.734 40.8258 603.128 41.3864C602.529 41.947 601.802 42.2273 600.946 42.2273ZM622.301 45.9091C622.203 45.5076 622.047 45.1553 621.835 44.8523C621.623 44.5417 621.358 44.2803 621.04 44.0682C620.729 43.8485 620.366 43.6856 619.949 43.5795C619.54 43.4659 619.089 43.4091 618.597 43.4091C617.536 43.4091 616.631 43.6629 615.881 44.1705C615.138 44.678 614.57 45.4091 614.176 46.3636C613.79 47.3182 613.597 48.4697 613.597 49.8182C613.597 51.1818 613.782 52.3485 614.153 53.3182C614.525 54.2879 615.078 55.0303 615.812 55.5455C616.547 56.0606 617.46 56.3182 618.551 56.3182C619.513 56.3182 620.313 56.178 620.949 55.8977C621.593 55.6174 622.074 55.2197 622.392 54.7045C622.71 54.1894 622.869 53.5833 622.869 52.8864L623.96 53H618.642V48.5H628.96V51.7273C628.96 53.8485 628.509 55.6629 627.608 57.1705C626.714 58.6705 625.479 59.822 623.903 60.625C622.335 61.4205 620.536 61.8182 618.506 61.8182C616.241 61.8182 614.252 61.3371 612.54 60.375C610.828 59.4129 609.491 58.0417 608.528 56.2614C607.574 54.4811 607.097 52.3636 607.097 49.9091C607.097 47.9848 607.388 46.2803 607.972 44.7955C608.563 43.3106 609.381 42.0568 610.426 41.0341C611.472 40.0038 612.68 39.2273 614.051 38.7045C615.422 38.1742 616.892 37.9091 618.46 37.9091C619.839 37.9091 621.119 38.1061 622.301 38.5C623.491 38.8864 624.54 39.4394 625.449 40.1591C626.366 40.8712 627.104 41.7159 627.665 42.6932C628.225 43.6705 628.566 44.7424 628.688 45.9091H622.301ZM652.043 38.2273V61.5H646.77L638.361 49.2727H638.224V61.5H631.906V38.2273H637.27L645.543 50.4091H645.724V38.2273H652.043Z" fill="black" fill-opacity="0.85"/>
<path d="M862.364 61.5V38.2273H863.784V60.1818H875.148V61.5H862.364ZM886.682 61.8636C885.106 61.8636 883.735 61.4735 882.568 60.6932C881.402 59.9129 880.5 58.8447 879.864 57.4886C879.227 56.1326 878.909 54.5871 878.909 52.8523C878.909 51.1098 879.227 49.5568 879.864 48.1932C880.508 46.8295 881.39 45.7538 882.511 44.9659C883.633 44.178 884.913 43.7841 886.352 43.7841C887.33 43.7841 888.254 43.9811 889.125 44.375C890.004 44.7614 890.777 45.322 891.443 46.0568C892.117 46.7917 892.644 47.678 893.023 48.7159C893.409 49.7538 893.602 50.9205 893.602 52.2159V53.0795H879.784V51.8182H892.216C892.216 50.553 891.958 49.4129 891.443 48.3977C890.928 47.3826 890.227 46.5758 889.341 45.9773C888.455 45.3788 887.458 45.0795 886.352 45.0795C885.193 45.0795 884.159 45.4053 883.25 46.0568C882.348 46.7008 881.633 47.572 881.102 48.6705C880.58 49.7689 880.307 50.9962 880.284 52.3523V52.9205C880.284 54.375 880.538 55.6818 881.045 56.8409C881.561 57.9924 882.295 58.9053 883.25 59.5795C884.205 60.2462 885.348 60.5795 886.682 60.5795C887.636 60.5795 888.451 60.4205 889.125 60.1023C889.807 59.7765 890.364 59.3826 890.795 58.9205C891.227 58.4583 891.553 58.0114 891.773 57.5795L893.034 58.0909C892.769 58.6742 892.356 59.2576 891.795 59.8409C891.242 60.4167 890.538 60.8977 889.682 61.2841C888.833 61.6705 887.833 61.8636 886.682 61.8636ZM903 61.875C901.992 61.875 901.068 61.6742 900.227 61.2727C899.394 60.8712 898.723 60.2841 898.216 59.5114C897.716 58.7386 897.466 57.7992 897.466 56.6932C897.466 55.9659 897.595 55.3258 897.852 54.7727C898.11 54.2197 898.508 53.7424 899.045 53.3409C899.583 52.9394 900.273 52.6098 901.114 52.3523C901.955 52.0871 902.958 51.8826 904.125 51.7386C905.011 51.6326 905.803 51.5303 906.5 51.4318C907.197 51.3258 907.742 51.1629 908.136 50.9432C908.538 50.7235 908.739 50.3902 908.739 49.9432V49.2159C908.739 47.9432 908.337 46.9318 907.534 46.1818C906.731 45.4318 905.625 45.0568 904.216 45.0568C902.966 45.0568 901.913 45.3333 901.057 45.8864C900.208 46.4318 899.614 47.1364 899.273 48L897.966 47.5114C898.299 46.678 898.78 45.9848 899.409 45.4318C900.045 44.8788 900.773 44.4659 901.591 44.1932C902.417 43.9205 903.28 43.7841 904.182 43.7841C904.962 43.7841 905.705 43.8939 906.409 44.1136C907.121 44.3333 907.754 44.6667 908.307 45.1136C908.867 45.5606 909.311 46.1326 909.636 46.8295C909.962 47.5189 910.125 48.3447 910.125 49.3068V61.5H908.739V58.3523H908.636C908.333 59.0038 907.917 59.5985 907.386 60.1364C906.864 60.6667 906.231 61.0909 905.489 61.4091C904.754 61.7197 903.924 61.875 903 61.875ZM903.136 60.5909C904.227 60.5909 905.193 60.3258 906.034 59.7955C906.883 59.2576 907.545 58.5227 908.023 57.5909C908.5 56.6591 908.739 55.6023 908.739 54.4205V51.8523C908.564 52.0038 908.311 52.1402 907.977 52.2614C907.652 52.375 907.28 52.4773 906.864 52.5682C906.455 52.6515 906.023 52.7273 905.568 52.7955C905.121 52.8561 904.686 52.9129 904.261 52.9659C902.989 53.1174 901.951 53.3523 901.148 53.6705C900.352 53.9811 899.769 54.3902 899.398 54.8977C899.034 55.4053 898.852 56.0189 898.852 56.7386C898.852 57.928 899.261 58.8674 900.08 59.5568C900.898 60.2462 901.917 60.5909 903.136 60.5909ZM915.938 61.5V44.0455H917.29V46.7727H917.415C917.794 45.8788 918.434 45.1629 919.335 44.625C920.237 44.0795 921.263 43.8068 922.415 43.8068C922.536 43.8068 922.657 43.8068 922.778 43.8068C922.9 43.8068 923.013 43.8106 923.119 43.8182V45.2159C923.028 45.2083 922.919 45.197 922.79 45.1818C922.669 45.1591 922.517 45.1477 922.335 45.1477C921.366 45.1477 920.502 45.3561 919.744 45.7727C918.994 46.1894 918.403 46.7652 917.972 47.5C917.54 48.2273 917.324 49.0606 917.324 50V61.5H915.938ZM928.23 50.1818V61.5H926.844V44.0455H928.196V46.8068H928.332C928.741 45.9053 929.397 45.1818 930.298 44.6364C931.2 44.0909 932.272 43.8182 933.514 43.8182C934.688 43.8182 935.719 44.0682 936.605 44.5682C937.499 45.0682 938.196 45.7803 938.696 46.7045C939.204 47.6212 939.457 48.7159 939.457 49.9886V61.5H938.071V50.0455C938.071 48.5606 937.628 47.3674 936.741 46.4659C935.863 45.5568 934.7 45.1023 933.253 45.1023C932.283 45.1023 931.42 45.3144 930.662 45.7386C929.904 46.1629 929.31 46.7576 928.878 47.5227C928.446 48.2803 928.23 49.1667 928.23 50.1818ZM945.287 61.5V44.0455H946.662V61.5H945.287ZM945.98 40.9545C945.677 40.9545 945.412 40.8485 945.185 40.6364C944.965 40.4242 944.855 40.1667 944.855 39.8636C944.855 39.5606 944.965 39.303 945.185 39.0909C945.404 38.8788 945.67 38.7727 945.98 38.7727C946.283 38.7727 946.545 38.8788 946.764 39.0909C946.991 39.303 947.105 39.5606 947.105 39.8636C947.105 40.1667 946.995 40.4242 946.776 40.6364C946.556 40.8485 946.291 40.9545 945.98 40.9545ZM953.855 50.1818V61.5H952.469V44.0455H953.821V46.8068H953.957C954.366 45.9053 955.022 45.1818 955.923 44.6364C956.825 44.0909 957.897 43.8182 959.139 43.8182C960.313 43.8182 961.344 44.0682 962.23 44.5682C963.124 45.0682 963.821 45.7803 964.321 46.7045C964.829 47.6212 965.082 48.7159 965.082 49.9886V61.5H963.696V50.0455C963.696 48.5606 963.253 47.3674 962.366 46.4659C961.488 45.5568 960.325 45.1023 958.878 45.1023C957.908 45.1023 957.045 45.3144 956.287 45.7386C955.529 46.1629 954.935 46.7576 954.503 47.5227C954.071 48.2803 953.855 49.1667 953.855 50.1818ZM977.139 68.4091C976.056 68.4091 975.082 68.2652 974.219 67.9773C973.355 67.697 972.62 67.2955 972.014 66.7727C971.416 66.25 970.957 65.6288 970.639 64.9091L971.798 64.2273C972.056 64.7879 972.423 65.2879 972.901 65.7273C973.378 66.1667 973.969 66.5114 974.673 66.7614C975.385 67.0114 976.207 67.1364 977.139 67.1364C978.821 67.1364 980.151 66.7008 981.128 65.8295C982.113 64.9659 982.605 63.6402 982.605 61.8523V57.5114H982.469C982.204 58.2689 981.81 58.9432 981.287 59.5341C980.772 60.1174 980.139 60.5758 979.389 60.9091C978.639 61.2424 977.787 61.4091 976.832 61.4091C975.454 61.4091 974.241 61.053 973.196 60.3409C972.151 59.6288 971.336 58.6288 970.753 57.3409C970.17 56.0455 969.878 54.5227 969.878 52.7727C969.878 51.0227 970.162 49.4735 970.73 48.125C971.306 46.7689 972.116 45.7083 973.162 44.9432C974.207 44.1705 975.435 43.7841 976.844 43.7841C977.851 43.7841 978.723 43.9773 979.457 44.3636C980.2 44.7424 980.821 45.2462 981.321 45.875C981.821 46.5038 982.207 47.1932 982.48 47.9432H982.639V44.0455H983.98V61.9091C983.98 63.3636 983.692 64.572 983.116 65.5341C982.548 66.4962 981.749 67.2159 980.719 67.6932C979.696 68.1705 978.503 68.4091 977.139 68.4091ZM976.957 60.125C978.124 60.125 979.128 59.8295 979.969 59.2386C980.817 58.6402 981.469 57.7917 981.923 56.6932C982.385 55.5871 982.616 54.2765 982.616 52.7614C982.616 51.2917 982.393 49.9773 981.946 48.8182C981.499 47.6591 980.851 46.7462 980.003 46.0795C979.154 45.4129 978.139 45.0795 976.957 45.0795C975.753 45.0795 974.726 45.4205 973.878 46.1023C973.029 46.7765 972.378 47.6932 971.923 48.8523C971.476 50.0114 971.253 51.3144 971.253 52.7614C971.253 54.2159 971.48 55.4962 971.935 56.6023C972.389 57.7008 973.041 58.5644 973.889 59.1932C974.738 59.8144 975.76 60.125 976.957 60.125ZM1004.68 61.8182C1003.35 61.8182 1002.17 61.5417 1001.14 60.9886C1000.12 60.4356 999.313 59.6894 998.722 58.75C998.138 57.803 997.847 56.7386 997.847 55.5568C997.847 54.7689 998.002 54.0492 998.312 53.3977C998.623 52.7386 999.093 52.0909 999.722 51.4545C1000.36 50.8106 1001.16 50.1288 1002.13 49.4091L1005.53 46.875C1006.48 46.1629 1007.18 45.4962 1007.62 44.875C1008.07 44.2462 1008.29 43.5265 1008.29 42.7159C1008.29 41.7462 1007.96 40.9167 1007.29 40.2273C1006.63 39.5379 1005.79 39.1932 1004.77 39.1932C1004.07 39.1932 1003.43 39.375 1002.85 39.7386C1002.27 40.0947 1001.81 40.5606 1001.46 41.1364C1001.12 41.7121 1000.95 42.3295 1000.95 42.9886C1000.95 43.5038 1001.07 44.0152 1001.31 44.5227C1001.56 45.0227 1001.91 45.5758 1002.37 46.1818C1002.83 46.7803 1003.38 47.4773 1004.03 48.2727L1014.62 61.5H1012.94L1003.21 49.375C1002.46 48.4508 1001.81 47.6402 1001.27 46.9432C1000.72 46.2462 1000.3 45.5833 1000.01 44.9545C999.71 44.3258 999.562 43.6629 999.562 42.9659C999.562 42.0341 999.79 41.1894 1000.24 40.4318C1000.71 39.6667 1001.33 39.0606 1002.11 38.6136C1002.89 38.1667 1003.77 37.9432 1004.74 37.9432C1005.71 37.9432 1006.57 38.1553 1007.31 38.5795C1008.05 38.9962 1008.63 39.5682 1009.05 40.2955C1009.47 41.0152 1009.68 41.822 1009.68 42.7159C1009.68 43.7083 1009.41 44.6061 1008.88 45.4091C1008.36 46.2121 1007.54 47.0417 1006.44 47.8977L1002.62 50.7386C1001.35 51.7083 1000.46 52.572 999.972 53.3295C999.487 54.0871 999.244 54.8295 999.244 55.5568C999.244 56.4659 999.479 57.2955 999.949 58.0455C1000.42 58.7955 1001.06 59.3977 1001.87 59.8523C1002.69 60.3068 1003.62 60.5379 1004.65 60.5455C1005.7 60.5303 1006.66 60.3258 1007.55 59.9318C1008.44 59.5379 1009.22 58.9886 1009.89 58.2841C1010.57 57.572 1011.13 56.7273 1011.55 55.75C1011.98 54.7652 1012.26 53.6705 1012.39 52.4659L1013.74 52.5341C1013.67 53.4811 1013.5 54.3333 1013.24 55.0909C1012.99 55.8409 1012.69 56.5038 1012.35 57.0795C1012.01 57.6553 1011.69 58.1439 1011.38 58.5455C1011.29 58.6667 1011.2 58.7841 1011.12 58.8977C1011.04 59.0114 1010.95 59.1212 1010.85 59.2273C1010.08 60.053 1009.14 60.6932 1008.03 61.1477C1006.92 61.5947 1005.8 61.8182 1004.68 61.8182ZM1040.13 44.0455C1040.01 42.5985 1039.42 41.428 1038.36 40.5341C1037.3 39.6402 1035.94 39.1932 1034.26 39.1932C1033.14 39.1932 1032.13 39.4015 1031.25 39.8182C1030.37 40.2348 1029.68 40.803 1029.18 41.5227C1028.68 42.2424 1028.43 43.0682 1028.43 44C1028.43 44.5985 1028.55 45.1402 1028.78 45.625C1029.01 46.1023 1029.34 46.5303 1029.76 46.9091C1030.19 47.2803 1030.69 47.6061 1031.28 47.8864C1031.86 48.1667 1032.5 48.4129 1033.21 48.625L1035.75 49.375C1036.62 49.6402 1037.43 49.947 1038.16 50.2955C1038.9 50.6439 1039.55 51.0606 1040.09 51.5455C1040.65 52.0227 1041.07 52.5833 1041.38 53.2273C1041.69 53.8712 1041.84 54.6136 1041.84 55.4545C1041.84 56.6818 1041.53 57.7803 1040.89 58.75C1040.26 59.7197 1039.36 60.4848 1038.2 61.0455C1037.04 61.5985 1035.67 61.875 1034.09 61.875C1032.59 61.875 1031.29 61.6212 1030.17 61.1136C1029.07 60.6061 1028.19 59.9015 1027.55 59C1026.9 58.0909 1026.54 57.0455 1026.46 55.8636H1027.91C1027.99 56.8258 1028.29 57.6591 1028.83 58.3636C1029.38 59.0606 1030.1 59.5985 1031 59.9773C1031.9 60.3561 1032.93 60.5455 1034.09 60.5455C1035.34 60.5455 1036.45 60.3333 1037.4 59.9091C1038.36 59.4773 1039.1 58.8788 1039.64 58.1136C1040.18 57.3485 1040.45 56.4583 1040.45 55.4432C1040.45 54.625 1040.25 53.9242 1039.87 53.3409C1039.48 52.7576 1038.91 52.2538 1038.15 51.8295C1037.4 51.4053 1036.47 51.0265 1035.36 50.6932L1032.64 49.875C1030.82 49.322 1029.43 48.5682 1028.47 47.6136C1027.51 46.6591 1027.04 45.4697 1027.04 44.0455C1027.04 42.8485 1027.36 41.7879 1027.99 40.8636C1028.63 39.9318 1029.49 39.2008 1030.58 38.6705C1031.68 38.1402 1032.92 37.875 1034.3 37.875C1035.68 37.875 1036.91 38.1439 1037.97 38.6818C1039.03 39.2121 1039.87 39.9432 1040.49 40.875C1041.11 41.7992 1041.46 42.8561 1041.53 44.0455H1040.13ZM1048.36 50.1818V61.5H1046.97V38.2273H1048.36V46.8068H1048.49C1048.9 45.8977 1049.55 45.1742 1050.45 44.6364C1051.35 44.0909 1052.43 43.8182 1053.68 43.8182C1054.86 43.8182 1055.89 44.0682 1056.79 44.5682C1057.68 45.0606 1058.38 45.7689 1058.88 46.6932C1059.39 47.6098 1059.64 48.7083 1059.64 49.9886V61.5H1058.26V50.0455C1058.26 48.553 1057.82 47.3561 1056.93 46.4545C1056.05 45.553 1054.88 45.1023 1053.42 45.1023C1052.45 45.1023 1051.57 45.3144 1050.81 45.7386C1050.04 46.1629 1049.44 46.7576 1049 47.5227C1048.57 48.2803 1048.36 49.1667 1048.36 50.1818ZM1070 61.875C1068.99 61.875 1068.07 61.6742 1067.23 61.2727C1066.39 60.8712 1065.72 60.2841 1065.22 59.5114C1064.72 58.7386 1064.47 57.7992 1064.47 56.6932C1064.47 55.9659 1064.59 55.3258 1064.85 54.7727C1065.11 54.2197 1065.51 53.7424 1066.05 53.3409C1066.58 52.9394 1067.27 52.6098 1068.11 52.3523C1068.95 52.0871 1069.96 51.8826 1071.12 51.7386C1072.01 51.6326 1072.8 51.5303 1073.5 51.4318C1074.2 51.3258 1074.74 51.1629 1075.14 50.9432C1075.54 50.7235 1075.74 50.3902 1075.74 49.9432V49.2159C1075.74 47.9432 1075.34 46.9318 1074.53 46.1818C1073.73 45.4318 1072.63 45.0568 1071.22 45.0568C1069.97 45.0568 1068.91 45.3333 1068.06 45.8864C1067.21 46.4318 1066.61 47.1364 1066.27 48L1064.97 47.5114C1065.3 46.678 1065.78 45.9848 1066.41 45.4318C1067.05 44.8788 1067.77 44.4659 1068.59 44.1932C1069.42 43.9205 1070.28 43.7841 1071.18 43.7841C1071.96 43.7841 1072.7 43.8939 1073.41 44.1136C1074.12 44.3333 1074.75 44.6667 1075.31 45.1136C1075.87 45.5606 1076.31 46.1326 1076.64 46.8295C1076.96 47.5189 1077.12 48.3447 1077.12 49.3068V61.5H1075.74V58.3523H1075.64C1075.33 59.0038 1074.92 59.5985 1074.39 60.1364C1073.86 60.6667 1073.23 61.0909 1072.49 61.4091C1071.75 61.7197 1070.92 61.875 1070 61.875ZM1070.14 60.5909C1071.23 60.5909 1072.19 60.3258 1073.03 59.7955C1073.88 59.2576 1074.55 58.5227 1075.02 57.5909C1075.5 56.6591 1075.74 55.6023 1075.74 54.4205V51.8523C1075.56 52.0038 1075.31 52.1402 1074.98 52.2614C1074.65 52.375 1074.28 52.4773 1073.86 52.5682C1073.45 52.6515 1073.02 52.7273 1072.57 52.7955C1072.12 52.8561 1071.69 52.9129 1071.26 52.9659C1069.99 53.1174 1068.95 53.3523 1068.15 53.6705C1067.35 53.9811 1066.77 54.3902 1066.4 54.8977C1066.03 55.4053 1065.85 56.0189 1065.85 56.7386C1065.85 57.928 1066.26 58.8674 1067.08 59.5568C1067.9 60.2462 1068.92 60.5909 1070.14 60.5909ZM1082.94 61.5V44.0455H1084.29V46.7727H1084.41C1084.79 45.8788 1085.43 45.1629 1086.34 44.625C1087.24 44.0795 1088.26 43.8068 1089.41 43.8068C1089.54 43.8068 1089.66 43.8068 1089.78 43.8068C1089.9 43.8068 1090.01 43.8106 1090.12 43.8182V45.2159C1090.03 45.2083 1089.92 45.197 1089.79 45.1818C1089.67 45.1591 1089.52 45.1477 1089.34 45.1477C1088.37 45.1477 1087.5 45.3561 1086.74 45.7727C1085.99 46.1894 1085.4 46.7652 1084.97 47.5C1084.54 48.2273 1084.32 49.0606 1084.32 50V61.5H1082.94ZM1093.91 61.5V44.0455H1095.29V61.5H1093.91ZM1094.61 40.9545C1094.3 40.9545 1094.04 40.8485 1093.81 40.6364C1093.59 40.4242 1093.48 40.1667 1093.48 39.8636C1093.48 39.5606 1093.59 39.303 1093.81 39.0909C1094.03 38.8788 1094.29 38.7727 1094.61 38.7727C1094.91 38.7727 1095.17 38.8788 1095.39 39.0909C1095.62 39.303 1095.73 39.5606 1095.73 39.8636C1095.73 40.1667 1095.62 40.4242 1095.4 40.6364C1095.18 40.8485 1094.92 40.9545 1094.61 40.9545ZM1102.48 50.1818V61.5H1101.09V44.0455H1102.45V46.8068H1102.58C1102.99 45.9053 1103.65 45.1818 1104.55 44.6364C1105.45 44.0909 1106.52 43.8182 1107.76 43.8182C1108.94 43.8182 1109.97 44.0682 1110.86 44.5682C1111.75 45.0682 1112.45 45.7803 1112.95 46.7045C1113.45 47.6212 1113.71 48.7159 1113.71 49.9886V61.5H1112.32V50.0455C1112.32 48.5606 1111.88 47.3674 1110.99 46.4659C1110.11 45.5568 1108.95 45.1023 1107.5 45.1023C1106.53 45.1023 1105.67 45.3144 1104.91 45.7386C1104.15 46.1629 1103.56 46.7576 1103.13 47.5227C1102.7 48.2803 1102.48 49.1667 1102.48 50.1818ZM1125.76 68.4091C1124.68 68.4091 1123.71 68.2652 1122.84 67.9773C1121.98 67.697 1121.25 67.2955 1120.64 66.7727C1120.04 66.25 1119.58 65.6288 1119.26 64.9091L1120.42 64.2273C1120.68 64.7879 1121.05 65.2879 1121.53 65.7273C1122 66.1667 1122.59 66.5114 1123.3 66.7614C1124.01 67.0114 1124.83 67.1364 1125.76 67.1364C1127.45 67.1364 1128.78 66.7008 1129.75 65.8295C1130.74 64.9659 1131.23 63.6402 1131.23 61.8523V57.5114H1131.09C1130.83 58.2689 1130.43 58.9432 1129.91 59.5341C1129.4 60.1174 1128.76 60.5758 1128.01 60.9091C1127.26 61.2424 1126.41 61.4091 1125.46 61.4091C1124.08 61.4091 1122.87 61.053 1121.82 60.3409C1120.78 59.6288 1119.96 58.6288 1119.38 57.3409C1118.79 56.0455 1118.5 54.5227 1118.5 52.7727C1118.5 51.0227 1118.79 49.4735 1119.36 48.125C1119.93 46.7689 1120.74 45.7083 1121.79 44.9432C1122.83 44.1705 1124.06 43.7841 1125.47 43.7841C1126.48 43.7841 1127.35 43.9773 1128.08 44.3636C1128.82 44.7424 1129.45 45.2462 1129.95 45.875C1130.45 46.5038 1130.83 47.1932 1131.11 47.9432H1131.26V44.0455H1132.61V61.9091C1132.61 63.3636 1132.32 64.572 1131.74 65.5341C1131.17 66.4962 1130.37 67.2159 1129.34 67.6932C1128.32 68.1705 1127.13 68.4091 1125.76 68.4091ZM1125.58 60.125C1126.75 60.125 1127.75 59.8295 1128.59 59.2386C1129.44 58.6402 1130.09 57.7917 1130.55 56.6932C1131.01 55.5871 1131.24 54.2765 1131.24 52.7614C1131.24 51.2917 1131.02 49.9773 1130.57 48.8182C1130.12 47.6591 1129.48 46.7462 1128.63 46.0795C1127.78 45.4129 1126.76 45.0795 1125.58 45.0795C1124.38 45.0795 1123.35 45.4205 1122.5 46.1023C1121.65 46.7765 1121 47.6932 1120.55 48.8523C1120.1 50.0114 1119.88 51.3144 1119.88 52.7614C1119.88 54.2159 1120.11 55.4962 1120.56 56.6023C1121.01 57.7008 1121.67 58.5644 1122.51 59.1932C1123.36 59.8144 1124.39 60.125 1125.58 60.125Z" fill="black" fill-opacity="0.45"/>
</g>
<defs>
<filter id="filter0_d_122_20900" x="0" y="0" width="1552" height="100" filterUnits="userSpaceOnUse" color-interpolation-filters="sRGB">
<feFlood flood-opacity="0" result="BackgroundImageFix"/>
<feColorMatrix in="SourceAlpha" type="matrix" values="0 0 0 0 0 0 0 0 0 0 0 0 0 0 0 0 0 0 127 0" result="hardAlpha"/>
<feOffset/>
<feGaussianBlur stdDeviation="5"/>
<feComposite in2="hardAlpha" operator="out"/>
<feColorMatrix type="matrix" values="0 0 0 0 0 0 0 0 0 0 0 0 0 0 0 0 0 0 0.02 0"/>
<feBlend mode="normal" in2="BackgroundImageFix" result="effect1_dropShadow_122_20900"/>
<feBlend mode="normal" in="SourceGraphic" in2="effect1_dropShadow_122_20900" result="shape"/>
</filter>
</defs>
</svg>
