<svg width="1552" height="100" viewBox="0 0 1552 100" fill="none" xmlns="http://www.w3.org/2000/svg">
<g filter="url(#filter0_d_122_20901)">
<rect x="10" y="10" width="1532" height="80" rx="16" fill="white" shape-rendering="crispEdges"/>
<path d="M521 61.5L524.818 38.2273H529.364L525.545 61.5H521ZM510.682 56.1818L511.455 51.6364H530.182L529.409 56.1818H510.682ZM512.818 61.5L516.636 38.2273H521.182L517.364 61.5H512.818ZM512 48.0909L512.773 43.5455H531.5L530.727 48.0909H512ZM538.608 38.2273H545.653L550.199 47.6818H550.381L554.926 38.2273H561.972L553.426 54.1818V61.5H547.153V54.1818L538.608 38.2273ZM581.713 44.0455L575.849 61.5H568.577L562.713 44.0455H569.304L572.122 55.5909H572.304L575.122 44.0455H581.713ZM591.33 61.8182C589.466 61.8182 587.86 61.4621 586.511 60.75C585.17 60.0303 584.136 59 583.409 57.6591C582.689 56.3106 582.33 54.697 582.33 52.8182C582.33 51.0152 582.693 49.4394 583.42 48.0909C584.148 46.7424 585.174 45.6932 586.5 44.9432C587.826 44.1932 589.39 43.8182 591.193 43.8182C592.511 43.8182 593.705 44.0227 594.773 44.4318C595.841 44.8409 596.754 45.4356 597.511 46.2159C598.269 46.9886 598.852 47.928 599.261 49.0341C599.67 50.1402 599.875 51.3864 599.875 52.7727V54.2273H584.284V50.7727H594.102C594.095 50.2727 593.966 49.8333 593.716 49.4545C593.473 49.0682 593.144 48.7689 592.727 48.5568C592.318 48.3371 591.852 48.2273 591.33 48.2273C590.822 48.2273 590.356 48.3371 589.932 48.5568C589.508 48.7689 589.167 49.0644 588.909 49.4432C588.659 49.822 588.527 50.2652 588.511 50.7727V54.5C588.511 55.0606 588.629 55.5606 588.864 56C589.098 56.4394 589.436 56.7841 589.875 57.0341C590.314 57.2841 590.845 57.4091 591.466 57.4091C591.898 57.4091 592.292 57.3485 592.648 57.2273C593.011 57.1061 593.322 56.9318 593.58 56.7045C593.837 56.4697 594.027 56.1894 594.148 55.8636H599.875C599.678 57.0758 599.212 58.1288 598.477 59.0227C597.742 59.9091 596.769 60.5985 595.557 61.0909C594.352 61.5758 592.943 61.8182 591.33 61.8182ZM618.389 49.7273H612.616C612.586 49.3712 612.461 49.0644 612.241 48.8068C612.022 48.5492 611.738 48.3523 611.389 48.2159C611.048 48.072 610.67 48 610.253 48C609.715 48 609.253 48.0985 608.866 48.2955C608.48 48.4924 608.291 48.7727 608.298 49.1364C608.291 49.3939 608.401 49.6326 608.628 49.8523C608.863 50.072 609.313 50.2424 609.98 50.3636L613.526 51C615.313 51.3258 616.643 51.875 617.514 52.6477C618.393 53.4129 618.836 54.4394 618.844 55.7273C618.836 56.9697 618.465 58.0492 617.73 58.9659C617.003 59.875 616.007 60.5795 614.741 61.0795C613.484 61.572 612.048 61.8182 610.435 61.8182C607.768 61.8182 605.681 61.2727 604.173 60.1818C602.673 59.0909 601.836 57.6515 601.662 55.8636H607.889C607.973 56.4167 608.245 56.8447 608.707 57.1477C609.177 57.4432 609.768 57.5909 610.48 57.5909C611.056 57.5909 611.529 57.4924 611.901 57.2955C612.279 57.0985 612.473 56.8182 612.48 56.4545C612.473 56.1212 612.306 55.8561 611.98 55.6591C611.662 55.4621 611.162 55.303 610.48 55.1818L607.389 54.6364C605.609 54.3258 604.276 53.7348 603.389 52.8636C602.503 51.9924 602.063 50.8712 602.071 49.5C602.063 48.2879 602.382 47.2614 603.026 46.4205C603.677 45.572 604.605 44.928 605.81 44.4886C607.022 44.0417 608.457 43.8182 610.116 43.8182C612.639 43.8182 614.628 44.3409 616.082 45.3864C617.545 46.4318 618.313 47.8788 618.389 49.7273ZM636.486 61.5H627.531V38.2273H636.395C638.789 38.2273 640.857 38.6932 642.599 39.625C644.349 40.5492 645.698 41.8826 646.645 43.625C647.599 45.3598 648.077 47.4394 648.077 49.8636C648.077 52.2879 647.603 54.3712 646.656 56.1136C645.709 57.8485 644.368 59.1818 642.634 60.1136C640.899 61.0379 638.849 61.5 636.486 61.5ZM633.849 56.1364H636.259C637.41 56.1364 638.391 55.9508 639.202 55.5795C640.02 55.2083 640.641 54.5682 641.065 53.6591C641.497 52.75 641.713 51.4848 641.713 49.8636C641.713 48.2424 641.493 46.9773 641.054 46.0682C640.622 45.1591 639.986 44.5189 639.145 44.1477C638.312 43.7765 637.289 43.5909 636.077 43.5909H633.849V56.1364ZM651 61.5V38.2273H667.773V43.3182H657.318V47.3182H666.909V52.4091H657.318V56.4091H667.727V61.5H651ZM683.452 45.5C683.391 44.7424 683.107 44.1515 682.599 43.7273C682.099 43.303 681.338 43.0909 680.315 43.0909C679.664 43.0909 679.13 43.1705 678.713 43.3295C678.304 43.4811 678.001 43.6894 677.804 43.9545C677.607 44.2197 677.505 44.5227 677.497 44.8636C677.482 45.1439 677.531 45.3977 677.645 45.625C677.766 45.8447 677.955 46.0455 678.213 46.2273C678.471 46.4015 678.8 46.5606 679.202 46.7045C679.603 46.8485 680.08 46.9773 680.634 47.0909L682.543 47.5C683.83 47.7727 684.933 48.1326 685.849 48.5795C686.766 49.0265 687.516 49.553 688.099 50.1591C688.683 50.7576 689.111 51.4318 689.384 52.1818C689.664 52.9318 689.808 53.75 689.815 54.6364C689.808 56.1667 689.425 57.4621 688.668 58.5227C687.91 59.5833 686.827 60.3902 685.418 60.9432C684.016 61.4962 682.33 61.7727 680.361 61.7727C678.338 61.7727 676.573 61.4735 675.065 60.875C673.565 60.2765 672.399 59.3561 671.565 58.1136C670.74 56.8636 670.323 55.2652 670.315 53.3182H676.315C676.353 54.0303 676.531 54.6288 676.849 55.1136C677.168 55.5985 677.615 55.9659 678.19 56.2159C678.774 56.4659 679.467 56.5909 680.27 56.5909C680.944 56.5909 681.509 56.5076 681.963 56.3409C682.418 56.1742 682.762 55.9432 682.997 55.6477C683.232 55.3523 683.353 55.0152 683.361 54.6364C683.353 54.2803 683.236 53.9697 683.009 53.7045C682.789 53.4318 682.425 53.1894 681.918 52.9773C681.41 52.7576 680.724 52.553 679.861 52.3636L677.543 51.8636C675.482 51.4167 673.857 50.6705 672.668 49.625C671.486 48.572 670.899 47.1364 670.906 45.3182C670.899 43.8409 671.293 42.5492 672.088 41.4432C672.891 40.3295 674.001 39.4621 675.418 38.8409C676.842 38.2197 678.474 37.9091 680.315 37.9091C682.194 37.9091 683.819 38.2235 685.19 38.8523C686.562 39.4811 687.618 40.3674 688.361 41.5114C689.111 42.6477 689.49 43.9773 689.497 45.5H683.452ZM692.31 61.5V44.0455H698.582V61.5H692.31ZM695.446 42.2273C694.598 42.2273 693.87 41.947 693.264 41.3864C692.658 40.8258 692.355 40.1515 692.355 39.3636C692.355 38.5758 692.658 37.9015 693.264 37.3409C693.87 36.7803 694.598 36.5 695.446 36.5C696.302 36.5 697.029 36.7803 697.628 37.3409C698.234 37.9015 698.537 38.5758 698.537 39.3636C698.537 40.1515 698.234 40.8258 697.628 41.3864C697.029 41.947 696.302 42.2273 695.446 42.2273ZM716.801 45.9091C716.703 45.5076 716.547 45.1553 716.335 44.8523C716.123 44.5417 715.858 44.2803 715.54 44.0682C715.229 43.8485 714.866 43.6856 714.449 43.5795C714.04 43.4659 713.589 43.4091 713.097 43.4091C712.036 43.4091 711.131 43.6629 710.381 44.1705C709.638 44.678 709.07 45.4091 708.676 46.3636C708.29 47.3182 708.097 48.4697 708.097 49.8182C708.097 51.1818 708.282 52.3485 708.653 53.3182C709.025 54.2879 709.578 55.0303 710.312 55.5455C711.047 56.0606 711.96 56.3182 713.051 56.3182C714.013 56.3182 714.813 56.178 715.449 55.8977C716.093 55.6174 716.574 55.2197 716.892 54.7045C717.21 54.1894 717.369 53.5833 717.369 52.8864L718.46 53H713.142V48.5H723.46V51.7273C723.46 53.8485 723.009 55.6629 722.108 57.1705C721.214 58.6705 719.979 59.822 718.403 60.625C716.835 61.4205 715.036 61.8182 713.006 61.8182C710.741 61.8182 708.752 61.3371 707.04 60.375C705.328 59.4129 703.991 58.0417 703.028 56.2614C702.074 54.4811 701.597 52.3636 701.597 49.9091C701.597 47.9848 701.888 46.2803 702.472 44.7955C703.063 43.3106 703.881 42.0568 704.926 41.0341C705.972 40.0038 707.18 39.2273 708.551 38.7045C709.922 38.1742 711.392 37.9091 712.96 37.9091C714.339 37.9091 715.619 38.1061 716.801 38.5C717.991 38.8864 719.04 39.4394 719.949 40.1591C720.866 40.8712 721.604 41.7159 722.165 42.6932C722.725 43.6705 723.066 44.7424 723.188 45.9091H716.801ZM746.543 38.2273V61.5H741.27L732.861 49.2727H732.724V61.5H726.406V38.2273H731.77L740.043 50.4091H740.224V38.2273H746.543Z" fill="black" fill-opacity="0.85"/>
<path d="M767.864 61.5V38.2273H769.284V60.1818H780.648V61.5H767.864ZM792.182 61.8636C790.606 61.8636 789.235 61.4735 788.068 60.6932C786.902 59.9129 786 58.8447 785.364 57.4886C784.727 56.1326 784.409 54.5871 784.409 52.8523C784.409 51.1098 784.727 49.5568 785.364 48.1932C786.008 46.8295 786.89 45.7538 788.011 44.9659C789.133 44.178 790.413 43.7841 791.852 43.7841C792.83 43.7841 793.754 43.9811 794.625 44.375C795.504 44.7614 796.277 45.322 796.943 46.0568C797.617 46.7917 798.144 47.678 798.523 48.7159C798.909 49.7538 799.102 50.9205 799.102 52.2159V53.0795H785.284V51.8182H797.716C797.716 50.553 797.458 49.4129 796.943 48.3977C796.428 47.3826 795.727 46.5758 794.841 45.9773C793.955 45.3788 792.958 45.0795 791.852 45.0795C790.693 45.0795 789.659 45.4053 788.75 46.0568C787.848 46.7008 787.133 47.572 786.602 48.6705C786.08 49.7689 785.807 50.9962 785.784 52.3523V52.9205C785.784 54.375 786.038 55.6818 786.545 56.8409C787.061 57.9924 787.795 58.9053 788.75 59.5795C789.705 60.2462 790.848 60.5795 792.182 60.5795C793.136 60.5795 793.951 60.4205 794.625 60.1023C795.307 59.7765 795.864 59.3826 796.295 58.9205C796.727 58.4583 797.053 58.0114 797.273 57.5795L798.534 58.0909C798.269 58.6742 797.856 59.2576 797.295 59.8409C796.742 60.4167 796.038 60.8977 795.182 61.2841C794.333 61.6705 793.333 61.8636 792.182 61.8636ZM808.5 61.875C807.492 61.875 806.568 61.6742 805.727 61.2727C804.894 60.8712 804.223 60.2841 803.716 59.5114C803.216 58.7386 802.966 57.7992 802.966 56.6932C802.966 55.9659 803.095 55.3258 803.352 54.7727C803.61 54.2197 804.008 53.7424 804.545 53.3409C805.083 52.9394 805.773 52.6098 806.614 52.3523C807.455 52.0871 808.458 51.8826 809.625 51.7386C810.511 51.6326 811.303 51.5303 812 51.4318C812.697 51.3258 813.242 51.1629 813.636 50.9432C814.038 50.7235 814.239 50.3902 814.239 49.9432V49.2159C814.239 47.9432 813.837 46.9318 813.034 46.1818C812.231 45.4318 811.125 45.0568 809.716 45.0568C808.466 45.0568 807.413 45.3333 806.557 45.8864C805.708 46.4318 805.114 47.1364 804.773 48L803.466 47.5114C803.799 46.678 804.28 45.9848 804.909 45.4318C805.545 44.8788 806.273 44.4659 807.091 44.1932C807.917 43.9205 808.78 43.7841 809.682 43.7841C810.462 43.7841 811.205 43.8939 811.909 44.1136C812.621 44.3333 813.254 44.6667 813.807 45.1136C814.367 45.5606 814.811 46.1326 815.136 46.8295C815.462 47.5189 815.625 48.3447 815.625 49.3068V61.5H814.239V58.3523H814.136C813.833 59.0038 813.417 59.5985 812.886 60.1364C812.364 60.6667 811.731 61.0909 810.989 61.4091C810.254 61.7197 809.424 61.875 808.5 61.875ZM808.636 60.5909C809.727 60.5909 810.693 60.3258 811.534 59.7955C812.383 59.2576 813.045 58.5227 813.523 57.5909C814 56.6591 814.239 55.6023 814.239 54.4205V51.8523C814.064 52.0038 813.811 52.1402 813.477 52.2614C813.152 52.375 812.78 52.4773 812.364 52.5682C811.955 52.6515 811.523 52.7273 811.068 52.7955C810.621 52.8561 810.186 52.9129 809.761 52.9659C808.489 53.1174 807.451 53.3523 806.648 53.6705C805.852 53.9811 805.269 54.3902 804.898 54.8977C804.534 55.4053 804.352 56.0189 804.352 56.7386C804.352 57.928 804.761 58.8674 805.58 59.5568C806.398 60.2462 807.417 60.5909 808.636 60.5909ZM821.438 61.5V44.0455H822.79V46.7727H822.915C823.294 45.8788 823.934 45.1629 824.835 44.625C825.737 44.0795 826.763 43.8068 827.915 43.8068C828.036 43.8068 828.157 43.8068 828.278 43.8068C828.4 43.8068 828.513 43.8106 828.619 43.8182V45.2159C828.528 45.2083 828.419 45.197 828.29 45.1818C828.169 45.1591 828.017 45.1477 827.835 45.1477C826.866 45.1477 826.002 45.3561 825.244 45.7727C824.494 46.1894 823.903 46.7652 823.472 47.5C823.04 48.2273 822.824 49.0606 822.824 50V61.5H821.438ZM833.73 50.1818V61.5H832.344V44.0455H833.696V46.8068H833.832C834.241 45.9053 834.897 45.1818 835.798 44.6364C836.7 44.0909 837.772 43.8182 839.014 43.8182C840.188 43.8182 841.219 44.0682 842.105 44.5682C842.999 45.0682 843.696 45.7803 844.196 46.7045C844.704 47.6212 844.957 48.7159 844.957 49.9886V61.5H843.571V50.0455C843.571 48.5606 843.128 47.3674 842.241 46.4659C841.363 45.5568 840.2 45.1023 838.753 45.1023C837.783 45.1023 836.92 45.3144 836.162 45.7386C835.404 46.1629 834.81 46.7576 834.378 47.5227C833.946 48.2803 833.73 49.1667 833.73 50.1818ZM850.787 61.5V44.0455H852.162V61.5H850.787ZM851.48 40.9545C851.177 40.9545 850.912 40.8485 850.685 40.6364C850.465 40.4242 850.355 40.1667 850.355 39.8636C850.355 39.5606 850.465 39.303 850.685 39.0909C850.904 38.8788 851.17 38.7727 851.48 38.7727C851.783 38.7727 852.045 38.8788 852.264 39.0909C852.491 39.303 852.605 39.5606 852.605 39.8636C852.605 40.1667 852.495 40.4242 852.276 40.6364C852.056 40.8485 851.791 40.9545 851.48 40.9545ZM859.355 50.1818V61.5H857.969V44.0455H859.321V46.8068H859.457C859.866 45.9053 860.522 45.1818 861.423 44.6364C862.325 44.0909 863.397 43.8182 864.639 43.8182C865.813 43.8182 866.844 44.0682 867.73 44.5682C868.624 45.0682 869.321 45.7803 869.821 46.7045C870.329 47.6212 870.582 48.7159 870.582 49.9886V61.5H869.196V50.0455C869.196 48.5606 868.753 47.3674 867.866 46.4659C866.988 45.5568 865.825 45.1023 864.378 45.1023C863.408 45.1023 862.545 45.3144 861.787 45.7386C861.029 46.1629 860.435 46.7576 860.003 47.5227C859.571 48.2803 859.355 49.1667 859.355 50.1818ZM882.639 68.4091C881.556 68.4091 880.582 68.2652 879.719 67.9773C878.855 67.697 878.12 67.2955 877.514 66.7727C876.916 66.25 876.457 65.6288 876.139 64.9091L877.298 64.2273C877.556 64.7879 877.923 65.2879 878.401 65.7273C878.878 66.1667 879.469 66.5114 880.173 66.7614C880.885 67.0114 881.707 67.1364 882.639 67.1364C884.321 67.1364 885.651 66.7008 886.628 65.8295C887.613 64.9659 888.105 63.6402 888.105 61.8523V57.5114H887.969C887.704 58.2689 887.31 58.9432 886.787 59.5341C886.272 60.1174 885.639 60.5758 884.889 60.9091C884.139 61.2424 883.287 61.4091 882.332 61.4091C880.954 61.4091 879.741 61.053 878.696 60.3409C877.651 59.6288 876.836 58.6288 876.253 57.3409C875.67 56.0455 875.378 54.5227 875.378 52.7727C875.378 51.0227 875.662 49.4735 876.23 48.125C876.806 46.7689 877.616 45.7083 878.662 44.9432C879.707 44.1705 880.935 43.7841 882.344 43.7841C883.351 43.7841 884.223 43.9773 884.957 44.3636C885.7 44.7424 886.321 45.2462 886.821 45.875C887.321 46.5038 887.707 47.1932 887.98 47.9432H888.139V44.0455H889.48V61.9091C889.48 63.3636 889.192 64.572 888.616 65.5341C888.048 66.4962 887.249 67.2159 886.219 67.6932C885.196 68.1705 884.003 68.4091 882.639 68.4091ZM882.457 60.125C883.624 60.125 884.628 59.8295 885.469 59.2386C886.317 58.6402 886.969 57.7917 887.423 56.6932C887.885 55.5871 888.116 54.2765 888.116 52.7614C888.116 51.2917 887.893 49.9773 887.446 48.8182C886.999 47.6591 886.351 46.7462 885.503 46.0795C884.654 45.4129 883.639 45.0795 882.457 45.0795C881.253 45.0795 880.226 45.4205 879.378 46.1023C878.529 46.7765 877.878 47.6932 877.423 48.8523C876.976 50.0114 876.753 51.3144 876.753 52.7614C876.753 54.2159 876.98 55.4962 877.435 56.6023C877.889 57.7008 878.541 58.5644 879.389 59.1932C880.238 59.8144 881.26 60.125 882.457 60.125ZM910.176 61.8182C908.85 61.8182 907.672 61.5417 906.642 60.9886C905.619 60.4356 904.813 59.6894 904.222 58.75C903.638 57.803 903.347 56.7386 903.347 55.5568C903.347 54.7689 903.502 54.0492 903.812 53.3977C904.123 52.7386 904.593 52.0909 905.222 51.4545C905.858 50.8106 906.661 50.1288 907.631 49.4091L911.028 46.875C911.983 46.1629 912.68 45.4962 913.119 44.875C913.566 44.2462 913.79 43.5265 913.79 42.7159C913.79 41.7462 913.456 40.9167 912.79 40.2273C912.131 39.5379 911.29 39.1932 910.267 39.1932C909.57 39.1932 908.93 39.375 908.347 39.7386C907.771 40.0947 907.309 40.5606 906.96 41.1364C906.619 41.7121 906.449 42.3295 906.449 42.9886C906.449 43.5038 906.57 44.0152 906.812 44.5227C907.062 45.0227 907.415 45.5758 907.869 46.1818C908.331 46.7803 908.884 47.4773 909.528 48.2727L920.119 61.5H918.438L908.71 49.375C907.96 48.4508 907.313 47.6402 906.767 46.9432C906.222 46.2462 905.801 45.5833 905.506 44.9545C905.21 44.3258 905.062 43.6629 905.062 42.9659C905.062 42.0341 905.29 41.1894 905.744 40.4318C906.206 39.6667 906.828 39.0606 907.608 38.6136C908.388 38.1667 909.267 37.9432 910.244 37.9432C911.214 37.9432 912.07 38.1553 912.812 38.5795C913.555 38.9962 914.134 39.5682 914.551 40.2955C914.968 41.0152 915.176 41.822 915.176 42.7159C915.176 43.7083 914.911 44.6061 914.381 45.4091C913.858 46.2121 913.044 47.0417 911.938 47.8977L908.119 50.7386C906.847 51.7083 905.964 52.572 905.472 53.3295C904.987 54.0871 904.744 54.8295 904.744 55.5568C904.744 56.4659 904.979 57.2955 905.449 58.0455C905.919 58.7955 906.559 59.3977 907.369 59.8523C908.188 60.3068 909.116 60.5379 910.153 60.5455C911.199 60.5303 912.165 60.3258 913.051 59.9318C913.938 59.5379 914.718 58.9886 915.392 58.2841C916.074 57.572 916.627 56.7273 917.051 55.75C917.483 54.7652 917.763 53.6705 917.892 52.4659L919.244 52.5341C919.169 53.4811 919.002 54.3333 918.744 55.0909C918.487 55.8409 918.188 56.5038 917.847 57.0795C917.513 57.6553 917.191 58.1439 916.881 58.5455C916.79 58.6667 916.703 58.7841 916.619 58.8977C916.536 59.0114 916.445 59.1212 916.347 59.2273C915.581 60.053 914.642 60.6932 913.528 61.1477C912.422 61.5947 911.305 61.8182 910.176 61.8182ZM945.628 44.0455C945.507 42.5985 944.916 41.428 943.855 40.5341C942.802 39.6402 941.438 39.1932 939.764 39.1932C938.635 39.1932 937.632 39.4015 936.753 39.8182C935.874 40.2348 935.185 40.803 934.685 41.5227C934.185 42.2424 933.935 43.0682 933.935 44C933.935 44.5985 934.048 45.1402 934.276 45.625C934.51 46.1023 934.84 46.5303 935.264 46.9091C935.688 47.2803 936.192 47.6061 936.776 47.8864C937.359 48.1667 938.003 48.4129 938.707 48.625L941.253 49.375C942.124 49.6402 942.927 49.947 943.662 50.2955C944.404 50.6439 945.048 51.0606 945.594 51.5455C946.147 52.0227 946.575 52.5833 946.878 53.2273C947.188 53.8712 947.344 54.6136 947.344 55.4545C947.344 56.6818 947.026 57.7803 946.389 58.75C945.76 59.7197 944.863 60.4848 943.696 61.0455C942.537 61.5985 941.17 61.875 939.594 61.875C938.094 61.875 936.787 61.6212 935.673 61.1136C934.567 60.6061 933.692 59.9015 933.048 59C932.404 58.0909 932.041 57.0455 931.957 55.8636H933.412C933.488 56.8258 933.795 57.6591 934.332 58.3636C934.878 59.0606 935.601 59.5985 936.503 59.9773C937.404 60.3561 938.435 60.5455 939.594 60.5455C940.844 60.5455 941.946 60.3333 942.901 59.9091C943.855 59.4773 944.601 58.8788 945.139 58.1136C945.677 57.3485 945.946 56.4583 945.946 55.4432C945.946 54.625 945.753 53.9242 945.366 53.3409C944.98 52.7576 944.408 52.2538 943.651 51.8295C942.901 51.4053 941.969 51.0265 940.855 50.6932L938.139 49.875C936.321 49.322 934.931 48.5682 933.969 47.6136C933.014 46.6591 932.537 45.4697 932.537 44.0455C932.537 42.8485 932.855 41.7879 933.491 40.8636C934.128 39.9318 934.991 39.2008 936.082 38.6705C937.181 38.1402 938.42 37.875 939.798 37.875C941.185 37.875 942.408 38.1439 943.469 38.6818C944.529 39.2121 945.37 39.9432 945.991 40.875C946.613 41.7992 946.957 42.8561 947.026 44.0455H945.628ZM953.855 50.1818V61.5H952.469V38.2273H953.855V46.8068H953.991C954.401 45.8977 955.052 45.1742 955.946 44.6364C956.848 44.0909 957.927 43.8182 959.185 43.8182C960.359 43.8182 961.393 44.0682 962.287 44.5682C963.181 45.0606 963.878 45.7689 964.378 46.6932C964.885 47.6098 965.139 48.7083 965.139 49.9886V61.5H963.764V50.0455C963.764 48.553 963.321 47.3561 962.435 46.4545C961.548 45.553 960.378 45.1023 958.923 45.1023C957.946 45.1023 957.075 45.3144 956.31 45.7386C955.545 46.1629 954.942 46.7576 954.503 47.5227C954.071 48.2803 953.855 49.1667 953.855 50.1818ZM975.5 61.875C974.492 61.875 973.568 61.6742 972.727 61.2727C971.894 60.8712 971.223 60.2841 970.716 59.5114C970.216 58.7386 969.966 57.7992 969.966 56.6932C969.966 55.9659 970.095 55.3258 970.352 54.7727C970.61 54.2197 971.008 53.7424 971.545 53.3409C972.083 52.9394 972.773 52.6098 973.614 52.3523C974.455 52.0871 975.458 51.8826 976.625 51.7386C977.511 51.6326 978.303 51.5303 979 51.4318C979.697 51.3258 980.242 51.1629 980.636 50.9432C981.038 50.7235 981.239 50.3902 981.239 49.9432V49.2159C981.239 47.9432 980.837 46.9318 980.034 46.1818C979.231 45.4318 978.125 45.0568 976.716 45.0568C975.466 45.0568 974.413 45.3333 973.557 45.8864C972.708 46.4318 972.114 47.1364 971.773 48L970.466 47.5114C970.799 46.678 971.28 45.9848 971.909 45.4318C972.545 44.8788 973.273 44.4659 974.091 44.1932C974.917 43.9205 975.78 43.7841 976.682 43.7841C977.462 43.7841 978.205 43.8939 978.909 44.1136C979.621 44.3333 980.254 44.6667 980.807 45.1136C981.367 45.5606 981.811 46.1326 982.136 46.8295C982.462 47.5189 982.625 48.3447 982.625 49.3068V61.5H981.239V58.3523H981.136C980.833 59.0038 980.417 59.5985 979.886 60.1364C979.364 60.6667 978.731 61.0909 977.989 61.4091C977.254 61.7197 976.424 61.875 975.5 61.875ZM975.636 60.5909C976.727 60.5909 977.693 60.3258 978.534 59.7955C979.383 59.2576 980.045 58.5227 980.523 57.5909C981 56.6591 981.239 55.6023 981.239 54.4205V51.8523C981.064 52.0038 980.811 52.1402 980.477 52.2614C980.152 52.375 979.78 52.4773 979.364 52.5682C978.955 52.6515 978.523 52.7273 978.068 52.7955C977.621 52.8561 977.186 52.9129 976.761 52.9659C975.489 53.1174 974.451 53.3523 973.648 53.6705C972.852 53.9811 972.269 54.3902 971.898 54.8977C971.534 55.4053 971.352 56.0189 971.352 56.7386C971.352 57.928 971.761 58.8674 972.58 59.5568C973.398 60.2462 974.417 60.5909 975.636 60.5909ZM988.438 61.5V44.0455H989.79V46.7727H989.915C990.294 45.8788 990.934 45.1629 991.835 44.625C992.737 44.0795 993.763 43.8068 994.915 43.8068C995.036 43.8068 995.157 43.8068 995.278 43.8068C995.4 43.8068 995.513 43.8106 995.619 43.8182V45.2159C995.528 45.2083 995.419 45.197 995.29 45.1818C995.169 45.1591 995.017 45.1477 994.835 45.1477C993.866 45.1477 993.002 45.3561 992.244 45.7727C991.494 46.1894 990.903 46.7652 990.472 47.5C990.04 48.2273 989.824 49.0606 989.824 50V61.5H988.438ZM999.412 61.5V44.0455H1000.79V61.5H999.412ZM1000.11 40.9545C999.802 40.9545 999.537 40.8485 999.31 40.6364C999.09 40.4242 998.98 40.1667 998.98 39.8636C998.98 39.5606 999.09 39.303 999.31 39.0909C999.529 38.8788 999.795 38.7727 1000.11 38.7727C1000.41 38.7727 1000.67 38.8788 1000.89 39.0909C1001.12 39.303 1001.23 39.5606 1001.23 39.8636C1001.23 40.1667 1001.12 40.4242 1000.9 40.6364C1000.68 40.8485 1000.42 40.9545 1000.11 40.9545ZM1007.98 50.1818V61.5H1006.59V44.0455H1007.95V46.8068H1008.08C1008.49 45.9053 1009.15 45.1818 1010.05 44.6364C1010.95 44.0909 1012.02 43.8182 1013.26 43.8182C1014.44 43.8182 1015.47 44.0682 1016.36 44.5682C1017.25 45.0682 1017.95 45.7803 1018.45 46.7045C1018.95 47.6212 1019.21 48.7159 1019.21 49.9886V61.5H1017.82V50.0455C1017.82 48.5606 1017.38 47.3674 1016.49 46.4659C1015.61 45.5568 1014.45 45.1023 1013 45.1023C1012.03 45.1023 1011.17 45.3144 1010.41 45.7386C1009.65 46.1629 1009.06 46.7576 1008.63 47.5227C1008.2 48.2803 1007.98 49.1667 1007.98 50.1818ZM1031.26 68.4091C1030.18 68.4091 1029.21 68.2652 1028.34 67.9773C1027.48 67.697 1026.75 67.2955 1026.14 66.7727C1025.54 66.25 1025.08 65.6288 1024.76 64.9091L1025.92 64.2273C1026.18 64.7879 1026.55 65.2879 1027.03 65.7273C1027.5 66.1667 1028.09 66.5114 1028.8 66.7614C1029.51 67.0114 1030.33 67.1364 1031.26 67.1364C1032.95 67.1364 1034.28 66.7008 1035.25 65.8295C1036.24 64.9659 1036.73 63.6402 1036.73 61.8523V57.5114H1036.59C1036.33 58.2689 1035.93 58.9432 1035.41 59.5341C1034.9 60.1174 1034.26 60.5758 1033.51 60.9091C1032.76 61.2424 1031.91 61.4091 1030.96 61.4091C1029.58 61.4091 1028.37 61.053 1027.32 60.3409C1026.28 59.6288 1025.46 58.6288 1024.88 57.3409C1024.29 56.0455 1024 54.5227 1024 52.7727C1024 51.0227 1024.29 49.4735 1024.86 48.125C1025.43 46.7689 1026.24 45.7083 1027.29 44.9432C1028.33 44.1705 1029.56 43.7841 1030.97 43.7841C1031.98 43.7841 1032.85 43.9773 1033.58 44.3636C1034.32 44.7424 1034.95 45.2462 1035.45 45.875C1035.95 46.5038 1036.33 47.1932 1036.61 47.9432H1036.76V44.0455H1038.11V61.9091C1038.11 63.3636 1037.82 64.572 1037.24 65.5341C1036.67 66.4962 1035.87 67.2159 1034.84 67.6932C1033.82 68.1705 1032.63 68.4091 1031.26 68.4091ZM1031.08 60.125C1032.25 60.125 1033.25 59.8295 1034.09 59.2386C1034.94 58.6402 1035.59 57.7917 1036.05 56.6932C1036.51 55.5871 1036.74 54.2765 1036.74 52.7614C1036.74 51.2917 1036.52 49.9773 1036.07 48.8182C1035.62 47.6591 1034.98 46.7462 1034.13 46.0795C1033.28 45.4129 1032.26 45.0795 1031.08 45.0795C1029.88 45.0795 1028.85 45.4205 1028 46.1023C1027.15 46.7765 1026.5 47.6932 1026.05 48.8523C1025.6 50.0114 1025.38 51.3144 1025.38 52.7614C1025.38 54.2159 1025.61 55.4962 1026.06 56.6023C1026.51 57.7008 1027.17 58.5644 1028.01 59.1932C1028.86 59.8144 1029.89 60.125 1031.08 60.125Z" fill="black" fill-opacity="0.45"/>
</g>
<defs>
<filter id="filter0_d_122_20901" x="0" y="0" width="1552" height="100" filterUnits="userSpaceOnUse" color-interpolation-filters="sRGB">
<feFlood flood-opacity="0" result="BackgroundImageFix"/>
<feColorMatrix in="SourceAlpha" type="matrix" values="0 0 0 0 0 0 0 0 0 0 0 0 0 0 0 0 0 0 127 0" result="hardAlpha"/>
<feOffset/>
<feGaussianBlur stdDeviation="5"/>
<feComposite in2="hardAlpha" operator="out"/>
<feColorMatrix type="matrix" values="0 0 0 0 0 0 0 0 0 0 0 0 0 0 0 0 0 0 0.02 0"/>
<feBlend mode="normal" in2="BackgroundImageFix" result="effect1_dropShadow_122_20901"/>
<feBlend mode="normal" in="SourceGraphic" in2="effect1_dropShadow_122_20901" result="shape"/>
</filter>
</defs>
</svg>
